<?xml version="1.0" encoding="UTF-8" standalone="no"?>
<!DOCTYPE svg PUBLIC "-//W3C//DTD SVG 1.1//EN" "http://www.w3.org/Graphics/SVG/1.1/DTD/svg11.dtd">
<!-- 由 Microsoft Visio, SVG Export 生成 amic_in_single_ended_mode_connection.svg 页-1 -->
<svg xmlns="http://www.w3.org/2000/svg" xmlns:xlink="http://www.w3.org/1999/xlink" xmlns:ev="http://www.w3.org/2001/xml-events"
		xmlns:v="http://schemas.microsoft.com/visio/2003/SVGExtensions/" width="4.02918in" height="1.56225in"
		viewBox="0 0 290.101 112.482" xml:space="preserve" color-interpolation-filters="sRGB" class="st8">
	<v:documentProperties v:langID="2052" v:metric="true" v:viewMarkup="false"/>

	<style type="text/css">
	<![CDATA[
		.st1 {fill:#ffffff;stroke:#000000;stroke-linecap:round;stroke-linejoin:round;stroke-width:0.24}
		.st2 {fill:none;stroke:none;stroke-linecap:round;stroke-linejoin:round;stroke-width:0.75}
		.st3 {fill:#000000;font-family:Calibri;font-size:0.666664em}
		.st4 {stroke:#000000;stroke-linecap:round;stroke-linejoin:round;stroke-width:0.24}
		.st5 {stroke:#000000;stroke-linecap:round;stroke-linejoin:round;stroke-width:0.25}
		.st6 {fill:#000000;font-family:Calibri;font-size:0.75em}
		.st7 {fill:#000000;font-family:Calibri;font-size:0.833336em}
		.st8 {fill:none;fill-rule:evenodd;font-size:12px;overflow:visible;stroke-linecap:square;stroke-miterlimit:3}
	]]>
	</style>

	<g v:mID="0" v:index="1" v:groupContext="foregroundPage">
		<title>页-1</title>
		<v:pageProperties v:drawingScale="0.0393701" v:pageScale="0.0393701" v:drawingUnits="24" v:shadowOffsetX="8.50394"
				v:shadowOffsetY="-8.50394"/>
		<v:layer v:name="电气" v:index="0"/>
		<v:layer v:name="连接线" v:index="1"/>
		<g id="shape1-1" v:mID="1" v:groupContext="shape" transform="translate(0.375,-22.1013)">
			<title>矩形.1</title>
			<v:userDefs>
				<v:ud v:nameU="visVersion" v:val="VT0(14):26"/>
			</v:userDefs>
			<rect x="0" y="52.9545" width="113.386" height="59.5276" class="st1"/>
		</g>
		<g id="shape2-3" v:mID="2" v:groupContext="shape" transform="translate(202.107,-0.12)">
			<title>矩形</title>
			<v:userDefs>
				<v:ud v:nameU="visVersion" v:val="VT0(14):26"/>
			</v:userDefs>
			<rect x="0" y="0.239998" width="87.874" height="112.242" class="st1"/>
		</g>
		<g id="shape3-5" v:mID="3" v:groupContext="shape" transform="translate(122.57,142.462) rotate(-135)">
			<title>中心拖动圆形.3</title>
			<v:userDefs>
				<v:ud v:nameU="visVersion" v:val="VT0(14):26"/>
			</v:userDefs>
			<path d="M-4.68 112.48 A4.67693 4.67693 0 0 1 4.68 112.48 A4.67693 4.67693 0 1 1 -4.68 112.48 Z" class="st1"/>
		</g>
		<g id="shape4-7" v:mID="4" v:groupContext="shape" transform="translate(-22.4689,169.037) rotate(-135)">
			<title>中心拖动圆形.10</title>
			<v:userDefs>
				<v:ud v:nameU="visVersion" v:val="VT0(14):26"/>
			</v:userDefs>
			<path d="M-4.68 112.48 A4.67693 4.67693 0 0 1 4.68 112.48 A4.67693 4.67693 0 1 1 -4.68 112.48 Z" class="st1"/>
		</g>
		<g id="shape5-9" v:mID="5" v:groupContext="shape" transform="translate(206.95,-42.6142)">
			<title>工作表.5</title>
			<desc>MICx_P</desc>
			<v:textBlock v:margins="rect(1,1,1,1)" v:tabSpace="42.5197"/>
			<v:textRect cx="14.243" cy="105.682" width="28.49" height="13.5992"/>
			<rect x="0" y="98.8829" width="28.486" height="13.5992" class="st2"/>
			<text x="1.89" y="108.08" class="st3" v:langID="2052"><v:paragraph v:horizAlign="1"/><v:tabList/>MICx_P</text>		</g>
		<g id="shape6-12" v:mID="6" v:groupContext="shape" transform="translate(34.224,142.273) rotate(-135)">
			<title>Center drag circle.7</title>
			<v:userDefs>
				<v:ud v:nameU="visVersion" v:val="VT0(14):26"/>
			</v:userDefs>
			<path d="M-4.68 112.48 A4.67693 4.67693 0 0 1 4.68 112.48 A4.67693 4.67693 0 1 1 -4.68 112.48 Z" class="st1"/>
		</g>
		<g id="group7-14" transform="translate(142.107,-43.4156)" v:mID="7" v:groupContext="group" v:layerMember="0">
			<v:userDefs>
				<v:ud v:nameU="Form" v:val="VT0(0):26"/>
				<v:ud v:nameU="Type" v:val="VT0(0):26"/>
				<v:ud v:nameU="visVersion" v:val="VT0(14):26"/>
				<v:ud v:nameU="visDescription" v:val="VT4(表示固定或可变电容器。)"/>
			</v:userDefs>
			<title>电容器</title>
			<g id="shape8-15" v:mID="8" v:groupContext="shape" v:layerMember="0" transform="translate(86.1994,22.1447) rotate(45)">
				<title>工作表.8</title>
			</g>
			<g id="shape9-17" v:mID="9" v:groupContext="shape" v:layerMember="0" transform="translate(9.92126,0)">
				<title>工作表.9</title>
				<path d="M2.83 112.48 L2.83 101.14" class="st4"/>
				<path d="M5.67 112.48 L5.67 101.14" class="st4"/>
			</g>
			<g id="shape10-21" v:mID="10" v:groupContext="shape" v:layerMember="0" transform="translate(0,-5.66929)">
				<title>工作表.10</title>
				<path d="M0 112.48 L12.76 112.48" class="st4"/>
				<path d="M15.59 112.48 L28.35 112.48" class="st4"/>
			</g>
		</g>
		<g id="shape11-25" v:mID="11" v:groupContext="shape" v:layerMember="1" transform="translate(142.107,-42.0558)">
			<title>动态连接线</title>
			<path d="M0 105.45 L-23.7 105.34" class="st5"/>
		</g>
		<g id="shape12-28" v:mID="12" v:groupContext="shape" v:layerMember="1" transform="translate(170.454,-42.0442)">
			<title>动态连接线.12</title>
			<path d="M0 105.44 L26.99 105.35" class="st5"/>
		</g>
		<g id="shape13-31" v:mID="13" v:groupContext="shape" transform="translate(122.57,91.8553) rotate(-135)">
			<title>中心拖动圆形.13</title>
			<v:userDefs>
				<v:ud v:nameU="visVersion" v:val="VT0(14):26"/>
			</v:userDefs>
			<path d="M-4.68 112.48 A4.67693 4.67693 0 0 1 4.68 112.48 A4.67693 4.67693 0 1 1 -4.68 112.48 Z" class="st1"/>
		</g>
		<g id="shape14-33" v:mID="14" v:groupContext="shape" transform="translate(0.375,-45.3543)">
			<title>工作表.14</title>
			<desc>Analog MIC</desc>
			<v:textBlock v:margins="rect(1,1,1,1)" v:tabSpace="42.5197"/>
			<v:textRect cx="28.3465" cy="103.978" width="56.7" height="17.0079"/>
			<rect x="0" y="95.4742" width="56.6929" height="17.0079" class="st2"/>
			<text x="7.3" y="106.68" class="st6" v:langID="2052"><v:paragraph v:horizAlign="1"/><v:tabList/>Analog MIC</text>		</g>
		<g id="shape15-36" v:mID="15" v:groupContext="shape" transform="translate(73.8358,-42.3252)">
			<title>工作表.15</title>
			<desc>OUTPUT</desc>
			<v:textBlock v:margins="rect(1,1,1,1)" v:tabSpace="42.5197"/>
			<v:textRect cx="19.8425" cy="105.395" width="39.69" height="14.1732"/>
			<rect x="0" y="98.3089" width="39.685" height="14.1732" class="st2"/>
			<text x="6.1" y="107.8" class="st3" v:langID="2052"><v:paragraph v:horizAlign="1"/><v:tabList/>OUTPUT</text>		</g>
		<g id="shape16-39" v:mID="16" v:groupContext="shape" transform="translate(39.82,-27.9695)">
			<title>工作表.16</title>
			<desc>GND</desc>
			<v:textBlock v:margins="rect(1,1,1,1)" v:tabSpace="42.5197"/>
			<v:textRect cx="17.0079" cy="106.813" width="34.02" height="11.3386"/>
			<rect x="0" y="101.144" width="34.0157" height="11.3386" class="st2"/>
			<text x="9.44" y="109.21" class="st3" v:langID="2052"><v:paragraph v:horizAlign="1"/><v:tabList/>GND</text>		</g>
		<g id="shape17-42" v:mID="17" v:groupContext="shape" v:layerMember="0" transform="translate(-52.0136,111.577) rotate(-90)">
			<title>接地</title>
			<v:userDefs>
				<v:ud v:nameU="visVersion" v:val="VT0(14):26"/>
				<v:ud v:nameU="visDescription" v:val="VT4(表示接地。)"/>
			</v:userDefs>
			<path d="M0 107.83 L0 110.16" class="st4"/>
			<path d="M1.16 106.67 L1.16 111.32" class="st4"/>
			<path d="M2.33 105.5 L2.33 112.48" class="st4"/>
			<path d="M17.45 108.99 L2.33 108.99" class="st4"/>
		</g>
		<g id="shape18-48" v:mID="18" v:groupContext="shape" transform="translate(206.169,-91.9866)">
			<title>工作表.18</title>
			<desc>MIC_BIAS</desc>
			<v:textBlock v:margins="rect(1,1,1,1)" v:tabSpace="42.5197"/>
			<v:textRect cx="17.7165" cy="104.687" width="35.44" height="15.5906"/>
			<rect x="0" y="96.8915" width="35.4331" height="15.5906" class="st2"/>
			<text x="1.83" y="107.09" class="st3" v:langID="2052"><v:paragraph v:horizAlign="1"/><v:tabList/>MIC_BIAS</text>		</g>
		<g id="shape24-51" v:mID="24" v:groupContext="shape" transform="translate(220.869,-4.65543)">
			<title>工作表.24</title>
			<desc>Chip</desc>
			<v:textBlock v:margins="rect(1,1,1,1)" v:tabSpace="42.5197"/>
			<v:textRect cx="28.3465" cy="103.978" width="56.7" height="17.0079"/>
			<rect x="0" y="95.4742" width="56.6929" height="17.0079" class="st2"/>
			<text x="19.28" y="106.98" class="st7" v:langID="2052"><v:paragraph v:horizAlign="1"/><v:tabList/>Chip</text>		</g>
		<g id="shape25-54" v:mID="25" v:groupContext="shape" transform="translate(5.75752,110.39) rotate(-135)">
			<title>Center drag circle.25</title>
			<v:userDefs>
				<v:ud v:nameU="visVersion" v:val="VT0(14):26"/>
			</v:userDefs>
			<path d="M-4.68 112.48 A4.67693 4.67693 0 0 1 4.68 112.48 A4.67693 4.67693 0 1 1 -4.68 112.48 Z" class="st1"/>
		</g>
		<g id="shape26-56" v:mID="26" v:groupContext="shape" transform="translate(62.6172,-63.7795)">
			<title>工作表.26</title>
			<desc>VDD</desc>
			<v:textBlock v:margins="rect(1,1,1,1)" v:tabSpace="42.5197"/>
			<v:textRect cx="19.8425" cy="105.395" width="39.69" height="14.1732"/>
			<rect x="0" y="98.3089" width="39.685" height="14.1732" class="st2"/>
			<text x="12.65" y="107.8" class="st3" v:langID="2052"><v:paragraph v:horizAlign="1"/><v:tabList/>VDD</text>		</g>
		<g id="shape27-59" v:mID="27" v:groupContext="shape" transform="translate(85.2944,-86.3058)">
			<title>工作表.27</title>
			<path d="M112.14 98.83 L0 98.83 L0 112.48" class="st5"/>
		</g>
	</g>
</svg>
