<?xml version="1.0" encoding="UTF-8" standalone="no"?>
<!DOCTYPE svg PUBLIC "-//W3C//DTD SVG 1.1//EN" "http://www.w3.org/Graphics/SVG/1.1/DTD/svg11.dtd">
<!-- 由 Microsoft Visio, SVG Export 生成 audiohwcard_example.svg 页-1 -->
<svg xmlns="http://www.w3.org/2000/svg" xmlns:xlink="http://www.w3.org/1999/xlink" xmlns:ev="http://www.w3.org/2001/xml-events"
		xmlns:v="http://schemas.microsoft.com/visio/2003/SVGExtensions/" width="5.88211in" height="4.0634in"
		viewBox="0 0 423.512 292.565" xml:space="preserve" color-interpolation-filters="sRGB" class="st6">
	<v:documentProperties v:langID="2052" v:metric="true" v:viewMarkup="false"/>

	<style type="text/css">
	<![CDATA[
		.st1 {fill:#d8d8d8;stroke:#000000;stroke-width:0.75}
		.st2 {fill:#000000;font-family:Arial;font-size:1.16666em}
		.st3 {fill:#000000;stroke:#000000;stroke-width:0.25}
		.st4 {fill:none;stroke:none;stroke-width:0.25}
		.st5 {fill:#000000;font-family:Arial;font-size:1.00001em}
		.st6 {fill:none;fill-rule:evenodd;font-size:12px;overflow:visible;stroke-linecap:square;stroke-miterlimit:3}
	]]>
	</style>

	<g v:mID="0" v:index="1" v:groupContext="foregroundPage">
		<title>页-1</title>
		<v:pageProperties v:drawingScale="0.0393701" v:pageScale="0.0393701" v:drawingUnits="24" v:shadowOffsetX="8.50394"
				v:shadowOffsetY="-8.50394"/>
		<g id="shape217-1" v:mID="217" v:groupContext="shape" transform="translate(159.006,-0.75)">
			<title>矩形.217</title>
			<desc>Audio Card</desc>
			<v:userDefs>
				<v:ud v:nameU="CTypeTopLeftSnip" v:prompt="" v:val="VT0(0):5"/>
				<v:ud v:nameU="CTypeTopRightSnip" v:prompt="" v:val="VT0(0):5"/>
				<v:ud v:nameU="CTypeBotLeftSnip" v:prompt="" v:val="VT0(0):5"/>
				<v:ud v:nameU="CTypeBotRightSnip" v:prompt="" v:val="VT0(0):5"/>
				<v:ud v:nameU="CornerLockHoriz" v:prompt="" v:val="VT0(1):5"/>
				<v:ud v:nameU="CornerLockVert" v:prompt="" v:val="VT0(1):5"/>
				<v:ud v:nameU="CornerLockDiag" v:prompt="" v:val="VT0(0):5"/>
				<v:ud v:nameU="TopLeftOffset" v:prompt="" v:val="VT0(0.15748031496063):24"/>
				<v:ud v:nameU="TopRightOffset" v:prompt="" v:val="VT0(0.15748031496063):24"/>
				<v:ud v:nameU="BotLeftOffset" v:prompt="" v:val="VT0(0.15748031496063):24"/>
				<v:ud v:nameU="BotRightOffset" v:prompt="" v:val="VT0(0.15748031496063):24"/>
				<v:ud v:nameU="visVersion" v:prompt="" v:val="VT0(15):26"/>
				<v:ud v:nameU="TopLeftOffset" v:prompt="" v:val="VT0(0.2509842519685):1"/>
				<v:ud v:nameU="TopRightOffset" v:prompt="" v:val="VT0(0.2509842519685):1"/>
				<v:ud v:nameU="BotLeftOffset" v:prompt="" v:val="VT0(0.2509842519685):1"/>
				<v:ud v:nameU="BotRightOffset" v:prompt="" v:val="VT0(0.2509842519685):1"/>
			</v:userDefs>
			<v:textBlock v:margins="rect(4,4,4,4)" v:tabSpace="42.5197" v:verticalAlign="0"/>
			<v:textRect cx="90.3543" cy="147.032" width="180.71" height="291.065"/>
			<path d="M18.07 292.56 L162.64 292.56 A18.0706 18.0706 -180 0 0 180.71 274.49 L180.71 19.57 A18.0706 18.0706 -180 0 0
						 162.64 1.5 L18.07 1.5 A18.0706 18.0706 -180 0 0 0 19.57 L0 274.49 A18.0706 18.0706 -180 0 0 18.07 292.56
						 Z" class="st1"/>
			<text x="55.33" y="18.1" class="st2" v:langID="2052"><v:paragraph v:horizAlign="1"/><v:tabList/>Audio Card</text>		</g>
		<g id="shape218-4" v:mID="218" v:groupContext="shape" transform="translate(140.213,-224.941)">
			<title>矩形.218</title>
			<v:userDefs>
				<v:ud v:nameU="visVersion" v:val="VT0(15):26"/>
			</v:userDefs>
			<path d="M0 273.08 A19.4882 19.4882 0 0 1 38.98 273.08 A19.4882 19.4882 0 1 1 0 273.08 Z" class="st1"/>
		</g>
		<g id="shape219-6" v:mID="219" v:groupContext="shape" transform="translate(139.518,-173.083)">
			<title>矩形.219</title>
			<v:userDefs>
				<v:ud v:nameU="visVersion" v:val="VT0(15):26"/>
			</v:userDefs>
			<path d="M0 273.08 A19.4882 19.4882 0 0 1 38.98 273.08 A19.4882 19.4882 0 1 1 0 273.08 Z" class="st1"/>
		</g>
		<g id="shape220-8" v:mID="220" v:groupContext="shape" transform="translate(139.558,-85.1959)">
			<title>矩形.220</title>
			<v:userDefs>
				<v:ud v:nameU="visVersion" v:val="VT0(15):26"/>
			</v:userDefs>
			<path d="M0 273.08 A19.4882 19.4882 0 0 1 38.98 273.08 A19.4882 19.4882 0 1 1 0 273.08 Z" class="st1"/>
		</g>
		<g id="shape222-10" v:mID="222" v:groupContext="shape" transform="translate(325.035,-229.043)">
			<title>矩形.222</title>
			<v:userDefs>
				<v:ud v:nameU="visVersion" v:val="VT0(15):26"/>
			</v:userDefs>
			<path d="M0 276.62 A15.9449 15.9449 0 0 1 31.89 276.62 A15.9449 15.9449 0 1 1 -0 276.62 Z" class="st1"/>
		</g>
		<g id="shape223-12" v:mID="223" v:groupContext="shape" transform="translate(325.035,-180.07)">
			<title>矩形.223</title>
			<v:userDefs>
				<v:ud v:nameU="visVersion" v:val="VT0(15):26"/>
			</v:userDefs>
			<path d="M0 276.62 A15.9449 15.9449 0 0 1 31.89 276.62 A15.9449 15.9449 0 1 1 -0 276.62 Z" class="st1"/>
		</g>
		<g id="shape225-14" v:mID="225" v:groupContext="shape" transform="translate(325.035,-89.7401)">
			<title>矩形.225</title>
			<v:userDefs>
				<v:ud v:nameU="visVersion" v:val="VT0(15):26"/>
			</v:userDefs>
			<path d="M0 276.62 A15.9449 15.9449 0 0 1 31.89 276.62 A15.9449 15.9449 0 1 1 -0 276.62 Z" class="st1"/>
		</g>
		<g id="shape226-16" v:mID="226" v:groupContext="shape" transform="translate(325.542,-36.3847)">
			<title>矩形.226</title>
			<v:userDefs>
				<v:ud v:nameU="visVersion" v:val="VT0(15):26"/>
			</v:userDefs>
			<path d="M0 276.62 A15.9449 15.9449 0 0 1 31.89 276.62 A15.9449 15.9449 0 1 1 -0 276.62 Z" class="st1"/>
		</g>
		<g id="shape229-18" v:mID="229" v:groupContext="shape" transform="translate(326.156,340.14) rotate(179.78)">
			<title>现代箭头</title>
			<v:userDefs>
				<v:ud v:nameU="CtrlAngle" v:prompt="" v:val="VT0(0.78539816339745):32"/>
				<v:ud v:nameU="visVersion" v:prompt="" v:val="VT0(15):26"/>
				<v:ud v:nameU="CtrlAngle" v:prompt="" v:val="VT0(0.63650820709357):32"/>
			</v:userDefs>
			<path d="M0 292.56 L11.64 283.96 L13.11 285.95 L5.83 291.33 L145.85 291.33 L145.85 293.8 L5.83 293.8 L13.11 299.18 L11.64
						 301.17 L0 292.56 Z" class="st3"/>
		</g>
		<g id="shape231-20" v:mID="231" v:groupContext="shape" transform="translate(328.572,391.064) rotate(179.307)">
			<title>现代箭头.231</title>
			<v:userDefs>
				<v:ud v:nameU="CtrlAngle" v:prompt="" v:val="VT0(0.78539816339745):32"/>
				<v:ud v:nameU="visVersion" v:prompt="" v:val="VT0(15):26"/>
				<v:ud v:nameU="CtrlAngle" v:prompt="" v:val="VT0(0.63650820709357):32"/>
			</v:userDefs>
			<path d="M0 292.56 L11.64 283.96 L13.11 285.95 L5.83 291.33 L146.55 291.33 L146.55 293.8 L5.83 293.8 L13.11 299.18 L11.64
						 301.17 L0 292.56 Z" class="st3"/>
		</g>
		<g id="shape232-22" v:mID="232" v:groupContext="shape" transform="translate(176.536,-104.677) rotate(-0.391433)">
			<title>现代箭头.232</title>
			<v:userDefs>
				<v:ud v:nameU="CtrlAngle" v:prompt="" v:val="VT0(0.78539816339745):32"/>
				<v:ud v:nameU="visVersion" v:prompt="" v:val="VT0(15):26"/>
				<v:ud v:nameU="CtrlAngle" v:prompt="" v:val="VT0(0.63650820709357):32"/>
			</v:userDefs>
			<path d="M0 292.56 L11.64 283.96 L13.11 285.95 L5.83 291.33 L146.5 291.33 L146.5 293.8 L5.83 293.8 L13.11 299.18 L11.64
						 301.17 L0 292.56 Z" class="st3"/>
		</g>
		<g id="shape233-24" v:mID="233" v:groupContext="shape" transform="translate(179.953,-52.3296)">
			<title>现代箭头.233</title>
			<v:userDefs>
				<v:ud v:nameU="CtrlAngle" v:prompt="" v:val="VT0(0.78539816339745):32"/>
				<v:ud v:nameU="visVersion" v:prompt="" v:val="VT0(15):26"/>
				<v:ud v:nameU="CtrlAngle" v:prompt="" v:val="VT0(0.63650820709357):32"/>
			</v:userDefs>
			<path d="M0 292.56 L11.64 283.96 L13.11 285.95 L5.83 291.33 L145.59 291.33 L145.59 293.8 L5.83 293.8 L13.11 299.18 L11.64
						 301.17 L0 292.56 Z" class="st3"/>
		</g>
		<g id="shape235-26" v:mID="235" v:groupContext="shape" transform="translate(1.9415,-234.791)">
			<title>工作表.235</title>
			<desc>Out Stream</desc>
			<v:textBlock v:margins="rect(4,4,4,4)" v:tabSpace="42.5197"/>
			<v:textRect cx="35.2913" cy="282.927" width="70.59" height="19.2756"/>
			<rect x="0" y="273.289" width="70.5827" height="19.2756" class="st4"/>
			<text x="5.23" y="286.53" class="st5" v:langID="2052"><v:paragraph v:horizAlign="2"/><v:tabList/>Out Stream</text>		</g>
		<g id="shape236-29" v:mID="236" v:groupContext="shape" transform="translate(129.833,341.48) rotate(-179.693)">
			<title>普通箭头</title>
			<v:userDefs>
				<v:ud v:nameU="visVersion" v:val="VT0(15):26"/>
				<v:ud v:nameU="ArrowType" v:prompt="" v:val="VT0(2):26"/>
			</v:userDefs>
			<path d="M0 292.56 L11.34 281.23 L11.34 286.9 L56.69 286.9 L56.69 292.56 L56.69 298.23 L11.34 298.23 L11.34 303.9 L0
						 292.56 Z" class="st1"/>
		</g>
		<g id="shape237-31" v:mID="237" v:groupContext="shape" transform="translate(129.615,393.271) rotate(-179.693)">
			<title>普通箭头.237</title>
			<v:userDefs>
				<v:ud v:nameU="visVersion" v:val="VT0(15):26"/>
				<v:ud v:nameU="ArrowType" v:prompt="" v:val="VT0(2):26"/>
			</v:userDefs>
			<path d="M0 292.56 L11.34 281.23 L11.34 286.9 L56.69 286.9 L56.69 292.56 L56.69 298.23 L11.34 298.23 L11.34 303.9 L0
						 292.56 Z" class="st1"/>
		</g>
		<g id="shape238-33" v:mID="238" v:groupContext="shape" transform="translate(75.9595,-103.559) rotate(0.358094)">
			<title>普通箭头.238</title>
			<v:userDefs>
				<v:ud v:nameU="visVersion" v:val="VT0(15):26"/>
				<v:ud v:nameU="ArrowType" v:prompt="" v:val="VT0(2):26"/>
			</v:userDefs>
			<path d="M0 292.56 L11.34 281.23 L11.34 286.9 L56.69 286.9 L56.69 292.56 L56.69 298.23 L11.34 298.23 L11.34 303.9 L0
						 292.56 Z" class="st1"/>
		</g>
		<g id="shape239-35" v:mID="239" v:groupContext="shape" transform="translate(2.29668,-182.933)">
			<title>工作表.239</title>
			<desc>Out Stream</desc>
			<v:textBlock v:margins="rect(4,4,4,4)" v:tabSpace="42.5197"/>
			<v:textRect cx="35.2913" cy="282.927" width="70.59" height="19.2756"/>
			<rect x="0" y="273.289" width="70.5827" height="19.2756" class="st4"/>
			<text x="5.23" y="286.53" class="st5" v:langID="2052"><v:paragraph v:horizAlign="2"/><v:tabList/>Out Stream</text>		</g>
		<g id="shape240-38" v:mID="240" v:groupContext="shape" transform="translate(0.25,-93.5728)">
			<title>工作表.240</title>
			<desc>In Stream</desc>
			<v:textBlock v:margins="rect(4,4,4,4)" v:tabSpace="42.5197"/>
			<v:textRect cx="35.2913" cy="282.927" width="70.59" height="19.2756"/>
			<rect x="0" y="273.289" width="70.5827" height="19.2756" class="st4"/>
			<text x="14.56" y="286.53" class="st5" v:langID="2052"><v:paragraph v:horizAlign="2"/><v:tabList/>In Stream</text>		</g>
		<g id="shape241-41" v:mID="241" v:groupContext="shape" transform="translate(150.076,-244.641)">
			<title>工作表.241</title>
			<desc>PORT</desc>
			<v:textBlock v:margins="rect(4,4,4,4)" v:tabSpace="42.5197"/>
			<v:textRect cx="45.0709" cy="282.927" width="90.15" height="19.2756"/>
			<rect x="0" y="273.289" width="90.1417" height="19.2756" class="st4"/>
			<text x="28.4" y="286.53" class="st5" v:langID="2052"><v:paragraph v:horizAlign="1"/><v:tabList/>PORT</text>		</g>
		<g id="shape242-44" v:mID="242" v:groupContext="shape" transform="translate(357.181,-235.35)">
			<title>工作表.242</title>
			<desc>SPEAKER</desc>
			<v:textBlock v:margins="rect(4,4,4,4)" v:tabSpace="42.5197"/>
			<v:textRect cx="33.0404" cy="282.927" width="66.09" height="19.2756"/>
			<rect x="0" y="273.289" width="66.0807" height="19.2756" class="st4"/>
			<text x="4" y="286.53" class="st5" v:langID="2052"><v:paragraph/><v:tabList/>SPEAKER</text>		</g>
		<g id="shape243-47" v:mID="243" v:groupContext="shape" transform="translate(355.643,-186.377)">
			<title>工作表.243</title>
			<desc>I2S OUT</desc>
			<v:textBlock v:margins="rect(4,4,4,4)" v:tabSpace="42.5197"/>
			<v:textRect cx="33.0404" cy="282.927" width="66.09" height="19.2756"/>
			<rect x="0" y="273.289" width="66.0807" height="19.2756" class="st4"/>
			<text x="4" y="286.53" class="st5" v:langID="2052"><v:paragraph/><v:tabList/>I2S OUT</text>		</g>
		<g id="shape245-50" v:mID="245" v:groupContext="shape" transform="translate(357.181,-96.0472)">
			<title>工作表.245</title>
			<desc>MIC</desc>
			<v:textBlock v:margins="rect(4,4,4,4)" v:tabSpace="42.5197"/>
			<v:textRect cx="33.0404" cy="282.927" width="66.09" height="19.2756"/>
			<rect x="0" y="273.289" width="66.0807" height="19.2756" class="st4"/>
			<text x="4" y="286.53" class="st5" v:langID="2052"><v:paragraph/><v:tabList/>MIC</text>		</g>
		<g id="shape246-53" v:mID="246" v:groupContext="shape" transform="translate(355.643,-42.6918)">
			<title>工作表.246</title>
			<desc>I2S IN</desc>
			<v:textBlock v:margins="rect(4,4,4,4)" v:tabSpace="42.5197"/>
			<v:textRect cx="33.0404" cy="282.927" width="66.09" height="19.2756"/>
			<rect x="0" y="273.289" width="66.0807" height="19.2756" class="st4"/>
			<text x="4" y="286.53" class="st5" v:langID="2052"><v:paragraph/><v:tabList/>I2S IN</text>		</g>
		<g id="shape247-56" v:mID="247" v:groupContext="shape" transform="translate(0.686702,-42.6918)">
			<title>工作表.247</title>
			<desc>In Stream</desc>
			<v:textBlock v:margins="rect(4,4,4,4)" v:tabSpace="42.5197"/>
			<v:textRect cx="35.2913" cy="282.927" width="70.59" height="19.2756"/>
			<rect x="0" y="273.289" width="70.5827" height="19.2756" class="st4"/>
			<text x="14.56" y="286.53" class="st5" v:langID="2052"><v:paragraph v:horizAlign="2"/><v:tabList/>In Stream</text>		</g>
		<g id="shape248-59" v:mID="248" v:groupContext="shape" transform="translate(74.6318,-52.2075) rotate(0.0125465)">
			<title>普通箭头.248</title>
			<v:userDefs>
				<v:ud v:nameU="visVersion" v:val="VT0(15):26"/>
				<v:ud v:nameU="ArrowType" v:prompt="" v:val="VT0(2):26"/>
			</v:userDefs>
			<path d="M0 292.56 L11.34 281.23 L11.34 286.9 L56.69 286.9 L56.69 292.56 L56.69 298.23 L11.34 298.23 L11.34 303.9 L0
						 292.56 Z" class="st1"/>
		</g>
		<g id="shape249-61" v:mID="249" v:groupContext="shape" transform="translate(139.995,-33.3383)">
			<title>矩形.249</title>
			<v:userDefs>
				<v:ud v:nameU="visVersion" v:val="VT0(15):26"/>
			</v:userDefs>
			<path d="M0 273.08 A19.4882 19.4882 0 0 1 38.98 273.08 A19.4882 19.4882 0 1 1 0 273.08 Z" class="st1"/>
		</g>
	</g>
</svg>
