<?xml version="1.0" encoding="UTF-8" standalone="no"?>
<!DOCTYPE svg PUBLIC "-//W3C//DTD SVG 1.1//EN" "http://www.w3.org/Graphics/SVG/1.1/DTD/svg11.dtd">
<!-- 由 Microsoft Visio, SVG Export 生成 dmic_in_mono_mode_connection.svg 页-1 -->
<svg xmlns="http://www.w3.org/2000/svg" xmlns:xlink="http://www.w3.org/1999/xlink" xmlns:ev="http://www.w3.org/2001/xml-events"
		xmlns:v="http://schemas.microsoft.com/visio/2003/SVGExtensions/" width="4.24079in" height="1.5686in"
		viewBox="0 0 305.337 112.939" xml:space="preserve" color-interpolation-filters="sRGB" class="st11">
	<v:documentProperties v:langID="2052" v:metric="true" v:viewMarkup="false"/>

	<style type="text/css">
	<![CDATA[
		.st1 {fill:#ffffff;stroke:#000000;stroke-linecap:round;stroke-linejoin:round;stroke-width:0.24}
		.st2 {fill:#ffffff;stroke:none;stroke-linecap:round;stroke-linejoin:round;stroke-width:0.75}
		.st3 {fill:#000000;font-family:Calibri;font-size:0.666664em}
		.st4 {fill:#000000;font-family:Calibri;font-size:0.75em}
		.st5 {fill:none;stroke:none;stroke-linecap:round;stroke-linejoin:round;stroke-width:0.75}
		.st6 {stroke:#000000;stroke-linecap:round;stroke-linejoin:round;stroke-width:0.24}
		.st7 {stroke:#000000;stroke-linecap:round;stroke-linejoin:round;stroke-width:0.25}
		.st8 {fill:#000000}
		.st9 {stroke:#000000;stroke-linecap:butt;stroke-width:1.03897}
		.st10 {stroke:#000000;stroke-linecap:round;stroke-linejoin:round;stroke-width:0.75}
		.st11 {fill:none;fill-rule:evenodd;font-size:12px;overflow:visible;stroke-linecap:square;stroke-miterlimit:3}
	]]>
	</style>

	<g v:mID="0" v:index="1" v:groupContext="foregroundPage">
		<v:userDefs>
			<v:ud v:nameU="ResistorCount" v:prompt="" v:val="VT0(3):26"/>
		</v:userDefs>
		<title>页-1</title>
		<v:pageProperties v:drawingScale="0.0393701" v:pageScale="0.0393701" v:drawingUnits="24" v:shadowOffsetX="8.50394"
				v:shadowOffsetY="-8.50394"/>
		<v:layer v:name="电气" v:index="0"/>
		<v:layer v:name="连接线" v:index="1"/>
		<g id="shape64-1" v:mID="64" v:groupContext="shape" transform="translate(15.8595,-17.5904)">
			<title>矩形.64</title>
			<v:userDefs>
				<v:ud v:nameU="visVersion" v:val="VT0(14):26"/>
			</v:userDefs>
			<rect x="0" y="40.2676" width="113.386" height="72.6713" class="st1"/>
		</g>
		<g id="shape65-3" v:mID="65" v:groupContext="shape" transform="translate(217.592,-2.38772)">
			<title>矩形.65</title>
			<v:userDefs>
				<v:ud v:nameU="visVersion" v:val="VT0(14):26"/>
			</v:userDefs>
			<rect x="0" y="3.80504" width="87.6251" height="109.134" class="st1"/>
		</g>
		<g id="shape66-5" v:mID="66" v:groupContext="shape" transform="translate(137.732,141.665) rotate(-135)">
			<title>中心拖动圆形.66</title>
			<v:userDefs>
				<v:ud v:nameU="visVersion" v:val="VT0(14):26"/>
			</v:userDefs>
			<path d="M-4.68 112.94 A4.67693 4.67693 0 0 1 4.68 112.94 A4.67693 4.67693 0 1 1 -4.68 112.94 Z" class="st1"/>
		</g>
		<g id="shape67-7" v:mID="67" v:groupContext="shape" transform="translate(-7.30744,175.208) rotate(-135)">
			<title>中心拖动圆形.67</title>
			<v:userDefs>
				<v:ud v:nameU="visVersion" v:val="VT0(14):26"/>
			</v:userDefs>
			<path d="M-4.68 112.94 A4.67693 4.67693 0 0 1 4.68 112.94 A4.67693 4.67693 0 1 1 -4.68 112.94 Z" class="st1"/>
		</g>
		<g id="shape68-9" v:mID="68" v:groupContext="shape" transform="translate(224.678,-43.516)">
			<title>工作表.68</title>
			<desc>DMIC_CLK</desc>
			<v:textBlock v:margins="rect(1,1,1,1)" v:tabSpace="42.5197"/>
			<v:textRect cx="20.3519" cy="106.139" width="40.71" height="13.5992"/>
			<rect x="0" y="99.3397" width="40.7038" height="13.5992" class="st2"/>
			<text x="3.45" y="108.54" class="st3" v:langID="2052"><v:paragraph v:horizAlign="1"/><v:tabList/>DMIC_CLK</text>		</g>
		<g id="shape69-12" v:mID="69" v:groupContext="shape" transform="translate(49.3855,141.476) rotate(-135)">
			<title>Center drag circle.69</title>
			<v:userDefs>
				<v:ud v:nameU="visVersion" v:val="VT0(14):26"/>
			</v:userDefs>
			<path d="M-4.68 112.94 A4.67693 4.67693 0 0 1 4.68 112.94 A4.67693 4.67693 0 1 1 -4.68 112.94 Z" class="st1"/>
		</g>
		<g id="shape70-14" v:mID="70" v:groupContext="shape" transform="translate(-7.30744,102.664) rotate(-135)">
			<title>中心拖动圆形.70</title>
			<v:userDefs>
				<v:ud v:nameU="visVersion" v:val="VT0(14):26"/>
			</v:userDefs>
			<path d="M-4.68 112.94 A4.67693 4.67693 0 0 1 4.68 112.94 A4.67693 4.67693 0 1 1 -4.68 112.94 Z" class="st1"/>
		</g>
		<g id="shape71-16" v:mID="71" v:groupContext="shape" transform="translate(55.5445,-74.6712)">
			<title>工作表.71</title>
			<desc>VDD</desc>
			<v:textBlock v:margins="rect(1,1,1,1)" v:tabSpace="42.5197"/>
			<v:textRect cx="17.0079" cy="107.27" width="34.02" height="11.3386"/>
			<rect x="0" y="101.6" width="34.0157" height="11.3386" class="st2"/>
			<text x="9.82" y="109.67" class="st3" v:langID="2052"><v:paragraph v:horizAlign="1"/><v:tabList/>VDD</text>		</g>
		<g id="shape72-19" v:mID="72" v:groupContext="shape" transform="translate(44.206,-52.2775)">
			<title>工作表.72</title>
			<desc>Digital MIC</desc>
			<v:textBlock v:margins="rect(1,1,1,1)" v:tabSpace="42.5197"/>
			<v:textRect cx="28.3465" cy="104.435" width="56.7" height="17.0079"/>
			<rect x="0" y="95.931" width="56.6929" height="17.0079" class="st2"/>
			<text x="8.3" y="107.13" class="st4" v:langID="2052"><v:paragraph v:horizAlign="1"/><v:tabList/>Digital MIC</text>		</g>
		<g id="shape73-22" v:mID="73" v:groupContext="shape" transform="translate(90.9776,-43.7816)">
			<title>工作表.73</title>
			<desc>CLOCK</desc>
			<v:textBlock v:margins="rect(1,1,1,1)" v:tabSpace="42.5197"/>
			<v:textRect cx="19.8425" cy="105.852" width="39.69" height="14.1732"/>
			<rect x="0" y="98.7657" width="39.685" height="14.1732" class="st5"/>
			<text x="9.17" y="108.25" class="st3" v:langID="2052"><v:paragraph v:horizAlign="1"/><v:tabList/>CLOCK</text>		</g>
		<g id="shape74-25" v:mID="74" v:groupContext="shape" transform="translate(56.9619,-25.1494)">
			<title>工作表.74</title>
			<desc>GND</desc>
			<v:textBlock v:margins="rect(1,1,1,1)" v:tabSpace="42.5197"/>
			<v:textRect cx="17.0079" cy="107.27" width="34.02" height="11.3386"/>
			<rect x="0" y="101.6" width="34.0157" height="11.3386" class="st2"/>
			<text x="9.44" y="109.67" class="st3" v:langID="2052"><v:paragraph v:horizAlign="1"/><v:tabList/>GND</text>		</g>
		<g id="shape75-28" v:mID="75" v:groupContext="shape" v:layerMember="0" transform="translate(-37.8568,112.819) rotate(-90)">
			<title>接地.75</title>
			<v:userDefs>
				<v:ud v:nameU="visVersion" v:val="VT0(14):26"/>
				<v:ud v:nameU="visDescription" v:val="VT4(表示接地。)"/>
			</v:userDefs>
			<path d="M0 109.54 L0 111.24" class="st6"/>
			<path d="M0.85 108.69 L0.85 112.09" class="st6"/>
			<path d="M1.7 107.84 L1.7 112.94" class="st6"/>
			<path d="M12.75 110.39 L1.7 110.39" class="st6"/>
		</g>
		<g id="shape76-34" v:mID="76" v:groupContext="shape" transform="translate(137.732,161.508) rotate(-135)">
			<title>中心拖动圆形.76</title>
			<v:userDefs>
				<v:ud v:nameU="visVersion" v:val="VT0(14):26"/>
			</v:userDefs>
			<path d="M-4.68 112.94 A4.67693 4.67693 0 0 1 4.68 112.94 A4.67693 4.67693 0 1 1 -4.68 112.94 Z" class="st1"/>
		</g>
		<g id="shape77-36" v:mID="77" v:groupContext="shape" transform="translate(223.025,-22.0588)">
			<title>工作表.77</title>
			<desc>DMIC_DATA</desc>
			<v:textBlock v:margins="rect(1,1,1,1)" v:tabSpace="42.5197"/>
			<v:textRect cx="24.7003" cy="104.255" width="49.41" height="17.3668"/>
			<rect x="0" y="95.5721" width="49.4007" height="17.3668" class="st2"/>
			<text x="4.65" y="106.66" class="st3" v:langID="2052"><v:paragraph v:horizAlign="1"/><v:tabList/>DMIC_DATA</text>		</g>
		<g id="shape78-39" v:mID="78" v:groupContext="shape" transform="translate(49.3855,161.319) rotate(-135)">
			<title>Center drag circle.78</title>
			<v:userDefs>
				<v:ud v:nameU="visVersion" v:val="VT0(14):26"/>
			</v:userDefs>
			<path d="M-4.68 112.94 A4.67693 4.67693 0 0 1 4.68 112.94 A4.67693 4.67693 0 1 1 -4.68 112.94 Z" class="st1"/>
		</g>
		<g id="shape79-41" v:mID="79" v:groupContext="shape" transform="translate(90.9776,-24.8038)">
			<title>工作表.79</title>
			<desc>DATA</desc>
			<v:textBlock v:margins="rect(1,1,1,1)" v:tabSpace="42.5197"/>
			<v:textRect cx="19.8425" cy="105.852" width="39.69" height="14.1732"/>
			<rect x="0" y="98.7657" width="39.685" height="14.1732" class="st5"/>
			<text x="10.8" y="108.25" class="st3" v:langID="2052"><v:paragraph v:horizAlign="1"/><v:tabList/>DATA</text>		</g>
		<g id="shape82-44" v:mID="82" v:groupContext="shape" transform="translate(-64.0004,156.311) rotate(-135)">
			<title>Center drag circle.82</title>
			<v:userDefs>
				<v:ud v:nameU="visVersion" v:val="VT0(14):26"/>
			</v:userDefs>
			<path d="M-4.68 112.94 A4.67693 4.67693 0 0 1 4.68 112.94 A4.67693 4.67693 0 1 1 -4.68 112.94 Z" class="st1"/>
		</g>
		<g id="shape83-46" v:mID="83" v:groupContext="shape" v:layerMember="1" transform="translate(14.1732,-29.303)">
			<title>动态连接线.83</title>
			<path d="M-2.99 105.85 L-11.18 105.85" class="st7"/>
		</g>
		<g id="shape84-49" v:mID="84" v:groupContext="shape" v:layerMember="1" transform="translate(2.98962,-36.3896)">
			<title>动态连接线.84</title>
			<path d="M0 112.94 L0 140.23 L69.54 140.23" class="st7"/>
		</g>
		<g id="shape85-52" v:mID="85" v:groupContext="shape" transform="translate(22.2375,-26.5668)">
			<title>工作表.85</title>
			<desc>L/R</desc>
			<v:textBlock v:margins="rect(1,1,1,1)" v:tabSpace="42.5197"/>
			<v:textRect cx="7.79528" cy="107.27" width="15.6" height="11.3386"/>
			<rect x="0" y="101.6" width="15.5906" height="11.3386" class="st2"/>
			<text x="2.4" y="109.67" class="st3" v:langID="2052"><v:paragraph v:horizAlign="1"/><v:tabList/>L/R</text>		</g>
		<g id="shape86-55" v:mID="86" v:groupContext="shape" v:layerMember="1" transform="translate(65.2902,-98.7657)">
			<title>动态连接线.86</title>
			<path d="M4.89 105.85 L9.28 105.85" class="st7"/>
		</g>
		<g id="shape87-58" v:mID="87" v:groupContext="shape" v:layerMember="1" transform="translate(79.5287,-93.2381)">
			<title>动态连接线.87</title>
			<path d="M-7.08 111.38 L-7.09 100.32" class="st7"/>
		</g>
		<g id="shape88-61" v:mID="88" v:groupContext="shape" transform="translate(69.3303,-100.183)">
			<title>工作表.88</title>
			<desc>VDD</desc>
			<v:textBlock v:margins="rect(1,1,1,1)" v:tabSpace="42.5197"/>
			<v:textRect cx="17.0079" cy="107.27" width="34.02" height="11.3386"/>
			<rect x="0" y="101.6" width="34.0157" height="11.3386" class="st5"/>
			<text x="9.82" y="109.67" class="st3" v:langID="2052"><v:paragraph v:horizAlign="1"/><v:tabList/>VDD</text>		</g>
		<g id="shape89-64" v:mID="89" v:groupContext="shape" transform="translate(233.058,-84.0963)">
			<title>工作表.89</title>
			<desc>Chip</desc>
			<v:textBlock v:margins="rect(1,1,1,1)" v:tabSpace="42.5197"/>
			<v:textRect cx="28.3465" cy="104.435" width="56.7" height="17.0079"/>
			<rect x="0" y="95.931" width="56.6929" height="17.0079" class="st2"/>
			<text x="20.19" y="107.13" class="st4" v:langID="2052"><v:paragraph v:horizAlign="1"/><v:tabList/>Chip</text>		</g>
		<g id="group90-67" transform="translate(162.59,-38.2677)" v:mID="90" v:groupContext="group" v:layerMember="0">
			<v:custProps>
				<v:cp v:nameU="Label" v:lbl="标签" v:type="0" v:format="@" v:sortKey="" v:invis="false" v:ask="false" v:langID="2052"
						v:val="VT4()"/>
				<v:cp v:nameU="Slider_Position" v:lbl="滑块位置 (0-1)" v:type="2" v:langID="2052" v:val="VT0(0.5):26"/>
				<v:cp v:nameU="Label" v:lbl="" v:prompt="" v:type="0" v:format="" v:sortKey="" v:invis="false" v:ask="false"
						v:langID="0" v:cal="0" v:val="VT4(22ohm)"/>
			</v:custProps>
			<v:userDefs>
				<v:ud v:nameU="Form" v:val="VT0(1):5"/>
				<v:ud v:nameU="SubType" v:val="VT0(0):26"/>
				<v:ud v:nameU="visDescription" v:val="VT4(Represents a fixed or variable resistor.)"/>
				<v:ud v:nameU="visVersion" v:val="VT0(15):26"/>
				<v:ud v:nameU="Label" v:prompt="" v:val="VT4()"/>
				<v:ud v:nameU="SolSH" v:prompt="" v:val="VT4({2EE3C7D2-E26E-4B72-9E9C-5170DDBF261A})"/>
				<v:ud v:nameU="Label" v:prompt="" v:val="VT4(R1)"/>
			</v:userDefs>
			<title>电阻器</title>
			<desc>22ohm</desc>
			<g id="shape91-68" v:mID="91" v:groupContext="shape" v:layerMember="0" transform="translate(-1.96841,1.82052)">
				<title>工作表.91</title>
			</g>
			<g id="shape92-70" v:mID="92" v:groupContext="shape" v:layerMember="0">
				<title>工作表.92</title>
				<path d="M6.23 101.51 L6.23 98.39 L19.74 98.39 L19.74 101.51 L4.16 101.51 L4.16 96.32 L21.82 96.32 L21.82 103.59
							 L4.16 103.59 L4.16 101.51 L6.23 101.51 Z" class="st8"/>
				<path d="M25.97 99.95 L20.78 99.95" class="st9"/>
				<path d="M5.19 99.95 L0 99.95" class="st9"/>
			</g>
			<g id="shape90-74" v:mID="90" v:groupContext="groupContent" v:layerMember="0">
				<v:textBlock v:margins="rect(1,1,1,1)" v:tabSpace="34.0157"/>
				<v:textRect cx="13.2182" cy="91.6791" width="26.74" height="11.6036"/>
				<text x="1.76" y="94.08" class="st3" v:langID="2052"><v:paragraph v:horizAlign="1"/><v:tabList/>22ohm</text>			</g>
		</g>
		<g id="shape93-76" v:mID="93" v:groupContext="shape" transform="translate(162.59,174.558) rotate(180)">
			<title>工作表.93</title>
			<path d="M0 112.94 L28.67 112.94" class="st10"/>
		</g>
		<g id="shape94-79" v:mID="94" v:groupContext="shape" transform="translate(188.564,-51.3197)">
			<title>工作表.94</title>
			<path d="M0 112.94 L24.09 112.94" class="st10"/>
		</g>
		<g id="group95-82" transform="translate(162.59,-18)" v:mID="95" v:groupContext="group" v:layerMember="0">
			<v:custProps>
				<v:cp v:nameU="Label" v:lbl="标签" v:type="0" v:format="@" v:sortKey="" v:invis="false" v:ask="false" v:langID="2052"
						v:val="VT4()"/>
				<v:cp v:nameU="Slider_Position" v:lbl="滑块位置 (0-1)" v:type="2" v:langID="2052" v:val="VT0(0.5):26"/>
				<v:cp v:nameU="Label" v:lbl="" v:prompt="" v:type="0" v:format="" v:sortKey="" v:invis="false" v:ask="false"
						v:langID="0" v:cal="0" v:val="VT4(22ohm)"/>
			</v:custProps>
			<v:userDefs>
				<v:ud v:nameU="Form" v:val="VT0(1):5"/>
				<v:ud v:nameU="SubType" v:val="VT0(0):26"/>
				<v:ud v:nameU="visDescription" v:val="VT4(Represents a fixed or variable resistor.)"/>
				<v:ud v:nameU="visVersion" v:val="VT0(15):26"/>
				<v:ud v:nameU="Label" v:prompt="" v:val="VT4()"/>
				<v:ud v:nameU="SolSH" v:prompt="" v:val="VT4({2EE3C7D2-E26E-4B72-9E9C-5170DDBF261A})"/>
				<v:ud v:nameU="Label" v:prompt="" v:val="VT4(R2)"/>
			</v:userDefs>
			<title>电阻器.95</title>
			<desc>22ohm</desc>
			<g id="shape96-83" v:mID="96" v:groupContext="shape" v:layerMember="0" transform="translate(-1.96841,1.82052)">
				<title>工作表.96</title>
			</g>
			<g id="shape97-85" v:mID="97" v:groupContext="shape" v:layerMember="0">
				<title>工作表.97</title>
				<path d="M6.23 101.51 L6.23 98.39 L19.74 98.39 L19.74 101.51 L4.16 101.51 L4.16 96.32 L21.82 96.32 L21.82 103.59
							 L4.16 103.59 L4.16 101.51 L6.23 101.51 Z" class="st8"/>
				<path d="M25.97 99.95 L20.78 99.95" class="st9"/>
				<path d="M5.19 99.95 L0 99.95" class="st9"/>
			</g>
			<g id="shape95-89" v:mID="95" v:groupContext="groupContent" v:layerMember="0">
				<v:textBlock v:margins="rect(1,1,1,1)" v:tabSpace="34.0157"/>
				<v:textRect cx="13.2182" cy="91.2539" width="26.74" height="11.6036"/>
				<text x="1.76" y="93.65" class="st3" v:langID="2052"><v:paragraph v:horizAlign="1"/><v:tabList/>22ohm</text>			</g>
		</g>
		<g id="shape98-91" v:mID="98" v:groupContext="shape" transform="translate(162.59,194.826) rotate(180)">
			<title>工作表.98</title>
			<path d="M0 112.94 L28.69 112.94" class="st10"/>
		</g>
		<g id="shape99-94" v:mID="99" v:groupContext="shape" transform="translate(188.564,-31.052)">
			<title>工作表.99</title>
			<path d="M0 112.94 L24.36 112.94" class="st10"/>
		</g>
	</g>
</svg>
