<?xml version="1.0" encoding="UTF-8" standalone="no"?>
<!DOCTYPE svg PUBLIC "-//W3C//DTD SVG 1.1//EN" "http://www.w3.org/Graphics/SVG/1.1/DTD/svg11.dtd">
<!-- 由 Microsoft Visio, SVG Export 生成 single_ended_mode_connection_with_headphone_jack.svg 页-1 -->
<svg xmlns="http://www.w3.org/2000/svg" xmlns:xlink="http://www.w3.org/1999/xlink" xmlns:ev="http://www.w3.org/2001/xml-events"
		xmlns:v="http://schemas.microsoft.com/visio/2003/SVGExtensions/" width="4.59992in" height="1.6801in"
		viewBox="0 0 331.194 120.967" xml:space="preserve" color-interpolation-filters="sRGB" class="st9">
	<v:documentProperties v:langID="2052" v:metric="true" v:viewMarkup="false"/>

	<style type="text/css">
	<![CDATA[
		.st1 {stroke:#000000;stroke-linecap:round;stroke-linejoin:round;stroke-width:0.24}
		.st2 {fill:#ffffff;stroke:#000000;stroke-linecap:round;stroke-linejoin:round;stroke-width:0.24}
		.st3 {fill:#000000;font-family:Calibri;font-size:0.833336em}
		.st4 {stroke:#000000;stroke-linecap:round;stroke-linejoin:round;stroke-width:0.25}
		.st5 {fill:none;stroke:none;stroke-linecap:round;stroke-linejoin:round;stroke-width:0.75}
		.st6 {fill:#000000;font-family:Calibri;font-size:0.666664em}
		.st7 {font-size:1em}
		.st8 {stroke:#000000;stroke-dasharray:1.75,1.25;stroke-linecap:round;stroke-linejoin:round;stroke-width:0.25}
		.st9 {fill:none;fill-rule:evenodd;font-size:12px;overflow:visible;stroke-linecap:square;stroke-miterlimit:3}
	]]>
	</style>

	<g v:mID="0" v:index="1" v:groupContext="foregroundPage">
		<title>页-1</title>
		<v:pageProperties v:drawingScale="0.0393701" v:pageScale="0.0393701" v:drawingUnits="24" v:shadowOffsetX="8.50394"
				v:shadowOffsetY="-8.50394"/>
		<v:layer v:name="电气" v:index="0"/>
		<v:layer v:name="连接线" v:index="1"/>
		<g id="group50-1" transform="translate(314.561,16.3453) rotate(90)" v:mID="50" v:groupContext="group" v:layerMember="0">
			<v:custProps>
				<v:cp v:nameU="Label" v:lbl="标签" v:type="0" v:format="@" v:sortKey="" v:invis="false" v:ask="false" v:langID="2052"
						v:val="VT4()"/>
				<v:cp v:nameU="Slider_Position" v:lbl="滑块位置 (0-1)" v:type="2" v:langID="2052" v:val="VT0(0.5):26"/>
			</v:custProps>
			<v:userDefs>
				<v:ud v:nameU="Form" v:val="VT0(1):5"/>
				<v:ud v:nameU="SubType" v:val="VT0(0):26"/>
				<v:ud v:nameU="visVersion" v:val="VT0(14):26"/>
				<v:ud v:nameU="visDescription" v:val="VT4(表示固定或可变电阻器。)"/>
			</v:userDefs>
			<title>电阻器</title>
			<g id="shape51-2" v:mID="51" v:groupContext="shape" v:layerMember="0">
				<title>工作表.51</title>
				<v:userDefs>
					<v:ud v:nameU="SubType" v:val="VT0(0):26"/>
					<v:ud v:nameU="Form" v:val="VT0(1):5"/>
				</v:userDefs>
				<path d="M0 118.13 L1.18 115.3 L3.54 120.97 L5.91 115.3 L8.27 120.97 L10.63 115.3 L12.99 120.97 L14.17 118.13"
						class="st1"/>
			</g>
			<g id="shape52-5" v:mID="52" v:groupContext="shape" v:layerMember="0"
					transform="translate(-84.1628,38.9097) rotate(-45)">
				<title>工作表.52</title>
				<v:userDefs>
					<v:ud v:nameU="SubType" v:val="VT0(0):26"/>
				</v:userDefs>
			</g>
		</g>
		<g id="shape53-7" v:mID="53" v:groupContext="shape" transform="translate(246.035,-0.12)">
			<title>矩形</title>
			<desc>Chip</desc>
			<v:userDefs>
				<v:ud v:nameU="visVersion" v:val="VT0(14):26"/>
			</v:userDefs>
			<v:textBlock v:margins="rect(4,4,4,4)" v:tabSpace="42.5197"/>
			<v:textRect cx="42.5197" cy="60.7312" width="85.04" height="120.472"/>
			<rect x="0" y="0.495" width="85.0394" height="120.472" class="st2"/>
			<text x="33.45" y="63.73" class="st3" v:langID="2052"><v:paragraph v:horizAlign="1"/><v:tabList/>Chip</text>		</g>
		<g id="shape54-10" v:mID="54" v:groupContext="shape" transform="translate(160.498,96.3056) rotate(-135)">
			<title>中心拖动圆形</title>
			<v:userDefs>
				<v:ud v:nameU="visVersion" v:val="VT0(14):26"/>
			</v:userDefs>
			<path d="M-4.68 120.97 A4.67693 4.67693 0 0 1 4.68 120.97 A4.67693 4.67693 0 1 1 -4.68 120.97 Z" class="st2"/>
		</g>
		<g id="shape55-12" v:mID="55" v:groupContext="shape" transform="translate(125.141,44.4516) rotate(-87.9928)">
			<title>中心拖动圆形.6</title>
			<v:userDefs>
				<v:ud v:nameU="visVersion" v:val="VT0(14):26"/>
			</v:userDefs>
			<path d="M-4.87 120.97 A4.87228 4.87228 0 0 1 4.87 120.97 A4.87228 4.87228 0 1 1 -4.87 120.97 Z" class="st2"/>
		</g>
		<g id="shape56-14" v:mID="56" v:groupContext="shape" transform="translate(160.498,174.402) rotate(-135)">
			<title>中心拖动圆形.7</title>
			<v:userDefs>
				<v:ud v:nameU="visVersion" v:val="VT0(14):26"/>
			</v:userDefs>
			<path d="M-4.68 120.97 A4.67693 4.67693 0 0 1 4.68 120.97 A4.67693 4.67693 0 1 1 -4.68 120.97 Z" class="st2"/>
		</g>
		<g id="shape57-16" v:mID="57" v:groupContext="shape" transform="translate(160.498,197.079) rotate(-135)">
			<title>中心拖动圆形.8</title>
			<v:userDefs>
				<v:ud v:nameU="visVersion" v:val="VT0(14):26"/>
			</v:userDefs>
			<path d="M-4.68 120.97 A4.67693 4.67693 0 0 1 4.68 120.97 A4.67693 4.67693 0 1 1 -4.68 120.97 Z" class="st2"/>
		</g>
		<g id="group58-18" transform="translate(114.224,-42.2599)" v:mID="58" v:groupContext="group">
			<title>工作表.58</title>
			<g id="shape59-19" v:mID="59" v:groupContext="shape">
				<title>矩形.10</title>
				<v:userDefs>
					<v:ud v:nameU="visVersion" v:val="VT0(14):26"/>
				</v:userDefs>
				<rect x="0" y="101.125" width="21.2598" height="19.8425" class="st2"/>
			</g>
			<g id="shape60-21" v:mID="60" v:groupContext="shape" transform="translate(21.2598,1.42109E-14)">
				<title>矩形.11</title>
				<v:userDefs>
					<v:ud v:nameU="visVersion" v:val="VT0(14):26"/>
				</v:userDefs>
				<rect x="0" y="101.125" width="21.2598" height="19.8425" class="st2"/>
			</g>
			<g id="shape61-23" v:mID="61" v:groupContext="shape" transform="translate(42.5197,1.42109E-14)">
				<title>矩形.12</title>
				<v:userDefs>
					<v:ud v:nameU="visVersion" v:val="VT0(14):26"/>
				</v:userDefs>
				<rect x="0" y="101.125" width="21.2598" height="19.8425" class="st2"/>
			</g>
			<g id="shape62-25" v:mID="62" v:groupContext="shape" transform="translate(63.7795,1.42109E-14)">
				<title>矩形.14</title>
				<v:userDefs>
					<v:ud v:nameU="visVersion" v:val="VT0(14):26"/>
				</v:userDefs>
				<rect x="0" y="101.125" width="21.2598" height="19.8425" class="st2"/>
			</g>
		</g>
		<g id="shape69-27" v:mID="69" v:groupContext="shape" v:layerMember="1" transform="translate(241.363,-114.387)">
			<title>动态连接线.21</title>
			<path d="M0 125.38 L-44.93 125.38 L-44.93 130.73" class="st4"/>
		</g>
		<g id="shape70-30" v:mID="70" v:groupContext="shape" v:layerMember="1" transform="translate(189.342,-90.4489)">
			<title>动态连接线.23</title>
			<path d="M7.09 120.97 L7.09 139.39" class="st4"/>
		</g>
		<g id="group71-33" transform="translate(0.12,-42.2599)" v:mID="71" v:groupContext="group">
			<title>工作表.71</title>
			<g id="shape72-34" v:mID="72" v:groupContext="shape" v:layerMember="0"
					transform="translate(99.2126,222.092) rotate(180)">
				<title>拾音头.17</title>
				<path d="M99.21 120.97 L99.21 101.12 L19.84 101.12 L0 111.05 L19.84 120.97 L99.21 120.97 Z" class="st2"/>
			</g>
			<g id="shape73-36" v:mID="73" v:groupContext="shape" transform="translate(143.015,101.125) rotate(90)">
				<title>工作表.73</title>
				<path d="M0 120.97 L19.84 120.97" class="st1"/>
			</g>
			<g id="shape74-39" v:mID="74" v:groupContext="shape" transform="translate(165.062,101.125) rotate(90)">
				<title>工作表.74</title>
				<path d="M0 120.97 L19.84 120.97" class="st1"/>
			</g>
			<g id="shape75-42" v:mID="75" v:groupContext="shape" transform="translate(187.109,101.125) rotate(90)">
				<title>工作表.75</title>
				<path d="M0 120.97 L19.84 120.97" class="st1"/>
			</g>
		</g>
		<g id="shape76-45" v:mID="76" v:groupContext="shape" transform="translate(2.95465,-50.7639)">
			<title>工作表.76</title>
			<desc>g/m</desc>
			<v:textBlock v:margins="rect(1,1,1,1)" v:tabSpace="42.5197"/>
			<v:textRect cx="9.16276" cy="117.424" width="18.33" height="7.08661"/>
			<rect x="0" y="113.881" width="18.3255" height="7.08661" class="st5"/>
			<text x="2.54" y="119.82" class="st6" v:langID="2052"><v:paragraph v:horizAlign="1"/><v:tabList/>g/m</text>		</g>
		<g id="shape77-48" v:mID="77" v:groupContext="shape" transform="translate(23.5557,-47.7439)">
			<title>工作表.77</title>
			<desc>m/g</desc>
			<v:textBlock v:margins="rect(1,1,1,1)" v:tabSpace="42.5197"/>
			<v:textRect cx="9.16276" cy="114.589" width="18.33" height="12.7559"/>
			<rect x="0" y="108.212" width="18.3255" height="12.7559" class="st5"/>
			<text x="2.54" y="116.99" class="st6" v:langID="2052"><v:paragraph v:horizAlign="1"/><v:tabList/>m/g</text>		</g>
		<g id="shape78-51" v:mID="78" v:groupContext="shape" transform="translate(48.309,-47.7439)">
			<title>工作表.78</title>
			<desc>s</desc>
			<v:textBlock v:margins="rect(1,1,1,1)" v:tabSpace="42.5197"/>
			<v:textRect cx="7.08661" cy="114.589" width="14.18" height="12.7559"/>
			<rect x="0" y="108.212" width="14.1732" height="12.7559" class="st5"/>
			<text x="5.52" y="116.99" class="st6" v:langID="2052"><v:paragraph v:horizAlign="1"/><v:tabList/>s</text>		</g>
		<g id="shape79-54" v:mID="79" v:groupContext="shape" transform="translate(69.5688,-47.7439)">
			<title>工作表.79</title>
			<desc>s</desc>
			<v:textBlock v:margins="rect(1,1,1,1)" v:tabSpace="42.5197"/>
			<v:textRect cx="7.08661" cy="114.589" width="14.18" height="12.7559"/>
			<rect x="0" y="108.212" width="14.1732" height="12.7559" class="st5"/>
			<text x="5.52" y="116.99" class="st6" v:langID="2052"><v:paragraph v:horizAlign="1"/><v:tabList/>s</text>		</g>
		<g id="shape80-57" v:mID="80" v:groupContext="shape" transform="translate(4.9953,-6.07276)">
			<title>工作表.80</title>
			<desc>g = ground m = mic s = headphone signal</desc>
			<v:textBlock v:margins="rect(1,1,1,1)" v:tabSpace="42.5197" v:verticalAlign="0"/>
			<v:textRect cx="47.1086" cy="104.314" width="94.22" height="33.3071"/>
			<rect x="0" y="87.6604" width="94.2173" height="33.3071" class="st5"/>
			<text x="2.81" y="95.86" class="st6" v:langID="2052"><v:paragraph/><v:tabList/>g     =  ground <v:newlineChar/><tspan
						x="1" dy="1.2em" class="st7"> </tspan>m   =   mic<v:newlineChar/><tspan x="1" dy="1.2em" class="st7"> </tspan>s     =   headphone signal</text>		</g>
		<g id="shape81-62" v:mID="81" v:groupContext="shape" transform="translate(206.929,-111.064)">
			<title>工作表.81</title>
			<desc>MIC_BIAS</desc>
			<v:textBlock v:margins="rect(1,1,1,1)" v:tabSpace="42.5197"/>
			<v:textRect cx="17.9373" cy="116.203" width="35.88" height="9.52865"/>
			<rect x="0" y="111.439" width="35.8746" height="9.52865" class="st5"/>
			<text x="2.05" y="118.6" class="st6" v:langID="2052"><v:paragraph v:horizAlign="1"/><v:tabList/>MIC_BIAS</text>		</g>
		<g id="shape82-65" v:mID="82" v:groupContext="shape" transform="translate(214.433,-77.1481)">
			<title>工作表.82</title>
			<desc>MICx_P</desc>
			<v:textBlock v:margins="rect(1,1,1,1)" v:tabSpace="42.5197"/>
			<v:textRect cx="15.065" cy="115.843" width="30.14" height="10.2483"/>
			<rect x="0" y="110.719" width="30.1301" height="10.2483" class="st5"/>
			<text x="2.71" y="118.24" class="st6" v:langID="2052"><v:paragraph v:horizAlign="1"/><v:tabList/>MICx_P</text>		</g>
		<g id="shape83-68" v:mID="83" v:groupContext="shape" transform="translate(210.089,-32.7273)">
			<title>工作表.83</title>
			<desc>AOUT_LP</desc>
			<v:textBlock v:margins="rect(1,1,1,1)" v:tabSpace="42.5197"/>
			<v:textRect cx="17.9373" cy="114.168" width="35.88" height="13.5992"/>
			<rect x="0" y="107.368" width="35.8746" height="13.5992" class="st5"/>
			<text x="2.72" y="116.57" class="st6" v:langID="2052"><v:paragraph v:horizAlign="1"/><v:tabList/>AOUT_LP</text>		</g>
		<g id="shape84-71" v:mID="84" v:groupContext="shape" transform="translate(209.064,-10.7479)">
			<title>工作表.84</title>
			<desc>AOUT_RP</desc>
			<v:textBlock v:margins="rect(1,1,1,1)" v:tabSpace="42.5197"/>
			<v:textRect cx="17.9373" cy="114.869" width="35.88" height="12.1967"/>
			<rect x="0" y="108.771" width="35.8746" height="12.1967" class="st5"/>
			<text x="2.23" y="117.27" class="st6" v:langID="2052"><v:paragraph v:horizAlign="1"/><v:tabList/>AOUT_RP</text>		</g>
		<g id="shape97-74" v:mID="97" v:groupContext="shape" v:layerMember="0" transform="translate(8.18389,101.854) rotate(-90)">
			<title>接地</title>
			<v:userDefs>
				<v:ud v:nameU="visVersion" v:val="VT0(14):26"/>
				<v:ud v:nameU="visDescription" v:val="VT4(表示接地。)"/>
			</v:userDefs>
			<path d="M0 114.8 L0 117.88" class="st1"/>
			<path d="M1.54 113.25 L1.54 119.42" class="st1"/>
			<path d="M3.09 111.71 L3.09 120.97" class="st1"/>
			<path d="M23.15 116.34 L3.09 116.34" class="st1"/>
		</g>
		<g id="group98-80" transform="translate(211.454,-67.5864)" v:mID="98" v:groupContext="group" v:layerMember="0">
			<v:userDefs>
				<v:ud v:nameU="Form" v:val="VT0(0):26"/>
				<v:ud v:nameU="Type" v:val="VT0(0):26"/>
				<v:ud v:nameU="visVersion" v:val="VT0(14):26"/>
				<v:ud v:nameU="visDescription" v:val="VT4(表示固定或可变电容器。)"/>
			</v:userDefs>
			<title>电容器.98</title>
			<g id="shape99-81" v:mID="99" v:groupContext="shape" v:layerMember="0" transform="translate(91.1359,26.354) rotate(45)">
				<title>工作表.99</title>
			</g>
			<g id="shape100-83" v:mID="100" v:groupContext="shape" v:layerMember="0" transform="translate(8.33757,0)">
				<title>工作表.100</title>
				<path d="M2.38 120.97 L2.38 111.44" class="st1"/>
				<path d="M4.76 120.97 L4.76 111.44" class="st1"/>
			</g>
			<g id="shape101-87" v:mID="101" v:groupContext="shape" v:layerMember="0" transform="translate(0,-4.76432)">
				<title>工作表.101</title>
				<path d="M0 120.97 L10.72 120.97" class="st1"/>
				<path d="M13.1 120.97 L23.82 120.97" class="st1"/>
			</g>
		</g>
		<g id="shape102-91" v:mID="102" v:groupContext="shape" transform="translate(235.717,-72.3499) rotate(0.209181)">
			<title>工作表.102</title>
			<path d="M0 120.97 L5.89 120.97" class="st4"/>
		</g>
		<g id="shape103-94" v:mID="103" v:groupContext="shape" transform="translate(147.402,-62.1024)">
			<title>工作表.103</title>
			<path d="M64.05 110.72 L0 110.72 L0 120.97" class="st4"/>
		</g>
		<g id="shape104-97" v:mID="104" v:groupContext="shape" transform="translate(188.633,-31.7938)">
			<title>工作表.104</title>
			<path d="M0 110.5 L0 120.97 L52.73 120.97" class="st4"/>
		</g>
		<g id="shape105-100" v:mID="105" v:groupContext="shape" transform="translate(167.373,-9.11661)">
			<title>工作表.105</title>
			<path d="M0 87.82 L0 120.97 L73.99 120.97" class="st4"/>
		</g>
		<g id="shape106-103" v:mID="106" v:groupContext="shape" transform="translate(127.559,-62.1024)">
			<title>工作表.106</title>
			<path d="M19.84 110.72 L0 110.72 L0 120.97" class="st8"/>
		</g>
	</g>
</svg>
