<?xml version="1.0" encoding="UTF-8" standalone="no"?>
<!DOCTYPE svg PUBLIC "-//W3C//DTD SVG 1.1//EN" "http://www.w3.org/Graphics/SVG/1.1/DTD/svg11.dtd">
<!-- 由 Microsoft Visio, SVG Export 生成 two_microphone_smart_voice_application.svg 页-1 -->
<svg xmlns="http://www.w3.org/2000/svg" xmlns:xlink="http://www.w3.org/1999/xlink" xmlns:ev="http://www.w3.org/2001/xml-events"
		xmlns:v="http://schemas.microsoft.com/visio/2003/SVGExtensions/" width="2.66701in" height="3.16741in"
		viewBox="0 0 192.025 228.053" xml:space="preserve" color-interpolation-filters="sRGB" class="st13">
	<v:documentProperties v:langID="2052" v:metric="true" v:viewMarkup="false"/>

	<style type="text/css">
	<![CDATA[
		.st1 {fill:#000000}
		.st2 {stroke:#000000;stroke-linecap:butt;stroke-width:0.793701}
		.st3 {fill:#000000;font-family:Calibri;font-size:0.666664em}
		.st4 {fill:none;stroke:#000000;stroke-width:0.75}
		.st5 {fill:#000000;font-family:Calibri;font-size:1.00001em}
		.st6 {stroke:#000000;stroke-linecap:round;stroke-linejoin:round;stroke-width:0.75}
		.st7 {stroke:#000000;stroke-linecap:butt;stroke-width:1.13386}
		.st8 {fill:#000000;font-family:Calibri;font-size:0.833336em}
		.st9 {fill:none}
		.st10 {stroke:#000000;stroke-width:0.75}
		.st11 {font-size:1em}
		.st12 {fill:none;stroke:none;stroke-width:0.75}
		.st13 {fill:none;fill-rule:evenodd;font-size:12px;overflow:visible;stroke-linecap:square;stroke-miterlimit:3}
	]]>
	</style>

	<g v:mID="0" v:index="1" v:groupContext="foregroundPage">
		<v:userDefs>
			<v:ud v:nameU="MicrophoneCount" v:prompt="" v:val="VT0(3):26"/>
			<v:ud v:nameU="SpeakerCount" v:prompt="" v:val="VT0(2):26"/>
		</v:userDefs>
		<title>页-1</title>
		<v:pageProperties v:drawingScale="0.0393701" v:pageScale="0.0393701" v:drawingUnits="24" v:shadowOffsetX="8.50394"
				v:shadowOffsetY="-8.50394"/>
		<v:layer v:name="电气" v:index="0"/>
		<v:layer v:name="流程图" v:index="1"/>
		<g id="shape1-1" v:mID="1" v:groupContext="shape" v:layerMember="0" transform="translate(11.5732,-197.372)">
			<title>扩音器</title>
			<desc>MIC1</desc>
			<v:custProps>
				<v:cp v:nameU="Type" v:lbl="扩音器类型" v:type="1" v:format="标准;电容器;推拉" v:langID="2052" v:val="VT4(标准)"/>
				<v:cp v:nameU="Label" v:lbl="Label" v:prompt="" v:type="0" v:format="@" v:sortKey="" v:invis="false" v:ask="false"
						v:langID="2052" v:cal="0" v:val="VT4()"/>
				<v:cp v:nameU="Label" v:lbl="" v:prompt="" v:type="0" v:format="" v:sortKey="" v:invis="false" v:ask="false"
						v:langID="0" v:cal="0" v:val="VT4(MIC1)"/>
			</v:custProps>
			<v:userDefs>
				<v:ud v:nameU="Type" v:val="VT0(0):26"/>
				<v:ud v:nameU="visVersion" v:val="VT0(15):26"/>
				<v:ud v:nameU="visDescription" v:val="VT4(Standard, capacitor or push-pull microphone.)"/>
				<v:ud v:nameU="Label" v:prompt="" v:val="VT4()"/>
				<v:ud v:nameU="SolSH" v:prompt="" v:val="VT4({2EE3C7D2-E26E-4B72-9E9C-5170DDBF261A})"/>
				<v:ud v:nameU="Label" v:prompt="" v:val="VT4(MK1)"/>
			</v:userDefs>
			<v:textBlock v:margins="rect(1,1,1,1)" v:tabSpace="34.0157" v:verticalAlign="0"/>
			<v:textRect cx="9.92126" cy="233.855" width="20.99" height="11.6036"/>
			<path d="M10.25 209.92 C14.78 209.92 18.46 213.6 18.46 218.13 C18.46 222.66 14.78 226.35 10.25 226.35 C5.73 226.35 2.05
						 222.66 2.05 218.13 C2.05 213.6 5.73 209.92 10.25 209.92 ZM10.25 227.54 C15.43 227.54 19.64 223.32 19.64
						 218.13 C19.64 212.95 15.43 208.73 10.25 208.73 C5.08 208.73 0.86 212.95 0.86 218.13 C0.86 223.32 5.08 227.54
						 10.25 227.54 ZM18.65 228.05 L18.65 208.21 L19.84 208.21 L19.84 228.05 L18.65 228.05 Z" class="st1"/>
			<path d="M19.25 228.05 L19.25 208.21" class="st2"/>
			<path d="M10.25 227.54 C15.43 227.54 19.64 223.32 19.64 218.13 C19.64 212.95 15.43 208.73 10.25 208.73 C5.08 208.73 0.86
						 212.95 0.86 218.13 C0.86 223.32 5.08 227.54 10.25 227.54" class="st2"/>
			<path d="M18.65 228.05 L18.65 208.21 L19.84 208.21 L19.84 228.05 L18.65 228.05" class="st2"/>
			<text x="1.33" y="236.25" class="st3" v:langID="2052"><v:paragraph v:horizAlign="1"/><v:tabList/>MIC1</text>		</g>
		<g id="shape2-7" v:mID="2" v:groupContext="shape" v:layerMember="0" transform="translate(11.5732,-160.687)">
			<title>扩音器.2</title>
			<desc>MIC2</desc>
			<v:custProps>
				<v:cp v:nameU="Type" v:lbl="扩音器类型" v:type="1" v:format="标准;电容器;推拉" v:langID="2052" v:val="VT4(标准)"/>
				<v:cp v:nameU="Label" v:lbl="Label" v:prompt="" v:type="0" v:format="@" v:sortKey="" v:invis="false" v:ask="false"
						v:langID="2052" v:cal="0" v:val="VT4()"/>
				<v:cp v:nameU="Label" v:lbl="" v:prompt="" v:type="0" v:format="" v:sortKey="" v:invis="false" v:ask="false"
						v:langID="0" v:cal="0" v:val="VT4(MIC2)"/>
			</v:custProps>
			<v:userDefs>
				<v:ud v:nameU="Type" v:val="VT0(0):26"/>
				<v:ud v:nameU="visVersion" v:val="VT0(15):26"/>
				<v:ud v:nameU="visDescription" v:val="VT4(Standard, capacitor or push-pull microphone.)"/>
				<v:ud v:nameU="Label" v:prompt="" v:val="VT4()"/>
				<v:ud v:nameU="SolSH" v:prompt="" v:val="VT4({2EE3C7D2-E26E-4B72-9E9C-5170DDBF261A})"/>
				<v:ud v:nameU="Label" v:prompt="" v:val="VT4(MK2)"/>
			</v:userDefs>
			<v:textBlock v:margins="rect(1,1,1,1)" v:tabSpace="34.0157" v:verticalAlign="0"/>
			<v:textRect cx="9.92126" cy="233.855" width="20.99" height="11.6036"/>
			<path d="M10.25 209.92 C14.78 209.92 18.46 213.6 18.46 218.13 C18.46 222.66 14.78 226.35 10.25 226.35 C5.73 226.35 2.05
						 222.66 2.05 218.13 C2.05 213.6 5.73 209.92 10.25 209.92 ZM10.25 227.54 C15.43 227.54 19.64 223.32 19.64
						 218.13 C19.64 212.95 15.43 208.73 10.25 208.73 C5.08 208.73 0.86 212.95 0.86 218.13 C0.86 223.32 5.08 227.54
						 10.25 227.54 ZM18.65 228.05 L18.65 208.21 L19.84 208.21 L19.84 228.05 L18.65 228.05 Z" class="st1"/>
			<path d="M19.25 228.05 L19.25 208.21" class="st2"/>
			<path d="M10.25 227.54 C15.43 227.54 19.64 223.32 19.64 218.13 C19.64 212.95 15.43 208.73 10.25 208.73 C5.08 208.73 0.86
						 212.95 0.86 218.13 C0.86 223.32 5.08 227.54 10.25 227.54" class="st2"/>
			<path d="M18.65 228.05 L18.65 208.21 L19.84 208.21 L19.84 228.05 L18.65 228.05" class="st2"/>
			<text x="1.33" y="236.25" class="st3" v:langID="2052"><v:paragraph v:horizAlign="1"/><v:tabList/>MIC2</text>		</g>
		<g id="shape3-13" v:mID="3" v:groupContext="shape" v:layerMember="1" transform="translate(102.178,-109.994)">
			<title>流程</title>
			<desc>Chip</desc>
			<v:custProps>
				<v:cp v:nameU="Cost" v:lbl="成本" v:prompt="" v:type="7" v:format="@" v:sortKey="" v:invis="false" v:ask="false"
						v:langID="2052" v:cal="0"/>
				<v:cp v:nameU="ProcessNumber" v:lbl="进程编号" v:prompt="" v:type="2" v:format="" v:sortKey="" v:invis="false"
						v:ask="false" v:langID="2052" v:cal="0"/>
				<v:cp v:nameU="Owner" v:lbl="所有者" v:prompt="" v:type="0" v:format="" v:sortKey="" v:invis="false" v:ask="false"
						v:langID="2052" v:cal="0"/>
				<v:cp v:nameU="Function" v:lbl="函数" v:prompt="" v:type="0" v:format="" v:sortKey="" v:invis="false" v:ask="false"
						v:langID="2052" v:cal="0" v:val="VT4()"/>
				<v:cp v:nameU="StartDate" v:lbl="开始日期" v:prompt="" v:type="5" v:format="" v:sortKey="" v:invis="false"
						v:ask="false" v:langID="2052" v:cal="0"/>
				<v:cp v:nameU="EndDate" v:lbl="结束日期" v:prompt="" v:type="5" v:format="" v:sortKey="" v:invis="false" v:ask="false"
						v:langID="2052" v:cal="0"/>
				<v:cp v:nameU="Status" v:lbl="状态" v:prompt="" v:type="4" v:format=";未开始;进行中;已完成;已推迟;正在等待输入" v:sortKey=""
						v:invis="false" v:ask="false" v:langID="2052" v:cal="0" v:val="VT4()"/>
			</v:custProps>
			<v:userDefs>
				<v:ud v:nameU="visVersion" v:prompt="" v:val="VT0(15):26"/>
				<v:ud v:nameU="DefaultWidth" v:prompt="" v:val="VT0(0.98425196850394):24"/>
				<v:ud v:nameU="DefaultHeight" v:prompt="" v:val="VT0(0.59055118110236):24"/>
				<v:ud v:nameU="ResizeTxtHeight" v:prompt="" v:val="VT0(0.59055118110236):24"/>
			</v:userDefs>
			<v:textBlock v:margins="rect(2,2,2,2)" v:tabSpace="42.5197"/>
			<v:textRect cx="44.5483" cy="169.943" width="89.1" height="116.22"/>
			<rect x="0" y="111.833" width="89.0966" height="116.22" class="st4"/>
			<text x="33.67" y="173.54" class="st5" v:langID="2052"><v:paragraph v:horizAlign="1"/><v:tabList/>Chip</text>		</g>
		<g id="shape4-16" v:mID="4" v:groupContext="shape" transform="translate(102.178,240.733) rotate(180)">
			<title>工作表.4</title>
			<path d="M0 228.05 L70.35 228.05" class="st6"/>
		</g>
		<g id="shape5-19" v:mID="5" v:groupContext="shape" transform="translate(102.178,256.809) rotate(180)">
			<title>工作表.5</title>
			<path d="M0 228.05 L70.06 228.05" class="st6"/>
		</g>
		<g id="shape6-22" v:mID="6" v:groupContext="shape" transform="translate(102.178,278.34) rotate(180)">
			<title>工作表.6</title>
			<path d="M0 228.05 L70.99 228.05" class="st6"/>
		</g>
		<g id="shape7-25" v:mID="7" v:groupContext="shape" transform="translate(102.186,293.506) rotate(180)">
			<title>工作表.7</title>
			<path d="M0 228.05 L70.57 228.05" class="st6"/>
		</g>
		<g id="shape8-28" v:mID="8" v:groupContext="shape" transform="translate(102.178,316.463) rotate(180)">
			<title>工作表.8</title>
			<path d="M0 228.05 L73.9 228.05" class="st6"/>
		</g>
		<g id="shape9-31" v:mID="9" v:groupContext="shape" transform="translate(102.178,335.738) rotate(180)">
			<title>工作表.9</title>
			<path d="M0 228.05 L60.95 228.05" class="st6"/>
		</g>
		<g id="shape10-34" v:mID="10" v:groupContext="shape" transform="translate(359.145,118.06) rotate(90)">
			<title>工作表.10</title>
			<path d="M0 228.05 L38.27 228.05" class="st6"/>
		</g>
		<g id="shape11-37" v:mID="11" v:groupContext="shape" transform="translate(386.641,118.06) rotate(90)">
			<title>工作表.11</title>
			<path d="M0 228.05 L38.09 228.05" class="st6"/>
		</g>
		<g id="shape12-40" v:mID="12" v:groupContext="shape" v:layerMember="1" transform="translate(109.265,-55.0018)">
			<title>开始/结束</title>
			<desc>Class-D/Class-AB</desc>
			<v:custProps>
				<v:cp v:nameU="Cost" v:lbl="成本" v:prompt="" v:type="7" v:format="@" v:sortKey="" v:invis="false" v:ask="false"
						v:langID="2052" v:cal="0"/>
				<v:cp v:nameU="ProcessNumber" v:lbl="进程编号" v:prompt="" v:type="2" v:format="" v:sortKey="" v:invis="false"
						v:ask="false" v:langID="2052" v:cal="0"/>
				<v:cp v:nameU="Owner" v:lbl="所有者" v:prompt="" v:type="0" v:format="" v:sortKey="" v:invis="false" v:ask="false"
						v:langID="2052" v:cal="0"/>
				<v:cp v:nameU="Function" v:lbl="函数" v:prompt="" v:type="0" v:format="" v:sortKey="" v:invis="false" v:ask="false"
						v:langID="2052" v:cal="0" v:val="VT4()"/>
				<v:cp v:nameU="StartDate" v:lbl="开始日期" v:prompt="" v:type="5" v:format="" v:sortKey="" v:invis="false"
						v:ask="false" v:langID="2052" v:cal="0"/>
				<v:cp v:nameU="EndDate" v:lbl="结束日期" v:prompt="" v:type="5" v:format="" v:sortKey="" v:invis="false" v:ask="false"
						v:langID="2052" v:cal="0"/>
				<v:cp v:nameU="Status" v:lbl="状态" v:prompt="" v:type="4" v:format=";未开始;进行中;已完成;已推迟;正在等待输入" v:sortKey=""
						v:invis="false" v:ask="false" v:langID="2052" v:cal="0" v:val="VT4()"/>
			</v:custProps>
			<v:userDefs>
				<v:ud v:nameU="visVersion" v:prompt="" v:val="VT0(15):26"/>
				<v:ud v:nameU="DefaultWidth" v:prompt="" v:val="VT0(0.98425196850394):24"/>
				<v:ud v:nameU="DefaultHeight" v:prompt="" v:val="VT0(0.39370078740157):24"/>
				<v:ud v:nameU="ResizeTxtHeight" v:prompt="" v:val="VT0(0.39370078740157):24"/>
			</v:userDefs>
			<v:textBlock v:margins="rect(2,2,2,2)" v:tabSpace="42.5197"/>
			<v:textRect cx="35.4331" cy="219.691" width="70.87" height="16.7244"/>
			<path d="M8.36 228.05 L62.5 228.05 A8.3622 8.3622 -180 0 0 62.5 211.33 L8.36 211.33 A8.3622 8.3622 -180 1 0 8.36 228.05
						 Z" class="st4"/>
			<text x="8.3" y="222.09" class="st3" v:langID="2052"><v:paragraph v:horizAlign="1"/><v:tabList/>Class-D/Class-AB</text>		</g>
		<g id="shape13-43" v:mID="13" v:groupContext="shape" v:layerMember="0" transform="translate(358.578,194.123) rotate(90)">
			<title>扬声器</title>
			<v:custProps>
				<v:cp v:nameU="Label" v:lbl="Label" v:prompt="" v:type="0" v:format="@" v:sortKey="" v:invis="false" v:ask="false"
						v:langID="2052" v:cal="0" v:val="VT4()"/>
				<v:cp v:nameU="Label" v:lbl="" v:prompt="" v:type="0" v:format="" v:sortKey="" v:invis="false" v:ask="false"
						v:langID="0" v:cal="0" v:val="VT4(SPK1)"/>
			</v:custProps>
			<v:userDefs>
				<v:ud v:nameU="Type" v:val="VT0(0):26"/>
				<v:ud v:nameU="CHMin" v:val="VT0(0.25590551181102):24"/>
				<v:ud v:nameU="visDescription" v:val="VT4(Speaker. Right-click to add/remove microphone.)"/>
				<v:ud v:nameU="visVersion" v:val="VT0(15):26"/>
				<v:ud v:nameU="Label" v:prompt="" v:val="VT4()"/>
				<v:ud v:nameU="SolSH" v:prompt="" v:val="VT4({2EE3C7D2-E26E-4B72-9E9C-5170DDBF261A})"/>
				<v:ud v:nameU="CHMin" v:prompt="" v:val="VT0(0.19685039370079):24"/>
				<v:ud v:nameU="Label" v:prompt="" v:val="VT4(SPK1)"/>
			</v:userDefs>
			<v:textBlock v:margins="rect(1,1,1,1)" v:tabSpace="34.0157" v:verticalAlign="0"/>
			<v:textRect cx="26.9291" cy="213.508" width="24.29" height="14.0036" transform="rotate(-90)"/>
			<path d="M3.5 220.15 L3.5 207.61 L10.49 207.61 L10.49 220.15 L3.5 220.15 ZM12.19 219.1 L12.19 208.66 L20.5 203.92 L20.5
						 223.84 L12.19 219.1 ZM22.2 227.24 L22.2 227.24 L22.2 200.52 L10.49 207.64 L10.49 220.16 L22.2 227.24 Z"
					class="st1"/>
			<path d="M-0 216.18 L3.54 216.18" class="st7"/>
			<path d="M-0 211.58 L3.54 211.58" class="st7"/>
			<text x="-223.52" y="29.93" transform="rotate(-90)" class="st8" v:langID="2052"><v:paragraph v:horizAlign="1"/><v:tabList/>SPK1</text>		</g>
		<g id="shape14-48" v:mID="14" v:groupContext="shape" transform="translate(-85.6573,194.123) rotate(-90)">
			<title>工作表.14</title>
			<path d="M0 228.05 L21.01 228.05" class="st6"/>
		</g>
		<g id="shape15-51" v:mID="15" v:groupContext="shape" transform="translate(-81.0538,194.123) rotate(-90)">
			<title>工作表.15</title>
			<path d="M0 228.05 L20.86 228.05" class="st6"/>
		</g>
		<g id="shape16-54" v:mID="16" v:groupContext="shape" v:layerMember="1" transform="translate(0.75,-30.5648)">
			<title>数据库</title>
			<desc>Audio voice band RC filter</desc>
			<v:custProps>
				<v:cp v:nameU="Cost" v:lbl="成本" v:prompt="" v:type="7" v:format="@" v:sortKey="" v:invis="false" v:ask="false"
						v:langID="2052" v:cal="0"/>
				<v:cp v:nameU="ProcessNumber" v:lbl="进程编号" v:prompt="" v:type="2" v:format="" v:sortKey="" v:invis="false"
						v:ask="false" v:langID="2052" v:cal="0"/>
				<v:cp v:nameU="Owner" v:lbl="所有者" v:prompt="" v:type="0" v:format="" v:sortKey="" v:invis="false" v:ask="false"
						v:langID="2052" v:cal="0"/>
				<v:cp v:nameU="Function" v:lbl="函数" v:prompt="" v:type="0" v:format="" v:sortKey="" v:invis="false" v:ask="false"
						v:langID="2052" v:cal="0" v:val="VT4()"/>
				<v:cp v:nameU="StartDate" v:lbl="开始日期" v:prompt="" v:type="5" v:format="" v:sortKey="" v:invis="false"
						v:ask="false" v:langID="2052" v:cal="0"/>
				<v:cp v:nameU="EndDate" v:lbl="结束日期" v:prompt="" v:type="5" v:format="" v:sortKey="" v:invis="false" v:ask="false"
						v:langID="2052" v:cal="0"/>
				<v:cp v:nameU="Status" v:lbl="状态" v:prompt="" v:type="4" v:format=";未开始;进行中;已完成;已推迟;正在等待输入" v:sortKey=""
						v:invis="false" v:ask="false" v:langID="2052" v:cal="0" v:val="VT4()"/>
			</v:custProps>
			<v:userDefs>
				<v:ud v:nameU="visVersion" v:prompt="" v:val="VT0(15):26"/>
				<v:ud v:nameU="DefaultWidth" v:prompt="" v:val="VT0(0.98425196850394):24"/>
				<v:ud v:nameU="DefaultHeight" v:prompt="" v:val="VT0(0.59055118110236):24"/>
				<v:ud v:nameU="ResizeTxtHeight" v:prompt="" v:val="VT0(0.59055118110236):24"/>
			</v:userDefs>
			<v:textBlock v:margins="rect(2,2,2,2)" v:tabSpace="42.5197"/>
			<v:textRect cx="33.4045" cy="216.715" width="61.14" height="22.6772"/>
			<path d="M2.83 205.38 L66.81 205.38 A24.0945 24.0945 0 0 1 66.81 228.05 L2.83 228.05 A24.0945 24.0945 0 0 1 2.83 205.38
						 Z" class="st9"/>
			<path d="M2.83 205.38 L66.81 205.38 A24.0945 24.0945 0 0 1 66.81 228.05 L2.83 228.05 A24.0945 24.0945 0 0 1 2.83 205.38"
					class="st10"/>
			<path d="M66.81 205.38 A24.0945 24.0945 -180 0 0 66.81 228.05" class="st10"/>
			<text x="5.31" y="214.31" class="st3" v:langID="2052"><v:paragraph v:horizAlign="1"/><v:tabList/>Audio voice band<v:newlineChar/><tspan
						x="20.41" dy="1.2em" class="st11">RC filter</tspan></text>		</g>
		<g id="shape17-60" v:mID="17" v:groupContext="shape" transform="translate(69.9166,-46.2144)">
			<title>工作表.17</title>
			<path d="M0 228.05 L72.35 228.05" class="st6"/>
		</g>
		<g id="shape18-63" v:mID="18" v:groupContext="shape" transform="translate(70.4987,-37.7105)">
			<title>工作表.18</title>
			<path d="M0 228.05 L71.92 228.05" class="st6"/>
		</g>
		<g id="shape19-66" v:mID="19" v:groupContext="shape" transform="translate(-199.771,174.347) rotate(-90)">
			<title>工作表.19</title>
			<path d="M0 228.05 L85.96 228.05" class="st6"/>
		</g>
		<g id="shape20-69" v:mID="20" v:groupContext="shape" transform="translate(-187.015,174.752) rotate(-90)">
			<title>工作表.20</title>
			<path d="M0 228.05 L66.9 228.05" class="st6"/>
		</g>
		<g id="shape21-72" v:mID="21" v:groupContext="shape" transform="translate(70.6034,-215.303)">
			<title>工作表.21</title>
			<desc>MIC1_P</desc>
			<v:textBlock v:margins="rect(2,2,2,2)" v:tabSpace="42.5197"/>
			<v:textRect cx="17.0079" cy="222.053" width="34.02" height="12"/>
			<rect x="0" y="216.053" width="34.0157" height="12" class="st12"/>
			<text x="2" y="224.45" class="st3" v:langID="2052"><v:paragraph/><v:tabList/>MIC1_P</text>		</g>
		<g id="shape23-75" v:mID="23" v:groupContext="shape" transform="translate(70.6034,-199.83)">
			<title>工作表.23</title>
			<desc>MIC1_N</desc>
			<v:textBlock v:margins="rect(2,2,2,2)" v:tabSpace="42.5197"/>
			<v:textRect cx="17.0079" cy="222.053" width="34.02" height="12"/>
			<rect x="0" y="216.053" width="34.0157" height="12" class="st12"/>
			<text x="2" y="224.45" class="st3" v:langID="2052"><v:paragraph/><v:tabList/>MIC1_N</text>		</g>
		<g id="shape25-78" v:mID="25" v:groupContext="shape" transform="translate(70.6034,-177.483)">
			<title>工作表.25</title>
			<desc>MIC2_P</desc>
			<v:textBlock v:margins="rect(2,2,2,2)" v:tabSpace="42.5197"/>
			<v:textRect cx="17.0079" cy="222.053" width="34.02" height="12"/>
			<rect x="0" y="216.053" width="34.0157" height="12" class="st12"/>
			<text x="2" y="224.45" class="st3" v:langID="2052"><v:paragraph/><v:tabList/>MIC2_P</text>		</g>
		<g id="shape26-81" v:mID="26" v:groupContext="shape" transform="translate(70.6034,-162.979)">
			<title>工作表.26</title>
			<desc>MIC2_N</desc>
			<v:textBlock v:margins="rect(2,2,2,2)" v:tabSpace="42.5197"/>
			<v:textRect cx="17.0079" cy="222.053" width="34.02" height="12"/>
			<rect x="0" y="216.053" width="34.0157" height="12" class="st12"/>
			<text x="2" y="224.45" class="st3" v:langID="2052"><v:paragraph/><v:tabList/>MIC2_N</text>		</g>
		<g id="shape27-84" v:mID="27" v:groupContext="shape" transform="translate(70.6034,-140.195)">
			<title>工作表.27</title>
			<desc>MIC3_P</desc>
			<v:textBlock v:margins="rect(2,2,2,2)" v:tabSpace="42.5197"/>
			<v:textRect cx="17.0079" cy="222.053" width="34.02" height="12"/>
			<rect x="0" y="216.053" width="34.0157" height="12" class="st12"/>
			<text x="2" y="224.45" class="st3" v:langID="2052"><v:paragraph/><v:tabList/>MIC3_P</text>		</g>
		<g id="shape28-87" v:mID="28" v:groupContext="shape" transform="translate(70.6034,-119.723)">
			<title>工作表.28</title>
			<desc>MIC3_N</desc>
			<v:textBlock v:margins="rect(2,2,2,2)" v:tabSpace="42.5197"/>
			<v:textRect cx="17.0079" cy="222.053" width="34.02" height="12"/>
			<rect x="0" y="216.053" width="34.0157" height="12" class="st12"/>
			<text x="2" y="224.45" class="st3" v:langID="2052"><v:paragraph/><v:tabList/>MIC3_N</text>		</g>
		<g id="shape30-90" v:mID="30" v:groupContext="shape" transform="translate(346.578,115.53) rotate(90)">
			<title>工作表.30</title>
			<desc>AOUTL_P</desc>
			<v:textBlock v:margins="rect(2,2,2,2)" v:tabSpace="42.5197"/>
			<v:textRect cx="21.3906" cy="222.053" width="42.79" height="12"/>
			<rect x="0" y="216.053" width="42.7813" height="12" class="st12"/>
			<text x="6.17" y="224.45" class="st3" v:langID="2052"><v:paragraph v:horizAlign="1"/><v:tabList/>AOUTL_P</text>		</g>
		<g id="shape31-93" v:mID="31" v:groupContext="shape" transform="translate(386.925,114.831) rotate(90)">
			<title>工作表.31</title>
			<desc>AOUTL_N</desc>
			<v:textBlock v:margins="rect(2,2,2,2)" v:tabSpace="42.5197"/>
			<v:textRect cx="21.3906" cy="222.053" width="42.79" height="12"/>
			<rect x="0" y="216.053" width="42.7813" height="12" class="st12"/>
			<text x="5.66" y="224.45" class="st3" v:langID="2052"><v:paragraph v:horizAlign="1"/><v:tabList/>AOUTL_N</text>		</g>
	</g>
</svg>
