<?xml version="1.0" encoding="UTF-8" standalone="no"?>
<!DOCTYPE svg PUBLIC "-//W3C//DTD SVG 1.1//EN" "http://www.w3.org/Graphics/SVG/1.1/DTD/svg11.dtd">
<!-- 由 Microsoft Visio, SVG Export 生成 amic_in_differential_mode_connection.svg 页-1 -->
<svg xmlns="http://www.w3.org/2000/svg" xmlns:xlink="http://www.w3.org/1999/xlink" xmlns:ev="http://www.w3.org/2001/xml-events"
		xmlns:v="http://schemas.microsoft.com/visio/2003/SVGExtensions/" width="3.93207in" height="1.54762in"
		viewBox="0 0 283.109 111.429" xml:space="preserve" color-interpolation-filters="sRGB" class="st7">
	<v:documentProperties v:langID="2052" v:metric="true" v:viewMarkup="false"/>

	<style type="text/css">
	<![CDATA[
		.st1 {fill:#ffffff;stroke:#000000;stroke-linecap:round;stroke-linejoin:round;stroke-width:0.24}
		.st2 {fill:#000000;font-family:Calibri;font-size:0.75em}
		.st3 {fill:none;stroke:none;stroke-linecap:round;stroke-linejoin:round;stroke-width:0.75}
		.st4 {fill:#000000;font-family:Calibri;font-size:0.666664em}
		.st5 {stroke:#000000;stroke-linecap:round;stroke-linejoin:round;stroke-width:0.24}
		.st6 {stroke:#000000;stroke-linecap:round;stroke-linejoin:round;stroke-width:0.25}
		.st7 {fill:none;fill-rule:evenodd;font-size:12px;overflow:visible;stroke-linecap:square;stroke-miterlimit:3}
	]]>
	</style>

	<g v:mID="0" v:index="1" v:groupContext="foregroundPage">
		<title>页-1</title>
		<v:pageProperties v:drawingScale="0.0393701" v:pageScale="0.0393701" v:drawingUnits="24" v:shadowOffsetX="8.50394"
				v:shadowOffsetY="-8.50394"/>
		<v:layer v:name="电气" v:index="0"/>
		<v:layer v:name="连接线" v:index="1"/>
		<g id="shape2-1" v:mID="2" v:groupContext="shape" transform="translate(0.375,-6.77177)">
			<title>矩形.1</title>
			<v:userDefs>
				<v:ud v:nameU="visVersion" v:val="VT0(14):26"/>
			</v:userDefs>
			<rect x="0" y="45.1595" width="97.1339" height="66.2695" class="st1"/>
		</g>
		<g id="shape3-3" v:mID="3" v:groupContext="shape" transform="translate(185.855,-0.12)">
			<title>矩形</title>
			<desc>Chip</desc>
			<v:userDefs>
				<v:ud v:nameU="visVersion" v:val="VT0(14):26"/>
			</v:userDefs>
			<v:textBlock v:margins="rect(4,4,4,4)" v:tabSpace="42.5197"/>
			<v:textRect cx="48.5669" cy="55.8345" width="97.14" height="111.189"/>
			<rect x="0" y="0.240002" width="97.1339" height="111.189" class="st1"/>
			<text x="40.41" y="53.13" class="st2" v:langID="2052"><v:paragraph v:horizAlign="1"/><v:tabList/>Chip<v:newlineChar/></text>		</g>
		<g id="shape4-6" v:mID="4" v:groupContext="shape" transform="translate(107.063,149.906) rotate(-135)">
			<title>中心拖动圆形.3</title>
			<v:userDefs>
				<v:ud v:nameU="visVersion" v:val="VT0(14):26"/>
			</v:userDefs>
			<path d="M-4.68 111.43 A4.67693 4.67693 0 0 1 4.68 111.43 A4.67693 4.67693 0 1 1 -4.68 111.43 Z" class="st1"/>
		</g>
		<g id="shape5-8" v:mID="5" v:groupContext="shape" transform="translate(190.742,-33.09)">
			<title>工作表.5</title>
			<desc>MICx_P</desc>
			<v:textBlock v:margins="rect(1,1,1,1)" v:tabSpace="42.5197"/>
			<v:textRect cx="14.243" cy="104.629" width="28.49" height="13.5992"/>
			<rect x="0" y="97.8297" width="28.486" height="13.5992" class="st3"/>
			<text x="1.89" y="107.03" class="st4" v:langID="2052"><v:paragraph v:horizAlign="1"/><v:tabList/>MICx_P</text>		</g>
		<g id="shape6-11" v:mID="6" v:groupContext="shape" transform="translate(18.7167,149.717) rotate(-135)">
			<title>Center drag circle.7</title>
			<v:userDefs>
				<v:ud v:nameU="visVersion" v:val="VT0(14):26"/>
			</v:userDefs>
			<path d="M-4.68 111.43 A4.67693 4.67693 0 0 1 4.68 111.43 A4.67693 4.67693 0 1 1 -4.68 111.43 Z" class="st1"/>
		</g>
		<g id="group7-13" transform="translate(125.855,-34.1733)" v:mID="7" v:groupContext="group" v:layerMember="0">
			<v:userDefs>
				<v:ud v:nameU="Form" v:val="VT0(0):26"/>
				<v:ud v:nameU="Type" v:val="VT0(0):26"/>
				<v:ud v:nameU="visVersion" v:val="VT0(14):26"/>
				<v:ud v:nameU="visDescription" v:val="VT4(表示固定或可变电容器。)"/>
			</v:userDefs>
			<title>电容器</title>
			<g id="shape8-14" v:mID="8" v:groupContext="shape" v:layerMember="0" transform="translate(85.4547,21.8362) rotate(45)">
				<title>工作表.8</title>
			</g>
			<g id="shape9-16" v:mID="9" v:groupContext="shape" v:layerMember="0" transform="translate(9.92126,0)">
				<title>工作表.9</title>
				<path d="M2.83 111.43 L2.83 100.09" class="st5"/>
				<path d="M5.67 111.43 L5.67 100.09" class="st5"/>
			</g>
			<g id="shape10-20" v:mID="10" v:groupContext="shape" v:layerMember="0" transform="translate(0,-5.66929)">
				<title>工作表.10</title>
				<path d="M0 111.43 L12.76 111.43" class="st5"/>
				<path d="M15.59 111.43 L28.35 111.43" class="st5"/>
			</g>
		</g>
		<g id="shape11-24" v:mID="11" v:groupContext="shape" v:layerMember="1" transform="translate(125.855,-32.8135)">
			<title>动态连接线</title>
			<path d="M0 104.4 L-23.7 104.28" class="st6"/>
		</g>
		<g id="shape12-27" v:mID="12" v:groupContext="shape" v:layerMember="1" transform="translate(154.202,-32.802)">
			<title>动态连接线.12</title>
			<path d="M0 104.39 L26.99 104.3" class="st6"/>
		</g>
		<g id="shape13-30" v:mID="13" v:groupContext="shape" transform="translate(107.063,89.5638) rotate(-135)">
			<title>中心拖动圆形.13</title>
			<v:userDefs>
				<v:ud v:nameU="visVersion" v:val="VT0(14):26"/>
			</v:userDefs>
			<path d="M-4.68 111.43 A4.67693 4.67693 0 0 1 4.68 111.43 A4.67693 4.67693 0 1 1 -4.68 111.43 Z" class="st1"/>
		</g>
		<g id="shape18-32" v:mID="18" v:groupContext="shape" transform="translate(0.375,-31.1811)">
			<title>工作表.18</title>
			<desc>Analog MIC</desc>
			<v:textBlock v:margins="rect(1,1,1,1)" v:tabSpace="42.5197"/>
			<v:textRect cx="24.8031" cy="102.925" width="49.61" height="17.0079"/>
			<rect x="0" y="94.4211" width="49.6063" height="17.0079" class="st3"/>
			<text x="3.76" y="105.62" class="st2" v:langID="2052"><v:paragraph v:horizAlign="1"/><v:tabList/>Analog MIC</text>		</g>
		<g id="shape19-35" v:mID="19" v:groupContext="shape" transform="translate(54.7492,-35.4822)">
			<title>工作表.19</title>
			<desc>OUTPUT+</desc>
			<v:textBlock v:margins="rect(1,1,1,1)" v:tabSpace="42.5197"/>
			<v:textRect cx="19.8425" cy="105.76" width="39.69" height="11.3386"/>
			<rect x="0" y="100.09" width="39.685" height="11.3386" class="st3"/>
			<text x="4.1" y="108.16" class="st4" v:langID="2052"><v:paragraph v:horizAlign="1"/><v:tabList/>OUTPUT+</text>		</g>
		<g id="shape20-38" v:mID="20" v:groupContext="shape" transform="translate(187.978,-91.9134)">
			<title>工作表.20</title>
			<desc>MIC_BIAS</desc>
			<v:textBlock v:margins="rect(1,1,1,1)" v:tabSpace="42.5197"/>
			<v:textRect cx="17.7165" cy="103.634" width="35.44" height="15.5906"/>
			<rect x="0" y="95.8384" width="35.4331" height="15.5906" class="st3"/>
			<text x="1.83" y="106.03" class="st4" v:langID="2052"><v:paragraph v:horizAlign="1"/><v:tabList/>MIC_BIAS</text>		</g>
		<g id="shape21-41" v:mID="21" v:groupContext="shape" transform="translate(107.063,169.749) rotate(-135)">
			<title>中心拖动圆形.31</title>
			<v:userDefs>
				<v:ud v:nameU="visVersion" v:val="VT0(14):26"/>
			</v:userDefs>
			<path d="M-4.68 111.43 A4.67693 4.67693 0 0 1 4.68 111.43 A4.67693 4.67693 0 1 1 -4.68 111.43 Z" class="st1"/>
		</g>
		<g id="shape22-43" v:mID="22" v:groupContext="shape" transform="translate(190.742,-12.6735)">
			<title>工作表.22</title>
			<desc>MIx_N</desc>
			<v:textBlock v:margins="rect(1,1,1,1)" v:tabSpace="42.5197"/>
			<v:textRect cx="14.243" cy="104.629" width="28.49" height="13.5992"/>
			<rect x="0" y="97.8297" width="28.486" height="13.5992" class="st3"/>
			<text x="3.51" y="107.03" class="st4" v:langID="2052"><v:paragraph v:horizAlign="1"/><v:tabList/>MIx_N</text>		</g>
		<g id="shape23-46" v:mID="23" v:groupContext="shape" transform="translate(18.7167,169.56) rotate(-135)">
			<title>Center drag circle.33</title>
			<v:userDefs>
				<v:ud v:nameU="visVersion" v:val="VT0(14):26"/>
			</v:userDefs>
			<path d="M-4.68 111.43 A4.67693 4.67693 0 0 1 4.68 111.43 A4.67693 4.67693 0 1 1 -4.68 111.43 Z" class="st1"/>
		</g>
		<g id="group24-48" transform="translate(125.855,-14.3308)" v:mID="24" v:groupContext="group" v:layerMember="0">
			<v:userDefs>
				<v:ud v:nameU="Form" v:val="VT0(0):26"/>
				<v:ud v:nameU="Type" v:val="VT0(0):26"/>
				<v:ud v:nameU="visVersion" v:val="VT0(14):26"/>
				<v:ud v:nameU="visDescription" v:val="VT4(表示固定或可变电容器。)"/>
			</v:userDefs>
			<title>电容器.34</title>
			<g id="shape25-49" v:mID="25" v:groupContext="shape" v:layerMember="0"
					transform="translate(85.4547,21.8362) rotate(45)">
				<title>工作表.25</title>
			</g>
			<g id="shape26-51" v:mID="26" v:groupContext="shape" v:layerMember="0" transform="translate(9.92126,0)">
				<title>工作表.26</title>
				<path d="M2.83 111.43 L2.83 100.09" class="st5"/>
				<path d="M5.67 111.43 L5.67 100.09" class="st5"/>
			</g>
			<g id="shape27-55" v:mID="27" v:groupContext="shape" v:layerMember="0" transform="translate(0,-5.66929)">
				<title>工作表.27</title>
				<path d="M0 111.43 L12.76 111.43" class="st5"/>
				<path d="M15.59 111.43 L28.35 111.43" class="st5"/>
			</g>
		</g>
		<g id="shape28-59" v:mID="28" v:groupContext="shape" v:layerMember="1" transform="translate(154.202,-12.9595)">
			<title>动态连接线.38</title>
			<path d="M0 104.39 L26.99 104.3" class="st6"/>
		</g>
		<g id="shape29-62" v:mID="29" v:groupContext="shape" transform="translate(54.7492,-15.5082)">
			<title>工作表.29</title>
			<desc>OUTPUT-</desc>
			<v:textBlock v:margins="rect(1,1,1,1)" v:tabSpace="42.5197"/>
			<v:textRect cx="19.8425" cy="105.76" width="39.69" height="11.3386"/>
			<rect x="0" y="100.09" width="39.685" height="11.3386" class="st3"/>
			<text x="4.87" y="108.16" class="st4" v:langID="2052"><v:paragraph v:horizAlign="1"/><v:tabList/>OUTPUT-</text>		</g>
		<g id="shape30-65" v:mID="30" v:groupContext="shape" v:layerMember="1" transform="translate(125.855,-12.9303)">
			<title>动态连接线.40</title>
			<path d="M0 104.36 L-23.71 104.33" class="st6"/>
		</g>
		<g id="shape36-68" v:mID="36" v:groupContext="shape" transform="translate(-7.67105,117.18) rotate(-135)">
			<title>Center drag circle.36</title>
			<v:userDefs>
				<v:ud v:nameU="visVersion" v:val="VT0(14):26"/>
			</v:userDefs>
			<path d="M-4.68 111.43 A4.67693 4.67693 0 0 1 4.68 111.43 A4.67693 4.67693 0 1 1 -4.68 111.43 Z" class="st1"/>
		</g>
		<g id="shape37-70" v:mID="37" v:groupContext="shape" transform="translate(51.2786,-56.6929)">
			<title>工作表.37</title>
			<desc>VDD</desc>
			<v:textBlock v:margins="rect(1,1,1,1)" v:tabSpace="42.5197"/>
			<v:textRect cx="19.8425" cy="105.76" width="39.69" height="11.3386"/>
			<rect x="0" y="100.09" width="39.685" height="11.3386" class="st3"/>
			<text x="12.65" y="108.16" class="st4" v:langID="2052"><v:paragraph v:horizAlign="1"/><v:tabList/>VDD</text>		</g>
		<g id="shape38-73" v:mID="38" v:groupContext="shape" transform="translate(71.1211,-77.7182)">
			<title>工作表.38</title>
			<path d="M110.06 88.46 L0 88.46 L0 111.43" class="st6"/>
		</g>
	</g>
</svg>
