<?xml version="1.0" encoding="UTF-8" standalone="no"?>
<!DOCTYPE svg PUBLIC "-//W3C//DTD SVG 1.1//EN" "http://www.w3.org/Graphics/SVG/1.1/DTD/svg11.dtd">
<!-- 由 Microsoft Visio, SVG Export 生成 differential_mode_connection_with_audio_power_amplifiers.svg 页-1 -->
<svg xmlns="http://www.w3.org/2000/svg" xmlns:xlink="http://www.w3.org/1999/xlink" xmlns:ev="http://www.w3.org/2001/xml-events"
		xmlns:v="http://schemas.microsoft.com/visio/2003/SVGExtensions/" width="4.91434in" height="2.21769in"
		viewBox="0 0 353.833 159.674" xml:space="preserve" color-interpolation-filters="sRGB" class="st9">
	<v:documentProperties v:langID="2052" v:metric="true" v:viewMarkup="false"/>

	<style type="text/css">
	<![CDATA[
		.st1 {fill:none;stroke:#000000;stroke-width:0.25}
		.st2 {fill:#000000;font-family:Calibri;font-size:0.833336em}
		.st3 {fill:none;stroke:#000000;stroke-linecap:round;stroke-linejoin:round;stroke-width:0.25}
		.st4 {fill:none;stroke:none;stroke-width:0.25}
		.st5 {fill:#000000;font-family:Calibri;font-size:0.666664em}
		.st6 {stroke:#000000;stroke-linecap:round;stroke-linejoin:round;stroke-width:0.25}
		.st7 {marker-end:url(#mrkr13-52);stroke:#000000;stroke-linecap:round;stroke-linejoin:round;stroke-width:0.25}
		.st8 {fill:#000000;fill-opacity:1;stroke:#000000;stroke-opacity:1;stroke-width:0.090252707581227}
		.st9 {fill:none;fill-rule:evenodd;font-size:12px;overflow:visible;stroke-linecap:square;stroke-miterlimit:3}
	]]>
	</style>

	<defs id="Markers">
		<g id="lend13">
			<path d="M 3 1 L 0 0 L 3 -1 L 3 1 " style="stroke:none"/>
		</g>
		<marker id="mrkr13-52" class="st8" v:arrowType="13" v:arrowSize="2" v:setback="33.24" refX="-33.24" orient="auto"
				markerUnits="strokeWidth" overflow="visible">
			<use xlink:href="#lend13" transform="scale(-11.08,-11.08) "/>
		</marker>
	</defs>
	<g v:mID="0" v:index="1" v:groupContext="foregroundPage">
		<title>页-1</title>
		<v:pageProperties v:drawingScale="0.0393701" v:pageScale="0.0393701" v:drawingUnits="24" v:shadowOffsetX="8.50394"
				v:shadowOffsetY="-8.50394"/>
		<v:layer v:name="电气" v:index="0"/>
		<g id="shape1-1" v:mID="1" v:groupContext="shape" transform="translate(252.765,-0.25)">
			<title>矩形</title>
			<desc>Chip</desc>
			<v:userDefs>
				<v:ud v:nameU="visVersion" v:val="VT0(14):26"/>
			</v:userDefs>
			<v:textBlock v:margins="rect(4,4,4,4)" v:tabSpace="42.5197"/>
			<v:textRect cx="50.4088" cy="80.4118" width="100.82" height="158.524"/>
			<rect x="0" y="1.14961" width="100.818" height="158.524" class="st1"/>
			<text x="41.34" y="83.41" class="st2" v:langID="2052"><v:paragraph v:horizAlign="1"/><v:tabList/>Chip</text>		</g>
		<g id="shape2-4" v:mID="2" v:groupContext="shape" transform="translate(139.948,133.363) rotate(-135)">
			<title>中心拖动圆形.7</title>
			<v:userDefs>
				<v:ud v:nameU="visVersion" v:val="VT0(14):26"/>
			</v:userDefs>
			<path d="M-4.68 159.67 A4.67693 4.67693 0 0 1 4.68 159.67 A4.67693 4.67693 0 1 1 -4.68 159.67 Z" class="st3"/>
		</g>
		<g id="shape3-6" v:mID="3" v:groupContext="shape" transform="translate(139.948,171.627) rotate(-135)">
			<title>中心拖动圆形.8</title>
			<v:userDefs>
				<v:ud v:nameU="visVersion" v:val="VT0(14):26"/>
			</v:userDefs>
			<path d="M-4.68 159.67 A4.67693 4.67693 0 0 1 4.68 159.67 A4.67693 4.67693 0 1 1 -4.68 159.67 Z" class="st3"/>
		</g>
		<g id="shape4-8" v:mID="4" v:groupContext="shape" transform="translate(139.948,211.05) rotate(-135)">
			<title>中心拖动圆形.9</title>
			<v:userDefs>
				<v:ud v:nameU="visVersion" v:val="VT0(14):26"/>
			</v:userDefs>
			<path d="M-4.68 159.67 A4.67693 4.67693 0 0 1 4.68 159.67 A4.67693 4.67693 0 1 1 -4.68 159.67 Z" class="st3"/>
		</g>
		<g id="shape5-10" v:mID="5" v:groupContext="shape" transform="translate(139.948,250.961) rotate(-135)">
			<title>中心拖动圆形.10</title>
			<v:userDefs>
				<v:ud v:nameU="visVersion" v:val="VT0(14):26"/>
			</v:userDefs>
			<path d="M-4.68 159.67 A4.67693 4.67693 0 0 1 4.68 159.67 A4.67693 4.67693 0 1 1 -4.68 159.67 Z" class="st3"/>
		</g>
		<g id="shape6-12" v:mID="6" v:groupContext="shape" transform="translate(199.897,-141.982)">
			<title>工作表.6</title>
			<desc>AOUT_LP</desc>
			<v:textBlock v:margins="rect(1,1,1,1)" v:tabSpace="42.5197"/>
			<v:textRect cx="22.2758" cy="155.525" width="44.56" height="8.29761"/>
			<rect x="0" y="151.376" width="44.5516" height="8.29761" class="st4"/>
			<text x="7.06" y="157.92" class="st5" v:langID="2052"><v:paragraph v:horizAlign="1"/><v:tabList/>AOUT_LP</text>		</g>
		<g id="shape7-15" v:mID="7" v:groupContext="shape" transform="translate(207.84,-104.225)">
			<title>工作表.7</title>
			<desc>AOUT_LN</desc>
			<v:textBlock v:margins="rect(1,1,1,1)" v:tabSpace="42.5197"/>
			<v:textRect cx="18.4252" cy="156.386" width="36.86" height="6.57606"/>
			<rect x="0" y="153.098" width="36.8504" height="6.57606" class="st4"/>
			<text x="2.69" y="158.79" class="st5" v:langID="2052"><v:paragraph v:horizAlign="1"/><v:tabList/>AOUT_LN</text>		</g>
		<g id="shape8-18" v:mID="8" v:groupContext="shape" transform="translate(201.339,-63.7461)">
			<title>工作表.8</title>
			<desc>AOUT_RP</desc>
			<v:textBlock v:margins="rect(1,1,1,1)" v:tabSpace="42.5197"/>
			<v:textRect cx="22.2758" cy="155.676" width="44.56" height="7.99532"/>
			<rect x="0" y="151.679" width="44.5516" height="7.99532" class="st4"/>
			<text x="6.57" y="158.08" class="st5" v:langID="2052"><v:paragraph v:horizAlign="1"/><v:tabList/>AOUT_RP</text>		</g>
		<g id="shape9-21" v:mID="9" v:groupContext="shape" transform="translate(201.661,-24.3445)">
			<title>工作表.9</title>
			<desc>AOUT_RN</desc>
			<v:textBlock v:margins="rect(1,1,1,1)" v:tabSpace="42.5197"/>
			<v:textRect cx="22.2758" cy="155.603" width="44.56" height="8.14221"/>
			<rect x="0" y="151.532" width="44.5516" height="8.14221" class="st4"/>
			<text x="6.05" y="158" class="st5" v:langID="2052"><v:paragraph v:horizAlign="1"/><v:tabList/>AOUT_RN</text>		</g>
		<g id="shape10-24" v:mID="10" v:groupContext="shape" transform="translate(0.25,-0.899606)">
			<title>矩形.44</title>
			<desc>Class-D/Class-AB</desc>
			<v:userDefs>
				<v:ud v:nameU="visVersion" v:val="VT0(14):26"/>
			</v:userDefs>
			<v:textBlock v:margins="rect(4,4,4,4)" v:tabSpace="42.5197"/>
			<v:textRect cx="50.4088" cy="80.4118" width="100.82" height="158.524"/>
			<rect x="0" y="1.14961" width="100.818" height="158.524" class="st1"/>
			<text x="6.26" y="83.41" class="st2" v:langID="2052"><v:paragraph/><v:tabList/>Class-D/Class-AB</text>		</g>
		<g id="shape11-27" v:mID="11" v:groupContext="shape" transform="translate(213.591,25.6561) rotate(45)">
			<title>中心拖动圆形.45</title>
			<v:userDefs>
				<v:ud v:nameU="visVersion" v:val="VT0(14):26"/>
			</v:userDefs>
			<path d="M-4.68 159.67 A4.67693 4.67693 0 0 1 4.68 159.67 A4.67693 4.67693 0 1 1 -4.68 159.67 Z" class="st3"/>
		</g>
		<g id="shape12-29" v:mID="12" v:groupContext="shape" transform="translate(213.591,-14.9866) rotate(45)">
			<title>中心拖动圆形.46</title>
			<v:userDefs>
				<v:ud v:nameU="visVersion" v:val="VT0(14):26"/>
			</v:userDefs>
			<path d="M-4.68 159.67 A4.67693 4.67693 0 0 1 4.68 159.67 A4.67693 4.67693 0 1 1 -4.68 159.67 Z" class="st3"/>
		</g>
		<g id="shape13-31" v:mID="13" v:groupContext="shape" transform="translate(213.591,-54.1129) rotate(45)">
			<title>中心拖动圆形.47</title>
			<v:userDefs>
				<v:ud v:nameU="visVersion" v:val="VT0(14):26"/>
			</v:userDefs>
			<path d="M-4.68 159.67 A4.67693 4.67693 0 0 1 4.68 159.67 A4.67693 4.67693 0 1 1 -4.68 159.67 Z" class="st3"/>
		</g>
		<g id="shape14-33" v:mID="14" v:groupContext="shape" transform="translate(213.591,-92.5119) rotate(45)">
			<title>中心拖动圆形.48</title>
			<v:userDefs>
				<v:ud v:nameU="visVersion" v:val="VT0(14):26"/>
			</v:userDefs>
			<path d="M-4.68 159.67 A4.67693 4.67693 0 0 1 4.68 159.67 A4.67693 4.67693 0 1 1 -4.68 159.67 Z" class="st3"/>
		</g>
		<g id="shape15-35" v:mID="15" v:groupContext="shape" transform="translate(199.897,-139.627)">
			<title>工作表.15</title>
			<path d="M0 159.67 L48.21 159.67" class="st6"/>
		</g>
		<g id="shape16-38" v:mID="16" v:groupContext="shape" transform="translate(199.897,-101.131)">
			<title>工作表.16</title>
			<path d="M0 159.67 L48.13 159.67" class="st6"/>
		</g>
		<g id="shape17-41" v:mID="17" v:groupContext="shape" transform="translate(199.64,-61.5262)">
			<title>工作表.17</title>
			<path d="M0 159.67 L48.53 159.67" class="st6"/>
		</g>
		<g id="shape18-44" v:mID="18" v:groupContext="shape" transform="translate(199.897,-21.4184)">
			<title>工作表.18</title>
			<path d="M0 159.67 L48.21 159.67" class="st6"/>
		</g>
		<g id="shape20-47" v:mID="20" v:groupContext="shape" transform="translate(163.047,179.72) rotate(180)">
			<title>工作表.20</title>
			<path d="M0 159.67 L49.33 159.67" class="st7"/>
		</g>
		<g id="shape24-53" v:mID="24" v:groupContext="shape" transform="translate(163.047,218.217) rotate(180)">
			<title>工作表.24</title>
			<path d="M0 159.67 L49.26 159.67" class="st7"/>
		</g>
		<g id="shape25-58" v:mID="25" v:groupContext="shape" transform="translate(162.79,257.822) rotate(180)">
			<title>工作表.25</title>
			<path d="M0 159.67 L49.12 159.67" class="st7"/>
		</g>
		<g id="shape26-63" v:mID="26" v:groupContext="shape" transform="translate(163.047,297.929) rotate(180)">
			<title>工作表.26</title>
			<path d="M0 159.67 L49.41 159.67" class="st7"/>
		</g>
		<g id="shape27-68" v:mID="27" v:groupContext="shape" transform="translate(56.8174,-132.828)">
			<title>工作表.27</title>
			<desc>SPKL_PIN</desc>
			<v:textBlock v:margins="rect(1,1,1,1)" v:tabSpace="42.5197"/>
			<v:textRect cx="18.4252" cy="152.874" width="36.86" height="13.5992"/>
			<rect x="0" y="146.075" width="36.8504" height="13.5992" class="st4"/>
			<text x="3.11" y="155.27" class="st5" v:langID="2052"><v:paragraph v:horizAlign="1"/><v:tabList/>SPKL_PIN</text>		</g>
		<g id="shape28-71" v:mID="28" v:groupContext="shape" transform="translate(56.8174,-94.3315)">
			<title>工作表.28</title>
			<desc>SPKL_NIN</desc>
			<v:textBlock v:margins="rect(1,1,1,1)" v:tabSpace="42.5197"/>
			<v:textRect cx="18.4252" cy="152.874" width="36.86" height="13.5992"/>
			<rect x="0" y="146.075" width="36.8504" height="13.5992" class="st4"/>
			<text x="2.6" y="155.27" class="st5" v:langID="2052"><v:paragraph v:horizAlign="1"/><v:tabList/>SPKL_NIN</text>		</g>
		<g id="shape29-74" v:mID="29" v:groupContext="shape" transform="translate(58.3734,-53.2649)">
			<title>工作表.29</title>
			<desc>SPKR_PIN</desc>
			<v:textBlock v:margins="rect(1,1,1,1)" v:tabSpace="42.5197"/>
			<v:textRect cx="17.6472" cy="152.874" width="35.3" height="13.5992"/>
			<rect x="0" y="146.075" width="35.2944" height="13.5992" class="st4"/>
			<text x="1.84" y="155.27" class="st5" v:langID="2052"><v:paragraph v:horizAlign="1"/><v:tabList/>SPKR_PIN</text>		</g>
		<g id="shape30-77" v:mID="30" v:groupContext="shape" transform="translate(57.7305,-15.9773)">
			<title>工作表.30</title>
			<desc>SPKR_NIN</desc>
			<v:textBlock v:margins="rect(1,1,1,1)" v:tabSpace="42.5197"/>
			<v:textRect cx="17.9686" cy="152.874" width="35.94" height="13.5992"/>
			<rect x="0" y="146.075" width="35.9373" height="13.5992" class="st4"/>
			<text x="1.65" y="155.27" class="st5" v:langID="2052"><v:paragraph v:horizAlign="1"/><v:tabList/>SPKR_NIN</text>		</g>
		<g id="group31-80" transform="translate(163.047,-132.257)" v:mID="31" v:groupContext="group" v:layerMember="0">
			<v:userDefs>
				<v:ud v:nameU="Form" v:val="VT0(0):26"/>
				<v:ud v:nameU="Type" v:val="VT0(0):26"/>
				<v:ud v:nameU="visVersion" v:val="VT0(14):26"/>
				<v:ud v:nameU="visDescription" v:val="VT4(表示固定或可变电容器。)"/>
			</v:userDefs>
			<title>电容器.98</title>
			<g id="shape32-81" v:mID="32" v:groupContext="shape" v:layerMember="0"
					transform="translate(121.568,32.7267) rotate(45)">
				<title>工作表.32</title>
			</g>
			<g id="shape33-83" v:mID="33" v:groupContext="shape" v:layerMember="0" transform="translate(12.8976,0)">
				<title>工作表.33</title>
				<path d="M3.69 159.67 L3.69 144.93" class="st6"/>
				<path d="M7.37 159.67 L7.37 144.93" class="st6"/>
			</g>
			<g id="shape34-87" v:mID="34" v:groupContext="shape" v:layerMember="0" transform="translate(0,-7.37008)">
				<title>工作表.34</title>
				<path d="M0 159.67 L16.58 159.67" class="st6"/>
				<path d="M20.27 159.67 L36.85 159.67" class="st6"/>
			</g>
		</g>
		<g id="group35-91" transform="translate(163.047,-93.761)" v:mID="35" v:groupContext="group" v:layerMember="0">
			<v:userDefs>
				<v:ud v:nameU="Form" v:val="VT0(0):26"/>
				<v:ud v:nameU="Type" v:val="VT0(0):26"/>
				<v:ud v:nameU="visVersion" v:val="VT0(14):26"/>
				<v:ud v:nameU="visDescription" v:val="VT4(表示固定或可变电容器。)"/>
			</v:userDefs>
			<title>电容器.35</title>
			<g id="shape36-92" v:mID="36" v:groupContext="shape" v:layerMember="0"
					transform="translate(121.568,32.7267) rotate(45)">
				<title>工作表.36</title>
			</g>
			<g id="shape37-94" v:mID="37" v:groupContext="shape" v:layerMember="0" transform="translate(12.8976,0)">
				<title>工作表.37</title>
				<path d="M3.69 159.67 L3.69 144.93" class="st6"/>
				<path d="M7.37 159.67 L7.37 144.93" class="st6"/>
			</g>
			<g id="shape38-98" v:mID="38" v:groupContext="shape" v:layerMember="0" transform="translate(0,-7.37008)">
				<title>工作表.38</title>
				<path d="M0 159.67 L16.58 159.67" class="st6"/>
				<path d="M20.27 159.67 L36.85 159.67" class="st6"/>
			</g>
		</g>
		<g id="group39-102" transform="translate(162.79,-54.1562)" v:mID="39" v:groupContext="group" v:layerMember="0">
			<v:userDefs>
				<v:ud v:nameU="Form" v:val="VT0(0):26"/>
				<v:ud v:nameU="Type" v:val="VT0(0):26"/>
				<v:ud v:nameU="visVersion" v:val="VT0(14):26"/>
				<v:ud v:nameU="visDescription" v:val="VT4(表示固定或可变电容器。)"/>
			</v:userDefs>
			<title>电容器.39</title>
			<g id="shape40-103" v:mID="40" v:groupContext="shape" v:layerMember="0"
					transform="translate(121.568,32.7267) rotate(45)">
				<title>工作表.40</title>
			</g>
			<g id="shape41-105" v:mID="41" v:groupContext="shape" v:layerMember="0" transform="translate(12.8976,0)">
				<title>工作表.41</title>
				<path d="M3.69 159.67 L3.69 144.93" class="st6"/>
				<path d="M7.37 159.67 L7.37 144.93" class="st6"/>
			</g>
			<g id="shape42-109" v:mID="42" v:groupContext="shape" v:layerMember="0" transform="translate(0,-7.37008)">
				<title>工作表.42</title>
				<path d="M0 159.67 L16.58 159.67" class="st6"/>
				<path d="M20.27 159.67 L36.85 159.67" class="st6"/>
			</g>
		</g>
		<g id="group43-113" transform="translate(163.047,-14.0483)" v:mID="43" v:groupContext="group" v:layerMember="0">
			<v:userDefs>
				<v:ud v:nameU="Form" v:val="VT0(0):26"/>
				<v:ud v:nameU="Type" v:val="VT0(0):26"/>
				<v:ud v:nameU="visVersion" v:val="VT0(14):26"/>
				<v:ud v:nameU="visDescription" v:val="VT4(表示固定或可变电容器。)"/>
			</v:userDefs>
			<title>电容器.43</title>
			<g id="shape44-114" v:mID="44" v:groupContext="shape" v:layerMember="0"
					transform="translate(121.568,32.7267) rotate(45)">
				<title>工作表.44</title>
			</g>
			<g id="shape45-116" v:mID="45" v:groupContext="shape" v:layerMember="0" transform="translate(12.8976,0)">
				<title>工作表.45</title>
				<path d="M3.69 159.67 L3.69 144.93" class="st6"/>
				<path d="M7.37 159.67 L7.37 144.93" class="st6"/>
			</g>
			<g id="shape46-120" v:mID="46" v:groupContext="shape" v:layerMember="0" transform="translate(0,-7.37008)">
				<title>工作表.46</title>
				<path d="M0 159.67 L16.58 159.67" class="st6"/>
				<path d="M20.27 159.67 L36.85 159.67" class="st6"/>
			</g>
		</g>
	</g>
</svg>
