<?xml version="1.0" encoding="UTF-8" standalone="no"?>
<!DOCTYPE svg PUBLIC "-//W3C//DTD SVG 1.1//EN" "http://www.w3.org/Graphics/SVG/1.1/DTD/svg11.dtd">
<!-- 由 Microsoft Visio, SVG Export 生成 four_microphone_smart_voice_application.svg 页-1 -->
<svg xmlns="http://www.w3.org/2000/svg" xmlns:xlink="http://www.w3.org/1999/xlink" xmlns:ev="http://www.w3.org/2001/xml-events"
		xmlns:v="http://schemas.microsoft.com/visio/2003/SVGExtensions/" width="2.91603in" height="3.88831in"
		viewBox="0 0 209.954 279.959" xml:space="preserve" color-interpolation-filters="sRGB" class="st14">
	<v:documentProperties v:langID="2052" v:metric="true" v:viewMarkup="false"/>

	<style type="text/css">
	<![CDATA[
		.st1 {fill:#000000}
		.st2 {stroke:#000000;stroke-linecap:butt;stroke-width:0.793701}
		.st3 {fill:#000000;font-family:Calibri;font-size:0.666664em}
		.st4 {fill:#ffffff;stroke:#000000;stroke-width:0.5}
		.st5 {fill:#000000;font-family:Calibri;font-size:1.00001em}
		.st6 {stroke:#000000;stroke-linecap:round;stroke-linejoin:round;stroke-width:1}
		.st7 {fill:#ffffff;stroke:#000000;stroke-width:0.75}
		.st8 {stroke:#000000;stroke-linecap:butt;stroke-width:1.13386}
		.st9 {fill:#000000;font-family:Calibri;font-size:0.833336em}
		.st10 {fill:#ffffff}
		.st11 {stroke:#000000;stroke-width:0.5}
		.st12 {font-size:1em}
		.st13 {fill:none;stroke:none;stroke-width:0.25}
		.st14 {fill:none;fill-rule:evenodd;font-size:12px;overflow:visible;stroke-linecap:square;stroke-miterlimit:3}
	]]>
	</style>

	<g v:mID="0" v:index="1" v:groupContext="foregroundPage">
		<v:userDefs>
			<v:ud v:nameU="MicrophoneCount" v:prompt="" v:val="VT0(5):26"/>
			<v:ud v:nameU="SpeakerCount" v:prompt="" v:val="VT0(2):26"/>
		</v:userDefs>
		<title>页-1</title>
		<v:pageProperties v:drawingScale="0.0393701" v:pageScale="0.0393701" v:drawingUnits="24" v:shadowOffsetX="8.50394"
				v:shadowOffsetY="-8.50394"/>
		<v:layer v:name="电气" v:index="0"/>
		<v:layer v:name="流程图" v:index="1"/>
		<g id="shape1-1" v:mID="1" v:groupContext="shape" v:layerMember="0" transform="translate(13.8633,-182.577)">
			<title>扩音器</title>
			<desc>MIC3</desc>
			<v:custProps>
				<v:cp v:nameU="Type" v:lbl="扩音器类型" v:type="1" v:format="标准;电容器;推拉" v:langID="2052" v:val="VT4(标准)"/>
				<v:cp v:nameU="Label" v:lbl="Label" v:prompt="" v:type="0" v:format="@" v:sortKey="" v:invis="false" v:ask="false"
						v:langID="2052" v:cal="0" v:val="VT4()"/>
				<v:cp v:nameU="Label" v:lbl="" v:prompt="" v:type="0" v:format="" v:sortKey="" v:invis="false" v:ask="false"
						v:langID="0" v:cal="0" v:val="VT4(MIC3)"/>
			</v:custProps>
			<v:userDefs>
				<v:ud v:nameU="Type" v:val="VT0(0):26"/>
				<v:ud v:nameU="visVersion" v:val="VT0(15):26"/>
				<v:ud v:nameU="visDescription" v:val="VT4(Standard, capacitor or push-pull microphone.)"/>
				<v:ud v:nameU="Label" v:prompt="" v:val="VT4()"/>
				<v:ud v:nameU="SolSH" v:prompt="" v:val="VT4({2EE3C7D2-E26E-4B72-9E9C-5170DDBF261A})"/>
				<v:ud v:nameU="Label" v:prompt="" v:val="VT4(MK3)"/>
			</v:userDefs>
			<v:textBlock v:margins="rect(1,1,1,1)" v:tabSpace="34.0157" v:verticalAlign="0"/>
			<v:textRect cx="9.92126" cy="285.76" width="20.99" height="11.6036"/>
			<path d="M10.25 261.82 C14.78 261.82 18.46 265.51 18.46 270.04 C18.46 274.57 14.78 278.25 10.25 278.25 C5.73 278.25 2.05
						 274.57 2.05 270.04 C2.05 265.51 5.73 261.82 10.25 261.82 ZM10.25 279.44 C15.43 279.44 19.64 275.22 19.64
						 270.04 C19.64 264.85 15.43 260.63 10.25 260.63 C5.08 260.63 0.86 264.85 0.86 270.04 C0.86 275.22 5.08 279.44
						 10.25 279.44 ZM18.65 279.96 L18.65 260.12 L19.84 260.12 L19.84 279.96 L18.65 279.96 Z" class="st1"/>
			<path d="M19.25 279.96 L19.25 260.12" class="st2"/>
			<path d="M10.25 279.44 C15.43 279.44 19.64 275.22 19.64 270.04 C19.64 264.85 15.43 260.63 10.25 260.63 C5.08 260.63 0.86
						 264.85 0.86 270.04 C0.86 275.22 5.08 279.44 10.25 279.44" class="st2"/>
			<path d="M18.65 279.96 L18.65 260.12 L19.84 260.12 L19.84 279.96 L18.65 279.96" class="st2"/>
			<text x="1.33" y="288.16" class="st3" v:langID="2052"><v:paragraph v:horizAlign="1"/><v:tabList/>MIC3</text>		</g>
		<g id="shape2-7" v:mID="2" v:groupContext="shape" v:layerMember="0" transform="translate(13.8633,-147.675)">
			<title>扩音器.2</title>
			<desc>MIC4</desc>
			<v:custProps>
				<v:cp v:nameU="Type" v:lbl="扩音器类型" v:type="1" v:format="标准;电容器;推拉" v:langID="2052" v:val="VT4(标准)"/>
				<v:cp v:nameU="Label" v:lbl="Label" v:prompt="" v:type="0" v:format="@" v:sortKey="" v:invis="false" v:ask="false"
						v:langID="2052" v:cal="0" v:val="VT4()"/>
				<v:cp v:nameU="Label" v:lbl="" v:prompt="" v:type="0" v:format="" v:sortKey="" v:invis="false" v:ask="false"
						v:langID="0" v:cal="0" v:val="VT4(MIC4)"/>
			</v:custProps>
			<v:userDefs>
				<v:ud v:nameU="Type" v:val="VT0(0):26"/>
				<v:ud v:nameU="visVersion" v:val="VT0(15):26"/>
				<v:ud v:nameU="visDescription" v:val="VT4(Standard, capacitor or push-pull microphone.)"/>
				<v:ud v:nameU="Label" v:prompt="" v:val="VT4()"/>
				<v:ud v:nameU="SolSH" v:prompt="" v:val="VT4({2EE3C7D2-E26E-4B72-9E9C-5170DDBF261A})"/>
				<v:ud v:nameU="Label" v:prompt="" v:val="VT4(MK2)"/>
			</v:userDefs>
			<v:textBlock v:margins="rect(1,1,1,1)" v:tabSpace="34.0157" v:verticalAlign="0"/>
			<v:textRect cx="9.92126" cy="285.76" width="20.99" height="11.6036"/>
			<path d="M10.25 261.82 C14.78 261.82 18.46 265.51 18.46 270.04 C18.46 274.57 14.78 278.25 10.25 278.25 C5.73 278.25 2.05
						 274.57 2.05 270.04 C2.05 265.51 5.73 261.82 10.25 261.82 ZM10.25 279.44 C15.43 279.44 19.64 275.22 19.64
						 270.04 C19.64 264.85 15.43 260.63 10.25 260.63 C5.08 260.63 0.86 264.85 0.86 270.04 C0.86 275.22 5.08 279.44
						 10.25 279.44 ZM18.65 279.96 L18.65 260.12 L19.84 260.12 L19.84 279.96 L18.65 279.96 Z" class="st1"/>
			<path d="M19.25 279.96 L19.25 260.12" class="st2"/>
			<path d="M10.25 279.44 C15.43 279.44 19.64 275.22 19.64 270.04 C19.64 264.85 15.43 260.63 10.25 260.63 C5.08 260.63 0.86
						 264.85 0.86 270.04 C0.86 275.22 5.08 279.44 10.25 279.44" class="st2"/>
			<path d="M18.65 279.96 L18.65 260.12 L19.84 260.12 L19.84 279.96 L18.65 279.96" class="st2"/>
			<text x="1.33" y="288.16" class="st3" v:langID="2052"><v:paragraph v:horizAlign="1"/><v:tabList/>MIC4</text>		</g>
		<g id="shape3-13" v:mID="3" v:groupContext="shape" v:layerMember="1" transform="translate(97.4301,-102.293)">
			<title>流程</title>
			<desc>Chip</desc>
			<v:custProps>
				<v:cp v:nameU="Cost" v:lbl="成本" v:prompt="" v:type="7" v:format="@" v:sortKey="" v:invis="false" v:ask="false"
						v:langID="2052" v:cal="0"/>
				<v:cp v:nameU="ProcessNumber" v:lbl="进程编号" v:prompt="" v:type="2" v:format="" v:sortKey="" v:invis="false"
						v:ask="false" v:langID="2052" v:cal="0"/>
				<v:cp v:nameU="Owner" v:lbl="所有者" v:prompt="" v:type="0" v:format="" v:sortKey="" v:invis="false" v:ask="false"
						v:langID="2052" v:cal="0"/>
				<v:cp v:nameU="Function" v:lbl="函数" v:prompt="" v:type="0" v:format="" v:sortKey="" v:invis="false" v:ask="false"
						v:langID="2052" v:cal="0" v:val="VT4()"/>
				<v:cp v:nameU="StartDate" v:lbl="开始日期" v:prompt="" v:type="5" v:format="" v:sortKey="" v:invis="false"
						v:ask="false" v:langID="2052" v:cal="0"/>
				<v:cp v:nameU="EndDate" v:lbl="结束日期" v:prompt="" v:type="5" v:format="" v:sortKey="" v:invis="false" v:ask="false"
						v:langID="2052" v:cal="0"/>
				<v:cp v:nameU="Status" v:lbl="状态" v:prompt="" v:type="4" v:format=";未开始;进行中;已完成;已推迟;正在等待输入" v:sortKey=""
						v:invis="false" v:ask="false" v:langID="2052" v:cal="0" v:val="VT4()"/>
			</v:custProps>
			<v:userDefs>
				<v:ud v:nameU="visVersion" v:prompt="" v:val="VT0(15):26"/>
				<v:ud v:nameU="DefaultWidth" v:prompt="" v:val="VT0(0.98425196850394):24"/>
				<v:ud v:nameU="DefaultHeight" v:prompt="" v:val="VT0(0.59055118110236):24"/>
				<v:ud v:nameU="ResizeTxtHeight" v:prompt="" v:val="VT0(0.59055118110236):24"/>
			</v:userDefs>
			<v:textBlock v:margins="rect(2,2,2,2)" v:tabSpace="42.5197"/>
			<v:textRect cx="56.0119" cy="191.376" width="112.03" height="177.165"/>
			<rect x="0" y="102.793" width="112.024" height="177.165" class="st4"/>
			<text x="45.13" y="194.98" class="st5" v:langID="2052"><v:paragraph v:horizAlign="1"/><v:tabList/>Chip</text>		</g>
		<g id="shape4-16" v:mID="4" v:groupContext="shape" transform="translate(97.4301,361.243) rotate(180)">
			<title>工作表.4</title>
			<path d="M0 279.96 L63.93 279.96" class="st6"/>
		</g>
		<g id="shape5-19" v:mID="5" v:groupContext="shape" transform="translate(97.4301,373.27) rotate(180)">
			<title>工作表.5</title>
			<path d="M0 279.96 L64.94 279.96" class="st6"/>
		</g>
		<g id="shape6-22" v:mID="6" v:groupContext="shape" transform="translate(97.4301,395.76) rotate(180)">
			<title>工作表.6</title>
			<path d="M0 279.96 L64.53 279.96" class="st6"/>
		</g>
		<g id="shape7-25" v:mID="7" v:groupContext="shape" transform="translate(97.4301,409.083) rotate(180)">
			<title>工作表.7</title>
			<path d="M0 279.96 L64.13 279.96" class="st6"/>
		</g>
		<g id="shape8-28" v:mID="8" v:groupContext="shape" transform="translate(97.4301,431.021) rotate(180)">
			<title>工作表.8</title>
			<path d="M0 279.96 L69.39 279.96" class="st6"/>
		</g>
		<g id="shape9-31" v:mID="9" v:groupContext="shape" transform="translate(97.4301,446.612) rotate(180)">
			<title>工作表.9</title>
			<path d="M0 279.96 L52.98 279.96" class="st6"/>
		</g>
		<g id="shape10-34" v:mID="10" v:groupContext="shape" transform="translate(413.72,177.992) rotate(90)">
			<title>工作表.10</title>
			<path d="M0 279.96 L36.52 279.96" class="st6"/>
		</g>
		<g id="shape11-37" v:mID="11" v:groupContext="shape" transform="translate(441.216,177.992) rotate(90)">
			<title>工作表.11</title>
			<path d="M0 279.96 L36.52 279.96" class="st6"/>
		</g>
		<g id="shape12-40" v:mID="12" v:groupContext="shape" v:layerMember="1" transform="translate(111.934,-52.0794)">
			<title>开始/结束</title>
			<desc>Class-D/Class-AB</desc>
			<v:custProps>
				<v:cp v:nameU="Cost" v:lbl="成本" v:prompt="" v:type="7" v:format="@" v:sortKey="" v:invis="false" v:ask="false"
						v:langID="2052" v:cal="0"/>
				<v:cp v:nameU="ProcessNumber" v:lbl="进程编号" v:prompt="" v:type="2" v:format="" v:sortKey="" v:invis="false"
						v:ask="false" v:langID="2052" v:cal="0"/>
				<v:cp v:nameU="Owner" v:lbl="所有者" v:prompt="" v:type="0" v:format="" v:sortKey="" v:invis="false" v:ask="false"
						v:langID="2052" v:cal="0"/>
				<v:cp v:nameU="Function" v:lbl="函数" v:prompt="" v:type="0" v:format="" v:sortKey="" v:invis="false" v:ask="false"
						v:langID="2052" v:cal="0" v:val="VT4()"/>
				<v:cp v:nameU="StartDate" v:lbl="开始日期" v:prompt="" v:type="5" v:format="" v:sortKey="" v:invis="false"
						v:ask="false" v:langID="2052" v:cal="0"/>
				<v:cp v:nameU="EndDate" v:lbl="结束日期" v:prompt="" v:type="5" v:format="" v:sortKey="" v:invis="false" v:ask="false"
						v:langID="2052" v:cal="0"/>
				<v:cp v:nameU="Status" v:lbl="状态" v:prompt="" v:type="4" v:format=";未开始;进行中;已完成;已推迟;正在等待输入" v:sortKey=""
						v:invis="false" v:ask="false" v:langID="2052" v:cal="0" v:val="VT4()"/>
			</v:custProps>
			<v:userDefs>
				<v:ud v:nameU="visVersion" v:prompt="" v:val="VT0(15):26"/>
				<v:ud v:nameU="DefaultWidth" v:prompt="" v:val="VT0(0.98425196850394):24"/>
				<v:ud v:nameU="DefaultHeight" v:prompt="" v:val="VT0(0.39370078740157):24"/>
				<v:ud v:nameU="ResizeTxtHeight" v:prompt="" v:val="VT0(0.39370078740157):24"/>
			</v:userDefs>
			<v:textBlock v:margins="rect(2,2,2,2)" v:tabSpace="42.5197"/>
			<v:textRect cx="35.4331" cy="273.344" width="70.87" height="13.2283"/>
			<path d="M6.61 279.96 L64.25 279.96 A6.61417 6.61417 -180 0 0 64.25 266.73 L6.61 266.73 A6.61417 6.61417 -180 1 0 6.61
						 279.96 Z" class="st7"/>
			<text x="8.3" y="275.74" class="st3" v:langID="2052"><v:paragraph v:horizAlign="1"/><v:tabList/>Class-D/Class-AB</text>		</g>
		<g id="shape13-43" v:mID="13" v:groupContext="shape" v:layerMember="0" transform="translate(413.153,244.988) rotate(90)">
			<title>扬声器</title>
			<v:custProps>
				<v:cp v:nameU="Label" v:lbl="Label" v:prompt="" v:type="0" v:format="@" v:sortKey="" v:invis="false" v:ask="false"
						v:langID="2052" v:cal="0" v:val="VT4()"/>
				<v:cp v:nameU="Label" v:lbl="" v:prompt="" v:type="0" v:format="" v:sortKey="" v:invis="false" v:ask="false"
						v:langID="0" v:cal="0" v:val="VT4(SPK1)"/>
			</v:custProps>
			<v:userDefs>
				<v:ud v:nameU="Type" v:val="VT0(0):26"/>
				<v:ud v:nameU="CHMin" v:val="VT0(0.25590551181102):24"/>
				<v:ud v:nameU="visDescription" v:val="VT4(Speaker. Right-click to add/remove microphone.)"/>
				<v:ud v:nameU="visVersion" v:val="VT0(15):26"/>
				<v:ud v:nameU="Label" v:prompt="" v:val="VT4()"/>
				<v:ud v:nameU="SolSH" v:prompt="" v:val="VT4({2EE3C7D2-E26E-4B72-9E9C-5170DDBF261A})"/>
				<v:ud v:nameU="CHMin" v:prompt="" v:val="VT0(0.19685039370079):24"/>
				<v:ud v:nameU="Label" v:prompt="" v:val="VT4(SPK1)"/>
			</v:userDefs>
			<v:textBlock v:margins="rect(1,1,1,1)" v:tabSpace="34.0157" v:verticalAlign="0"/>
			<v:textRect cx="27.9685" cy="265.494" width="24.29" height="14.0036" transform="rotate(-90)"/>
			<path d="M3.5 272.06 L3.5 259.51 L10.49 259.51 L10.49 272.06 L3.5 272.06 ZM12.19 271.01 L12.19 260.56 L20.5 255.82 L20.5
						 275.75 L12.19 271.01 ZM22.2 279.15 L22.2 279.15 L22.2 252.42 L10.49 259.54 L10.49 272.07 L22.2 279.15 Z"
					class="st1"/>
			<path d="M-0 268.09 L3.54 268.09" class="st8"/>
			<path d="M-0 263.48 L3.54 263.48" class="st8"/>
			<text x="-275.51" y="30.97" transform="rotate(-90)" class="st9" v:langID="2052"><v:paragraph v:horizAlign="1"/><v:tabList/>SPK1</text>		</g>
		<g id="shape14-48" v:mID="14" v:groupContext="shape" transform="translate(-134.893,244.988) rotate(-90)">
			<title>工作表.14</title>
			<path d="M0 279.96 L16.4 279.96" class="st6"/>
		</g>
		<g id="shape15-51" v:mID="15" v:groupContext="shape" transform="translate(-130.289,244.988) rotate(-90)">
			<title>工作表.15</title>
			<path d="M0 279.96 L16.6 279.96" class="st6"/>
		</g>
		<g id="shape16-54" v:mID="16" v:groupContext="shape" v:layerMember="1" transform="translate(0.5,-28.8286)">
			<title>数据库</title>
			<desc>Audio voice band RC filter</desc>
			<v:custProps>
				<v:cp v:nameU="Cost" v:lbl="成本" v:prompt="" v:type="7" v:format="@" v:sortKey="" v:invis="false" v:ask="false"
						v:langID="2052" v:cal="0"/>
				<v:cp v:nameU="ProcessNumber" v:lbl="进程编号" v:prompt="" v:type="2" v:format="" v:sortKey="" v:invis="false"
						v:ask="false" v:langID="2052" v:cal="0"/>
				<v:cp v:nameU="Owner" v:lbl="所有者" v:prompt="" v:type="0" v:format="" v:sortKey="" v:invis="false" v:ask="false"
						v:langID="2052" v:cal="0"/>
				<v:cp v:nameU="Function" v:lbl="函数" v:prompt="" v:type="0" v:format="" v:sortKey="" v:invis="false" v:ask="false"
						v:langID="2052" v:cal="0" v:val="VT4()"/>
				<v:cp v:nameU="StartDate" v:lbl="开始日期" v:prompt="" v:type="5" v:format="" v:sortKey="" v:invis="false"
						v:ask="false" v:langID="2052" v:cal="0"/>
				<v:cp v:nameU="EndDate" v:lbl="结束日期" v:prompt="" v:type="5" v:format="" v:sortKey="" v:invis="false" v:ask="false"
						v:langID="2052" v:cal="0"/>
				<v:cp v:nameU="Status" v:lbl="状态" v:prompt="" v:type="4" v:format=";未开始;进行中;已完成;已推迟;正在等待输入" v:sortKey=""
						v:invis="false" v:ask="false" v:langID="2052" v:cal="0" v:val="VT4()"/>
			</v:custProps>
			<v:userDefs>
				<v:ud v:nameU="visVersion" v:prompt="" v:val="VT0(15):26"/>
				<v:ud v:nameU="DefaultWidth" v:prompt="" v:val="VT0(0.98425196850394):24"/>
				<v:ud v:nameU="DefaultHeight" v:prompt="" v:val="VT0(0.59055118110236):24"/>
				<v:ud v:nameU="ResizeTxtHeight" v:prompt="" v:val="VT0(0.59055118110236):24"/>
			</v:userDefs>
			<v:textBlock v:margins="rect(2,2,2,2)" v:tabSpace="42.5197"/>
			<v:textRect cx="35.4331" cy="268.62" width="65.2" height="22.6772"/>
			<path d="M2.83 257.28 L70.87 257.28 A24.0945 24.0945 0 0 1 70.87 279.96 L2.83 279.96 A24.0945 24.0945 0 0 1 2.83 257.28
						 Z" class="st10"/>
			<path d="M2.83 257.28 L70.87 257.28 A24.0945 24.0945 0 0 1 70.87 279.96 L2.83 279.96 A24.0945 24.0945 0 0 1 2.83 257.28"
					class="st11"/>
			<path d="M70.87 257.28 A24.0945 24.0945 -180 0 0 70.87 279.96" class="st11"/>
			<text x="7.34" y="266.22" class="st3" v:langID="2052"><v:paragraph v:horizAlign="1"/><v:tabList/>Audio voice band<v:newlineChar/><tspan
						x="22.44" dy="1.2em" class="st12">RC filter</tspan></text>		</g>
		<g id="shape17-60" v:mID="17" v:groupContext="shape" transform="translate(74.6271,-45.3048) rotate(0.0642693)">
			<title>工作表.17</title>
			<path d="M0 279.96 L69.94 279.96" class="st6"/>
		</g>
		<g id="shape18-63" v:mID="18" v:groupContext="shape" transform="translate(73.7958,-35.3837)">
			<title>工作表.18</title>
			<path d="M0 279.96 L70.68 279.96" class="st6"/>
		</g>
		<g id="shape19-66" v:mID="19" v:groupContext="shape" transform="translate(-251.922,228.391) rotate(-90)">
			<title>工作表.19</title>
			<path d="M0 279.96 L77.33 279.96" class="st6"/>
		</g>
		<g id="shape20-69" v:mID="20" v:groupContext="shape" transform="translate(-235.809,228.453) rotate(-90)">
			<title>工作表.20</title>
			<path d="M0 279.96 L61.68 279.96" class="st6"/>
		</g>
		<g id="shape21-72" v:mID="21" v:groupContext="shape" transform="translate(60.186,-270.572)">
			<title>工作表.21</title>
			<desc>MIC1_P</desc>
			<v:textBlock v:margins="rect(2,2,2,2)" v:tabSpace="42.5197"/>
			<v:textRect cx="15.5906" cy="275.707" width="31.19" height="8.50394"/>
			<rect x="0" y="271.455" width="31.1811" height="8.50394" class="st13"/>
			<text x="2" y="278.11" class="st3" v:langID="2052"><v:paragraph/><v:tabList/>MIC1_P</text>		</g>
		<g id="shape22-75" v:mID="22" v:groupContext="shape" transform="translate(60.186,-257.518)">
			<title>工作表.22</title>
			<desc>MIC1_N</desc>
			<v:textBlock v:margins="rect(2,2,2,2)" v:tabSpace="42.5197"/>
			<v:textRect cx="15.5906" cy="275.707" width="31.19" height="8.50394"/>
			<rect x="0" y="271.455" width="31.1811" height="8.50394" class="st13"/>
			<text x="2" y="278.11" class="st3" v:langID="2052"><v:paragraph/><v:tabList/>MIC1_N</text>		</g>
		<g id="shape23-78" v:mID="23" v:groupContext="shape" transform="translate(60.186,-235.195)">
			<title>工作表.23</title>
			<desc>MIC2_P</desc>
			<v:textBlock v:margins="rect(2,2,2,2)" v:tabSpace="42.5197"/>
			<v:textRect cx="15.5906" cy="275.707" width="31.19" height="8.50394"/>
			<rect x="0" y="271.455" width="31.1811" height="8.50394" class="st13"/>
			<text x="2" y="278.11" class="st3" v:langID="2052"><v:paragraph/><v:tabList/>MIC2_P</text>		</g>
		<g id="shape24-81" v:mID="24" v:groupContext="shape" transform="translate(60.186,-223.857)">
			<title>工作表.24</title>
			<desc>MIC2_N</desc>
			<v:textBlock v:margins="rect(2,2,2,2)" v:tabSpace="42.5197"/>
			<v:textRect cx="15.5906" cy="275.707" width="31.19" height="8.50394"/>
			<rect x="0" y="271.455" width="31.1811" height="8.50394" class="st13"/>
			<text x="2" y="278.11" class="st3" v:langID="2052"><v:paragraph/><v:tabList/>MIC2_N</text>		</g>
		<g id="shape25-84" v:mID="25" v:groupContext="shape" transform="translate(60.186,-131.235)">
			<title>工作表.25</title>
			<desc>MIC5_P</desc>
			<v:textBlock v:margins="rect(2,2,2,2)" v:tabSpace="42.5197"/>
			<v:textRect cx="15.5906" cy="275.707" width="31.19" height="8.50394"/>
			<rect x="0" y="271.455" width="31.1811" height="8.50394" class="st13"/>
			<text x="2" y="278.11" class="st3" v:langID="2052"><v:paragraph/><v:tabList/>MIC5_P</text>		</g>
		<g id="shape26-87" v:mID="26" v:groupContext="shape" transform="translate(60.186,-115.841)">
			<title>工作表.26</title>
			<desc>MIC5_N</desc>
			<v:textBlock v:margins="rect(2,2,2,2)" v:tabSpace="42.5197"/>
			<v:textRect cx="15.5906" cy="275.707" width="31.19" height="8.50394"/>
			<rect x="0" y="271.455" width="31.1811" height="8.50394" class="st13"/>
			<text x="2" y="278.11" class="st3" v:langID="2052"><v:paragraph/><v:tabList/>MIC5_N</text>		</g>
		<g id="shape27-90" v:mID="27" v:groupContext="shape" transform="translate(401.153,175.339) rotate(90)">
			<title>工作表.27</title>
			<desc>AOUTL_P</desc>
			<v:textBlock v:margins="rect(2,2,2,2)" v:tabSpace="42.5197"/>
			<v:textRect cx="20.2972" cy="273.959" width="40.6" height="12"/>
			<rect x="0" y="267.959" width="40.5944" height="12" class="st13"/>
			<text x="5.08" y="276.36" class="st3" v:langID="2052"><v:paragraph v:horizAlign="1"/><v:tabList/>AOUTL_P</text>		</g>
		<g id="shape28-93" v:mID="28" v:groupContext="shape" transform="translate(441.499,174.634) rotate(90)">
			<title>工作表.28</title>
			<desc>AOUTL_N</desc>
			<v:textBlock v:margins="rect(2,2,2,2)" v:tabSpace="42.5197"/>
			<v:textRect cx="20.2972" cy="273.959" width="40.6" height="12"/>
			<rect x="0" y="267.959" width="40.5944" height="12" class="st13"/>
			<text x="4.56" y="276.36" class="st3" v:langID="2052"><v:paragraph v:horizAlign="1"/><v:tabList/>AOUTL_N</text>		</g>
		<g id="shape31-96" v:mID="31" v:groupContext="shape" v:layerMember="0" transform="translate(13.8633,-252.557)">
			<title>扩音器.31</title>
			<desc>MIC1</desc>
			<v:custProps>
				<v:cp v:nameU="Type" v:lbl="扩音器类型" v:type="1" v:format="标准;电容器;推拉" v:langID="2052" v:val="VT4(标准)"/>
				<v:cp v:nameU="Label" v:lbl="Label" v:prompt="" v:type="0" v:format="@" v:sortKey="" v:invis="false" v:ask="false"
						v:langID="2052" v:cal="0" v:val="VT4()"/>
				<v:cp v:nameU="Label" v:lbl="" v:prompt="" v:type="0" v:format="" v:sortKey="" v:invis="false" v:ask="false"
						v:langID="0" v:cal="0" v:val="VT4(MIC1)"/>
			</v:custProps>
			<v:userDefs>
				<v:ud v:nameU="Type" v:val="VT0(0):26"/>
				<v:ud v:nameU="visVersion" v:val="VT0(15):26"/>
				<v:ud v:nameU="visDescription" v:val="VT4(Standard, capacitor or push-pull microphone.)"/>
				<v:ud v:nameU="Label" v:prompt="" v:val="VT4()"/>
				<v:ud v:nameU="SolSH" v:prompt="" v:val="VT4({2EE3C7D2-E26E-4B72-9E9C-5170DDBF261A})"/>
				<v:ud v:nameU="Label" v:prompt="" v:val="VT4(MK4)"/>
			</v:userDefs>
			<v:textBlock v:margins="rect(1,1,1,1)" v:tabSpace="34.0157" v:verticalAlign="0"/>
			<v:textRect cx="9.92126" cy="285.76" width="20.99" height="11.6036"/>
			<path d="M10.25 261.82 C14.78 261.82 18.46 265.51 18.46 270.04 C18.46 274.57 14.78 278.25 10.25 278.25 C5.73 278.25 2.05
						 274.57 2.05 270.04 C2.05 265.51 5.73 261.82 10.25 261.82 ZM10.25 279.44 C15.43 279.44 19.64 275.22 19.64
						 270.04 C19.64 264.85 15.43 260.63 10.25 260.63 C5.08 260.63 0.86 264.85 0.86 270.04 C0.86 275.22 5.08 279.44
						 10.25 279.44 ZM18.65 279.96 L18.65 260.12 L19.84 260.12 L19.84 279.96 L18.65 279.96 Z" class="st1"/>
			<path d="M19.25 279.96 L19.25 260.12" class="st2"/>
			<path d="M10.25 279.44 C15.43 279.44 19.64 275.22 19.64 270.04 C19.64 264.85 15.43 260.63 10.25 260.63 C5.08 260.63 0.86
						 264.85 0.86 270.04 C0.86 275.22 5.08 279.44 10.25 279.44" class="st2"/>
			<path d="M18.65 279.96 L18.65 260.12 L19.84 260.12 L19.84 279.96 L18.65 279.96" class="st2"/>
			<text x="1.33" y="288.16" class="st3" v:langID="2052"><v:paragraph v:horizAlign="1"/><v:tabList/>MIC1</text>		</g>
		<g id="shape32-102" v:mID="32" v:groupContext="shape" v:layerMember="0" transform="translate(13.8633,-217.479)">
			<title>扩音器.32</title>
			<desc>MIC2</desc>
			<v:custProps>
				<v:cp v:nameU="Type" v:lbl="扩音器类型" v:type="1" v:format="标准;电容器;推拉" v:langID="2052" v:val="VT4(标准)"/>
				<v:cp v:nameU="Label" v:lbl="Label" v:prompt="" v:type="0" v:format="@" v:sortKey="" v:invis="false" v:ask="false"
						v:langID="2052" v:cal="0" v:val="VT4()"/>
				<v:cp v:nameU="Label" v:lbl="" v:prompt="" v:type="0" v:format="" v:sortKey="" v:invis="false" v:ask="false"
						v:langID="0" v:cal="0" v:val="VT4(MIC2)"/>
			</v:custProps>
			<v:userDefs>
				<v:ud v:nameU="Type" v:val="VT0(0):26"/>
				<v:ud v:nameU="visVersion" v:val="VT0(15):26"/>
				<v:ud v:nameU="visDescription" v:val="VT4(Standard, capacitor or push-pull microphone.)"/>
				<v:ud v:nameU="Label" v:prompt="" v:val="VT4()"/>
				<v:ud v:nameU="SolSH" v:prompt="" v:val="VT4({2EE3C7D2-E26E-4B72-9E9C-5170DDBF261A})"/>
				<v:ud v:nameU="Label" v:prompt="" v:val="VT4(MK2)"/>
			</v:userDefs>
			<v:textBlock v:margins="rect(1,1,1,1)" v:tabSpace="34.0157" v:verticalAlign="0"/>
			<v:textRect cx="9.92126" cy="285.76" width="20.99" height="11.6036"/>
			<path d="M10.25 261.82 C14.78 261.82 18.46 265.51 18.46 270.04 C18.46 274.57 14.78 278.25 10.25 278.25 C5.73 278.25 2.05
						 274.57 2.05 270.04 C2.05 265.51 5.73 261.82 10.25 261.82 ZM10.25 279.44 C15.43 279.44 19.64 275.22 19.64
						 270.04 C19.64 264.85 15.43 260.63 10.25 260.63 C5.08 260.63 0.86 264.85 0.86 270.04 C0.86 275.22 5.08 279.44
						 10.25 279.44 ZM18.65 279.96 L18.65 260.12 L19.84 260.12 L19.84 279.96 L18.65 279.96 Z" class="st1"/>
			<path d="M19.25 279.96 L19.25 260.12" class="st2"/>
			<path d="M10.25 279.44 C15.43 279.44 19.64 275.22 19.64 270.04 C19.64 264.85 15.43 260.63 10.25 260.63 C5.08 260.63 0.86
						 264.85 0.86 270.04 C0.86 275.22 5.08 279.44 10.25 279.44" class="st2"/>
			<path d="M18.65 279.96 L18.65 260.12 L19.84 260.12 L19.84 279.96 L18.65 279.96" class="st2"/>
			<text x="1.33" y="288.16" class="st3" v:langID="2052"><v:paragraph v:horizAlign="1"/><v:tabList/>MIC2</text>		</g>
		<g id="shape33-108" v:mID="33" v:groupContext="shape" transform="translate(97.4301,291.06) rotate(180)">
			<title>工作表.33</title>
			<path d="M0 279.96 L64.54 279.96" class="st6"/>
		</g>
		<g id="shape34-111" v:mID="34" v:groupContext="shape" transform="translate(97.4301,304.1) rotate(180)">
			<title>工作表.34</title>
			<path d="M0 279.96 L64.47 279.96" class="st6"/>
		</g>
		<g id="shape35-114" v:mID="35" v:groupContext="shape" transform="translate(97.4301,326.443) rotate(180)">
			<title>工作表.35</title>
			<path d="M0 279.96 L64.53 279.96" class="st6"/>
		</g>
		<g id="shape36-117" v:mID="36" v:groupContext="shape" transform="translate(97.4301,337.761) rotate(180)">
			<title>工作表.36</title>
			<path d="M0 279.96 L64.74 279.96" class="st6"/>
		</g>
		<g id="shape38-120" v:mID="38" v:groupContext="shape" transform="translate(60.186,-200.597)">
			<title>工作表.38</title>
			<desc>MIC3_P</desc>
			<v:textBlock v:margins="rect(2,2,2,2)" v:tabSpace="42.5197"/>
			<v:textRect cx="15.5906" cy="275.707" width="31.19" height="8.50394"/>
			<rect x="0" y="271.455" width="31.1811" height="8.50394" class="st13"/>
			<text x="2" y="278.11" class="st3" v:langID="2052"><v:paragraph/><v:tabList/>MIC3_P</text>		</g>
		<g id="shape39-123" v:mID="39" v:groupContext="shape" transform="translate(60.186,-188.55)">
			<title>工作表.39</title>
			<desc>MIC3_N</desc>
			<v:textBlock v:margins="rect(2,2,2,2)" v:tabSpace="42.5197"/>
			<v:textRect cx="15.5906" cy="275.707" width="31.19" height="8.50394"/>
			<rect x="0" y="271.455" width="31.1811" height="8.50394" class="st13"/>
			<text x="2" y="278.11" class="st3" v:langID="2052"><v:paragraph/><v:tabList/>MIC3_N</text>		</g>
		<g id="shape40-126" v:mID="40" v:groupContext="shape" transform="translate(60.186,-165.797)">
			<title>工作表.40</title>
			<desc>MIC4_P</desc>
			<v:textBlock v:margins="rect(2,2,2,2)" v:tabSpace="42.5197"/>
			<v:textRect cx="15.5906" cy="275.707" width="31.19" height="8.50394"/>
			<rect x="0" y="271.455" width="31.1811" height="8.50394" class="st13"/>
			<text x="2" y="278.11" class="st3" v:langID="2052"><v:paragraph/><v:tabList/>MIC4_P</text>		</g>
		<g id="shape41-129" v:mID="41" v:groupContext="shape" transform="translate(60.186,-152.636)">
			<title>工作表.41</title>
			<desc>MIC4_N</desc>
			<v:textBlock v:margins="rect(2,2,2,2)" v:tabSpace="42.5197"/>
			<v:textRect cx="15.5906" cy="275.707" width="31.19" height="8.50394"/>
			<rect x="0" y="271.455" width="31.1811" height="8.50394" class="st13"/>
			<text x="2" y="278.11" class="st3" v:langID="2052"><v:paragraph/><v:tabList/>MIC4_N</text>		</g>
	</g>
</svg>
