<?xml version="1.0" encoding="UTF-8" standalone="no"?>
<!DOCTYPE svg PUBLIC "-//W3C//DTD SVG 1.1//EN" "http://www.w3.org/Graphics/SVG/1.1/DTD/svg11.dtd">
<!-- 由 Microsoft Visio, SVG Export 生成 playback_states.svg 页-1 -->
<svg xmlns="http://www.w3.org/2000/svg" xmlns:xlink="http://www.w3.org/1999/xlink" xmlns:ev="http://www.w3.org/2001/xml-events"
		xmlns:v="http://schemas.microsoft.com/visio/2003/SVGExtensions/" width="8.28128in" height="4.40331in"
		viewBox="0 0 596.253 317.038" xml:space="preserve" color-interpolation-filters="sRGB" class="st16">
	<v:documentProperties v:langID="2052" v:metric="true" v:viewMarkup="false"/>

	<style type="text/css">
	<![CDATA[
		.st1 {marker-end:url(#mrkr4-6);stroke:#000000;stroke-linecap:round;stroke-linejoin:round;stroke-width:1}
		.st2 {fill:#000000;fill-opacity:1;stroke:#000000;stroke-opacity:1;stroke-width:0.28409090909091}
		.st3 {fill:#ffffff;stroke:none;stroke-linecap:butt;stroke-width:7.2}
		.st4 {fill:#000000;font-family:Calibri;font-size:0.666664em}
		.st5 {font-size:1em}
		.st6 {fill:#7f7f7f;fill-opacity:0;stroke:none;stroke-width:0.25}
		.st7 {fill:#d8d8d8;stroke:#000000;stroke-width:0.75}
		.st8 {fill:#000000;font-family:Calibri;font-size:0.75em}
		.st9 {fill:#ffffff;stroke:none;stroke-linecap:butt}
		.st10 {marker-end:url(#mrkr39-80);stroke:#000000;stroke-linecap:round;stroke-linejoin:round;stroke-width:1}
		.st11 {marker-start:url(#mrkr4-96);stroke:#000000;stroke-linecap:round;stroke-linejoin:round;stroke-width:1}
		.st12 {marker-end:url(#mrkr4-104);stroke:#000000;stroke-linecap:round;stroke-linejoin:round;stroke-width:1}
		.st13 {marker-end:url(#mrkr6-196);stroke:#000000;stroke-linecap:round;stroke-linejoin:round;stroke-width:1}
		.st14 {marker-end:url(#mrkr4-207);stroke:#000000;stroke-width:0.75}
		.st15 {fill:#000000;fill-opacity:1;stroke:#000000;stroke-opacity:1;stroke-width:0.22935779816514}
		.st16 {fill:none;fill-rule:evenodd;font-size:12px;overflow:visible;stroke-linecap:square;stroke-miterlimit:3}
	]]>
	</style>

	<defs id="Markers">
		<g id="lend4">
			<path d="M 2 1 L 0 0 L 2 -1 L 2 1 " style="stroke:none"/>
		</g>
		<marker id="mrkr4-6" class="st2" v:arrowType="4" v:arrowSize="2" v:setback="7.04" refX="-7.04" orient="auto"
				markerUnits="strokeWidth" overflow="visible">
			<use xlink:href="#lend4" transform="scale(-3.52,-3.52) "/>
		</marker>
		<g id="lend39">
			<path d="M 0 0 L 2 -1 L 2 1 L 0 0 M 2 0 L 4 -1 L 4 1 L 2 0 " style="stroke:none"/>
		</g>
		<marker id="mrkr39-80" class="st2" v:arrowType="39" v:arrowSize="2" v:setback="14.08" refX="-14.08" orient="auto"
				markerUnits="strokeWidth" overflow="visible">
			<use xlink:href="#lend39" transform="scale(-3.52,-3.52) "/>
		</marker>
		<marker id="mrkr4-96" class="st2" v:arrowType="4" v:arrowSize="2" v:setback="6.68" refX="6.68" orient="auto"
				markerUnits="strokeWidth" overflow="visible">
			<use xlink:href="#lend4" transform="scale(3.52) "/>
		</marker>
		<marker id="mrkr4-104" class="st2" v:arrowType="4" v:arrowSize="2" v:setback="6.68" refX="-6.68" orient="auto"
				markerUnits="strokeWidth" overflow="visible">
			<use xlink:href="#lend4" transform="scale(-3.52,-3.52) "/>
		</marker>
		<g id="lend6">
			<path d="M 2 1 L 0 0 L 2.01237 -1.00641 C 2.32921 -0.372874 2.32921 0.37287 2.01238 1.0064 " style="stroke:none"/>
		</g>
		<marker id="mrkr6-196" class="st2" v:arrowType="6" v:arrowSize="2" v:setback="7.92" refX="-7.92" orient="auto"
				markerUnits="strokeWidth" overflow="visible">
			<use xlink:href="#lend6" transform="scale(-3.52,-3.52) "/>
		</marker>
		<marker id="mrkr4-207" class="st15" v:arrowType="4" v:arrowSize="2" v:setback="8.24" refX="-8.24" orient="auto"
				markerUnits="strokeWidth" overflow="visible">
			<use xlink:href="#lend4" transform="scale(-4.36,-4.36) "/>
		</marker>
	</defs>
	<g v:mID="0" v:index="1" v:groupContext="foregroundPage">
		<title>页-1</title>
		<v:pageProperties v:drawingScale="0.0393701" v:pageScale="0.0393701" v:drawingUnits="24" v:shadowOffsetX="8.50394"
				v:shadowOffsetY="-8.50394"/>
		<v:layer v:name="连接线" v:index="0"/>
		<g id="shape139-1" v:mID="139" v:groupContext="shape" v:layerMember="0" transform="translate(307.952,-287.942)">
			<title>动态连接线.139</title>
			<desc>RTPlayer_SetSource()</desc>
			<v:textBlock v:margins="rect(4,4,4,4)" v:tabSpace="42.5197"/>
			<v:textRect cx="7.14809" cy="332.345" width="79.67" height="17.6036"/>
			<path d="M7.09 317.04 L7.09 343.1" class="st1"/>
			<rect v:rectContext="textBkgnd" x="-27.7793" y="327.546" width="69.8549" height="9.59985" class="st3"/>
			<text x="-27.78" y="334.75" class="st4" v:langID="1033"><v:paragraph v:horizAlign="1"/><v:tabList/>RTPlayer_SetSource<tspan
						class="st5" v:langID="2052">()</tspan></text>		</g>
		<g id="shape171-10" v:mID="171" v:groupContext="shape" transform="translate(0.25,-40.5414)">
			<title>工作表.171</title>
			<desc>RTPlayer_Stop()</desc>
			<v:textBlock v:margins="rect(4,4,4,4)" v:tabSpace="42.5197"/>
			<v:textRect cx="31.2833" cy="312.393" width="62.57" height="9.2902"/>
			<rect x="0" y="307.748" width="62.5667" height="9.2902" class="st6"/>
			<text x="5.26" y="314.79" class="st4" v:langID="1033"><v:paragraph v:horizAlign="1"/><v:tabList/>RTPlayer_Stop<tspan
						class="st5" v:langID="2052">()</tspan></text>		</g>
		<g id="shape172-14" v:mID="172" v:groupContext="shape" transform="translate(278.188,-287.942)">
			<title>椭圆形</title>
			<desc>Idle</desc>
			<v:userDefs>
				<v:ud v:nameU="visVersion" v:val="VT0(15):26"/>
			</v:userDefs>
			<v:textBlock v:margins="rect(4,4,4,4)" v:tabSpace="42.5197"/>
			<v:textRect cx="36.8504" cy="302.865" width="64.49" height="24.8031"/>
			<path d="M0 302.87 A36.8504 14.1732 0 1 1 73.7 302.87 A36.8504 14.1732 0 1 1 0 302.87 Z" class="st7"/>
			<text x="30.08" y="305.57" class="st8" v:langID="2052"><v:paragraph v:horizAlign="1"/><v:tabList/>Idle</text>		</g>
		<g id="shape173-17" v:mID="173" v:groupContext="shape" transform="translate(278.188,-226.494)">
			<title>椭圆形.173</title>
			<desc>Unprepared</desc>
			<v:userDefs>
				<v:ud v:nameU="visVersion" v:val="VT0(15):26"/>
			</v:userDefs>
			<v:textBlock v:margins="rect(4,4,4,4)" v:tabSpace="42.5197"/>
			<v:textRect cx="36.8504" cy="302.865" width="64.49" height="24.8031"/>
			<path d="M0 302.87 A36.8504 14.1732 0 1 1 73.7 302.87 A36.8504 14.1732 0 1 1 0 302.87 Z" class="st7"/>
			<text x="14.73" y="305.57" class="st8" v:langID="2052"><v:paragraph v:horizAlign="1"/><v:tabList/>Unprepared</text>		</g>
		<g id="shape174-20" v:mID="174" v:groupContext="shape" transform="translate(278.188,-165.311)">
			<title>椭圆形.174</title>
			<desc>Prepared</desc>
			<v:userDefs>
				<v:ud v:nameU="visVersion" v:val="VT0(15):26"/>
			</v:userDefs>
			<v:textBlock v:margins="rect(4,4,4,4)" v:tabSpace="42.5197"/>
			<v:textRect cx="36.8504" cy="302.865" width="64.49" height="24.8031"/>
			<path d="M0 302.87 A36.8504 14.1732 0 1 1 73.7 302.87 A36.8504 14.1732 0 1 1 0 302.87 Z" class="st7"/>
			<text x="20.03" y="305.57" class="st8" v:langID="2052"><v:paragraph v:horizAlign="1"/><v:tabList/>Prepared</text>		</g>
		<g id="shape175-23" v:mID="175" v:groupContext="shape" v:layerMember="0" transform="translate(307.952,-226.494)">
			<title>动态连接线.175</title>
			<desc>RTPlayer_Prepare()</desc>
			<v:textBlock v:margins="rect(4,4,4,4)" v:tabSpace="42.5197"/>
			<v:textRect cx="7.14809" cy="330.709" width="72.79" height="17.6036"/>
			<path d="M7.09 317.04 L7.09 342.84" class="st1"/>
			<rect v:rectContext="textBkgnd" x="-24.34" y="325.909" width="62.9764" height="9.59985" class="st3"/>
			<text x="-24.34" y="333.11" class="st4" v:langID="1033"><v:paragraph v:horizAlign="1"/><v:tabList/>RTPlayer_Prepare()</text>		</g>
		<g id="shape176-30" v:mID="176" v:groupContext="shape" v:layerMember="0" transform="translate(307.952,-165.311)">
			<title>动态连接线.176</title>
			<desc>RTPlayer_Start()</desc>
			<v:textBlock v:margins="rect(4,4,4,4)" v:tabSpace="42.5197"/>
			<v:textRect cx="9.16" cy="329.082" width="62.74" height="17.6036"/>
			<path d="M7.09 317.04 L7.09 342.54" class="st1"/>
			<rect v:rectContext="textBkgnd" x="-17.3027" y="324.282" width="52.9255" height="9.59985" class="st9"/>
			<text x="-17.3" y="331.48" class="st4" v:langID="1033"><v:paragraph v:horizAlign="1"/><v:tabList/>RTPlayer_Start()</text>		</g>
		<g id="shape178-37" v:mID="178" v:groupContext="shape" v:layerMember="0" transform="translate(278.188,-233.581)">
			<title>动态连接线.178</title>
			<desc>RTPlayer_PrepareAsync()</desc>
			<v:textBlock v:margins="rect(4,4,4,4)" v:tabSpace="42.5197"/>
			<v:textRect cx="-82.8769" cy="298.364" width="91.76" height="17.6036"/>
			<path d="M0 309.95 L-162.01 309.95" class="st1"/>
			<rect v:rectContext="textBkgnd" x="-123.847" y="293.565" width="81.941" height="9.59985" class="st3"/>
			<text x="-123.85" y="300.76" class="st4" v:langID="1033"><v:paragraph v:horizAlign="1"/><v:tabList/>RTPlayer_PrepareAsync<tspan
						class="st5" v:langID="2052">()</tspan></text>		</g>
		<g id="shape179-45" v:mID="179" v:groupContext="shape" v:layerMember="0" transform="translate(65.5134,-78.1781)">
			<title>动态连接线.179</title>
			<desc>RTPlayer_PrepareAsync()</desc>
			<v:textBlock v:margins="rect(4,4,4,4)" v:tabSpace="42.5197"/>
			<v:textRect cx="7.08661" cy="242.195" width="91.76" height="17.6036"/>
			<path d="M7.09 317.04 L7.09 174.39" class="st1"/>
			<rect v:rectContext="textBkgnd" x="-33.8838" y="237.395" width="81.941" height="9.59985" class="st3"/>
			<text x="-33.88" y="244.59" class="st4" v:langID="1033"><v:paragraph v:horizAlign="1"/><v:tabList/>RTPlayer_PrepareAsync<tspan
						class="st5" v:langID="2052">()</tspan></text>		</g>
		<g id="shape180-53" v:mID="180" v:groupContext="shape" transform="translate(278.188,-104.425)">
			<title>椭圆形.180</title>
			<desc>Started</desc>
			<v:userDefs>
				<v:ud v:nameU="visVersion" v:val="VT0(15):26"/>
			</v:userDefs>
			<v:textBlock v:margins="rect(4,4,4,4)" v:tabSpace="42.5197"/>
			<v:textRect cx="36.8504" cy="302.865" width="64.49" height="24.8031"/>
			<path d="M0 302.87 A36.8504 14.1732 0 1 1 73.7 302.87 A36.8504 14.1732 0 1 1 0 302.87 Z" class="st7"/>
			<text x="23.44" y="305.57" class="st8" v:langID="2052"><v:paragraph v:horizAlign="1"/><v:tabList/>Started</text>		</g>
		<g id="shape181-56" v:mID="181" v:groupContext="shape" transform="translate(35.7496,-49.8316)">
			<title>椭圆形.181</title>
			<desc>Stopped</desc>
			<v:userDefs>
				<v:ud v:nameU="visVersion" v:val="VT0(15):26"/>
			</v:userDefs>
			<v:textBlock v:margins="rect(4,4,4,4)" v:tabSpace="42.5197"/>
			<v:textRect cx="36.8504" cy="302.865" width="64.49" height="24.8031"/>
			<path d="M0 302.87 A36.8504 14.1732 0 1 1 73.7 302.87 A36.8504 14.1732 0 1 1 0 302.87 Z" class="st7"/>
			<text x="21.57" y="305.57" class="st8" v:langID="2052"><v:paragraph v:horizAlign="1"/><v:tabList/>Stopped</text>		</g>
		<g id="shape182-59" v:mID="182" v:groupContext="shape" transform="translate(452.58,-46.997)">
			<title>椭圆形.182</title>
			<desc>Paused</desc>
			<v:userDefs>
				<v:ud v:nameU="visVersion" v:val="VT0(15):26"/>
			</v:userDefs>
			<v:textBlock v:margins="rect(4,4,4,4)" v:tabSpace="42.5197"/>
			<v:textRect cx="36.8504" cy="302.865" width="64.49" height="24.8031"/>
			<path d="M0 302.87 A36.8504 14.1732 0 1 1 73.7 302.87 A36.8504 14.1732 0 1 1 0 302.87 Z" class="st7"/>
			<text x="23.64" y="305.57" class="st8" v:langID="2052"><v:paragraph v:horizAlign="1"/><v:tabList/>Paused</text>		</g>
		<g id="shape183-62" v:mID="183" v:groupContext="shape" transform="translate(278.188,-21.4852)">
			<title>椭圆形.183</title>
			<desc>Playback Completed</desc>
			<v:userDefs>
				<v:ud v:nameU="visVersion" v:val="VT0(15):26"/>
			</v:userDefs>
			<v:textBlock v:margins="rect(4,4,4,4)" v:tabSpace="42.5197"/>
			<v:textRect cx="36.8504" cy="302.865" width="64.49" height="24.8031"/>
			<path d="M0 302.87 A36.8504 14.1732 0 1 1 73.7 302.87 A36.8504 14.1732 0 1 1 0 302.87 Z" class="st7"/>
			<text x="20.83" y="300.17" class="st8" v:langID="2052"><v:paragraph v:horizAlign="1"/><v:tabList/>Playback <tspan
						x="16.74" dy="1.2em" class="st5">Completed</tspan></text>		</g>
		<g id="shape184-66" v:mID="184" v:groupContext="shape" transform="translate(529.78,-283.415)">
			<title>椭圆形.184</title>
			<desc>End</desc>
			<v:userDefs>
				<v:ud v:nameU="visVersion" v:val="VT0(15):26"/>
			</v:userDefs>
			<v:textBlock v:margins="rect(4,4,4,4)" v:tabSpace="42.5197"/>
			<v:textRect cx="21.6366" cy="302.865" width="37.87" height="24.8031"/>
			<path d="M0 302.87 A21.6366 14.1732 0 0 1 43.27 302.87 A21.6366 14.1732 0 0 1 -0 302.87 Z" class="st7"/>
			<text x="14.71" y="305.57" class="st8" v:langID="2052"><v:paragraph v:horizAlign="1"/><v:tabList/>End</text>		</g>
		<g id="shape185-69" v:mID="185" v:groupContext="shape" transform="translate(529.78,-241.445)">
			<title>椭圆形.185</title>
			<desc>Error</desc>
			<v:userDefs>
				<v:ud v:nameU="visVersion" v:val="VT0(15):26"/>
			</v:userDefs>
			<v:textBlock v:margins="rect(4,4,4,4)" v:tabSpace="42.5197"/>
			<v:textRect cx="21.6366" cy="302.865" width="37.87" height="24.8031"/>
			<path d="M0 302.87 A21.6366 14.1732 0 0 1 43.27 302.87 A21.6366 14.1732 0 0 1 -0 302.87 Z" class="st7"/>
			<text x="12.36" y="305.57" class="st8" v:langID="2052"><v:paragraph v:horizAlign="1"/><v:tabList/>Error</text>		</g>
		<g id="shape187-72" v:mID="187" v:groupContext="shape" transform="translate(35.7496,-227.866)">
			<title>椭圆形.187</title>
			<desc>Preparing</desc>
			<v:userDefs>
				<v:ud v:nameU="visVersion" v:val="VT0(15):26"/>
			</v:userDefs>
			<v:textBlock v:margins="rect(4,4,4,4)" v:tabSpace="42.5197"/>
			<v:textRect cx="36.8504" cy="302.865" width="64.49" height="24.8031"/>
			<path d="M0 302.87 A36.8504 14.1732 0 1 1 73.7 302.87 A36.8504 14.1732 0 1 1 0 302.87 Z" class="st7"/>
			<text x="19.11" y="305.57" class="st8" v:langID="2052"><v:paragraph v:horizAlign="1"/><v:tabList/>Preparing</text>		</g>
		<g id="shape194-75" v:mID="194" v:groupContext="shape" transform="translate(172.968,-221.619) rotate(14.0456)">
			<title>工作表.194</title>
			<desc>RTPlayerCallback.OnRTPlayerStateChanged (RTPLAYER_PREPARED)</desc>
			<v:textBlock v:margins="rect(4,4,4,4)" v:tabSpace="42.5197"/>
			<v:textRect cx="95.2978" cy="317.038" width="190.6" height="0"/>
			<path d="M0 317.04 L176.52 317.04" class="st10"/>
			<rect v:rectContext="textBkgnd" x="25.0425" y="309.038" width="140.51" height="15.9999" class="st3"/>
			<text x="25.04" y="315.04" class="st4" v:langID="1033"><v:paragraph v:spLine="-1" v:horizAlign="1"/><v:tabList/>RTPlayerCallback.OnRTPlayerStateChanged<v:newlineChar/><tspan
						x="57.46" dy="1em" class="st5">(</tspan>RTPLAYER_PREPARED)</text>		</g>
		<g id="shape196-84" v:mID="196" v:groupContext="shape" transform="translate(-54.1381,-48.8979) rotate(-24.7383)">
			<title>工作表.196</title>
			<desc>RTPlayer_Prepare()</desc>
			<v:textBlock v:margins="rect(4,4,4,4)" v:tabSpace="42.5197"/>
			<v:textRect cx="112.699" cy="317.038" width="225.4" height="0"/>
			<path d="M0 317.04 L218.36 317.04" class="st1"/>
			<rect v:rectContext="textBkgnd" x="81.2109" y="312.238" width="62.9764" height="9.59985" class="st3"/>
			<text x="81.21" y="319.44" class="st4" v:langID="1033"><v:paragraph v:horizAlign="1"/><v:tabList/>RTPlayer_Prepare()</text>		</g>
		<g id="shape199-91" v:mID="199" v:groupContext="shape" transform="translate(-36.1988,-45.9363) rotate(-24.68)">
			<title>工作表.199</title>
			<desc>RTPlayer_Stop</desc>
			<v:textBlock v:margins="rect(4,4,4,4)" v:tabSpace="42.5197"/>
			<v:textRect cx="110.461" cy="317.038" width="220.93" height="0"/>
			<path d="M6.68 317.04 L7.04 317.04 L220.92 317.04" class="st11"/>
			<rect v:rectContext="textBkgnd" x="86.8631" y="312.238" width="47.1951" height="9.59985" class="st9"/>
			<text x="86.86" y="319.44" class="st4" v:langID="1033"><v:paragraph v:horizAlign="1"/><v:tabList/>RTPlayer_Stop</text>		</g>
		<g id="shape200-99" v:mID="200" v:groupContext="shape" transform="translate(-269.802,282.741) rotate(-93.5541)">
			<title>工作表.200</title>
			<path d="M-0 317.04 A87.3045 13.697 97.94 0 1 19.36 310 L19.37 310.36" class="st12"/>
		</g>
		<g id="shape206-105" v:mID="206" v:groupContext="shape" transform="translate(144.726,-58.698) rotate(6.56443)">
			<title>工作表.206</title>
			<desc>RTPlayer_Stop()</desc>
			<v:textBlock v:margins="rect(4,4,4,4)" v:tabSpace="42.5197"/>
			<v:textRect cx="86.7501" cy="317.038" width="173.51" height="0"/>
			<path d="M6.68 317.04 L7.04 317.04 L173.5 317.04" class="st11"/>
			<rect v:rectContext="textBkgnd" x="60.7269" y="312.238" width="52.0466" height="9.59985" class="st9"/>
			<text x="60.73" y="319.44" class="st4" v:langID="1033"><v:paragraph v:horizAlign="1"/><v:tabList/>RTPlayer_Stop<tspan
						class="st5" v:langID="2052">()</tspan></text>		</g>
		<g id="shape208-113" v:mID="208" v:groupContext="shape" transform="translate(376.136,-14.3986)">
			<title>工作表.208</title>
			<desc>RTPlayer_Stop()</desc>
			<v:textBlock v:margins="rect(4,4,4,4)" v:tabSpace="42.5197"/>
			<v:textRect cx="41.0112" cy="310.259" width="82.03" height="13.5595"/>
			<rect x="0" y="303.479" width="82.0225" height="13.5595" class="st6"/>
			<text x="14.99" y="312.66" class="st4" v:langID="1033"><v:paragraph v:horizAlign="1"/><v:tabList/>RTPlayer_Stop<tspan
						class="st5" v:langID="2052">()</tspan></text>		</g>
		<g id="shape209-117" v:mID="209" v:groupContext="shape" transform="translate(18.6572,-56.236) rotate(-16.2216)">
			<title>工作表.209</title>
			<desc>RTPlayer_Stop()</desc>
			<v:textBlock v:margins="rect(4,4,4,4)" v:tabSpace="42.5197"/>
			<v:textRect cx="89.027" cy="317.038" width="178.06" height="0"/>
			<path d="M6.68 317.04 L7.04 317.04 L178.05 317.04" class="st11"/>
			<rect v:rectContext="textBkgnd" x="63.0038" y="312.238" width="52.0466" height="9.59985" class="st3"/>
			<text x="63" y="319.44" class="st4" v:langID="1033"><v:paragraph v:horizAlign="1"/><v:tabList/>RTPlayer_Stop<tspan
						class="st5" v:langID="2052">()</tspan></text>		</g>
		<g id="shape210-125" v:mID="210" v:groupContext="shape" transform="translate(444.975,-96.2697) rotate(17.9546)">
			<title>工作表.210</title>
			<desc>RTPlayer_Start()</desc>
			<v:textBlock v:margins="rect(4,4,4,4)" v:tabSpace="42.5197"/>
			<v:textRect cx="63.3629" cy="317.038" width="126.73" height="0"/>
			<path d="M6.68 317.04 L7.04 317.04 L126.73 317.04" class="st11"/>
			<rect v:rectContext="textBkgnd" x="36.9003" y="312.238" width="52.9255" height="9.59985" class="st3"/>
			<text x="36.9" y="319.44" class="st4" v:langID="1033"><v:paragraph v:horizAlign="1"/><v:tabList/>RTPlayer_<tspan
						class="st5" v:langID="2052">Start</tspan><tspan class="st5" v:langID="2052">()</tspan></text>		</g>
		<g id="shape211-134" v:mID="211" v:groupContext="shape" transform="translate(430.543,-90.8321) rotate(17.9229)">
			<title>工作表.211</title>
			<desc>RTPlayer_Pause()</desc>
			<v:textBlock v:margins="rect(4,4,4,4)" v:tabSpace="42.5197"/>
			<v:textRect cx="64.339" cy="317.038" width="128.68" height="0"/>
			<path d="M0 317.04 L121.64 317.04" class="st1"/>
			<rect v:rectContext="textBkgnd" x="36.0656" y="312.238" width="56.5466" height="9.59985" class="st3"/>
			<text x="36.07" y="319.44" class="st4" v:langID="1033"><v:paragraph v:horizAlign="1"/><v:tabList/>RTPlayer_<tspan
						class="st5" v:langID="2052">Pause</tspan><tspan class="st5" v:langID="2052">()</tspan></text>		</g>
		<g id="shape212-143" v:mID="212" v:groupContext="shape" transform="translate(795.557,112.978) rotate(65.7251)">
			<title>工作表.212</title>
			<path d="M2.53 310.86 L2.67 310.52 A83.3497 16.8182 100.49 0 1 24.3 317.04" class="st11"/>
		</g>
		<g id="shape213-148" v:mID="213" v:groupContext="shape" transform="translate(529.893,-46.997)">
			<title>工作表.213</title>
			<desc>RTPlayer_Pause()</desc>
			<v:textBlock v:margins="rect(4,4,4,4)" v:tabSpace="42.5197"/>
			<v:textRect cx="33.0549" cy="311.084" width="66.11" height="11.9082"/>
			<rect x="0" y="305.13" width="66.1098" height="11.9082" class="st6"/>
			<text x="4.78" y="313.48" class="st4" v:langID="1033"><v:paragraph v:horizAlign="1"/><v:tabList/>RTPlayer<tspan
						class="st5" v:langID="2052">_</tspan><tspan class="st5" v:langID="2052">Pause</tspan><tspan class="st5"
						v:langID="2052">()</tspan></text>		</g>
		<g id="shape215-154" v:mID="215" v:groupContext="shape" transform="translate(496.176,-84.9253) rotate(31.4089)">
			<title>工作表.215</title>
			<path d="M3.04 311.09 L3.21 310.77 A68.815 16.8289 103.14 0 1 24.53 317.04" class="st11"/>
		</g>
		<g id="shape216-159" v:mID="216" v:groupContext="shape" transform="translate(353.368,-134.871)">
			<title>工作表.216</title>
			<desc>RTPlayer_Start()</desc>
			<v:textBlock v:margins="rect(4,4,4,4)" v:tabSpace="42.5197"/>
			<v:textRect cx="31.2833" cy="312.393" width="62.57" height="9.2902"/>
			<rect x="0" y="307.748" width="62.5667" height="9.2902" class="st6"/>
			<text x="4.82" y="314.79" class="st4" v:langID="1033"><v:paragraph v:horizAlign="1"/><v:tabList/>RTPlayer<tspan
						class="st5" v:langID="2052">_</tspan><tspan class="st5" v:langID="2052">Start</tspan><tspan class="st5"
						v:langID="2052">()</tspan></text>		</g>
		<g id="shape218-165" v:mID="218" v:groupContext="shape" v:layerMember="0" transform="translate(410.061,-304.675)">
			<title>动态连接线</title>
			<desc>RTPlayer_Destory()</desc>
			<v:textBlock v:margins="rect(4,4,4,4)" v:tabSpace="42.5197"/>
			<v:textRect cx="56.2677" cy="316.763" width="72.43" height="17.6036"/>
			<path d="M0 324.12 L112.68 324.12" class="st1"/>
			<rect v:rectContext="textBkgnd" x="24.9632" y="311.964" width="62.6092" height="9.59985" class="st3"/>
			<text x="24.96" y="319.16" class="st4" v:langID="1033"><v:paragraph v:horizAlign="1"/><v:tabList/>RTPlayer_Destory()</text>		</g>
		<g id="shape221-172" v:mID="221" v:groupContext="shape" v:layerMember="0" transform="translate(412.33,-248.532)">
			<title>动态连接线.221</title>
			<desc>RTPlayerCallback.OnRTPlayerError()</desc>
			<v:textBlock v:margins="rect(4,4,4,4)" v:tabSpace="42.5197"/>
			<v:textRect cx="55.1327" cy="301.439" width="126.37" height="17.6036"/>
			<path d="M0 309.95 L103.37 309.95" class="st10"/>
			<rect v:rectContext="textBkgnd" x="-3.14434" y="296.639" width="116.554" height="9.59985" class="st3"/>
			<text x="-3.14" y="303.84" class="st4" v:langID="1033"><v:paragraph v:horizAlign="1"/><v:tabList/>RTPlayerCallback<tspan
						class="st5" v:langID="2052">.</tspan>OnRTPlayerError<tspan class="st5" v:langID="2052">()</tspan></text>		</g>
		<g id="shape224-181" v:mID="224" v:groupContext="shape" transform="translate(618.944,286.998) rotate(103.587)">
			<title>工作表.224</title>
			<path d="M0 317.04 L44.02 317.04" class="st10"/>
		</g>
		<g id="shape226-186" v:mID="226" v:groupContext="shape" transform="translate(184.757,-60.6889)">
			<title>工作表.226</title>
			<desc>RTPlayerCallback.OnRTPlayerStateChanged(RTPLAYER_PLAYBACK_COM...</desc>
			<v:textBlock v:margins="rect(4,4,4,4)" v:tabSpace="42.5197"/>
			<v:textRect cx="59.4765" cy="305.218" width="118.96" height="23.6399"/>
			<rect x="0" y="293.398" width="118.953" height="23.6399" class="st6"/>
			<text x="5.44" y="299.22" class="st4" v:langID="1033"><v:paragraph v:spLine="-1" v:horizAlign="1"/><v:tabList/>RTPlayerCallback.OnRTPlayerStat<tspan
						x="5.09" dy="1em" class="st5">eChanged</tspan>(RTPLAYER_PLAYBACK_<tspan x="40.46" dy="1em" class="st5">COMPLETE</tspan>)</text>		</g>
		<g id="shape228-191" v:mID="228" v:groupContext="shape" transform="translate(15.3265,309.275) rotate(-97.4113)">
			<title>工作表.228</title>
			<path d="M0 317.04 L48.61 317.04" class="st13"/>
		</g>
		<g id="shape229-197" v:mID="229" v:groupContext="shape" transform="translate(321.904,-72.758)">
			<title>工作表.229</title>
			<desc>RTPlayer_Start</desc>
			<v:textBlock v:margins="rect(4,4,4,4)" v:tabSpace="42.5197"/>
			<v:textRect cx="29.9051" cy="312.393" width="59.82" height="9.2902"/>
			<rect x="0" y="307.748" width="59.8102" height="9.2902" class="st6"/>
			<text x="5.87" y="314.79" class="st4" v:langID="1033"><v:paragraph v:horizAlign="1"/><v:tabList/>RTPlayer<tspan
						class="st5" v:langID="2052">_</tspan><tspan class="st5" v:langID="2052">Start</tspan></text>		</g>
		<g id="shape232-202" v:mID="232" v:groupContext="shape" transform="translate(88.3285,-7.31194)">
			<title>工作表.232</title>
			<path d="M406.77 276.76 A150.546 40.2804 0 0 1 256.23 317.04 A256.226 44.6482 0 0 1 2.39 278.48 L2.26 278.14"
					class="st14"/>
		</g>
	</g>
</svg>
