<?xml version="1.0" encoding="UTF-8" standalone="no"?>
<!DOCTYPE svg PUBLIC "-//W3C//DTD SVG 1.1//EN" "http://www.w3.org/Graphics/SVG/1.1/DTD/svg11.dtd">
<!-- 由 Microsoft Visio, SVG Export 生成 architecture_of_wi_fi_driver.svg 页-1 -->
<svg xmlns="http://www.w3.org/2000/svg" xmlns:xlink="http://www.w3.org/1999/xlink" xmlns:ev="http://www.w3.org/2001/xml-events"
		xmlns:v="http://schemas.microsoft.com/visio/2003/SVGExtensions/" width="3.57937in" height="5.07472in"
		viewBox="0 0 257.714 365.38" xml:space="preserve" color-interpolation-filters="sRGB" class="st11">
	<v:documentProperties v:langID="2052" v:metric="true" v:viewMarkup="false"/>

	<style type="text/css">
	<![CDATA[
		.st1 {fill:none;stroke:#000000;stroke-linecap:round;stroke-linejoin:round;stroke-width:0.75}
		.st2 {fill:#000000;font-family:Calibri;font-size:0.833336em}
		.st3 {fill:#a5a5a5;stroke:#000000;stroke-linecap:round;stroke-linejoin:round;stroke-width:0.75}
		.st4 {fill:#000000;font-family:Calibri;font-size:0.75em}
		.st5 {fill:#d8d8d8;stroke:#000000;stroke-linecap:round;stroke-linejoin:round;stroke-width:0.75}
		.st6 {fill:#bfbfbf;stroke:#000000;stroke-linecap:round;stroke-linejoin:round;stroke-width:0.75}
		.st7 {fill:#7f7f7f;stroke:#000000;stroke-linecap:round;stroke-linejoin:round;stroke-width:0.75}
		.st8 {font-size:1em}
		.st9 {fill:#ffffff;stroke:none;stroke-linecap:round;stroke-linejoin:round;stroke-width:0.75}
		.st10 {fill:#f2f2f2;stroke:#000000;stroke-linecap:round;stroke-linejoin:round;stroke-width:0.75}
		.st11 {fill:none;fill-rule:evenodd;font-size:12px;overflow:visible;stroke-linecap:square;stroke-miterlimit:3}
	]]>
	</style>

	<g v:mID="0" v:index="1" v:groupContext="foregroundPage">
		<title>页-1</title>
		<v:pageProperties v:drawingScale="0.0393701" v:pageScale="0.0393701" v:drawingUnits="24" v:shadowOffsetX="4.25197"
				v:shadowOffsetY="-4.25197"/>
		<g id="shape3-1" v:mID="3" v:groupContext="shape" transform="translate(1.69783,-187.84)">
			<title>工作表.3</title>
			<desc>Kernel on CA32</desc>
			<v:textBlock v:margins="rect(4,4,4,4)" v:tabSpace="42.5197"/>
			<v:textRect cx="127.37" cy="306.938" width="254.75" height="116.885"/>
			<rect x="0" y="248.495" width="254.74" height="116.885" class="st1"/>
			<text x="96.13" y="261.94" class="st2" v:langID="2052"><v:paragraph v:horizAlign="1"/><v:tabList/><v:newlineChar/><v:newlineChar/>Kernel on CA32<v:newlineChar/><v:newlineChar/><v:newlineChar/><v:newlineChar/><v:newlineChar/><v:newlineChar/><v:newlineChar/><v:newlineChar/><v:newlineChar/><v:newlineChar/></text>		</g>
		<g id="shape5-4" v:mID="5" v:groupContext="shape" transform="translate(1.69783,-263.65)">
			<title>工作表.5</title>
			<desc>CFG80211</desc>
			<v:textBlock v:margins="rect(4,4,4,4)" v:tabSpace="42.5197"/>
			<v:textRect cx="61.1811" cy="354.826" width="122.37" height="21.1076"/>
			<rect x="0" y="344.272" width="122.362" height="21.1076" class="st3"/>
			<text x="42.47" y="357.53" class="st4" v:langID="2052"><v:paragraph v:horizAlign="1"/><v:tabList/>CFG80211</text>		</g>
		<g id="shape6-7" v:mID="6" v:groupContext="shape" transform="translate(1.69783,-187.84)">
			<title>工作表.6</title>
			<desc>FullMAC Driver</desc>
			<v:textBlock v:margins="rect(4,4,4,4)" v:tabSpace="42.5197"/>
			<v:textRect cx="127.346" cy="336.053" width="254.7" height="58.6535"/>
			<rect x="0" y="306.726" width="254.693" height="58.6535" class="st5"/>
			<text x="96.71" y="339.05" class="st2" v:langID="2052"><v:paragraph v:horizAlign="1"/><v:tabList/>FullMAC Driver</text>		</g>
		<g id="shape7-10" v:mID="7" v:groupContext="shape" transform="translate(1.69783,-228.217)">
			<title>工作表.7</title>
			<desc>cfg80211_ops</desc>
			<v:textBlock v:margins="rect(4,4,4,4)" v:tabSpace="42.5197"/>
			<v:textRect cx="61.3228" cy="356.242" width="122.65" height="18.276"/>
			<rect x="0" y="347.104" width="122.646" height="18.276" class="st6"/>
			<text x="35.79" y="358.94" class="st4" v:langID="1033"><v:paragraph v:horizAlign="1"/><v:tabList/>cfg80211_ops</text>		</g>
		<g id="shape8-13" v:mID="8" v:groupContext="shape" transform="translate(156.658,-228.217)">
			<title>工作表.8</title>
			<desc>net_device_ops</desc>
			<v:textBlock v:margins="rect(4,4,4,4)" v:tabSpace="42.5197"/>
			<v:textRect cx="49.8661" cy="356.242" width="99.74" height="18.276"/>
			<rect x="0" y="347.104" width="99.7323" height="18.276" class="st6"/>
			<text x="20.97" y="358.94" class="st4" v:langID="1033"><v:paragraph v:horizAlign="1"/><v:tabList/>net_device_ops</text>		</g>
		<g id="shape9-16" v:mID="9" v:groupContext="shape" transform="translate(156.658,-263.774)">
			<title>工作表.9</title>
			<desc>netdevice</desc>
			<v:textBlock v:margins="rect(4,4,4,4)" v:tabSpace="42.5197"/>
			<v:textRect cx="49.8661" cy="354.826" width="99.74" height="21.1076"/>
			<rect x="0" y="344.272" width="99.7323" height="21.1076" class="st6"/>
			<text x="31.95" y="357.53" class="st4" v:langID="1033"><v:paragraph v:horizAlign="1"/><v:tabList/>netdevice</text>		</g>
		<g id="shape11-19" v:mID="11" v:groupContext="shape" transform="translate(-297.475,118.378) rotate(-89.9679)">
			<title>一维双向箭头</title>
			<v:userDefs>
				<v:ud v:nameU="visVersion" v:val="VT0(15):26"/>
			</v:userDefs>
			<path d="M2.52 357.83 L2.52 355.31 L0 360.34 L2.52 365.38 L2.52 362.86 L14.33 362.86 L14.33 365.38 L16.85 360.34 L14.33
						 355.31 L14.33 357.83 L2.52 357.83 Z" class="st1"/>
		</g>
		<g id="shape12-21" v:mID="12" v:groupContext="shape" transform="translate(-153.82,118.887) rotate(-90)">
			<title>一维双向箭头.12</title>
			<v:userDefs>
				<v:ud v:nameU="visVersion" v:val="VT0(15):26"/>
			</v:userDefs>
			<path d="M2.52 357.83 L2.52 355.31 L0 360.34 L2.52 365.38 L2.52 362.86 L14.76 362.86 L14.76 365.38 L17.28 360.34 L14.76
						 355.31 L14.76 357.83 L2.52 357.83 Z" class="st1"/>
		</g>
		<g id="shape17-23" v:mID="17" v:groupContext="shape" transform="translate(2.07579,-326.649)">
			<title>工作表.17</title>
			<desc>Application on CA32 wpa_supplicant, hostapd, iw tools...</desc>
			<v:textBlock v:margins="rect(4,4,4,4)" v:tabSpace="42.5197"/>
			<v:textRect cx="127.37" cy="346.202" width="254.75" height="38.3563"/>
			<rect x="0" y="327.024" width="254.74" height="38.3563" class="st7"/>
			<text x="90.3" y="343.5" class="st4" v:langID="2052"><v:paragraph v:horizAlign="1"/><v:tabList/>Application on CA32<v:newlineChar/><tspan
						x="61.65" dy="1.2em" class="st8">wpa</tspan>_supplicant, hostapd, iw tools...</text>		</g>
		<g id="shape18-27" v:mID="18" v:groupContext="shape" transform="translate(489.787,37.1231) rotate(89.7443)">
			<title>一维双向箭头.34</title>
			<v:userDefs>
				<v:ud v:nameU="visVersion" v:val="VT0(15):26"/>
			</v:userDefs>
			<path d="M2.52 357.83 L2.52 355.31 L0 360.34 L2.52 365.38 L2.52 362.86 L18.65 362.86 L18.65 365.38 L21.17 360.34 L18.65
						 355.31 L18.65 357.83 L2.52 357.83 Z" class="st1"/>
		</g>
		<g id="shape19-29" v:mID="19" v:groupContext="shape" transform="translate(1.69783,-187.959)">
			<title>工作表.19</title>
			<desc>IPC INIC Host</desc>
			<v:textBlock v:margins="rect(4,4,4,4)" v:tabSpace="42.5197"/>
			<v:textRect cx="127.346" cy="356.242" width="254.7" height="18.276"/>
			<rect x="0" y="347.104" width="254.693" height="18.276" class="st6"/>
			<text x="103.44" y="358.94" class="st4" v:langID="2052"><v:paragraph v:horizAlign="1"/><v:tabList/>IPC INIC Host</text>		</g>
		<g id="shape108-32" v:mID="108" v:groupContext="shape" transform="translate(0.375,-0.375)">
			<title>工作表.108</title>
			<desc>Wi-Fi HW</desc>
			<v:textBlock v:margins="rect(4,4,4,4)" v:tabSpace="42.5197"/>
			<v:textRect cx="82.063" cy="340.577" width="164.13" height="49.6063"/>
			<rect x="0" y="315.774" width="164.126" height="49.6063" class="st1"/>
			<text x="64.72" y="327.08" class="st4" v:langID="2052"><v:paragraph v:horizAlign="1"/><v:tabList/>Wi-Fi HW<v:newlineChar/><v:newlineChar/><v:newlineChar/></text>		</g>
		<g id="shape109-35" v:mID="109" v:groupContext="shape" transform="translate(2.50099,-111.943)">
			<title>工作表.109</title>
			<rect x="0" y="347.104" width="74.4094" height="18.276" class="st9"/>
		</g>
		<g id="shape110-37" v:mID="110" v:groupContext="shape" transform="translate(2.14666,-111.768)">
			<title>工作表.110</title>
			<desc>Wi-Fi Driver on KM4</desc>
			<v:textBlock v:margins="rect(4,4,4,4)" v:tabSpace="42.5197"/>
			<v:textRect cx="127.559" cy="335.328" width="255.12" height="60.1034"/>
			<rect x="0" y="305.277" width="255.118" height="60.1034" class="st1"/>
			<text x="86.47" y="338.33" class="st2" v:langID="2052"><v:paragraph v:horizAlign="1"/><v:tabList/>Wi-Fi Driver on KM4</text>		</g>
		<g id="shape111-40" v:mID="111" v:groupContext="shape" transform="translate(2.22125,-154.237)">
			<title>工作表.111</title>
			<desc>IPC INIC Device</desc>
			<v:textBlock v:margins="rect(4,4,4,4)" v:tabSpace="42.5197"/>
			<v:textRect cx="127.559" cy="356.384" width="255.12" height="17.9925"/>
			<rect x="0" y="347.387" width="255.118" height="17.9925" class="st1"/>
			<text x="99.88" y="359.08" class="st4" v:langID="2052"><v:paragraph v:horizAlign="1"/><v:tabList/>IPC INIC Device</text>		</g>
		<g id="shape113-43" v:mID="113" v:groupContext="shape" transform="translate(91.5089,-112.087)">
			<title>工作表.113</title>
			<desc>axi_driver</desc>
			<v:textBlock v:margins="rect(4,4,4,4)" v:tabSpace="42.5197"/>
			<v:textRect cx="30.3839" cy="356.242" width="60.77" height="18.276"/>
			<rect x="0" y="347.104" width="60.7677" height="18.276" class="st1"/>
			<text x="12.2" y="358.94" class="st4" v:langID="2052"><v:paragraph v:horizAlign="1"/><v:tabList/>axi<tspan class="st8"
						v:langID="1033">_</tspan><tspan class="st8" v:langID="1033">driver </tspan> </text>		</g>
		<g id="shape114-48" v:mID="114" v:groupContext="shape" transform="translate(83.4099,-60.6585)">
			<title>工作表.114</title>
			<desc>AXI bus</desc>
			<v:textBlock v:margins="rect(4,4,4,4)" v:tabSpace="42.5197"/>
			<v:textRect cx="37.2047" cy="352.699" width="74.41" height="25.3626"/>
			<rect x="0" y="340.017" width="74.4094" height="25.3626" class="st1"/>
			<text x="23.63" y="355.4" class="st4" v:langID="2052"><v:paragraph v:horizAlign="1"/><v:tabList/>AXI bus</text>		</g>
		<g id="shape115-51" v:mID="115" v:groupContext="shape" transform="translate(5.55051,-8.46746)">
			<title>工作表.115</title>
			<desc>MAC/BB/RF</desc>
			<v:textBlock v:margins="rect(4,4,4,4)" v:tabSpace="42.5197"/>
			<v:textRect cx="33.6614" cy="352.699" width="67.33" height="25.3626"/>
			<rect x="0" y="340.017" width="67.3228" height="25.3626" class="st10"/>
			<text x="11.93" y="355.4" class="st4" v:langID="2052"><v:paragraph v:horizAlign="1"/><v:tabList/>MAC/BB/RF</text>		</g>
		<g id="shape116-54" v:mID="116" v:groupContext="shape" transform="translate(-238.59,278.954) rotate(-90)">
			<title>1-D double.116</title>
			<v:userDefs>
				<v:ud v:nameU="visVersion" v:val="VT0(15):26"/>
			</v:userDefs>
			<path d="M2.52 357.83 L2.52 355.31 L0 360.34 L2.52 365.38 L2.52 362.86 L22.02 362.86 L22.02 365.38 L24.54 360.34 L22.02
						 355.31 L22.02 357.83 L2.52 357.83 Z" class="st1"/>
		</g>
		<g id="shape117-56" v:mID="117" v:groupContext="shape" transform="translate(-238.023,314.973) rotate(-90)">
			<title>一维双向箭头.117</title>
			<v:userDefs>
				<v:ud v:nameU="visVersion" v:val="VT0(15):26"/>
			</v:userDefs>
			<path d="M2.52 357.83 L2.52 355.31 L0 360.34 L2.52 365.38 L2.52 362.86 L7.84 362.86 L7.84 365.38 L10.36 360.34 L7.84
						 355.31 L7.84 357.83 L2.52 357.83 Z" class="st1"/>
		</g>
		<g id="shape118-58" v:mID="118" v:groupContext="shape" transform="translate(169.228,-111.768)">
			<title>工作表.118</title>
			<desc>Ameba_ipc_driver</desc>
			<v:textBlock v:margins="rect(4,4,4,4)" v:tabSpace="42.5197"/>
			<v:textRect cx="40.3966" cy="356.242" width="80.8" height="18.276"/>
			<rect x="0" y="347.104" width="80.7931" height="18.276" class="st1"/>
			<text x="6.85" y="358.94" class="st4" v:langID="2052"><v:paragraph v:horizAlign="1"/><v:tabList/>Ameba_ipc<tspan
						class="st8" v:langID="1033">_</tspan><tspan class="st8" v:langID="1033">driver </tspan> </text>		</g>
		<g id="shape119-63" v:mID="119" v:groupContext="shape" transform="translate(83.4099,-9.02813)">
			<title>工作表.119</title>
			<desc>TRX Buffer</desc>
			<v:textBlock v:margins="rect(4,4,4,4)" v:tabSpace="42.5197"/>
			<v:textRect cx="37.2047" cy="352.699" width="74.41" height="25.3626"/>
			<rect x="0" y="340.017" width="74.4094" height="25.3626" class="st10"/>
			<text x="17.85" y="355.4" class="st4" v:langID="2052"><v:paragraph v:horizAlign="1"/><v:tabList/>TRX Buffer</text>		</g>
		<g id="shape120-66" v:mID="120" v:groupContext="shape" transform="translate(2.14666,-111.834)">
			<title>工作表.120</title>
			<desc>Reg_access</desc>
			<v:textBlock v:margins="rect(4,4,4,4)" v:tabSpace="42.5197"/>
			<v:textRect cx="34.6738" cy="356.242" width="69.35" height="18.276"/>
			<rect x="0" y="347.104" width="69.3476" height="18.276" class="st1"/>
			<text x="13.91" y="358.94" class="st4" v:langID="2052"><v:paragraph v:horizAlign="1"/><v:tabList/>Reg_access</text>		</g>
		<g id="shape121-69" v:mID="121" v:groupContext="shape" transform="translate(180.197,-9.02813)">
			<title>工作表.121</title>
			<desc>FW on KM0</desc>
			<v:textBlock v:margins="rect(4,4,4,4)" v:tabSpace="42.5197"/>
			<v:textRect cx="33.0419" cy="352.699" width="66.09" height="25.3626"/>
			<rect x="0" y="340.017" width="66.0838" height="25.3626" class="st1"/>
			<text x="11.73" y="355.4" class="st4" v:langID="2052"><v:paragraph v:horizAlign="1"/><v:tabList/>FW on KM0</text>		</g>
		<g id="shape122-72" v:mID="122" v:groupContext="shape" transform="translate(179.079,-60.6585)">
			<title>工作表.122</title>
			<desc>IPC HW</desc>
			<v:textBlock v:margins="rect(4,4,4,4)" v:tabSpace="42.5197"/>
			<v:textRect cx="32.8009" cy="352.699" width="65.61" height="25.3626"/>
			<rect x="0" y="340.017" width="65.6018" height="25.3626" class="st1"/>
			<text x="19.12" y="355.4" class="st4" v:langID="2052"><v:paragraph v:horizAlign="1"/><v:tabList/>IPC HW</text>		</g>
		<g id="shape123-75" v:mID="123" v:groupContext="shape" transform="translate(-147.655,278.954) rotate(-90)">
			<title>一维双向箭头.123</title>
			<v:userDefs>
				<v:ud v:nameU="visVersion" v:val="VT0(15):26"/>
			</v:userDefs>
			<path d="M2.52 357.83 L2.52 355.31 L0 360.34 L2.52 365.38 L2.52 362.86 L22.14 362.86 L22.14 365.38 L24.66 360.34 L22.14
						 355.31 L22.14 357.83 L2.52 357.83 Z" class="st1"/>
		</g>
		<g id="shape124-77" v:mID="124" v:groupContext="shape" transform="translate(-147.106,330.852) rotate(-90)">
			<title>一维双向箭头.124</title>
			<v:userDefs>
				<v:ud v:nameU="visVersion" v:val="VT0(15):26"/>
			</v:userDefs>
			<path d="M2.52 357.83 L2.52 355.31 L0 360.34 L2.52 365.38 L2.52 362.86 L23.27 362.86 L23.27 365.38 L25.79 360.34 L23.27
						 355.31 L23.27 357.83 L2.52 357.83 Z" class="st1"/>
		</g>
		<g id="shape125-79" v:mID="125" v:groupContext="shape" transform="translate(-321.148,315.506) rotate(-90)">
			<title>一维双向箭头.125</title>
			<v:userDefs>
				<v:ud v:nameU="visVersion" v:val="VT0(15):26"/>
			</v:userDefs>
			<path d="M2.52 357.83 L2.52 355.31 L0 360.34 L2.52 365.38 L2.52 362.86 L58.95 362.86 L58.95 365.38 L61.47 360.34 L58.95
						 355.31 L58.95 357.83 L2.52 357.83 Z" class="st1"/>
		</g>
		<g id="shape126-81" v:mID="126" v:groupContext="shape" transform="translate(167.825,-15.3087) rotate(0.528544)">
			<title>一维双向箭头.126</title>
			<v:userDefs>
				<v:ud v:nameU="visVersion" v:val="VT0(15):26"/>
			</v:userDefs>
			<path d="M2.52 357.83 L2.52 355.31 L0 360.34 L2.52 365.38 L2.52 362.86 L12.85 362.86 L12.85 365.38 L15.36 360.34 L12.85
						 355.31 L12.85 357.83 L2.52 357.83 Z" class="st1"/>
		</g>
		<g id="shape129-83" v:mID="129" v:groupContext="shape" transform="translate(-227.544,192.507) rotate(-90)">
			<title>一维双向箭头.129</title>
			<v:userDefs>
				<v:ud v:nameU="visVersion" v:val="VT0(15):26"/>
			</v:userDefs>
			<path d="M2.52 357.83 L2.52 355.31 L0 360.34 L2.52 365.38 L2.52 362.86 L12.45 362.86 L12.45 365.38 L14.97 360.34 L12.45
						 355.31 L12.45 357.83 L2.52 357.83 Z" class="st1"/>
		</g>
	</g>
</svg>
