<?xml version="1.0" encoding="UTF-8" standalone="no"?>
<!DOCTYPE svg PUBLIC "-//W3C//DTD SVG 1.1//EN" "http://www.w3.org/Graphics/SVG/1.1/DTD/svg11.dtd">
<!-- 由 Microsoft Visio, SVG Export 生成 pad_diagram.svg 页-1 -->
<svg xmlns="http://www.w3.org/2000/svg" xmlns:xlink="http://www.w3.org/1999/xlink" xmlns:ev="http://www.w3.org/2001/xml-events"
		xmlns:v="http://schemas.microsoft.com/visio/2003/SVGExtensions/" width="3.41593in" height="2.12656in"
		viewBox="0 0 245.947 153.112" xml:space="preserve" color-interpolation-filters="sRGB" class="st9">
	<v:documentProperties v:langID="2052" v:metric="true" v:viewMarkup="false"/>

	<style type="text/css">
	<![CDATA[
		.st1 {stroke:#000000;stroke-linecap:round;stroke-linejoin:round;stroke-width:0.75}
		.st2 {marker-start:url(#mrkr4-39);stroke:#000000;stroke-linecap:round;stroke-linejoin:round;stroke-width:0.75}
		.st3 {fill:#000000;fill-opacity:1;stroke:#000000;stroke-opacity:1;stroke-width:0.15923566878981}
		.st4 {fill:none;stroke:none;stroke-linecap:round;stroke-linejoin:round;stroke-width:0.75}
		.st5 {fill:#000000;font-family:Calibri;font-size:0.666664em}
		.st6 {marker-end:url(#mrkr1-99);stroke:#000000;stroke-linecap:round;stroke-linejoin:round;stroke-width:0.75}
		.st7 {fill:#000000;fill-opacity:1;stroke:#000000;stroke-opacity:1;stroke-width:0.22935779816514}
		.st8 {fill:#000000;stroke:#000000;stroke-linecap:round;stroke-linejoin:round;stroke-width:0.75}
		.st9 {fill:none;fill-rule:evenodd;font-size:12px;overflow:visible;stroke-linecap:square;stroke-miterlimit:3}
	]]>
	</style>

	<defs id="Markers">
		<g id="lend4">
			<path d="M 2 1 L 0 0 L 2 -1 L 2 1 " style="stroke:none"/>
		</g>
		<marker id="mrkr4-39" class="st3" v:arrowType="4" v:arrowSize="4" v:setback="12.08" refX="12.08" orient="auto"
				markerUnits="strokeWidth" overflow="visible">
			<use xlink:href="#lend4" transform="scale(6.28) "/>
		</marker>
		<g id="lend1">
			<path d="M 1 -1 L 0 0 L 1 1 " style="stroke-linecap:round;stroke-linejoin:round;fill:none"/>
		</g>
		<marker id="mrkr1-99" class="st7" v:arrowType="1" v:arrowSize="2" orient="auto" markerUnits="strokeWidth"
				overflow="visible">
			<use xlink:href="#lend1" transform="scale(-4.36,-4.36) "/>
		</marker>
	</defs>
	<g v:mID="0" v:index="1" v:groupContext="foregroundPage">
		<title>页-1</title>
		<v:pageProperties v:drawingScale="0.0393701" v:pageScale="0.0393701" v:drawingUnits="24" v:shadowOffsetX="8.50394"
				v:shadowOffsetY="-8.50394"/>
		<g id="shape1-1" v:mID="1" v:groupContext="shape" transform="translate(65.5719,-140.69)">
			<title>工作表.1</title>
			<path d="M0 153.11 L25.51 153.11" class="st1"/>
		</g>
		<g id="shape2-4" v:mID="2" v:groupContext="shape" transform="translate(156.281,-142.816)">
			<title>工作表.2</title>
			<path d="M0 153.11 L25.51 153.11" class="st1"/>
		</g>
		<g id="shape3-7" v:mID="3" v:groupContext="shape" transform="translate(44.5145,-101.536)">
			<title>工作表.3</title>
			<path d="M0 153.11 L16.93 153.11" class="st1"/>
		</g>
		<g id="shape4-10" v:mID="4" v:groupContext="shape" transform="translate(44.5145,-51.6011)">
			<title>工作表.4</title>
			<path d="M0 153.11 L16.93 153.11" class="st1"/>
		</g>
		<g id="shape5-13" v:mID="5" v:groupContext="shape" transform="translate(156.281,-56.2175)">
			<title>工作表.5</title>
			<path d="M0 153.11 L25.51 153.11" class="st1"/>
		</g>
		<g id="shape6-16" v:mID="6" v:groupContext="shape" transform="translate(65.5719,-12.5235)">
			<title>工作表.6</title>
			<path d="M0 153.11 L25.51 153.11" class="st1"/>
		</g>
		<g id="shape7-19" v:mID="7" v:groupContext="shape" transform="translate(156.281,-12.5235)">
			<title>工作表.7</title>
			<path d="M0 153.11 L25.51 153.11" class="st1"/>
		</g>
		<g id="shape8-22" v:mID="8" v:groupContext="shape" transform="translate(78.3278,-76.4042)">
			<title>工作表.8</title>
			<path d="M0 153.11 L121.29 153.11" class="st1"/>
		</g>
		<g id="shape9-25" v:mID="9" v:groupContext="shape" transform="translate(231.44,12.4222) rotate(90)">
			<title>工作表.9</title>
			<path d="M0 153.11 L28.35 153.11" class="st1"/>
		</g>
		<g id="shape10-28" v:mID="10" v:groupContext="shape" transform="translate(231.44,112.242) rotate(90)">
			<title>工作表.10</title>
			<path d="M0 153.11 L28.35 153.11" class="st1"/>
		</g>
		<g id="shape11-31" v:mID="11" v:groupContext="shape" transform="translate(322.149,10.2963) rotate(90)">
			<title>工作表.11</title>
			<path d="M0 153.11 L42.52 153.11" class="st1"/>
		</g>
		<g id="shape12-34" v:mID="12" v:groupContext="shape" transform="translate(322.149,97.0364) rotate(90)">
			<title>工作表.12</title>
			<path d="M9.06 153.11 L9.42 153.11 L43.54 153.11" class="st2"/>
		</g>
		<g id="shape13-40" v:mID="13" v:groupContext="shape" transform="translate(231.44,62.5347) rotate(90)">
			<title>工作表.13</title>
			<path d="M0 153.11 L28.35 153.11" class="st1"/>
		</g>
		<g id="shape14-43" v:mID="14" v:groupContext="shape" transform="translate(215.082,90.1725) rotate(90)">
			<title>工作表.14</title>
			<path d="M0 153.11 L22.68 153.11" class="st1"/>
		</g>
		<g id="shape15-46" v:mID="15" v:groupContext="shape" transform="translate(215.082,40.2372) rotate(90)">
			<title>工作表.15</title>
			<path d="M0 153.11 L22.68 153.11" class="st1"/>
		</g>
		<g id="shape22-49" v:mID="22" v:groupContext="shape" transform="translate(74.3829,-90.9065)">
			<title>工作表.22</title>
			<path d="M3.97 131.85 L7.65 134.12 L0 136.81 L7.23 140.36 L0 143.19 L7.65 147.02 L0.14 150.28 L3.97 153.11" class="st1"/>
		</g>
		<g id="shape23-52" v:mID="23" v:groupContext="shape" transform="translate(74.3829,-40.9712)">
			<title>工作表.23</title>
			<path d="M3.97 131.85 L7.65 134.12 L0 136.81 L7.23 140.36 L0 143.19 L7.65 147.02 L0.14 150.28 L3.97 153.11" class="st1"/>
		</g>
		<g id="shape24-55" v:mID="24" v:groupContext="shape" transform="translate(0.375,-96.5758)">
			<title>工作表.24</title>
			<desc>ON/OFF</desc>
			<v:textBlock v:margins="rect(4,4,4,4)" v:tabSpace="42.5197"/>
			<v:textRect cx="18.4252" cy="148.152" width="36.86" height="9.92126"/>
			<rect x="0" y="143.191" width="36.8504" height="9.92126" class="st4"/>
			<text x="5.33" y="150.55" class="st5" v:langID="2052"><v:paragraph v:horizAlign="1"/><v:tabList/>ON/OFF</text>		</g>
		<g id="shape25-58" v:mID="25" v:groupContext="shape" transform="translate(3.20965,-46.6405)">
			<title>工作表.25</title>
			<desc>ON/OFF</desc>
			<v:textBlock v:margins="rect(4,4,4,4)" v:tabSpace="42.5197"/>
			<v:textRect cx="18.4252" cy="148.152" width="36.86" height="9.92126"/>
			<rect x="0" y="143.191" width="36.8504" height="9.92126" class="st4"/>
			<text x="5.33" y="150.55" class="st5" v:langID="2052"><v:paragraph v:horizAlign="1"/><v:tabList/>ON/OFF</text>		</g>
		<g id="shape26-61" v:mID="26" v:groupContext="shape" transform="translate(37.2254,-106.674)">
			<title>工作表.26</title>
			<desc>K1</desc>
			<v:textBlock v:margins="rect(4,4,4,4)" v:tabSpace="42.5197"/>
			<v:textRect cx="8.50394" cy="148.152" width="17.01" height="9.92126"/>
			<rect x="0" y="143.191" width="17.0079" height="9.92126" class="st4"/>
			<text x="4.4" y="150.55" class="st5" v:langID="2052"><v:paragraph v:horizAlign="1"/><v:tabList/>K1</text>		</g>
		<g id="shape27-64" v:mID="27" v:groupContext="shape" transform="translate(37.2254,-56.7389)">
			<title>工作表.27</title>
			<desc>K2</desc>
			<v:textBlock v:margins="rect(4,4,4,4)" v:tabSpace="42.5197"/>
			<v:textRect cx="8.50394" cy="148.152" width="17.01" height="9.92126"/>
			<rect x="0" y="143.191" width="17.0079" height="9.92126" class="st4"/>
			<text x="4.4" y="150.55" class="st5" v:langID="2052"><v:paragraph v:horizAlign="1"/><v:tabList/>K2</text>		</g>
		<g id="shape28-67" v:mID="28" v:groupContext="shape" transform="translate(61.3199,-142.816)">
			<title>工作表.28</title>
			<desc>VDD</desc>
			<v:textBlock v:margins="rect(4,4,4,4)" v:tabSpace="42.5197"/>
			<v:textRect cx="17.0079" cy="148.152" width="34.02" height="9.92126"/>
			<rect x="0" y="143.191" width="34.0157" height="9.92126" class="st4"/>
			<text x="9.82" y="150.55" class="st5" v:langID="2052"><v:paragraph v:horizAlign="1"/><v:tabList/>VDD</text>		</g>
		<g id="shape29-70" v:mID="29" v:groupContext="shape" transform="translate(152.029,-142.816)">
			<title>工作表.29</title>
			<desc>VDD</desc>
			<v:textBlock v:margins="rect(4,4,4,4)" v:tabSpace="42.5197"/>
			<v:textRect cx="17.0079" cy="148.152" width="34.02" height="9.92126"/>
			<rect x="0" y="143.191" width="34.0157" height="9.92126" class="st4"/>
			<text x="9.82" y="150.55" class="st5" v:langID="2052"><v:paragraph v:horizAlign="1"/><v:tabList/>VDD</text>		</g>
		<g id="shape30-73" v:mID="30" v:groupContext="shape" transform="translate(61.3199,-0.375)">
			<title>工作表.30</title>
			<desc>VSS</desc>
			<v:textBlock v:margins="rect(4,4,4,4)" v:tabSpace="42.5197"/>
			<v:textRect cx="17.0079" cy="148.152" width="34.02" height="9.92126"/>
			<rect x="0" y="143.191" width="34.0157" height="9.92126" class="st4"/>
			<text x="11.06" y="150.55" class="st5" v:langID="2052"><v:paragraph v:horizAlign="1"/><v:tabList/>VSS</text>		</g>
		<g id="shape31-76" v:mID="31" v:groupContext="shape" transform="translate(152.029,-0.375)">
			<title>工作表.31</title>
			<desc>VSS</desc>
			<v:textBlock v:margins="rect(4,4,4,4)" v:tabSpace="42.5197"/>
			<v:textRect cx="17.0079" cy="148.152" width="34.02" height="9.92126"/>
			<rect x="0" y="143.191" width="34.0157" height="9.92126" class="st4"/>
			<text x="11.06" y="150.55" class="st5" v:langID="2052"><v:paragraph v:horizAlign="1"/><v:tabList/>VSS</text>		</g>
		<g id="shape32-79" v:mID="32" v:groupContext="shape" transform="translate(84.8069,-91.3874)">
			<title>工作表.32</title>
			<desc>R1</desc>
			<v:textBlock v:margins="rect(4,4,4,4)" v:tabSpace="42.5197"/>
			<v:textRect cx="8.50394" cy="148.152" width="17.01" height="9.92126"/>
			<rect x="0" y="143.191" width="17.0079" height="9.92126" class="st4"/>
			<text x="4" y="150.55" class="st5" v:langID="2052"><v:paragraph/><v:tabList/>R1</text>		</g>
		<g id="shape33-82" v:mID="33" v:groupContext="shape" transform="translate(84.8069,-53.2209)">
			<title>工作表.33</title>
			<desc>Pull-down</desc>
			<v:textBlock v:margins="rect(4,4,4,4)" v:tabSpace="42.5197"/>
			<v:textRect cx="21.8673" cy="148.152" width="43.74" height="9.92126"/>
			<rect x="0" y="143.191" width="43.7345" height="9.92126" class="st4"/>
			<text x="4" y="150.55" class="st5" v:langID="2052"><v:paragraph/><v:tabList/>Pull-down</text>		</g>
		<g id="shape34-85" v:mID="34" v:groupContext="shape" transform="translate(84.8069,-103.333)">
			<title>工作表.34</title>
			<desc>Pull-up</desc>
			<v:textBlock v:margins="rect(4,4,4,4)" v:tabSpace="42.5197"/>
			<v:textRect cx="17.0079" cy="148.152" width="34.02" height="9.92126"/>
			<rect x="0" y="143.191" width="34.0157" height="9.92126" class="st4"/>
			<text x="4" y="150.55" class="st5" v:langID="2052"><v:paragraph/><v:tabList/>Pull-up</text>		</g>
		<g id="shape35-88" v:mID="35" v:groupContext="shape" transform="translate(84.8069,-41.6798)">
			<title>工作表.35</title>
			<desc>R2</desc>
			<v:textBlock v:margins="rect(4,4,4,4)" v:tabSpace="42.5197"/>
			<v:textRect cx="8.50394" cy="148.152" width="17.01" height="9.92126"/>
			<rect x="0" y="143.191" width="17.0079" height="9.92126" class="st4"/>
			<text x="4" y="150.55" class="st5" v:langID="2052"><v:paragraph/><v:tabList/>R2</text>		</g>
		<g id="shape36-91" v:mID="36" v:groupContext="shape" transform="translate(214.391,-71.1292)">
			<title>工作表.36</title>
			<desc>I/O pin</desc>
			<v:textBlock v:margins="rect(4,4,4,4)" v:tabSpace="42.5197"/>
			<v:textRect cx="15.5906" cy="148.152" width="31.19" height="9.92126"/>
			<rect x="0" y="143.191" width="31.1811" height="9.92126" class="st4"/>
			<text x="4.36" y="150.55" class="st5" v:langID="2052"><v:paragraph v:horizAlign="1"/><v:tabList/>I/O pin</text>		</g>
		<g id="shape39-94" v:mID="39" v:groupContext="shape" transform="translate(-58.1965,-21.6523) rotate(-55.778)">
			<title>工作表.39</title>
			<path d="M0 153.11 L34.02 153.11" class="st6"/>
		</g>
		<g id="shape40-100" v:mID="40" v:groupContext="shape" transform="translate(-58.1965,28.3589) rotate(-55.778)">
			<title>工作表.40</title>
			<path d="M0 153.11 L34.02 153.11" class="st6"/>
		</g>
		<g id="shape41-105" v:mID="41" v:groupContext="shape" transform="translate(156.281,-99.7634)">
			<title>工作表.41</title>
			<path d="M0 153.11 L25.51 153.11" class="st1"/>
		</g>
		<g id="shape42-108" v:mID="42" v:groupContext="shape" transform="translate(322.149,53.3829) rotate(90)">
			<title>工作表.42</title>
			<path d="M9.06 153.11 L9.42 153.11 L43.09 153.11" class="st2"/>
		</g>
		<g id="shape43-113" v:mID="43" v:groupContext="shape" transform="translate(199.615,-69.7119)">
			<title>工作表.43</title>
			<rect x="0" y="140.356" width="12.7559" height="12.7559" class="st8"/>
		</g>
	</g>
</svg>
