<?xml version="1.0" encoding="UTF-8" standalone="no"?>
<!DOCTYPE svg PUBLIC "-//W3C//DTD SVG 1.1//EN" "http://www.w3.org/Graphics/SVG/1.1/DTD/svg11.dtd">
<!-- 由 Microsoft Visio, SVG Export 生成 audiohwadapter_example.svg 页-1 -->
<svg xmlns="http://www.w3.org/2000/svg" xmlns:xlink="http://www.w3.org/1999/xlink" xmlns:ev="http://www.w3.org/2001/xml-events"
		xmlns:v="http://schemas.microsoft.com/visio/2003/SVGExtensions/" width="6.26454in" height="4.54257in"
		viewBox="0 0 451.047 327.065" xml:space="preserve" color-interpolation-filters="sRGB" class="st8">
	<v:documentProperties v:langID="2052" v:metric="true" v:viewMarkup="false"/>

	<style type="text/css">
	<![CDATA[
		.st1 {visibility:visible}
		.st2 {fill:#5b9bd5;fill-opacity:0.25;filter:url(#filter_2);stroke:#5b9bd5;stroke-opacity:0.25}
		.st3 {fill:#d8d8d8;stroke:#000000;stroke-width:0.75}
		.st4 {fill:#000000;font-family:Arial;font-size:1.16666em}
		.st5 {fill:#000000;stroke:#000000;stroke-width:0.25}
		.st6 {fill:none;stroke:none;stroke-width:0.25}
		.st7 {fill:#000000;font-family:Arial;font-size:1.00001em}
		.st8 {fill:none;fill-rule:evenodd;font-size:12px;overflow:visible;stroke-linecap:square;stroke-miterlimit:3}
	]]>
	</style>

	<defs id="Filters">
		<filter id="filter_2">
			<feGaussianBlur stdDeviation="2"/>
		</filter>
	</defs>
	<g v:mID="0" v:index="1" v:groupContext="foregroundPage">
		<title>页-1</title>
		<v:pageProperties v:drawingScale="0.0393701" v:pageScale="0.0393701" v:drawingUnits="24" v:shadowOffsetX="8.50394"
				v:shadowOffsetY="-8.50394"/>
		<g id="shape217-1" v:mID="217" v:groupContext="shape" transform="translate(170.329,-5.3478)">
			<title>矩形.217</title>
			<desc>Audio Adapter</desc>
			<v:userDefs>
				<v:ud v:nameU="CTypeTopLeftSnip" v:prompt="" v:val="VT0(0):5"/>
				<v:ud v:nameU="CTypeTopRightSnip" v:prompt="" v:val="VT0(0):5"/>
				<v:ud v:nameU="CTypeBotLeftSnip" v:prompt="" v:val="VT0(0):5"/>
				<v:ud v:nameU="CTypeBotRightSnip" v:prompt="" v:val="VT0(0):5"/>
				<v:ud v:nameU="CornerLockHoriz" v:prompt="" v:val="VT0(1):5"/>
				<v:ud v:nameU="CornerLockVert" v:prompt="" v:val="VT0(1):5"/>
				<v:ud v:nameU="CornerLockDiag" v:prompt="" v:val="VT0(0):5"/>
				<v:ud v:nameU="TopLeftOffset" v:prompt="" v:val="VT0(0.15748031496063):24"/>
				<v:ud v:nameU="TopRightOffset" v:prompt="" v:val="VT0(0.15748031496063):24"/>
				<v:ud v:nameU="BotLeftOffset" v:prompt="" v:val="VT0(0.15748031496063):24"/>
				<v:ud v:nameU="BotRightOffset" v:prompt="" v:val="VT0(0.15748031496063):24"/>
				<v:ud v:nameU="visVersion" v:prompt="" v:val="VT0(15):26"/>
				<v:ud v:nameU="TopLeftOffset" v:prompt="" v:val="VT0(0.2509842519685):1"/>
				<v:ud v:nameU="TopRightOffset" v:prompt="" v:val="VT0(0.2509842519685):1"/>
				<v:ud v:nameU="BotLeftOffset" v:prompt="" v:val="VT0(0.2509842519685):1"/>
				<v:ud v:nameU="BotRightOffset" v:prompt="" v:val="VT0(0.2509842519685):1"/>
			</v:userDefs>
			<v:textBlock v:margins="rect(4,4,4,4)" v:tabSpace="42.5197" v:verticalAlign="0"/>
			<v:textRect cx="90.3543" cy="166.907" width="180.71" height="320.315"/>
			<g id="shadow217-2" v:groupContext="shadow" v:shadowOffsetX="0.345598" v:shadowOffsetY="-1.97279" v:shadowType="1"
					transform="matrix(1,0,0,1,0.345598,1.97279)" class="st1">
				<path d="M18.07 327.06 L162.64 327.06 A18.0706 18.0706 -180 0 0 180.71 308.99 L180.71 24.82 A18.0706 18.0706 -180
							 0 0 162.64 6.75 L18.07 6.75 A18.0706 18.0706 -180 0 0 0 24.82 L0 308.99 A18.0706 18.0706 -180 0 0 18.07
							 327.06 Z" class="st2"/>
			</g>
			<path d="M18.07 327.06 L162.64 327.06 A18.0706 18.0706 -180 0 0 180.71 308.99 L180.71 24.82 A18.0706 18.0706 -180 0 0
						 162.64 6.75 L18.07 6.75 A18.0706 18.0706 -180 0 0 0 24.82 L0 308.99 A18.0706 18.0706 -180 0 0 18.07 327.06
						 Z" class="st3"/>
			<text x="45.99" y="23.35" class="st4" v:langID="2052"><v:paragraph v:horizAlign="1"/><v:tabList/>Audio Adapter</text>		</g>
		<g id="shape218-7" v:mID="218" v:groupContext="shape" transform="translate(150.841,-226.804)">
			<title>矩形.218</title>
			<v:userDefs>
				<v:ud v:nameU="visVersion" v:val="VT0(15):26"/>
			</v:userDefs>
			<g id="shadow218-8" v:groupContext="shadow" v:shadowOffsetX="0.345598" v:shadowOffsetY="-1.97279" v:shadowType="1"
					transform="matrix(1,0,0,1,0.345598,1.97279)" class="st1">
				<path d="M0 307.58 A19.4882 19.4882 0 0 1 38.98 307.58 A19.4882 19.4882 0 1 1 0 307.58 Z" class="st2"/>
			</g>
			<path d="M0 307.58 A19.4882 19.4882 0 0 1 38.98 307.58 A19.4882 19.4882 0 1 1 0 307.58 Z" class="st3"/>
		</g>
		<g id="shape219-12" v:mID="219" v:groupContext="shape" transform="translate(150.841,-155.938)">
			<title>矩形.219</title>
			<v:userDefs>
				<v:ud v:nameU="visVersion" v:val="VT0(15):26"/>
			</v:userDefs>
			<g id="shadow219-13" v:groupContext="shadow" v:shadowOffsetX="0.345598" v:shadowOffsetY="-1.97279" v:shadowType="1"
					transform="matrix(1,0,0,1,0.345598,1.97279)" class="st1">
				<path d="M0 307.58 A19.4882 19.4882 0 0 1 38.98 307.58 A19.4882 19.4882 0 1 1 0 307.58 Z" class="st2"/>
			</g>
			<path d="M0 307.58 A19.4882 19.4882 0 0 1 38.98 307.58 A19.4882 19.4882 0 1 1 0 307.58 Z" class="st3"/>
		</g>
		<g id="shape220-17" v:mID="220" v:groupContext="shape" transform="translate(150.841,-65.584)">
			<title>矩形.220</title>
			<v:userDefs>
				<v:ud v:nameU="visVersion" v:val="VT0(15):26"/>
			</v:userDefs>
			<g id="shadow220-18" v:groupContext="shadow" v:shadowOffsetX="0.345598" v:shadowOffsetY="-1.97279" v:shadowType="1"
					transform="matrix(1,0,0,1,0.345598,1.97279)" class="st1">
				<path d="M0 307.58 A19.4882 19.4882 0 0 1 38.98 307.58 A19.4882 19.4882 0 1 1 0 307.58 Z" class="st2"/>
			</g>
			<path d="M0 307.58 A19.4882 19.4882 0 0 1 38.98 307.58 A19.4882 19.4882 0 1 1 0 307.58 Z" class="st3"/>
		</g>
		<g id="shape222-22" v:mID="222" v:groupContext="shape" transform="translate(336.358,-246.293)">
			<title>矩形.222</title>
			<v:userDefs>
				<v:ud v:nameU="visVersion" v:val="VT0(15):26"/>
			</v:userDefs>
			<g id="shadow222-23" v:groupContext="shadow" v:shadowOffsetX="0.345598" v:shadowOffsetY="-1.97279" v:shadowType="1"
					transform="matrix(1,0,0,1,0.345598,1.97279)" class="st1">
				<path d="M0 311.12 A15.9449 15.9449 0 0 1 31.89 311.12 A15.9449 15.9449 0 1 1 -0 311.12 Z" class="st2"/>
			</g>
			<path d="M0 311.12 A15.9449 15.9449 0 0 1 31.89 311.12 A15.9449 15.9449 0 1 1 -0 311.12 Z" class="st3"/>
		</g>
		<g id="shape223-27" v:mID="223" v:groupContext="shape" transform="translate(336.358,-209.847)">
			<title>矩形.223</title>
			<v:userDefs>
				<v:ud v:nameU="visVersion" v:val="VT0(15):26"/>
			</v:userDefs>
			<g id="shadow223-28" v:groupContext="shadow" v:shadowOffsetX="0.345598" v:shadowOffsetY="-1.97279" v:shadowType="1"
					transform="matrix(1,0,0,1,0.345598,1.97279)" class="st1">
				<path d="M0 311.12 A15.9449 15.9449 0 0 1 31.89 311.12 A15.9449 15.9449 0 1 1 -0 311.12 Z" class="st2"/>
			</g>
			<path d="M0 311.12 A15.9449 15.9449 0 0 1 31.89 311.12 A15.9449 15.9449 0 1 1 -0 311.12 Z" class="st3"/>
		</g>
		<g id="shape224-32" v:mID="224" v:groupContext="shape" transform="translate(336.358,-161.253)">
			<title>矩形.224</title>
			<v:userDefs>
				<v:ud v:nameU="visVersion" v:val="VT0(15):26"/>
			</v:userDefs>
			<g id="shadow224-33" v:groupContext="shadow" v:shadowOffsetX="0.345598" v:shadowOffsetY="-1.97279" v:shadowType="1"
					transform="matrix(1,0,0,1,0.345598,1.97279)" class="st1">
				<path d="M0 311.12 A15.9449 15.9449 0 0 1 31.89 311.12 A15.9449 15.9449 0 1 1 -0 311.12 Z" class="st2"/>
			</g>
			<path d="M0 311.12 A15.9449 15.9449 0 0 1 31.89 311.12 A15.9449 15.9449 0 1 1 -0 311.12 Z" class="st3"/>
		</g>
		<g id="shape225-37" v:mID="225" v:groupContext="shape" transform="translate(336.358,-106.99)">
			<title>矩形.225</title>
			<v:userDefs>
				<v:ud v:nameU="visVersion" v:val="VT0(15):26"/>
			</v:userDefs>
			<g id="shadow225-38" v:groupContext="shadow" v:shadowOffsetX="0.345598" v:shadowOffsetY="-1.97279" v:shadowType="1"
					transform="matrix(1,0,0,1,0.345598,1.97279)" class="st1">
				<path d="M0 311.12 A15.9449 15.9449 0 0 1 31.89 311.12 A15.9449 15.9449 0 1 1 -0 311.12 Z" class="st2"/>
			</g>
			<path d="M0 311.12 A15.9449 15.9449 0 0 1 31.89 311.12 A15.9449 15.9449 0 1 1 -0 311.12 Z" class="st3"/>
		</g>
		<g id="shape226-42" v:mID="226" v:groupContext="shape" transform="translate(336.864,-72.6706)">
			<title>矩形.226</title>
			<v:userDefs>
				<v:ud v:nameU="visVersion" v:val="VT0(15):26"/>
			</v:userDefs>
			<g id="shadow226-43" v:groupContext="shadow" v:shadowOffsetX="0.345598" v:shadowOffsetY="-1.97279" v:shadowType="1"
					transform="matrix(1,0,0,1,0.345598,1.97279)" class="st1">
				<path d="M0 311.12 A15.9449 15.9449 0 0 1 31.89 311.12 A15.9449 15.9449 0 1 1 -0 311.12 Z" class="st2"/>
			</g>
			<path d="M0 311.12 A15.9449 15.9449 0 0 1 31.89 311.12 A15.9449 15.9449 0 1 1 -0 311.12 Z" class="st3"/>
		</g>
		<g id="shape227-47" v:mID="227" v:groupContext="shape" transform="translate(336.864,-37.7438)">
			<title>矩形.227</title>
			<v:userDefs>
				<v:ud v:nameU="visVersion" v:val="VT0(15):26"/>
			</v:userDefs>
			<g id="shadow227-48" v:groupContext="shadow" v:shadowOffsetX="0.345598" v:shadowOffsetY="-1.97279" v:shadowType="1"
					transform="matrix(1,0,0,1,0.345598,1.97279)" class="st1">
				<path d="M0 311.12 A15.9449 15.9449 0 0 1 31.89 311.12 A15.9449 15.9449 0 1 1 -0 311.12 Z" class="st2"/>
			</g>
			<path d="M0 311.12 A15.9449 15.9449 0 0 1 31.89 311.12 A15.9449 15.9449 0 1 1 -0 311.12 Z" class="st3"/>
		</g>
		<g id="shape229-52" v:mID="229" v:groupContext="shape" transform="translate(371.737,389.973) rotate(173.79)">
			<title>现代箭头</title>
			<v:userDefs>
				<v:ud v:nameU="CtrlAngle" v:prompt="" v:val="VT0(0.78539816339745):32"/>
				<v:ud v:nameU="visVersion" v:prompt="" v:val="VT0(15):26"/>
				<v:ud v:nameU="CtrlAngle" v:prompt="" v:val="VT0(0.63650820709357):32"/>
			</v:userDefs>
			<g id="shadow229-53" v:groupContext="shadow" v:shadowOffsetX="0.345598" v:shadowOffsetY="-1.97279" v:shadowType="1"
					transform="matrix(1,0,0,1,-0.130174,-1.9986)" class="st1">
				<path d="M0 327.06 L11.64 318.46 L13.11 320.45 L5.83 325.83 L147.41 325.83 L147.41 328.3 L5.83 328.3 L13.11 333.68
							 L11.64 335.67 L0 327.06 Z" class="st2"/>
			</g>
			<path d="M0 327.06 L11.64 318.46 L13.11 320.45 L5.83 325.83 L147.41 325.83 L147.41 328.3 L5.83 328.3 L13.11 333.68 L11.64
						 335.67 L0 327.06 Z" class="st5"/>
		</g>
		<g id="shape230-57" v:mID="230" v:groupContext="shape" transform="translate(291.044,425.184) rotate(-172.036)">
			<title>现代箭头.230</title>
			<v:userDefs>
				<v:ud v:nameU="CtrlAngle" v:prompt="" v:val="VT0(0.78539816339745):32"/>
				<v:ud v:nameU="visVersion" v:prompt="" v:val="VT0(15):26"/>
				<v:ud v:nameU="CtrlAngle" v:prompt="" v:val="VT0(0.63650820709357):32"/>
			</v:userDefs>
			<g id="shadow230-58" v:groupContext="shadow" v:shadowOffsetX="0.345598" v:shadowOffsetY="-1.97279" v:shadowType="1"
					transform="matrix(1,0,0,1,-0.61559,-1.90588)" class="st1">
				<path d="M0 327.06 L11.64 318.46 L13.11 320.45 L5.83 325.83 L147.97 325.83 L147.97 328.3 L5.83 328.3 L13.11 333.68
							 L11.64 335.67 L0 327.06 Z" class="st2"/>
			</g>
			<path d="M0 327.06 L11.64 318.46 L13.11 320.45 L5.83 325.83 L147.97 325.83 L147.97 328.3 L5.83 328.3 L13.11 333.68 L11.64
						 335.67 L0 327.06 Z" class="st5"/>
		</g>
		<g id="shape231-62" v:mID="231" v:groupContext="shape" transform="translate(340.312,476.908) rotate(179.307)">
			<title>现代箭头.231</title>
			<v:userDefs>
				<v:ud v:nameU="CtrlAngle" v:prompt="" v:val="VT0(0.78539816339745):32"/>
				<v:ud v:nameU="visVersion" v:prompt="" v:val="VT0(15):26"/>
				<v:ud v:nameU="CtrlAngle" v:prompt="" v:val="VT0(0.63650820709357):32"/>
			</v:userDefs>
			<g id="shadow231-63" v:groupContext="shadow" v:shadowOffsetX="0.345598" v:shadowOffsetY="-1.97279" v:shadowType="1"
					transform="matrix(1,0,0,1,-0.321724,-1.97683)" class="st1">
				<path d="M0 327.06 L11.64 318.46 L13.11 320.45 L5.83 325.83 L146.55 325.83 L146.55 328.3 L5.83 328.3 L13.11 333.68
							 L11.64 335.67 L0 327.06 Z" class="st2"/>
			</g>
			<path d="M0 327.06 L11.64 318.46 L13.11 320.45 L5.83 325.83 L146.55 325.83 L146.55 328.3 L5.83 328.3 L13.11 333.68 L11.64
						 335.67 L0 327.06 Z" class="st5"/>
		</g>
		<g id="shape232-67" v:mID="232" v:groupContext="shape" transform="translate(107.998,-74.6729) rotate(-14.4871)">
			<title>现代箭头.232</title>
			<v:userDefs>
				<v:ud v:nameU="CtrlAngle" v:prompt="" v:val="VT0(0.78539816339745):32"/>
				<v:ud v:nameU="visVersion" v:prompt="" v:val="VT0(15):26"/>
				<v:ud v:nameU="CtrlAngle" v:prompt="" v:val="VT0(0.63650820709357):32"/>
			</v:userDefs>
			<g id="shadow232-68" v:groupContext="shadow" v:shadowOffsetX="0.345598" v:shadowOffsetY="-1.97279" v:shadowType="1"
					transform="matrix(1,2.77556E-17,-2.77556E-17,1,-0.158906,1.99652)" class="st1">
				<path d="M0 327.06 L11.64 318.46 L13.11 320.45 L5.83 325.83 L151.35 325.83 L151.35 328.3 L5.83 328.3 L13.11 333.68
							 L11.64 335.67 L0 327.06 Z" class="st2"/>
			</g>
			<path d="M0 327.06 L11.64 318.46 L13.11 320.45 L5.83 325.83 L151.35 325.83 L151.35 328.3 L5.83 328.3 L13.11 333.68 L11.64
						 335.67 L0 327.06 Z" class="st5"/>
		</g>
		<g id="shape233-72" v:mID="233" v:groupContext="shape" transform="translate(181.938,-84.9773) rotate(-1.38035)">
			<title>现代箭头.233</title>
			<v:userDefs>
				<v:ud v:nameU="CtrlAngle" v:prompt="" v:val="VT0(0.78539816339745):32"/>
				<v:ud v:nameU="visVersion" v:prompt="" v:val="VT0(15):26"/>
				<v:ud v:nameU="CtrlAngle" v:prompt="" v:val="VT0(0.63650820709357):32"/>
			</v:userDefs>
			<g id="shadow233-73" v:groupContext="shadow" v:shadowOffsetX="0.345598" v:shadowOffsetY="-1.97279" v:shadowType="1"
					transform="matrix(1,3.46945E-18,-3.46945E-18,1,0.297975,1.98054)" class="st1">
				<path d="M0 327.06 L11.64 318.46 L13.11 320.45 L5.83 325.83 L147.09 325.83 L147.09 328.3 L5.83 328.3 L13.11 333.68
							 L11.64 335.67 L0 327.06 Z" class="st2"/>
			</g>
			<path d="M0 327.06 L11.64 318.46 L13.11 320.45 L5.83 325.83 L147.09 325.83 L147.09 328.3 L5.83 328.3 L13.11 333.68 L11.64
						 335.67 L0 327.06 Z" class="st5"/>
		</g>
		<g id="shape234-77" v:mID="234" v:groupContext="shape" transform="translate(258.083,-77.8684) rotate(12.0476)">
			<title>现代箭头.234</title>
			<v:userDefs>
				<v:ud v:nameU="CtrlAngle" v:prompt="" v:val="VT0(0.78539816339745):32"/>
				<v:ud v:nameU="visVersion" v:prompt="" v:val="VT0(15):26"/>
				<v:ud v:nameU="CtrlAngle" v:prompt="" v:val="VT0(0.63650820709357):32"/>
			</v:userDefs>
			<g id="shadow234-78" v:groupContext="shadow" v:shadowOffsetX="0.345598" v:shadowOffsetY="-1.97279" v:shadowType="1"
					transform="matrix(1,0,0,1,0.749756,1.85721)" class="st1">
				<path d="M0 327.06 L11.64 318.46 L13.11 320.45 L5.83 325.83 L150.36 325.83 L150.36 328.3 L5.83 328.3 L13.11 333.68
							 L11.64 335.67 L0 327.06 Z" class="st2"/>
			</g>
			<path d="M0 327.06 L11.64 318.46 L13.11 320.45 L5.83 325.83 L150.36 325.83 L150.36 328.3 L5.83 328.3 L13.11 333.68 L11.64
						 335.67 L0 327.06 Z" class="st5"/>
		</g>
		<g id="shape235-82" v:mID="235" v:groupContext="shape" transform="translate(0.25,-236.655)">
			<title>工作表.235</title>
			<desc>Out Stream</desc>
			<v:textBlock v:margins="rect(4,4,4,4)" v:tabSpace="42.5197"/>
			<v:textRect cx="45.0709" cy="317.427" width="90.15" height="19.2756"/>
			<rect x="0" y="307.789" width="90.1417" height="19.2756" class="st6"/>
			<text x="14.39" y="321.03" class="st7" v:langID="2052"><v:paragraph v:horizAlign="1"/><v:tabList/>Out Stream</text>		</g>
		<g id="shape236-85" v:mID="236" v:groupContext="shape" transform="translate(140.23,408.136) rotate(-179.693)">
			<title>普通箭头</title>
			<v:userDefs>
				<v:ud v:nameU="visVersion" v:val="VT0(15):26"/>
				<v:ud v:nameU="ArrowType" v:prompt="" v:val="VT0(2):26"/>
			</v:userDefs>
			<g id="shadow236-86" v:groupContext="shadow" v:shadowOffsetX="0.345598" v:shadowOffsetY="-1.97279" v:shadowType="1"
					transform="matrix(1,-8.67362E-19,8.67362E-19,1,-0.356162,-1.97091)" class="st1">
				<path d="M0 327.06 L11.34 315.73 L11.34 321.4 L56.69 321.4 L56.69 327.06 L56.69 332.73 L11.34 332.73 L11.34 338.4
							 L0 327.06 Z" class="st2"/>
			</g>
			<path d="M0 327.06 L11.34 315.73 L11.34 321.4 L56.69 321.4 L56.69 327.06 L56.69 332.73 L11.34 332.73 L11.34 338.4 L0
						 327.06 Z" class="st3"/>
		</g>
		<g id="shape237-90" v:mID="237" v:groupContext="shape" transform="translate(140.23,478.699) rotate(-179.693)">
			<title>普通箭头.237</title>
			<v:userDefs>
				<v:ud v:nameU="visVersion" v:val="VT0(15):26"/>
				<v:ud v:nameU="ArrowType" v:prompt="" v:val="VT0(2):26"/>
			</v:userDefs>
			<g id="shadow237-91" v:groupContext="shadow" v:shadowOffsetX="0.345598" v:shadowOffsetY="-1.97279" v:shadowType="1"
					transform="matrix(1,-8.67362E-19,8.67362E-19,1,-0.356162,-1.97091)" class="st1">
				<path d="M0 327.06 L11.34 315.73 L11.34 321.4 L56.69 321.4 L56.69 327.06 L56.69 332.73 L11.34 332.73 L11.34 338.4
							 L0 327.06 Z" class="st2"/>
			</g>
			<path d="M0 327.06 L11.34 315.73 L11.34 321.4 L56.69 321.4 L56.69 327.06 L56.69 332.73 L11.34 332.73 L11.34 338.4 L0
						 327.06 Z" class="st3"/>
		</g>
		<g id="shape238-95" v:mID="238" v:groupContext="shape" transform="translate(87.3335,-85.0658) rotate(0.358094)">
			<title>普通箭头.238</title>
			<v:userDefs>
				<v:ud v:nameU="visVersion" v:val="VT0(15):26"/>
				<v:ud v:nameU="ArrowType" v:prompt="" v:val="VT0(2):26"/>
			</v:userDefs>
			<g id="shadow238-96" v:groupContext="shadow" v:shadowOffsetX="0.345598" v:shadowOffsetY="-1.97279" v:shadowType="1"
					transform="matrix(1,0,0,1,0.357921,1.97059)" class="st1">
				<path d="M0 327.06 L11.34 315.73 L11.34 321.4 L56.69 321.4 L56.69 327.06 L56.69 332.73 L11.34 332.73 L11.34 338.4
							 L0 327.06 Z" class="st2"/>
			</g>
			<path d="M0 327.06 L11.34 315.73 L11.34 321.4 L56.69 321.4 L56.69 327.06 L56.69 332.73 L11.34 332.73 L11.34 338.4 L0
						 327.06 Z" class="st3"/>
		</g>
		<g id="shape239-100" v:mID="239" v:groupContext="shape" transform="translate(0.25,-165.789)">
			<title>工作表.239</title>
			<desc>Out Stream</desc>
			<v:textBlock v:margins="rect(4,4,4,4)" v:tabSpace="42.5197"/>
			<v:textRect cx="45.0709" cy="317.427" width="90.15" height="19.2756"/>
			<rect x="0" y="307.789" width="90.1417" height="19.2756" class="st6"/>
			<text x="14.39" y="321.03" class="st7" v:langID="2052"><v:paragraph v:horizAlign="1"/><v:tabList/>Out Stream</text>		</g>
		<g id="shape240-103" v:mID="240" v:groupContext="shape" transform="translate(0.25,-75.4344)">
			<title>工作表.240</title>
			<desc>In Stream</desc>
			<v:textBlock v:margins="rect(4,4,4,4)" v:tabSpace="42.5197"/>
			<v:textRect cx="45.0709" cy="317.427" width="90.15" height="19.2756"/>
			<rect x="0" y="307.789" width="90.1417" height="19.2756" class="st6"/>
			<text x="19.06" y="321.03" class="st7" v:langID="2052"><v:paragraph v:horizAlign="1"/><v:tabList/>In Stream</text>		</g>
		<g id="shape241-106" v:mID="241" v:groupContext="shape" transform="translate(156.156,-184.497)">
			<title>工作表.241</title>
			<desc>PORT</desc>
			<v:textBlock v:margins="rect(4,4,4,4)" v:tabSpace="42.5197"/>
			<v:textRect cx="45.0709" cy="317.427" width="90.15" height="19.2756"/>
			<rect x="0" y="307.789" width="90.1417" height="19.2756" class="st6"/>
			<text x="28.4" y="321.03" class="st7" v:langID="2052"><v:paragraph v:horizAlign="1"/><v:tabList/>PORT</text>		</g>
		<g id="shape242-109" v:mID="242" v:groupContext="shape" transform="translate(360.149,-252.6)">
			<title>工作表.242</title>
			<desc>SPEAKER</desc>
			<v:textBlock v:margins="rect(4,4,4,4)" v:tabSpace="42.5197"/>
			<v:textRect cx="45.0709" cy="317.427" width="90.15" height="19.2756"/>
			<rect x="0" y="307.789" width="90.1417" height="19.2756" class="st6"/>
			<text x="16.73" y="321.03" class="st7" v:langID="2052"><v:paragraph v:horizAlign="1"/><v:tabList/>SPEAKER</text>		</g>
		<g id="shape243-112" v:mID="243" v:groupContext="shape" transform="translate(360.655,-215.517)">
			<title>工作表.243</title>
			<desc>LINEOUT</desc>
			<v:textBlock v:margins="rect(4,4,4,4)" v:tabSpace="42.5197"/>
			<v:textRect cx="45.0709" cy="317.427" width="90.15" height="19.2756"/>
			<rect x="0" y="307.789" width="90.1417" height="19.2756" class="st6"/>
			<text x="19.07" y="321.03" class="st7" v:langID="2052"><v:paragraph v:horizAlign="1"/><v:tabList/>LINEOUT</text>		</g>
		<g id="shape244-115" v:mID="244" v:groupContext="shape" transform="translate(352.03,-167.56)">
			<title>工作表.244</title>
			<desc>HDMI</desc>
			<v:textBlock v:margins="rect(4,4,4,4)" v:tabSpace="42.5197"/>
			<v:textRect cx="45.0709" cy="317.427" width="90.15" height="19.2756"/>
			<rect x="0" y="307.789" width="90.1417" height="19.2756" class="st6"/>
			<text x="29.74" y="321.03" class="st7" v:langID="2052"><v:paragraph v:horizAlign="1"/><v:tabList/>HDMI</text>		</g>
		<g id="shape245-118" v:mID="245" v:groupContext="shape" transform="translate(352.03,-113.297)">
			<title>工作表.245</title>
			<desc>MIC</desc>
			<v:textBlock v:margins="rect(4,4,4,4)" v:tabSpace="42.5197"/>
			<v:textRect cx="45.0709" cy="317.427" width="90.15" height="19.2756"/>
			<rect x="0" y="307.789" width="90.1417" height="19.2756" class="st6"/>
			<text x="34.07" y="321.03" class="st7" v:langID="2052"><v:paragraph v:horizAlign="1"/><v:tabList/>MIC</text>		</g>
		<g id="shape246-121" v:mID="246" v:groupContext="shape" transform="translate(359.643,-78.9777)">
			<title>工作表.246</title>
			<desc>LINEIN</desc>
			<v:textBlock v:margins="rect(4,4,4,4)" v:tabSpace="42.5197"/>
			<v:textRect cx="45.0709" cy="317.427" width="90.15" height="19.2756"/>
			<rect x="0" y="307.789" width="90.1417" height="19.2756" class="st6"/>
			<text x="25.73" y="321.03" class="st7" v:langID="2052"><v:paragraph v:horizAlign="1"/><v:tabList/>LINEIN</text>		</g>
		<g id="shape247-124" v:mID="247" v:groupContext="shape" transform="translate(360.149,-44.0508)">
			<title>工作表.247</title>
			<desc>HS_MIC</desc>
			<v:textBlock v:margins="rect(4,4,4,4)" v:tabSpace="42.5197"/>
			<v:textRect cx="45.0709" cy="317.427" width="90.15" height="19.2756"/>
			<rect x="0" y="307.789" width="90.1417" height="19.2756" class="st6"/>
			<text x="22.4" y="321.03" class="st7" v:langID="2052"><v:paragraph v:horizAlign="1"/><v:tabList/>HS_MIC</text>		</g>
	</g>
</svg>
