<?xml version="1.0" encoding="UTF-8" standalone="no"?>
<!DOCTYPE svg PUBLIC "-//W3C//DTD SVG 1.1//EN" "http://www.w3.org/Graphics/SVG/1.1/DTD/svg11.dtd">
<!-- 由 Microsoft Visio, SVG Export 生成 mvp_pattern.svg 页-1 -->
<svg xmlns="http://www.w3.org/2000/svg" xmlns:xlink="http://www.w3.org/1999/xlink" xmlns:ev="http://www.w3.org/2001/xml-events"
		xmlns:v="http://schemas.microsoft.com/visio/2003/SVGExtensions/" width="3.99993in" height="0.809189in"
		viewBox="0 0 287.995 58.2616" xml:space="preserve" color-interpolation-filters="sRGB" class="st10">
	<v:documentProperties v:langID="2052" v:metric="true" v:viewMarkup="false"/>

	<style type="text/css">
	<![CDATA[
		.st1 {fill:#f2f2f2;stroke:#000000;stroke-width:0.75}
		.st2 {fill:#000000;font-family:Arial;font-size:0.499992em}
		.st3 {fill:#ffffff;stroke:#000000;stroke-width:0.75}
		.st4 {fill:none;stroke:none;stroke-width:0.25}
		.st5 {font-size:1em}
		.st6 {marker-end:url(#mrkr4-21);stroke:#000000;stroke-linecap:round;stroke-linejoin:round;stroke-width:1}
		.st7 {fill:#000000;fill-opacity:1;stroke:#000000;stroke-opacity:1;stroke-width:0.28409090909091}
		.st8 {fill:#ffffff;stroke:none;stroke-linecap:butt;stroke-width:7.2}
		.st9 {fill:#ffffff;stroke:none;stroke-linecap:butt}
		.st10 {fill:none;fill-rule:evenodd;font-size:12px;overflow:visible;stroke-linecap:square;stroke-miterlimit:3}
	]]>
	</style>

	<defs id="Markers">
		<g id="lend4">
			<path d="M 2 1 L 0 0 L 2 -1 L 2 1 " style="stroke:none"/>
		</g>
		<marker id="mrkr4-21" class="st7" v:arrowType="4" v:arrowSize="2" v:setback="6.68" refX="-6.68" orient="auto"
				markerUnits="strokeWidth" overflow="visible">
			<use xlink:href="#lend4" transform="scale(-3.52,-3.52) "/>
		</marker>
	</defs>
	<g v:mID="0" v:index="1" v:groupContext="foregroundPage">
		<title>页-1</title>
		<v:pageProperties v:drawingScale="0.0393701" v:pageScale="0.0393701" v:drawingUnits="24" v:shadowOffsetX="8.50394"
				v:shadowOffsetY="-8.50394"/>
		<v:layer v:name="连接线" v:index="0"/>
		<g id="shape118-1" v:mID="118" v:groupContext="shape" transform="translate(81.3036,-18.5009)">
			<title>圆角矩形.118</title>
			<desc>View</desc>
			<v:userDefs>
				<v:ud v:nameU="CTypeTopLeftSnip" v:prompt="" v:val="VT0(0):5"/>
				<v:ud v:nameU="CTypeTopRightSnip" v:prompt="" v:val="VT0(0):5"/>
				<v:ud v:nameU="CTypeBotLeftSnip" v:prompt="" v:val="VT0(0):5"/>
				<v:ud v:nameU="CTypeBotRightSnip" v:prompt="" v:val="VT0(0):5"/>
				<v:ud v:nameU="CornerLockHoriz" v:prompt="" v:val="VT0(1):5"/>
				<v:ud v:nameU="CornerLockVert" v:prompt="" v:val="VT0(1):5"/>
				<v:ud v:nameU="CornerLockDiag" v:prompt="" v:val="VT0(0):5"/>
				<v:ud v:nameU="TopLeftOffset" v:prompt="" v:val="VT0(0.15748031496063):24"/>
				<v:ud v:nameU="TopRightOffset" v:prompt="" v:val="VT0(0.15748031496063):24"/>
				<v:ud v:nameU="BotLeftOffset" v:prompt="" v:val="VT0(0.15748031496063):24"/>
				<v:ud v:nameU="BotRightOffset" v:prompt="" v:val="VT0(0.15748031496063):24"/>
				<v:ud v:nameU="visVersion" v:prompt="" v:val="VT0(15):26"/>
				<v:ud v:nameU="TopLeftOffset" v:prompt="" v:val="VT0(0.0515791776028):1"/>
				<v:ud v:nameU="TopRightOffset" v:prompt="" v:val="VT0(0.0515791776028):1"/>
				<v:ud v:nameU="BotLeftOffset" v:prompt="" v:val="VT0(0.0515791776028):1"/>
				<v:ud v:nameU="BotRightOffset" v:prompt="" v:val="VT0(0.0515791776028):1"/>
			</v:userDefs>
			<v:textBlock v:margins="rect(4,4,4,4)" v:tabSpace="42.5197"/>
			<v:textRect cx="18.5685" cy="47.6317" width="37.14" height="21.2598"/>
			<path d="M3.71 58.26 L33.42 58.26 A3.71364 3.71364 -180 0 0 37.14 54.55 L37.14 40.72 A3.71364 3.71364 -180 0 0 33.42
						 37 L3.71 37 A3.71364 3.71364 -180 0 0 -0 40.72 L0 54.55 A3.71364 3.71364 -180 0 0 3.71 58.26 Z"
					class="st1"/>
			<text x="12.07" y="49.43" class="st2" v:langID="2052"><v:paragraph v:horizAlign="1"/><v:tabList/>View</text>		</g>
		<g id="shape119-4" v:mID="119" v:groupContext="shape" transform="translate(162.234,-18.5009)">
			<title>圆角矩形.119</title>
			<desc>Presenter</desc>
			<v:userDefs>
				<v:ud v:nameU="CTypeTopLeftSnip" v:prompt="" v:val="VT0(0):5"/>
				<v:ud v:nameU="CTypeTopRightSnip" v:prompt="" v:val="VT0(0):5"/>
				<v:ud v:nameU="CTypeBotLeftSnip" v:prompt="" v:val="VT0(0):5"/>
				<v:ud v:nameU="CTypeBotRightSnip" v:prompt="" v:val="VT0(0):5"/>
				<v:ud v:nameU="CornerLockHoriz" v:prompt="" v:val="VT0(1):5"/>
				<v:ud v:nameU="CornerLockVert" v:prompt="" v:val="VT0(1):5"/>
				<v:ud v:nameU="CornerLockDiag" v:prompt="" v:val="VT0(0):5"/>
				<v:ud v:nameU="TopLeftOffset" v:prompt="" v:val="VT0(0.15748031496063):24"/>
				<v:ud v:nameU="TopRightOffset" v:prompt="" v:val="VT0(0.15748031496063):24"/>
				<v:ud v:nameU="BotLeftOffset" v:prompt="" v:val="VT0(0.15748031496063):24"/>
				<v:ud v:nameU="BotRightOffset" v:prompt="" v:val="VT0(0.15748031496063):24"/>
				<v:ud v:nameU="visVersion" v:prompt="" v:val="VT0(15):26"/>
				<v:ud v:nameU="TopLeftOffset" v:prompt="" v:val="VT0(0.0515791776028):1"/>
				<v:ud v:nameU="TopRightOffset" v:prompt="" v:val="VT0(0.0515791776028):1"/>
				<v:ud v:nameU="BotLeftOffset" v:prompt="" v:val="VT0(0.0515791776028):1"/>
				<v:ud v:nameU="BotRightOffset" v:prompt="" v:val="VT0(0.0515791776028):1"/>
			</v:userDefs>
			<v:textBlock v:margins="rect(4,4,4,4)" v:tabSpace="42.5197"/>
			<v:textRect cx="18.5685" cy="47.6317" width="37.14" height="21.2598"/>
			<path d="M3.71 58.26 L33.42 58.26 A3.71364 3.71364 -180 0 0 37.14 54.55 L37.14 40.72 A3.71364 3.71364 -180 0 0 33.42
						 37 L3.71 37 A3.71364 3.71364 -180 0 0 -0 40.72 L0 54.55 A3.71364 3.71364 -180 0 0 3.71 58.26 Z"
					class="st1"/>
			<text x="5.56" y="49.43" class="st2" v:langID="2052"><v:paragraph v:horizAlign="1"/><v:tabList/>Presenter</text>		</g>
		<g id="shape120-7" v:mID="120" v:groupContext="shape" transform="translate(250.108,-18.5009)">
			<title>圆角矩形.120</title>
			<desc>Model</desc>
			<v:userDefs>
				<v:ud v:nameU="CTypeTopLeftSnip" v:prompt="" v:val="VT0(0):5"/>
				<v:ud v:nameU="CTypeTopRightSnip" v:prompt="" v:val="VT0(0):5"/>
				<v:ud v:nameU="CTypeBotLeftSnip" v:prompt="" v:val="VT0(0):5"/>
				<v:ud v:nameU="CTypeBotRightSnip" v:prompt="" v:val="VT0(0):5"/>
				<v:ud v:nameU="CornerLockHoriz" v:prompt="" v:val="VT0(1):5"/>
				<v:ud v:nameU="CornerLockVert" v:prompt="" v:val="VT0(1):5"/>
				<v:ud v:nameU="CornerLockDiag" v:prompt="" v:val="VT0(0):5"/>
				<v:ud v:nameU="TopLeftOffset" v:prompt="" v:val="VT0(0.15748031496063):24"/>
				<v:ud v:nameU="TopRightOffset" v:prompt="" v:val="VT0(0.15748031496063):24"/>
				<v:ud v:nameU="BotLeftOffset" v:prompt="" v:val="VT0(0.15748031496063):24"/>
				<v:ud v:nameU="BotRightOffset" v:prompt="" v:val="VT0(0.15748031496063):24"/>
				<v:ud v:nameU="visVersion" v:prompt="" v:val="VT0(15):26"/>
				<v:ud v:nameU="TopLeftOffset" v:prompt="" v:val="VT0(0.0515791776028):1"/>
				<v:ud v:nameU="TopRightOffset" v:prompt="" v:val="VT0(0.0515791776028):1"/>
				<v:ud v:nameU="BotLeftOffset" v:prompt="" v:val="VT0(0.0515791776028):1"/>
				<v:ud v:nameU="BotRightOffset" v:prompt="" v:val="VT0(0.0515791776028):1"/>
			</v:userDefs>
			<v:textBlock v:margins="rect(4,4,4,4)" v:tabSpace="42.5197"/>
			<v:textRect cx="18.5685" cy="47.6317" width="37.14" height="21.2598"/>
			<path d="M3.71 58.26 L33.42 58.26 A3.71364 3.71364 -180 0 0 37.14 54.55 L37.14 40.72 A3.71364 3.71364 -180 0 0 33.42
						 37 L3.71 37 A3.71364 3.71364 -180 0 0 -0 40.72 L0 54.55 A3.71364 3.71364 -180 0 0 3.71 58.26 Z"
					class="st1"/>
			<text x="10.4" y="49.43" class="st2" v:langID="2052"><v:paragraph v:horizAlign="1"/><v:tabList/>Model</text>		</g>
		<g id="shape121-10" v:mID="121" v:groupContext="shape" transform="translate(78.1383,87.3908) rotate(179.58)">
			<title>普通箭头</title>
			<v:userDefs>
				<v:ud v:nameU="visVersion" v:val="VT0(15):26"/>
				<v:ud v:nameU="ArrowType" v:prompt="" v:val="VT0(2):26"/>
			</v:userDefs>
			<path d="M0 58.26 L9.64 52.59 L9.64 55.43 L29 55.43 L29 58.26 L29 61.1 L9.64 61.1 L9.64 63.93 L0 58.26 Z" class="st3"/>
		</g>
		<g id="shape122-12" v:mID="122" v:groupContext="shape" transform="translate(0.25,-19.7607)">
			<title>工作表.122</title>
			<desc>User Interaction</desc>
			<v:textBlock v:margins="rect(4,4,4,4)" v:tabSpace="42.5197"/>
			<v:textRect cx="24.6473" cy="48.2616" width="49.3" height="20"/>
			<rect x="0" y="38.2616" width="49.2947" height="20" class="st4"/>
			<text x="18.31" y="46.46" class="st2" v:langID="2052"><v:paragraph v:horizAlign="1"/><v:tabList/>User <tspan x="10.64"
						dy="1.2em" class="st5">Interaction</tspan></text>		</g>
		<g id="shape124-16" v:mID="124" v:groupContext="shape" v:layerMember="0" transform="translate(99.8721,-32.6741)">
			<title>动态连接线.124</title>
			<desc>Passes callback to</desc>
			<v:textBlock v:margins="rect(4,4,4,4)" v:tabSpace="42.5197"/>
			<v:textRect cx="40.4654" cy="40.5451" width="59.37" height="15.2035"/>
			<path d="M0 51.17 C0 40.55 20.23 40.55 40.47 40.55 C55.65 40.55 70.84 40.55 77.47 45.04 L77.65 45.36" class="st6"/>
			<rect v:rectContext="textBkgnd" x="15.6206" y="36.9454" width="49.6898" height="7.20016" class="st8"/>
			<text x="15.62" y="42.35" class="st2" v:langID="2052"><v:paragraph v:horizAlign="1"/><v:tabList/>Passes callback to</text>		</g>
		<g id="shape125-24" v:mID="125" v:groupContext="shape" v:layerMember="0" transform="translate(180.803,-11.4143)">
			<title>动态连接线.125</title>
			<desc>Updates</desc>
			<v:textBlock v:margins="rect(4,4,4,4)" v:tabSpace="42.5197"/>
			<v:textRect cx="-40.4654" cy="61.8049" width="32.02" height="15.2035"/>
			<path d="M0 51.17 C0 61.8 -20.23 61.8 -40.47 61.8 C-55.65 61.8 -70.84 61.8 -77.47 57.31 L-77.65 56.99" class="st6"/>
			<rect v:rectContext="textBkgnd" x="-51.6389" y="58.2052" width="22.3473" height="7.20016" class="st8"/>
			<text x="-51.64" y="63.61" class="st2" v:langID="2052"><v:paragraph v:horizAlign="1"/><v:tabList/>Updates</text>		</g>
		<g id="shape126-31" v:mID="126" v:groupContext="shape" v:layerMember="0" transform="translate(180.803,-32.6741)">
			<title>动态连接线.126</title>
			<desc>Manipulates</desc>
			<v:textBlock v:margins="rect(4,4,4,4)" v:tabSpace="42.5197"/>
			<v:textRect cx="43.937" cy="40.5451" width="42.03" height="15.2035"/>
			<path d="M0 51.17 C0 40.55 21.97 40.55 43.94 40.55 C60.54 40.55 77.14 40.55 84.26 45.13 L84.45 45.44" class="st6"/>
			<rect v:rectContext="textBkgnd" x="27.7613" y="36.9454" width="32.3517" height="7.20016" class="st9"/>
			<text x="27.76" y="42.35" class="st2" v:langID="2052"><v:paragraph v:horizAlign="1"/><v:tabList/>Manipulates</text>		</g>
		<g id="shape127-38" v:mID="127" v:groupContext="shape" v:layerMember="0" transform="translate(268.677,-11.4143)">
			<title>动态连接线.127</title>
			<desc>Fires events</desc>
			<v:textBlock v:margins="rect(4,4,4,4)" v:tabSpace="42.5197"/>
			<v:textRect cx="-43.937" cy="61.8049" width="42.35" height="15.2035"/>
			<path d="M0 51.17 C0 61.8 -21.97 61.8 -43.94 61.8 C-60.54 61.8 -77.14 61.8 -84.26 57.22 L-84.45 56.91" class="st6"/>
			<rect v:rectContext="textBkgnd" x="-60.2756" y="58.2052" width="32.6775" height="7.20016" class="st8"/>
			<text x="-60.28" y="63.61" class="st2" v:langID="2052"><v:paragraph v:horizAlign="1"/><v:tabList/>Fires events</text>		</g>
	</g>
</svg>
