<?xml version="1.0" encoding="UTF-8" standalone="no"?>
<!DOCTYPE svg PUBLIC "-//W3C//DTD SVG 1.1//EN" "http://www.w3.org/Graphics/SVG/1.1/DTD/svg11.dtd">
<!-- 由 Microsoft Visio, SVG Export 生成 Microsoft_Visio___13.svg 页-1 -->
<svg xmlns="http://www.w3.org/2000/svg" xmlns:xlink="http://www.w3.org/1999/xlink" xmlns:ev="http://www.w3.org/2001/xml-events"
		xmlns:v="http://schemas.microsoft.com/visio/2003/SVGExtensions/" width="4.02918in" height="1.44034in"
		viewBox="0 0 290.101 103.705" xml:space="preserve" color-interpolation-filters="sRGB" class="st8">
	<v:documentProperties v:langID="2052" v:metric="true" v:viewMarkup="false"/>

	<style type="text/css">
	<![CDATA[
		.st1 {fill:#ffffff;stroke:#000000;stroke-linecap:round;stroke-linejoin:round;stroke-width:0.24}
		.st2 {fill:#000000;font-family:Calibri;font-size:0.833336em}
		.st3 {fill:none;stroke:none;stroke-linecap:round;stroke-linejoin:round;stroke-width:0.75}
		.st4 {fill:#000000;font-family:Calibri;font-size:0.666664em}
		.st5 {stroke:#000000;stroke-linecap:round;stroke-linejoin:round;stroke-width:0.24}
		.st6 {stroke:#000000;stroke-linecap:round;stroke-linejoin:round;stroke-width:0.25}
		.st7 {fill:#000000;font-family:Calibri;font-size:0.75em}
		.st8 {fill:none;fill-rule:evenodd;font-size:12px;overflow:visible;stroke-linecap:square;stroke-miterlimit:3}
	]]>
	</style>

	<g v:mID="0" v:index="1" v:groupContext="foregroundPage">
		<title>页-1</title>
		<v:pageProperties v:drawingScale="0.0393701" v:pageScale="0.0393701" v:drawingUnits="24" v:shadowOffsetX="8.50394"
				v:shadowOffsetY="-8.50394"/>
		<v:layer v:name="电气" v:index="0"/>
		<v:layer v:name="连接线" v:index="1"/>
		<g id="shape1-1" v:mID="1" v:groupContext="shape" transform="translate(1.6205,-22.7972)">
			<title>矩形.1</title>
			<v:userDefs>
				<v:ud v:nameU="visVersion" v:val="VT0(14):26"/>
			</v:userDefs>
			<rect x="0" y="50.4222" width="112.14" height="53.2824" class="st1"/>
		</g>
		<g id="shape2-3" v:mID="2" v:groupContext="shape" transform="translate(202.107,-0.12)">
			<title>矩形</title>
			<desc>Chip</desc>
			<v:userDefs>
				<v:ud v:nameU="visVersion" v:val="VT0(14):26"/>
			</v:userDefs>
			<v:textBlock v:margins="rect(4,4,4,4)" v:tabSpace="42.5197"/>
			<v:textRect cx="43.937" cy="51.9723" width="87.88" height="103.465"/>
			<rect x="0" y="0.240002" width="87.874" height="103.465" class="st1"/>
			<text x="48.43" y="54.97" class="st2" v:langID="2052"><v:paragraph v:horizAlign="1"/><v:tabList/>Chip</text>		</g>
		<g id="shape3-6" v:mID="3" v:groupContext="shape" transform="translate(128.777,133.027) rotate(-135)">
			<title>中心拖动圆形.3</title>
			<v:userDefs>
				<v:ud v:nameU="visVersion" v:val="VT0(14):26"/>
			</v:userDefs>
			<path d="M-4.68 103.7 A4.67693 4.67693 0 0 1 4.68 103.7 A4.67693 4.67693 0 1 1 -4.68 103.7 Z" class="st1"/>
		</g>
		<g id="shape5-8" v:mID="5" v:groupContext="shape" transform="translate(206.95,-37.0649)">
			<title>工作表.5</title>
			<desc>MICx_P</desc>
			<v:textBlock v:margins="rect(1,1,1,1)" v:tabSpace="42.5197"/>
			<v:textRect cx="14.243" cy="96.905" width="28.49" height="13.5992"/>
			<rect x="0" y="90.1053" width="28.486" height="13.5992" class="st3"/>
			<text x="1.89" y="99.31" class="st4" v:langID="2052"><v:paragraph v:horizAlign="1"/><v:tabList/>MICx_P</text>		</g>
		<g id="shape6-11" v:mID="6" v:groupContext="shape" transform="translate(40.4306,132.838) rotate(-135)">
			<title>Center drag circle.7</title>
			<v:userDefs>
				<v:ud v:nameU="visVersion" v:val="VT0(14):26"/>
			</v:userDefs>
			<path d="M-4.68 103.7 A4.67693 4.67693 0 0 1 4.68 103.7 A4.67693 4.67693 0 1 1 -4.68 103.7 Z" class="st1"/>
		</g>
		<g id="group7-13" transform="translate(142.107,-37.8663)" v:mID="7" v:groupContext="group" v:layerMember="0">
			<v:userDefs>
				<v:ud v:nameU="Form" v:val="VT0(0):26"/>
				<v:ud v:nameU="Type" v:val="VT0(0):26"/>
				<v:ud v:nameU="visVersion" v:val="VT0(14):26"/>
				<v:ud v:nameU="visDescription" v:val="VT4(表示固定或可变电容器。)"/>
			</v:userDefs>
			<title>电容器</title>
			<g id="shape8-14" v:mID="8" v:groupContext="shape" v:layerMember="0" transform="translate(79.9927,19.5738) rotate(45)">
				<title>工作表.8</title>
			</g>
			<g id="shape9-16" v:mID="9" v:groupContext="shape" v:layerMember="0" transform="translate(9.92126,0)">
				<title>工作表.9</title>
				<path d="M2.83 103.7 L2.83 92.37" class="st5"/>
				<path d="M5.67 103.7 L5.67 92.37" class="st5"/>
			</g>
			<g id="shape10-20" v:mID="10" v:groupContext="shape" v:layerMember="0" transform="translate(0,-5.66929)">
				<title>工作表.10</title>
				<path d="M0 103.7 L12.76 103.7" class="st5"/>
				<path d="M15.59 103.7 L28.35 103.7" class="st5"/>
			</g>
		</g>
		<g id="shape11-24" v:mID="11" v:groupContext="shape" v:layerMember="1" transform="translate(142.107,-36.5065)">
			<title>动态连接线</title>
			<path d="M0 96.68 L-23.7 96.56" class="st6"/>
		</g>
		<g id="shape12-27" v:mID="12" v:groupContext="shape" v:layerMember="1" transform="translate(170.454,-36.4949)">
			<title>动态连接线.12</title>
			<path d="M0 96.66 L26.99 96.57" class="st6"/>
		</g>
		<g id="shape13-30" v:mID="13" v:groupContext="shape" transform="translate(128.777,88.1405) rotate(-135)">
			<title>中心拖动圆形.13</title>
			<v:userDefs>
				<v:ud v:nameU="visVersion" v:val="VT0(14):26"/>
			</v:userDefs>
			<path d="M-4.68 103.7 A4.67693 4.67693 0 0 1 4.68 103.7 A4.67693 4.67693 0 1 1 -4.68 103.7 Z" class="st1"/>
		</g>
		<g id="shape14-32" v:mID="14" v:groupContext="shape" transform="translate(0.375,-39.805)">
			<title>工作表.14</title>
			<desc>Analog MIC</desc>
			<v:textBlock v:margins="rect(1,1,1,1)" v:tabSpace="42.5197"/>
			<v:textRect cx="28.3465" cy="95.2006" width="56.7" height="17.0079"/>
			<rect x="0" y="86.6967" width="56.6929" height="17.0079" class="st3"/>
			<text x="7.3" y="97.9" class="st7" v:langID="2052"><v:paragraph v:horizAlign="1"/><v:tabList/>Analog MIC</text>		</g>
		<g id="shape15-35" v:mID="15" v:groupContext="shape" transform="translate(73.8358,-36.7759)">
			<title>工作表.15</title>
			<desc>OUTPUT</desc>
			<v:textBlock v:margins="rect(1,1,1,1)" v:tabSpace="42.5197"/>
			<v:textRect cx="19.8425" cy="96.618" width="39.69" height="14.1732"/>
			<rect x="0" y="89.5313" width="39.685" height="14.1732" class="st3"/>
			<text x="6.1" y="99.02" class="st4" v:langID="2052"><v:paragraph v:horizAlign="1"/><v:tabList/>OUTPUT</text>		</g>
		<g id="shape16-38" v:mID="16" v:groupContext="shape" transform="translate(39.82,-27.9124)">
			<title>工作表.16</title>
			<desc>GND</desc>
			<v:textBlock v:margins="rect(1,1,1,1)" v:tabSpace="42.5197"/>
			<v:textRect cx="17.0079" cy="98.0353" width="34.02" height="11.3386"/>
			<rect x="0" y="92.366" width="34.0157" height="11.3386" class="st3"/>
			<text x="9.44" y="100.44" class="st4" v:langID="2052"><v:paragraph v:horizAlign="1"/><v:tabList/>GND</text>		</g>
		<g id="shape17-41" v:mID="17" v:groupContext="shape" v:layerMember="0" transform="translate(-42.9549,103.585) rotate(-90)">
			<title>接地</title>
			<v:userDefs>
				<v:ud v:nameU="visVersion" v:val="VT0(14):26"/>
				<v:ud v:nameU="visDescription" v:val="VT4(表示接地。)"/>
			</v:userDefs>
			<path d="M0 98.64 L0 101.17" class="st5"/>
			<path d="M1.27 97.37 L1.27 102.44" class="st5"/>
			<path d="M2.53 96.1 L2.53 103.7" class="st5"/>
			<path d="M19.01 99.9 L2.53 99.9" class="st5"/>
		</g>
		<g id="shape18-47" v:mID="18" v:groupContext="shape" transform="translate(206.169,-80.7173)">
			<title>工作表.18</title>
			<desc>MIC_BIAS</desc>
			<v:textBlock v:margins="rect(1,1,1,1)" v:tabSpace="42.5197"/>
			<v:textRect cx="17.7165" cy="95.9093" width="35.44" height="15.5906"/>
			<rect x="0" y="88.114" width="35.4331" height="15.5906" class="st3"/>
			<text x="1.83" y="98.31" class="st4" v:langID="2052"><v:paragraph v:horizAlign="1"/><v:tabList/>MIC_BIAS</text>		</g>
		<g id="shape25-50" v:mID="25" v:groupContext="shape" transform="translate(11.9642,100.955) rotate(-135)">
			<title>Center drag circle.25</title>
			<v:userDefs>
				<v:ud v:nameU="visVersion" v:val="VT0(14):26"/>
			</v:userDefs>
			<path d="M-4.68 103.7 A4.67693 4.67693 0 0 1 4.68 103.7 A4.67693 4.67693 0 1 1 -4.68 103.7 Z" class="st1"/>
		</g>
		<g id="shape26-52" v:mID="26" v:groupContext="shape" transform="translate(62.6172,-58.2302)">
			<title>工作表.26</title>
			<desc>VDD</desc>
			<v:textBlock v:margins="rect(1,1,1,1)" v:tabSpace="42.5197"/>
			<v:textRect cx="19.8425" cy="96.618" width="39.69" height="14.1732"/>
			<rect x="0" y="89.5313" width="39.685" height="14.1732" class="st3"/>
			<text x="12.65" y="99.02" class="st4" v:langID="2052"><v:paragraph v:horizAlign="1"/><v:tabList/>VDD</text>		</g>
		<g id="shape27-55" v:mID="27" v:groupContext="shape" transform="translate(85.2944,-80.7565)">
			<title>工作表.27</title>
			<path d="M112.14 95.53 L0 95.53 L0 103.7" class="st6"/>
		</g>
		<g id="shape4-58" v:mID="4" v:groupContext="shape" transform="translate(-16.2623,154.11) rotate(-135)">
			<title>中心拖动圆形.10</title>
			<v:userDefs>
				<v:ud v:nameU="visVersion" v:val="VT0(14):26"/>
			</v:userDefs>
			<path d="M-4.68 103.7 A4.67693 4.67693 0 0 1 4.68 103.7 A4.67693 4.67693 0 1 1 -4.68 103.7 Z" class="st1"/>
		</g>
	</g>
</svg>
