<?xml version="1.0" encoding="UTF-8" standalone="no"?>
<!DOCTYPE svg PUBLIC "-//W3C//DTD SVG 1.1//EN" "http://www.w3.org/Graphics/SVG/1.1/DTD/svg11.dtd">
<!-- 由 Microsoft Visio, SVG Export 生成 Microsoft_Visio___18.svg 页-1 -->
<svg xmlns="http://www.w3.org/2000/svg" xmlns:xlink="http://www.w3.org/1999/xlink" xmlns:ev="http://www.w3.org/2001/xml-events"
		xmlns:v="http://schemas.microsoft.com/visio/2003/SVGExtensions/" width="2.66291in" height="2.92323in"
		viewBox="0 0 191.73 210.473" xml:space="preserve" color-interpolation-filters="sRGB" class="st13">
	<v:documentProperties v:langID="2052" v:metric="true" v:viewMarkup="false"/>

	<style type="text/css">
	<![CDATA[
		.st1 {fill:#000000}
		.st2 {stroke:#000000;stroke-linecap:butt;stroke-width:0.793701}
		.st3 {fill:#000000;font-family:Calibri;font-size:0.666664em}
		.st4 {fill:none;stroke:#000000;stroke-width:0.75}
		.st5 {fill:#000000;font-family:Calibri;font-size:1.00001em}
		.st6 {stroke:#000000;stroke-linecap:round;stroke-linejoin:round;stroke-width:0.75}
		.st7 {stroke:#000000;stroke-linecap:butt;stroke-width:1.13386}
		.st8 {fill:#000000;font-family:Calibri;font-size:0.833336em}
		.st9 {fill:none}
		.st10 {stroke:#000000;stroke-width:0.75}
		.st11 {font-size:1em}
		.st12 {fill:none;stroke:none;stroke-width:0.75}
		.st13 {fill:none;fill-rule:evenodd;font-size:12px;overflow:visible;stroke-linecap:square;stroke-miterlimit:3}
	]]>
	</style>

	<g v:mID="0" v:index="1" v:groupContext="foregroundPage">
		<v:userDefs>
			<v:ud v:nameU="MicrophoneCount" v:prompt="" v:val="VT0(3):26"/>
			<v:ud v:nameU="SpeakerCount" v:prompt="" v:val="VT0(2):26"/>
		</v:userDefs>
		<title>页-1</title>
		<v:pageProperties v:drawingScale="0.0393701" v:pageScale="0.0393701" v:drawingUnits="24" v:shadowOffsetX="8.50394"
				v:shadowOffsetY="-8.50394"/>
		<v:layer v:name="电气" v:index="0"/>
		<v:layer v:name="流程图" v:index="1"/>
		<g id="shape1-1" v:mID="1" v:groupContext="shape" v:layerMember="0" transform="translate(11.4105,-179.892)">
			<title>扩音器</title>
			<desc>MIC1</desc>
			<v:custProps>
				<v:cp v:nameU="Type" v:lbl="扩音器类型" v:type="1" v:format="标准;电容器;推拉" v:langID="2052" v:val="VT4(标准)"/>
				<v:cp v:nameU="Label" v:lbl="Label" v:prompt="" v:type="0" v:format="@" v:sortKey="" v:invis="false" v:ask="false"
						v:langID="2052" v:cal="0" v:val="VT4()"/>
				<v:cp v:nameU="Label" v:lbl="" v:prompt="" v:type="0" v:format="" v:sortKey="" v:invis="false" v:ask="false"
						v:langID="0" v:cal="0" v:val="VT4(MIC1)"/>
			</v:custProps>
			<v:userDefs>
				<v:ud v:nameU="Type" v:val="VT0(0):26"/>
				<v:ud v:nameU="visVersion" v:val="VT0(15):26"/>
				<v:ud v:nameU="visDescription" v:val="VT4(Standard, capacitor or push-pull microphone.)"/>
				<v:ud v:nameU="Label" v:prompt="" v:val="VT4()"/>
				<v:ud v:nameU="SolSH" v:prompt="" v:val="VT4({2EE3C7D2-E26E-4B72-9E9C-5170DDBF261A})"/>
				<v:ud v:nameU="Label" v:prompt="" v:val="VT4(MK1)"/>
			</v:userDefs>
			<v:textBlock v:margins="rect(1,1,1,1)" v:tabSpace="34.0157" v:verticalAlign="0"/>
			<v:textRect cx="9.92126" cy="216.275" width="20.99" height="11.6036"/>
			<path d="M10.25 192.34 C14.78 192.34 18.46 196.02 18.46 200.55 C18.46 205.08 14.78 208.77 10.25 208.77 C5.73 208.77 2.05
						 205.08 2.05 200.55 C2.05 196.02 5.73 192.34 10.25 192.34 ZM10.25 209.96 C15.43 209.96 19.64 205.74 19.64
						 200.55 C19.64 195.37 15.43 191.15 10.25 191.15 C5.08 191.15 0.86 195.37 0.86 200.55 C0.86 205.74 5.08 209.96
						 10.25 209.96 ZM18.65 210.47 L18.65 190.63 L19.84 190.63 L19.84 210.47 L18.65 210.47 Z" class="st1"/>
			<path d="M19.25 210.47 L19.25 190.63" class="st2"/>
			<path d="M10.25 209.96 C15.43 209.96 19.64 205.74 19.64 200.55 C19.64 195.37 15.43 191.15 10.25 191.15 C5.08 191.15 0.86
						 195.37 0.86 200.55 C0.86 205.74 5.08 209.96 10.25 209.96" class="st2"/>
			<path d="M18.65 210.47 L18.65 190.63 L19.84 190.63 L19.84 210.47 L18.65 210.47" class="st2"/>
			<text x="1.33" y="218.67" class="st3" v:langID="2052"><v:paragraph v:horizAlign="1"/><v:tabList/>MIC1</text>		</g>
		<g id="shape2-7" v:mID="2" v:groupContext="shape" v:layerMember="0" transform="translate(11.4105,-143.207)">
			<title>扩音器.2</title>
			<desc>MIC2</desc>
			<v:custProps>
				<v:cp v:nameU="Type" v:lbl="扩音器类型" v:type="1" v:format="标准;电容器;推拉" v:langID="2052" v:val="VT4(标准)"/>
				<v:cp v:nameU="Label" v:lbl="Label" v:prompt="" v:type="0" v:format="@" v:sortKey="" v:invis="false" v:ask="false"
						v:langID="2052" v:cal="0" v:val="VT4()"/>
				<v:cp v:nameU="Label" v:lbl="" v:prompt="" v:type="0" v:format="" v:sortKey="" v:invis="false" v:ask="false"
						v:langID="0" v:cal="0" v:val="VT4(MIC2)"/>
			</v:custProps>
			<v:userDefs>
				<v:ud v:nameU="Type" v:val="VT0(0):26"/>
				<v:ud v:nameU="visVersion" v:val="VT0(15):26"/>
				<v:ud v:nameU="visDescription" v:val="VT4(Standard, capacitor or push-pull microphone.)"/>
				<v:ud v:nameU="Label" v:prompt="" v:val="VT4()"/>
				<v:ud v:nameU="SolSH" v:prompt="" v:val="VT4({2EE3C7D2-E26E-4B72-9E9C-5170DDBF261A})"/>
				<v:ud v:nameU="Label" v:prompt="" v:val="VT4(MK2)"/>
			</v:userDefs>
			<v:textBlock v:margins="rect(1,1,1,1)" v:tabSpace="34.0157" v:verticalAlign="0"/>
			<v:textRect cx="9.92126" cy="216.275" width="20.99" height="11.6036"/>
			<path d="M10.25 192.34 C14.78 192.34 18.46 196.02 18.46 200.55 C18.46 205.08 14.78 208.77 10.25 208.77 C5.73 208.77 2.05
						 205.08 2.05 200.55 C2.05 196.02 5.73 192.34 10.25 192.34 ZM10.25 209.96 C15.43 209.96 19.64 205.74 19.64
						 200.55 C19.64 195.37 15.43 191.15 10.25 191.15 C5.08 191.15 0.86 195.37 0.86 200.55 C0.86 205.74 5.08 209.96
						 10.25 209.96 ZM18.65 210.47 L18.65 190.63 L19.84 190.63 L19.84 210.47 L18.65 210.47 Z" class="st1"/>
			<path d="M19.25 210.47 L19.25 190.63" class="st2"/>
			<path d="M10.25 209.96 C15.43 209.96 19.64 205.74 19.64 200.55 C19.64 195.37 15.43 191.15 10.25 191.15 C5.08 191.15 0.86
						 195.37 0.86 200.55 C0.86 205.74 5.08 209.96 10.25 209.96" class="st2"/>
			<path d="M18.65 210.47 L18.65 190.63 L19.84 190.63 L19.84 210.47 L18.65 210.47" class="st2"/>
			<text x="1.33" y="218.67" class="st3" v:langID="2052"><v:paragraph v:horizAlign="1"/><v:tabList/>MIC2</text>		</g>
		<g id="shape3-13" v:mID="3" v:groupContext="shape" v:layerMember="1" transform="translate(101.883,-98.0648)">
			<title>流程</title>
			<desc>Chip</desc>
			<v:custProps>
				<v:cp v:nameU="Cost" v:lbl="成本" v:prompt="" v:type="7" v:format="@" v:sortKey="" v:invis="false" v:ask="false"
						v:langID="2052" v:cal="0"/>
				<v:cp v:nameU="ProcessNumber" v:lbl="进程编号" v:prompt="" v:type="2" v:format="" v:sortKey="" v:invis="false"
						v:ask="false" v:langID="2052" v:cal="0"/>
				<v:cp v:nameU="Owner" v:lbl="所有者" v:prompt="" v:type="0" v:format="" v:sortKey="" v:invis="false" v:ask="false"
						v:langID="2052" v:cal="0"/>
				<v:cp v:nameU="Function" v:lbl="函数" v:prompt="" v:type="0" v:format="" v:sortKey="" v:invis="false" v:ask="false"
						v:langID="2052" v:cal="0" v:val="VT4()"/>
				<v:cp v:nameU="StartDate" v:lbl="开始日期" v:prompt="" v:type="5" v:format="" v:sortKey="" v:invis="false"
						v:ask="false" v:langID="2052" v:cal="0"/>
				<v:cp v:nameU="EndDate" v:lbl="结束日期" v:prompt="" v:type="5" v:format="" v:sortKey="" v:invis="false" v:ask="false"
						v:langID="2052" v:cal="0"/>
				<v:cp v:nameU="Status" v:lbl="状态" v:prompt="" v:type="4" v:format=";未开始;进行中;已完成;已推迟;正在等待输入" v:sortKey=""
						v:invis="false" v:ask="false" v:langID="2052" v:cal="0" v:val="VT4()"/>
			</v:custProps>
			<v:userDefs>
				<v:ud v:nameU="visVersion" v:prompt="" v:val="VT0(15):26"/>
				<v:ud v:nameU="DefaultWidth" v:prompt="" v:val="VT0(0.98425196850394):24"/>
				<v:ud v:nameU="DefaultHeight" v:prompt="" v:val="VT0(0.59055118110236):24"/>
				<v:ud v:nameU="ResizeTxtHeight" v:prompt="" v:val="VT0(0.59055118110236):24"/>
			</v:userDefs>
			<v:textBlock v:margins="rect(2,2,2,2)" v:tabSpace="42.5197"/>
			<v:textRect cx="44.5483" cy="155.197" width="89.1" height="110.551"/>
			<rect x="0" y="99.9217" width="89.0966" height="110.551" class="st4"/>
			<text x="33.67" y="158.8" class="st5" v:langID="2052"><v:paragraph v:horizAlign="1"/><v:tabList/>Chip</text>		</g>
		<g id="shape4-16" v:mID="4" v:groupContext="shape" transform="translate(101.883,223.152) rotate(180)">
			<title>工作表.4</title>
			<path d="M0 210.47 L70.35 210.47" class="st6"/>
		</g>
		<g id="shape5-19" v:mID="5" v:groupContext="shape" transform="translate(101.883,239.271) rotate(180)">
			<title>工作表.5</title>
			<path d="M0 210.47 L70.06 210.47" class="st6"/>
		</g>
		<g id="shape6-22" v:mID="6" v:groupContext="shape" transform="translate(101.883,260.802) rotate(180)">
			<title>工作表.6</title>
			<path d="M0 210.47 L70.99 210.47" class="st6"/>
		</g>
		<g id="shape7-25" v:mID="7" v:groupContext="shape" transform="translate(101.891,275.968) rotate(180)">
			<title>工作表.7</title>
			<path d="M0 210.47 L70.57 210.47" class="st6"/>
		</g>
		<g id="shape8-28" v:mID="8" v:groupContext="shape" transform="translate(101.883,296.5) rotate(180)">
			<title>工作表.8</title>
			<path d="M0 210.47 L73.9 210.47" class="st6"/>
		</g>
		<g id="shape9-31" v:mID="9" v:groupContext="shape" transform="translate(101.883,311.897) rotate(180)">
			<title>工作表.9</title>
			<path d="M0 210.47 L59.72 210.47" class="st6"/>
		</g>
		<g id="shape10-34" v:mID="10" v:groupContext="shape" transform="translate(341.269,112.762) rotate(90)">
			<title>工作表.10</title>
			<path d="M0 210.47 L24.09 210.47" class="st6"/>
		</g>
		<g id="shape11-37" v:mID="11" v:groupContext="shape" transform="translate(368.765,112.762) rotate(90)">
			<title>工作表.11</title>
			<path d="M0 210.47 L23.98 210.47" class="st6"/>
		</g>
		<g id="shape12-40" v:mID="12" v:groupContext="shape" v:layerMember="1" transform="translate(108.97,-55.2044)">
			<title>开始/结束</title>
			<desc>Class-D/Class-AB</desc>
			<v:custProps>
				<v:cp v:nameU="Cost" v:lbl="成本" v:prompt="" v:type="7" v:format="@" v:sortKey="" v:invis="false" v:ask="false"
						v:langID="2052" v:cal="0"/>
				<v:cp v:nameU="ProcessNumber" v:lbl="进程编号" v:prompt="" v:type="2" v:format="" v:sortKey="" v:invis="false"
						v:ask="false" v:langID="2052" v:cal="0"/>
				<v:cp v:nameU="Owner" v:lbl="所有者" v:prompt="" v:type="0" v:format="" v:sortKey="" v:invis="false" v:ask="false"
						v:langID="2052" v:cal="0"/>
				<v:cp v:nameU="Function" v:lbl="函数" v:prompt="" v:type="0" v:format="" v:sortKey="" v:invis="false" v:ask="false"
						v:langID="2052" v:cal="0" v:val="VT4()"/>
				<v:cp v:nameU="StartDate" v:lbl="开始日期" v:prompt="" v:type="5" v:format="" v:sortKey="" v:invis="false"
						v:ask="false" v:langID="2052" v:cal="0"/>
				<v:cp v:nameU="EndDate" v:lbl="结束日期" v:prompt="" v:type="5" v:format="" v:sortKey="" v:invis="false" v:ask="false"
						v:langID="2052" v:cal="0"/>
				<v:cp v:nameU="Status" v:lbl="状态" v:prompt="" v:type="4" v:format=";未开始;进行中;已完成;已推迟;正在等待输入" v:sortKey=""
						v:invis="false" v:ask="false" v:langID="2052" v:cal="0" v:val="VT4()"/>
			</v:custProps>
			<v:userDefs>
				<v:ud v:nameU="visVersion" v:prompt="" v:val="VT0(15):26"/>
				<v:ud v:nameU="DefaultWidth" v:prompt="" v:val="VT0(0.98425196850394):24"/>
				<v:ud v:nameU="DefaultHeight" v:prompt="" v:val="VT0(0.39370078740157):24"/>
				<v:ud v:nameU="ResizeTxtHeight" v:prompt="" v:val="VT0(0.39370078740157):24"/>
			</v:userDefs>
			<v:textBlock v:margins="rect(2,2,2,2)" v:tabSpace="42.5197"/>
			<v:textRect cx="35.4331" cy="201.402" width="70.87" height="18.1417"/>
			<path d="M9.07 210.47 L61.8 210.47 A9.07087 9.07087 -180 0 0 61.8 192.33 L9.07 192.33 A9.07087 9.07087 -180 1 0 9.07
						 210.47 Z" class="st4"/>
			<text x="8.3" y="203.8" class="st3" v:langID="2052"><v:paragraph v:horizAlign="1"/><v:tabList/>Class-D/Class-AB</text>		</g>
		<g id="shape13-43" v:mID="13" v:groupContext="shape" v:layerMember="0" transform="translate(340.702,176.542) rotate(90)">
			<title>扬声器</title>
			<v:custProps>
				<v:cp v:nameU="Label" v:lbl="Label" v:prompt="" v:type="0" v:format="@" v:sortKey="" v:invis="false" v:ask="false"
						v:langID="2052" v:cal="0" v:val="VT4()"/>
				<v:cp v:nameU="Label" v:lbl="" v:prompt="" v:type="0" v:format="" v:sortKey="" v:invis="false" v:ask="false"
						v:langID="0" v:cal="0" v:val="VT4(SPK1)"/>
			</v:custProps>
			<v:userDefs>
				<v:ud v:nameU="Type" v:val="VT0(0):26"/>
				<v:ud v:nameU="CHMin" v:val="VT0(0.25590551181102):24"/>
				<v:ud v:nameU="visDescription" v:val="VT4(Speaker. Right-click to add/remove microphone.)"/>
				<v:ud v:nameU="visVersion" v:val="VT0(15):26"/>
				<v:ud v:nameU="Label" v:prompt="" v:val="VT4()"/>
				<v:ud v:nameU="SolSH" v:prompt="" v:val="VT4({2EE3C7D2-E26E-4B72-9E9C-5170DDBF261A})"/>
				<v:ud v:nameU="CHMin" v:prompt="" v:val="VT0(0.19685039370079):24"/>
				<v:ud v:nameU="Label" v:prompt="" v:val="VT4(SPK1)"/>
			</v:userDefs>
			<v:textBlock v:margins="rect(1,1,1,1)" v:tabSpace="34.0157" v:verticalAlign="0"/>
			<v:textRect cx="26.9291" cy="196.494" width="24.29" height="14.0036" transform="rotate(-90)"/>
			<path d="M3.5 202.57 L3.5 190.03 L10.49 190.03 L10.49 202.57 L3.5 202.57 ZM12.19 201.52 L12.19 191.08 L20.5 186.34 L20.5
						 206.26 L12.19 201.52 ZM22.2 209.66 L22.2 209.66 L22.2 182.94 L10.49 190.06 L10.49 202.58 L22.2 209.66 Z"
					class="st1"/>
			<path d="M-0 198.6 L3.54 198.6" class="st7"/>
			<path d="M-0 194 L3.54 194" class="st7"/>
			<text x="-206.51" y="29.93" transform="rotate(-90)" class="st8" v:langID="2052"><v:paragraph v:horizAlign="1"/><v:tabList/>SPK1</text>		</g>
		<g id="shape14-48" v:mID="14" v:groupContext="shape" transform="translate(-68.3719,176.542) rotate(-90)">
			<title>工作表.14</title>
			<path d="M0 210.47 L21.08 210.47" class="st6"/>
		</g>
		<g id="shape15-51" v:mID="15" v:groupContext="shape" transform="translate(-63.7685,176.542) rotate(-90)">
			<title>工作表.15</title>
			<path d="M0 210.47 L20.93 210.47" class="st6"/>
		</g>
		<g id="shape16-54" v:mID="16" v:groupContext="shape" v:layerMember="1" transform="translate(0.75,-30.2358)">
			<title>数据库</title>
			<desc>Audio voice band RC filter</desc>
			<v:custProps>
				<v:cp v:nameU="Cost" v:lbl="成本" v:prompt="" v:type="7" v:format="@" v:sortKey="" v:invis="false" v:ask="false"
						v:langID="2052" v:cal="0"/>
				<v:cp v:nameU="ProcessNumber" v:lbl="进程编号" v:prompt="" v:type="2" v:format="" v:sortKey="" v:invis="false"
						v:ask="false" v:langID="2052" v:cal="0"/>
				<v:cp v:nameU="Owner" v:lbl="所有者" v:prompt="" v:type="0" v:format="" v:sortKey="" v:invis="false" v:ask="false"
						v:langID="2052" v:cal="0"/>
				<v:cp v:nameU="Function" v:lbl="函数" v:prompt="" v:type="0" v:format="" v:sortKey="" v:invis="false" v:ask="false"
						v:langID="2052" v:cal="0" v:val="VT4()"/>
				<v:cp v:nameU="StartDate" v:lbl="开始日期" v:prompt="" v:type="5" v:format="" v:sortKey="" v:invis="false"
						v:ask="false" v:langID="2052" v:cal="0"/>
				<v:cp v:nameU="EndDate" v:lbl="结束日期" v:prompt="" v:type="5" v:format="" v:sortKey="" v:invis="false" v:ask="false"
						v:langID="2052" v:cal="0"/>
				<v:cp v:nameU="Status" v:lbl="状态" v:prompt="" v:type="4" v:format=";未开始;进行中;已完成;已推迟;正在等待输入" v:sortKey=""
						v:invis="false" v:ask="false" v:langID="2052" v:cal="0" v:val="VT4()"/>
			</v:custProps>
			<v:userDefs>
				<v:ud v:nameU="visVersion" v:prompt="" v:val="VT0(15):26"/>
				<v:ud v:nameU="DefaultWidth" v:prompt="" v:val="VT0(0.98425196850394):24"/>
				<v:ud v:nameU="DefaultHeight" v:prompt="" v:val="VT0(0.59055118110236):24"/>
				<v:ud v:nameU="ResizeTxtHeight" v:prompt="" v:val="VT0(0.59055118110236):24"/>
			</v:userDefs>
			<v:textBlock v:margins="rect(2,2,2,2)" v:tabSpace="42.5197"/>
			<v:textRect cx="33.4045" cy="199.134" width="61.14" height="22.6772"/>
			<path d="M2.83 187.8 L66.81 187.8 A24.0945 24.0945 0 0 1 66.81 210.47 L2.83 210.47 A24.0945 24.0945 0 0 1 2.83 187.8 Z"
					class="st9"/>
			<path d="M2.83 187.8 L66.81 187.8 A24.0945 24.0945 0 0 1 66.81 210.47 L2.83 210.47 A24.0945 24.0945 0 0 1 2.83 187.8"
					class="st10"/>
			<path d="M66.81 187.8 A24.0945 24.0945 -180 0 0 66.81 210.47" class="st10"/>
			<text x="5.31" y="196.73" class="st3" v:langID="2052"><v:paragraph v:horizAlign="1"/><v:tabList/>Audio voice band<v:newlineChar/><tspan
						x="20.41" dy="1.2em" class="st11">RC filter</tspan></text>		</g>
		<g id="shape17-60" v:mID="17" v:groupContext="shape" transform="translate(70.2149,-46.8387)">
			<title>工作表.17</title>
			<path d="M0 210.47 L71.31 210.47" class="st6"/>
		</g>
		<g id="shape18-63" v:mID="18" v:groupContext="shape" transform="translate(69.6834,-36.1413)">
			<title>工作表.18</title>
			<path d="M0 210.47 L72.02 210.47" class="st6"/>
		</g>
		<g id="shape19-66" v:mID="19" v:groupContext="shape" transform="translate(-182.485,157.147) rotate(-90)">
			<title>工作表.19</title>
			<path d="M0 210.47 L70.94 210.47" class="st6"/>
		</g>
		<g id="shape20-69" v:mID="20" v:groupContext="shape" transform="translate(-168.312,157.52) rotate(-90)">
			<title>工作表.20</title>
			<path d="M0 210.47 L56.02 210.47" class="st6"/>
		</g>
		<g id="shape21-72" v:mID="21" v:groupContext="shape" transform="translate(61.1528,-197.723)">
			<title>工作表.21</title>
			<desc>MIC1_P</desc>
			<v:textBlock v:margins="rect(2,2,2,2)" v:tabSpace="42.5197"/>
			<v:textRect cx="21.5856" cy="204.473" width="43.18" height="12"/>
			<rect x="0" y="198.473" width="43.1711" height="12" class="st12"/>
			<text x="2" y="206.87" class="st3" v:langID="2052"><v:paragraph/><v:tabList/>MIC1_P</text>		</g>
		<g id="shape23-75" v:mID="23" v:groupContext="shape" transform="translate(61.1528,-182.207)">
			<title>工作表.23</title>
			<desc>MIC1_N</desc>
			<v:textBlock v:margins="rect(2,2,2,2)" v:tabSpace="42.5197"/>
			<v:textRect cx="21.5856" cy="204.473" width="43.18" height="12"/>
			<rect x="0" y="198.473" width="43.1711" height="12" class="st12"/>
			<text x="2" y="206.87" class="st3" v:langID="2052"><v:paragraph/><v:tabList/>MIC1_N</text>		</g>
		<g id="shape25-78" v:mID="25" v:groupContext="shape" transform="translate(61.1528,-159.86)">
			<title>工作表.25</title>
			<desc>MIC2_P</desc>
			<v:textBlock v:margins="rect(2,2,2,2)" v:tabSpace="42.5197"/>
			<v:textRect cx="21.5856" cy="204.473" width="43.18" height="12"/>
			<rect x="0" y="198.473" width="43.1711" height="12" class="st12"/>
			<text x="2" y="206.87" class="st3" v:langID="2052"><v:paragraph/><v:tabList/>MIC2_P</text>		</g>
		<g id="shape26-81" v:mID="26" v:groupContext="shape" transform="translate(61.1528,-145.356)">
			<title>工作表.26</title>
			<desc>MIC2_N</desc>
			<v:textBlock v:margins="rect(2,2,2,2)" v:tabSpace="42.5197"/>
			<v:textRect cx="21.5856" cy="204.473" width="43.18" height="12"/>
			<rect x="0" y="198.473" width="43.1711" height="12" class="st12"/>
			<text x="2" y="206.87" class="st3" v:langID="2052"><v:paragraph/><v:tabList/>MIC2_N</text>		</g>
		<g id="shape27-84" v:mID="27" v:groupContext="shape" transform="translate(61.1528,-124.997)">
			<title>工作表.27</title>
			<desc>MIC3_P</desc>
			<v:textBlock v:margins="rect(2,2,2,2)" v:tabSpace="42.5197"/>
			<v:textRect cx="21.5856" cy="204.473" width="43.18" height="12"/>
			<rect x="0" y="198.473" width="43.1711" height="12" class="st12"/>
			<text x="2" y="206.87" class="st3" v:langID="2052"><v:paragraph/><v:tabList/>MIC3_P</text>		</g>
		<g id="shape28-87" v:mID="28" v:groupContext="shape" transform="translate(61.1528,-108.403)">
			<title>工作表.28</title>
			<desc>MIC3_N</desc>
			<v:textBlock v:margins="rect(2,2,2,2)" v:tabSpace="42.5197"/>
			<v:textRect cx="21.5856" cy="204.473" width="43.18" height="12"/>
			<rect x="0" y="198.473" width="43.1711" height="12" class="st12"/>
			<text x="2" y="206.87" class="st3" v:langID="2052"><v:paragraph/><v:tabList/>MIC3_N</text>		</g>
		<g id="shape30-90" v:mID="30" v:groupContext="shape" transform="translate(328.702,112.986) rotate(90)">
			<title>工作表.30</title>
			<desc>LO_P</desc>
			<v:textBlock v:margins="rect(2,2,2,2)" v:tabSpace="42.5197"/>
			<v:textRect cx="24.0945" cy="204.473" width="48.19" height="12"/>
			<rect x="0" y="198.473" width="48.189" height="12" class="st12"/>
			<text x="2" y="206.87" class="st3" v:langID="2052"><v:paragraph/><v:tabList/>LO_P</text>		</g>
		<g id="shape31-93" v:mID="31" v:groupContext="shape" transform="translate(369.049,112.986) rotate(90)">
			<title>工作表.31</title>
			<desc>LO_N</desc>
			<v:textBlock v:margins="rect(2,2,2,2)" v:tabSpace="42.5197"/>
			<v:textRect cx="21.7717" cy="204.473" width="43.55" height="12"/>
			<rect x="0" y="198.473" width="43.5433" height="12" class="st12"/>
			<text x="2" y="206.87" class="st3" v:langID="2052"><v:paragraph/><v:tabList/>LO_N</text>		</g>
	</g>
</svg>
