<?xml version="1.0" encoding="UTF-8" standalone="no"?>
<!DOCTYPE svg PUBLIC "-//W3C//DTD SVG 1.1//EN" "http://www.w3.org/Graphics/SVG/1.1/DTD/svg11.dtd">
<!-- 由 Microsoft Visio, SVG Export 生成 Microsoft_Visio___21.svg 页-1 -->
<svg xmlns="http://www.w3.org/2000/svg" xmlns:xlink="http://www.w3.org/1999/xlink" xmlns:ev="http://www.w3.org/2001/xml-events"
		xmlns:v="http://schemas.microsoft.com/visio/2003/SVGExtensions/" width="5.96167in" height="5.61601in"
		viewBox="0 0 429.24 404.352" xml:space="preserve" color-interpolation-filters="sRGB" class="st51">
	<v:documentProperties v:langID="2052" v:metric="true" v:viewMarkup="false"/>

	<style type="text/css">
	<![CDATA[
		.st1 {fill:url(#grad0-4);stroke:#ffc000;stroke-linecap:round;stroke-linejoin:round;stroke-width:0.5}
		.st2 {fill:#ffffff;stroke:#404040;stroke-linecap:round;stroke-linejoin:round;stroke-width:0.5}
		.st3 {fill:#000000;font-family:Calibri;font-size:0.666664em}
		.st4 {fill:url(#grad0-19);stroke:#8a98ab;stroke-width:0.75}
		.st5 {fill:url(#grad0-4);stroke:#ed7d31;stroke-linecap:round;stroke-linejoin:round;stroke-width:0.5}
		.st6 {fill:url(#grad0-4);stroke:#70ad47;stroke-linecap:round;stroke-linejoin:round;stroke-width:0.5}
		.st7 {fill:url(#grad0-4);stroke:#1f477d;stroke-linecap:round;stroke-linejoin:round;stroke-width:0.5}
		.st8 {marker-end:url(#mrkr5-40);marker-start:url(#mrkr5-38);stroke:#ed7d31;stroke-linecap:round;stroke-linejoin:round;stroke-width:1}
		.st9 {fill:#ed7d31;fill-opacity:1;stroke:#ed7d31;stroke-opacity:1;stroke-width:0.28409090909091}
		.st10 {fill:#ffffff;stroke:none;stroke-linecap:butt;stroke-width:7.2}
		.st11 {fill:#d16d2a;font-family:Calibri;font-size:0.666664em}
		.st12 {font-size:1em;text-decoration:underline}
		.st13 {marker-end:url(#mrkr5-52);marker-start:url(#mrkr5-50);stroke:#70ad47;stroke-linecap:round;stroke-linejoin:round;stroke-width:1}
		.st14 {fill:#70ad47;fill-opacity:1;stroke:#70ad47;stroke-opacity:1;stroke-width:0.28409090909091}
		.st15 {fill:#ffffff;stroke:none;stroke-linecap:butt}
		.st16 {fill:#62983d;font-family:Calibri;font-size:0.666664em}
		.st17 {marker-end:url(#mrkr4-60);stroke:#5b9bd5;stroke-linecap:round;stroke-linejoin:round;stroke-width:1}
		.st18 {fill:#5b9bd5;fill-opacity:1;stroke:#5b9bd5;stroke-opacity:1;stroke-width:0.28409090909091}
		.st19 {fill:#4672c4;font-family:Calibri;font-size:0.666664em}
		.st20 {marker-start:url(#mrkr5-68);stroke:#fec000;stroke-linecap:round;stroke-linejoin:round;stroke-width:1}
		.st21 {fill:#fec000;fill-opacity:1;stroke:#fec000;stroke-opacity:1;stroke-width:0.28409090909091}
		.st22 {marker-end:url(#mrkr4-104);stroke:#bdd0e9;stroke-linecap:round;stroke-linejoin:round;stroke-width:1}
		.st23 {fill:#bdd0e9;fill-opacity:1;stroke:#bdd0e9;stroke-opacity:1;stroke-width:0.28409090909091}
		.st24 {fill:none;stroke:none;stroke-width:0.25}
		.st25 {fill:#000000;font-family:Calibri;font-size:0.499992em}
		.st26 {fill:none;stroke:none;stroke-linecap:round;stroke-linejoin:round;stroke-width:0.5}
		.st27 {fill:#000000;font-family:Calibri;font-size:0.833336em}
		.st28 {fill:none;stroke:none;stroke-width:0.75}
		.st29 {fill:url(#grad0-4);stroke:#dae2f3;stroke-linecap:round;stroke-linejoin:round;stroke-width:0.5}
		.st30 {fill:#9cc3e5;font-family:Calibri;font-size:0.666664em}
		.st31 {marker-end:url(#mrkr4-195);stroke:#000000;stroke-linecap:round;stroke-linejoin:round;stroke-width:1}
		.st32 {fill:#000000;fill-opacity:1;stroke:#000000;stroke-opacity:1;stroke-width:0.28409090909091}
		.st33 {stroke:#bdd0e9;stroke-linecap:round;stroke-linejoin:round;stroke-width:1}
		.st34 {fill:#70ad47;stroke:#c7c8c8;stroke-width:0.25}
		.st35 {fill:#ed7d31;stroke:#c7c8c8;stroke-width:0.25}
		.st36 {stroke:#5b9bd5;stroke-linecap:round;stroke-linejoin:round;stroke-width:1}
		.st37 {stroke:#ffc000;stroke-linecap:round;stroke-linejoin:round;stroke-width:1}
		.st38 {fill:#ffc000;font-family:Calibri;font-size:1.00001em}
		.st39 {marker-end:url(#mrkr4-264);stroke:#fec000;stroke-linecap:round;stroke-linejoin:round;stroke-width:0.5}
		.st40 {fill:#fec000;fill-opacity:1;stroke:#fec000;stroke-opacity:1;stroke-width:0.16556291390728}
		.st41 {fill:#5b9bd5;font-family:Calibri;font-size:1.00001em}
		.st42 {marker-end:url(#mrkr5-320);stroke:#000000;stroke-linecap:round;stroke-linejoin:round;stroke-width:1}
		.st43 {marker-end:url(#mrkr5-370);marker-start:url(#mrkr5-368);stroke:#ed7d31;stroke-linecap:round;stroke-linejoin:round;stroke-width:0.75}
		.st44 {fill:#ed7d31;fill-opacity:1;stroke:#ed7d31;stroke-opacity:1;stroke-width:0.22935779816514}
		.st45 {marker-end:url(#mrkr4-379);stroke:#4677bf;stroke-linecap:round;stroke-linejoin:round;stroke-width:0.24}
		.st46 {fill:#4677bf;fill-opacity:1;stroke:#4677bf;stroke-opacity:1;stroke-width:0.08695652173913}
		.st47 {marker-end:url(#mrkr4-385);stroke:#ffc000;stroke-linecap:round;stroke-linejoin:round;stroke-width:1}
		.st48 {fill:#ffc000;fill-opacity:1;stroke:#ffc000;stroke-opacity:1;stroke-width:0.28409090909091}
		.st49 {font-family:Symbol;font-size:1em}
		.st50 {font-size:1em}
		.st51 {fill:none;fill-rule:evenodd;font-size:12px;overflow:visible;stroke-linecap:square;stroke-miterlimit:3}
	]]>
	</style>

	<defs id="Patterns_And_Gradients">
		<linearGradient id="grad0-4" x1="0" y1="0" x2="1" y2="0" gradientTransform="rotate(270 0.5 0.5)">
			<stop offset="0" stop-color="#ffffff" stop-opacity="1"/>
			<stop offset="1" stop-color="#ffffff" stop-opacity="1"/>
		</linearGradient>
		<linearGradient id="grad0-19" x1="0" y1="0" x2="1" y2="0" gradientTransform="rotate(250 0.5 0.5)">
			<stop offset="0" stop-color="#a6b6cd" stop-opacity="1"/>
			<stop offset="1" stop-color="#a6b6cd" stop-opacity="1"/>
		</linearGradient>
	</defs>
	<defs id="Markers">
		<g id="lend5">
			<path d="M 2 1 L 0 0 L 1.98117 -0.993387 C 1.67173 -0.364515 1.67301 0.372641 1.98465 1.00043 " style="stroke:none"/>
		</g>
		<marker id="mrkr5-38" class="st9" v:arrowType="5" v:arrowSize="2" v:setback="5.8" refX="5.8" orient="auto"
				markerUnits="strokeWidth" overflow="visible">
			<use xlink:href="#lend5" transform="scale(3.52) "/>
		</marker>
		<marker id="mrkr5-40" class="st9" v:arrowType="5" v:arrowSize="2" v:setback="6.16" refX="-6.16" orient="auto"
				markerUnits="strokeWidth" overflow="visible">
			<use xlink:href="#lend5" transform="scale(-3.52,-3.52) "/>
		</marker>
		<marker id="mrkr5-50" class="st14" v:arrowType="5" v:arrowSize="2" v:setback="5.8" refX="5.8" orient="auto"
				markerUnits="strokeWidth" overflow="visible">
			<use xlink:href="#lend5" transform="scale(3.52) "/>
		</marker>
		<marker id="mrkr5-52" class="st14" v:arrowType="5" v:arrowSize="2" v:setback="6.16" refX="-6.16" orient="auto"
				markerUnits="strokeWidth" overflow="visible">
			<use xlink:href="#lend5" transform="scale(-3.52,-3.52) "/>
		</marker>
		<g id="lend4">
			<path d="M 2 1 L 0 0 L 2 -1 L 2 1 " style="stroke:none"/>
		</g>
		<marker id="mrkr4-60" class="st18" v:arrowType="4" v:arrowSize="2" v:setback="7.04" refX="-7.04" orient="auto"
				markerUnits="strokeWidth" overflow="visible">
			<use xlink:href="#lend4" transform="scale(-3.52,-3.52) "/>
		</marker>
		<marker id="mrkr5-68" class="st21" v:arrowType="5" v:arrowSize="2" v:setback="5.8" refX="5.8" orient="auto"
				markerUnits="strokeWidth" overflow="visible">
			<use xlink:href="#lend5" transform="scale(3.52) "/>
		</marker>
		<marker id="mrkr4-104" class="st23" v:arrowType="4" v:arrowSize="2" v:setback="7.04" refX="-7.04" orient="auto"
				markerUnits="strokeWidth" overflow="visible">
			<use xlink:href="#lend4" transform="scale(-3.52,-3.52) "/>
		</marker>
		<marker id="mrkr4-195" class="st32" v:arrowType="4" v:arrowSize="2" v:setback="7.04" refX="-7.04" orient="auto"
				markerUnits="strokeWidth" overflow="visible">
			<use xlink:href="#lend4" transform="scale(-3.52,-3.52) "/>
		</marker>
		<marker id="mrkr4-264" class="st40" v:arrowType="4" v:arrowSize="2" v:setback="12.08" refX="-12.08" orient="auto"
				markerUnits="strokeWidth" overflow="visible">
			<use xlink:href="#lend4" transform="scale(-6.04,-6.04) "/>
		</marker>
		<marker id="mrkr5-320" class="st32" v:arrowType="5" v:arrowSize="2" v:setback="6.16" refX="-6.16" orient="auto"
				markerUnits="strokeWidth" overflow="visible">
			<use xlink:href="#lend5" transform="scale(-3.52,-3.52) "/>
		</marker>
		<marker id="mrkr5-368" class="st44" v:arrowType="5" v:arrowSize="2" v:setback="7.15" refX="7.15" orient="auto"
				markerUnits="strokeWidth" overflow="visible">
			<use xlink:href="#lend5" transform="scale(4.36) "/>
		</marker>
		<marker id="mrkr5-370" class="st44" v:arrowType="5" v:arrowSize="2" v:setback="7.63" refX="-7.63" orient="auto"
				markerUnits="strokeWidth" overflow="visible">
			<use xlink:href="#lend5" transform="scale(-4.36,-4.36) "/>
		</marker>
		<marker id="mrkr4-379" class="st46" v:arrowType="4" v:arrowSize="2" v:setback="23" refX="-23" orient="auto"
				markerUnits="strokeWidth" overflow="visible">
			<use xlink:href="#lend4" transform="scale(-11.5,-11.5) "/>
		</marker>
		<marker id="mrkr4-385" class="st48" v:arrowType="4" v:arrowSize="2" v:setback="7.04" refX="-7.04" orient="auto"
				markerUnits="strokeWidth" overflow="visible">
			<use xlink:href="#lend4" transform="scale(-3.52,-3.52) "/>
		</marker>
	</defs>
	<g v:mID="0" v:index="1" v:groupContext="foregroundPage">
		<title>页-1</title>
		<v:pageProperties v:drawingScale="0.0393701" v:pageScale="0.0393701" v:drawingUnits="24" v:shadowOffsetX="8.50394"
				v:shadowOffsetY="-8.50394"/>
		<v:layer v:name="连接线" v:index="0"/>
		<g id="shape1-1" v:mID="1" v:groupContext="shape" transform="translate(738.758,206.748) rotate(90)">
			<title>梯形.127</title>
			<v:userDefs>
				<v:ud v:nameU="visVersion" v:prompt="" v:val="VT0(15):26"/>
			</v:userDefs>
			<path d="M0 404.35 L17.09 404.35 L14.25 397.7 L2.84 397.7 L0 404.35 Z" class="st1"/>
		</g>
		<g id="shape2-5" v:mID="2" v:groupContext="shape" transform="translate(737.549,207.922) rotate(90)">
			<title>梯形.126</title>
			<v:userDefs>
				<v:ud v:nameU="visVersion" v:prompt="" v:val="VT0(15):26"/>
			</v:userDefs>
			<path d="M0 404.35 L17.09 404.35 L14.25 397.7 L2.84 397.7 L0 404.35 Z" class="st1"/>
		</g>
		<g id="shape3-8" v:mID="3" v:groupContext="shape" transform="translate(736.415,209.623) rotate(90)">
			<title>梯形.125</title>
			<v:userDefs>
				<v:ud v:nameU="visVersion" v:prompt="" v:val="VT0(15):26"/>
			</v:userDefs>
			<path d="M0 404.35 L17.09 404.35 L14.25 397.7 L2.84 397.7 L0 404.35 Z" class="st1"/>
		</g>
		<g id="shape4-11" v:mID="4" v:groupContext="shape" transform="translate(788.213,112.435) rotate(90)">
			<title>Rectangle.8</title>
			<v:userDefs>
				<v:ud v:nameU="visVersion" v:val="VT0(11):26"/>
				<v:ud v:nameU="msvThemeColors" v:val="VT0(36):26"/>
				<v:ud v:nameU="msvThemeEffects" v:val="VT0(16):26"/>
			</v:userDefs>
			<rect x="0" y="361.833" width="113.386" height="42.5197" class="st2"/>
		</g>
		<g id="shape5-13" v:mID="5" v:groupContext="shape" transform="translate(606.618,10.1244) rotate(90)">
			<title>Rectangle.121</title>
			<desc>Audio codec</desc>
			<v:userDefs>
				<v:ud v:nameU="visVersion" v:val="VT0(11):26"/>
				<v:ud v:nameU="msvThemeColors" v:val="VT0(36):26"/>
				<v:ud v:nameU="msvThemeEffects" v:val="VT0(16):26"/>
			</v:userDefs>
			<v:textBlock v:margins="rect(4,1,4,1)" v:tabSpace="42.5197"/>
			<v:textRect cx="79.2182" cy="383.093" width="158.44" height="42.5197"/>
			<rect x="0" y="361.833" width="158.436" height="42.5197" class="st2"/>
			<text x="59.19" y="385.49" class="st3" v:langID="2052"><v:paragraph v:horizAlign="1"/><v:tabList/>Audio codec</text>		</g>
		<g id="shape6-16" v:mID="6" v:groupContext="shape" transform="translate(788.213,0.75) rotate(90)">
			<title>矩形.8</title>
			<v:userDefs>
				<v:ud v:nameU="visVersion" v:val="VT0(11):26"/>
				<v:ud v:nameU="msvThemeColors" v:val="VT0(36):26"/>
				<v:ud v:nameU="msvThemeEffects" v:val="VT0(16):26"/>
			</v:userDefs>
			<rect x="0" y="361.833" width="85.1599" height="42.5197" class="st4"/>
		</g>
		<g id="shape7-20" v:mID="7" v:groupContext="shape" transform="translate(-112.07,28.2459) rotate(-90) scale(-1,1)">
			<title>梯形.4</title>
			<v:userDefs>
				<v:ud v:nameU="visVersion" v:prompt="" v:val="VT0(15):26"/>
			</v:userDefs>
			<path d="M0 404.35 L17.09 404.35 L14.25 397.7 L2.84 397.7 L0 404.35 Z" class="st5"/>
		</g>
		<g id="shape8-23" v:mID="8" v:groupContext="shape" transform="translate(-112.07,52.3404) rotate(-90) scale(-1,1)">
			<title>梯形.14</title>
			<v:userDefs>
				<v:ud v:nameU="visVersion" v:prompt="" v:val="VT0(15):26"/>
			</v:userDefs>
			<path d="M0 404.35 L17.9 404.35 L14.92 397.7 L2.98 397.7 L0 404.35 Z" class="st6"/>
		</g>
		<g id="shape9-26" v:mID="9" v:groupContext="shape" transform="translate(-112.07,106.199) rotate(-90) scale(-1,1)">
			<title>梯形.15</title>
			<v:userDefs>
				<v:ud v:nameU="visVersion" v:prompt="" v:val="VT0(15):26"/>
			</v:userDefs>
			<path d="M0 404.35 L17.09 404.35 L14.25 397.7 L2.84 397.7 L0 404.35 Z" class="st7"/>
		</g>
		<g id="shape10-29" v:mID="10" v:groupContext="shape" transform="translate(-112.07,134.545) rotate(-90) scale(-1,1)">
			<title>梯形.16</title>
			<v:userDefs>
				<v:ud v:nameU="visVersion" v:prompt="" v:val="VT0(15):26"/>
			</v:userDefs>
			<path d="M0 404.35 L17.09 404.35 L14.25 397.7 L2.84 397.7 L0 404.35 Z" class="st1"/>
		</g>
		<g id="shape11-32" v:mID="11" v:groupContext="shape" v:layerMember="0" transform="translate(285.63,-360.347)">
			<title>动态连接线</title>
			<desc>BCLK</desc>
			<v:textBlock v:margins="rect(4,4,4,4)" v:tabSpace="42.5197"/>
			<v:textRect cx="-20.4983" cy="397.266" width="40" height="17.6036"/>
			<path d="M-5.8 397.27 L-6.16 397.27 L-34.84 397.27" class="st8"/>
			<rect v:rectContext="textBkgnd" x="-28.5665" y="392.466" width="16.1364" height="9.59985" class="st10"/>
			<text x="-28.57" y="399.67" class="st11" v:langID="2052"><v:paragraph v:horizAlign="1"/><v:tabList/><tspan class="st12">BCLK</tspan></text>		</g>
		<g id="shape12-44" v:mID="12" v:groupContext="shape" v:layerMember="0" transform="translate(285.498,-336.422)">
			<title>动态连接线.9</title>
			<desc>LR_TX</desc>
			<v:textBlock v:margins="rect(4,4,4,4)" v:tabSpace="42.5197"/>
			<v:textRect cx="-20.4322" cy="397.266" width="40" height="17.6036"/>
			<path d="M-5.8 397.27 L-6.16 397.27 L-34.7 397.27" class="st13"/>
			<rect v:rectContext="textBkgnd" x="-30.3034" y="392.466" width="19.7422" height="9.59985" class="st15"/>
			<text x="-30.3" y="399.67" class="st16" v:langID="2052"><v:paragraph v:horizAlign="1"/><v:tabList/>LR_TX</text>		</g>
		<g id="shape13-55" v:mID="13" v:groupContext="shape" v:layerMember="0" transform="translate(285.357,-282.563)">
			<title>动态连接线.10</title>
			<desc>DIN</desc>
			<v:textBlock v:margins="rect(4,4,4,4)" v:tabSpace="42.5197"/>
			<v:textRect cx="-20.3614" cy="397.266" width="40" height="17.6036"/>
			<path d="M0 397.27 L-33.68 397.27" class="st17"/>
			<rect v:rectContext="textBkgnd" x="-26.4123" y="392.466" width="12.1017" height="9.59985" class="st10"/>
			<text x="-26.41" y="399.67" class="st19" v:langID="1028"><v:paragraph v:horizAlign="1"/><v:tabList/>DIN</text>		</g>
		<g id="shape14-63" v:mID="14" v:groupContext="shape" v:layerMember="0" transform="translate(245.393,-254.817)">
			<title>动态连接线.11</title>
			<desc>DOUT</desc>
			<v:textBlock v:margins="rect(4,4,4,4)" v:tabSpace="42.5197"/>
			<v:textRect cx="19.9699" cy="397.266" width="40" height="17.6036"/>
			<path d="M5.8 397.27 L6.16 397.27 L39.94 397.27" class="st20"/>
			<rect v:rectContext="textBkgnd" x="10.3448" y="392.466" width="19.25" height="9.59985" class="st10"/>
			<text x="10.34" y="399.67" class="st3" v:langID="1028"><v:paragraph v:horizAlign="1"/><v:tabList/>DOUT</text>		</g>
		<g id="shape15-71" v:mID="15" v:groupContext="shape" v:layerMember="0" transform="translate(383.861,-390.879)">
			<title>动态连接线.15</title>
			<path d="M-5.8 404.35 L-6.16 404.35 L-77.24 404.35 L-77.24 422.41 L-85.42 422.41" class="st8"/>
		</g>
		<g id="shape16-78" v:mID="16" v:groupContext="shape" v:layerMember="0" transform="translate(383.861,-272.548)">
			<title>动态连接线.25</title>
			<path d="M-5.8 404.35 L-6.16 404.35 L-77.24 404.35 L-77.24 314.57 L-85.42 314.57" class="st8"/>
		</g>
		<g id="shape17-85" v:mID="17" v:groupContext="shape" v:layerMember="0" transform="translate(383.861,-371.004)">
			<title>动态连接线.26</title>
			<path d="M-5.8 404.35 L-6.16 404.35 L-70.28 404.35 L-70.28 427.16 L-85.42 427.16" class="st13"/>
		</g>
		<g id="shape18-92" v:mID="18" v:groupContext="shape" v:layerMember="0" transform="translate(383.861,-246.752)">
			<title>动态连接线.27</title>
			<path d="M-5.8 404.35 L-6.16 404.35 L-70.66 404.35 L-70.66 313.27 L-85.42 313.27" class="st13"/>
		</g>
		<g id="shape19-99" v:mID="19" v:groupContext="shape" v:layerMember="0" transform="translate(383.861,-235.225)">
			<title>动态连接线.28</title>
			<path d="M0 404.35 L-63.42 404.35 L-63.42 329.09 L-84.38 329.09" class="st22"/>
		</g>
		<g id="shape20-105" v:mID="20" v:groupContext="shape" v:layerMember="0" transform="translate(383.861,-351.223)">
			<title>动态连接线.29</title>
			<path d="M0 404.35 L-56.11 404.35 L-56.11 461.11 L-84.54 461.11" class="st17"/>
		</g>
		<g id="shape21-110" v:mID="21" v:groupContext="shape" v:layerMember="0" transform="translate(383.65,-203.845)">
			<title>动态连接线.30</title>
			<path d="M0 397.27 L-38.81 397.27" class="st17"/>
		</g>
		<g id="shape22-115" v:mID="22" v:groupContext="shape" v:layerMember="0" transform="translate(330.928,-189.244)">
			<title>动态连接线.20</title>
			<path d="M-5.8 404.35 L-6.16 404.35 L-24.73 404.35 L-24.73 337.02 L-38.65 337.02" class="st20"/>
		</g>
		<g id="shape23-120" v:mID="23" v:groupContext="shape" transform="translate(384.565,-386.311)">
			<title>工作表.23</title>
			<desc>BCLK</desc>
			<v:textBlock v:margins="rect(4,4,4,4)" v:tabSpace="42.5197"/>
			<v:textRect cx="20.2677" cy="399.959" width="40.54" height="8.7874"/>
			<rect x="0" y="395.565" width="40.5354" height="8.7874" class="st24"/>
			<text x="14.22" y="401.76" class="st25" v:langID="2052"><v:paragraph v:horizAlign="1"/><v:tabList/>BCLK</text>		</g>
		<g id="shape24-123" v:mID="24" v:groupContext="shape" transform="translate(384.565,-366.752)">
			<title>工作表.24</title>
			<desc>LR</desc>
			<v:textBlock v:margins="rect(4,4,4,4)" v:tabSpace="42.5197"/>
			<v:textRect cx="20.2677" cy="399.959" width="40.54" height="8.7874"/>
			<rect x="0" y="395.565" width="40.5354" height="8.7874" class="st24"/>
			<text x="17.38" y="401.76" class="st25" v:langID="2052"><v:paragraph v:horizAlign="1"/><v:tabList/>LR</text>		</g>
		<g id="shape25-126" v:mID="25" v:groupContext="shape" transform="translate(384.565,-346.626)">
			<title>工作表.25</title>
			<desc>DIN</desc>
			<v:textBlock v:margins="rect(4,4,4,4)" v:tabSpace="42.5197"/>
			<v:textRect cx="20.2677" cy="399.959" width="40.54" height="8.7874"/>
			<rect x="0" y="395.565" width="40.5354" height="8.7874" class="st24"/>
			<text x="15.73" y="401.76" class="st25" v:langID="2052"><v:paragraph v:horizAlign="1"/><v:tabList/>DIN</text>		</g>
		<g id="shape26-129" v:mID="26" v:groupContext="shape" transform="translate(384.565,-326.44)">
			<title>工作表.26</title>
			<desc>DOUT</desc>
			<v:textBlock v:margins="rect(4,4,4,4)" v:tabSpace="42.5197"/>
			<v:textRect cx="20.2677" cy="399.959" width="40.54" height="8.7874"/>
			<rect x="0" y="395.565" width="40.5354" height="8.7874" class="st24"/>
			<text x="13.05" y="401.76" class="st25" v:langID="2052"><v:paragraph v:horizAlign="1"/><v:tabList/>DOUT</text>		</g>
		<g id="shape27-132" v:mID="27" v:groupContext="shape" transform="translate(384.853,-268.107)">
			<title>工作表.27</title>
			<desc>BCLK</desc>
			<v:textBlock v:margins="rect(4,4,4,4)" v:tabSpace="42.5197"/>
			<v:textRect cx="20.2677" cy="399.959" width="40.54" height="8.7874"/>
			<rect x="0" y="395.565" width="40.5354" height="8.7874" class="st24"/>
			<text x="14.22" y="401.76" class="st25" v:langID="2052"><v:paragraph v:horizAlign="1"/><v:tabList/>BCLK</text>		</g>
		<g id="shape28-135" v:mID="28" v:groupContext="shape" transform="translate(384.853,-243.172)">
			<title>工作表.28</title>
			<desc>LR_TX</desc>
			<v:textBlock v:margins="rect(4,4,4,4)" v:tabSpace="42.5197"/>
			<v:textRect cx="20.2677" cy="399.959" width="40.54" height="8.7874"/>
			<rect x="0" y="395.565" width="40.5354" height="8.7874" class="st24"/>
			<text x="12.86" y="401.76" class="st25" v:langID="2052"><v:paragraph v:horizAlign="1"/><v:tabList/>LR_TX</text>		</g>
		<g id="shape29-138" v:mID="29" v:groupContext="shape" transform="translate(384.853,-230.963)">
			<title>工作表.29</title>
			<desc>LR_RX</desc>
			<v:textBlock v:margins="rect(4,4,4,4)" v:tabSpace="42.5197"/>
			<v:textRect cx="20.2677" cy="399.959" width="40.54" height="8.7874"/>
			<rect x="0" y="395.565" width="40.5354" height="8.7874" class="st24"/>
			<text x="12.7" y="401.76" class="st25" v:langID="2052"><v:paragraph v:horizAlign="1"/><v:tabList/>LR_RX</text>		</g>
		<g id="shape30-141" v:mID="30" v:groupContext="shape" transform="translate(384.853,-206.453)">
			<title>工作表.30</title>
			<desc>DOUT</desc>
			<v:textBlock v:margins="rect(4,4,4,4)" v:tabSpace="42.5197"/>
			<v:textRect cx="20.2677" cy="399.959" width="40.54" height="8.7874"/>
			<rect x="0" y="395.565" width="40.5354" height="8.7874" class="st24"/>
			<text x="13.05" y="401.76" class="st25" v:langID="2052"><v:paragraph v:horizAlign="1"/><v:tabList/>DOUT</text>		</g>
		<g id="shape31-144" v:mID="31" v:groupContext="shape" transform="translate(384.853,-183.604)">
			<title>工作表.31</title>
			<desc>DIN</desc>
			<v:textBlock v:margins="rect(4,4,4,4)" v:tabSpace="42.5197"/>
			<v:textRect cx="20.2677" cy="401.801" width="40.54" height="5.10236"/>
			<rect x="0" y="399.25" width="40.5354" height="5.10236" class="st24"/>
			<text x="15.73" y="403.6" class="st25" v:langID="2052"><v:paragraph v:horizAlign="1"/><v:tabList/>DIN</text>		</g>
		<g id="shape32-147" v:mID="32" v:groupContext="shape" transform="translate(385.587,-166.343)">
			<title>Rectangle.46</title>
			<desc>SPORT0</desc>
			<v:textBlock v:margins="rect(4,1,4,1)" v:tabSpace="42.5197"/>
			<v:textRect cx="20.2677" cy="400.1" width="40.54" height="8.50394"/>
			<rect x="0" y="395.849" width="40.5354" height="8.50394" class="st26"/>
			<text x="4.39" y="403.1" class="st27" v:langID="2052"><v:paragraph v:horizAlign="1"/><v:tabList/>SPORT0</text>		</g>
		<g id="shape33-150" v:mID="33" v:groupContext="shape" transform="translate(384.853,-305.059)">
			<title>矩形.30</title>
			<desc>Ext. PCM</desc>
			<v:textBlock v:margins="rect(4,1,4,1)" v:tabSpace="42.5197"/>
			<v:textRect cx="20.2677" cy="399.959" width="40.54" height="8.7874"/>
			<rect x="0" y="395.565" width="40.5354" height="8.7874" class="st28"/>
			<text x="2.07" y="402.96" class="st27" v:langID="2052"><v:paragraph v:horizAlign="1"/><v:tabList/>Ext. PCM</text>		</g>
		<g id="shape34-153" v:mID="34" v:groupContext="shape" v:layerMember="0" transform="translate(364.018,-272.453)">
			<title>动态连接线.31</title>
			<path d="M0 410.15 L0 410.51 L0 538.51 L-105.1 538.51" class="st8"/>
		</g>
		<g id="shape35-160" v:mID="35" v:groupContext="shape" v:layerMember="0" transform="translate(348.427,-246.752)">
			<title>动态连接线.32</title>
			<path d="M0 410.15 L0 410.51 L0 535.12 L-89.51 535.12" class="st13"/>
		</g>
		<g id="shape36-167" v:mID="36" v:groupContext="shape" v:layerMember="0" transform="translate(319.081,-208.012)">
			<title>动态连接线.33</title>
			<path d="M0 404.35 L0 516.6 L-21.65 516.6" class="st17"/>
		</g>
		<g id="shape37-172" v:mID="37" v:groupContext="shape" transform="translate(-112.127,79.7959) rotate(-90) scale(-1,1)">
			<title>梯形.81</title>
			<v:userDefs>
				<v:ud v:nameU="visVersion" v:prompt="" v:val="VT0(15):26"/>
			</v:userDefs>
			<path d="M0 404.35 L17.9 404.35 L14.92 397.7 L2.98 397.7 L0 404.35 Z" class="st29"/>
		</g>
		<g id="shape38-175" v:mID="38" v:groupContext="shape" v:layerMember="0" transform="translate(284.645,-308.075)">
			<title>动态连接线.54</title>
			<desc>LR_RX</desc>
			<v:textBlock v:margins="rect(4,4,4,4)" v:tabSpace="42.5197"/>
			<v:textRect cx="-19.7525" cy="397.266" width="40" height="17.6036"/>
			<path d="M0 397.27 L-32.46 397.27" class="st22"/>
			<rect v:rectContext="textBkgnd" x="-29.8461" y="392.466" width="20.1874" height="9.59985" class="st10"/>
			<text x="-29.85" y="399.67" class="st30" v:langID="1028"><v:paragraph v:horizAlign="1"/><v:tabList/>LR_RX</text>		</g>
		<g id="shape39-182" v:mID="39" v:groupContext="shape" v:layerMember="0" transform="translate(320.376,-348.351)">
			<title>动态连接线.55</title>
			<path d="M0 404.35 L0 431.87 L-21.11 431.87" class="st22"/>
		</g>
		<g id="shape40-187" v:mID="40" v:groupContext="shape" transform="translate(384.853,-279.587)">
			<title>工作表.40</title>
			<desc>MCLK</desc>
			<v:textBlock v:margins="rect(4,4,4,4)" v:tabSpace="42.5197"/>
			<v:textRect cx="20.2677" cy="399.959" width="40.54" height="8.7874"/>
			<rect x="0" y="395.565" width="40.5354" height="8.7874" class="st24"/>
			<text x="13.28" y="401.76" class="st25" v:langID="2052"><v:paragraph v:horizAlign="1"/><v:tabList/>MCLK</text>		</g>
		<g id="shape41-190" v:mID="41" v:groupContext="shape" v:layerMember="0" transform="translate(383.861,-283.981)">
			<title>动态连接线.59</title>
			<path d="M0 404.35 L-12.65 404.35 L-12.65 526.24 L-124.06 526.24" class="st31"/>
		</g>
		<g id="shape42-196" v:mID="42" v:groupContext="shape" transform="translate(614.591,230.355) rotate(90)">
			<title>矩形.52</title>
			<v:userDefs>
				<v:ud v:nameU="visVersion" v:val="VT0(11):26"/>
				<v:ud v:nameU="msvThemeColors" v:val="VT0(36):26"/>
				<v:ud v:nameU="msvThemeEffects" v:val="VT0(16):26"/>
			</v:userDefs>
			<rect x="0" y="361.833" width="113.386" height="42.5197" class="st4"/>
		</g>
		<g id="shape43-199" v:mID="43" v:groupContext="shape" v:layerMember="0" transform="translate(383.861,-330.469)">
			<title>Dynamic connector.43</title>
			<path d="M-5.8 404.35 L-6.16 404.35 L-47.54 404.35 L-47.54 469.83 L-91.58 469.83" class="st20"/>
		</g>
		<g id="shape44-204" v:mID="44" v:groupContext="shape" transform="translate(735.281,211.566) rotate(90)">
			<title>梯形.129</title>
			<v:userDefs>
				<v:ud v:nameU="visVersion" v:prompt="" v:val="VT0(15):26"/>
			</v:userDefs>
			<path d="M0 404.35 L17.09 404.35 L14.25 397.7 L2.84 397.7 L0 404.35 Z" class="st1"/>
		</g>
		<g id="shape45-207" v:mID="45" v:groupContext="shape" v:layerMember="0" transform="translate(330.928,-179.099)">
			<title>动态连接线.135</title>
			<path d="M-5.8 404.35 L-6.16 404.35 L-24.73 404.35 L-24.73 509.09 L-40.54 509.09" class="st20"/>
		</g>
		<g id="shape46-212" v:mID="46" v:groupContext="shape" v:layerMember="0" transform="translate(309.811,-341.113)">
			<title>动态连接线.138</title>
			<path d="M3.77 397.27 L10.4 397.27" class="st33"/>
		</g>
		<g id="shape47-215" v:mID="47" v:groupContext="shape" transform="translate(211.114,-133.886)">
			<title>工作表.47</title>
			<desc>BCLK</desc>
			<v:textBlock v:margins="rect(4,4,4,4)" v:tabSpace="42.5197"/>
			<v:textRect cx="20.2677" cy="399.959" width="40.54" height="8.7874"/>
			<rect x="0" y="395.565" width="40.5354" height="8.7874" class="st24"/>
			<text x="14.22" y="401.76" class="st25" v:langID="2052"><v:paragraph v:horizAlign="1"/><v:tabList/>BCLK</text>		</g>
		<g id="shape48-218" v:mID="48" v:groupContext="shape" transform="translate(211.114,-111.776)">
			<title>工作表.48</title>
			<desc>LR</desc>
			<v:textBlock v:margins="rect(4,4,4,4)" v:tabSpace="42.5197"/>
			<v:textRect cx="20.2677" cy="399.959" width="40.54" height="8.7874"/>
			<rect x="0" y="395.565" width="40.5354" height="8.7874" class="st24"/>
			<text x="17.38" y="401.76" class="st25" v:langID="2052"><v:paragraph v:horizAlign="1"/><v:tabList/>LR</text>		</g>
		<g id="shape49-221" v:mID="49" v:groupContext="shape" transform="translate(211.114,-83.9163)">
			<title>工作表.49</title>
			<desc>DIO[3:0]</desc>
			<v:textBlock v:margins="rect(4,4,4,4)" v:tabSpace="42.5197"/>
			<v:textRect cx="20.2677" cy="399.959" width="40.54" height="8.7874"/>
			<rect x="0" y="395.565" width="40.5354" height="8.7874" class="st24"/>
			<text x="10" y="401.76" class="st25" v:langID="2052"><v:paragraph v:horizAlign="1"/><v:tabList/>DIO[3:0]</text>		</g>
		<g id="shape50-224" v:mID="50" v:groupContext="shape" transform="translate(208.821,-45.8704)">
			<title>矩形.143</title>
			<desc>Ext. I2S0</desc>
			<v:textBlock v:margins="rect(4,1,4,1)" v:tabSpace="42.5197"/>
			<v:textRect cx="22.6772" cy="398.683" width="45.36" height="11.3386"/>
			<rect x="0" y="393.014" width="45.3543" height="11.3386" class="st28"/>
			<text x="5.38" y="401.68" class="st27" v:langID="2052"><v:paragraph v:horizAlign="1"/><v:tabList/>Ext. I2S0</text>		</g>
		<g id="shape51-227" v:mID="51" v:groupContext="shape" transform="translate(311.861,-346.343)">
			<title>圆形</title>
			<v:userDefs>
				<v:ud v:nameU="visVersion" v:val="VT0(15):26"/>
			</v:userDefs>
			<path d="M0 402.56 A1.79528 1.79528 0 0 1 3.59 402.56 A1.79528 1.79528 0 1 1 0 402.56 Z" class="st34"/>
		</g>
		<g id="shape52-229" v:mID="52" v:groupContext="shape" transform="translate(346.632,-244.957)">
			<title>圆形.146</title>
			<v:userDefs>
				<v:ud v:nameU="visVersion" v:val="VT0(15):26"/>
			</v:userDefs>
			<path d="M0 402.56 A1.79528 1.79528 0 0 1 3.59 402.56 A1.79528 1.79528 0 1 1 0 402.56 Z" class="st34"/>
		</g>
		<g id="shape53-231" v:mID="53" v:groupContext="shape" transform="translate(362.223,-270.658)">
			<title>圆形.147</title>
			<v:userDefs>
				<v:ud v:nameU="visVersion" v:val="VT0(15):26"/>
			</v:userDefs>
			<path d="M0 402.56 A1.79528 1.79528 0 0 1 3.59 402.56 A1.79528 1.79528 0 1 1 0 402.56 Z" class="st35"/>
		</g>
		<g id="shape54-233" v:mID="54" v:groupContext="shape" transform="translate(211.114,-157.839)">
			<title>工作表.54</title>
			<desc>MCLK</desc>
			<v:textBlock v:margins="rect(4,4,4,4)" v:tabSpace="42.5197"/>
			<v:textRect cx="20.2677" cy="399.959" width="40.54" height="8.7874"/>
			<rect x="0" y="395.565" width="40.5354" height="8.7874" class="st24"/>
			<text x="13.28" y="401.76" class="st25" v:langID="2052"><v:paragraph v:horizAlign="1"/><v:tabList/>MCLK</text>		</g>
		<g id="shape55-236" v:mID="55" v:groupContext="shape" transform="translate(-66.7724,184.354) rotate(-90) scale(-1,1)">
			<title>梯形.150</title>
			<v:userDefs>
				<v:ud v:nameU="visVersion" v:prompt="" v:val="VT0(15):26"/>
			</v:userDefs>
			<path d="M0 404.35 L17.09 404.35 L14.25 397.7 L2.84 397.7 L0 404.35 Z" class="st7"/>
		</g>
		<g id="shape56-239" v:mID="56" v:groupContext="shape" v:layerMember="0" transform="translate(330.928,-214.532)">
			<title>动态连接线.152</title>
			<path d="M0 404.35 L-3.76 404.35 L-3.76 333.49 L-31.61 333.49" class="st17"/>
		</g>
		<g id="shape57-244" v:mID="57" v:groupContext="shape" v:layerMember="0" transform="translate(332.091,-200.925)">
			<title>动态连接线.153</title>
			<path d="M-1.16 397.27 L-13.01 397.27" class="st36"/>
		</g>
		<g id="shape58-247" v:mID="58" v:groupContext="shape" v:layerMember="0" transform="translate(299.246,-204.327)">
			<title>动态连接线.107</title>
			<path d="M3.83 399.82 L10.35 394.71" class="st37"/>
		</g>
		<g id="shape59-250" v:mID="59" v:groupContext="shape" transform="translate(291.735,-208.862)">
			<title>工作表.59</title>
			<desc>1</desc>
			<v:textBlock v:margins="rect(4,4,4,4)" v:tabSpace="42.5197"/>
			<v:textRect cx="7.08661" cy="400.1" width="14.18" height="8.50394"/>
			<rect x="0" y="395.849" width="14.1732" height="8.50394" class="st24"/>
			<text x="4.05" y="403.7" class="st38" v:langID="2052"><v:paragraph v:horizAlign="1"/><v:tabList/>1</text>		</g>
		<g id="shape60-253" v:mID="60" v:groupContext="shape" v:layerMember="0" transform="translate(299.246,-162.87)">
			<title>动态连接线.123</title>
			<path d="M3.83 399.82 L10.35 394.71" class="st37"/>
		</g>
		<g id="shape61-256" v:mID="61" v:groupContext="shape" transform="translate(291.735,-167.76)">
			<title>工作表.61</title>
			<desc>4</desc>
			<v:textBlock v:margins="rect(4,4,4,4)" v:tabSpace="42.5197"/>
			<v:textRect cx="7.08661" cy="400.1" width="14.18" height="8.50394"/>
			<rect x="0" y="395.849" width="14.1732" height="8.50394" class="st24"/>
			<text x="4.05" y="403.7" class="st38" v:langID="2052"><v:paragraph v:horizAlign="1"/><v:tabList/>4</text>		</g>
		<g id="shape62-259" v:mID="62" v:groupContext="shape" v:layerMember="0" transform="translate(337.656,-177.59)">
			<title>动态连接线.51</title>
			<path d="M0 397.27 L40.05 397.27" class="st39"/>
		</g>
		<g id="shape63-265" v:mID="63" v:groupContext="shape" v:layerMember="0" transform="translate(338.799,-179.099)">
			<title>动态连接线.129</title>
			<path d="M0 397.27 L38.8 397.27" class="st39"/>
		</g>
		<g id="shape64-270" v:mID="64" v:groupContext="shape" v:layerMember="0" transform="translate(340.106,-180.516)">
			<title>动态连接线.130</title>
			<path d="M0 397.27 L37.53 397.27" class="st39"/>
		</g>
		<g id="shape65-275" v:mID="65" v:groupContext="shape" v:layerMember="0" transform="translate(341.331,-181.933)">
			<title>动态连接线.114</title>
			<path d="M0 397.27 L36.22 397.27" class="st39"/>
		</g>
		<g id="shape66-280" v:mID="66" v:groupContext="shape" v:layerMember="0" transform="translate(320.506,-220.485)">
			<title>动态连接线.120</title>
			<path d="M3.83 399.82 L10.35 394.71" class="st36"/>
		</g>
		<g id="shape67-283" v:mID="67" v:groupContext="shape" transform="translate(312.994,-223.603)">
			<title>工作表.67</title>
			<desc>1</desc>
			<v:textBlock v:margins="rect(4,4,4,4)" v:tabSpace="42.5197"/>
			<v:textRect cx="7.08661" cy="400.1" width="14.18" height="8.50394"/>
			<rect x="0" y="395.849" width="14.1732" height="8.50394" class="st24"/>
			<text x="4.05" y="403.7" class="st41" v:langID="2052"><v:paragraph v:horizAlign="1"/><v:tabList/>1</text>		</g>
		<g id="shape68-286" v:mID="68" v:groupContext="shape" v:layerMember="0" transform="translate(311.577,-162.587)">
			<title>动态连接线.122</title>
			<path d="M3.83 399.82 L10.35 394.71" class="st36"/>
		</g>
		<g id="shape69-289" v:mID="69" v:groupContext="shape" transform="translate(320.081,-166.059)">
			<title>工作表.69</title>
			<desc>4</desc>
			<v:textBlock v:margins="rect(4,4,4,4)" v:tabSpace="42.5197"/>
			<v:textRect cx="7.08661" cy="400.1" width="14.18" height="8.50394"/>
			<rect x="0" y="395.849" width="14.1732" height="8.50394" class="st24"/>
			<text x="4.05" y="403.7" class="st41" v:langID="2052"><v:paragraph v:horizAlign="1"/><v:tabList/>4</text>		</g>
		<g id="shape70-292" v:mID="70" v:groupContext="shape" transform="translate(406.02,230.679) rotate(90)">
			<title>Rectangle.53</title>
			<v:userDefs>
				<v:ud v:nameU="visVersion" v:val="VT0(11):26"/>
				<v:ud v:nameU="msvThemeColors" v:val="VT0(36):26"/>
				<v:ud v:nameU="msvThemeEffects" v:val="VT0(16):26"/>
			</v:userDefs>
			<rect x="0" y="361.833" width="113.386" height="42.5197" class="st2"/>
		</g>
		<g id="shape71-294" v:mID="71" v:groupContext="shape" transform="translate(538.016,230.679) rotate(90)">
			<title>矩形.57</title>
			<v:userDefs>
				<v:ud v:nameU="visVersion" v:val="VT0(11):26"/>
				<v:ud v:nameU="msvThemeColors" v:val="VT0(36):26"/>
				<v:ud v:nameU="msvThemeEffects" v:val="VT0(16):26"/>
			</v:userDefs>
			<rect x="0" y="361.833" width="113.386" height="42.5197" class="st4"/>
		</g>
		<g id="shape72-297" v:mID="72" v:groupContext="shape" v:layerMember="0" transform="translate(44.0378,-131.861)">
			<title>动态连接线.58</title>
			<desc>BCLK</desc>
			<v:textBlock v:margins="rect(4,4,4,4)" v:tabSpace="42.5197"/>
			<v:textRect cx="44.8873" cy="397.266" width="40" height="17.6036"/>
			<path d="M5.8 397.27 L6.16 397.27 L83.61 397.27" class="st8"/>
			<rect v:rectContext="textBkgnd" x="36.819" y="392.466" width="16.1364" height="9.59985" class="st10"/>
			<text x="36.82" y="399.67" class="st11" v:langID="2052"><v:paragraph v:horizAlign="1"/><v:tabList/>BCLK</text>		</g>
		<g id="shape73-306" v:mID="73" v:groupContext="shape" v:layerMember="0" transform="translate(44.187,-109.426)">
			<title>动态连接线.128</title>
			<desc>LR</desc>
			<v:textBlock v:margins="rect(4,4,4,4)" v:tabSpace="42.5197"/>
			<v:textRect cx="44.7039" cy="397.266" width="40" height="17.6036"/>
			<path d="M5.8 397.27 L6.16 397.27 L83.25 397.27" class="st13"/>
			<rect v:rectContext="textBkgnd" x="40.8505" y="392.466" width="7.70691" height="9.59985" class="st10"/>
			<text x="40.85" y="399.67" class="st16" v:langID="2052"><v:paragraph v:horizAlign="1"/><v:tabList/>LR</text>		</g>
		<g id="shape74-315" v:mID="74" v:groupContext="shape" v:layerMember="0" transform="translate(44.2616,-154.539)">
			<title>动态连接线.86</title>
			<desc>MCLK</desc>
			<v:textBlock v:margins="rect(4,4,4,4)" v:tabSpace="42.5197"/>
			<v:textRect cx="44.578" cy="397.266" width="40" height="17.6036"/>
			<path d="M0 397.27 L83 397.27" class="st42"/>
			<rect v:rectContext="textBkgnd" x="35.2655" y="392.466" width="18.6248" height="9.59985" class="st10"/>
			<text x="35.27" y="399.67" class="st3" v:langID="2052"><v:paragraph v:horizAlign="1"/><v:tabList/>MCLK</text>		</g>
		<g id="shape75-323" v:mID="75" v:groupContext="shape" transform="translate(134.561,-133.886)">
			<title>工作表.75</title>
			<desc>BCLK</desc>
			<v:textBlock v:margins="rect(4,4,4,4)" v:tabSpace="42.5197"/>
			<v:textRect cx="20.2677" cy="399.959" width="40.54" height="8.7874"/>
			<rect x="0" y="395.565" width="40.5354" height="8.7874" class="st24"/>
			<text x="14.22" y="401.76" class="st25" v:langID="2052"><v:paragraph v:horizAlign="1"/><v:tabList/>BCLK</text>		</g>
		<g id="shape76-326" v:mID="76" v:groupContext="shape" transform="translate(134.561,-111.776)">
			<title>工作表.76</title>
			<desc>LR</desc>
			<v:textBlock v:margins="rect(4,4,4,4)" v:tabSpace="42.5197"/>
			<v:textRect cx="20.2677" cy="399.959" width="40.54" height="8.7874"/>
			<rect x="0" y="395.565" width="40.5354" height="8.7874" class="st24"/>
			<text x="17.38" y="401.76" class="st25" v:langID="2052"><v:paragraph v:horizAlign="1"/><v:tabList/>LR</text>		</g>
		<g id="shape77-329" v:mID="77" v:groupContext="shape" transform="translate(134.561,-157.839)">
			<title>工作表.77</title>
			<desc>MCLK</desc>
			<v:textBlock v:margins="rect(4,4,4,4)" v:tabSpace="42.5197"/>
			<v:textRect cx="20.2677" cy="399.959" width="40.54" height="8.7874"/>
			<rect x="0" y="395.565" width="40.5354" height="8.7874" class="st24"/>
			<text x="13.28" y="401.76" class="st25" v:langID="2052"><v:paragraph v:horizAlign="1"/><v:tabList/>MCLK</text>		</g>
		<g id="shape78-332" v:mID="78" v:groupContext="shape" transform="translate(134.561,-83.9163)">
			<title>工作表.78</title>
			<desc>DIO[3:0]</desc>
			<v:textBlock v:margins="rect(4,4,4,4)" v:tabSpace="42.5197"/>
			<v:textRect cx="20.2677" cy="399.959" width="40.54" height="8.7874"/>
			<rect x="0" y="395.565" width="40.5354" height="8.7874" class="st24"/>
			<text x="10" y="401.76" class="st25" v:langID="2052"><v:paragraph v:horizAlign="1"/><v:tabList/>DIO[3:0]</text>		</g>
		<g id="shape79-335" v:mID="79" v:groupContext="shape" transform="translate(132.246,-45.8704)">
			<title>矩形.137</title>
			<desc>Ext. I2S1</desc>
			<v:textBlock v:margins="rect(4,1,4,1)" v:tabSpace="42.5197"/>
			<v:textRect cx="22.6772" cy="398.683" width="45.36" height="11.3386"/>
			<rect x="0" y="393.014" width="45.3543" height="11.3386" class="st28"/>
			<text x="5.38" y="401.68" class="st27" v:langID="2052"><v:paragraph v:horizAlign="1"/><v:tabList/>Ext. I2S1</text>		</g>
		<g id="shape80-338" v:mID="80" v:groupContext="shape" transform="translate(2.32377,-134.406)">
			<title>工作表.80</title>
			<desc>BCLK</desc>
			<v:textBlock v:margins="rect(4,4,4,4)" v:tabSpace="42.5197"/>
			<v:textRect cx="20.2677" cy="399.959" width="40.54" height="8.7874"/>
			<rect x="0" y="395.565" width="40.5354" height="8.7874" class="st24"/>
			<text x="14.22" y="401.76" class="st25" v:langID="2052"><v:paragraph v:horizAlign="1"/><v:tabList/>BCLK</text>		</g>
		<g id="shape81-341" v:mID="81" v:groupContext="shape" transform="translate(2.32377,-112.296)">
			<title>工作表.81</title>
			<desc>LR_TX</desc>
			<v:textBlock v:margins="rect(4,4,4,4)" v:tabSpace="42.5197"/>
			<v:textRect cx="20.2677" cy="399.959" width="40.54" height="8.7874"/>
			<rect x="0" y="395.565" width="40.5354" height="8.7874" class="st24"/>
			<text x="12.86" y="401.76" class="st25" v:langID="2052"><v:paragraph v:horizAlign="1"/><v:tabList/>LR_TX</text>		</g>
		<g id="shape82-344" v:mID="82" v:groupContext="shape" transform="translate(2.32377,-92.7037)">
			<title>工作表.82</title>
			<desc>DOUT</desc>
			<v:textBlock v:margins="rect(4,4,4,4)" v:tabSpace="42.5197"/>
			<v:textRect cx="20.2677" cy="399.959" width="40.54" height="8.7874"/>
			<rect x="0" y="395.565" width="40.5354" height="8.7874" class="st24"/>
			<text x="13.05" y="401.76" class="st25" v:langID="2052"><v:paragraph v:horizAlign="1"/><v:tabList/>DOUT</text>		</g>
		<g id="shape83-347" v:mID="83" v:groupContext="shape" transform="translate(2.32377,-67.0502)">
			<title>工作表.83</title>
			<desc>DIN</desc>
			<v:textBlock v:margins="rect(4,4,4,4)" v:tabSpace="42.5197"/>
			<v:textRect cx="20.2677" cy="399.959" width="40.54" height="8.7874"/>
			<rect x="0" y="395.565" width="40.5354" height="8.7874" class="st24"/>
			<text x="15.73" y="401.76" class="st25" v:langID="2052"><v:paragraph v:horizAlign="1"/><v:tabList/>DIN</text>		</g>
		<g id="shape84-350" v:mID="84" v:groupContext="shape" transform="translate(2.32377,-157.201)">
			<title>工作表.84</title>
			<desc>MCLK</desc>
			<v:textBlock v:margins="rect(4,4,4,4)" v:tabSpace="42.5197"/>
			<v:textRect cx="20.2677" cy="399.959" width="40.54" height="8.7874"/>
			<rect x="0" y="395.565" width="40.5354" height="8.7874" class="st24"/>
			<text x="13.28" y="401.76" class="st25" v:langID="2052"><v:paragraph v:horizAlign="1"/><v:tabList/>MCLK</text>		</g>
		<g id="shape85-353" v:mID="85" v:groupContext="shape" transform="translate(0.25,-45.8704)">
			<title>Rectangle.143</title>
			<desc>SPORT1</desc>
			<v:textBlock v:margins="rect(4,1,4,1)" v:tabSpace="42.5197"/>
			<v:textRect cx="22.6772" cy="398.683" width="45.36" height="11.3386"/>
			<rect x="0" y="393.014" width="45.3543" height="11.3386" class="st26"/>
			<text x="6.8" y="401.68" class="st27" v:langID="2052"><v:paragraph v:horizAlign="1"/><v:tabList/>SPORT1</text>		</g>
		<g id="shape86-356" v:mID="86" v:groupContext="shape" v:layerMember="0" transform="translate(350.837,-203.477)">
			<title>Dynamic connector.106</title>
			<path d="M3.83 399.82 L10.35 394.71" class="st36"/>
		</g>
		<g id="shape87-359" v:mID="87" v:groupContext="shape" transform="translate(348.878,-214.248)">
			<title>工作表.87</title>
			<desc>4</desc>
			<v:textBlock v:margins="rect(4,4,4,4)" v:tabSpace="42.5197"/>
			<v:textRect cx="7.08661" cy="400.1" width="14.18" height="8.50394"/>
			<rect x="0" y="395.849" width="14.1732" height="8.50394" class="st24"/>
			<text x="4.05" y="403.7" class="st41" v:langID="2052"><v:paragraph v:horizAlign="1"/><v:tabList/>4</text>		</g>
		<g id="shape88-362" v:mID="88" v:groupContext="shape" v:layerMember="0" transform="translate(273.474,-81.0065)">
			<title>动态连接线.151</title>
			<path d="M-5.36 397.27 L-5.72 397.27 L-14.59 397.27" class="st43"/>
		</g>
		<g id="shape89-371" v:mID="89" v:groupContext="shape" transform="translate(479.705,295.431) rotate(90)">
			<title>梯形.155</title>
			<v:userDefs>
				<v:ud v:nameU="visVersion" v:prompt="" v:val="VT0(15):26"/>
			</v:userDefs>
			<path d="M0 404.35 L37.48 404.35 L31.25 393.73 L6.23 393.73 L0 404.35 Z" class="st1"/>
		</g>
		<g id="shape90-374" v:mID="90" v:groupContext="shape" v:layerMember="0" transform="translate(44.0319,-89.4557)">
			<title>动态连接线.156</title>
			<path d="M0 397.27 L19.85 397.27" class="st45"/>
		</g>
		<g id="shape91-380" v:mID="91" v:groupContext="shape" v:layerMember="0" transform="translate(69.3258,-64.4805)">
			<title>动态连接线.157</title>
			<path d="M0 397.27 L-18.1 397.27" class="st47"/>
		</g>
		<g id="shape92-386" v:mID="92" v:groupContext="shape" v:layerMember="0" transform="translate(85.9727,-85.5554)">
			<title>动态连接线.158</title>
			<path d="M5.36 397.27 L5.72 397.27 L41.78 397.27" class="st43"/>
		</g>
		<g id="shape93-393" v:mID="93" v:groupContext="shape" transform="translate(478.004,297.476) rotate(90)">
			<title>梯形.154</title>
			<v:userDefs>
				<v:ud v:nameU="visVersion" v:prompt="" v:val="VT0(15):26"/>
			</v:userDefs>
			<path d="M0 404.35 L37.48 404.35 L31.25 393.73 L6.23 393.73 L0 404.35 Z" class="st1"/>
		</g>
		<g id="shape94-396" v:mID="94" v:groupContext="shape" transform="translate(475.888,299.996) rotate(90)">
			<title>梯形.153</title>
			<v:userDefs>
				<v:ud v:nameU="visVersion" v:prompt="" v:val="VT0(15):26"/>
			</v:userDefs>
			<path d="M0 404.35 L37.48 404.35 L31.25 393.73 L6.23 393.73 L0 404.35 Z" class="st1"/>
		</g>
		<g id="shape95-399" v:mID="95" v:groupContext="shape" transform="translate(473.752,301.727) rotate(90)">
			<title>Trapezoid.150</title>
			<v:userDefs>
				<v:ud v:nameU="visVersion" v:prompt="" v:val="VT0(15):26"/>
			</v:userDefs>
			<path d="M0 404.35 L37.48 404.35 L31.25 393.73 L6.23 393.73 L0 404.35 Z" class="st1"/>
		</g>
		<g id="shape96-402" v:mID="96" v:groupContext="shape" transform="translate(-119.918,294.865) rotate(-90) scale(-1,1)">
			<title>梯形.160</title>
			<v:userDefs>
				<v:ud v:nameU="visVersion" v:prompt="" v:val="VT0(15):26"/>
			</v:userDefs>
			<path d="M0 404.35 L37.48 404.35 L31.25 393.73 L6.23 393.73 L0 404.35 Z" class="st1"/>
		</g>
		<g id="shape97-405" v:mID="97" v:groupContext="shape" transform="translate(-118.217,296.91) rotate(-90) scale(-1,1)">
			<title>梯形.161</title>
			<v:userDefs>
				<v:ud v:nameU="visVersion" v:prompt="" v:val="VT0(15):26"/>
			</v:userDefs>
			<path d="M0 404.35 L37.48 404.35 L31.25 393.73 L6.23 393.73 L0 404.35 Z" class="st1"/>
		</g>
		<g id="shape98-408" v:mID="98" v:groupContext="shape" transform="translate(-116.101,299.43) rotate(-90) scale(-1,1)">
			<title>梯形.162</title>
			<v:userDefs>
				<v:ud v:nameU="visVersion" v:prompt="" v:val="VT0(15):26"/>
			</v:userDefs>
			<path d="M0 404.35 L37.48 404.35 L31.25 393.73 L6.23 393.73 L0 404.35 Z" class="st1"/>
		</g>
		<g id="shape99-411" v:mID="99" v:groupContext="shape" transform="translate(-113.965,301.162) rotate(-90) scale(-1,1)">
			<title>Trapezoid.163</title>
			<v:userDefs>
				<v:ud v:nameU="visVersion" v:prompt="" v:val="VT0(15):26"/>
			</v:userDefs>
			<path d="M0 404.35 L37.48 404.35 L31.25 393.73 L6.23 393.73 L0 404.35 Z" class="st1"/>
		</g>
		<g id="shape100-414" v:mID="100" v:groupContext="shape" v:layerMember="0" transform="translate(273.597,-78.3068)">
			<title>动态连接线.164</title>
			<path d="M-5.36 397.27 L-5.72 397.27 L-14.59 397.27" class="st43"/>
		</g>
		<g id="shape101-421" v:mID="101" v:groupContext="shape" v:layerMember="0" transform="translate(273.474,-86.4058)">
			<title>动态连接线.165</title>
			<path d="M-5.36 397.27 L-5.72 397.27 L-14.59 397.27" class="st43"/>
		</g>
		<g id="shape102-428" v:mID="102" v:groupContext="shape" v:layerMember="0" transform="translate(273.597,-83.7061)">
			<title>动态连接线.166</title>
			<path d="M-5.36 397.27 L-5.72 397.27 L-14.59 397.27" class="st43"/>
		</g>
		<g id="shape103-435" v:mID="103" v:groupContext="shape" v:layerMember="0" transform="translate(85.9727,-82.8358)">
			<title>动态连接线.167</title>
			<path d="M5.36 397.27 L5.72 397.27 L41.78 397.27" class="st43"/>
		</g>
		<g id="shape104-442" v:mID="104" v:groupContext="shape" v:layerMember="0" transform="translate(85.9727,-80.1162)">
			<title>动态连接线.168</title>
			<path d="M5.36 397.27 L5.72 397.27 L41.78 397.27" class="st43"/>
		</g>
		<g id="shape105-449" v:mID="105" v:groupContext="shape" v:layerMember="0" transform="translate(85.9727,-77.3966)">
			<title>动态连接线.169</title>
			<path d="M5.36 397.27 L5.72 397.27 L41.78 397.27" class="st43"/>
		</g>
		<g id="shape106-456" v:mID="106" v:groupContext="shape" transform="translate(365.211,-51.7753)">
			<title>Rectangle.126</title>
			<v:userDefs>
				<v:ud v:nameU="visVersion" v:val="VT0(11):26"/>
				<v:ud v:nameU="msvThemeColors" v:val="VT0(36):26"/>
				<v:ud v:nameU="msvThemeEffects" v:val="VT0(16):26"/>
			</v:userDefs>
			<rect x="0" y="395.565" width="21.2598" height="8.7874" class="st4"/>
		</g>
		<g id="shape107-459" v:mID="107" v:groupContext="shape" transform="translate(386.47,-51.7753)">
			<title>工作表.107</title>
			<desc>Interface</desc>
			<v:textBlock v:margins="rect(4,4,4,4)" v:tabSpace="42.5197"/>
			<v:textRect cx="21.2598" cy="399.959" width="42.52" height="8.7874"/>
			<rect x="0" y="395.565" width="42.5197" height="8.7874" class="st26"/>
			<text x="6.61" y="402.36" class="st3" v:langID="2052"><v:paragraph v:horizAlign="1"/><v:tabList/>Interface</text>		</g>
		<g id="shape108-462" v:mID="108" v:groupContext="shape" transform="translate(58.9832,-0.64312)">
			<title>工作表.108</title>
			<desc>Note: SPORT DIN[3:0] and DOUT[3:0] are multiplexed to connect...</desc>
			<v:textBlock v:margins="rect(4,4,4,4)" v:tabSpace="42.5197"/>
			<v:textRect cx="169.892" cy="385.613" width="339.79" height="37.4781"/>
			<rect x="0" y="366.874" width="339.785" height="37.4781" class="st26"/>
			<text x="4" y="373.43" class="st3" v:langID="2052"><v:paragraph/><v:tabList/>Note:<v:newlineChar/><v:paragraph
						v:indentFirst="-18" v:indentLeft="18" v:bullet="1"/><tspan x="4" dy="1.211em" class="st49"
						v:isBullet="true">·</tspan><tspan class="st49"> </tspan>SPORT DIN[3:0] and DOUT[3:0] are multiplexed to connect to DIO[3:0] c<tspan
						class="st50" v:langID="1033">orrespondingly</tspan><tspan class="st50" v:langID="1033">.<v:newlineChar/></tspan><tspan
						x="4" dy="1.215em" class="st49" v:isBullet="true">·</tspan><tspan class="st49"> </tspan>When connected to external I2S devices, SPORT0/1 can act as master, also as slave.<v:newlineChar/><tspan
						x="4" dy="1.215em" class="st49" v:isBullet="true">·</tspan><tspan class="st49"> </tspan>SPORT0 can be connected to an internal audio codec or an external I2S device, but not both.  </text>		</g>
	</g>
</svg>
