<?xml version="1.0" encoding="UTF-8" standalone="no"?>
<!DOCTYPE svg PUBLIC "-//W3C//DTD SVG 1.1//EN" "http://www.w3.org/Graphics/SVG/1.1/DTD/svg11.dtd">
<!-- 由 Microsoft Visio, SVG Export 生成 Microsoft_Visio___10.svg 页-1 -->
<svg xmlns="http://www.w3.org/2000/svg" xmlns:xlink="http://www.w3.org/1999/xlink" xmlns:ev="http://www.w3.org/2001/xml-events"
		xmlns:v="http://schemas.microsoft.com/visio/2003/SVGExtensions/" width="5.84205in" height="4.0634in"
		viewBox="0 0 420.628 292.565" xml:space="preserve" color-interpolation-filters="sRGB" class="st6">
	<v:documentProperties v:langID="2052" v:metric="true" v:viewMarkup="false"/>

	<style type="text/css">
	<![CDATA[
		.st1 {fill:#d8d8d8;stroke:#000000;stroke-width:0.75}
		.st2 {fill:#000000;font-family:Arial;font-size:1.16666em}
		.st3 {fill:#000000;stroke:#000000;stroke-width:0.25}
		.st4 {fill:none;stroke:none;stroke-width:0.25}
		.st5 {fill:#000000;font-family:Arial;font-size:1.00001em}
		.st6 {fill:none;fill-rule:evenodd;font-size:12px;overflow:visible;stroke-linecap:square;stroke-miterlimit:3}
	]]>
	</style>

	<g v:mID="0" v:index="1" v:groupContext="foregroundPage">
		<title>页-1</title>
		<v:pageProperties v:drawingScale="0.0393701" v:pageScale="0.0393701" v:drawingUnits="24" v:shadowOffsetX="8.50394"
				v:shadowOffsetY="-8.50394"/>
		<g id="shape217-1" v:mID="217" v:groupContext="shape" transform="translate(156.122,-0.75)">
			<title>矩形.217</title>
			<desc>Audio Adapter</desc>
			<v:userDefs>
				<v:ud v:nameU="CTypeTopLeftSnip" v:prompt="" v:val="VT0(0):5"/>
				<v:ud v:nameU="CTypeTopRightSnip" v:prompt="" v:val="VT0(0):5"/>
				<v:ud v:nameU="CTypeBotLeftSnip" v:prompt="" v:val="VT0(0):5"/>
				<v:ud v:nameU="CTypeBotRightSnip" v:prompt="" v:val="VT0(0):5"/>
				<v:ud v:nameU="CornerLockHoriz" v:prompt="" v:val="VT0(1):5"/>
				<v:ud v:nameU="CornerLockVert" v:prompt="" v:val="VT0(1):5"/>
				<v:ud v:nameU="CornerLockDiag" v:prompt="" v:val="VT0(0):5"/>
				<v:ud v:nameU="TopLeftOffset" v:prompt="" v:val="VT0(0.15748031496063):24"/>
				<v:ud v:nameU="TopRightOffset" v:prompt="" v:val="VT0(0.15748031496063):24"/>
				<v:ud v:nameU="BotLeftOffset" v:prompt="" v:val="VT0(0.15748031496063):24"/>
				<v:ud v:nameU="BotRightOffset" v:prompt="" v:val="VT0(0.15748031496063):24"/>
				<v:ud v:nameU="visVersion" v:prompt="" v:val="VT0(15):26"/>
				<v:ud v:nameU="TopLeftOffset" v:prompt="" v:val="VT0(0.2509842519685):1"/>
				<v:ud v:nameU="TopRightOffset" v:prompt="" v:val="VT0(0.2509842519685):1"/>
				<v:ud v:nameU="BotLeftOffset" v:prompt="" v:val="VT0(0.2509842519685):1"/>
				<v:ud v:nameU="BotRightOffset" v:prompt="" v:val="VT0(0.2509842519685):1"/>
			</v:userDefs>
			<v:textBlock v:margins="rect(4,4,4,4)" v:tabSpace="42.5197" v:verticalAlign="0"/>
			<v:textRect cx="90.3543" cy="147.032" width="180.71" height="291.065"/>
			<path d="M18.07 292.56 L162.64 292.56 A18.0706 18.0706 -180 0 0 180.71 274.49 L180.71 19.57 A18.0706 18.0706 -180 0 0
						 162.64 1.5 L18.07 1.5 A18.0706 18.0706 -180 0 0 0 19.57 L0 274.49 A18.0706 18.0706 -180 0 0 18.07 292.56
						 Z" class="st1"/>
			<text x="45.99" y="18.1" class="st2" v:langID="2052"><v:paragraph v:horizAlign="1"/><v:tabList/>Audio Adapter</text>		</g>
		<g id="shape218-4" v:mID="218" v:groupContext="shape" transform="translate(136.634,-209.555)">
			<title>矩形.218</title>
			<v:userDefs>
				<v:ud v:nameU="visVersion" v:val="VT0(15):26"/>
			</v:userDefs>
			<path d="M0 273.08 A19.4882 19.4882 0 0 1 38.98 273.08 A19.4882 19.4882 0 1 1 0 273.08 Z" class="st1"/>
		</g>
		<g id="shape219-6" v:mID="219" v:groupContext="shape" transform="translate(136.634,-138.688)">
			<title>矩形.219</title>
			<v:userDefs>
				<v:ud v:nameU="visVersion" v:val="VT0(15):26"/>
			</v:userDefs>
			<path d="M0 273.08 A19.4882 19.4882 0 0 1 38.98 273.08 A19.4882 19.4882 0 1 1 0 273.08 Z" class="st1"/>
		</g>
		<g id="shape220-8" v:mID="220" v:groupContext="shape" transform="translate(136.634,-48.334)">
			<title>矩形.220</title>
			<v:userDefs>
				<v:ud v:nameU="visVersion" v:val="VT0(15):26"/>
			</v:userDefs>
			<path d="M0 273.08 A19.4882 19.4882 0 0 1 38.98 273.08 A19.4882 19.4882 0 1 1 0 273.08 Z" class="st1"/>
		</g>
		<g id="shape222-10" v:mID="222" v:groupContext="shape" transform="translate(322.151,-229.043)">
			<title>矩形.222</title>
			<v:userDefs>
				<v:ud v:nameU="visVersion" v:val="VT0(15):26"/>
			</v:userDefs>
			<path d="M0 276.62 A15.9449 15.9449 0 0 1 31.89 276.62 A15.9449 15.9449 0 1 1 -0 276.62 Z" class="st1"/>
		</g>
		<g id="shape223-12" v:mID="223" v:groupContext="shape" transform="translate(322.151,-192.597)">
			<title>矩形.223</title>
			<v:userDefs>
				<v:ud v:nameU="visVersion" v:val="VT0(15):26"/>
			</v:userDefs>
			<path d="M0 276.62 A15.9449 15.9449 0 0 1 31.89 276.62 A15.9449 15.9449 0 1 1 -0 276.62 Z" class="st1"/>
		</g>
		<g id="shape224-14" v:mID="224" v:groupContext="shape" transform="translate(322.151,-144.003)">
			<title>矩形.224</title>
			<v:userDefs>
				<v:ud v:nameU="visVersion" v:val="VT0(15):26"/>
			</v:userDefs>
			<path d="M0 276.62 A15.9449 15.9449 0 0 1 31.89 276.62 A15.9449 15.9449 0 1 1 -0 276.62 Z" class="st1"/>
		</g>
		<g id="shape225-16" v:mID="225" v:groupContext="shape" transform="translate(322.151,-89.7401)">
			<title>矩形.225</title>
			<v:userDefs>
				<v:ud v:nameU="visVersion" v:val="VT0(15):26"/>
			</v:userDefs>
			<path d="M0 276.62 A15.9449 15.9449 0 0 1 31.89 276.62 A15.9449 15.9449 0 1 1 -0 276.62 Z" class="st1"/>
		</g>
		<g id="shape226-18" v:mID="226" v:groupContext="shape" transform="translate(322.657,-55.4206)">
			<title>矩形.226</title>
			<v:userDefs>
				<v:ud v:nameU="visVersion" v:val="VT0(15):26"/>
			</v:userDefs>
			<path d="M0 276.62 A15.9449 15.9449 0 0 1 31.89 276.62 A15.9449 15.9449 0 1 1 -0 276.62 Z" class="st1"/>
		</g>
		<g id="shape227-20" v:mID="227" v:groupContext="shape" transform="translate(322.657,-20.4938)">
			<title>矩形.227</title>
			<v:userDefs>
				<v:ud v:nameU="visVersion" v:val="VT0(15):26"/>
			</v:userDefs>
			<path d="M0 276.62 A15.9449 15.9449 0 0 1 31.89 276.62 A15.9449 15.9449 0 1 1 -0 276.62 Z" class="st1"/>
		</g>
		<g id="shape229-22" v:mID="229" v:groupContext="shape" transform="translate(353.798,338.426) rotate(173.79)">
			<title>现代箭头</title>
			<v:userDefs>
				<v:ud v:nameU="CtrlAngle" v:prompt="" v:val="VT0(0.78539816339745):32"/>
				<v:ud v:nameU="visVersion" v:prompt="" v:val="VT0(15):26"/>
				<v:ud v:nameU="CtrlAngle" v:prompt="" v:val="VT0(0.63650820709357):32"/>
			</v:userDefs>
			<path d="M0 292.56 L11.64 283.96 L13.11 285.95 L5.83 291.33 L147.41 291.33 L147.41 293.8 L5.83 293.8 L13.11 299.18 L11.64
						 301.17 L0 292.56 Z" class="st3"/>
		</g>
		<g id="shape230-24" v:mID="230" v:groupContext="shape" transform="translate(281.617,373.766) rotate(-172.036)">
			<title>现代箭头.230</title>
			<v:userDefs>
				<v:ud v:nameU="CtrlAngle" v:prompt="" v:val="VT0(0.78539816339745):32"/>
				<v:ud v:nameU="visVersion" v:prompt="" v:val="VT0(15):26"/>
				<v:ud v:nameU="CtrlAngle" v:prompt="" v:val="VT0(0.63650820709357):32"/>
			</v:userDefs>
			<path d="M0 292.56 L11.64 283.96 L13.11 285.95 L5.83 291.33 L147.97 291.33 L147.97 293.8 L5.83 293.8 L13.11 299.18 L11.64
						 301.17 L0 292.56 Z" class="st3"/>
		</g>
		<g id="shape231-26" v:mID="231" v:groupContext="shape" transform="translate(325.688,425.16) rotate(179.307)">
			<title>现代箭头.231</title>
			<v:userDefs>
				<v:ud v:nameU="CtrlAngle" v:prompt="" v:val="VT0(0.78539816339745):32"/>
				<v:ud v:nameU="visVersion" v:prompt="" v:val="VT0(15):26"/>
				<v:ud v:nameU="CtrlAngle" v:prompt="" v:val="VT0(0.63650820709357):32"/>
			</v:userDefs>
			<path d="M0 292.56 L11.64 283.96 L13.11 285.95 L5.83 291.33 L146.55 291.33 L146.55 293.8 L5.83 293.8 L13.11 299.18 L11.64
						 301.17 L0 292.56 Z" class="st3"/>
		</g>
		<g id="shape232-28" v:mID="232" v:groupContext="shape" transform="translate(102.422,-58.5199) rotate(-14.4871)">
			<title>现代箭头.232</title>
			<v:userDefs>
				<v:ud v:nameU="CtrlAngle" v:prompt="" v:val="VT0(0.78539816339745):32"/>
				<v:ud v:nameU="visVersion" v:prompt="" v:val="VT0(15):26"/>
				<v:ud v:nameU="CtrlAngle" v:prompt="" v:val="VT0(0.63650820709357):32"/>
			</v:userDefs>
			<path d="M0 292.56 L11.64 283.96 L13.11 285.95 L5.83 291.33 L151.35 291.33 L151.35 293.8 L5.83 293.8 L13.11 299.18 L11.64
						 301.17 L0 292.56 Z" class="st3"/>
		</g>
		<g id="shape233-30" v:mID="233" v:groupContext="shape" transform="translate(168.563,-67.7373) rotate(-1.38035)">
			<title>现代箭头.233</title>
			<v:userDefs>
				<v:ud v:nameU="CtrlAngle" v:prompt="" v:val="VT0(0.78539816339745):32"/>
				<v:ud v:nameU="visVersion" v:prompt="" v:val="VT0(15):26"/>
				<v:ud v:nameU="CtrlAngle" v:prompt="" v:val="VT0(0.63650820709357):32"/>
			</v:userDefs>
			<path d="M0 292.56 L11.64 283.96 L13.11 285.95 L5.83 291.33 L147.09 291.33 L147.09 293.8 L5.83 293.8 L13.11 299.18 L11.64
						 301.17 L0 292.56 Z" class="st3"/>
		</g>
		<g id="shape234-32" v:mID="234" v:groupContext="shape" transform="translate(236.676,-61.3783) rotate(12.0476)">
			<title>现代箭头.234</title>
			<v:userDefs>
				<v:ud v:nameU="CtrlAngle" v:prompt="" v:val="VT0(0.78539816339745):32"/>
				<v:ud v:nameU="visVersion" v:prompt="" v:val="VT0(15):26"/>
				<v:ud v:nameU="CtrlAngle" v:prompt="" v:val="VT0(0.63650820709357):32"/>
			</v:userDefs>
			<path d="M0 292.56 L11.64 283.96 L13.11 285.95 L5.83 291.33 L150.36 291.33 L150.36 293.8 L5.83 293.8 L13.11 299.18 L11.64
						 301.17 L0 292.56 Z" class="st3"/>
		</g>
		<g id="shape235-34" v:mID="235" v:groupContext="shape" transform="translate(0.25,-219.159)">
			<title>工作表.235</title>
			<desc>Out Stream</desc>
			<v:textBlock v:margins="rect(4,4,4,4)" v:tabSpace="42.5197"/>
			<v:textRect cx="35.2913" cy="282.927" width="70.59" height="19.2756"/>
			<rect x="0" y="273.289" width="70.5827" height="19.2756" class="st4"/>
			<text x="5.23" y="286.53" class="st5" v:langID="2052"><v:paragraph v:horizAlign="2"/><v:tabList/>Out Stream</text>		</g>
		<g id="shape236-37" v:mID="236" v:groupContext="shape" transform="translate(126.208,356.387) rotate(-179.693)">
			<title>普通箭头</title>
			<v:userDefs>
				<v:ud v:nameU="visVersion" v:val="VT0(15):26"/>
				<v:ud v:nameU="ArrowType" v:prompt="" v:val="VT0(2):26"/>
			</v:userDefs>
			<path d="M0 292.56 L11.34 281.23 L11.34 286.9 L56.69 286.9 L56.69 292.56 L56.69 298.23 L11.34 298.23 L11.34 303.9 L0
						 292.56 Z" class="st1"/>
		</g>
		<g id="shape237-39" v:mID="237" v:groupContext="shape" transform="translate(126.208,426.949) rotate(-179.693)">
			<title>普通箭头.237</title>
			<v:userDefs>
				<v:ud v:nameU="visVersion" v:val="VT0(15):26"/>
				<v:ud v:nameU="ArrowType" v:prompt="" v:val="VT0(2):26"/>
			</v:userDefs>
			<path d="M0 292.56 L11.34 281.23 L11.34 286.9 L56.69 286.9 L56.69 292.56 L56.69 298.23 L11.34 298.23 L11.34 303.9 L0
						 292.56 Z" class="st1"/>
		</g>
		<g id="shape238-41" v:mID="238" v:groupContext="shape" transform="translate(72.9112,-67.8165) rotate(0.358094)">
			<title>普通箭头.238</title>
			<v:userDefs>
				<v:ud v:nameU="visVersion" v:val="VT0(15):26"/>
				<v:ud v:nameU="ArrowType" v:prompt="" v:val="VT0(2):26"/>
			</v:userDefs>
			<path d="M0 292.56 L11.34 281.23 L11.34 286.9 L56.69 286.9 L56.69 292.56 L56.69 298.23 L11.34 298.23 L11.34 303.9 L0
						 292.56 Z" class="st1"/>
		</g>
		<g id="shape239-43" v:mID="239" v:groupContext="shape" transform="translate(0.25,-148.293)">
			<title>工作表.239</title>
			<desc>Out Stream</desc>
			<v:textBlock v:margins="rect(4,4,4,4)" v:tabSpace="42.5197"/>
			<v:textRect cx="35.2913" cy="282.927" width="70.59" height="19.2756"/>
			<rect x="0" y="273.289" width="70.5827" height="19.2756" class="st4"/>
			<text x="5.23" y="286.53" class="st5" v:langID="2052"><v:paragraph v:horizAlign="2"/><v:tabList/>Out Stream</text>		</g>
		<g id="shape240-46" v:mID="240" v:groupContext="shape" transform="translate(0.25,-57.939)">
			<title>工作表.240</title>
			<desc>In Stream</desc>
			<v:textBlock v:margins="rect(4,4,4,4)" v:tabSpace="42.5197"/>
			<v:textRect cx="35.2913" cy="282.927" width="70.59" height="19.2756"/>
			<rect x="0" y="273.289" width="70.5827" height="19.2756" class="st4"/>
			<text x="14.56" y="286.53" class="st5" v:langID="2052"><v:paragraph v:horizAlign="2"/><v:tabList/>In Stream</text>		</g>
		<g id="shape241-49" v:mID="241" v:groupContext="shape" transform="translate(141.949,-167.247)">
			<title>工作表.241</title>
			<desc>PORT</desc>
			<v:textBlock v:margins="rect(4,4,4,4)" v:tabSpace="42.5197"/>
			<v:textRect cx="45.0709" cy="282.927" width="90.15" height="19.2756"/>
			<rect x="0" y="273.289" width="90.1417" height="19.2756" class="st4"/>
			<text x="28.4" y="286.53" class="st5" v:langID="2052"><v:paragraph v:horizAlign="1"/><v:tabList/>PORT</text>		</g>
		<g id="shape242-52" v:mID="242" v:groupContext="shape" transform="translate(354.297,-235.35)">
			<title>工作表.242</title>
			<desc>SPEAKER</desc>
			<v:textBlock v:margins="rect(4,4,4,4)" v:tabSpace="42.5197"/>
			<v:textRect cx="33.0404" cy="282.927" width="66.09" height="19.2756"/>
			<rect x="0" y="273.289" width="66.0807" height="19.2756" class="st4"/>
			<text x="4" y="286.53" class="st5" v:langID="2052"><v:paragraph/><v:tabList/>SPEAKER</text>		</g>
		<g id="shape243-55" v:mID="243" v:groupContext="shape" transform="translate(354.297,-198.267)">
			<title>工作表.243</title>
			<desc>LINEOUT</desc>
			<v:textBlock v:margins="rect(4,4,4,4)" v:tabSpace="42.5197"/>
			<v:textRect cx="33.0404" cy="282.927" width="66.09" height="19.2756"/>
			<rect x="0" y="273.289" width="66.0807" height="19.2756" class="st4"/>
			<text x="4" y="286.53" class="st5" v:langID="2052"><v:paragraph/><v:tabList/>LINEOUT</text>		</g>
		<g id="shape244-58" v:mID="244" v:groupContext="shape" transform="translate(354.297,-150.31)">
			<title>工作表.244</title>
			<desc>HDMI</desc>
			<v:textBlock v:margins="rect(4,4,4,4)" v:tabSpace="42.5197"/>
			<v:textRect cx="33.0404" cy="282.927" width="66.09" height="19.2756"/>
			<rect x="0" y="273.289" width="66.0807" height="19.2756" class="st4"/>
			<text x="4" y="286.53" class="st5" v:langID="2052"><v:paragraph/><v:tabList/>HDMI</text>		</g>
		<g id="shape245-61" v:mID="245" v:groupContext="shape" transform="translate(354.297,-96.0472)">
			<title>工作表.245</title>
			<desc>MIC</desc>
			<v:textBlock v:margins="rect(4,4,4,4)" v:tabSpace="42.5197"/>
			<v:textRect cx="33.0404" cy="282.927" width="66.09" height="19.2756"/>
			<rect x="0" y="273.289" width="66.0807" height="19.2756" class="st4"/>
			<text x="4" y="286.53" class="st5" v:langID="2052"><v:paragraph/><v:tabList/>MIC</text>		</g>
		<g id="shape246-64" v:mID="246" v:groupContext="shape" transform="translate(354.297,-61.7277)">
			<title>工作表.246</title>
			<desc>LINEIN</desc>
			<v:textBlock v:margins="rect(4,4,4,4)" v:tabSpace="42.5197"/>
			<v:textRect cx="33.0404" cy="282.927" width="66.09" height="19.2756"/>
			<rect x="0" y="273.289" width="66.0807" height="19.2756" class="st4"/>
			<text x="4" y="286.53" class="st5" v:langID="2052"><v:paragraph/><v:tabList/>LINEIN</text>		</g>
		<g id="shape247-67" v:mID="247" v:groupContext="shape" transform="translate(354.297,-26.8008)">
			<title>工作表.247</title>
			<desc>HS_MIC</desc>
			<v:textBlock v:margins="rect(4,4,4,4)" v:tabSpace="42.5197"/>
			<v:textRect cx="33.0404" cy="282.927" width="66.09" height="19.2756"/>
			<rect x="0" y="273.289" width="66.0807" height="19.2756" class="st4"/>
			<text x="4" y="286.53" class="st5" v:langID="2052"><v:paragraph/><v:tabList/>HS_MIC</text>		</g>
	</g>
</svg>
