<?xml version="1.0" encoding="UTF-8" standalone="no"?>
<!DOCTYPE svg PUBLIC "-//W3C//DTD SVG 1.1//EN" "http://www.w3.org/Graphics/SVG/1.1/DTD/svg11.dtd">
<!-- 由 Microsoft Visio, SVG Export 生成 Microsoft_Visio___24.svg 页-1 -->
<svg xmlns="http://www.w3.org/2000/svg" xmlns:xlink="http://www.w3.org/1999/xlink" xmlns:ev="http://www.w3.org/2001/xml-events"
		xmlns:v="http://schemas.microsoft.com/visio/2003/SVGExtensions/" width="5.55227in" height="2.4425in"
		viewBox="0 0 399.764 175.86" xml:space="preserve" color-interpolation-filters="sRGB" class="st16">
	<v:documentProperties v:langID="2052" v:metric="true" v:viewMarkup="false">
		<v:userDefs>
			<v:ud v:nameU="msvConvertTheme"/>
		</v:userDefs>
	</v:documentProperties>

	<style type="text/css">
	<![CDATA[
		.st1 {fill:#ffffff;stroke:#ffc000;stroke-linecap:round;stroke-linejoin:round;stroke-width:0.75}
		.st2 {fill:#ffffff;stroke:#000000;stroke-linecap:round;stroke-linejoin:round;stroke-width:0.75}
		.st3 {fill:#000000;font-family:Calibri;font-size:0.666664em}
		.st4 {stroke:#000000;stroke-linecap:round;stroke-linejoin:round;stroke-width:0.75}
		.st5 {fill:#000000;stroke:#000000;stroke-linecap:round;stroke-linejoin:round;stroke-width:0.24}
		.st6 {fill:none;stroke:none;stroke-linecap:round;stroke-linejoin:round;stroke-width:0.75}
		.st7 {fill:#ffffff;stroke:#000000;stroke-linecap:round;stroke-linejoin:round;stroke-width:0.24}
		.st8 {fill:#000000}
		.st9 {stroke:#000000;stroke-linecap:butt;stroke-width:0.926102}
		.st10 {stroke:#000000;stroke-linecap:butt;stroke-width:0.646166}
		.st11 {stroke:none;stroke-linecap:butt;stroke-width:0.75;visibility:hidden}
		.st12 {marker-end:url(#mrkr13-119);stroke:#ffc000;stroke-linecap:round;stroke-linejoin:round;stroke-width:0.75}
		.st13 {fill:#ffc000;fill-opacity:1;stroke:#ffc000;stroke-opacity:1;stroke-width:0.22935779816514}
		.st14 {fill:#ff0000;font-family:Calibri;font-size:0.666664em}
		.st15 {font-size:1em}
		.st16 {fill:none;fill-rule:evenodd;font-size:12px;overflow:visible;stroke-linecap:square;stroke-miterlimit:3}
	]]>
	</style>

	<defs id="Markers">
		<g id="lend13">
			<path d="M 3 1 L 0 0 L 3 -1 L 3 1 " style="stroke:none"/>
		</g>
		<marker id="mrkr13-119" class="st13" v:arrowType="13" v:arrowSize="2" v:setback="13.08" refX="-13.08" orient="auto"
				markerUnits="strokeWidth" overflow="visible">
			<use xlink:href="#lend13" transform="scale(-4.36,-4.36) "/>
		</marker>
	</defs>
	<g v:mID="0" v:index="1" v:groupContext="foregroundPage">
		<v:userDefs>
			<v:ud v:nameU="ResistorCount" v:prompt="" v:val="VT0(2):26"/>
			<v:ud v:nameU="GroundCount" v:prompt="" v:val="VT0(3):26"/>
		</v:userDefs>
		<title>页-1</title>
		<v:pageProperties v:drawingScale="0.0393701" v:pageScale="0.0393701" v:drawingUnits="24" v:shadowOffsetX="8.50394"
				v:shadowOffsetY="-8.50394"/>
		<v:layer v:name="电气" v:index="0"/>
		<g id="shape93-1" v:mID="93" v:groupContext="shape" transform="translate(181.317,-21.7685)">
			<title>工作表.93</title>
			<rect x="0" y="97.907" width="169.137" height="77.9528" class="st1"/>
		</g>
		<g id="shape1-3" v:mID="1" v:groupContext="shape" transform="translate(61.3199,-93.1071)">
			<title>工作表.1</title>
			<desc>I/O PAD</desc>
			<v:textBlock v:margins="rect(4,4,4,4)" v:tabSpace="42.5197"/>
			<v:textRect cx="17.0079" cy="164.521" width="34.02" height="22.6772"/>
			<rect x="0" y="153.183" width="34.0157" height="22.6772" class="st2"/>
			<text x="4.06" y="166.92" class="st3" v:langID="2052"><v:paragraph v:horizAlign="1"/><v:tabList/>I/O PAD</text>		</g>
		<g id="shape2-6" v:mID="2" v:groupContext="shape" transform="translate(206.54,-123.418)">
			<title>左括号</title>
			<v:userDefs>
				<v:ud v:nameU="visVersion" v:prompt="" v:val="VT0(15):26"/>
			</v:userDefs>
			<path d="M25.51 175.86 A219.902 54.9754 0 0 1 12.76 159.62 L12.76 150.35 L0 150.35 L12.76 150.35 L12.76 141.07 A219.902
						 54.9754 0 0 1 25.51 124.84" class="st4"/>
		</g>
		<g id="shape3-9" v:mID="3" v:groupContext="shape" transform="translate(79.1781,-115.784)">
			<title>工作表.3</title>
			<path d="M0 175.86 L0 142.88 L74.27 142.88" class="st4"/>
		</g>
		<g id="group4-12" transform="translate(151.553,-143.542)" v:mID="4" v:groupContext="group">
			<v:userDefs>
				<v:ud v:nameU="state" v:prompt="" v:val="VT0(0):26"/>
				<v:ud v:nameU="HasText" v:prompt="" v:val="VT0(0):5"/>
			</v:userDefs>
			<title>电键符号</title>
			<g id="group5-13" v:mID="5" v:groupContext="group">
				<title>工作表.5</title>
				<g id="shape6-14" v:mID="6" v:groupContext="shape" transform="translate(7.65388E-13,-3.68504)">
					<title>工作表.6</title>
					<path d="M0 174.16 A1.70079 1.70079 0 0 1 3.4 174.16 A1.70079 1.70079 0 1 1 0 174.16 Z" class="st5"/>
				</g>
				<g id="shape7-16" v:mID="7" v:groupContext="shape" transform="translate(22.6772,-3.68504)">
					<title>工作表.7</title>
					<path d="M0 174.16 A1.70079 1.70079 0 0 1 3.4 174.16 A1.70079 1.70079 0 1 1 -0 174.16 Z" class="st5"/>
				</g>
				<g id="shape8-18" v:mID="8" v:groupContext="shape" transform="translate(90.7419,324.316) rotate(157.23)">
					<title>工作表.8</title>
					<v:userDefs>
						<v:ud v:nameU="state" v:prompt="" v:val="VT0(0):26"/>
					</v:userDefs>
					<path d="M0 175.86 L22.38 175.86" class="st4"/>
				</g>
			</g>
			<g id="shape9-21" v:mID="9" v:groupContext="shape" transform="translate(-13.9808,-4.3038) rotate(-5.22718)">
				<title>工作表.9</title>
				<v:userDefs>
					<v:ud v:nameU="state" v:prompt="" v:val="VT0(0):26"/>
				</v:userDefs>
			</g>
		</g>
		<g id="shape10-23" v:mID="10" v:groupContext="shape" transform="translate(177.632,-148.928)">
			<title>工作表.10</title>
			<path d="M0 175.86 L34.74 175.86" class="st4"/>
		</g>
		<g id="shape11-26" v:mID="11" v:groupContext="shape" transform="translate(233.312,-121.836)">
			<title>工作表.11</title>
			<desc>Other digital functions</desc>
			<v:textBlock v:margins="rect(4,4,4,4)" v:tabSpace="42.5197"/>
			<v:textRect cx="40.8541" cy="171.608" width="81.71" height="8.50394"/>
			<rect x="0" y="167.356" width="81.7082" height="8.50394" class="st6"/>
			<text x="4" y="174.01" class="st3" v:langID="2052"><v:paragraph/><v:tabList/>Other digital functions</text>		</g>
		<g id="group18-29" transform="translate(273.918,-28.0115)" v:mID="18" v:groupContext="group" v:layerMember="0">
			<v:userDefs>
				<v:ud v:nameU="visVersion" v:val="VT0(15):26"/>
				<v:ud v:nameU="visDescription" v:val="VT4(表示运算放大器。)"/>
			</v:userDefs>
			<title>运算放大器 2</title>
			<desc>MICBST</desc>
			<g id="shape19-30" v:mID="19" v:groupContext="shape" v:layerMember="0">
				<title>工作表.19</title>
				<path d="M0 124.36 L0 175.86 L51.5 150.11 L0 124.36 Z" class="st2"/>
			</g>
			<g id="shape20-32" v:mID="20" v:groupContext="shape" v:layerMember="0">
				<title>工作表.20</title>
				<path d="M-6.44 137.24 L0 137.24" class="st4"/>
				<path d="M-6.44 162.99 L0 162.99" class="st4"/>
				<path d="M25.75 124.36 L25.75 137.24" class="st4"/>
				<path d="M57.93 150.11 L51.5 150.11" class="st4"/>
				<path d="M25.75 175.86 L25.75 162.99" class="st4"/>
			</g>
			<g id="shape18-39" v:mID="18" v:groupContext="groupContent" v:layerMember="0">
				<v:textBlock v:margins="rect(1,1,1,1)" v:tabSpace="42.5197"/>
				<v:textRect cx="18.4252" cy="150.922" width="28.86" height="11.6036"/>
				<text x="5.9" y="153.32" class="st3" v:langID="2052"><v:paragraph v:horizAlign="1"/><v:tabList/>MICBST</text>			</g>
		</g>
		<g id="shape22-41" v:mID="22" v:groupContext="shape" transform="translate(267.481,310.834) rotate(180)">
			<title>工作表.22</title>
			<path d="M0 175.86 L16.24 175.86" class="st4"/>
		</g>
		<g id="shape23-44" v:mID="23" v:groupContext="shape" transform="translate(208.106,-66.6584)">
			<title>工作表.23</title>
			<path d="M0 175.86 L11.95 175.86" class="st4"/>
		</g>
		<g id="shape24-47" v:mID="24" v:groupContext="shape" transform="translate(266.674,285.084) rotate(-179.737)">
			<title>工作表.24</title>
			<path d="M0 175.86 L21.91 175.86" class="st4"/>
		</g>
		<g id="group25-50" transform="translate(220.06,-61.2725)" v:mID="25" v:groupContext="group">
			<v:userDefs>
				<v:ud v:nameU="state" v:prompt="" v:val="VT0(0):26"/>
				<v:ud v:nameU="HasText" v:prompt="" v:val="VT0(0):5"/>
			</v:userDefs>
			<title>电键符号.25</title>
			<g id="group26-51" v:mID="26" v:groupContext="group">
				<title>工作表.26</title>
				<g id="shape27-52" v:mID="27" v:groupContext="shape" transform="translate(7.65388E-13,-3.68504)">
					<title>工作表.27</title>
					<path d="M0 174.16 A1.70079 1.70079 0 0 1 3.4 174.16 A1.70079 1.70079 0 1 1 0 174.16 Z" class="st5"/>
				</g>
				<g id="shape28-54" v:mID="28" v:groupContext="shape" transform="translate(22.6772,-3.68504)">
					<title>工作表.28</title>
					<path d="M0 174.16 A1.70079 1.70079 0 0 1 3.4 174.16 A1.70079 1.70079 0 1 1 -0 174.16 Z" class="st5"/>
				</g>
				<g id="shape29-56" v:mID="29" v:groupContext="shape" transform="translate(90.7419,324.316) rotate(157.23)">
					<title>工作表.29</title>
					<v:userDefs>
						<v:ud v:nameU="state" v:prompt="" v:val="VT0(0):26"/>
					</v:userDefs>
					<path d="M0 175.86 L22.38 175.86" class="st4"/>
				</g>
			</g>
			<g id="shape30-59" v:mID="30" v:groupContext="shape" transform="translate(-13.9808,-4.3038) rotate(-5.22718)">
				<title>工作表.30</title>
				<v:userDefs>
					<v:ud v:nameU="state" v:prompt="" v:val="VT0(0):26"/>
				</v:userDefs>
			</g>
		</g>
		<g id="shape31-61" v:mID="31" v:groupContext="shape" transform="translate(219.817,-37.3829)">
			<title>工作表.31</title>
			<desc>VCOM</desc>
			<v:textBlock v:margins="rect(4,4,4,4)" v:tabSpace="42.5197"/>
			<v:textRect cx="16.3365" cy="172.328" width="32.68" height="7.06274"/>
			<rect x="0" y="168.797" width="32.673" height="7.06274" class="st6"/>
			<text x="5.87" y="174.73" class="st3" v:langID="2052"><v:paragraph v:horizAlign="1"/><v:tabList/>VCOM</text>		</g>
		<g id="shape32-64" v:mID="32" v:groupContext="shape" transform="translate(186.514,-63.483)">
			<title>电阻符号</title>
			<v:userDefs>
				<v:ud v:nameU="HasText" v:prompt="" v:val="VT0(0):5"/>
			</v:userDefs>
			<rect x="0" y="169.777" width="21.5926" height="6.08324" class="st7"/>
		</g>
		<g id="shape33-66" v:mID="33" v:groupContext="shape" transform="translate(186.514,285.061) rotate(180)">
			<title>工作表.33</title>
			<path d="M0 175.86 L107.89 175.86" class="st4"/>
		</g>
		<g id="shape34-69" v:mID="34" v:groupContext="shape" transform="translate(254.471,82.6535) rotate(89.9677)">
			<title>工作表.34</title>
			<path d="M0 175.86 L26.45 175.86" class="st4"/>
		</g>
		<g id="shape36-72" v:mID="36" v:groupContext="shape" transform="translate(331.851,-53.7595)">
			<title>工作表.36</title>
			<path d="M0 175.86 L36.52 175.86" class="st4"/>
		</g>
		<g id="shape37-75" v:mID="37" v:groupContext="shape" transform="translate(366.716,-51.4535)">
			<title>工作表.37</title>
			<desc>To ADC</desc>
			<v:textBlock v:margins="rect(4,4,4,4)" v:tabSpace="42.5197"/>
			<v:textRect cx="16.3365" cy="173.694" width="32.68" height="4.33071"/>
			<rect x="0" y="171.529" width="32.673" height="4.33071" class="st6"/>
			<text x="4.47" y="176.09" class="st3" v:langID="2052"><v:paragraph v:horizAlign="1"/><v:tabList/>To ADC</text>		</g>
		<g id="shape39-78" v:mID="39" v:groupContext="shape" transform="translate(289.981,-89.593)">
			<title>电阻符号.39</title>
			<v:userDefs>
				<v:ud v:nameU="HasText" v:prompt="" v:val="VT0(0):5"/>
			</v:userDefs>
			<rect x="0" y="169.777" width="21.5926" height="6.08324" class="st7"/>
		</g>
		<g id="shape40-80" v:mID="40" v:groupContext="shape" transform="translate(261.635,-66.7341)">
			<title>工作表.40</title>
			<path d="M28.35 149.96 L0 149.96 L0 175.86" class="st4"/>
		</g>
		<g id="shape41-83" v:mID="41" v:groupContext="shape" transform="translate(311.574,-53.9417)">
			<title>工作表.41</title>
			<path d="M0 137.17 L28.35 137.17 L28.35 175.86" class="st4"/>
		</g>
		<g id="shape42-86" v:mID="42" v:groupContext="shape" transform="translate(0.375,-93.1071)">
			<title>工作表.42</title>
			<desc>PIN</desc>
			<v:textBlock v:margins="rect(4,4,4,4)" v:tabSpace="42.5197"/>
			<v:textRect cx="14.1732" cy="164.521" width="28.35" height="22.6772"/>
			<rect x="0" y="153.183" width="28.3465" height="22.6772" class="st2"/>
			<text x="8.52" y="166.92" class="st3" v:langID="2052"><v:paragraph v:horizAlign="1"/><v:tabList/>PIN</text>		</g>
		<g id="shape43-89" v:mID="43" v:groupContext="shape" transform="translate(61.3199,247.305) rotate(180)">
			<title>工作表.43</title>
			<path d="M0 175.86 L32.6 175.86" class="st4"/>
		</g>
		<g id="shape44-92" v:mID="44" v:groupContext="shape" transform="translate(120.796,-136.01)">
			<title>工作表.44</title>
			<desc>Audio pad share enable</desc>
			<v:textBlock v:margins="rect(4,4,4,4)" v:tabSpace="42.5197"/>
			<v:textRect cx="44.9306" cy="172.818" width="89.87" height="6.08324"/>
			<rect x="0" y="169.777" width="89.8612" height="6.08324" class="st6"/>
			<text x="6.57" y="175.22" class="st3" v:langID="2052"><v:paragraph v:horizAlign="1"/><v:tabList/>Audio pad share enable</text>		</g>
		<g id="shape91-95" v:mID="91" v:groupContext="shape" transform="translate(220.617,-75.3482)">
			<title>工作表.91</title>
			<desc>Mute</desc>
			<v:textBlock v:margins="rect(4,4,4,4)" v:tabSpace="42.5197"/>
			<v:textRect cx="14.1732" cy="171.309" width="28.35" height="9.10236"/>
			<rect x="0" y="166.757" width="28.3465" height="9.10236" class="st6"/>
			<text x="5.32" y="173.71" class="st3" v:langID="2052"><v:paragraph v:horizAlign="1"/><v:tabList/>Mute</text>		</g>
		<g id="group94-98" transform="translate(268.361,143.698) rotate(90)" v:mID="94" v:groupContext="group" v:layerMember="0">
			<v:custProps>
				<v:cp v:nameU="Label" v:lbl="标签" v:type="0" v:format="@" v:sortKey="" v:invis="false" v:ask="false" v:langID="2052"
						v:val="VT4()"/>
				<v:cp v:nameU="Slider_Position" v:lbl="滑块位置 (0-1)" v:type="2" v:langID="2052" v:val="VT0(0.5):26"/>
			</v:custProps>
			<v:userDefs>
				<v:ud v:nameU="Form" v:val="VT0(1):5"/>
				<v:ud v:nameU="SubType" v:val="VT0(0):26"/>
				<v:ud v:nameU="visDescription" v:val="VT4(Represents a fixed or variable resistor.)"/>
				<v:ud v:nameU="visVersion" v:val="VT0(15):26"/>
				<v:ud v:nameU="Label" v:prompt="" v:val="VT4()"/>
				<v:ud v:nameU="SolSH" v:prompt="" v:val="VT4({2EE3C7D2-E26E-4B72-9E9C-5170DDBF261A})"/>
				<v:ud v:nameU="Label" v:prompt="" v:val="VT4(R1)"/>
			</v:userDefs>
			<title>电阻器</title>
			<g id="shape95-99" v:mID="95" v:groupContext="shape" v:layerMember="0" transform="translate(-1.75458,1.62275)">
				<title>工作表.95</title>
			</g>
			<g id="shape96-101" v:mID="96" v:groupContext="shape" v:layerMember="0">
				<title>工作表.96</title>
				<path d="M5.56 165.67 L5.56 162.89 L17.6 162.89 L17.6 165.67 L3.7 165.67 L3.7 161.04 L19.45 161.04 L19.45 167.52
							 L3.7 167.52 L3.7 165.67 L5.56 165.67 Z" class="st8"/>
				<path d="M23.15 164.28 L18.52 164.28" class="st9"/>
				<path d="M4.63 164.28 L0 164.28" class="st9"/>
			</g>
		</g>
		<g id="group97-105" transform="translate(98.6925,-0.415281)" v:mID="97" v:groupContext="group" v:layerMember="0">
			<v:custProps>
				<v:cp v:nameU="Label" v:lbl="Label" v:prompt="" v:type="0" v:format="@" v:sortKey="" v:invis="false" v:ask="false"
						v:langID="2052" v:cal="0" v:val="VT4()"/>
			</v:custProps>
			<v:userDefs>
				<v:ud v:nameU="visVersion" v:val="VT0(15):26"/>
				<v:ud v:nameU="visDescription" v:val="VT4(Represents a ground connection.)"/>
				<v:ud v:nameU="Label" v:prompt="" v:val="VT4()"/>
				<v:ud v:nameU="SolSH" v:prompt="" v:val="VT4({2EE3C7D2-E26E-4B72-9E9C-5170DDBF261A})"/>
				<v:ud v:nameU="Label" v:prompt="" v:val="VT4(GND1)"/>
			</v:userDefs>
			<title>接地</title>
			<g id="shape98-106" v:mID="98" v:groupContext="shape" v:layerMember="0" transform="translate(2.4899,-0.267333)">
				<title>工作表.98</title>
				<path d="M3.72 175.86 L2.07 175.86" class="st10"/>
				<path d="M4.96 174.56 L0.83 174.56" class="st10"/>
				<path d="M5.79 173.27 L-0 173.27" class="st10"/>
			</g>
			<g id="shape99-111" v:mID="99" v:groupContext="shape" v:layerMember="0" transform="translate(5.16933,-3.12314)">
				<title>工作表.99</title>
				<rect x="0" y="168.213" width="0.430778" height="7.6463" class="st8"/>
				<rect x="0" y="168.213" width="0.430778" height="7.6463" class="st11"/>
			</g>
		</g>
		<g id="shape100-114" v:mID="100" v:groupContext="shape" transform="translate(181.317,326.765) rotate(180)">
			<title>工作表.100</title>
			<path d="M0 175.86 L64.24 175.86" class="st12"/>
		</g>
		<g id="shape101-120" v:mID="101" v:groupContext="shape" transform="translate(108.092,-10.3541)">
			<title>工作表.101</title>
			<desc>If the switch is unmute, this block equals to a 10kohm resist...</desc>
			<v:textBlock v:margins="rect(4,4,4,4)" v:tabSpace="42.5197"/>
			<v:textRect cx="105.591" cy="172.279" width="211.19" height="7.16241"/>
			<rect x="0" y="168.697" width="211.181" height="7.16241" class="st6"/>
			<text x="4.11" y="174.68" class="st3" v:langID="2052"><v:paragraph v:horizAlign="1"/><v:tabList/>If the switch is unmute, this block equals to a 10kohm resistor.</text>		</g>
		<g id="shape102-123" v:mID="102" v:groupContext="shape" transform="translate(94.6407,-100.097)">
			<title>工作表.102</title>
			<desc>PB11~PB14, PB18~PB19</desc>
			<v:textBlock v:margins="rect(4,4,4,4)" v:tabSpace="42.5197"/>
			<v:textRect cx="26.2067" cy="172.328" width="52.42" height="7.06274"/>
			<rect x="0" y="168.797" width="52.4134" height="7.06274" class="st6"/>
			<text x="6.62" y="169.93" class="st14" v:langID="2052"><v:paragraph v:horizAlign="1"/><v:tabList/>PB11~PB14,<v:newlineChar/><tspan
						x="7.62" dy="1.2em" class="st15">PB</tspan>18~PB19</text>		</g>
		<g id="shape106-127" v:mID="106" v:groupContext="shape" transform="translate(233.312,-166.808)">
			<title>工作表.106</title>
			<desc>Pull up</desc>
			<v:textBlock v:margins="rect(4,4,4,4)" v:tabSpace="42.5197"/>
			<v:textRect cx="21.5106" cy="171.608" width="43.03" height="8.50394"/>
			<rect x="0" y="167.356" width="43.0213" height="8.50394" class="st6"/>
			<text x="4" y="174.01" class="st3" v:langID="2052"><v:paragraph/><v:tabList/>Pull up</text>		</g>
		<g id="shape107-130" v:mID="107" v:groupContext="shape" transform="translate(233.312,-151.817)">
			<title>工作表.107</title>
			<desc>Pull down</desc>
			<v:textBlock v:margins="rect(4,4,4,4)" v:tabSpace="42.5197"/>
			<v:textRect cx="21.5106" cy="171.608" width="43.03" height="8.50394"/>
			<rect x="0" y="167.356" width="43.0213" height="8.50394" class="st6"/>
			<text x="4" y="174.01" class="st3" v:langID="2052"><v:paragraph/><v:tabList/>Pull down</text>		</g>
		<g id="shape152-133" v:mID="152" v:groupContext="shape" transform="translate(233.312,-136.827)">
			<title>工作表.152</title>
			<desc>GPIO</desc>
			<v:textBlock v:margins="rect(4,4,4,4)" v:tabSpace="42.5197"/>
			<v:textRect cx="21.5106" cy="171.608" width="43.03" height="8.50394"/>
			<rect x="0" y="167.356" width="43.0213" height="8.50394" class="st6"/>
			<text x="4" y="174.01" class="st3" v:langID="2052"><v:paragraph/><v:tabList/>GPIO</text>		</g>
	</g>
</svg>
