<?xml version="1.0" encoding="UTF-8" standalone="no"?>
<!DOCTYPE svg PUBLIC "-//W3C//DTD SVG 1.1//EN" "http://www.w3.org/Graphics/SVG/1.1/DTD/svg11.dtd">
<!-- 由 Microsoft Visio, SVG Export 生成 Microsoft_Visio___15.svg 页-1 -->
<svg xmlns="http://www.w3.org/2000/svg" xmlns:xlink="http://www.w3.org/1999/xlink" xmlns:ev="http://www.w3.org/2001/xml-events"
		xmlns:v="http://schemas.microsoft.com/visio/2003/SVGExtensions/" width="4.21876in" height="1.5427in"
		viewBox="0 0 303.751 111.075" xml:space="preserve" color-interpolation-filters="sRGB" class="st12">
	<v:documentProperties v:langID="2052" v:metric="true" v:viewMarkup="false"/>

	<style type="text/css">
	<![CDATA[
		.st1 {stroke:#000000;stroke-linecap:round;stroke-linejoin:round;stroke-width:0.24}
		.st2 {fill:#ffffff;stroke:#000000;stroke-linecap:round;stroke-linejoin:round;stroke-width:0.24}
		.st3 {fill:#ffffff;stroke:none;stroke-linecap:round;stroke-linejoin:round;stroke-width:0.75}
		.st4 {fill:#000000;font-family:Calibri;font-size:0.666664em}
		.st5 {fill:#000000;font-family:Calibri;font-size:0.75em}
		.st6 {fill:none;stroke:none;stroke-linecap:round;stroke-linejoin:round;stroke-width:0.75}
		.st7 {stroke:#000000;stroke-linecap:round;stroke-linejoin:round;stroke-width:0.25}
		.st8 {fill:#000000;font-family:Calibri;font-size:0.833336em}
		.st9 {fill:#000000}
		.st10 {stroke:#000000;stroke-linecap:butt;stroke-width:0.551407}
		.st11 {stroke:#000000;stroke-linecap:round;stroke-linejoin:round;stroke-width:0.75}
		.st12 {fill:none;fill-rule:evenodd;font-size:12px;overflow:visible;stroke-linecap:square;stroke-miterlimit:3}
	]]>
	</style>

	<g v:mID="0" v:index="1" v:groupContext="foregroundPage">
		<v:userDefs>
			<v:ud v:nameU="ResistorCount" v:prompt="" v:val="VT0(3):26"/>
		</v:userDefs>
		<title>页-1</title>
		<v:pageProperties v:drawingScale="0.0393701" v:pageScale="0.0393701" v:drawingUnits="24" v:shadowOffsetX="8.50394"
				v:shadowOffsetY="-8.50394"/>
		<v:layer v:name="电气" v:index="0"/>
		<v:layer v:name="连接线" v:index="1"/>
		<g id="shape75-1" v:mID="75" v:groupContext="shape" v:layerMember="0" transform="translate(-35.8137,110.955) rotate(-90)">
			<title>接地.75</title>
			<v:userDefs>
				<v:ud v:nameU="visVersion" v:val="VT0(14):26"/>
				<v:ud v:nameU="visDescription" v:val="VT4(表示接地。)"/>
			</v:userDefs>
			<path d="M0 105.34 L0 108.21" class="st1"/>
			<path d="M1.43 103.91 L1.43 109.64" class="st1"/>
			<path d="M2.87 102.47 L2.87 111.07" class="st1"/>
			<path d="M21.5 106.77 L2.87 106.77" class="st1"/>
		</g>
		<g id="shape64-7" v:mID="64" v:groupContext="shape" transform="translate(14.2734,-22.2302)">
			<title>矩形.64</title>
			<v:userDefs>
				<v:ud v:nameU="visVersion" v:val="VT0(14):26"/>
			</v:userDefs>
			<rect x="0" y="42.156" width="113.386" height="68.9187" class="st2"/>
		</g>
		<g id="shape65-9" v:mID="65" v:groupContext="shape" transform="translate(216.006,-0.523465)">
			<title>矩形.65</title>
			<v:userDefs>
				<v:ud v:nameU="visVersion" v:val="VT0(14):26"/>
			</v:userDefs>
			<rect x="0" y="1.94079" width="87.6251" height="109.134" class="st2"/>
		</g>
		<g id="shape66-11" v:mID="66" v:groupContext="shape" transform="translate(137.464,137.595) rotate(-135)">
			<title>中心拖动圆形.66</title>
			<v:userDefs>
				<v:ud v:nameU="visVersion" v:val="VT0(14):26"/>
			</v:userDefs>
			<path d="M-4.68 111.07 A4.67693 4.67693 0 0 1 4.68 111.07 A4.67693 4.67693 0 1 1 -4.68 111.07 Z" class="st2"/>
		</g>
		<g id="shape67-13" v:mID="67" v:groupContext="shape" transform="translate(85.7975,198.924) rotate(172.327)">
			<title>中心拖动圆形.67</title>
			<v:userDefs>
				<v:ud v:nameU="visVersion" v:val="VT0(14):26"/>
			</v:userDefs>
			<path d="M-3.34 111.07 A3.33697 3.33697 0 1 1 3.34 111.07 A3.33697 3.33697 0 1 1 -3.34 111.07 Z" class="st2"/>
		</g>
		<g id="shape68-15" v:mID="68" v:groupContext="shape" transform="translate(223.092,-44.4032)">
			<title>工作表.68</title>
			<desc>DMIC_CLK</desc>
			<v:textBlock v:margins="rect(1,1,1,1)" v:tabSpace="42.5197"/>
			<v:textRect cx="20.3519" cy="104.275" width="40.71" height="13.5992"/>
			<rect x="0" y="97.4754" width="40.7038" height="13.5992" class="st3"/>
			<text x="3.45" y="106.68" class="st4" v:langID="2052"><v:paragraph v:horizAlign="1"/><v:tabList/>DMIC_CLK</text>		</g>
		<g id="shape69-18" v:mID="69" v:groupContext="shape" transform="translate(49.1176,137.406) rotate(-135)">
			<title>Center drag circle.69</title>
			<v:userDefs>
				<v:ud v:nameU="visVersion" v:val="VT0(14):26"/>
			</v:userDefs>
			<path d="M-4.68 111.07 A4.67693 4.67693 0 0 1 4.68 111.07 A4.67693 4.67693 0 1 1 -4.68 111.07 Z" class="st2"/>
		</g>
		<g id="shape70-20" v:mID="70" v:groupContext="shape" transform="translate(-7.57528,98.5941) rotate(-135)">
			<title>中心拖动圆形.70</title>
			<v:userDefs>
				<v:ud v:nameU="visVersion" v:val="VT0(14):26"/>
			</v:userDefs>
			<path d="M-4.68 111.07 A4.67693 4.67693 0 0 1 4.68 111.07 A4.67693 4.67693 0 1 1 -4.68 111.07 Z" class="st2"/>
		</g>
		<g id="shape71-22" v:mID="71" v:groupContext="shape" transform="translate(53.9585,-74.588)">
			<title>工作表.71</title>
			<desc>VDD</desc>
			<v:textBlock v:margins="rect(1,1,1,1)" v:tabSpace="42.5197"/>
			<v:textRect cx="17.0079" cy="105.405" width="34.02" height="11.3386"/>
			<rect x="0" y="99.7361" width="34.0157" height="11.3386" class="st3"/>
			<text x="9.82" y="107.81" class="st4" v:langID="2052"><v:paragraph v:horizAlign="1"/><v:tabList/>VDD</text>		</g>
		<g id="shape72-25" v:mID="72" v:groupContext="shape" transform="translate(42.6199,-53.1647)">
			<title>工作表.72</title>
			<desc>Digital MIC</desc>
			<v:textBlock v:margins="rect(1,1,1,1)" v:tabSpace="42.5197"/>
			<v:textRect cx="28.3465" cy="102.571" width="56.7" height="17.0079"/>
			<rect x="0" y="94.0668" width="56.6929" height="17.0079" class="st3"/>
			<text x="8.3" y="105.27" class="st5" v:langID="2052"><v:paragraph v:horizAlign="1"/><v:tabList/>Digital MIC</text>		</g>
		<g id="shape73-28" v:mID="73" v:groupContext="shape" transform="translate(89.3915,-44.6688)">
			<title>工作表.73</title>
			<desc>CLOCK</desc>
			<v:textBlock v:margins="rect(1,1,1,1)" v:tabSpace="42.5197"/>
			<v:textRect cx="19.8425" cy="103.988" width="39.69" height="14.1732"/>
			<rect x="0" y="96.9014" width="39.685" height="14.1732" class="st6"/>
			<text x="9.17" y="106.39" class="st4" v:langID="2052"><v:paragraph v:horizAlign="1"/><v:tabList/>CLOCK</text>		</g>
		<g id="shape74-31" v:mID="74" v:groupContext="shape" transform="translate(55.3758,-26.0366)">
			<title>工作表.74</title>
			<desc>GND</desc>
			<v:textBlock v:margins="rect(1,1,1,1)" v:tabSpace="42.5197"/>
			<v:textRect cx="17.0079" cy="105.405" width="34.02" height="11.3386"/>
			<rect x="0" y="99.7361" width="34.0157" height="11.3386" class="st3"/>
			<text x="9.44" y="107.81" class="st4" v:langID="2052"><v:paragraph v:horizAlign="1"/><v:tabList/>GND</text>		</g>
		<g id="shape76-34" v:mID="76" v:groupContext="shape" transform="translate(137.464,157.438) rotate(-135)">
			<title>中心拖动圆形.76</title>
			<v:userDefs>
				<v:ud v:nameU="visVersion" v:val="VT0(14):26"/>
			</v:userDefs>
			<path d="M-4.68 111.07 A4.67693 4.67693 0 0 1 4.68 111.07 A4.67693 4.67693 0 1 1 -4.68 111.07 Z" class="st2"/>
		</g>
		<g id="shape77-36" v:mID="77" v:groupContext="shape" transform="translate(221.439,-22.946)">
			<title>工作表.77</title>
			<desc>DMIC_DATA</desc>
			<v:textBlock v:margins="rect(1,1,1,1)" v:tabSpace="42.5197"/>
			<v:textRect cx="24.7003" cy="102.391" width="49.41" height="17.3668"/>
			<rect x="0" y="93.7078" width="49.4007" height="17.3668" class="st3"/>
			<text x="4.65" y="104.79" class="st4" v:langID="2052"><v:paragraph v:horizAlign="1"/><v:tabList/>DMIC_DATA</text>		</g>
		<g id="shape78-39" v:mID="78" v:groupContext="shape" transform="translate(49.1176,157.249) rotate(-135)">
			<title>Center drag circle.78</title>
			<v:userDefs>
				<v:ud v:nameU="visVersion" v:val="VT0(14):26"/>
			</v:userDefs>
			<path d="M-4.68 111.07 A4.67693 4.67693 0 0 1 4.68 111.07 A4.67693 4.67693 0 1 1 -4.68 111.07 Z" class="st2"/>
		</g>
		<g id="shape79-41" v:mID="79" v:groupContext="shape" transform="translate(89.3915,-25.691)">
			<title>工作表.79</title>
			<desc>DATA</desc>
			<v:textBlock v:margins="rect(1,1,1,1)" v:tabSpace="42.5197"/>
			<v:textRect cx="19.8425" cy="103.988" width="39.69" height="14.1732"/>
			<rect x="0" y="96.9014" width="39.685" height="14.1732" class="st6"/>
			<text x="10.8" y="106.39" class="st4" v:langID="2052"><v:paragraph v:horizAlign="1"/><v:tabList/>DATA</text>		</g>
		<g id="shape82-44" v:mID="82" v:groupContext="shape" transform="translate(-64.2682,152.241) rotate(-135)">
			<title>Center drag circle.82</title>
			<v:userDefs>
				<v:ud v:nameU="visVersion" v:val="VT0(14):26"/>
			</v:userDefs>
			<path d="M-4.68 111.07 A4.67693 4.67693 0 0 1 4.68 111.07 A4.67693 4.67693 0 1 1 -4.68 111.07 Z" class="st2"/>
		</g>
		<g id="shape83-46" v:mID="83" v:groupContext="shape" v:layerMember="1" transform="translate(14.1732,-30.2394)">
			<title>动态连接线.83</title>
			<path d="M-4.58 104.04 L-9.6 103.94" class="st7"/>
		</g>
		<g id="shape84-49" v:mID="84" v:groupContext="shape" v:layerMember="1" transform="translate(4.57568,-37.3752)">
			<title>动态连接线.84</title>
			<path d="M0 111.07 L0 134.72 L66.37 134.72" class="st7"/>
		</g>
		<g id="shape85-52" v:mID="85" v:groupContext="shape" transform="translate(20.6514,-27.454)">
			<title>工作表.85</title>
			<desc>L/R</desc>
			<v:textBlock v:margins="rect(1,1,1,1)" v:tabSpace="42.5197"/>
			<v:textRect cx="7.79528" cy="105.405" width="15.6" height="11.3386"/>
			<rect x="0" y="99.7361" width="15.5906" height="11.3386" class="st3"/>
			<text x="2.4" y="107.81" class="st4" v:langID="2052"><v:paragraph v:horizAlign="1"/><v:tabList/>L/R</text>		</g>
		<g id="shape86-55" v:mID="86" v:groupContext="shape" v:layerMember="1" transform="translate(63.8016,-96.9014)">
			<title>动态连接线.86</title>
			<path d="M3.55 103.99 L10.62 103.99" class="st7"/>
		</g>
		<g id="shape87-58" v:mID="87" v:groupContext="shape" v:layerMember="1" transform="translate(63.7757,-92.712)">
			<title>动态连接线.87</title>
			<path d="M7.09 108.1 L7.09 99.87" class="st7"/>
		</g>
		<g id="shape88-61" v:mID="88" v:groupContext="shape" transform="translate(66.5059,-99.4219)">
			<title>工作表.88</title>
			<desc>VDD</desc>
			<v:textBlock v:margins="rect(1,1,1,1)" v:tabSpace="42.5197"/>
			<v:textRect cx="17.0079" cy="107.479" width="34.02" height="7.19155"/>
			<rect x="0" y="103.883" width="34.0157" height="7.19155" class="st6"/>
			<text x="9.82" y="109.88" class="st4" v:langID="2052"><v:paragraph v:horizAlign="1"/><v:tabList/>VDD</text>		</g>
		<g id="shape89-64" v:mID="89" v:groupContext="shape" transform="translate(231.472,-82.232)">
			<title>工作表.89</title>
			<desc>Chip</desc>
			<v:textBlock v:margins="rect(1,1,1,1)" v:tabSpace="42.5197"/>
			<v:textRect cx="28.3465" cy="102.571" width="56.7" height="17.0079"/>
			<rect x="0" y="94.0668" width="56.6929" height="17.0079" class="st3"/>
			<text x="19.28" y="105.57" class="st8" v:langID="2052"><v:paragraph v:horizAlign="1"/><v:tabList/>Chip</text>		</g>
		<g id="group90-67" transform="translate(158.826,-44.4032)" v:mID="90" v:groupContext="group" v:layerMember="0">
			<v:custProps>
				<v:cp v:nameU="Label" v:lbl="标签" v:type="0" v:format="@" v:sortKey="" v:invis="false" v:ask="false" v:langID="2052"
						v:val="VT4()"/>
				<v:cp v:nameU="Slider_Position" v:lbl="滑块位置 (0-1)" v:type="2" v:langID="2052" v:val="VT0(0.5):26"/>
				<v:cp v:nameU="Label" v:lbl="" v:prompt="" v:type="0" v:format="" v:sortKey="" v:invis="false" v:ask="false"
						v:langID="0" v:cal="0" v:val="VT4(22ohm)"/>
			</v:custProps>
			<v:userDefs>
				<v:ud v:nameU="Form" v:val="VT0(1):5"/>
				<v:ud v:nameU="SubType" v:val="VT0(0):26"/>
				<v:ud v:nameU="visDescription" v:val="VT4(Represents a fixed or variable resistor.)"/>
				<v:ud v:nameU="visVersion" v:val="VT0(15):26"/>
				<v:ud v:nameU="Label" v:prompt="" v:val="VT4()"/>
				<v:ud v:nameU="SolSH" v:prompt="" v:val="VT4({2EE3C7D2-E26E-4B72-9E9C-5170DDBF261A})"/>
				<v:ud v:nameU="Label" v:prompt="" v:val="VT4(R1)"/>
			</v:userDefs>
			<title>电阻器</title>
			<desc>22ohm</desc>
			<g id="shape91-68" v:mID="91" v:groupContext="shape" v:layerMember="0" transform="translate(-1.04469,0.966196)">
				<title>工作表.91</title>
			</g>
			<g id="shape92-70" v:mID="92" v:groupContext="shape" v:layerMember="0">
				<title>工作表.92</title>
				<path d="M3.31 105.01 L3.31 103.35 L10.48 103.35 L10.48 105.01 L2.21 105.01 L2.21 102.25 L11.58 102.25 L11.58 106.11
							 L2.21 106.11 L2.21 105.01 L3.31 105.01 Z" class="st9"/>
				<path d="M13.79 104.18 L11.03 104.18" class="st10"/>
				<path d="M2.76 104.18 L0 104.18" class="st10"/>
			</g>
			<g id="shape90-74" v:mID="90" v:groupContext="groupContent" v:layerMember="0">
				<v:textBlock v:margins="rect(1,1,1,1)" v:tabSpace="34.0157"/>
				<v:textRect cx="6.98202" cy="98.5128" width="26.74" height="11.6036"/>
				<text x="-4.48" y="100.91" class="st4" v:langID="2052"><v:paragraph v:horizAlign="1"/><v:tabList/>22ohm</text>			</g>
		</g>
		<g id="shape93-76" v:mID="93" v:groupContext="shape" transform="translate(172.611,-51.3302)">
			<title>工作表.93</title>
			<path d="M0 111.07 L38.77 111.07" class="st11"/>
		</g>
		<g id="shape94-79" v:mID="94" v:groupContext="shape" transform="translate(158.826,170.819) rotate(180)">
			<title>工作表.94</title>
			<path d="M0 111.07 L26.57 111.07" class="st11"/>
		</g>
		<g id="group95-82" transform="translate(158.826,-24.7368)" v:mID="95" v:groupContext="group" v:layerMember="0">
			<v:custProps>
				<v:cp v:nameU="Label" v:lbl="标签" v:type="0" v:format="@" v:sortKey="" v:invis="false" v:ask="false" v:langID="2052"
						v:val="VT4()"/>
				<v:cp v:nameU="Slider_Position" v:lbl="滑块位置 (0-1)" v:type="2" v:langID="2052" v:val="VT0(0.5):26"/>
				<v:cp v:nameU="Label" v:lbl="" v:prompt="" v:type="0" v:format="" v:sortKey="" v:invis="false" v:ask="false"
						v:langID="0" v:cal="0" v:val="VT4(22ohm)"/>
			</v:custProps>
			<v:userDefs>
				<v:ud v:nameU="Form" v:val="VT0(1):5"/>
				<v:ud v:nameU="SubType" v:val="VT0(0):26"/>
				<v:ud v:nameU="visDescription" v:val="VT4(Represents a fixed or variable resistor.)"/>
				<v:ud v:nameU="visVersion" v:val="VT0(15):26"/>
				<v:ud v:nameU="Label" v:prompt="" v:val="VT4()"/>
				<v:ud v:nameU="SolSH" v:prompt="" v:val="VT4({2EE3C7D2-E26E-4B72-9E9C-5170DDBF261A})"/>
				<v:ud v:nameU="Label" v:prompt="" v:val="VT4(R2)"/>
			</v:userDefs>
			<title>电阻器.95</title>
			<desc>22ohm</desc>
			<g id="shape96-83" v:mID="96" v:groupContext="shape" v:layerMember="0" transform="translate(-1.04469,0.966196)">
				<title>工作表.96</title>
			</g>
			<g id="shape97-85" v:mID="97" v:groupContext="shape" v:layerMember="0">
				<title>工作表.97</title>
				<path d="M3.31 105.01 L3.31 103.35 L10.48 103.35 L10.48 105.01 L2.21 105.01 L2.21 102.25 L11.58 102.25 L11.58 106.11
							 L2.21 106.11 L2.21 105.01 L3.31 105.01 Z" class="st9"/>
				<path d="M13.79 104.18 L11.03 104.18" class="st10"/>
				<path d="M2.76 104.18 L0 104.18" class="st10"/>
			</g>
			<g id="shape95-89" v:mID="95" v:groupContext="groupContent" v:layerMember="0">
				<v:textBlock v:margins="rect(1,1,1,1)" v:tabSpace="34.0157"/>
				<v:textRect cx="6.98202" cy="98.5128" width="26.74" height="11.6036"/>
				<text x="-4.48" y="100.91" class="st4" v:langID="2052"><v:paragraph v:horizAlign="1"/><v:tabList/>22ohm</text>			</g>
		</g>
		<g id="shape98-91" v:mID="98" v:groupContext="shape" transform="translate(172.611,-31.6639)">
			<title>工作表.98</title>
			<path d="M0 111.07 L38.75 111.07" class="st11"/>
		</g>
		<g id="shape99-94" v:mID="99" v:groupContext="shape" transform="translate(158.826,190.485) rotate(180)">
			<title>工作表.99</title>
			<path d="M0 111.07 L26.54 111.07" class="st11"/>
		</g>
	</g>
</svg>
