<?xml version="1.0" encoding="UTF-8" standalone="no"?>
<!DOCTYPE svg PUBLIC "-//W3C//DTD SVG 1.1//EN" "http://www.w3.org/Graphics/SVG/1.1/DTD/svg11.dtd">
<!-- 由 Microsoft Visio, SVG Export 生成 Microsoft_Visio___17.svg 页-1 -->
<svg xmlns="http://www.w3.org/2000/svg" xmlns:xlink="http://www.w3.org/1999/xlink" xmlns:ev="http://www.w3.org/2001/xml-events"
		xmlns:v="http://schemas.microsoft.com/visio/2003/SVGExtensions/" width="4.69707in" height="3.18574in"
		viewBox="0 0 338.189 229.373" xml:space="preserve" color-interpolation-filters="sRGB" class="st10">
	<v:documentProperties v:langID="2052" v:metric="true" v:viewMarkup="false"/>

	<style type="text/css">
	<![CDATA[
		.st1 {stroke:#000000;stroke-linecap:round;stroke-linejoin:round;stroke-width:0.5}
		.st2 {fill:#ffffff;stroke:#000000;stroke-linecap:round;stroke-linejoin:round;stroke-width:0.5}
		.st3 {fill:#000000;font-family:Calibri;font-size:0.833336em}
		.st4 {fill:#ffffff;stroke:none;stroke-linecap:round;stroke-linejoin:round;stroke-width:0.5}
		.st5 {fill:#000000;font-family:Calibri;font-size:0.666664em}
		.st6 {fill:none;stroke:none;stroke-linecap:round;stroke-linejoin:round;stroke-width:0.5}
		.st7 {fill:#ffffff}
		.st8 {fill:#000000}
		.st9 {stroke:#000000;stroke-linecap:butt;stroke-width:0.551407}
		.st10 {fill:none;fill-rule:evenodd;font-size:12px;overflow:visible;stroke-linecap:square;stroke-miterlimit:3}
	]]>
	</style>

	<g v:mID="0" v:index="1" v:groupContext="foregroundPage">
		<v:userDefs>
			<v:ud v:nameU="ResistorCount" v:prompt="" v:val="VT0(6):26"/>
		</v:userDefs>
		<title>页-1</title>
		<v:pageProperties v:drawingScale="0.0393701" v:pageScale="0.0393701" v:drawingUnits="24" v:shadowOffsetX="8.50394"
				v:shadowOffsetY="-8.50394"/>
		<v:layer v:name="连接线" v:index="0"/>
		<v:layer v:name="电气" v:index="1"/>
		<g id="shape58-1" v:mID="58" v:groupContext="shape" v:layerMember="0" transform="translate(227.13,-93.9632)">
			<title>Dynamic connector.58</title>
			<path d="M0 236.32 L-19.07 236.45 A2.3622 2.3622 -180 1 0 -23.79 236.49 L-39.86 236.6" class="st1"/>
		</g>
		<g id="shape59-4" v:mID="59" v:groupContext="shape" transform="translate(35.6186,-19.7288)">
			<title>矩形.59</title>
			<v:userDefs>
				<v:ud v:nameU="visVersion" v:val="VT0(14):26"/>
			</v:userDefs>
			<rect x="0" y="144.334" width="113.386" height="85.0394" class="st2"/>
		</g>
		<g id="shape60-6" v:mID="60" v:groupContext="shape" transform="translate(231.731,-0.900872)">
			<title>矩形.60</title>
			<desc>Chip</desc>
			<v:userDefs>
				<v:ud v:nameU="visVersion" v:val="VT0(14):26"/>
			</v:userDefs>
			<v:textBlock v:margins="rect(4,4,4,4)" v:tabSpace="42.5197"/>
			<v:textRect cx="53.1041" cy="116.373" width="106.21" height="226.001"/>
			<rect x="0" y="3.37253" width="106.208" height="226.001" class="st2"/>
			<text x="44.04" y="35.37" class="st3" v:langID="2052"><v:paragraph v:horizAlign="1"/><v:tabList/>Chip<v:newlineChar/><v:newlineChar/><v:newlineChar/><v:newlineChar/><v:newlineChar/><v:newlineChar/><v:newlineChar/><v:newlineChar/><v:newlineChar/><v:newlineChar/><v:newlineChar/><v:newlineChar/><v:newlineChar/><v:newlineChar/></text>		</g>
		<g id="shape61-9" v:mID="61" v:groupContext="shape" transform="translate(69.5392,270.734) rotate(-135)">
			<title>中心拖动圆形.61</title>
			<v:userDefs>
				<v:ud v:nameU="visVersion" v:val="VT0(14):26"/>
			</v:userDefs>
			<path d="M-4.68 229.37 A4.67693 4.67693 0 0 1 4.68 229.37 A4.67693 4.67693 0 1 1 -4.68 229.37 Z" class="st2"/>
		</g>
		<g id="shape62-11" v:mID="62" v:groupContext="shape" transform="translate(-69.8799,371.836) rotate(-135)">
			<title>中心拖动圆形.62</title>
			<v:userDefs>
				<v:ud v:nameU="visVersion" v:val="VT0(14):26"/>
			</v:userDefs>
			<path d="M-4.68 229.37 A4.67693 4.67693 0 0 1 4.68 229.37 A4.67693 4.67693 0 1 1 -4.68 229.37 Z" class="st2"/>
		</g>
		<g id="shape63-13" v:mID="63" v:groupContext="shape" transform="translate(238.817,-113.443)">
			<title>工作表.63</title>
			<desc>DMIC_CLK</desc>
			<v:textBlock v:margins="rect(1,1,1,1)" v:tabSpace="42.5197"/>
			<v:textRect cx="20.0222" cy="222.574" width="40.05" height="13.5992"/>
			<rect x="0" y="215.774" width="40.0443" height="13.5992" class="st4"/>
			<text x="3.12" y="224.97" class="st5" v:langID="2052"><v:paragraph v:horizAlign="1"/><v:tabList/>DMIC_CLK</text>		</g>
		<g id="shape64-16" v:mID="64" v:groupContext="shape" transform="translate(-13.187,338.104) rotate(-135)">
			<title>Center drag circle.64</title>
			<v:userDefs>
				<v:ud v:nameU="visVersion" v:val="VT0(14):26"/>
			</v:userDefs>
			<path d="M-4.68 229.37 A4.67693 4.67693 0 0 1 4.68 229.37 A4.67693 4.67693 0 1 1 -4.68 229.37 Z" class="st2"/>
		</g>
		<g id="shape65-18" v:mID="65" v:groupContext="shape" transform="translate(-126.573,302.506) rotate(-135)">
			<title>中心拖动圆形.65</title>
			<v:userDefs>
				<v:ud v:nameU="visVersion" v:val="VT0(14):26"/>
			</v:userDefs>
			<path d="M-4.68 229.37 A4.67693 4.67693 0 0 1 4.68 229.37 A4.67693 4.67693 0 1 1 -4.68 229.37 Z" class="st2"/>
		</g>
		<g id="shape66-20" v:mID="66" v:groupContext="shape" transform="translate(34.2013,-82.8469)">
			<title>工作表.66</title>
			<desc>VDD</desc>
			<v:textBlock v:margins="rect(1,1,1,1)" v:tabSpace="42.5197"/>
			<v:textRect cx="17.0079" cy="223.704" width="34.02" height="11.3386"/>
			<rect x="0" y="218.035" width="34.0157" height="11.3386" class="st6"/>
			<text x="9.82" y="226.1" class="st5" v:langID="2052"><v:paragraph v:horizAlign="1"/><v:tabList/>VDD</text>		</g>
		<g id="shape67-23" v:mID="67" v:groupContext="shape" transform="translate(65.3824,-57.8808)">
			<title>工作表.67</title>
			<desc>Digital MIC</desc>
			<v:textBlock v:margins="rect(1,1,1,1)" v:tabSpace="42.5197"/>
			<v:textRect cx="28.3465" cy="220.869" width="56.7" height="17.0079"/>
			<rect x="0" y="212.365" width="56.6929" height="17.0079" class="st4"/>
			<text x="6.07" y="223.87" class="st3" v:langID="2052"><v:paragraph v:horizAlign="1"/><v:tabList/>Digital MIC</text>		</g>
		<g id="shape68-26" v:mID="68" v:groupContext="shape" transform="translate(110.737,-45.713)">
			<title>工作表.68</title>
			<desc>CLOCK</desc>
			<v:textBlock v:margins="rect(1,1,1,1)" v:tabSpace="42.5197"/>
			<v:textRect cx="19.8425" cy="222.287" width="39.69" height="14.1732"/>
			<rect x="0" y="215.2" width="39.685" height="14.1732" class="st6"/>
			<text x="9.17" y="224.69" class="st5" v:langID="2052"><v:paragraph v:horizAlign="1"/><v:tabList/>CLOCK</text>		</g>
		<g id="shape69-29" v:mID="69" v:groupContext="shape" transform="translate(76.721,-27.2878)">
			<title>工作表.69</title>
			<desc>GND</desc>
			<v:textBlock v:margins="rect(1,1,1,1)" v:tabSpace="42.5197"/>
			<v:textRect cx="17.0079" cy="223.704" width="34.02" height="11.3386"/>
			<rect x="0" y="218.035" width="34.0157" height="11.3386" class="st4"/>
			<text x="9.44" y="226.1" class="st5" v:langID="2052"><v:paragraph v:horizAlign="1"/><v:tabList/>GND</text>		</g>
		<g id="shape70-32" v:mID="70" v:groupContext="shape" v:layerMember="1" transform="translate(-134.129,229.123) rotate(-90)">
			<title>接地.70</title>
			<v:userDefs>
				<v:ud v:nameU="visVersion" v:val="VT0(14):26"/>
				<v:ud v:nameU="visDescription" v:val="VT4(表示接地。)"/>
			</v:userDefs>
			<path d="M0 225.41 L0 227.39" class="st1"/>
			<path d="M0.99 224.42 L0.99 228.38" class="st1"/>
			<path d="M1.98 223.43 L1.98 229.37" class="st1"/>
			<path d="M14.85 226.4 L1.98 226.4" class="st1"/>
		</g>
		<g id="shape71-38" v:mID="71" v:groupContext="shape" transform="translate(69.5392,304.39) rotate(-135)">
			<title>中心拖动圆形.71</title>
			<v:userDefs>
				<v:ud v:nameU="visVersion" v:val="VT0(14):26"/>
			</v:userDefs>
			<path d="M-4.68 229.37 A4.67693 4.67693 0 0 1 4.68 229.37 A4.67693 4.67693 0 1 1 -4.68 229.37 Z" class="st2"/>
		</g>
		<g id="shape72-40" v:mID="72" v:groupContext="shape" transform="translate(237.164,-77.5438)">
			<title>工作表.72</title>
			<desc>DMIC_DATA</desc>
			<v:textBlock v:margins="rect(1,1,1,1)" v:tabSpace="42.5197"/>
			<v:textRect cx="24.3621" cy="220.69" width="48.73" height="17.3668"/>
			<rect x="0" y="212.006" width="48.7242" height="17.3668" class="st4"/>
			<text x="4.31" y="223.09" class="st5" v:langID="2052"><v:paragraph v:horizAlign="1"/><v:tabList/>DMIC_DATA</text>		</g>
		<g id="shape73-43" v:mID="73" v:groupContext="shape" transform="translate(-13.187,357.946) rotate(-135)">
			<title>Center drag circle.73</title>
			<v:userDefs>
				<v:ud v:nameU="visVersion" v:val="VT0(14):26"/>
			</v:userDefs>
			<path d="M-4.68 229.37 A4.67693 4.67693 0 0 1 4.68 229.37 A4.67693 4.67693 0 1 1 -4.68 229.37 Z" class="st2"/>
		</g>
		<g id="shape74-45" v:mID="74" v:groupContext="shape" transform="translate(110.737,-25.8705)">
			<title>工作表.74</title>
			<desc>DATA</desc>
			<v:textBlock v:margins="rect(1,1,1,1)" v:tabSpace="42.5197"/>
			<v:textRect cx="19.8425" cy="222.287" width="39.69" height="14.1732"/>
			<rect x="0" y="215.2" width="39.685" height="14.1732" class="st6"/>
			<text x="10.8" y="224.69" class="st5" v:langID="2052"><v:paragraph v:horizAlign="1"/><v:tabList/>DATA</text>		</g>
		<g id="shape75-48" v:mID="75" v:groupContext="shape" transform="translate(-126.573,352.938) rotate(-135)">
			<title>Center drag circle.75</title>
			<v:userDefs>
				<v:ud v:nameU="visVersion" v:val="VT0(14):26"/>
			</v:userDefs>
			<path d="M-4.68 229.37 A4.67693 4.67693 0 0 1 4.68 229.37 A4.67693 4.67693 0 1 1 -4.68 229.37 Z" class="st2"/>
		</g>
		<g id="shape76-50" v:mID="76" v:groupContext="shape" v:layerMember="0" transform="translate(35.8808,-45.5693)">
			<title>动态连接线.76</title>
			<path d="M-4.94 236.41 L-9.24 236.51" class="st1"/>
		</g>
		<g id="shape77-53" v:mID="77" v:groupContext="shape" v:layerMember="0" transform="translate(26.6457,-38.4374)">
			<title>动态连接线.77</title>
			<path d="M0 229.37 L0 255.26 L65.63 255.26" class="st1"/>
		</g>
		<g id="shape78-56" v:mID="78" v:groupContext="shape" transform="translate(41.9966,-28.7051)">
			<title>工作表.78</title>
			<desc>L/R</desc>
			<v:textBlock v:margins="rect(1,1,1,1)" v:tabSpace="42.5197"/>
			<v:textRect cx="7.79528" cy="223.704" width="15.6" height="11.3386"/>
			<rect x="0" y="218.035" width="15.5906" height="11.3386" class="st4"/>
			<text x="2.4" y="226.1" class="st5" v:langID="2052"><v:paragraph v:horizAlign="1"/><v:tabList/>L/R</text>		</g>
		<g id="shape79-59" v:mID="79" v:groupContext="shape" transform="translate(34.91,-135.604)">
			<title>矩形.79</title>
			<v:userDefs>
				<v:ud v:nameU="visVersion" v:val="VT0(14):26"/>
			</v:userDefs>
			<rect x="0" y="147.284" width="113.386" height="82.089" class="st2"/>
		</g>
		<g id="shape80-61" v:mID="80" v:groupContext="shape" transform="translate(-24.7948,291.414) rotate(-149.505)">
			<title>Center drag circle.80</title>
			<v:userDefs>
				<v:ud v:nameU="visVersion" v:val="VT0(14):26"/>
			</v:userDefs>
			<path d="M-3.84 229.37 A3.83797 3.83797 0 0 1 3.84 229.37 A3.83797 3.83797 0 1 1 -3.84 229.37 Z" class="st2"/>
		</g>
		<g id="shape81-63" v:mID="81" v:groupContext="shape" transform="translate(-13.8956,223.588) rotate(-135)">
			<title>Center drag circle.81</title>
			<v:userDefs>
				<v:ud v:nameU="visVersion" v:val="VT0(14):26"/>
			</v:userDefs>
			<path d="M-4.68 229.37 A4.67693 4.67693 0 0 1 4.68 229.37 A4.67693 4.67693 0 1 1 -4.68 229.37 Z" class="st2"/>
		</g>
		<g id="shape82-65" v:mID="82" v:groupContext="shape" transform="translate(-127.281,187.115) rotate(-135)">
			<title>中心拖动圆形.82</title>
			<v:userDefs>
				<v:ud v:nameU="visVersion" v:val="VT0(14):26"/>
			</v:userDefs>
			<path d="M-4.68 229.37 A4.67693 4.67693 0 0 1 4.68 229.37 A4.67693 4.67693 0 1 1 -4.68 229.37 Z" class="st2"/>
		</g>
		<g id="shape83-67" v:mID="83" v:groupContext="shape" transform="translate(33.4927,-197.363)">
			<title>工作表.83</title>
			<desc>VDD</desc>
			<v:textBlock v:margins="rect(1,1,1,1)" v:tabSpace="42.5197"/>
			<v:textRect cx="17.0079" cy="223.704" width="34.02" height="11.3386"/>
			<rect x="0" y="218.035" width="34.0157" height="11.3386" class="st6"/>
			<text x="9.82" y="226.1" class="st5" v:langID="2052"><v:paragraph v:horizAlign="1"/><v:tabList/>VDD</text>		</g>
		<g id="shape84-70" v:mID="84" v:groupContext="shape" transform="translate(64.6738,-172.397)">
			<title>工作表.84</title>
			<desc>Digital MIC</desc>
			<v:textBlock v:margins="rect(1,1,1,1)" v:tabSpace="42.5197"/>
			<v:textRect cx="28.3465" cy="220.869" width="56.7" height="17.0079"/>
			<rect x="0" y="212.365" width="56.6929" height="17.0079" class="st4"/>
			<text x="6.07" y="223.87" class="st3" v:langID="2052"><v:paragraph v:horizAlign="1"/><v:tabList/>Digital MIC</text>		</g>
		<g id="shape85-73" v:mID="85" v:groupContext="shape" transform="translate(110.028,-160.229)">
			<title>工作表.85</title>
			<desc>CLOCK</desc>
			<v:textBlock v:margins="rect(1,1,1,1)" v:tabSpace="42.5197"/>
			<v:textRect cx="19.8425" cy="222.287" width="39.69" height="14.1732"/>
			<rect x="0" y="215.2" width="39.685" height="14.1732" class="st6"/>
			<text x="9.17" y="224.69" class="st5" v:langID="2052"><v:paragraph v:horizAlign="1"/><v:tabList/>CLOCK</text>		</g>
		<g id="shape86-76" v:mID="86" v:groupContext="shape" transform="translate(76.0123,-141.804)">
			<title>工作表.86</title>
			<desc>GND</desc>
			<v:textBlock v:margins="rect(1,1,1,1)" v:tabSpace="42.5197"/>
			<v:textRect cx="17.0079" cy="223.704" width="34.02" height="11.3386"/>
			<rect x="0" y="218.035" width="34.0157" height="11.3386" class="st4"/>
			<text x="9.44" y="226.1" class="st5" v:langID="2052"><v:paragraph v:horizAlign="1"/><v:tabList/>GND</text>		</g>
		<g id="shape87-79" v:mID="87" v:groupContext="shape" v:layerMember="1" transform="translate(-134.129,115.664) rotate(-90)">
			<title>接地.87</title>
			<v:userDefs>
				<v:ud v:nameU="visVersion" v:val="VT0(14):26"/>
				<v:ud v:nameU="visDescription" v:val="VT4(表示接地。)"/>
			</v:userDefs>
			<path d="M0 224.53 L0 226.95" class="st1"/>
			<path d="M1.21 223.32 L1.21 228.16" class="st1"/>
			<path d="M2.42 222.11 L2.42 229.37" class="st1"/>
			<path d="M18.16 225.74 L2.42 225.74" class="st1"/>
		</g>
		<g id="shape88-85" v:mID="88" v:groupContext="shape" transform="translate(-13.8956,243.43) rotate(-135)">
			<title>Center drag circle.88</title>
			<v:userDefs>
				<v:ud v:nameU="visVersion" v:val="VT0(14):26"/>
			</v:userDefs>
			<path d="M-4.68 229.37 A4.67693 4.67693 0 0 1 4.68 229.37 A4.67693 4.67693 0 1 1 -4.68 229.37 Z" class="st2"/>
		</g>
		<g id="shape89-87" v:mID="89" v:groupContext="shape" transform="translate(110.028,-140.387)">
			<title>工作表.89</title>
			<desc>DATA</desc>
			<v:textBlock v:margins="rect(1,1,1,1)" v:tabSpace="42.5197"/>
			<v:textRect cx="19.8425" cy="222.287" width="39.69" height="14.1732"/>
			<rect x="0" y="215.2" width="39.685" height="14.1732" class="st6"/>
			<text x="10.8" y="224.69" class="st5" v:langID="2052"><v:paragraph v:horizAlign="1"/><v:tabList/>DATA</text>		</g>
		<g id="shape90-90" v:mID="90" v:groupContext="shape" transform="translate(-127.281,238.422) rotate(-135)">
			<title>Center drag circle.90</title>
			<v:userDefs>
				<v:ud v:nameU="visVersion" v:val="VT0(14):26"/>
			</v:userDefs>
			<path d="M-4.68 229.37 A4.67693 4.67693 0 0 1 4.68 229.37 A4.67693 4.67693 0 1 1 -4.68 229.37 Z" class="st2"/>
		</g>
		<g id="shape91-92" v:mID="91" v:groupContext="shape" transform="translate(41.2879,-143.221)">
			<title>工作表.91</title>
			<desc>L/R</desc>
			<v:textBlock v:margins="rect(1,1,1,1)" v:tabSpace="42.5197"/>
			<v:textRect cx="7.79528" cy="223.704" width="15.6" height="11.3386"/>
			<rect x="0" y="218.035" width="15.5906" height="11.3386" class="st4"/>
			<text x="2.4" y="226.1" class="st5" v:langID="2052"><v:paragraph v:horizAlign="1"/><v:tabList/>L/R</text>		</g>
		<g id="shape92-95" v:mID="92" v:groupContext="shape" v:layerMember="0" transform="translate(30.2335,-160.156)">
			<title>动态连接线.92</title>
			<path d="M0 236.45 L-22.96 236.47" class="st1"/>
		</g>
		<g id="shape93-98" v:mID="93" v:groupContext="shape" v:layerMember="0" transform="translate(0.0756624,-222.287)">
			<title>动态连接线.93</title>
			<path d="M7.01 229.37 L7.16 298.6" class="st1"/>
		</g>
		<g id="shape94-101" v:mID="94" v:groupContext="shape" v:layerMember="0" transform="translate(30.279,-196.758)">
			<title>动态连接线.94</title>
			<path d="M0 222.34 L-23.29 222.24" class="st1"/>
		</g>
		<g id="shape95-104" v:mID="95" v:groupContext="shape" v:layerMember="0" transform="translate(7.23794,-161.561)">
			<title>动态连接线.95</title>
			<path d="M0 229.37 L0 301.76 L23.72 301.76" class="st1"/>
		</g>
		<g id="group96-107" transform="translate(-206.63,39.2574) rotate(-90)" v:mID="96" v:groupContext="group" v:layerMember="1">
			<v:userDefs>
				<v:ud v:nameU="Form" v:val="VT0(0):26"/>
				<v:ud v:nameU="Type" v:val="VT0(0):26"/>
				<v:ud v:nameU="visVersion" v:val="VT0(14):26"/>
				<v:ud v:nameU="visDescription" v:val="VT4(表示固定或可变电容器。)"/>
			</v:userDefs>
			<title>电容器.96</title>
			<g id="shape97-108" v:mID="97" v:groupContext="shape" v:layerMember="1"
					transform="translate(165.383,62.0085) rotate(45)">
				<title>工作表.97</title>
			</g>
			<g id="shape98-110" v:mID="98" v:groupContext="shape" v:layerMember="1" transform="translate(4.75224,0)">
				<title>工作表.98</title>
				<path d="M1.36 229.37 L1.36 223.94" class="st1"/>
				<path d="M2.72 229.37 L2.72 223.94" class="st1"/>
			</g>
			<g id="shape99-114" v:mID="99" v:groupContext="shape" v:layerMember="1" transform="translate(0,-2.71557)">
				<title>工作表.99</title>
				<path d="M0 229.37 L6.11 229.37" class="st1"/>
				<path d="M7.47 229.37 L13.58 229.37" class="st1"/>
			</g>
		</g>
		<g id="shape100-118" v:mID="100" v:groupContext="shape" v:layerMember="1"
				transform="translate(-206.129,49.3228) rotate(-90)">
			<title>等电势.100</title>
			<v:userDefs>
				<v:ud v:nameU="visVersion" v:val="VT0(14):26"/>
				<v:ud v:nameU="visDescription" v:val="VT4(表示等电势。)"/>
			</v:userDefs>
			<path d="M3.23 229.37 L3.23 222.91 L0 226.14 L3.23 229.37 Z" class="st7"/>
			<path d="M3.23 229.37 L3.23 222.91 L0 226.14 L3.23 229.37" class="st1"/>
			<path d="M16.16 226.14 L3.23 226.14" class="st1"/>
		</g>
		<g id="group101-122" transform="translate(-206.375,155.045) rotate(-90)" v:mID="101" v:groupContext="group"
				v:layerMember="1">
			<v:userDefs>
				<v:ud v:nameU="Form" v:val="VT0(0):26"/>
				<v:ud v:nameU="Type" v:val="VT0(0):26"/>
				<v:ud v:nameU="visVersion" v:val="VT0(14):26"/>
				<v:ud v:nameU="visDescription" v:val="VT4(表示固定或可变电容器。)"/>
			</v:userDefs>
			<title>电容器.101</title>
			<g id="shape102-123" v:mID="102" v:groupContext="shape" v:layerMember="1"
					transform="translate(165.681,61.5242) rotate(45)">
				<title>工作表.102</title>
			</g>
			<g id="shape103-125" v:mID="103" v:groupContext="shape" v:layerMember="1" transform="translate(5.1971,0)">
				<title>工作表.103</title>
				<path d="M1.48 229.37 L1.48 223.43" class="st1"/>
				<path d="M2.97 229.37 L2.97 223.43" class="st1"/>
			</g>
			<g id="shape104-129" v:mID="104" v:groupContext="shape" v:layerMember="1" transform="translate(0,-2.96977)">
				<title>工作表.104</title>
				<path d="M0 229.37 L6.68 229.37" class="st1"/>
				<path d="M8.17 229.37 L14.85 229.37" class="st1"/>
			</g>
		</g>
		<g id="shape105-133" v:mID="105" v:groupContext="shape" v:layerMember="1"
				transform="translate(-204.776,171.493) rotate(-90)">
			<title>等电势.105</title>
			<v:userDefs>
				<v:ud v:nameU="visVersion" v:val="VT0(14):26"/>
				<v:ud v:nameU="visDescription" v:val="VT4(表示等电势。)"/>
			</v:userDefs>
			<path d="M4.57 229.37 L4.57 220.24 L0 224.8 L4.57 229.37 Z" class="st7"/>
			<path d="M4.57 229.37 L4.57 220.24 L0 224.8 L4.57 229.37" class="st1"/>
			<path d="M22.84 224.8 L4.57 224.8" class="st1"/>
		</g>
		<g id="shape106-137" v:mID="106" v:groupContext="shape" v:layerMember="0" transform="translate(205.597,-167.603)">
			<title>动态连接线.106</title>
			<path d="M0 229.37 L0 276.66 L21.47 276.66" class="st1"/>
		</g>
		<g id="shape107-140" v:mID="107" v:groupContext="shape" v:layerMember="0" transform="translate(181.26,-160.516)">
			<title>动态连接线.107</title>
			<path d="M0 222.29 L24.34 222.29" class="st1"/>
		</g>
		<g id="shape108-143" v:mID="108" v:groupContext="shape" v:layerMember="0" transform="translate(205.697,-129.123)">
			<title>动态连接线.108</title>
			<path d="M0 229.37 L0 305.13 L-16.06 305.13 A2.3622 2.3622 -180 0 0 -20.79 305.13 L-27.94 305.13" class="st1"/>
		</g>
		<g id="shape109-146" v:mID="109" v:groupContext="shape" v:layerMember="0" transform="translate(189.6,-86.7404)">
			<title>动态连接线.109</title>
			<path d="M-2.33 229.37 L-2.33 282.59 L-11.85 282.59" class="st1"/>
		</g>
		<g id="shape110-149" v:mID="110" v:groupContext="shape" v:layerMember="0" transform="translate(177.127,-155.518)">
			<title>动态连接线.110</title>
			<path d="M4.03 236.45 L10.15 236.47" class="st1"/>
		</g>
		<g id="shape111-152" v:mID="111" v:groupContext="shape" v:layerMember="0" transform="translate(180.186,-148.418)">
			<title>动态连接线.111</title>
			<path d="M7.09 229.37 L7.09 298.42" class="st1"/>
		</g>
		<g id="shape112-155" v:mID="112" v:groupContext="shape" transform="translate(3.02703,-216.334)">
			<title>工作表.112</title>
			<desc>VDD</desc>
			<v:textBlock v:margins="rect(1,1,1,1)" v:tabSpace="42.5197"/>
			<v:textRect cx="17.0079" cy="223.704" width="34.02" height="11.3386"/>
			<rect x="0" y="218.035" width="34.0157" height="11.3386" class="st6"/>
			<text x="9.82" y="226.1" class="st5" v:langID="2052"><v:paragraph v:horizAlign="1"/><v:tabList/>VDD</text>		</g>
		<g id="shape113-158" v:mID="113" v:groupContext="shape" v:layerMember="0" transform="translate(-1.09912E-14,-215.2)">
			<title>Dynamic connector.113</title>
			<path d="M4.25 222.29 L9.92 222.29" class="st1"/>
		</g>
		<g id="group114-161" transform="translate(167.475,-160.676)" v:mID="114" v:groupContext="group" v:layerMember="1">
			<v:custProps>
				<v:cp v:nameU="Label" v:lbl="标签" v:type="0" v:format="@" v:sortKey="" v:invis="false" v:ask="false" v:langID="2052"
						v:val="VT4()"/>
				<v:cp v:nameU="Slider_Position" v:lbl="滑块位置 (0-1)" v:type="2" v:langID="2052" v:val="VT0(0.5):26"/>
				<v:cp v:nameU="Label" v:lbl="" v:prompt="" v:type="0" v:format="" v:sortKey="" v:invis="false" v:ask="false"
						v:langID="0" v:cal="0" v:val="VT4(22ohm)"/>
			</v:custProps>
			<v:userDefs>
				<v:ud v:nameU="Form" v:val="VT0(1):5"/>
				<v:ud v:nameU="SubType" v:val="VT0(0):26"/>
				<v:ud v:nameU="visDescription" v:val="VT4(Represents a fixed or variable resistor.)"/>
				<v:ud v:nameU="visVersion" v:val="VT0(15):26"/>
				<v:ud v:nameU="Label" v:prompt="" v:val="VT4()"/>
				<v:ud v:nameU="SolSH" v:prompt="" v:val="VT4({2EE3C7D2-E26E-4B72-9E9C-5170DDBF261A})"/>
				<v:ud v:nameU="Label" v:prompt="" v:val="VT4(R2)"/>
			</v:userDefs>
			<title>电阻器</title>
			<desc>22ohm</desc>
			<g id="shape115-162" v:mID="115" v:groupContext="shape" v:layerMember="1" transform="translate(-1.04469,0.966196)">
				<title>工作表.115</title>
			</g>
			<g id="shape116-164" v:mID="116" v:groupContext="shape" v:layerMember="1">
				<title>工作表.116</title>
				<path d="M3.31 223.31 L3.31 221.65 L10.48 221.65 L10.48 223.31 L2.21 223.31 L2.21 220.55 L11.58 220.55 L11.58 224.41
							 L2.21 224.41 L2.21 223.31 L3.31 223.31 Z" class="st8"/>
				<path d="M13.79 222.48 L11.03 222.48" class="st9"/>
				<path d="M2.76 222.48 L0 222.48" class="st9"/>
			</g>
			<g id="shape114-168" v:mID="114" v:groupContext="groupContent" v:layerMember="1">
				<v:textBlock v:margins="rect(1,1,1,1)" v:tabSpace="34.0157"/>
				<v:textRect cx="6.98202" cy="216.811" width="26.74" height="11.6036"/>
				<text x="-4.48" y="219.21" class="st5" v:langID="2052"><v:paragraph v:horizAlign="1"/><v:tabList/>22ohm</text>			</g>
		</g>
		<g id="shape119-170" v:mID="119" v:groupContext="shape" transform="translate(167.475,291.144) rotate(180)">
			<title>工作表.119</title>
			<path d="M0 229.37 L14.52 229.37" class="st1"/>
		</g>
		<g id="group120-173" transform="translate(167.37,-141.517)" v:mID="120" v:groupContext="group" v:layerMember="1">
			<v:custProps>
				<v:cp v:nameU="Label" v:lbl="标签" v:type="0" v:format="@" v:sortKey="" v:invis="false" v:ask="false" v:langID="2052"
						v:val="VT4()"/>
				<v:cp v:nameU="Slider_Position" v:lbl="滑块位置 (0-1)" v:type="2" v:langID="2052" v:val="VT0(0.5):26"/>
				<v:cp v:nameU="Label" v:lbl="" v:prompt="" v:type="0" v:format="" v:sortKey="" v:invis="false" v:ask="false"
						v:langID="0" v:cal="0" v:val="VT4(22ohm)"/>
			</v:custProps>
			<v:userDefs>
				<v:ud v:nameU="Form" v:val="VT0(1):5"/>
				<v:ud v:nameU="SubType" v:val="VT0(0):26"/>
				<v:ud v:nameU="visDescription" v:val="VT4(Represents a fixed or variable resistor.)"/>
				<v:ud v:nameU="visVersion" v:val="VT0(15):26"/>
				<v:ud v:nameU="Label" v:prompt="" v:val="VT4()"/>
				<v:ud v:nameU="SolSH" v:prompt="" v:val="VT4({2EE3C7D2-E26E-4B72-9E9C-5170DDBF261A})"/>
				<v:ud v:nameU="Label" v:prompt="" v:val="VT4(R3)"/>
			</v:userDefs>
			<title>电阻器.120</title>
			<desc>22ohm</desc>
			<g id="shape121-174" v:mID="121" v:groupContext="shape" v:layerMember="1" transform="translate(-1.04469,0.966196)">
				<title>工作表.121</title>
			</g>
			<g id="shape122-176" v:mID="122" v:groupContext="shape" v:layerMember="1">
				<title>工作表.122</title>
				<path d="M3.31 223.31 L3.31 221.65 L10.48 221.65 L10.48 223.31 L2.21 223.31 L2.21 220.55 L11.58 220.55 L11.58 224.41
							 L2.21 224.41 L2.21 223.31 L3.31 223.31 Z" class="st8"/>
				<path d="M13.79 222.48 L11.03 222.48" class="st9"/>
				<path d="M2.76 222.48 L0 222.48" class="st9"/>
			</g>
			<g id="shape120-180" v:mID="120" v:groupContext="groupContent" v:layerMember="1">
				<v:textBlock v:margins="rect(1,1,1,1)" v:tabSpace="34.0157"/>
				<v:textRect cx="6.98202" cy="216.811" width="26.74" height="11.6036"/>
				<text x="-4.48" y="219.21" class="st5" v:langID="2052"><v:paragraph v:horizAlign="1"/><v:tabList/>22ohm</text>			</g>
		</g>
		<g id="shape123-182" v:mID="123" v:groupContext="shape" transform="translate(167.37,310.302) rotate(180)">
			<title>工作表.123</title>
			<path d="M0 229.37 L14.41 229.37" class="st1"/>
		</g>
		<g id="group124-185" transform="translate(163.969,-46.4393)" v:mID="124" v:groupContext="group" v:layerMember="1">
			<v:custProps>
				<v:cp v:nameU="Label" v:lbl="标签" v:type="0" v:format="@" v:sortKey="" v:invis="false" v:ask="false" v:langID="2052"
						v:val="VT4()"/>
				<v:cp v:nameU="Slider_Position" v:lbl="滑块位置 (0-1)" v:type="2" v:langID="2052" v:val="VT0(0.5):26"/>
				<v:cp v:nameU="Label" v:lbl="" v:prompt="" v:type="0" v:format="" v:sortKey="" v:invis="false" v:ask="false"
						v:langID="0" v:cal="0" v:val="VT4(22ohm)"/>
			</v:custProps>
			<v:userDefs>
				<v:ud v:nameU="Form" v:val="VT0(1):5"/>
				<v:ud v:nameU="SubType" v:val="VT0(0):26"/>
				<v:ud v:nameU="visDescription" v:val="VT4(Represents a fixed or variable resistor.)"/>
				<v:ud v:nameU="visVersion" v:val="VT0(15):26"/>
				<v:ud v:nameU="Label" v:prompt="" v:val="VT4()"/>
				<v:ud v:nameU="SolSH" v:prompt="" v:val="VT4({2EE3C7D2-E26E-4B72-9E9C-5170DDBF261A})"/>
				<v:ud v:nameU="Label" v:prompt="" v:val="VT4(R4)"/>
			</v:userDefs>
			<title>电阻器.124</title>
			<desc>22ohm</desc>
			<g id="shape125-186" v:mID="125" v:groupContext="shape" v:layerMember="1" transform="translate(-1.04469,0.966196)">
				<title>工作表.125</title>
			</g>
			<g id="shape126-188" v:mID="126" v:groupContext="shape" v:layerMember="1">
				<title>工作表.126</title>
				<path d="M3.31 223.31 L3.31 221.65 L10.48 221.65 L10.48 223.31 L2.21 223.31 L2.21 220.55 L11.58 220.55 L11.58 224.41
							 L2.21 224.41 L2.21 223.31 L3.31 223.31 Z" class="st8"/>
				<path d="M13.79 222.48 L11.03 222.48" class="st9"/>
				<path d="M2.76 222.48 L0 222.48" class="st9"/>
			</g>
			<g id="shape124-192" v:mID="124" v:groupContext="groupContent" v:layerMember="1">
				<v:textBlock v:margins="rect(1,1,1,1)" v:tabSpace="34.0157"/>
				<v:textRect cx="6.98202" cy="216.811" width="26.74" height="11.6036"/>
				<text x="-4.48" y="219.21" class="st5" v:langID="2052"><v:paragraph v:horizAlign="1"/><v:tabList/>22ohm</text>			</g>
		</g>
		<g id="shape127-194" v:mID="127" v:groupContext="shape" transform="translate(163.969,405.38) rotate(180)">
			<title>工作表.127</title>
			<path d="M0 229.37 L10.29 229.37" class="st1"/>
		</g>
		<g id="group128-197" transform="translate(163.969,-26.5968)" v:mID="128" v:groupContext="group" v:layerMember="1">
			<v:custProps>
				<v:cp v:nameU="Label" v:lbl="标签" v:type="0" v:format="@" v:sortKey="" v:invis="false" v:ask="false" v:langID="2052"
						v:val="VT4()"/>
				<v:cp v:nameU="Slider_Position" v:lbl="滑块位置 (0-1)" v:type="2" v:langID="2052" v:val="VT0(0.5):26"/>
				<v:cp v:nameU="Label" v:lbl="" v:prompt="" v:type="0" v:format="" v:sortKey="" v:invis="false" v:ask="false"
						v:langID="0" v:cal="0" v:val="VT4(22ohm)"/>
			</v:custProps>
			<v:userDefs>
				<v:ud v:nameU="Form" v:val="VT0(1):5"/>
				<v:ud v:nameU="SubType" v:val="VT0(0):26"/>
				<v:ud v:nameU="visDescription" v:val="VT4(Represents a fixed or variable resistor.)"/>
				<v:ud v:nameU="visVersion" v:val="VT0(15):26"/>
				<v:ud v:nameU="Label" v:prompt="" v:val="VT4()"/>
				<v:ud v:nameU="SolSH" v:prompt="" v:val="VT4({2EE3C7D2-E26E-4B72-9E9C-5170DDBF261A})"/>
				<v:ud v:nameU="Label" v:prompt="" v:val="VT4(R5)"/>
			</v:userDefs>
			<title>电阻器.128</title>
			<desc>22ohm</desc>
			<g id="shape129-198" v:mID="129" v:groupContext="shape" v:layerMember="1" transform="translate(-1.04469,0.966196)">
				<title>工作表.129</title>
			</g>
			<g id="shape130-200" v:mID="130" v:groupContext="shape" v:layerMember="1">
				<title>工作表.130</title>
				<path d="M3.31 223.31 L3.31 221.65 L10.48 221.65 L10.48 223.31 L2.21 223.31 L2.21 220.55 L11.58 220.55 L11.58 224.41
							 L2.21 224.41 L2.21 223.31 L3.31 223.31 Z" class="st8"/>
				<path d="M13.79 222.48 L11.03 222.48" class="st9"/>
				<path d="M2.76 222.48 L0 222.48" class="st9"/>
			</g>
			<g id="shape128-204" v:mID="128" v:groupContext="groupContent" v:layerMember="1">
				<v:textBlock v:margins="rect(1,1,1,1)" v:tabSpace="34.0157"/>
				<v:textRect cx="6.98202" cy="216.811" width="26.74" height="11.6036"/>
				<text x="-4.48" y="219.21" class="st5" v:langID="2052"><v:paragraph v:horizAlign="1"/><v:tabList/>22ohm</text>			</g>
		</g>
		<g id="shape132-206" v:mID="132" v:groupContext="shape" transform="translate(163.969,425.223) rotate(180)">
			<title>工作表.132</title>
			<path d="M0 229.37 L10.29 229.37" class="st1"/>
		</g>
	</g>
</svg>
