<?xml version="1.0" encoding="UTF-8" standalone="no"?>
<!DOCTYPE svg PUBLIC "-//W3C//DTD SVG 1.1//EN" "http://www.w3.org/Graphics/SVG/1.1/DTD/svg11.dtd">
<!-- 由 Microsoft Visio, SVG Export 生成 dplus_schematic_diagram_of_pinmux_connection_of_PA12.svg 页-1 -->
<svg xmlns="http://www.w3.org/2000/svg" xmlns:xlink="http://www.w3.org/1999/xlink" xmlns:ev="http://www.w3.org/2001/xml-events"
		xmlns:v="http://schemas.microsoft.com/visio/2003/SVGExtensions/" width="3.69126in" height="2.21514in"
		viewBox="0 0 265.771 159.49" xml:space="preserve" color-interpolation-filters="sRGB" class="st10">
	<v:documentProperties v:langID="2052" v:metric="true" v:viewMarkup="false"/>

	<style type="text/css">
	<![CDATA[
		.st1 {stroke:#000000;stroke-linecap:round;stroke-linejoin:round;stroke-width:0.75}
		.st2 {fill:none;stroke:#000000;stroke-linecap:round;stroke-linejoin:round;stroke-width:0.75}
		.st3 {fill:none;stroke:none;stroke-linecap:round;stroke-linejoin:round;stroke-width:0.75}
		.st4 {fill:#000000;font-family:Calibri;font-size:0.666664em}
		.st5 {marker-start:url(#mrkr5-26);stroke:#000000;stroke-linecap:round;stroke-linejoin:round;stroke-width:0.75}
		.st6 {fill:#000000;fill-opacity:1;stroke:#000000;stroke-opacity:1;stroke-width:0.22935779816514}
		.st7 {fill:#ffffff;stroke:none;stroke-linecap:butt;stroke-width:7.2}
		.st8 {fill:#ffffff;stroke:#000000;stroke-dasharray:5.25,3.75;stroke-linecap:round;stroke-linejoin:round;stroke-width:0.75}
		.st9 {fill:#ffffff;stroke:none;stroke-linecap:butt}
		.st10 {fill:none;fill-rule:evenodd;font-size:12px;overflow:visible;stroke-linecap:square;stroke-miterlimit:3}
	]]>
	</style>

	<defs id="Markers">
		<g id="lend5">
			<path d="M 2 1 L 0 0 L 1.98117 -0.993387 C 1.67173 -0.364515 1.67301 0.372641 1.98465 1.00043 " style="stroke:none"/>
		</g>
		<marker id="mrkr5-26" class="st6" v:arrowType="5" v:arrowSize="2" v:setback="7.15" refX="7.15" orient="auto"
				markerUnits="strokeWidth" overflow="visible">
			<use xlink:href="#lend5" transform="scale(4.36) "/>
		</marker>
	</defs>
	<g v:mID="0" v:index="1" v:groupContext="foregroundPage">
		<title>页-1</title>
		<v:pageProperties v:drawingScale="0.0393701" v:pageScale="0.0393701" v:drawingUnits="24" v:shadowOffsetX="8.50394"
				v:shadowOffsetY="-8.50394"/>
		<g id="shape1-1" v:mID="1" v:groupContext="shape" transform="translate(254.757,31.2608) rotate(90)">
			<title>工作表.1</title>
			<path d="M0 159.49 L123.77 159.49" class="st1"/>
		</g>
		<g id="shape2-4" v:mID="2" v:groupContext="shape" transform="translate(232.08,45.434) rotate(90)">
			<title>工作表.2</title>
			<path d="M0 159.49 L96.17 159.49" class="st1"/>
		</g>
		<g id="shape3-7" v:mID="3" v:groupContext="shape" transform="translate(-11.94,-89.8133) rotate(-32.0054)">
			<title>工作表.3</title>
			<path d="M0 159.49 L26.74 159.49" class="st1"/>
		</g>
		<g id="shape4-10" v:mID="4" v:groupContext="shape" transform="translate(152.952,4.04777) rotate(30.2564)">
			<title>工作表.4</title>
			<path d="M0 159.49 L26.25 159.49" class="st1"/>
		</g>
		<g id="shape5-13" v:mID="5" v:groupContext="shape" transform="translate(33.5217,-0.375)">
			<title>工作表.5</title>
			<rect x="0" y="0.749993" width="231.874" height="158.74" class="st2"/>
		</g>
		<g id="shape6-15" v:mID="6" v:groupContext="shape" transform="translate(72.5896,249.611) rotate(180)">
			<title>工作表.6</title>
			<path d="M0 159.49 L70.96 159.49" class="st1"/>
		</g>
		<g id="shape7-18" v:mID="7" v:groupContext="shape" transform="translate(0.375,-70.6289)">
			<title>工作表.7</title>
			<desc>PA12</desc>
			<v:textBlock v:margins="rect(4,4,4,4)" v:tabSpace="42.5197"/>
			<v:textRect cx="15.156" cy="153.783" width="30.32" height="11.4134"/>
			<rect x="0" y="148.077" width="30.312" height="11.4134" class="st3"/>
			<text x="6.72" y="156.18" class="st4" v:langID="2052"><v:paragraph v:horizAlign="1"/><v:tabList/>PA12</text>		</g>
		<g id="shape8-21" v:mID="8" v:groupContext="shape" transform="translate(-76.1035,38.6858) rotate(-90)">
			<title>工作表.8</title>
			<path d="M5.36 159.49 L5.72 159.49 L25.85 159.49" class="st5"/>
		</g>
		<g id="shape9-27" v:mID="9" v:groupContext="shape" transform="translate(35.3391,-147.363)">
			<title>工作表.9</title>
			<desc>Pinmux selection: Function ID</desc>
			<v:textBlock v:margins="rect(4,4,4,4)" v:tabSpace="42.5197"/>
			<v:textRect cx="54.9646" cy="153.783" width="109.93" height="11.4134"/>
			<rect x="0" y="148.077" width="109.929" height="11.4134" class="st3"/>
			<text x="4" y="156.18" class="st4" v:langID="2052"><v:paragraph/><v:tabList/>Pinmux selection: Function ID</text>		</g>
		<g id="shape10-30" v:mID="10" v:groupContext="shape" transform="translate(95.5295,-121.895)">
			<title>工作表.10</title>
			<desc>UART0_TXD</desc>
			<v:textBlock v:margins="rect(4,4,4,4)" v:tabSpace="42.5197"/>
			<v:textRect cx="57.7264" cy="159.49" width="115.46" height="0"/>
			<path d="M0 159.49 L115.45 159.49" class="st1"/>
			<rect v:rectContext="textBkgnd" x="38.2187" y="154.69" width="39.0157" height="9.59985" class="st7"/>
			<text x="38.22" y="161.89" class="st4" v:langID="2052"><v:paragraph v:horizAlign="1"/><v:tabList/>UART0_TXD</text>		</g>
		<g id="shape11-35" v:mID="11" v:groupContext="shape" transform="translate(95.2446,-122.293)">
			<title>工作表.11</title>
			<desc>19</desc>
			<v:textBlock v:margins="rect(4,4,4,4)" v:tabSpace="42.5197"/>
			<v:textRect cx="11.3386" cy="155.238" width="22.68" height="8.50394"/>
			<rect x="0" y="150.986" width="22.6772" height="8.50394" class="st3"/>
			<text x="7.28" y="157.64" class="st4" v:langID="2052"><v:paragraph v:horizAlign="1"/><v:tabList/>19</text>		</g>
		<g id="shape12-38" v:mID="12" v:groupContext="shape" transform="translate(95.5295,-88.2199)">
			<title>工作表.12</title>
			<desc>UART0_CTS</desc>
			<v:textBlock v:margins="rect(4,4,4,4)" v:tabSpace="42.5197"/>
			<v:textRect cx="57.5787" cy="159.49" width="115.16" height="0"/>
			<path d="M0 159.49 L115.16 159.49" class="st1"/>
			<rect v:rectContext="textBkgnd" x="38.6373" y="154.69" width="37.8831" height="9.59985" class="st7"/>
			<text x="38.64" y="161.89" class="st4" v:langID="2052"><v:paragraph v:horizAlign="1"/><v:tabList/>UART0_CTS</text>		</g>
		<g id="shape13-43" v:mID="13" v:groupContext="shape" transform="translate(95.2446,-88.6175)">
			<title>工作表.13</title>
			<desc>21</desc>
			<v:textBlock v:margins="rect(4,4,4,4)" v:tabSpace="42.5197"/>
			<v:textRect cx="11.3386" cy="155.238" width="22.68" height="8.50394"/>
			<rect x="0" y="150.986" width="22.6772" height="8.50394" class="st3"/>
			<text x="7.28" y="157.64" class="st4" v:langID="2052"><v:paragraph v:horizAlign="1"/><v:tabList/>21</text>		</g>
		<g id="shape14-46" v:mID="14" v:groupContext="shape" transform="translate(95.2343,-11.0278)">
			<title>工作表.14</title>
			<desc>KEY_COL7</desc>
			<v:textBlock v:margins="rect(4,4,4,4)" v:tabSpace="42.5197"/>
			<v:textRect cx="57.7264" cy="159.49" width="115.46" height="0"/>
			<path d="M0 159.49 L115.45 159.49" class="st1"/>
			<rect v:rectContext="textBkgnd" x="41.2635" y="154.69" width="32.9258" height="9.59985" class="st7"/>
			<text x="41.26" y="161.89" class="st4" v:langID="2052"><v:paragraph v:horizAlign="1"/><v:tabList/>KEY_COL7</text>		</g>
		<g id="shape15-51" v:mID="15" v:groupContext="shape" transform="translate(95.7972,-11.0713)">
			<title>工作表.15</title>
			<desc>81</desc>
			<v:textBlock v:margins="rect(4,4,4,4)" v:tabSpace="42.5197"/>
			<v:textRect cx="11.3386" cy="155.238" width="22.68" height="8.50394"/>
			<rect x="0" y="150.986" width="22.6772" height="8.50394" class="st3"/>
			<text x="7.28" y="157.64" class="st4" v:langID="2052"><v:paragraph v:horizAlign="1"/><v:tabList/>81</text>		</g>
		<g id="shape16-54" v:mID="16" v:groupContext="shape" transform="translate(210.687,-65.8671)">
			<title>工作表.16</title>
			<desc>UART0</desc>
			<v:textBlock v:margins="rect(4,4,4,4)" v:tabSpace="42.5197"/>
			<v:textRect cx="21.2598" cy="128.309" width="42.52" height="62.3622"/>
			<path d="M0 159.49 L42.52 159.49 L42.52 97.13 L0 97.13 L0 159.49 Z" class="st8"/>
			<text x="10.23" y="130.71" class="st4" v:langID="2052"><v:paragraph v:horizAlign="1"/><v:tabList/>UART0</text>		</g>
		<g id="shape17-57" v:mID="17" v:groupContext="shape" transform="translate(210.687,-5.29522)">
			<title>工作表.17</title>
			<desc>Key-Scan</desc>
			<v:textBlock v:margins="rect(4,4,4,4)" v:tabSpace="42.5197"/>
			<v:textRect cx="21.2598" cy="131.821" width="42.52" height="55.3389"/>
			<path d="M0 159.49 L42.52 159.49 L42.52 104.15 L0 104.15 L0 159.49 Z" class="st8"/>
			<text x="6.61" y="134.22" class="st4" v:langID="2052"><v:paragraph v:horizAlign="1"/><v:tabList/>Key-Scan</text>		</g>
		<g id="shape19-60" v:mID="19" v:groupContext="shape" transform="translate(95.5295,-105.058)">
			<title>工作表.19</title>
			<desc>UART0_RXD</desc>
			<v:textBlock v:margins="rect(4,4,4,4)" v:tabSpace="42.5197"/>
			<v:textRect cx="57.7264" cy="159.49" width="115.46" height="0"/>
			<path d="M0 159.49 L115.45 159.49" class="st1"/>
			<rect v:rectContext="textBkgnd" x="37.9959" y="154.69" width="39.461" height="9.59985" class="st7"/>
			<text x="38" y="161.89" class="st4" v:langID="2052"><v:paragraph v:horizAlign="1"/><v:tabList/>UART0_RXD</text>		</g>
		<g id="shape20-65" v:mID="20" v:groupContext="shape" transform="translate(95.2446,-105.455)">
			<title>工作表.20</title>
			<desc>20</desc>
			<v:textBlock v:margins="rect(4,4,4,4)" v:tabSpace="42.5197"/>
			<v:textRect cx="11.3386" cy="155.238" width="22.68" height="8.50394"/>
			<rect x="0" y="150.986" width="22.6772" height="8.50394" class="st3"/>
			<text x="7.28" y="157.64" class="st4" v:langID="2052"><v:paragraph v:horizAlign="1"/><v:tabList/>20</text>		</g>
		<g id="shape21-68" v:mID="21" v:groupContext="shape" transform="translate(95.5295,-71.3821)">
			<title>工作表.21</title>
			<desc>UART0_RTS</desc>
			<v:textBlock v:margins="rect(4,4,4,4)" v:tabSpace="42.5197"/>
			<v:textRect cx="57.6001" cy="159.49" width="115.21" height="0"/>
			<path d="M0 159.49 L115.2 159.49" class="st1"/>
			<rect v:rectContext="textBkgnd" x="38.6197" y="154.69" width="37.9611" height="9.59985" class="st9"/>
			<text x="38.62" y="161.89" class="st4" v:langID="2052"><v:paragraph v:horizAlign="1"/><v:tabList/>UART0_RTS</text>		</g>
		<g id="shape22-73" v:mID="22" v:groupContext="shape" transform="translate(95.2446,-71.7797)">
			<title>工作表.22</title>
			<desc>22</desc>
			<v:textBlock v:margins="rect(4,4,4,4)" v:tabSpace="42.5197"/>
			<v:textRect cx="11.3386" cy="155.238" width="22.68" height="8.50394"/>
			<rect x="0" y="150.986" width="22.6772" height="8.50394" class="st3"/>
			<text x="7.28" y="157.64" class="st4" v:langID="2052"><v:paragraph v:horizAlign="1"/><v:tabList/>22</text>		</g>
		<g id="shape25-76" v:mID="25" v:groupContext="shape" transform="translate(95.4049,-38.6761)">
			<title>工作表.25</title>
			<desc>KEY_COL5</desc>
			<v:textBlock v:margins="rect(4,4,4,4)" v:tabSpace="42.5197"/>
			<v:textRect cx="57.5787" cy="159.49" width="115.16" height="0"/>
			<path d="M0 159.49 L115.16 159.49" class="st1"/>
			<rect v:rectContext="textBkgnd" x="41.1158" y="154.69" width="32.9258" height="9.59985" class="st9"/>
			<text x="41.12" y="161.89" class="st4" v:langID="2052"><v:paragraph v:horizAlign="1"/><v:tabList/>KEY_COL5</text>		</g>
		<g id="shape26-81" v:mID="26" v:groupContext="shape" transform="translate(95.12,-38.7668)">
			<title>工作表.26</title>
			<desc>79</desc>
			<v:textBlock v:margins="rect(4,4,4,4)" v:tabSpace="42.5197"/>
			<v:textRect cx="11.3386" cy="155.238" width="22.68" height="8.50394"/>
			<rect x="0" y="150.986" width="22.6772" height="8.50394" class="st3"/>
			<text x="7.28" y="157.64" class="st4" v:langID="2052"><v:paragraph v:horizAlign="1"/><v:tabList/>79</text>		</g>
		<g id="shape27-84" v:mID="27" v:groupContext="shape" transform="translate(95.4049,-52.5002)">
			<title>工作表.27</title>
			<path d="M0 159.49 L38.31 159.49" class="st1"/>
		</g>
		<g id="shape28-87" v:mID="28" v:groupContext="shape" transform="translate(95.12,-54.9648)">
			<title>工作表.28</title>
			<desc>...</desc>
			<v:textBlock v:margins="rect(4,4,4,4)" v:tabSpace="42.5197"/>
			<v:textRect cx="11.3386" cy="155.238" width="22.68" height="8.50394"/>
			<rect x="0" y="150.986" width="22.6772" height="8.50394" class="st3"/>
			<text x="8.31" y="157.64" class="st4" v:langID="2052"><v:paragraph v:horizAlign="1"/><v:tabList/>...</text>		</g>
		<g id="shape29-90" v:mID="29" v:groupContext="shape" transform="translate(95.4049,-24.8519)">
			<title>工作表.29</title>
			<desc>KEY_COL6</desc>
			<v:textBlock v:margins="rect(4,4,4,4)" v:tabSpace="42.5197"/>
			<v:textRect cx="57.7264" cy="159.49" width="115.46" height="0"/>
			<path d="M0 159.49 L115.45 159.49" class="st1"/>
			<rect v:rectContext="textBkgnd" x="41.2635" y="154.69" width="32.9258" height="9.59985" class="st9"/>
			<text x="41.26" y="161.89" class="st4" v:langID="2052"><v:paragraph v:horizAlign="1"/><v:tabList/>KEY_COL6</text>		</g>
		<g id="shape30-95" v:mID="30" v:groupContext="shape" transform="translate(95.12,-24.919)">
			<title>工作表.30</title>
			<desc>80</desc>
			<v:textBlock v:margins="rect(4,4,4,4)" v:tabSpace="42.5197"/>
			<v:textRect cx="11.3386" cy="155.238" width="22.68" height="8.50394"/>
			<rect x="0" y="150.986" width="22.6772" height="8.50394" class="st3"/>
			<text x="7.28" y="157.64" class="st4" v:langID="2052"><v:paragraph v:horizAlign="1"/><v:tabList/>80</text>		</g>
		<g id="shape31-98" v:mID="31" v:groupContext="shape" transform="translate(131.285,-49.2955)">
			<title>工作表.31</title>
			<desc>...</desc>
			<v:textBlock v:margins="rect(4,4,4,4)" v:tabSpace="42.5197"/>
			<v:textRect cx="11.3386" cy="155.238" width="22.68" height="8.50394"/>
			<rect x="0" y="150.986" width="22.6772" height="8.50394" class="st3"/>
			<text x="8.31" y="157.64" class="st4" v:langID="2052"><v:paragraph v:horizAlign="1"/><v:tabList/>...</text>		</g>
	</g>
</svg>
