<?xml version="1.0" encoding="UTF-8" standalone="no"?>
<!DOCTYPE svg PUBLIC "-//W3C//DTD SVG 1.1//EN" "http://www.w3.org/Graphics/SVG/1.1/DTD/svg11.dtd">
<!-- 由 Microsoft Visio, SVG Export 生成 Microsoft_Visio___1.svg 页-1 -->
<svg xmlns="http://www.w3.org/2000/svg" xmlns:xlink="http://www.w3.org/1999/xlink" xmlns:ev="http://www.w3.org/2001/xml-events"
		xmlns:v="http://schemas.microsoft.com/visio/2003/SVGExtensions/" width="8.35591in" height="5.84135in"
		viewBox="0 0 601.625 420.577" xml:space="preserve" color-interpolation-filters="sRGB" class="st14">
	<v:documentProperties v:langID="2052" v:metric="true" v:viewMarkup="false"/>

	<style type="text/css">
	<![CDATA[
		.st1 {marker-end:url(#mrkr4-6);stroke:#000000;stroke-linecap:round;stroke-linejoin:round;stroke-width:1}
		.st2 {fill:#000000;fill-opacity:1;stroke:#000000;stroke-opacity:1;stroke-width:0.28409090909091}
		.st3 {fill:#ffffff;stroke:none;stroke-linecap:butt;stroke-width:7.2}
		.st4 {fill:#000000;font-family:Calibri;font-size:0.666664em}
		.st5 {font-size:1em}
		.st6 {fill:#7f7f7f;fill-opacity:0;stroke:none;stroke-width:0.25}
		.st7 {fill:#d8d8d8;stroke:#000000;stroke-width:0.75}
		.st8 {fill:#000000;font-family:Calibri;font-size:0.75em}
		.st9 {marker-end:url(#mrkr39-80);stroke:#000000;stroke-linecap:round;stroke-linejoin:round;stroke-width:1}
		.st10 {marker-start:url(#mrkr4-96);stroke:#000000;stroke-linecap:round;stroke-linejoin:round;stroke-width:1}
		.st11 {marker-end:url(#mrkr4-104);stroke:#000000;stroke-linecap:round;stroke-linejoin:round;stroke-width:1}
		.st12 {fill:#ffffff;stroke:none;stroke-linecap:butt}
		.st13 {marker-end:url(#mrkr6-201);stroke:#000000;stroke-linecap:round;stroke-linejoin:round;stroke-width:1}
		.st14 {fill:none;fill-rule:evenodd;font-size:12px;overflow:visible;stroke-linecap:square;stroke-miterlimit:3}
	]]>
	</style>

	<defs id="Markers">
		<g id="lend4">
			<path d="M 2 1 L 0 0 L 2 -1 L 2 1 " style="stroke:none"/>
		</g>
		<marker id="mrkr4-6" class="st2" v:arrowType="4" v:arrowSize="2" v:setback="7.04" refX="-7.04" orient="auto"
				markerUnits="strokeWidth" overflow="visible">
			<use xlink:href="#lend4" transform="scale(-3.52,-3.52) "/>
		</marker>
		<g id="lend39">
			<path d="M 0 0 L 2 -1 L 2 1 L 0 0 M 2 0 L 4 -1 L 4 1 L 2 0 " style="stroke:none"/>
		</g>
		<marker id="mrkr39-80" class="st2" v:arrowType="39" v:arrowSize="2" v:setback="14.08" refX="-14.08" orient="auto"
				markerUnits="strokeWidth" overflow="visible">
			<use xlink:href="#lend39" transform="scale(-3.52,-3.52) "/>
		</marker>
		<marker id="mrkr4-96" class="st2" v:arrowType="4" v:arrowSize="2" v:setback="6.68" refX="6.68" orient="auto"
				markerUnits="strokeWidth" overflow="visible">
			<use xlink:href="#lend4" transform="scale(3.52) "/>
		</marker>
		<marker id="mrkr4-104" class="st2" v:arrowType="4" v:arrowSize="2" v:setback="6.68" refX="-6.68" orient="auto"
				markerUnits="strokeWidth" overflow="visible">
			<use xlink:href="#lend4" transform="scale(-3.52,-3.52) "/>
		</marker>
		<g id="lend6">
			<path d="M 2 1 L 0 0 L 2.01237 -1.00641 C 2.32921 -0.372874 2.32921 0.37287 2.01238 1.0064 " style="stroke:none"/>
		</g>
		<marker id="mrkr6-201" class="st2" v:arrowType="6" v:arrowSize="2" v:setback="7.92" refX="-7.92" orient="auto"
				markerUnits="strokeWidth" overflow="visible">
			<use xlink:href="#lend6" transform="scale(-3.52,-3.52) "/>
		</marker>
	</defs>
	<g v:mID="0" v:index="1" v:groupContext="foregroundPage">
		<title>页-1</title>
		<v:pageProperties v:drawingScale="0.0393701" v:pageScale="0.0393701" v:drawingUnits="24" v:shadowOffsetX="8.50394"
				v:shadowOffsetY="-8.50394"/>
		<v:layer v:name="连接线" v:index="0"/>
		<g id="shape139-1" v:mID="139" v:groupContext="shape" v:layerMember="0" transform="translate(305.003,-377.307)">
			<title>动态连接线.139</title>
			<desc>RTPlayer_SetSource()</desc>
			<v:textBlock v:margins="rect(4,4,4,4)" v:tabSpace="42.5197"/>
			<v:textRect cx="7.08661" cy="441.976" width="79.67" height="17.6036"/>
			<path d="M7.09 420.58 L7.09 456.33" class="st1"/>
			<rect v:rectContext="textBkgnd" x="-27.8407" y="437.176" width="69.8549" height="9.59985" class="st3"/>
			<text x="-27.84" y="444.38" class="st4" v:langID="1033"><v:paragraph v:horizAlign="1"/><v:tabList/>RTPlayer_SetSource<tspan
						class="st5" v:langID="2052">()</tspan></text>		</g>
		<g id="shape171-10" v:mID="171" v:groupContext="shape" transform="translate(0.25,-88.2309)">
			<title>工作表.171</title>
			<desc>RTPlayer_Stop()</desc>
			<v:textBlock v:margins="rect(4,4,4,4)" v:tabSpace="42.5197"/>
			<v:textRect cx="31.2833" cy="415.932" width="62.57" height="9.2902"/>
			<rect x="0" y="411.287" width="62.5667" height="9.2902" class="st6"/>
			<text x="5.26" y="418.33" class="st4" v:langID="1033"><v:paragraph v:horizAlign="1"/><v:tabList/>RTPlayer_Stop<tspan
						class="st5" v:langID="2052">()</tspan></text>		</g>
		<g id="shape172-14" v:mID="172" v:groupContext="shape" transform="translate(275.239,-377.307)">
			<title>椭圆形</title>
			<desc>Idle</desc>
			<v:userDefs>
				<v:ud v:nameU="visVersion" v:val="VT0(15):26"/>
			</v:userDefs>
			<v:textBlock v:margins="rect(4,4,4,4)" v:tabSpace="42.5197"/>
			<v:textRect cx="36.8504" cy="399.317" width="64.49" height="37.2047"/>
			<path d="M0 399.32 A36.8504 21.2598 0 0 1 73.7 399.32 A36.8504 21.2598 0 0 1 0 399.32 Z" class="st7"/>
			<text x="30.08" y="402.02" class="st8" v:langID="2052"><v:paragraph v:horizAlign="1"/><v:tabList/>Idle</text>		</g>
		<g id="shape173-17" v:mID="173" v:groupContext="shape" transform="translate(275.239,-291.99)">
			<title>椭圆形.173</title>
			<desc>Unprepared</desc>
			<v:userDefs>
				<v:ud v:nameU="visVersion" v:val="VT0(15):26"/>
			</v:userDefs>
			<v:textBlock v:margins="rect(4,4,4,4)" v:tabSpace="42.5197"/>
			<v:textRect cx="36.8504" cy="399.317" width="64.49" height="37.2047"/>
			<path d="M0 399.32 A36.8504 21.2598 0 0 1 73.7 399.32 A36.8504 21.2598 0 0 1 0 399.32 Z" class="st7"/>
			<text x="14.73" y="402.02" class="st8" v:langID="2052"><v:paragraph v:horizAlign="1"/><v:tabList/>Unprepared</text>		</g>
		<g id="shape174-20" v:mID="174" v:groupContext="shape" transform="translate(275.239,-205.295)">
			<title>椭圆形.174</title>
			<desc>Prepared</desc>
			<v:userDefs>
				<v:ud v:nameU="visVersion" v:val="VT0(15):26"/>
			</v:userDefs>
			<v:textBlock v:margins="rect(4,4,4,4)" v:tabSpace="42.5197"/>
			<v:textRect cx="36.8504" cy="399.317" width="64.49" height="37.2047"/>
			<path d="M0 399.32 A36.8504 21.2598 0 0 1 73.7 399.32 A36.8504 21.2598 0 0 1 0 399.32 Z" class="st7"/>
			<text x="20.03" y="402.02" class="st8" v:langID="2052"><v:paragraph v:horizAlign="1"/><v:tabList/>Prepared</text>		</g>
		<g id="shape175-23" v:mID="175" v:groupContext="shape" v:layerMember="0" transform="translate(305.003,-291.99)">
			<title>动态连接线.175</title>
			<desc>RTPlayer_Prepare()</desc>
			<v:textBlock v:margins="rect(4,4,4,4)" v:tabSpace="42.5197"/>
			<v:textRect cx="7.08661" cy="442.665" width="72.79" height="17.6036"/>
			<path d="M7.09 420.58 L7.09 457.71" class="st1"/>
			<rect v:rectContext="textBkgnd" x="-24.4015" y="437.865" width="62.9764" height="9.59985" class="st3"/>
			<text x="-24.4" y="445.06" class="st4" v:langID="1033"><v:paragraph v:horizAlign="1"/><v:tabList/>RTPlayer_Prepare()</text>		</g>
		<g id="shape176-30" v:mID="176" v:groupContext="shape" v:layerMember="0" transform="translate(305.003,-205.295)">
			<title>动态连接线.176</title>
			<desc>RTPlayer_Start()</desc>
			<v:textBlock v:margins="rect(4,4,4,4)" v:tabSpace="42.5197"/>
			<v:textRect cx="9.16" cy="438.035" width="62.74" height="17.6036"/>
			<path d="M7.09 420.58 L7.09 460.71" class="st1"/>
			<rect v:rectContext="textBkgnd" x="-17.3027" y="433.236" width="52.9255" height="9.59985" class="st3"/>
			<text x="-17.3" y="440.44" class="st4" v:langID="1033"><v:paragraph v:horizAlign="1"/><v:tabList/>RTPlayer_Start()</text>		</g>
		<g id="shape178-37" v:mID="178" v:groupContext="shape" v:layerMember="0" transform="translate(275.239,-320.337)">
			<title>动态连接线.178</title>
			<desc>RTPlayer_PrepareAsync()</desc>
			<v:textBlock v:margins="rect(4,4,4,4)" v:tabSpace="42.5197"/>
			<v:textRect cx="-82.7261" cy="416.076" width="91.76" height="17.6036"/>
			<path d="M0 427.66 L-161.7 427.66" class="st1"/>
			<rect v:rectContext="textBkgnd" x="-123.697" y="411.276" width="81.941" height="9.59985" class="st3"/>
			<text x="-123.7" y="418.48" class="st4" v:langID="1033"><v:paragraph v:horizAlign="1"/><v:tabList/>RTPlayer_PrepareAsync<tspan
						class="st5" v:langID="2052">()</tspan></text>		</g>
		<g id="shape179-45" v:mID="179" v:groupContext="shape" v:layerMember="0" transform="translate(62.5646,-85.9658)">
			<title>动态连接线.179</title>
			<desc>RTPlayer_PrepareAsync()</desc>
			<v:textBlock v:margins="rect(4,4,4,4)" v:tabSpace="42.5197"/>
			<v:textRect cx="7.08661" cy="317.565" width="91.76" height="17.6036"/>
			<path d="M7.09 420.58 L7.09 221.59" class="st1"/>
			<rect v:rectContext="textBkgnd" x="-33.8838" y="312.765" width="81.941" height="9.59985" class="st3"/>
			<text x="-33.88" y="319.96" class="st4" v:langID="1033"><v:paragraph v:horizAlign="1"/><v:tabList/>RTPlayer_PrepareAsync<tspan
						class="st5" v:langID="2052">()</tspan></text>		</g>
		<g id="shape180-53" v:mID="180" v:groupContext="shape" transform="translate(275.239,-115.605)">
			<title>椭圆形.180</title>
			<desc>Started</desc>
			<v:userDefs>
				<v:ud v:nameU="visVersion" v:val="VT0(15):26"/>
			</v:userDefs>
			<v:textBlock v:margins="rect(4,4,4,4)" v:tabSpace="42.5197"/>
			<v:textRect cx="36.8504" cy="399.317" width="64.49" height="37.2047"/>
			<path d="M0 399.32 A36.8504 21.2598 0 0 1 73.7 399.32 A36.8504 21.2598 0 0 1 0 399.32 Z" class="st7"/>
			<text x="23.44" y="402.02" class="st8" v:langID="2052"><v:paragraph v:horizAlign="1"/><v:tabList/>Started</text>		</g>
		<g id="shape181-56" v:mID="181" v:groupContext="shape" transform="translate(32.8008,-43.4461)">
			<title>椭圆形.181</title>
			<desc>Stopped</desc>
			<v:userDefs>
				<v:ud v:nameU="visVersion" v:val="VT0(15):26"/>
			</v:userDefs>
			<v:textBlock v:margins="rect(4,4,4,4)" v:tabSpace="42.5197"/>
			<v:textRect cx="36.8504" cy="399.317" width="64.49" height="37.2047"/>
			<path d="M0 399.32 A36.8504 21.2598 0 0 1 73.7 399.32 A36.8504 21.2598 0 0 1 0 399.32 Z" class="st7"/>
			<text x="21.57" y="402.02" class="st8" v:langID="2052"><v:paragraph v:horizAlign="1"/><v:tabList/>Stopped</text>		</g>
		<g id="shape182-59" v:mID="182" v:groupContext="shape" transform="translate(464.399,-43.4461)">
			<title>椭圆形.182</title>
			<desc>Paused</desc>
			<v:userDefs>
				<v:ud v:nameU="visVersion" v:val="VT0(15):26"/>
			</v:userDefs>
			<v:textBlock v:margins="rect(4,4,4,4)" v:tabSpace="42.5197"/>
			<v:textRect cx="36.8504" cy="399.317" width="64.49" height="37.2047"/>
			<path d="M0 399.32 A36.8504 21.2598 0 0 1 73.7 399.32 A36.8504 21.2598 0 0 1 0 399.32 Z" class="st7"/>
			<text x="23.64" y="402.02" class="st8" v:langID="2052"><v:paragraph v:horizAlign="1"/><v:tabList/>Paused</text>		</g>
		<g id="shape183-62" v:mID="183" v:groupContext="shape" transform="translate(275.239,-0.75)">
			<title>椭圆形.183</title>
			<desc>Playback Completed</desc>
			<v:userDefs>
				<v:ud v:nameU="visVersion" v:val="VT0(15):26"/>
			</v:userDefs>
			<v:textBlock v:margins="rect(4,4,4,4)" v:tabSpace="42.5197"/>
			<v:textRect cx="36.8504" cy="399.317" width="64.49" height="37.2047"/>
			<path d="M0 399.32 A36.8504 21.2598 0 0 1 73.7 399.32 A36.8504 21.2598 0 0 1 0 399.32 Z" class="st7"/>
			<text x="20.83" y="396.62" class="st8" v:langID="2052"><v:paragraph v:horizAlign="1"/><v:tabList/>Playback <tspan
						x="16.74" dy="1.2em" class="st5">Completed</tspan></text>		</g>
		<g id="shape184-66" v:mID="184" v:groupContext="shape" transform="translate(529.497,-372.089)">
			<title>椭圆形.184</title>
			<desc>End</desc>
			<v:userDefs>
				<v:ud v:nameU="visVersion" v:val="VT0(15):26"/>
			</v:userDefs>
			<v:textBlock v:margins="rect(4,4,4,4)" v:tabSpace="42.5197"/>
			<v:textRect cx="35.4331" cy="400.734" width="62.01" height="34.7244"/>
			<path d="M0 400.73 A35.4331 19.8425 0 1 1 70.87 400.73 A35.4331 19.8425 0 1 1 -0 400.73 Z" class="st7"/>
			<text x="28.51" y="403.43" class="st8" v:langID="2052"><v:paragraph v:horizAlign="1"/><v:tabList/>End</text>		</g>
		<g id="shape185-69" v:mID="185" v:groupContext="shape" transform="translate(529.596,-315.172)">
			<title>椭圆形.185</title>
			<desc>Error</desc>
			<v:userDefs>
				<v:ud v:nameU="visVersion" v:val="VT0(15):26"/>
			</v:userDefs>
			<v:textBlock v:margins="rect(4,4,4,4)" v:tabSpace="42.5197"/>
			<v:textRect cx="35.4331" cy="400.734" width="62.01" height="34.7244"/>
			<path d="M0 400.73 A35.4331 19.8425 0 1 1 70.87 400.73 A35.4331 19.8425 0 1 1 -0 400.73 Z" class="st7"/>
			<text x="26.16" y="403.43" class="st8" v:langID="2052"><v:paragraph v:horizAlign="1"/><v:tabList/>Error</text>		</g>
		<g id="shape187-72" v:mID="187" v:groupContext="shape" transform="translate(32.8008,-291.99)">
			<title>椭圆形.187</title>
			<desc>Preparing</desc>
			<v:userDefs>
				<v:ud v:nameU="visVersion" v:val="VT0(15):26"/>
			</v:userDefs>
			<v:textBlock v:margins="rect(4,4,4,4)" v:tabSpace="42.5197"/>
			<v:textRect cx="36.8504" cy="399.317" width="64.49" height="37.2047"/>
			<path d="M0 399.32 A36.8504 21.2598 0 0 1 73.7 399.32 A36.8504 21.2598 0 0 1 0 399.32 Z" class="st7"/>
			<text x="19.11" y="402.02" class="st8" v:langID="2052"><v:paragraph v:horizAlign="1"/><v:tabList/>Preparing</text>		</g>
		<g id="shape194-75" v:mID="194" v:groupContext="shape" transform="translate(212.094,-278.972) rotate(16.5652)">
			<title>工作表.194</title>
			<desc>RTPlayerCallback.OnRTPlayerStateChanged (RTPLAYER_PREPARED)</desc>
			<v:textBlock v:margins="rect(4,4,4,4)" v:tabSpace="42.5197"/>
			<v:textRect cx="99.5711" cy="420.577" width="199.15" height="0"/>
			<path d="M0 420.58 L185.06 420.58" class="st9"/>
			<rect v:rectContext="textBkgnd" x="29.3159" y="412.577" width="140.51" height="15.9999" class="st3"/>
			<text x="29.32" y="418.58" class="st4" v:langID="1033"><v:paragraph v:spLine="-1" v:horizAlign="1"/><v:tabList/>RTPlayerCallback.OnRTPlayerStateChanged<v:newlineChar/><tspan
						x="61.74" dy="1em" class="st5">(</tspan>RTPLAYER_PREPARED)</text>		</g>
		<g id="shape196-84" v:mID="196" v:groupContext="shape" transform="translate(-160.026,-6.29467) rotate(-35.4589)">
			<title>工作表.196</title>
			<desc>RTPlayer_Prepare()</desc>
			<v:textBlock v:margins="rect(4,4,4,4)" v:tabSpace="42.5197"/>
			<v:textRect cx="118.11" cy="420.577" width="236.23" height="0"/>
			<path d="M0 420.58 L229.18 420.58" class="st1"/>
			<rect v:rectContext="textBkgnd" x="86.6223" y="415.777" width="62.9764" height="9.59985" class="st3"/>
			<text x="86.62" y="422.98" class="st4" v:langID="1033"><v:paragraph v:horizAlign="1"/><v:tabList/>RTPlayer_Prepare()</text>		</g>
		<g id="shape199-91" v:mID="199" v:groupContext="shape" transform="translate(-146.185,-3.7105) rotate(-35.045)">
			<title>工作表.199</title>
			<desc>RTPlayer_Stop</desc>
			<v:textBlock v:margins="rect(4,4,4,4)" v:tabSpace="42.5197"/>
			<v:textRect cx="115.453" cy="420.577" width="230.91" height="0"/>
			<path d="M6.68 420.58 L7.04 420.58 L230.91 420.58" class="st10"/>
			<rect v:rectContext="textBkgnd" x="91.8559" y="415.777" width="47.1951" height="9.59985" class="st3"/>
			<text x="91.86" y="422.98" class="st4" v:langID="1033"><v:paragraph v:horizAlign="1"/><v:tabList/>RTPlayer_Stop</text>		</g>
		<g id="shape200-99" v:mID="200" v:groupContext="shape" transform="translate(-369.611,408.961) rotate(-94.8142)">
			<title>工作表.200</title>
			<path d="M-0 420.58 A98.8656 23.6936 102.82 0 1 34.05 413.55 L34.07 413.91" class="st11"/>
		</g>
		<g id="shape206-105" v:mID="206" v:groupContext="shape" transform="translate(180.894,-47.4832) rotate(10.7655)">
			<title>工作表.206</title>
			<desc>RTPlayer_Stop()</desc>
			<v:textBlock v:margins="rect(4,4,4,4)" v:tabSpace="42.5197"/>
			<v:textRect cx="88.0014" cy="420.577" width="176.01" height="0"/>
			<path d="M6.68 420.58 L7.04 420.58 L176 420.58" class="st10"/>
			<rect v:rectContext="textBkgnd" x="61.978" y="415.777" width="52.0466" height="9.59985" class="st3"/>
			<text x="61.98" y="422.98" class="st4" v:langID="1033"><v:paragraph v:horizAlign="1"/><v:tabList/>RTPlayer_Stop<tspan
						class="st5" v:langID="2052">()</tspan></text>		</g>
		<g id="shape207-113" v:mID="207" v:groupContext="shape" transform="translate(106.502,-64.706)">
			<title>工作表.207</title>
			<path d="M6.68 420.58 L7.04 420.58 L357.9 420.58" class="st10"/>
		</g>
		<g id="shape208-118" v:mID="208" v:groupContext="shape" transform="translate(373.873,-50.6631)">
			<title>工作表.208</title>
			<desc>RTPlayer_Stop()</desc>
			<v:textBlock v:margins="rect(4,4,4,4)" v:tabSpace="42.5197"/>
			<v:textRect cx="41.0112" cy="413.797" width="82.03" height="13.5595"/>
			<rect x="0" y="407.017" width="82.0225" height="13.5595" class="st6"/>
			<text x="14.99" y="416.2" class="st4" v:langID="1033"><v:paragraph v:horizAlign="1"/><v:tabList/>RTPlayer_Stop<tspan
						class="st5" v:langID="2052">()</tspan></text>		</g>
		<g id="shape209-122" v:mID="209" v:groupContext="shape" transform="translate(-57.758,-42.7596) rotate(-22.3841)">
			<title>工作表.209</title>
			<desc>RTPlayer_Stop()</desc>
			<v:textBlock v:margins="rect(4,4,4,4)" v:tabSpace="42.5197"/>
			<v:textRect cx="96.2905" cy="420.577" width="192.59" height="0"/>
			<path d="M6.68 420.58 L7.04 420.58 L192.58 420.58" class="st10"/>
			<rect v:rectContext="textBkgnd" x="70.2672" y="415.777" width="52.0466" height="9.59985" class="st3"/>
			<text x="70.27" y="422.98" class="st4" v:langID="1033"><v:paragraph v:horizAlign="1"/><v:tabList/>RTPlayer_Stop<tspan
						class="st5" v:langID="2052">()</tspan></text>		</g>
		<g id="shape210-130" v:mID="210" v:groupContext="shape" transform="translate(482.243,-115.181) rotate(18.4787)">
			<title>工作表.210</title>
			<desc>RTPlayer_Start()</desc>
			<v:textBlock v:margins="rect(4,4,4,4)" v:tabSpace="42.5197"/>
			<v:textRect cx="80.2947" cy="420.577" width="160.59" height="0"/>
			<path d="M6.68 420.58 L7.04 420.58 L160.59 420.58" class="st10"/>
			<rect v:rectContext="textBkgnd" x="53.8319" y="415.777" width="52.9255" height="9.59985" class="st12"/>
			<text x="53.83" y="422.98" class="st4" v:langID="1033"><v:paragraph v:horizAlign="1"/><v:tabList/>RTPlayer_<tspan
						class="st5" v:langID="2052">Start</tspan><tspan class="st5" v:langID="2052">()</tspan></text>		</g>
		<g id="shape211-139" v:mID="211" v:groupContext="shape" transform="translate(468.842,-102.239) rotate(17.9157)">
			<title>工作表.211</title>
			<desc>RTPlayer_Pause()</desc>
			<v:textBlock v:margins="rect(4,4,4,4)" v:tabSpace="42.5197"/>
			<v:textRect cx="70.7621" cy="420.577" width="141.53" height="0"/>
			<path d="M0 420.58 L134.48 420.58" class="st1"/>
			<rect v:rectContext="textBkgnd" x="42.4888" y="415.777" width="56.5466" height="9.59985" class="st3"/>
			<text x="42.49" y="422.98" class="st4" v:langID="1033"><v:paragraph v:horizAlign="1"/><v:tabList/>RTPlayer_<tspan
						class="st5" v:langID="2052">Pause</tspan><tspan class="st5" v:langID="2052">()</tspan></text>		</g>
		<g id="shape212-148" v:mID="212" v:groupContext="shape" transform="translate(936.469,259.309) rotate(79.0884)">
			<title>工作表.212</title>
			<path d="M2.54 414.4 L2.68 414.07 A105.2 21.5995 100.7 0 1 31.23 420.58" class="st10"/>
		</g>
		<g id="shape213-153" v:mID="213" v:groupContext="shape" transform="translate(535.266,-43.4461)">
			<title>工作表.213</title>
			<desc>RTPlayer_Pause()</desc>
			<v:textBlock v:margins="rect(4,4,4,4)" v:tabSpace="42.5197"/>
			<v:textRect cx="33.0549" cy="414.623" width="66.11" height="11.9082"/>
			<rect x="0" y="408.669" width="66.1098" height="11.9082" class="st6"/>
			<text x="4.78" y="417.02" class="st4" v:langID="1033"><v:paragraph v:horizAlign="1"/><v:tabList/>RTPlayer<tspan
						class="st5" v:langID="2052">_</tspan><tspan class="st5" v:langID="2052">Pause</tspan><tspan class="st5"
						v:langID="2052">()</tspan></text>		</g>
		<g id="shape215-159" v:mID="215" v:groupContext="shape" transform="translate(506.346,-114.149) rotate(26.2772)">
			<title>工作表.215</title>
			<path d="M3.47 414.87 L3.66 414.56 A69.5786 19.8422 105.95 0 1 29.24 420.58" class="st10"/>
		</g>
		<g id="shape216-164" v:mID="216" v:groupContext="shape" transform="translate(345.242,-165.159)">
			<title>工作表.216</title>
			<desc>RTPlayer_Start()</desc>
			<v:textBlock v:margins="rect(4,4,4,4)" v:tabSpace="42.5197"/>
			<v:textRect cx="31.2833" cy="415.932" width="62.57" height="9.2902"/>
			<rect x="0" y="411.287" width="62.5667" height="9.2902" class="st6"/>
			<text x="4.82" y="418.33" class="st4" v:langID="1033"><v:paragraph v:horizAlign="1"/><v:tabList/>RTPlayer<tspan
						class="st5" v:langID="2052">_</tspan><tspan class="st5" v:langID="2052">Start</tspan><tspan class="st5"
						v:langID="2052">()</tspan></text>		</g>
		<g id="shape218-170" v:mID="218" v:groupContext="shape" v:layerMember="0" transform="translate(412.967,-384.844)">
			<title>动态连接线</title>
			<desc>RTPlayer_Destory()</desc>
			<v:textBlock v:margins="rect(4,4,4,4)" v:tabSpace="42.5197"/>
			<v:textRect cx="54.8819" cy="402.325" width="72.43" height="17.6036"/>
			<path d="M0 413.49 L109.49 413.49" class="st1"/>
			<rect v:rectContext="textBkgnd" x="23.5774" y="397.525" width="62.6092" height="9.59985" class="st3"/>
			<text x="23.58" y="404.73" class="st4" v:langID="1033"><v:paragraph v:horizAlign="1"/><v:tabList/>RTPlayer_Destory()</text>		</g>
		<g id="shape221-177" v:mID="221" v:groupContext="shape" v:layerMember="0" transform="translate(396.694,-327.927)">
			<title>动态连接线.221</title>
			<desc>RTPlayerCallback.OnRTPlayerError()</desc>
			<v:textBlock v:margins="rect(4,4,4,4)" v:tabSpace="42.5197"/>
			<v:textRect cx="62.593" cy="402.325" width="126.37" height="17.6036"/>
			<path d="M0 413.49 L118.82 413.49" class="st9"/>
			<rect v:rectContext="textBkgnd" x="4.31602" y="397.525" width="116.554" height="9.59985" class="st3"/>
			<text x="4.32" y="404.73" class="st4" v:langID="1033"><v:paragraph v:horizAlign="1"/><v:tabList/>RTPlayerCallback<tspan
						class="st5" v:langID="2052">.</tspan>OnRTPlayerError<tspan class="st5" v:langID="2052">()</tspan></text>		</g>
		<g id="shape224-186" v:mID="224" v:groupContext="shape" transform="translate(709.674,442.127) rotate(109.033)">
			<title>工作表.224</title>
			<path d="M0 420.58 L71.7 420.58" class="st9"/>
		</g>
		<g id="shape226-191" v:mID="226" v:groupContext="shape" transform="translate(183.872,-69.5008)">
			<title>工作表.226</title>
			<desc>RTPlayerCallback.OnRTPlayerStateChanged(RTPLAYER_PLAYBACK_COM...</desc>
			<v:textBlock v:margins="rect(4,4,4,4)" v:tabSpace="42.5197"/>
			<v:textRect cx="59.4765" cy="408.757" width="118.96" height="23.6399"/>
			<rect x="0" y="396.937" width="118.953" height="23.6399" class="st6"/>
			<text x="5.44" y="402.76" class="st4" v:langID="1033"><v:paragraph v:spLine="-1" v:horizAlign="1"/><v:tabList/>RTPlayerCallback.OnRTPlayerStat<tspan
						x="5.09" dy="1em" class="st5">eChanged</tspan>(RTPLAYER_PLAYBACK_<tspan x="40.46" dy="1em" class="st5">COMPLETE</tspan>)</text>		</g>
		<g id="shape228-196" v:mID="228" v:groupContext="shape" transform="translate(-72.5572,492.476) rotate(-105.362)">
			<title>工作表.228</title>
			<path d="M0 420.58 L70.99 420.58" class="st13"/>
		</g>
		<g id="shape229-202" v:mID="229" v:groupContext="shape" transform="translate(317.912,-76.6756)">
			<title>工作表.229</title>
			<desc>RTPlayer_Start</desc>
			<v:textBlock v:margins="rect(4,4,4,4)" v:tabSpace="42.5197"/>
			<v:textRect cx="29.9051" cy="415.932" width="59.82" height="9.2902"/>
			<rect x="0" y="411.287" width="59.8102" height="9.2902" class="st6"/>
			<text x="5.87" y="418.33" class="st4" v:langID="1033"><v:paragraph v:horizAlign="1"/><v:tabList/>RTPlayer<tspan
						class="st5" v:langID="2052">_</tspan><tspan class="st5" v:langID="2052">Start</tspan></text>		</g>
	</g>
</svg>
