<?xml version="1.0" encoding="UTF-8" standalone="no"?>
<!DOCTYPE svg PUBLIC "-//W3C//DTD SVG 1.1//EN" "http://www.w3.org/Graphics/SVG/1.1/DTD/svg11.dtd">
<!-- 由 Microsoft Visio, SVG Export 生成 usb_device_descriptors.svg Page-1 -->
<svg xmlns="http://www.w3.org/2000/svg" xmlns:xlink="http://www.w3.org/1999/xlink" xmlns:ev="http://www.w3.org/2001/xml-events"
		xmlns:v="http://schemas.microsoft.com/visio/2003/SVGExtensions/" width="7.44377in" height="3.82453in"
		viewBox="0 0 535.951 275.366" xml:space="preserve" color-interpolation-filters="sRGB" class="st10">
	<v:documentProperties v:langID="2052" v:metric="true" v:viewMarkup="false">
		<v:userDefs>
			<v:ud v:nameU="msvSubprocessMaster" v:prompt="" v:val="VT4(Rectangle)"/>
			<v:ud v:nameU="msvNoAutoConnect" v:val="VT0(1):26"/>
		</v:userDefs>
	</v:documentProperties>

	<style type="text/css">
	<![CDATA[
		.st1 {visibility:visible}
		.st2 {fill:none;filter:url(#filter_2);stroke:#5b9bd5;stroke-opacity:0.22}
		.st3 {fill:#5b9bd5;filter:url(#filter_2);font-family:黑体;font-size:0.833336em;opacity:0.219608}
		.st4 {fill:none;stroke:#000000;stroke-width:0.25}
		.st5 {fill:#000000;font-family:黑体;font-size:0.833336em}
		.st6 {font-size:1em}
		.st7 {stroke:#000000;stroke-linecap:round;stroke-linejoin:round;stroke-width:1}
		.st8 {fill:none;stroke:none;stroke-width:0.25}
		.st9 {fill:#000000;font-family:Calibri;font-size:0.75em}
		.st10 {fill:none;fill-rule:evenodd;font-size:12px;overflow:visible;stroke-linecap:square;stroke-miterlimit:3}
	]]>
	</style>

	<defs id="Filters">
		<filter id="filter_2">
			<feGaussianBlur stdDeviation="2"/>
		</filter>
	</defs>
	<g v:mID="0" v:index="1" v:groupContext="foregroundPage">
		<v:userDefs>
			<v:ud v:nameU="msvThemeOrder" v:val="VT0(0):26"/>
		</v:userDefs>
		<title>页-1</title>
		<v:pageProperties v:drawingScale="0.0393701" v:pageScale="0.0393701" v:drawingUnits="24" v:shadowOffsetX="8.50394"
				v:shadowOffsetY="-8.50394"/>
		<v:layer v:name="连接线" v:index="0"/>
		<g id="shape1-1" v:mID="1" v:groupContext="shape" transform="translate(210.271,-230.702)">
			<title>矩形</title>
			<desc>设备描述符</desc>
			<v:userDefs>
				<v:ud v:nameU="visVersion" v:val="VT0(15):26"/>
			</v:userDefs>
			<v:textBlock v:margins="rect(4,4,4,4)" v:tabSpace="42.5197"/>
			<v:textRect cx="42.9492" cy="262.61" width="85.9" height="25.5118"/>
			<g id="shadow1-2" v:groupContext="shadow" v:shadowOffsetX="0.345598" v:shadowOffsetY="-1.97279" v:shadowType="1"
					transform="matrix(1,0,0,1,0.345598,1.97279)" class="st1">
				<rect x="0" y="249.854" width="85.8984" height="25.5118" class="st2"/>
				<text x="17.95" y="265.94" class="st3" v:langID="2052"><v:paragraph v:horizAlign="1"/><v:tabList/>设备描述符</text>			</g>
			<rect x="0" y="249.854" width="85.8984" height="25.5118" class="st4"/>
			<text x="17.95" y="265.94" class="st5" v:langID="2052"><v:paragraph v:horizAlign="1"/><v:tabList/>设备描述符</text>		</g>
		<g id="shape2-9" v:mID="2" v:groupContext="shape" transform="translate(90.7866,-162.671)">
			<title>矩形.2</title>
			<desc>配置描述符</desc>
			<v:userDefs>
				<v:ud v:nameU="visVersion" v:val="VT0(15):26"/>
			</v:userDefs>
			<v:textBlock v:margins="rect(4,4,4,4)" v:tabSpace="42.5197"/>
			<v:textRect cx="42.9492" cy="262.61" width="85.9" height="25.5118"/>
			<g id="shadow2-10" v:groupContext="shadow" v:shadowOffsetX="0.345598" v:shadowOffsetY="-1.97279" v:shadowType="1"
					transform="matrix(1,0,0,1,0.345598,1.97279)" class="st1">
				<rect x="0" y="249.854" width="85.8984" height="25.5118" class="st2"/>
				<text x="17.95" y="265.94" class="st3" v:langID="2052"><v:paragraph v:horizAlign="1"/><v:tabList/>配置描述符</text>			</g>
			<rect x="0" y="249.854" width="85.8984" height="25.5118" class="st4"/>
			<text x="17.95" y="265.94" class="st5" v:langID="2052"><v:paragraph v:horizAlign="1"/><v:tabList/>配置描述符</text>		</g>
		<g id="shape6-17" v:mID="6" v:groupContext="shape" transform="translate(20.7794,-26.6076)">
			<title>矩形.6</title>
			<desc>端点 描述符</desc>
			<v:userDefs>
				<v:ud v:nameU="visVersion" v:val="VT0(15):26"/>
			</v:userDefs>
			<v:textBlock v:margins="rect(4,4,4,4)" v:tabSpace="42.5197"/>
			<v:textRect cx="22.6772" cy="262.61" width="45.36" height="25.5118"/>
			<g id="shadow6-18" v:groupContext="shadow" v:shadowOffsetX="0.345598" v:shadowOffsetY="-1.97279" v:shadowType="1"
					transform="matrix(1,0,0,1,0.345598,1.97279)" class="st1">
				<rect x="0" y="249.854" width="45.3543" height="25.5118" class="st2"/>
				<text x="12.68" y="259.28" class="st3" v:langID="2052"><v:paragraph v:horizAlign="1"/><v:tabList/>端点<v:newlineChar/><tspan
							x="7.68" dy="1.331em" class="st6">描述符</tspan></text>			</g>
			<rect x="0" y="249.854" width="45.3543" height="25.5118" class="st4"/>
			<text x="12.68" y="259.28" class="st5" v:langID="2052"><v:paragraph v:horizAlign="1"/><v:tabList/>端点<v:newlineChar/><tspan
						x="7.68" dy="1.331em" class="st6">描述符</tspan></text>		</g>
		<g id="shape9-27" v:mID="9" v:groupContext="shape" transform="translate(77.4723,-26.6076)">
			<title>矩形.9</title>
			<desc>端点 描述符</desc>
			<v:userDefs>
				<v:ud v:nameU="visVersion" v:val="VT0(15):26"/>
			</v:userDefs>
			<v:textBlock v:margins="rect(4,4,4,4)" v:tabSpace="42.5197"/>
			<v:textRect cx="22.6772" cy="262.61" width="45.36" height="25.5118"/>
			<g id="shadow9-28" v:groupContext="shadow" v:shadowOffsetX="0.345598" v:shadowOffsetY="-1.97279" v:shadowType="1"
					transform="matrix(1,0,0,1,0.345598,1.97279)" class="st1">
				<rect x="0" y="249.854" width="45.3543" height="25.5118" class="st2"/>
				<text x="12.68" y="259.28" class="st3" v:langID="2052"><v:paragraph v:horizAlign="1"/><v:tabList/>端点<v:newlineChar/><tspan
							x="7.68" dy="1.331em" class="st6">描述符</tspan></text>			</g>
			<rect x="0" y="249.854" width="45.3543" height="25.5118" class="st4"/>
			<text x="12.68" y="259.28" class="st5" v:langID="2052"><v:paragraph v:horizAlign="1"/><v:tabList/>端点<v:newlineChar/><tspan
						x="7.68" dy="1.331em" class="st6">描述符</tspan></text>		</g>
		<g id="shape10-37" v:mID="10" v:groupContext="shape" transform="translate(139.835,-26.6076)">
			<title>矩形.10</title>
			<desc>端点 描述符</desc>
			<v:userDefs>
				<v:ud v:nameU="visVersion" v:val="VT0(15):26"/>
			</v:userDefs>
			<v:textBlock v:margins="rect(4,4,4,4)" v:tabSpace="42.5197"/>
			<v:textRect cx="22.6772" cy="262.61" width="45.36" height="25.5118"/>
			<g id="shadow10-38" v:groupContext="shadow" v:shadowOffsetX="0.345598" v:shadowOffsetY="-1.97279" v:shadowType="1"
					transform="matrix(1,0,0,1,0.345598,1.97279)" class="st1">
				<rect x="0" y="249.854" width="45.3543" height="25.5118" class="st2"/>
				<text x="12.68" y="259.28" class="st3" v:langID="2052"><v:paragraph v:horizAlign="1"/><v:tabList/>端点<v:newlineChar/><tspan
							x="7.68" dy="1.331em" class="st6">描述符</tspan></text>			</g>
			<rect x="0" y="249.854" width="45.3543" height="25.5118" class="st4"/>
			<text x="12.68" y="259.28" class="st5" v:langID="2052"><v:paragraph v:horizAlign="1"/><v:tabList/>端点<v:newlineChar/><tspan
						x="7.68" dy="1.331em" class="st6">描述符</tspan></text>		</g>
		<g id="shape11-47" v:mID="11" v:groupContext="shape" transform="translate(196.527,-26.6076)">
			<title>矩形.11</title>
			<desc>端点 描述符</desc>
			<v:userDefs>
				<v:ud v:nameU="visVersion" v:val="VT0(15):26"/>
			</v:userDefs>
			<v:textBlock v:margins="rect(4,4,4,4)" v:tabSpace="42.5197"/>
			<v:textRect cx="22.6772" cy="262.61" width="45.36" height="25.5118"/>
			<g id="shadow11-48" v:groupContext="shadow" v:shadowOffsetX="0.345598" v:shadowOffsetY="-1.97279" v:shadowType="1"
					transform="matrix(1,0,0,1,0.345598,1.97279)" class="st1">
				<rect x="0" y="249.854" width="45.3543" height="25.5118" class="st2"/>
				<text x="12.68" y="259.28" class="st3" v:langID="2052"><v:paragraph v:horizAlign="1"/><v:tabList/>端点<v:newlineChar/><tspan
							x="7.68" dy="1.331em" class="st6">描述符</tspan></text>			</g>
			<rect x="0" y="249.854" width="45.3543" height="25.5118" class="st4"/>
			<text x="12.68" y="259.28" class="st5" v:langID="2052"><v:paragraph v:horizAlign="1"/><v:tabList/>端点<v:newlineChar/><tspan
						x="7.68" dy="1.331em" class="st6">描述符</tspan></text>		</g>
		<g id="shape4-57" v:mID="4" v:groupContext="shape" transform="translate(28.5103,-94.6391)">
			<title>矩形.4</title>
			<desc>接口描述符</desc>
			<v:userDefs>
				<v:ud v:nameU="visVersion" v:val="VT0(15):26"/>
			</v:userDefs>
			<v:textBlock v:margins="rect(4,4,4,4)" v:tabSpace="42.5197"/>
			<v:textRect cx="42.9492" cy="262.61" width="85.9" height="25.5118"/>
			<g id="shadow4-58" v:groupContext="shadow" v:shadowOffsetX="0.345598" v:shadowOffsetY="-1.97279" v:shadowType="1"
					transform="matrix(1,0,0,1,0.345598,1.97279)" class="st1">
				<rect x="0" y="249.854" width="85.8984" height="25.5118" class="st2"/>
				<text x="17.95" y="265.94" class="st3" v:langID="2052"><v:paragraph v:horizAlign="1"/><v:tabList/>接口描述符</text>			</g>
			<rect x="0" y="249.854" width="85.8984" height="25.5118" class="st4"/>
			<text x="17.95" y="265.94" class="st5" v:langID="2052"><v:paragraph v:horizAlign="1"/><v:tabList/>接口描述符</text>		</g>
		<g id="shape5-65" v:mID="5" v:groupContext="shape" transform="translate(148.338,-94.6391)">
			<title>矩形.5</title>
			<desc>接口描述符</desc>
			<v:userDefs>
				<v:ud v:nameU="visVersion" v:val="VT0(15):26"/>
			</v:userDefs>
			<v:textBlock v:margins="rect(4,4,4,4)" v:tabSpace="42.5197"/>
			<v:textRect cx="42.9492" cy="262.61" width="85.9" height="25.5118"/>
			<g id="shadow5-66" v:groupContext="shadow" v:shadowOffsetX="0.345598" v:shadowOffsetY="-1.97279" v:shadowType="1"
					transform="matrix(1,0,0,1,0.345598,1.97279)" class="st1">
				<rect x="0" y="249.854" width="85.8984" height="25.5118" class="st2"/>
				<text x="17.95" y="265.94" class="st3" v:langID="2052"><v:paragraph v:horizAlign="1"/><v:tabList/>接口描述符</text>			</g>
			<rect x="0" y="249.854" width="85.8984" height="25.5118" class="st4"/>
			<text x="17.95" y="265.94" class="st5" v:langID="2052"><v:paragraph v:horizAlign="1"/><v:tabList/>接口描述符</text>		</g>
		<g id="shape14-73" v:mID="14" v:groupContext="shape" v:layerMember="0" transform="translate(133.736,-162.671)">
			<title>动态连接线</title>
			<path d="M0 275.37 L0 294.4 L-62.28 294.4 L-62.28 317.89" class="st7"/>
		</g>
		<g id="shape15-76" v:mID="15" v:groupContext="shape" v:layerMember="0" transform="translate(133.736,-162.671)">
			<title>动态连接线.15</title>
			<path d="M0 275.37 L0 294.4 L57.55 294.4 L57.55 317.89" class="st7"/>
		</g>
		<g id="shape16-79" v:mID="16" v:groupContext="shape" v:layerMember="0" transform="translate(71.4594,-94.6391)">
			<title>动态连接线.16</title>
			<path d="M0 275.37 L0 294.4 L-28 294.4 L-28 317.89" class="st7"/>
		</g>
		<g id="shape17-82" v:mID="17" v:groupContext="shape" v:layerMember="0" transform="translate(71.4594,-94.6391)">
			<title>动态连接线.17</title>
			<path d="M0 275.37 L0 294.4 L28.69 294.4 L28.69 317.89" class="st7"/>
		</g>
		<g id="shape18-85" v:mID="18" v:groupContext="shape" v:layerMember="0" transform="translate(191.288,-94.6391)">
			<title>动态连接线.18</title>
			<path d="M0 275.37 L0 294.4 L-28.78 294.4 L-28.78 317.89" class="st7"/>
		</g>
		<g id="shape19-88" v:mID="19" v:groupContext="shape" v:layerMember="0" transform="translate(191.288,-94.6391)">
			<title>动态连接线.19</title>
			<path d="M0 275.37 L0 294.4 L27.92 294.4 L27.92 317.89" class="st7"/>
		</g>
		<g id="shape20-91" v:mID="20" v:groupContext="shape" transform="translate(334.566,-162.671)">
			<title>矩形.20</title>
			<desc>配置描述符</desc>
			<v:userDefs>
				<v:ud v:nameU="visVersion" v:val="VT0(15):26"/>
			</v:userDefs>
			<v:textBlock v:margins="rect(4,4,4,4)" v:tabSpace="42.5197"/>
			<v:textRect cx="42.9492" cy="262.61" width="85.9" height="25.5118"/>
			<g id="shadow20-92" v:groupContext="shadow" v:shadowOffsetX="0.345598" v:shadowOffsetY="-1.97279" v:shadowType="1"
					transform="matrix(1,0,0,1,0.345598,1.97279)" class="st1">
				<rect x="0" y="249.854" width="85.8984" height="25.5118" class="st2"/>
				<text x="17.95" y="265.94" class="st3" v:langID="2052"><v:paragraph v:horizAlign="1"/><v:tabList/>配置描述符</text>			</g>
			<rect x="0" y="249.854" width="85.8984" height="25.5118" class="st4"/>
			<text x="17.95" y="265.94" class="st5" v:langID="2052"><v:paragraph v:horizAlign="1"/><v:tabList/>配置描述符</text>		</g>
		<g id="shape21-99" v:mID="21" v:groupContext="shape" transform="translate(264.559,-26.6076)">
			<title>矩形.21</title>
			<desc>端点 描述符</desc>
			<v:userDefs>
				<v:ud v:nameU="visVersion" v:val="VT0(15):26"/>
			</v:userDefs>
			<v:textBlock v:margins="rect(4,4,4,4)" v:tabSpace="42.5197"/>
			<v:textRect cx="22.6772" cy="262.61" width="45.36" height="25.5118"/>
			<g id="shadow21-100" v:groupContext="shadow" v:shadowOffsetX="0.345598" v:shadowOffsetY="-1.97279" v:shadowType="1"
					transform="matrix(1,0,0,1,0.345598,1.97279)" class="st1">
				<rect x="0" y="249.854" width="45.3543" height="25.5118" class="st2"/>
				<text x="12.68" y="259.28" class="st3" v:langID="2052"><v:paragraph v:horizAlign="1"/><v:tabList/>端点<v:newlineChar/><tspan
							x="7.68" dy="1.331em" class="st6">描述符</tspan></text>			</g>
			<rect x="0" y="249.854" width="45.3543" height="25.5118" class="st4"/>
			<text x="12.68" y="259.28" class="st5" v:langID="2052"><v:paragraph v:horizAlign="1"/><v:tabList/>端点<v:newlineChar/><tspan
						x="7.68" dy="1.331em" class="st6">描述符</tspan></text>		</g>
		<g id="shape22-109" v:mID="22" v:groupContext="shape" transform="translate(321.252,-26.6076)">
			<title>矩形.22</title>
			<desc>端点 描述符</desc>
			<v:userDefs>
				<v:ud v:nameU="visVersion" v:val="VT0(15):26"/>
			</v:userDefs>
			<v:textBlock v:margins="rect(4,4,4,4)" v:tabSpace="42.5197"/>
			<v:textRect cx="22.6772" cy="262.61" width="45.36" height="25.5118"/>
			<g id="shadow22-110" v:groupContext="shadow" v:shadowOffsetX="0.345598" v:shadowOffsetY="-1.97279" v:shadowType="1"
					transform="matrix(1,0,0,1,0.345598,1.97279)" class="st1">
				<rect x="0" y="249.854" width="45.3543" height="25.5118" class="st2"/>
				<text x="12.68" y="259.28" class="st3" v:langID="2052"><v:paragraph v:horizAlign="1"/><v:tabList/>端点<v:newlineChar/><tspan
							x="7.68" dy="1.331em" class="st6">描述符</tspan></text>			</g>
			<rect x="0" y="249.854" width="45.3543" height="25.5118" class="st4"/>
			<text x="12.68" y="259.28" class="st5" v:langID="2052"><v:paragraph v:horizAlign="1"/><v:tabList/>端点<v:newlineChar/><tspan
						x="7.68" dy="1.331em" class="st6">描述符</tspan></text>		</g>
		<g id="shape23-119" v:mID="23" v:groupContext="shape" transform="translate(383.614,-26.6076)">
			<title>矩形.23</title>
			<desc>端点 描述符</desc>
			<v:userDefs>
				<v:ud v:nameU="visVersion" v:val="VT0(15):26"/>
			</v:userDefs>
			<v:textBlock v:margins="rect(4,4,4,4)" v:tabSpace="42.5197"/>
			<v:textRect cx="22.6772" cy="262.61" width="45.36" height="25.5118"/>
			<g id="shadow23-120" v:groupContext="shadow" v:shadowOffsetX="0.345598" v:shadowOffsetY="-1.97279" v:shadowType="1"
					transform="matrix(1,0,0,1,0.345598,1.97279)" class="st1">
				<rect x="0" y="249.854" width="45.3543" height="25.5118" class="st2"/>
				<text x="12.68" y="259.28" class="st3" v:langID="2052"><v:paragraph v:horizAlign="1"/><v:tabList/>端点<v:newlineChar/><tspan
							x="7.68" dy="1.331em" class="st6">描述符</tspan></text>			</g>
			<rect x="0" y="249.854" width="45.3543" height="25.5118" class="st4"/>
			<text x="12.68" y="259.28" class="st5" v:langID="2052"><v:paragraph v:horizAlign="1"/><v:tabList/>端点<v:newlineChar/><tspan
						x="7.68" dy="1.331em" class="st6">描述符</tspan></text>		</g>
		<g id="shape24-129" v:mID="24" v:groupContext="shape" transform="translate(440.307,-26.6076)">
			<title>矩形.24</title>
			<desc>端点 描述符</desc>
			<v:userDefs>
				<v:ud v:nameU="visVersion" v:val="VT0(15):26"/>
			</v:userDefs>
			<v:textBlock v:margins="rect(4,4,4,4)" v:tabSpace="42.5197"/>
			<v:textRect cx="22.6772" cy="262.61" width="45.36" height="25.5118"/>
			<g id="shadow24-130" v:groupContext="shadow" v:shadowOffsetX="0.345598" v:shadowOffsetY="-1.97279" v:shadowType="1"
					transform="matrix(1,0,0,1,0.345598,1.97279)" class="st1">
				<rect x="0" y="249.854" width="45.3543" height="25.5118" class="st2"/>
				<text x="12.68" y="259.28" class="st3" v:langID="2052"><v:paragraph v:horizAlign="1"/><v:tabList/>端点<v:newlineChar/><tspan
							x="7.68" dy="1.331em" class="st6">描述符</tspan></text>			</g>
			<rect x="0" y="249.854" width="45.3543" height="25.5118" class="st4"/>
			<text x="12.68" y="259.28" class="st5" v:langID="2052"><v:paragraph v:horizAlign="1"/><v:tabList/>端点<v:newlineChar/><tspan
						x="7.68" dy="1.331em" class="st6">描述符</tspan></text>		</g>
		<g id="shape25-139" v:mID="25" v:groupContext="shape" transform="translate(272.29,-94.6391)">
			<title>矩形.25</title>
			<desc>接口描述符</desc>
			<v:userDefs>
				<v:ud v:nameU="visVersion" v:val="VT0(15):26"/>
			</v:userDefs>
			<v:textBlock v:margins="rect(4,4,4,4)" v:tabSpace="42.5197"/>
			<v:textRect cx="42.9492" cy="262.61" width="85.9" height="25.5118"/>
			<g id="shadow25-140" v:groupContext="shadow" v:shadowOffsetX="0.345598" v:shadowOffsetY="-1.97279" v:shadowType="1"
					transform="matrix(1,0,0,1,0.345598,1.97279)" class="st1">
				<rect x="0" y="249.854" width="85.8984" height="25.5118" class="st2"/>
				<text x="17.95" y="265.94" class="st3" v:langID="2052"><v:paragraph v:horizAlign="1"/><v:tabList/>接口描述符</text>			</g>
			<rect x="0" y="249.854" width="85.8984" height="25.5118" class="st4"/>
			<text x="17.95" y="265.94" class="st5" v:langID="2052"><v:paragraph v:horizAlign="1"/><v:tabList/>接口描述符</text>		</g>
		<g id="shape26-147" v:mID="26" v:groupContext="shape" transform="translate(392.118,-94.6391)">
			<title>矩形.26</title>
			<desc>接口描述符</desc>
			<v:userDefs>
				<v:ud v:nameU="visVersion" v:val="VT0(15):26"/>
			</v:userDefs>
			<v:textBlock v:margins="rect(4,4,4,4)" v:tabSpace="42.5197"/>
			<v:textRect cx="42.9492" cy="262.61" width="85.9" height="25.5118"/>
			<g id="shadow26-148" v:groupContext="shadow" v:shadowOffsetX="0.345598" v:shadowOffsetY="-1.97279" v:shadowType="1"
					transform="matrix(1,0,0,1,0.345598,1.97279)" class="st1">
				<rect x="0" y="249.854" width="85.8984" height="25.5118" class="st2"/>
				<text x="17.95" y="265.94" class="st3" v:langID="2052"><v:paragraph v:horizAlign="1"/><v:tabList/>接口描述符</text>			</g>
			<rect x="0" y="249.854" width="85.8984" height="25.5118" class="st4"/>
			<text x="17.95" y="265.94" class="st5" v:langID="2052"><v:paragraph v:horizAlign="1"/><v:tabList/>接口描述符</text>		</g>
		<g id="shape27-155" v:mID="27" v:groupContext="shape" v:layerMember="0" transform="translate(377.515,-162.671)">
			<title>动态连接线.27</title>
			<path d="M0 275.37 L0 294.4 L-62.28 294.4 L-62.28 317.89" class="st7"/>
		</g>
		<g id="shape28-158" v:mID="28" v:groupContext="shape" v:layerMember="0" transform="translate(377.515,-162.671)">
			<title>动态连接线.28</title>
			<path d="M0 275.37 L0 294.4 L57.55 294.4 L57.55 317.89" class="st7"/>
		</g>
		<g id="shape29-161" v:mID="29" v:groupContext="shape" v:layerMember="0" transform="translate(315.239,-94.6391)">
			<title>动态连接线.29</title>
			<path d="M0 275.37 L0 294.4 L-28 294.4 L-28 317.89" class="st7"/>
		</g>
		<g id="shape30-164" v:mID="30" v:groupContext="shape" v:layerMember="0" transform="translate(315.239,-94.6391)">
			<title>动态连接线.30</title>
			<path d="M0 275.37 L0 294.4 L28.69 294.4 L28.69 317.89" class="st7"/>
		</g>
		<g id="shape31-167" v:mID="31" v:groupContext="shape" v:layerMember="0" transform="translate(435.067,-94.6391)">
			<title>动态连接线.31</title>
			<path d="M0 275.37 L0 294.4 L-28.78 294.4 L-28.78 317.89" class="st7"/>
		</g>
		<g id="shape32-170" v:mID="32" v:groupContext="shape" v:layerMember="0" transform="translate(435.067,-94.6391)">
			<title>动态连接线.32</title>
			<path d="M0 275.37 L0 294.4 L27.92 294.4 L27.92 317.89" class="st7"/>
		</g>
		<g id="shape33-173" v:mID="33" v:groupContext="shape" v:layerMember="0" transform="translate(253.22,-230.702)">
			<title>动态连接线.33</title>
			<path d="M0 275.37 L0 294.4 L-119.48 294.4 L-119.48 317.89" class="st7"/>
		</g>
		<g id="shape34-176" v:mID="34" v:groupContext="shape" v:layerMember="0" transform="translate(253.22,-230.702)">
			<title>动态连接线.34</title>
			<path d="M0 275.37 L0 294.4 L124.29 294.4 L124.29 317.89" class="st7"/>
		</g>
		<g id="shape35-179" v:mID="35" v:groupContext="shape" transform="translate(250.386,-210.702)">
			<title>工作表.35</title>
			<desc>bNumConfigurations</desc>
			<v:textBlock v:margins="rect(4,4,4,4)" v:tabSpace="42.5197"/>
			<v:textRect cx="51.0236" cy="265.366" width="102.05" height="20"/>
			<rect x="0" y="255.366" width="102.047" height="20" class="st8"/>
			<text x="13.01" y="268.07" class="st9" v:langID="2052"><v:paragraph v:horizAlign="1"/><v:tabList/>bNumConfigurations</text>		</g>
		<g id="shape36-182" v:mID="36" v:groupContext="shape" transform="translate(130.472,-142.828)">
			<title>工作表.36</title>
			<desc>bNumInterfaces</desc>
			<v:textBlock v:margins="rect(4,4,4,4)" v:tabSpace="42.5197"/>
			<v:textRect cx="42.9492" cy="265.366" width="85.9" height="20"/>
			<rect x="0" y="255.366" width="85.8984" height="20" class="st8"/>
			<text x="13.48" y="268.07" class="st9" v:langID="2052"><v:paragraph v:horizAlign="1"/><v:tabList/>bNumInterfaces</text>		</g>
		<g id="shape37-185" v:mID="37" v:groupContext="shape" transform="translate(374.251,-142.828)">
			<title>工作表.37</title>
			<desc>bNumInterfaces</desc>
			<v:textBlock v:margins="rect(4,4,4,4)" v:tabSpace="42.5197"/>
			<v:textRect cx="42.9492" cy="265.366" width="85.9" height="20"/>
			<rect x="0" y="255.366" width="85.8984" height="20" class="st8"/>
			<text x="13.48" y="268.07" class="st9" v:langID="2052"><v:paragraph v:horizAlign="1"/><v:tabList/>bNumInterfaces</text>		</g>
		<g id="shape38-188" v:mID="38" v:groupContext="shape" transform="translate(68.5389,-74.7966)">
			<title>工作表.38</title>
			<desc>bNumEndpoints</desc>
			<v:textBlock v:margins="rect(4,4,4,4)" v:tabSpace="42.5197"/>
			<v:textRect cx="42.9492" cy="265.366" width="85.9" height="20"/>
			<rect x="0" y="255.366" width="85.8984" height="20" class="st8"/>
			<text x="13.39" y="268.07" class="st9" v:langID="2052"><v:paragraph v:horizAlign="1"/><v:tabList/>bNumEndpoints</text>		</g>
		<g id="shape39-191" v:mID="39" v:groupContext="shape" transform="translate(189.999,-74.7966)">
			<title>工作表.39</title>
			<desc>bNumEndpoints</desc>
			<v:textBlock v:margins="rect(4,4,4,4)" v:tabSpace="42.5197"/>
			<v:textRect cx="42.9492" cy="265.366" width="85.9" height="20"/>
			<rect x="0" y="255.366" width="85.8984" height="20" class="st8"/>
			<text x="13.39" y="268.07" class="st9" v:langID="2052"><v:paragraph v:horizAlign="1"/><v:tabList/>bNumEndpoints</text>		</g>
		<g id="shape40-194" v:mID="40" v:groupContext="shape" transform="translate(312.318,-74.7966)">
			<title>工作表.40</title>
			<desc>bNumEndpoints</desc>
			<v:textBlock v:margins="rect(4,4,4,4)" v:tabSpace="42.5197"/>
			<v:textRect cx="42.9492" cy="265.366" width="85.9" height="20"/>
			<rect x="0" y="255.366" width="85.8984" height="20" class="st8"/>
			<text x="13.39" y="268.07" class="st9" v:langID="2052"><v:paragraph v:horizAlign="1"/><v:tabList/>bNumEndpoints</text>		</g>
		<g id="shape41-197" v:mID="41" v:groupContext="shape" transform="translate(431.803,-74.7966)">
			<title>工作表.41</title>
			<desc>bNumEndpoints</desc>
			<v:textBlock v:margins="rect(4,4,4,4)" v:tabSpace="42.5197"/>
			<v:textRect cx="42.9492" cy="265.366" width="85.9" height="20"/>
			<rect x="0" y="255.366" width="85.8984" height="20" class="st8"/>
			<text x="13.39" y="268.07" class="st9" v:langID="2052"><v:paragraph v:horizAlign="1"/><v:tabList/>bNumEndpoints</text>		</g>
	</g>
</svg>
