<?xml version="1.0" encoding="UTF-8" standalone="no"?>
<!DOCTYPE svg PUBLIC "-//W3C//DTD SVG 1.1//EN" "http://www.w3.org/Graphics/SVG/1.1/DTD/svg11.dtd">
<!-- 由 Microsoft Visio, SVG Export 生成 adc_internal_r.svg Page-1 -->
<svg xmlns="http://www.w3.org/2000/svg" xmlns:xlink="http://www.w3.org/1999/xlink" xmlns:ev="http://www.w3.org/2001/xml-events"
		xmlns:v="http://schemas.microsoft.com/visio/2003/SVGExtensions/" width="2.81357in" height="1.72496in"
		viewBox="0 0 202.577 124.197" xml:space="preserve" color-interpolation-filters="sRGB" class="st9">
	<v:documentProperties v:langID="2052" v:metric="true" v:viewMarkup="false">
		<v:userDefs>
			<v:ud v:nameU="msvNoAutoConnect" v:val="VT0(1):26"/>
		</v:userDefs>
	</v:documentProperties>

	<style type="text/css">
	<![CDATA[
		.st1 {stroke:#0c0c0c;stroke-linecap:round;stroke-linejoin:round;stroke-width:1}
		.st2 {fill:none;stroke:none;stroke-linecap:round;stroke-linejoin:round;stroke-width:1}
		.st3 {fill:#000000;font-family:Calibri;font-size:0.666664em}
		.st4 {fill:none;stroke:#0c0c0c;stroke-dasharray:3.5,2.5;stroke-linecap:round;stroke-linejoin:round;stroke-width:0.5}
		.st5 {fill:#ffffff;stroke:#0c0c0c;stroke-linecap:round;stroke-linejoin:round;stroke-width:1}
		.st6 {fill:#ffffff}
		.st7 {stroke:#000000;stroke-linecap:round;stroke-linejoin:round;stroke-width:0.5}
		.st8 {fill:#000000;font-family:Calibri;font-size:0.499992em}
		.st9 {fill:none;fill-rule:evenodd;font-size:12px;overflow:visible;stroke-linecap:square;stroke-miterlimit:3}
	]]>
	</style>

	<g v:mID="0" v:index="1" v:groupContext="foregroundPage">
		<title>页-1</title>
		<v:pageProperties v:drawingScale="0.0393701" v:pageScale="0.0393701" v:drawingUnits="24" v:shadowOffsetX="8.50394"
				v:shadowOffsetY="-8.50394"/>
		<v:layer v:name="电气" v:index="0"/>
		<v:layer v:name="电力/通信" v:index="1"/>
		<v:layer v:name="电气装置" v:index="2"/>
		<g id="group2-1" transform="translate(124.697,71.8233) rotate(90)" v:mID="2" v:groupContext="group" v:layerMember="0">
			<v:userDefs>
				<v:ud v:nameU="visVersion" v:val="VT0(15):26"/>
				<v:ud v:nameU="visDescription" v:val="VT4(继电器触点)"/>
			</v:userDefs>
			<title>继电器触点</title>
			<g id="shape3-2" v:mID="3" v:groupContext="shape" v:layerMember="0" transform="translate(0,-5.66929)">
				<title>工作表.3</title>
				<path d="M0 124.2 L11.34 124.2" class="st1"/>
			</g>
			<g id="shape4-5" v:mID="4" v:groupContext="shape" v:layerMember="0" transform="translate(28.3465,242.725) rotate(180)">
				<title>工作表.4</title>
				<path d="M0 124.2 L11.34 124.2" class="st1"/>
			</g>
			<g id="shape5-8" v:mID="5" v:groupContext="shape" v:layerMember="0" transform="translate(5.66929,1.42109E-14)">
				<title>工作表.5</title>
				<path d="M11.34 112.86 L11.34 124.2" class="st1"/>
				<path d="M5.67 112.86 L5.67 124.2" class="st1"/>
			</g>
		</g>
		<g id="group6-12" transform="translate(161.548,38.091) rotate(90)" v:mID="6" v:groupContext="group" v:layerMember="0">
			<v:custProps>
				<v:cp v:nameU="Label" v:lbl="标签" v:type="0" v:format="@" v:sortKey="" v:invis="false" v:ask="false" v:langID="2052"
						v:val="VT4()"/>
				<v:cp v:nameU="Slider_Position" v:lbl="滑块位置 (0-1)" v:type="2" v:langID="2052" v:val="VT0(0.5):26"/>
			</v:custProps>
			<v:userDefs>
				<v:ud v:nameU="Form" v:val="VT0(1):5"/>
				<v:ud v:nameU="SubType" v:val="VT0(0):26"/>
				<v:ud v:nameU="visVersion" v:val="VT0(15):26"/>
				<v:ud v:nameU="visDescription" v:val="VT4(表示固定或可变电阻器。)"/>
			</v:userDefs>
			<title>电阻器.131</title>
			<g id="shape7-13" v:mID="7" v:groupContext="shape" v:layerMember="0">
				<title>工作表.7</title>
				<v:userDefs>
					<v:ud v:nameU="SubType" v:val="VT0(0):26"/>
					<v:ud v:nameU="Form" v:val="VT0(1):5"/>
				</v:userDefs>
				<path d="M0 121.36 L1.18 118.53 L3.54 124.2 L5.91 118.53 L8.27 124.2 L10.63 118.53 L12.99 124.2 L14.17 121.36"
						class="st1"/>
			</g>
			<g id="shape8-16" v:mID="8" v:groupContext="shape" v:layerMember="0"
					transform="translate(-86.4467,39.8558) rotate(-45)">
				<title>工作表.8</title>
				<v:userDefs>
					<v:ud v:nameU="SubType" v:val="VT0(0):26"/>
				</v:userDefs>
			</g>
		</g>
		<g id="group9-18" transform="translate(161.548,78.9099) rotate(90)" v:mID="9" v:groupContext="group" v:layerMember="0">
			<v:custProps>
				<v:cp v:nameU="Label" v:lbl="标签" v:type="0" v:format="@" v:sortKey="" v:invis="false" v:ask="false" v:langID="2052"
						v:val="VT4()"/>
				<v:cp v:nameU="Slider_Position" v:lbl="滑块位置 (0-1)" v:type="2" v:langID="2052" v:val="VT0(0.5):26"/>
			</v:custProps>
			<v:userDefs>
				<v:ud v:nameU="Form" v:val="VT0(1):5"/>
				<v:ud v:nameU="SubType" v:val="VT0(0):26"/>
				<v:ud v:nameU="visVersion" v:val="VT0(15):26"/>
				<v:ud v:nameU="visDescription" v:val="VT4(表示固定或可变电阻器。)"/>
			</v:userDefs>
			<title>电阻器.134</title>
			<g id="shape10-19" v:mID="10" v:groupContext="shape" v:layerMember="0">
				<title>工作表.10</title>
				<v:userDefs>
					<v:ud v:nameU="SubType" v:val="VT0(0):26"/>
					<v:ud v:nameU="Form" v:val="VT0(1):5"/>
				</v:userDefs>
				<path d="M0 121.36 L1.18 118.53 L3.54 124.2 L5.91 118.53 L8.27 124.2 L10.63 118.53 L12.99 124.2 L14.17 121.36"
						class="st1"/>
			</g>
			<g id="shape11-22" v:mID="11" v:groupContext="shape" v:layerMember="0"
					transform="translate(-86.4467,39.8558) rotate(-45)">
				<title>工作表.11</title>
				<v:userDefs>
					<v:ud v:nameU="SubType" v:val="VT0(0):26"/>
				</v:userDefs>
			</g>
		</g>
		<g id="shape12-24" v:mID="12" v:groupContext="shape" transform="translate(164.382,52.2642) rotate(90)">
			<title>工作表.12</title>
			<path d="M0 124.2 L26.65 124.2" class="st1"/>
		</g>
		<g id="shape13-27" v:mID="13" v:groupContext="shape" transform="translate(-84.0123,38.091) rotate(-90)">
			<title>工作表.13</title>
			<path d="M0 124.2 L24.38 124.2" class="st1"/>
		</g>
		<g id="shape14-30" v:mID="14" v:groupContext="shape" v:layerMember="0" transform="translate(-78.343,121.43) rotate(-90)">
			<title>接地.139</title>
			<v:userDefs>
				<v:ud v:nameU="visVersion" v:val="VT0(15):26"/>
				<v:ud v:nameU="visDescription" v:val="VT4(表示接地。)"/>
			</v:userDefs>
			<path d="M0 116.64 L0 120.42" class="st1"/>
			<path d="M1.89 114.75 L1.89 122.31" class="st1"/>
			<path d="M3.78 112.86 L3.78 124.2" class="st1"/>
			<path d="M28.35 118.53 L3.78 118.53" class="st1"/>
		</g>
		<g id="shape15-36" v:mID="15" v:groupContext="shape" transform="translate(6.16929,-52.374)">
			<title>工作表.15</title>
			<path d="M0 124.2 L34.02 124.2" class="st1"/>
		</g>
		<g id="shape16-39" v:mID="16" v:groupContext="shape" transform="translate(6.16929,-24.0276)">
			<title>工作表.16</title>
			<path d="M0 124.2 L34.02 124.2" class="st1"/>
		</g>
		<g id="shape17-42" v:mID="17" v:groupContext="shape" transform="translate(87.8102,-62.2953)">
			<title>工作表.17</title>
			<path d="M0 124.2 L54.42 124.2" class="st1"/>
		</g>
		<g id="shape19-45" v:mID="19" v:groupContext="shape" v:layerMember="0" transform="translate(-6.40635,122.78) rotate(-90)">
			<title>接地.144</title>
			<v:userDefs>
				<v:ud v:nameU="visVersion" v:val="VT0(15):26"/>
				<v:ud v:nameU="visDescription" v:val="VT4(表示接地。)"/>
			</v:userDefs>
			<path d="M0 118.99 L0 121.59" class="st1"/>
			<path d="M1.3 117.69 L1.3 122.9" class="st1"/>
			<path d="M2.6 116.39 L2.6 124.2" class="st1"/>
			<path d="M19.53 120.29 L2.6 120.29" class="st1"/>
		</g>
		<g id="group20-51" transform="translate(235.248,89.0812) rotate(90)" v:mID="20" v:groupContext="group" v:layerMember="0">
			<v:custProps>
				<v:cp v:nameU="Label" v:lbl="标签" v:type="0" v:format="@" v:sortKey="" v:invis="false" v:ask="false" v:langID="2052"
						v:val="VT4()"/>
				<v:cp v:nameU="Slider_Position" v:lbl="滑块位置 (0-1)" v:type="2" v:langID="2052" v:val="VT0(0.5):26"/>
			</v:custProps>
			<v:userDefs>
				<v:ud v:nameU="Form" v:val="VT0(1):5"/>
				<v:ud v:nameU="SubType" v:val="VT0(0):26"/>
				<v:ud v:nameU="visVersion" v:val="VT0(15):26"/>
				<v:ud v:nameU="visDescription" v:val="VT4(表示固定或可变电阻器。)"/>
			</v:userDefs>
			<title>电阻器.145</title>
			<g id="shape21-52" v:mID="21" v:groupContext="shape" v:layerMember="0">
				<title>工作表.21</title>
				<v:userDefs>
					<v:ud v:nameU="SubType" v:val="VT0(0):26"/>
					<v:ud v:nameU="Form" v:val="VT0(1):5"/>
				</v:userDefs>
				<path d="M0 121.36 L1.18 118.53 L3.54 124.2 L5.91 118.53 L8.27 124.2 L10.63 118.53 L12.99 124.2 L14.17 121.36"
						class="st1"/>
			</g>
			<g id="shape22-55" v:mID="22" v:groupContext="shape" v:layerMember="0"
					transform="translate(-86.4467,39.8558) rotate(-45)">
				<title>工作表.22</title>
				<v:userDefs>
					<v:ud v:nameU="SubType" v:val="VT0(0):26"/>
				</v:userDefs>
			</g>
		</g>
		<g id="shape23-57" v:mID="23" v:groupContext="shape" transform="translate(-10.3115,89.0812) rotate(-90)">
			<title>工作表.23</title>
			<path d="M0 124.2 L27.18 124.2" class="st1"/>
		</g>
		<g id="shape24-60" v:mID="24" v:groupContext="shape" transform="translate(-10.3115,103.254) rotate(-90)">
			<title>工作表.24</title>
		</g>
		<g id="shape25-61" v:mID="25" v:groupContext="shape" transform="translate(38.3425,-110.484)">
			<title>工作表.25</title>
			<path d="M0 124.2 L3.94 124.2" class="st1"/>
		</g>
		<g id="shape26-64" v:mID="26" v:groupContext="shape" transform="translate(27.8851,-110.484)">
			<title>工作表.26</title>
			<desc>Vcc</desc>
			<v:textBlock v:margins="rect(4,4,4,4)" v:tabSpace="42.5197"/>
			<v:textRect cx="12.2999" cy="117.591" width="24.6" height="13.213"/>
			<rect x="0" y="110.984" width="24.5998" height="13.213" class="st2"/>
			<text x="6.65" y="119.99" class="st3" v:langID="2052"><v:paragraph v:horizAlign="1"/><v:tabList/>Vcc</text>		</g>
		<g id="shape27-67" v:mID="27" v:groupContext="shape" transform="translate(18.4199,-72.8933)">
			<title>工作表.27</title>
			<desc>R1</desc>
			<v:textBlock v:margins="rect(4,4,4,4)" v:tabSpace="42.5197"/>
			<v:textRect cx="12.2999" cy="117.591" width="24.6" height="13.213"/>
			<rect x="0" y="110.984" width="24.5998" height="13.213" class="st2"/>
			<text x="8.1" y="119.99" class="st3" v:langID="2052"><v:paragraph v:horizAlign="1"/><v:tabList/>R1</text>		</g>
		<g id="shape28-70" v:mID="28" v:groupContext="shape" transform="translate(18.4199,-32.0744)">
			<title>工作表.28</title>
			<desc>R2</desc>
			<v:textBlock v:margins="rect(4,4,4,4)" v:tabSpace="42.5197"/>
			<v:textRect cx="12.2999" cy="117.591" width="24.6" height="13.213"/>
			<rect x="0" y="110.984" width="24.5998" height="13.213" class="st2"/>
			<text x="8.1" y="119.99" class="st3" v:langID="2052"><v:paragraph v:horizAlign="1"/><v:tabList/>R2</text>		</g>
		<g id="shape29-73" v:mID="29" v:groupContext="shape" transform="translate(69.0743,-21.423)">
			<title>工作表.29</title>
			<desc>Internal R</desc>
			<v:textBlock v:margins="rect(4,4,4,4)" v:tabSpace="42.5197"/>
			<v:textRect cx="24.6614" cy="117.591" width="49.33" height="13.213"/>
			<rect x="0" y="110.984" width="49.3228" height="13.213" class="st2"/>
			<text x="8.82" y="119.99" class="st3" v:langID="2052"><v:paragraph v:horizAlign="1"/><v:tabList/>Internal R</text>		</g>
		<g id="shape30-76" v:mID="30" v:groupContext="shape" transform="translate(75.8611,-0.25)">
			<title>工作表.30</title>
			<path d="M0 124.2 L126.47 124.2 L126.47 33.01 L0 33.01 L0 124.2 Z" class="st4"/>
		</g>
		<g id="shape31-78" v:mID="31" v:groupContext="shape" transform="translate(60.878,-92.1097)">
			<title>工作表.31</title>
			<desc>Chip</desc>
			<v:textBlock v:margins="rect(4,4,4,4)" v:tabSpace="42.5197"/>
			<v:textRect cx="24.6614" cy="117.591" width="49.33" height="13.213"/>
			<rect x="0" y="110.984" width="49.3228" height="13.213" class="st2"/>
			<text x="17.41" y="119.99" class="st3" v:langID="2052"><v:paragraph v:horizAlign="1"/><v:tabList/>Chip</text>		</g>
		<g id="shape18-81" v:mID="18" v:groupContext="shape" transform="translate(142.516,-42.072)">
			<title>工作表.18</title>
			<desc>ADC</desc>
			<v:textBlock v:margins="rect(4,4,4,4)" v:tabSpace="42.5197"/>
			<v:textRect cx="24.6614" cy="104.873" width="49.33" height="38.6485"/>
			<rect x="0" y="85.5488" width="49.3228" height="38.6485" class="st5"/>
			<text x="17.75" y="107.27" class="st3" v:langID="2052"><v:paragraph v:horizAlign="1"/><v:tabList/>ADC</text>		</g>
		<g id="shape63-84" v:mID="63" v:groupContext="shape" transform="translate(40.185,-62.2953)">
			<title>工作表.63</title>
			<path d="M0 124.2 L41.96 124.2" class="st1"/>
		</g>
		<g id="group64-87" transform="translate(81.3129,-60.9338)" v:mID="64" v:groupContext="group" v:layerMember="1;2">
			<v:custProps>
				<v:cp v:nameU="SubType" v:lbl="开关类型" v:type="1" v:format="单刀;双刀;双路;多路开关;常规;中等" v:sortKey="01" v:invis="false"
						v:langID="2052" v:val="VT4(常规)"/>
				<v:cp v:nameU="ShapeClass" v:lbl="形状类" v:type="0" v:invis="true" v:langID="2052" v:val="VT4(建筑物组件)"/>
				<v:cp v:nameU="ShapeType" v:lbl="形状类型" v:type="0" v:invis="true" v:langID="2052" v:val="VT4(电气装置)"/>
				<v:cp v:nameU="SubShapeType" v:lbl="子形状类型" v:type="0" v:invis="true" v:langID="2052" v:val="VT4(开关)"/>
				<v:cp v:nameU="BaseElevation" v:lbl="基本标高" v:type="2" v:sortKey="02" v:invis="false" v:langID="2052"/>
			</v:custProps>
			<v:userDefs>
				<v:ud v:nameU="Type" v:val="VT0(4):26"/>
				<v:ud v:nameU="AntiScale" v:val="VT0(1):26"/>
				<v:ud v:nameU="HasText" v:val="VT0(0):5"/>
				<v:ud v:nameU="visVersion" v:val="VT0(15):26"/>
				<v:ud v:nameU="SolSH" v:val="VT4({5D50005D-537C-4738-9C46-130C74335A6D})"/>
				<v:ud v:nameU="ShapeClass" v:prompt="建筑物组件" v:val="VT0(3):26"/>
				<v:ud v:nameU="ShapeType" v:prompt="电气装置" v:val="VT0(12):26"/>
				<v:ud v:nameU="SubShapeType" v:prompt="开关" v:val="VT0(80):26"/>
			</v:userDefs>
			<title>开关</title>
			<g id="shape65-88" v:mID="65" v:groupContext="shape" v:layerMember="1;2">
				<title>工作表.65</title>
				<v:userDefs>
					<v:ud v:nameU="Type" v:val="VT0(4):26"/>
				</v:userDefs>
				<path d="M0.85 123.98 A1.67841 1.67841 0 0 1 0 122.52 A1.67841 1.67841 0 0 1 0.99 120.99 A1.67841 1.67841 0 0 1 2.51
							 121.06 A1.67841 1.67841 0 0 1 3.36 122.52 A1.67841 1.67841 0 0 1 0.85 123.98 Z" class="st6"/>
				<path d="M0.85 123.98 A1.67841 1.67841 0 0 1 0 122.52 A1.67841 1.67841 0 0 1 0.99 120.99 A1.67841 1.67841 0 0 1 2.51
							 121.06 A1.67841 1.67841 0 0 1 3.36 122.52 A1.67841 1.67841 0 0 1 0.85 123.98" class="st7"/>
				<path d="M2.51 121.06 L5.71 115.47" class="st7"/>
			</g>
		</g>
		<g id="shape66-92" v:mID="66" v:groupContext="shape" transform="translate(88.0937,-51.2289)">
			<title>工作表.66</title>
			<path d="M0 124.2 L25.79 124.2" class="st1"/>
		</g>
		<g id="shape67-95" v:mID="67" v:groupContext="shape" transform="translate(57.4795,-51.2178)">
			<title>工作表.67</title>
			<path d="M0 124.2 L24.66 124.2" class="st1"/>
		</g>
		<g id="group68-98" transform="translate(81.3161,-49.8563)" v:mID="68" v:groupContext="group" v:layerMember="1;2">
			<v:custProps>
				<v:cp v:nameU="SubType" v:lbl="开关类型" v:type="1" v:format="单刀;双刀;双路;多路开关;常规;中等" v:sortKey="01" v:invis="false"
						v:langID="2052" v:val="VT4(常规)"/>
				<v:cp v:nameU="ShapeClass" v:lbl="形状类" v:type="0" v:invis="true" v:langID="2052" v:val="VT4(建筑物组件)"/>
				<v:cp v:nameU="ShapeType" v:lbl="形状类型" v:type="0" v:invis="true" v:langID="2052" v:val="VT4(电气装置)"/>
				<v:cp v:nameU="SubShapeType" v:lbl="子形状类型" v:type="0" v:invis="true" v:langID="2052" v:val="VT4(开关)"/>
				<v:cp v:nameU="BaseElevation" v:lbl="基本标高" v:type="2" v:sortKey="02" v:invis="false" v:langID="2052"/>
			</v:custProps>
			<v:userDefs>
				<v:ud v:nameU="Type" v:val="VT0(4):26"/>
				<v:ud v:nameU="AntiScale" v:val="VT0(1):26"/>
				<v:ud v:nameU="HasText" v:val="VT0(0):5"/>
				<v:ud v:nameU="visVersion" v:val="VT0(15):26"/>
				<v:ud v:nameU="SolSH" v:val="VT4({5D50005D-537C-4738-9C46-130C74335A6D})"/>
				<v:ud v:nameU="ShapeClass" v:prompt="建筑物组件" v:val="VT0(3):26"/>
				<v:ud v:nameU="ShapeType" v:prompt="电气装置" v:val="VT0(12):26"/>
				<v:ud v:nameU="SubShapeType" v:prompt="开关" v:val="VT0(80):26"/>
			</v:userDefs>
			<title>开关.68</title>
			<g id="shape69-99" v:mID="69" v:groupContext="shape" v:layerMember="1;2">
				<title>工作表.69</title>
				<v:userDefs>
					<v:ud v:nameU="Type" v:val="VT0(4):26"/>
				</v:userDefs>
				<path d="M0.85 123.98 A1.67841 1.67841 0 0 1 0 122.52 A1.67841 1.67841 0 0 1 0.99 120.99 A1.67841 1.67841 0 0 1 2.51
							 121.06 A1.67841 1.67841 0 0 1 3.36 122.52 A1.67841 1.67841 0 0 1 0.85 123.98 Z" class="st6"/>
				<path d="M0.85 123.98 A1.67841 1.67841 0 0 1 0 122.52 A1.67841 1.67841 0 0 1 0.99 120.99 A1.67841 1.67841 0 0 1 2.51
							 121.06 A1.67841 1.67841 0 0 1 3.36 122.52 A1.67841 1.67841 0 0 1 0.85 123.98" class="st7"/>
				<path d="M2.51 121.06 L5.71 115.47" class="st7"/>
			</g>
		</g>
		<g id="shape72-103" v:mID="72" v:groupContext="shape" transform="translate(87.5715,-39.7805)">
			<title>工作表.72</title>
			<path d="M0 124.2 L25.79 124.2" class="st1"/>
		</g>
		<g id="shape73-106" v:mID="73" v:groupContext="shape" transform="translate(56.9574,-39.7694)">
			<title>工作表.73</title>
			<path d="M0 124.2 L24.66 124.2" class="st1"/>
		</g>
		<g id="group74-109" transform="translate(80.7939,-38.4079)" v:mID="74" v:groupContext="group" v:layerMember="1;2">
			<v:custProps>
				<v:cp v:nameU="SubType" v:lbl="开关类型" v:type="1" v:format="单刀;双刀;双路;多路开关;常规;中等" v:sortKey="01" v:invis="false"
						v:langID="2052" v:val="VT4(常规)"/>
				<v:cp v:nameU="ShapeClass" v:lbl="形状类" v:type="0" v:invis="true" v:langID="2052" v:val="VT4(建筑物组件)"/>
				<v:cp v:nameU="ShapeType" v:lbl="形状类型" v:type="0" v:invis="true" v:langID="2052" v:val="VT4(电气装置)"/>
				<v:cp v:nameU="SubShapeType" v:lbl="子形状类型" v:type="0" v:invis="true" v:langID="2052" v:val="VT4(开关)"/>
				<v:cp v:nameU="BaseElevation" v:lbl="基本标高" v:type="2" v:sortKey="02" v:invis="false" v:langID="2052"/>
			</v:custProps>
			<v:userDefs>
				<v:ud v:nameU="Type" v:val="VT0(4):26"/>
				<v:ud v:nameU="AntiScale" v:val="VT0(1):26"/>
				<v:ud v:nameU="HasText" v:val="VT0(0):5"/>
				<v:ud v:nameU="visVersion" v:val="VT0(15):26"/>
				<v:ud v:nameU="SolSH" v:val="VT4({5D50005D-537C-4738-9C46-130C74335A6D})"/>
				<v:ud v:nameU="ShapeClass" v:prompt="建筑物组件" v:val="VT0(3):26"/>
				<v:ud v:nameU="ShapeType" v:prompt="电气装置" v:val="VT0(12):26"/>
				<v:ud v:nameU="SubShapeType" v:prompt="开关" v:val="VT0(80):26"/>
			</v:userDefs>
			<title>开关.74</title>
			<g id="shape75-110" v:mID="75" v:groupContext="shape" v:layerMember="1;2">
				<title>工作表.75</title>
				<v:userDefs>
					<v:ud v:nameU="Type" v:val="VT0(4):26"/>
				</v:userDefs>
				<path d="M0.85 123.98 A1.67841 1.67841 0 0 1 0 122.52 A1.67841 1.67841 0 0 1 0.99 120.99 A1.67841 1.67841 0 0 1 2.51
							 121.06 A1.67841 1.67841 0 0 1 3.36 122.52 A1.67841 1.67841 0 0 1 0.85 123.98 Z" class="st6"/>
				<path d="M0.85 123.98 A1.67841 1.67841 0 0 1 0 122.52 A1.67841 1.67841 0 0 1 0.99 120.99 A1.67841 1.67841 0 0 1 2.51
							 121.06 A1.67841 1.67841 0 0 1 3.36 122.52 A1.67841 1.67841 0 0 1 0.85 123.98" class="st7"/>
				<path d="M2.51 121.06 L5.71 115.47" class="st7"/>
			</g>
		</g>
		<g id="shape76-114" v:mID="76" v:groupContext="shape" transform="translate(40.7551,-42.3994)">
			<title>工作表.76</title>
			<desc>...</desc>
			<v:textBlock v:margins="rect(4,4,4,4)" v:tabSpace="42.5197"/>
			<v:textRect cx="24.6614" cy="117.591" width="49.33" height="13.213"/>
			<rect x="0" y="110.984" width="49.3228" height="13.213" class="st2"/>
			<text x="21.63" y="119.99" class="st3" v:langID="2052"><v:paragraph v:horizAlign="1"/><v:tabList/>...</text>		</g>
		<g id="shape77-117" v:mID="77" v:groupContext="shape" transform="translate(41.322,-57.9031)">
			<title>工作表.77</title>
			<desc>CH0</desc>
			<v:textBlock v:margins="rect(4,4,4,4)" v:tabSpace="42.5197"/>
			<v:textRect cx="24.6614" cy="117.591" width="49.33" height="13.213"/>
			<rect x="0" y="110.984" width="49.3228" height="13.213" class="st2"/>
			<text x="19.67" y="119.39" class="st8" v:langID="2052"><v:paragraph v:horizAlign="1"/><v:tabList/>CH0</text>		</g>
		<g id="shape78-120" v:mID="78" v:groupContext="shape" transform="translate(41.322,-47.5017)">
			<title>工作表.78</title>
			<desc>CH1</desc>
			<v:textBlock v:margins="rect(4,4,4,4)" v:tabSpace="42.5197"/>
			<v:textRect cx="24.6614" cy="117.591" width="49.33" height="13.213"/>
			<rect x="0" y="110.984" width="49.3228" height="13.213" class="st2"/>
			<text x="19.67" y="119.39" class="st8" v:langID="2052"><v:paragraph v:horizAlign="1"/><v:tabList/>CH1</text>		</g>
		<g id="shape79-123" v:mID="79" v:groupContext="shape" transform="translate(41.322,-35.5962)">
			<title>工作表.79</title>
			<desc>CHx</desc>
			<v:textBlock v:margins="rect(4,4,4,4)" v:tabSpace="42.5197"/>
			<v:textRect cx="24.6614" cy="117.591" width="49.33" height="13.213"/>
			<rect x="0" y="110.984" width="49.3228" height="13.213" class="st2"/>
			<text x="19.89" y="119.39" class="st8" v:langID="2052"><v:paragraph v:horizAlign="1"/><v:tabList/>CHx</text>		</g>
	</g>
</svg>
