<?xml version="1.0" encoding="UTF-8" standalone="no"?>
<!DOCTYPE svg PUBLIC "-//W3C//DTD SVG 1.1//EN" "http://www.w3.org/Graphics/SVG/1.1/DTD/svg11.dtd">
<!-- 由 Microsoft Visio, SVG Export 生成 wifi_tunnel_nat.svg 页-1 -->
<svg xmlns="http://www.w3.org/2000/svg" xmlns:xlink="http://www.w3.org/1999/xlink" xmlns:ev="http://www.w3.org/2001/xml-events"
		xmlns:v="http://schemas.microsoft.com/visio/2003/SVGExtensions/" width="6.99514in" height="3.62136in"
		viewBox="0 0 503.65 260.738" xml:space="preserve" color-interpolation-filters="sRGB" class="st19">
	<v:documentProperties v:langID="2052" v:metric="true" v:viewMarkup="false"/>

	<style type="text/css">
	<![CDATA[
		.st1 {fill:#d8d8d8;stroke:#000000;stroke-linecap:round;stroke-linejoin:round;stroke-width:0.24}
		.st2 {fill:#000000;font-family:Calibri;font-size:0.666664em}
		.st3 {fill:#5b9bd5;stroke:#000000;stroke-width:0.24}
		.st4 {font-size:1em}
		.st5 {marker-end:url(#mrkr5-21);stroke:#000000;stroke-linecap:round;stroke-linejoin:round;stroke-width:0.75}
		.st6 {fill:#000000;fill-opacity:1;stroke:#000000;stroke-opacity:1;stroke-width:0.22935779816514}
		.st7 {fill:#9dbb61;stroke:#000000;stroke-width:0.24}
		.st8 {stroke:#000000;stroke-dasharray:0,7.5;stroke-linecap:round;stroke-linejoin:round;stroke-width:1.5}
		.st9 {fill:#ff0000;stroke:#000000;stroke-width:0.24}
		.st10 {marker-end:url(#mrkr5-160);stroke:#000000;stroke-linecap:round;stroke-linejoin:round;stroke-width:0.24}
		.st11 {fill:#000000;fill-opacity:1;stroke:#000000;stroke-opacity:1;stroke-width:0.08695652173913}
		.st12 {marker-end:url(#mrkr5-179);marker-start:url(#mrkr5-177);stroke:#000000;stroke-linecap:round;stroke-linejoin:round;stroke-width:2}
		.st13 {fill:#000000;fill-opacity:1;stroke:#000000;stroke-opacity:1;stroke-width:0.44247787610619}
		.st14 {fill:#f7cbac;stroke:#5b9bd5;stroke-width:0.25}
		.st15 {fill:#f7cbac;stroke:none;stroke-width:0.25}
		.st16 {fill:#000000;font-family:Calibri;font-size:0.666664em;font-weight:bold}
		.st17 {fill:#ea700d;stroke:#000000;stroke-width:0.24}
		.st18 {fill:none;stroke:none;stroke-linecap:round;stroke-linejoin:round;stroke-width:0.75}
		.st19 {fill:none;fill-rule:evenodd;font-size:12px;overflow:visible;stroke-linecap:square;stroke-miterlimit:3}
	]]>
	</style>

	<defs id="Markers">
		<g id="lend5">
			<path d="M 2 1 L 0 0 L 1.98117 -0.993387 C 1.67173 -0.364515 1.67301 0.372641 1.98465 1.00043 " style="stroke:none"/>
		</g>
		<marker id="mrkr5-21" class="st6" v:arrowType="5" v:arrowSize="2" v:setback="7.63" refX="-7.63" orient="auto"
				markerUnits="strokeWidth" overflow="visible">
			<use xlink:href="#lend5" transform="scale(-4.36,-4.36) "/>
		</marker>
		<marker id="mrkr5-160" class="st11" v:arrowType="5" v:arrowSize="2" v:setback="20.125" refX="-20.125" orient="auto"
				markerUnits="strokeWidth" overflow="visible">
			<use xlink:href="#lend5" transform="scale(-11.5,-11.5) "/>
		</marker>
		<marker id="mrkr5-177" class="st13" v:arrowType="5" v:arrowSize="2" v:setback="3.775" refX="3.775" orient="auto"
				markerUnits="strokeWidth" overflow="visible">
			<use xlink:href="#lend5" transform="scale(2.26) "/>
		</marker>
		<marker id="mrkr5-179" class="st13" v:arrowType="5" v:arrowSize="2" v:setback="3.955" refX="-3.955" orient="auto"
				markerUnits="strokeWidth" overflow="visible">
			<use xlink:href="#lend5" transform="scale(-2.26,-2.26) "/>
		</marker>
	</defs>
	<g v:mID="0" v:index="1" v:groupContext="foregroundPage">
		<title>页-1</title>
		<v:pageProperties v:drawingScale="0.0393701" v:pageScale="0.0393701" v:drawingUnits="24" v:shadowOffsetX="8.50394"
				v:shadowOffsetY="-8.50394"/>
		<v:layer v:name="流程图" v:index="0"/>
		<v:layer v:name="连接线" v:index="1"/>
		<g id="shape108-1" v:mID="108" v:groupContext="shape" v:layerMember="0" transform="translate(174.6,-0.12)">
			<title>流程.108</title>
			<desc>R-MESH-1</desc>
			<v:custProps>
				<v:cp v:nameU="Cost" v:lbl="成本" v:prompt="" v:type="7" v:format="@" v:sortKey="" v:invis="false" v:ask="false"
						v:langID="2052" v:cal="0"/>
				<v:cp v:nameU="ProcessNumber" v:lbl="进程编号" v:prompt="" v:type="2" v:format="" v:sortKey="" v:invis="false"
						v:ask="false" v:langID="2052" v:cal="0"/>
				<v:cp v:nameU="Owner" v:lbl="所有者" v:prompt="" v:type="0" v:format="" v:sortKey="" v:invis="false" v:ask="false"
						v:langID="2052" v:cal="0"/>
				<v:cp v:nameU="Function" v:lbl="函数" v:prompt="" v:type="0" v:format="" v:sortKey="" v:invis="false" v:ask="false"
						v:langID="2052" v:cal="0" v:val="VT4()"/>
				<v:cp v:nameU="StartDate" v:lbl="开始日期" v:prompt="" v:type="5" v:format="" v:sortKey="" v:invis="false"
						v:ask="false" v:langID="2052" v:cal="0"/>
				<v:cp v:nameU="EndDate" v:lbl="结束日期" v:prompt="" v:type="5" v:format="" v:sortKey="" v:invis="false" v:ask="false"
						v:langID="2052" v:cal="0"/>
				<v:cp v:nameU="Status" v:lbl="状态" v:prompt="" v:type="4" v:format=";未开始;进行中;已完成;已推迟;正在等待输入" v:sortKey=""
						v:invis="false" v:ask="false" v:langID="2052" v:cal="0" v:val="VT4()"/>
			</v:custProps>
			<v:userDefs>
				<v:ud v:nameU="visVersion" v:prompt="" v:val="VT0(15):26"/>
				<v:ud v:nameU="DefaultWidth" v:prompt="" v:val="VT0(0.98425196850394):24"/>
				<v:ud v:nameU="DefaultHeight" v:prompt="" v:val="VT0(0.59055118110236):24"/>
				<v:ud v:nameU="ResizeTxtHeight" v:prompt="" v:val="VT0(0.59055118110236):24"/>
			</v:userDefs>
			<v:textBlock v:margins="rect(2,2,2,2)" v:tabSpace="42.5197" v:verticalAlign="0"/>
			<v:textRect cx="77.0947" cy="202.273" width="154.19" height="116.929"/>
			<rect x="0" y="143.809" width="154.189" height="116.929" class="st1"/>
			<text x="2" y="153.01" class="st2" v:langID="2052"><v:paragraph/><v:tabList/>R-MESH-1</text>		</g>
		<g id="shape109-4" v:mID="109" v:groupContext="shape" v:layerMember="1;0" transform="translate(198.695,-46.183)">
			<title>页面内引用.109</title>
			<desc>Root1-0</desc>
			<v:userDefs>
				<v:ud v:nameU="visVersion" v:prompt="" v:val="VT0(15):26"/>
			</v:userDefs>
			<v:textBlock v:margins="rect(2,2,2,2)" v:tabSpace="42.5197"/>
			<v:textRect cx="11.3386" cy="249.399" width="22.68" height="22.6772"/>
			<path d="M0 249.4 A11.3386 11.3386 0 1 1 22.68 249.4 A11.3386 11.3386 0 0 1 0 249.4 Z" class="st3"/>
			<text x="3.61" y="247" class="st2" v:langID="2052"><v:paragraph v:horizAlign="1"/><v:tabList/>Root<tspan x="6.06"
						dy="1.2em" class="st4">1</tspan>-0</text>		</g>
		<g id="shape110-8" v:mID="110" v:groupContext="shape" v:layerMember="1;0" transform="translate(232.561,-46.183)">
			<title>页面内引用.110</title>
			<desc>Root1-1</desc>
			<v:userDefs>
				<v:ud v:nameU="visVersion" v:prompt="" v:val="VT0(15):26"/>
			</v:userDefs>
			<v:textBlock v:margins="rect(2,2,2,2)" v:tabSpace="42.5197"/>
			<v:textRect cx="11.3386" cy="249.399" width="22.68" height="22.6772"/>
			<path d="M0 249.4 A11.3386 11.3386 0 1 1 22.68 249.4 A11.3386 11.3386 0 0 1 0 249.4 Z" class="st3"/>
			<text x="3.61" y="247" class="st2" v:langID="2052"><v:paragraph v:horizAlign="1"/><v:tabList/>Root<tspan x="6.06"
						dy="1.2em" class="st4">1</tspan>-1</text>		</g>
		<g id="shape111-12" v:mID="111" v:groupContext="shape" v:layerMember="1;0" transform="translate(286.27,-46.183)">
			<title>页面内引用.111</title>
			<desc>Root1-N</desc>
			<v:userDefs>
				<v:ud v:nameU="visVersion" v:prompt="" v:val="VT0(15):26"/>
			</v:userDefs>
			<v:textBlock v:margins="rect(2,2,2,2)" v:tabSpace="42.5197"/>
			<v:textRect cx="11.3386" cy="249.399" width="22.68" height="22.6772"/>
			<path d="M0 249.4 A11.3386 11.3386 0 1 1 22.68 249.4 A11.3386 11.3386 0 0 1 0 249.4 Z" class="st3"/>
			<text x="3.61" y="247" class="st2" v:langID="2052"><v:paragraph v:horizAlign="1"/><v:tabList/>Root<tspan x="5.5"
						dy="1.2em" class="st4">1</tspan>-N</text>		</g>
		<g id="shape113-16" v:mID="113" v:groupContext="shape" transform="translate(48.3131,-12.6482) rotate(-38.3337)">
			<title>工作表.113</title>
			<path d="M0 260.74 L39.36 260.74" class="st5"/>
		</g>
		<g id="shape114-22" v:mID="114" v:groupContext="shape" transform="translate(151.59,407.893) rotate(-145.943)">
			<title>工作表.114</title>
			<path d="M0 260.74 L43.6 260.74" class="st5"/>
		</g>
		<g id="shape115-27" v:mID="115" v:groupContext="shape" transform="translate(-6.61608,119.586) rotate(-73.9033)">
			<title>工作表.115</title>
			<path d="M0 260.74 L22.39 260.74" class="st5"/>
		</g>
		<g id="shape116-32" v:mID="116" v:groupContext="shape" v:layerMember="1;0" transform="translate(182.209,-5.78929)">
			<title>页面内引用.116</title>
			<desc>Sta 1-0</desc>
			<v:userDefs>
				<v:ud v:nameU="visVersion" v:prompt="" v:val="VT0(15):26"/>
				<v:ud v:nameU="msvThemeColors" v:val="VT0(254):26"/>
			</v:userDefs>
			<v:textBlock v:margins="rect(2,2,2,2)" v:tabSpace="42.5197"/>
			<v:textRect cx="11.3386" cy="249.399" width="22.68" height="22.6772"/>
			<path d="M0 249.4 A11.3386 11.3386 0 0 1 22.68 249.4 A11.3386 11.3386 0 1 1 0 249.4 Z" class="st7"/>
			<text x="6.24" y="247" class="st2" v:langID="2052"><v:paragraph v:horizAlign="1"/><v:tabList/>Sta<v:newlineChar/><tspan
						x="6.06" dy="1.2em" class="st4">1</tspan>-0</text>		</g>
		<g id="shape117-36" v:mID="117" v:groupContext="shape" v:layerMember="1;0" transform="translate(217.642,-5.78929)">
			<title>页面内引用.117</title>
			<desc>Sta 1-1</desc>
			<v:userDefs>
				<v:ud v:nameU="visVersion" v:prompt="" v:val="VT0(15):26"/>
				<v:ud v:nameU="msvThemeColors" v:val="VT0(254):26"/>
			</v:userDefs>
			<v:textBlock v:margins="rect(2,2,2,2)" v:tabSpace="42.5197"/>
			<v:textRect cx="11.3386" cy="249.399" width="22.68" height="22.6772"/>
			<path d="M0 249.4 A11.3386 11.3386 0 0 1 22.68 249.4 A11.3386 11.3386 0 1 1 0 249.4 Z" class="st7"/>
			<text x="6.24" y="247" class="st2" v:langID="2052"><v:paragraph v:horizAlign="1"/><v:tabList/>Sta<v:newlineChar/><tspan
						x="6.06" dy="1.2em" class="st4">1</tspan>-1</text>		</g>
		<g id="shape118-40" v:mID="118" v:groupContext="shape" v:layerMember="1;0" transform="translate(253.075,-5.78929)">
			<title>页面内引用.118</title>
			<desc>Sta 1-2</desc>
			<v:userDefs>
				<v:ud v:nameU="visVersion" v:prompt="" v:val="VT0(15):26"/>
				<v:ud v:nameU="msvThemeColors" v:val="VT0(254):26"/>
			</v:userDefs>
			<v:textBlock v:margins="rect(2,2,2,2)" v:tabSpace="42.5197"/>
			<v:textRect cx="11.3386" cy="249.399" width="22.68" height="22.6772"/>
			<path d="M0 249.4 A11.3386 11.3386 0 0 1 22.68 249.4 A11.3386 11.3386 0 1 1 0 249.4 Z" class="st7"/>
			<text x="6.24" y="247" class="st2" v:langID="2052"><v:paragraph v:horizAlign="1"/><v:tabList/>Sta<v:newlineChar/><tspan
						x="6.06" dy="1.2em" class="st4">1</tspan>-2</text>		</g>
		<g id="shape119-44" v:mID="119" v:groupContext="shape" v:layerMember="1;0" transform="translate(300.443,-5.78929)">
			<title>页面内引用.119</title>
			<desc>Sta 1-N</desc>
			<v:userDefs>
				<v:ud v:nameU="visVersion" v:prompt="" v:val="VT0(15):26"/>
				<v:ud v:nameU="msvThemeColors" v:val="VT0(254):26"/>
			</v:userDefs>
			<v:textBlock v:margins="rect(2,2,2,2)" v:tabSpace="42.5197"/>
			<v:textRect cx="11.3386" cy="249.399" width="22.68" height="22.6772"/>
			<path d="M0 249.4 A11.3386 11.3386 0 0 1 22.68 249.4 A11.3386 11.3386 0 1 1 0 249.4 Z" class="st7"/>
			<text x="6.24" y="247" class="st2" v:langID="2052"><v:paragraph v:horizAlign="1"/><v:tabList/>Sta<v:newlineChar/><tspan
						x="5.5" dy="1.2em" class="st4">1</tspan>-N</text>		</g>
		<g id="shape120-48" v:mID="120" v:groupContext="shape" transform="translate(280.191,-17.1279)">
			<title>工作表.120</title>
			<path d="M0 260.74 L17.01 260.74" class="st8"/>
		</g>
		<g id="shape122-51" v:mID="122" v:groupContext="shape" v:layerMember="0" transform="translate(349.341,-0.12)">
			<title>流程.122</title>
			<desc>R-MESH-M</desc>
			<v:custProps>
				<v:cp v:nameU="Cost" v:lbl="成本" v:prompt="" v:type="7" v:format="@" v:sortKey="" v:invis="false" v:ask="false"
						v:langID="2052" v:cal="0"/>
				<v:cp v:nameU="ProcessNumber" v:lbl="进程编号" v:prompt="" v:type="2" v:format="" v:sortKey="" v:invis="false"
						v:ask="false" v:langID="2052" v:cal="0"/>
				<v:cp v:nameU="Owner" v:lbl="所有者" v:prompt="" v:type="0" v:format="" v:sortKey="" v:invis="false" v:ask="false"
						v:langID="2052" v:cal="0"/>
				<v:cp v:nameU="Function" v:lbl="函数" v:prompt="" v:type="0" v:format="" v:sortKey="" v:invis="false" v:ask="false"
						v:langID="2052" v:cal="0" v:val="VT4()"/>
				<v:cp v:nameU="StartDate" v:lbl="开始日期" v:prompt="" v:type="5" v:format="" v:sortKey="" v:invis="false"
						v:ask="false" v:langID="2052" v:cal="0"/>
				<v:cp v:nameU="EndDate" v:lbl="结束日期" v:prompt="" v:type="5" v:format="" v:sortKey="" v:invis="false" v:ask="false"
						v:langID="2052" v:cal="0"/>
				<v:cp v:nameU="Status" v:lbl="状态" v:prompt="" v:type="4" v:format=";未开始;进行中;已完成;已推迟;正在等待输入" v:sortKey=""
						v:invis="false" v:ask="false" v:langID="2052" v:cal="0" v:val="VT4()"/>
			</v:custProps>
			<v:userDefs>
				<v:ud v:nameU="visVersion" v:prompt="" v:val="VT0(15):26"/>
				<v:ud v:nameU="DefaultWidth" v:prompt="" v:val="VT0(0.98425196850394):24"/>
				<v:ud v:nameU="DefaultHeight" v:prompt="" v:val="VT0(0.59055118110236):24"/>
				<v:ud v:nameU="ResizeTxtHeight" v:prompt="" v:val="VT0(0.59055118110236):24"/>
			</v:userDefs>
			<v:textBlock v:margins="rect(2,2,2,2)" v:tabSpace="42.5197" v:verticalAlign="0"/>
			<v:textRect cx="77.0947" cy="202.273" width="154.19" height="116.929"/>
			<rect x="0" y="143.809" width="154.189" height="116.929" class="st1"/>
			<text x="2" y="153.01" class="st2" v:langID="2052"><v:paragraph/><v:tabList/>R-MESH-M</text>		</g>
		<g id="shape123-54" v:mID="123" v:groupContext="shape" v:layerMember="1;0" transform="translate(373.435,-46.183)">
			<title>页面内引用.123</title>
			<desc>Rootm-0</desc>
			<v:userDefs>
				<v:ud v:nameU="visVersion" v:prompt="" v:val="VT0(15):26"/>
			</v:userDefs>
			<v:textBlock v:margins="rect(2,2,2,2)" v:tabSpace="42.5197"/>
			<v:textRect cx="11.3386" cy="249.399" width="22.68" height="22.6772"/>
			<path d="M0 249.4 A11.3386 11.3386 0 1 1 22.68 249.4 A11.3386 11.3386 0 0 1 0 249.4 Z" class="st3"/>
			<text x="3.61" y="247" class="st2" v:langID="2052"><v:paragraph v:horizAlign="1"/><v:tabList/>Root<tspan x="4.89"
						dy="1.2em" class="st4">m</tspan>-0</text>		</g>
		<g id="shape124-58" v:mID="124" v:groupContext="shape" v:layerMember="1;0" transform="translate(407.302,-46.183)">
			<title>页面内引用.124</title>
			<desc>Rootm-1</desc>
			<v:userDefs>
				<v:ud v:nameU="visVersion" v:prompt="" v:val="VT0(15):26"/>
			</v:userDefs>
			<v:textBlock v:margins="rect(2,2,2,2)" v:tabSpace="42.5197"/>
			<v:textRect cx="11.3386" cy="249.399" width="22.68" height="22.6772"/>
			<path d="M0 249.4 A11.3386 11.3386 0 1 1 22.68 249.4 A11.3386 11.3386 0 0 1 0 249.4 Z" class="st3"/>
			<text x="3.61" y="247" class="st2" v:langID="2052"><v:paragraph v:horizAlign="1"/><v:tabList/>Root<tspan x="4.89"
						dy="1.2em" class="st4">m</tspan>-1</text>		</g>
		<g id="shape125-62" v:mID="125" v:groupContext="shape" v:layerMember="1;0" transform="translate(461.011,-46.183)">
			<title>页面内引用.125</title>
			<desc>Rootm-N</desc>
			<v:userDefs>
				<v:ud v:nameU="visVersion" v:prompt="" v:val="VT0(15):26"/>
			</v:userDefs>
			<v:textBlock v:margins="rect(2,2,2,2)" v:tabSpace="42.5197"/>
			<v:textRect cx="11.3386" cy="249.399" width="22.68" height="22.6772"/>
			<path d="M0 249.4 A11.3386 11.3386 0 1 1 22.68 249.4 A11.3386 11.3386 0 0 1 0 249.4 Z" class="st3"/>
			<text x="3.61" y="247" class="st2" v:langID="2052"><v:paragraph v:horizAlign="1"/><v:tabList/>Root<tspan x="4.34"
						dy="1.2em" class="st4">m</tspan>-N</text>		</g>
		<g id="shape127-66" v:mID="127" v:groupContext="shape" transform="translate(226.948,-15.6678) rotate(-37.2509)">
			<title>工作表.127</title>
			<path d="M0 260.74 L39.67 260.74" class="st5"/>
		</g>
		<g id="shape128-71" v:mID="128" v:groupContext="shape" transform="translate(328.348,409.244) rotate(-146.476)">
			<title>工作表.128</title>
			<path d="M0 260.74 L43.67 260.74" class="st5"/>
		</g>
		<g id="shape129-76" v:mID="129" v:groupContext="shape" transform="translate(168.318,118.92) rotate(-73.7511)">
			<title>工作表.129</title>
			<path d="M0 260.74 L22.14 260.74" class="st5"/>
		</g>
		<g id="shape130-81" v:mID="130" v:groupContext="shape" v:layerMember="1;0" transform="translate(356.949,-5.78929)">
			<title>页面内引用.130</title>
			<desc>Sta m-0</desc>
			<v:userDefs>
				<v:ud v:nameU="visVersion" v:prompt="" v:val="VT0(15):26"/>
				<v:ud v:nameU="msvThemeColors" v:val="VT0(254):26"/>
			</v:userDefs>
			<v:textBlock v:margins="rect(2,2,2,2)" v:tabSpace="42.5197"/>
			<v:textRect cx="11.3386" cy="249.399" width="22.68" height="22.6772"/>
			<path d="M0 249.4 A11.3386 11.3386 0 0 1 22.68 249.4 A11.3386 11.3386 0 1 1 0 249.4 Z" class="st7"/>
			<text x="6.24" y="247" class="st2" v:langID="2052"><v:paragraph v:horizAlign="1"/><v:tabList/>Sta<v:newlineChar/><tspan
						x="4.89" dy="1.2em" class="st4">m</tspan>-0</text>		</g>
		<g id="shape131-85" v:mID="131" v:groupContext="shape" v:layerMember="1;0" transform="translate(392.382,-5.78929)">
			<title>页面内引用.131</title>
			<desc>Sta m-1</desc>
			<v:userDefs>
				<v:ud v:nameU="visVersion" v:prompt="" v:val="VT0(15):26"/>
				<v:ud v:nameU="msvThemeColors" v:val="VT0(254):26"/>
			</v:userDefs>
			<v:textBlock v:margins="rect(2,2,2,2)" v:tabSpace="42.5197"/>
			<v:textRect cx="11.3386" cy="249.399" width="22.68" height="22.6772"/>
			<path d="M0 249.4 A11.3386 11.3386 0 0 1 22.68 249.4 A11.3386 11.3386 0 1 1 0 249.4 Z" class="st7"/>
			<text x="6.24" y="247" class="st2" v:langID="2052"><v:paragraph v:horizAlign="1"/><v:tabList/>Sta<v:newlineChar/><tspan
						x="4.89" dy="1.2em" class="st4">m</tspan>-1</text>		</g>
		<g id="shape132-89" v:mID="132" v:groupContext="shape" v:layerMember="1;0" transform="translate(427.815,-5.78929)">
			<title>页面内引用.132</title>
			<desc>Sta m-2</desc>
			<v:userDefs>
				<v:ud v:nameU="visVersion" v:prompt="" v:val="VT0(15):26"/>
				<v:ud v:nameU="msvThemeColors" v:val="VT0(254):26"/>
			</v:userDefs>
			<v:textBlock v:margins="rect(2,2,2,2)" v:tabSpace="42.5197"/>
			<v:textRect cx="11.3386" cy="249.399" width="22.68" height="22.6772"/>
			<path d="M0 249.4 A11.3386 11.3386 0 0 1 22.68 249.4 A11.3386 11.3386 0 1 1 0 249.4 Z" class="st7"/>
			<text x="6.24" y="247" class="st2" v:langID="2052"><v:paragraph v:horizAlign="1"/><v:tabList/>Sta<v:newlineChar/><tspan
						x="4.89" dy="1.2em" class="st4">m</tspan>-2</text>		</g>
		<g id="shape133-93" v:mID="133" v:groupContext="shape" v:layerMember="1;0" transform="translate(475.184,-5.78929)">
			<title>页面内引用.133</title>
			<desc>Sta m-N</desc>
			<v:userDefs>
				<v:ud v:nameU="visVersion" v:prompt="" v:val="VT0(15):26"/>
				<v:ud v:nameU="msvThemeColors" v:val="VT0(254):26"/>
			</v:userDefs>
			<v:textBlock v:margins="rect(2,2,2,2)" v:tabSpace="42.5197"/>
			<v:textRect cx="11.3386" cy="249.399" width="22.68" height="22.6772"/>
			<path d="M0 249.4 A11.3386 11.3386 0 0 1 22.68 249.4 A11.3386 11.3386 0 1 1 0 249.4 Z" class="st7"/>
			<text x="6.24" y="247" class="st2" v:langID="2052"><v:paragraph v:horizAlign="1"/><v:tabList/>Sta<v:newlineChar/><tspan
						x="4.34" dy="1.2em" class="st4">m</tspan>-N</text>		</g>
		<g id="shape134-97" v:mID="134" v:groupContext="shape" transform="translate(454.931,-17.1279)">
			<title>工作表.134</title>
			<path d="M0 260.74 L17.01 260.74" class="st8"/>
		</g>
		<g id="shape105-100" v:mID="105" v:groupContext="shape" v:layerMember="0" transform="translate(0.12,-0.12)">
			<title>流程</title>
			<desc>R-MESH-0</desc>
			<v:custProps>
				<v:cp v:nameU="Cost" v:lbl="成本" v:prompt="" v:type="7" v:format="@" v:sortKey="" v:invis="false" v:ask="false"
						v:langID="2052" v:cal="0"/>
				<v:cp v:nameU="ProcessNumber" v:lbl="进程编号" v:prompt="" v:type="2" v:format="" v:sortKey="" v:invis="false"
						v:ask="false" v:langID="2052" v:cal="0"/>
				<v:cp v:nameU="Owner" v:lbl="所有者" v:prompt="" v:type="0" v:format="" v:sortKey="" v:invis="false" v:ask="false"
						v:langID="2052" v:cal="0"/>
				<v:cp v:nameU="Function" v:lbl="函数" v:prompt="" v:type="0" v:format="" v:sortKey="" v:invis="false" v:ask="false"
						v:langID="2052" v:cal="0" v:val="VT4()"/>
				<v:cp v:nameU="StartDate" v:lbl="开始日期" v:prompt="" v:type="5" v:format="" v:sortKey="" v:invis="false"
						v:ask="false" v:langID="2052" v:cal="0"/>
				<v:cp v:nameU="EndDate" v:lbl="结束日期" v:prompt="" v:type="5" v:format="" v:sortKey="" v:invis="false" v:ask="false"
						v:langID="2052" v:cal="0"/>
				<v:cp v:nameU="Status" v:lbl="状态" v:prompt="" v:type="4" v:format=";未开始;进行中;已完成;已推迟;正在等待输入" v:sortKey=""
						v:invis="false" v:ask="false" v:langID="2052" v:cal="0" v:val="VT4()"/>
			</v:custProps>
			<v:userDefs>
				<v:ud v:nameU="visVersion" v:prompt="" v:val="VT0(15):26"/>
				<v:ud v:nameU="DefaultWidth" v:prompt="" v:val="VT0(0.98425196850394):24"/>
				<v:ud v:nameU="DefaultHeight" v:prompt="" v:val="VT0(0.59055118110236):24"/>
				<v:ud v:nameU="ResizeTxtHeight" v:prompt="" v:val="VT0(0.59055118110236):24"/>
			</v:userDefs>
			<v:textBlock v:margins="rect(2,2,2,2)" v:tabSpace="42.5197" v:verticalAlign="0"/>
			<v:textRect cx="77.0947" cy="202.273" width="154.19" height="116.929"/>
			<rect x="0" y="143.809" width="154.189" height="116.929" class="st1"/>
			<text x="2" y="153.01" class="st2" v:langID="2052"><v:paragraph/><v:tabList/>R-MESH-0</text>		</g>
		<g id="shape76-103" v:mID="76" v:groupContext="shape" v:layerMember="1;0" transform="translate(24.2145,-46.183)">
			<title>页面内引用.57</title>
			<desc>Root0-0</desc>
			<v:userDefs>
				<v:ud v:nameU="visVersion" v:prompt="" v:val="VT0(15):26"/>
			</v:userDefs>
			<v:textBlock v:margins="rect(2,2,2,2)" v:tabSpace="42.5197"/>
			<v:textRect cx="11.3386" cy="249.399" width="22.68" height="22.6772"/>
			<path d="M0 249.4 A11.3386 11.3386 0 1 1 22.68 249.4 A11.3386 11.3386 0 0 1 0 249.4 Z" class="st3"/>
			<text x="3.61" y="247" class="st2" v:langID="2052"><v:paragraph v:horizAlign="1"/><v:tabList/>Root<tspan x="6.06"
						dy="1.2em" class="st4">0</tspan>-0</text>		</g>
		<g id="shape85-107" v:mID="85" v:groupContext="shape" v:layerMember="1;0" transform="translate(58.0809,-46.183)">
			<title>页面内引用.85</title>
			<desc>Root0-1</desc>
			<v:userDefs>
				<v:ud v:nameU="visVersion" v:prompt="" v:val="VT0(15):26"/>
			</v:userDefs>
			<v:textBlock v:margins="rect(2,2,2,2)" v:tabSpace="42.5197"/>
			<v:textRect cx="11.3386" cy="249.399" width="22.68" height="22.6772"/>
			<path d="M0 249.4 A11.3386 11.3386 0 1 1 22.68 249.4 A11.3386 11.3386 0 0 1 0 249.4 Z" class="st3"/>
			<text x="3.61" y="247" class="st2" v:langID="2052"><v:paragraph v:horizAlign="1"/><v:tabList/>Root<tspan x="6.06"
						dy="1.2em" class="st4">0</tspan>-1</text>		</g>
		<g id="shape86-111" v:mID="86" v:groupContext="shape" v:layerMember="1;0" transform="translate(111.79,-46.183)">
			<title>页面内引用.86</title>
			<desc>Root0-N</desc>
			<v:userDefs>
				<v:ud v:nameU="visVersion" v:prompt="" v:val="VT0(15):26"/>
			</v:userDefs>
			<v:textBlock v:margins="rect(2,2,2,2)" v:tabSpace="42.5197"/>
			<v:textRect cx="11.3386" cy="249.399" width="22.68" height="22.6772"/>
			<path d="M0 249.4 A11.3386 11.3386 0 1 1 22.68 249.4 A11.3386 11.3386 0 0 1 0 249.4 Z" class="st3"/>
			<text x="3.61" y="247" class="st2" v:langID="2052"><v:paragraph v:horizAlign="1"/><v:tabList/>Root<tspan x="5.5"
						dy="1.2em" class="st4">0</tspan>-N</text>		</g>
		<g id="shape87-115" v:mID="87" v:groupContext="shape" transform="translate(88.4582,-57.5216)">
			<title>工作表.87</title>
			<path d="M0 260.74 L17.01 260.74" class="st8"/>
		</g>
		<g id="shape88-118" v:mID="88" v:groupContext="shape" transform="translate(-126.246,-12.5856) rotate(-38.3559)">
			<title>工作表.88</title>
			<path d="M0 260.74 L39.59 260.74" class="st5"/>
		</g>
		<g id="shape89-123" v:mID="89" v:groupContext="shape" transform="translate(-25.4649,406.13) rotate(-145.257)">
			<title>工作表.89</title>
			<path d="M0 260.74 L42.87 260.74" class="st5"/>
		</g>
		<g id="shape90-128" v:mID="90" v:groupContext="shape" transform="translate(-179.441,114.079) rotate(-72.6397)">
			<title>工作表.90</title>
			<path d="M0 260.74 L22.58 260.74" class="st5"/>
		</g>
		<g id="shape91-133" v:mID="91" v:groupContext="shape" v:layerMember="1;0" transform="translate(7.72848,-5.78929)">
			<title>页面内引用.91</title>
			<desc>Sta 0-0</desc>
			<v:userDefs>
				<v:ud v:nameU="visVersion" v:prompt="" v:val="VT0(15):26"/>
				<v:ud v:nameU="msvThemeColors" v:val="VT0(254):26"/>
			</v:userDefs>
			<v:textBlock v:margins="rect(2,2,2,2)" v:tabSpace="42.5197"/>
			<v:textRect cx="11.3386" cy="249.399" width="22.68" height="22.6772"/>
			<path d="M0 249.4 A11.3386 11.3386 0 0 1 22.68 249.4 A11.3386 11.3386 0 1 1 0 249.4 Z" class="st7"/>
			<text x="6.24" y="247" class="st2" v:langID="2052"><v:paragraph v:horizAlign="1"/><v:tabList/>Sta<v:newlineChar/><tspan
						x="6.06" dy="1.2em" class="st4">0</tspan>-0</text>		</g>
		<g id="shape92-137" v:mID="92" v:groupContext="shape" v:layerMember="1;0" transform="translate(43.1615,-5.78929)">
			<title>页面内引用.92</title>
			<desc>Sta 0-1</desc>
			<v:userDefs>
				<v:ud v:nameU="visVersion" v:prompt="" v:val="VT0(15):26"/>
				<v:ud v:nameU="msvThemeColors" v:val="VT0(254):26"/>
			</v:userDefs>
			<v:textBlock v:margins="rect(2,2,2,2)" v:tabSpace="42.5197"/>
			<v:textRect cx="11.3386" cy="249.399" width="22.68" height="22.6772"/>
			<path d="M0 249.4 A11.3386 11.3386 0 0 1 22.68 249.4 A11.3386 11.3386 0 1 1 0 249.4 Z" class="st7"/>
			<text x="6.24" y="247" class="st2" v:langID="2052"><v:paragraph v:horizAlign="1"/><v:tabList/>Sta<v:newlineChar/><tspan
						x="6.06" dy="1.2em" class="st4">0</tspan>-1</text>		</g>
		<g id="shape93-141" v:mID="93" v:groupContext="shape" v:layerMember="1;0" transform="translate(78.5946,-5.78929)">
			<title>页面内引用.93</title>
			<desc>Sta 0-2</desc>
			<v:userDefs>
				<v:ud v:nameU="visVersion" v:prompt="" v:val="VT0(15):26"/>
				<v:ud v:nameU="msvThemeColors" v:val="VT0(254):26"/>
			</v:userDefs>
			<v:textBlock v:margins="rect(2,2,2,2)" v:tabSpace="42.5197"/>
			<v:textRect cx="11.3386" cy="249.399" width="22.68" height="22.6772"/>
			<path d="M0 249.4 A11.3386 11.3386 0 0 1 22.68 249.4 A11.3386 11.3386 0 1 1 0 249.4 Z" class="st7"/>
			<text x="6.24" y="247" class="st2" v:langID="2052"><v:paragraph v:horizAlign="1"/><v:tabList/>Sta<v:newlineChar/><tspan
						x="6.06" dy="1.2em" class="st4">0</tspan>-2</text>		</g>
		<g id="shape94-145" v:mID="94" v:groupContext="shape" v:layerMember="1;0" transform="translate(125.963,-5.78929)">
			<title>页面内引用.94</title>
			<desc>Sta 0-N</desc>
			<v:userDefs>
				<v:ud v:nameU="visVersion" v:prompt="" v:val="VT0(15):26"/>
				<v:ud v:nameU="msvThemeColors" v:val="VT0(254):26"/>
			</v:userDefs>
			<v:textBlock v:margins="rect(2,2,2,2)" v:tabSpace="42.5197"/>
			<v:textRect cx="11.3386" cy="249.399" width="22.68" height="22.6772"/>
			<path d="M0 249.4 A11.3386 11.3386 0 0 1 22.68 249.4 A11.3386 11.3386 0 1 1 0 249.4 Z" class="st7"/>
			<text x="6.24" y="247" class="st2" v:langID="2052"><v:paragraph v:horizAlign="1"/><v:tabList/>Sta<v:newlineChar/><tspan
						x="5.5" dy="1.2em" class="st4">0</tspan>-N</text>		</g>
		<g id="shape98-149" v:mID="98" v:groupContext="shape" transform="translate(105.711,-17.1279)">
			<title>工作表.98</title>
			<path d="M0 260.74 L17.01 260.74" class="st8"/>
		</g>
		<g id="shape1-152" v:mID="1" v:groupContext="shape" v:layerMember="1;0" transform="translate(234.687,-151.772)">
			<title>页面内引用.45</title>
			<desc>AP</desc>
			<v:userDefs>
				<v:ud v:nameU="visVersion" v:prompt="" v:val="VT0(15):26"/>
				<v:ud v:nameU="msvThemeColors" v:val="VT0(254):26"/>
			</v:userDefs>
			<v:textBlock v:margins="rect(2,2,2,2)" v:tabSpace="42.5197"/>
			<v:textRect cx="17.0079" cy="243.73" width="34.02" height="34.0157"/>
			<path d="M0 243.73 A17.0079 17.0079 0 0 1 34.02 243.73 A17.0079 17.0079 0 1 1 -0 243.73 Z" class="st9"/>
			<text x="12.63" y="246.13" class="st2" v:langID="2052"><v:paragraph v:horizAlign="1"/><v:tabList/>AP</text>		</g>
		<g id="shape11-155" v:mID="11" v:groupContext="shape" transform="translate(27.8458,-133.283) rotate(-11.0599)">
			<title>工作表.11</title>
			<v:userDefs>
				<v:ud v:nameU="msvThemeColors" v:val="VT0(254):26"/>
			</v:userDefs>
			<path d="M0 260.74 L154.96 260.74" class="st10"/>
		</g>
		<g id="shape23-161" v:mID="23" v:groupContext="shape" transform="translate(-9.04296,122.612) rotate(-90)">
			<title>工作表.23</title>
			<path d="M0 260.74 L8.82 260.74" class="st10"/>
		</g>
		<g id="shape33-166" v:mID="33" v:groupContext="shape" transform="translate(376.695,378.561) rotate(-169.002)">
			<title>工作表.33</title>
			<path d="M0 260.74 L155.85 260.74" class="st10"/>
		</g>
		<g id="shape42-171" v:mID="42" v:groupContext="shape" transform="translate(512.433,45.7323) rotate(90)">
			<title>工作表.42</title>
			<v:userDefs>
				<v:ud v:nameU="msvThemeColors" v:val="VT0(254):26"/>
			</v:userDefs>
			<path d="M7.55 260.74 L7.91 260.74 L21.31 260.74" class="st12"/>
		</g>
		<g id="group43-180" transform="translate(214.108,-202.056)" v:mID="43" v:groupContext="group">
			<title>工作表.43</title>
			<g id="group44-181" v:mID="44" v:groupContext="group">
				<v:custProps>
					<v:cp v:nameU="ShapeClass" v:lbl="ShapeClass" v:prompt="" v:type="0" v:format="" v:sortKey="" v:invis="true"
							v:ask="false" v:langID="2052" v:cal="0" v:val="VT4(位置)"/>
					<v:cp v:nameU="ShapeType" v:lbl="ShapeType" v:prompt="" v:type="0" v:format="" v:sortKey="" v:invis="true"
							v:ask="false" v:langID="2052" v:cal="0" v:val="VT4(云)"/>
				</v:custProps>
				<v:userDefs>
					<v:ud v:nameU="visVersion" v:prompt="" v:val="VT0(15):26"/>
					<v:ud v:nameU="ShapeClass" v:prompt="" v:val="VT0(5):26"/>
					<v:ud v:nameU="SolSH" v:prompt="" v:val="VT15({BF0433D9-CD73-4EB5-8390-8653BE590246}):41"/>
					<v:ud v:nameU="visLegendShape" v:prompt="" v:val="VT0(2):26"/>
					<v:ud v:nameU="msvThemeColors" v:val="VT0(254):26"/>
				</v:userDefs>
				<title>云形</title>
				<g id="shape45-182" v:mID="45" v:groupContext="shape" transform="translate(0,-12.5192)">
					<title>工作表.45</title>
					<v:userDefs>
						<v:ud v:nameU="msvThemeColors" v:val="VT0(254):26"/>
					</v:userDefs>
					<path d="M64.86 236.26 C64.45 233.49 61.22 231.32 57.26 231.32 C56.13 231.32 55.07 231.5 54.11 231.81 C52.24
								 229.09 48.38 227.09 41.13 227.26 C31.71 227.47 20.55 230.77 18.31 236.65 C15.63 237.05 13.9 238.18
								 12.87 239.7 C12.45 239.66 12.03 239.64 11.59 239.64 C5.39 239.64 0.62 243.18 0.35 247.53 C0 253.16
								 5.39 255.41 11.59 255.41 C12.48 255.41 13.33 255.33 14.16 255.19 C15.45 255.85 17.13 256.25 18.97
								 256.25 C20.68 256.25 22.24 255.91 23.49 255.33 C25.88 258.51 30.79 260.74 36.44 260.48 C42.4 260.21
								 45.98 259.22 48.09 257.68 C48.22 257.67 48.34 257.67 48.48 257.66 C55.14 256.99 58.07 255.65 59.01
								 253.43 C59.18 253.43 59.36 253.44 59.54 253.44 C68.18 253.44 75.17 251.47 75.17 244.57 C75.17 240.74
								 70.86 237.5 64.86 236.26 Z" class="st14"/>
				</g>
			</g>
			<g id="shape46-184" v:mID="46" v:groupContext="shape" transform="translate(19.5451,-24.3725)">
				<title>工作表.46</title>
				<desc>Internet</desc>
				<v:userDefs>
					<v:ud v:nameU="msvThemeColors" v:val="VT0(254):26"/>
				</v:userDefs>
				<v:textBlock v:margins="rect(2,2,2,2)" v:tabSpace="42.5197"/>
				<v:textRect cx="18.0416" cy="255.769" width="36.09" height="9.93677"/>
				<rect x="0" y="250.801" width="36.0832" height="9.93677" class="st15"/>
				<text x="4.46" y="258.17" class="st16" v:langID="2052"><v:paragraph v:horizAlign="1"/><v:tabList/>Internet</text>			</g>
		</g>
		<g id="shape32-187" v:mID="32" v:groupContext="shape" v:layerMember="1;0" transform="translate(405.176,-95.6064)">
			<title>页面内引用.76</title>
			<desc>R-NAT</desc>
			<v:userDefs>
				<v:ud v:nameU="visVersion" v:prompt="" v:val="VT0(15):26"/>
			</v:userDefs>
			<v:textBlock v:margins="rect(2,2,2,2)" v:tabSpace="42.5197"/>
			<v:textRect cx="21.2598" cy="239.478" width="42.52" height="42.5197"/>
			<path d="M0 239.48 A21.2598 21.2598 0 0 1 42.52 239.48 A21.2598 21.2598 0 0 1 0 239.48 Z" class="st17"/>
			<text x="11.02" y="241.88" class="st2" v:langID="2052"><v:paragraph v:horizAlign="1"/><v:tabList/>R-NAT</text>		</g>
		<g id="shape54-190" v:mID="54" v:groupContext="shape" transform="translate(414.383,-124.394)">
			<title>工作表.54</title>
			<desc>STA</desc>
			<v:textBlock v:margins="rect(4,4,4,4)" v:tabSpace="42.5197"/>
			<v:textRect cx="12.0528" cy="256.486" width="24.11" height="8.50394"/>
			<rect x="0" y="252.234" width="24.1056" height="8.50394" class="st18"/>
			<text x="5.95" y="258.89" class="st2" v:langID="2052"><v:paragraph v:horizAlign="1"/><v:tabList/>STA</text>		</g>
		<g id="shape55-193" v:mID="55" v:groupContext="shape" transform="translate(405.176,-101.008)">
			<title>工作表.55</title>
			<desc>SoftAPm</desc>
			<v:textBlock v:margins="rect(4,4,4,4)" v:tabSpace="42.5197"/>
			<v:textRect cx="21.2598" cy="256.486" width="42.52" height="8.50394"/>
			<rect x="0" y="252.234" width="42.5197" height="8.50394" class="st18"/>
			<text x="7.18" y="258.89" class="st2" v:langID="2052"><v:paragraph v:horizAlign="1"/><v:tabList/>SoftAPm</text>		</g>
		<g id="shape12-196" v:mID="12" v:groupContext="shape" v:layerMember="1;0" transform="translate(230.435,-95.8734)">
			<title>页面内引用.56</title>
			<desc>R-NAT</desc>
			<v:userDefs>
				<v:ud v:nameU="visVersion" v:prompt="" v:val="VT0(15):26"/>
			</v:userDefs>
			<v:textBlock v:margins="rect(2,2,2,2)" v:tabSpace="42.5197"/>
			<v:textRect cx="21.2598" cy="239.611" width="42.52" height="42.2527"/>
			<path d="M0 239.61 A21.2598 21.1263 0 0 1 42.52 239.61 A21.2598 21.1263 0 1 1 0 239.61 Z" class="st17"/>
			<text x="11.02" y="242.01" class="st2" v:langID="2052"><v:paragraph v:horizAlign="1"/><v:tabList/>R-NAT</text>		</g>
		<g id="shape52-199" v:mID="52" v:groupContext="shape" transform="translate(239.642,-124.394)">
			<title>工作表.52</title>
			<desc>STA</desc>
			<v:textBlock v:margins="rect(4,4,4,4)" v:tabSpace="42.5197"/>
			<v:textRect cx="12.0528" cy="256.486" width="24.11" height="8.50394"/>
			<rect x="0" y="252.234" width="24.1056" height="8.50394" class="st18"/>
			<text x="5.95" y="258.89" class="st2" v:langID="2052"><v:paragraph v:horizAlign="1"/><v:tabList/>STA</text>		</g>
		<g id="shape53-202" v:mID="53" v:groupContext="shape" transform="translate(230.435,-100.964)">
			<title>工作表.53</title>
			<desc>SoftAP1</desc>
			<v:textBlock v:margins="rect(4,4,4,4)" v:tabSpace="42.5197"/>
			<v:textRect cx="21.2598" cy="256.486" width="42.52" height="8.50394"/>
			<rect x="0" y="252.234" width="42.5197" height="8.50394" class="st18"/>
			<text x="8.34" y="258.89" class="st2" v:langID="2052"><v:paragraph v:horizAlign="1"/><v:tabList/>SoftAP1</text>		</g>
		<g id="shape140-205" v:mID="140" v:groupContext="shape" v:layerMember="1;0" transform="translate(56.6045,-95.8734)">
			<title>页面内引用.140</title>
			<desc>R-NAT</desc>
			<v:userDefs>
				<v:ud v:nameU="visVersion" v:prompt="" v:val="VT0(15):26"/>
			</v:userDefs>
			<v:textBlock v:margins="rect(2,2,2,2)" v:tabSpace="42.5197"/>
			<v:textRect cx="21.2598" cy="239.611" width="42.52" height="42.2527"/>
			<path d="M0 239.61 A21.2598 21.1263 0 0 1 42.52 239.61 A21.2598 21.1263 0 1 1 0 239.61 Z" class="st17"/>
			<text x="11.02" y="242.01" class="st2" v:langID="2052"><v:paragraph v:horizAlign="1"/><v:tabList/>R-NAT</text>		</g>
		<g id="shape141-208" v:mID="141" v:groupContext="shape" transform="translate(65.8115,-124.394)">
			<title>工作表.141</title>
			<desc>STA</desc>
			<v:textBlock v:margins="rect(4,4,4,4)" v:tabSpace="42.5197"/>
			<v:textRect cx="12.0528" cy="256.486" width="24.11" height="8.50394"/>
			<rect x="0" y="252.234" width="24.1056" height="8.50394" class="st18"/>
			<text x="5.95" y="258.89" class="st2" v:langID="2052"><v:paragraph v:horizAlign="1"/><v:tabList/>STA</text>		</g>
		<g id="shape142-211" v:mID="142" v:groupContext="shape" transform="translate(56.6045,-100.964)">
			<title>工作表.142</title>
			<desc>SoftAP1</desc>
			<v:textBlock v:margins="rect(4,4,4,4)" v:tabSpace="42.5197"/>
			<v:textRect cx="21.2598" cy="256.486" width="42.52" height="8.50394"/>
			<rect x="0" y="252.234" width="42.5197" height="8.50394" class="st18"/>
			<text x="8.34" y="258.89" class="st2" v:langID="2052"><v:paragraph v:horizAlign="1"/><v:tabList/>SoftAP1</text>		</g>
		<g id="shape143-214" v:mID="143" v:groupContext="shape" transform="translate(263.236,-57.5216)">
			<title>工作表.143</title>
			<path d="M0 260.74 L17.01 260.74" class="st8"/>
		</g>
		<g id="shape144-217" v:mID="144" v:groupContext="shape" transform="translate(438.632,-57.5216)">
			<title>工作表.144</title>
			<path d="M0 260.74 L17.01 260.74" class="st8"/>
		</g>
	</g>
</svg>
