<?xml version="1.0" encoding="UTF-8" standalone="no"?>
<!DOCTYPE svg PUBLIC "-//W3C//DTD SVG 1.1//EN" "http://www.w3.org/Graphics/SVG/1.1/DTD/svg11.dtd">
<!-- 由 Microsoft Visio, SVG Export 生成 r-nat.svg 页-1 -->
<svg xmlns="http://www.w3.org/2000/svg" xmlns:xlink="http://www.w3.org/1999/xlink" xmlns:ev="http://www.w3.org/2001/xml-events"
		xmlns:v="http://schemas.microsoft.com/visio/2003/SVGExtensions/" width="6.99514in" height="3.73947in"
		viewBox="0 0 503.65 269.242" xml:space="preserve" color-interpolation-filters="sRGB" class="st18">
	<v:documentProperties v:langID="2052" v:metric="true" v:viewMarkup="false"/>

	<style type="text/css">
	<![CDATA[
		.st1 {fill:#d8d8d8;stroke:#000000;stroke-linecap:round;stroke-linejoin:round;stroke-width:0.24}
		.st2 {fill:#000000;font-family:Calibri;font-size:0.666664em}
		.st3 {fill:#5b9bd5;stroke:#000000;stroke-width:0.24}
		.st4 {font-size:1em}
		.st5 {stroke:#000000;stroke-dasharray:0,3.75;stroke-linecap:round;stroke-linejoin:round;stroke-width:0.75}
		.st6 {marker-end:url(#mrkr5-25);stroke:#000000;stroke-linecap:round;stroke-linejoin:round;stroke-width:0.75}
		.st7 {fill:#000000;fill-opacity:1;stroke:#000000;stroke-opacity:1;stroke-width:0.22935779816514}
		.st8 {fill:#9dbb61;stroke:#000000;stroke-width:0.24}
		.st9 {fill:#ff0000;stroke:#000000;stroke-width:0.24}
		.st10 {marker-end:url(#mrkr5-169);stroke:#000000;stroke-linecap:round;stroke-linejoin:round;stroke-width:0.24}
		.st11 {fill:#000000;fill-opacity:1;stroke:#000000;stroke-opacity:1;stroke-width:0.08695652173913}
		.st12 {marker-end:url(#mrkr5-188);marker-start:url(#mrkr5-186);stroke:#000000;stroke-linecap:round;stroke-linejoin:round;stroke-width:2}
		.st13 {fill:#000000;fill-opacity:1;stroke:#000000;stroke-opacity:1;stroke-width:0.44247787610619}
		.st14 {fill:#f7cbac;stroke:#5b9bd5;stroke-width:0.25}
		.st15 {fill:#f7cbac;stroke:none;stroke-width:0.25}
		.st16 {fill:#ea700d;stroke:#000000;stroke-width:0.24}
		.st17 {fill:none;stroke:none;stroke-linecap:round;stroke-linejoin:round;stroke-width:0.75}
		.st18 {fill:none;fill-rule:evenodd;font-size:12px;overflow:visible;stroke-linecap:square;stroke-miterlimit:3}
	]]>
	</style>

	<defs id="Markers">
		<g id="lend5">
			<path d="M 2 1 L 0 0 L 1.98117 -0.993387 C 1.67173 -0.364515 1.67301 0.372641 1.98465 1.00043 " style="stroke:none"/>
		</g>
		<marker id="mrkr5-25" class="st7" v:arrowType="5" v:arrowSize="2" v:setback="7.63" refX="-7.63" orient="auto"
				markerUnits="strokeWidth" overflow="visible">
			<use xlink:href="#lend5" transform="scale(-4.36,-4.36) "/>
		</marker>
		<marker id="mrkr5-169" class="st11" v:arrowType="5" v:arrowSize="2" v:setback="20.125" refX="-20.125" orient="auto"
				markerUnits="strokeWidth" overflow="visible">
			<use xlink:href="#lend5" transform="scale(-11.5,-11.5) "/>
		</marker>
		<marker id="mrkr5-186" class="st13" v:arrowType="5" v:arrowSize="2" v:setback="3.775" refX="3.775" orient="auto"
				markerUnits="strokeWidth" overflow="visible">
			<use xlink:href="#lend5" transform="scale(2.26) "/>
		</marker>
		<marker id="mrkr5-188" class="st13" v:arrowType="5" v:arrowSize="2" v:setback="3.955" refX="-3.955" orient="auto"
				markerUnits="strokeWidth" overflow="visible">
			<use xlink:href="#lend5" transform="scale(-2.26,-2.26) "/>
		</marker>
	</defs>
	<g v:mID="0" v:index="1" v:groupContext="foregroundPage">
		<title>页-1</title>
		<v:pageProperties v:drawingScale="0.0393701" v:pageScale="0.0393701" v:drawingUnits="24" v:shadowOffsetX="8.50394"
				v:shadowOffsetY="-8.50394"/>
		<v:layer v:name="流程图" v:index="0"/>
		<v:layer v:name="连接线" v:index="1"/>
		<g id="group107-1" transform="translate(174.6,-0.12)" v:mID="107" v:groupContext="group">
			<title>工作表.107</title>
			<g id="shape108-2" v:mID="108" v:groupContext="shape" v:layerMember="0">
				<title>流程</title>
				<desc>R-MESH-1</desc>
				<v:custProps>
					<v:cp v:nameU="Cost" v:lbl="成本" v:prompt="" v:type="7" v:format="@" v:sortKey="" v:invis="false" v:ask="false"
							v:langID="2052" v:cal="0"/>
					<v:cp v:nameU="ProcessNumber" v:lbl="进程编号" v:prompt="" v:type="2" v:format="" v:sortKey="" v:invis="false"
							v:ask="false" v:langID="2052" v:cal="0"/>
					<v:cp v:nameU="Owner" v:lbl="所有者" v:prompt="" v:type="0" v:format="" v:sortKey="" v:invis="false" v:ask="false"
							v:langID="2052" v:cal="0"/>
					<v:cp v:nameU="Function" v:lbl="函数" v:prompt="" v:type="0" v:format="" v:sortKey="" v:invis="false"
							v:ask="false" v:langID="2052" v:cal="0" v:val="VT4()"/>
					<v:cp v:nameU="StartDate" v:lbl="开始日期" v:prompt="" v:type="5" v:format="" v:sortKey="" v:invis="false"
							v:ask="false" v:langID="2052" v:cal="0"/>
					<v:cp v:nameU="EndDate" v:lbl="结束日期" v:prompt="" v:type="5" v:format="" v:sortKey="" v:invis="false"
							v:ask="false" v:langID="2052" v:cal="0"/>
					<v:cp v:nameU="Status" v:lbl="状态" v:prompt="" v:type="4" v:format=";未开始;进行中;已完成;已推迟;正在等待输入" v:sortKey=""
							v:invis="false" v:ask="false" v:langID="2052" v:cal="0" v:val="VT4()"/>
				</v:custProps>
				<v:userDefs>
					<v:ud v:nameU="visVersion" v:prompt="" v:val="VT0(15):26"/>
					<v:ud v:nameU="DefaultWidth" v:prompt="" v:val="VT0(0.98425196850394):24"/>
					<v:ud v:nameU="DefaultHeight" v:prompt="" v:val="VT0(0.59055118110236):24"/>
					<v:ud v:nameU="ResizeTxtHeight" v:prompt="" v:val="VT0(0.59055118110236):24"/>
				</v:userDefs>
				<v:textBlock v:margins="rect(2,2,2,2)" v:tabSpace="42.5197" v:verticalAlign="0"/>
				<v:textRect cx="77.0947" cy="208.297" width="154.19" height="121.89"/>
				<rect x="0" y="147.352" width="154.189" height="121.89" class="st1"/>
				<text x="2" y="156.55" class="st2" v:langID="2052"><v:paragraph/><v:tabList/>R-MESH-1</text>			</g>
			<g id="shape109-5" v:mID="109" v:groupContext="shape" v:layerMember="1;0" transform="translate(24.0945,-51.0236)">
				<title>页面内引用.57</title>
				<desc>Root1-0</desc>
				<v:userDefs>
					<v:ud v:nameU="visVersion" v:prompt="" v:val="VT0(15):26"/>
				</v:userDefs>
				<v:textBlock v:margins="rect(2,2,2,2)" v:tabSpace="42.5197"/>
				<v:textRect cx="11.3386" cy="257.903" width="22.68" height="22.6772"/>
				<path d="M0 257.9 A11.3386 11.3386 0 1 1 22.68 257.9 A11.3386 11.3386 0 0 1 0 257.9 Z" class="st3"/>
				<text x="3.61" y="255.5" class="st2" v:langID="2052"><v:paragraph v:horizAlign="1"/><v:tabList/>Root<tspan x="6.06"
							dy="1.2em" class="st4">1</tspan>-0</text>			</g>
			<g id="shape110-9" v:mID="110" v:groupContext="shape" v:layerMember="1;0" transform="translate(57.9609,-51.0236)">
				<title>页面内引用.85</title>
				<desc>Root1-1</desc>
				<v:userDefs>
					<v:ud v:nameU="visVersion" v:prompt="" v:val="VT0(15):26"/>
				</v:userDefs>
				<v:textBlock v:margins="rect(2,2,2,2)" v:tabSpace="42.5197"/>
				<v:textRect cx="11.3386" cy="257.903" width="22.68" height="22.6772"/>
				<path d="M0 257.9 A11.3386 11.3386 0 1 1 22.68 257.9 A11.3386 11.3386 0 0 1 0 257.9 Z" class="st3"/>
				<text x="3.61" y="255.5" class="st2" v:langID="2052"><v:paragraph v:horizAlign="1"/><v:tabList/>Root<tspan x="6.06"
							dy="1.2em" class="st4">1</tspan>-1</text>			</g>
			<g id="shape111-13" v:mID="111" v:groupContext="shape" v:layerMember="1;0" transform="translate(111.67,-51.0236)">
				<title>页面内引用.86</title>
				<desc>Root1-N</desc>
				<v:userDefs>
					<v:ud v:nameU="visVersion" v:prompt="" v:val="VT0(15):26"/>
				</v:userDefs>
				<v:textBlock v:margins="rect(2,2,2,2)" v:tabSpace="42.5197"/>
				<v:textRect cx="11.3386" cy="257.903" width="22.68" height="22.6772"/>
				<path d="M0 257.9 A11.3386 11.3386 0 1 1 22.68 257.9 A11.3386 11.3386 0 0 1 0 257.9 Z" class="st3"/>
				<text x="3.61" y="255.5" class="st2" v:langID="2052"><v:paragraph v:horizAlign="1"/><v:tabList/>Root<tspan x="5.5"
							dy="1.2em" class="st4">1</tspan>-N</text>			</g>
			<g id="shape112-17" v:mID="112" v:groupContext="shape" transform="translate(80.6381,-62.3622)">
				<title>工作表.112</title>
				<path d="M0 269.24 L31.03 269.24" class="st5"/>
			</g>
			<g id="shape113-20" v:mID="113" v:groupContext="shape" transform="translate(-117.737,-25.8866) rotate(-34.6731)">
				<title>工作表.113</title>
				<path d="M0 269.24 L47.52 269.24" class="st6"/>
			</g>
			<g id="shape114-26" v:mID="114" v:groupContext="shape" transform="translate(-30.1613,416.968) rotate(-145.327)">
				<title>工作表.114</title>
				<path d="M0 269.24 L47.52 269.24" class="st6"/>
			</g>
			<g id="shape115-31" v:mID="115" v:groupContext="shape" transform="translate(-186.566,111.733) rotate(-71.8639)">
				<title>工作表.115</title>
				<path d="M0 269.24 L26.15 269.24" class="st6"/>
			</g>
			<g id="shape116-36" v:mID="116" v:groupContext="shape" v:layerMember="1;0" transform="translate(7.60848,-2.83465)">
				<title>页面内引用.91</title>
				<desc>Sta 1-0</desc>
				<v:userDefs>
					<v:ud v:nameU="visVersion" v:prompt="" v:val="VT0(15):26"/>
					<v:ud v:nameU="msvThemeColors" v:val="VT0(254):26"/>
				</v:userDefs>
				<v:textBlock v:margins="rect(2,2,2,2)" v:tabSpace="42.5197"/>
				<v:textRect cx="11.3386" cy="257.903" width="22.68" height="22.6772"/>
				<path d="M0 257.9 A11.3386 11.3386 0 0 1 22.68 257.9 A11.3386 11.3386 0 1 1 0 257.9 Z" class="st8"/>
				<text x="6.24" y="255.5" class="st2" v:langID="2052"><v:paragraph v:horizAlign="1"/><v:tabList/>Sta<v:newlineChar/><tspan
							x="6.06" dy="1.2em" class="st4">1</tspan>-0</text>			</g>
			<g id="shape117-40" v:mID="117" v:groupContext="shape" v:layerMember="1;0" transform="translate(43.0415,-2.83465)">
				<title>页面内引用.92</title>
				<desc>Sta 1-1</desc>
				<v:userDefs>
					<v:ud v:nameU="visVersion" v:prompt="" v:val="VT0(15):26"/>
					<v:ud v:nameU="msvThemeColors" v:val="VT0(254):26"/>
				</v:userDefs>
				<v:textBlock v:margins="rect(2,2,2,2)" v:tabSpace="42.5197"/>
				<v:textRect cx="11.3386" cy="257.903" width="22.68" height="22.6772"/>
				<path d="M0 257.9 A11.3386 11.3386 0 0 1 22.68 257.9 A11.3386 11.3386 0 1 1 0 257.9 Z" class="st8"/>
				<text x="6.24" y="255.5" class="st2" v:langID="2052"><v:paragraph v:horizAlign="1"/><v:tabList/>Sta<v:newlineChar/><tspan
							x="6.06" dy="1.2em" class="st4">1</tspan>-1</text>			</g>
			<g id="shape118-44" v:mID="118" v:groupContext="shape" v:layerMember="1;0" transform="translate(78.4746,-1.9431)">
				<title>页面内引用.93</title>
				<desc>Sta 1-2</desc>
				<v:userDefs>
					<v:ud v:nameU="visVersion" v:prompt="" v:val="VT0(15):26"/>
					<v:ud v:nameU="msvThemeColors" v:val="VT0(254):26"/>
				</v:userDefs>
				<v:textBlock v:margins="rect(2,2,2,2)" v:tabSpace="42.5197"/>
				<v:textRect cx="11.3386" cy="257.903" width="22.68" height="22.6772"/>
				<path d="M0 257.9 A11.3386 11.3386 0 0 1 22.68 257.9 A11.3386 11.3386 0 1 1 0 257.9 Z" class="st8"/>
				<text x="6.24" y="255.5" class="st2" v:langID="2052"><v:paragraph v:horizAlign="1"/><v:tabList/>Sta<v:newlineChar/><tspan
							x="6.06" dy="1.2em" class="st4">1</tspan>-2</text>			</g>
			<g id="shape119-48" v:mID="119" v:groupContext="shape" v:layerMember="1;0" transform="translate(125.843,-1.9431)">
				<title>页面内引用.94</title>
				<desc>Sta 1-N</desc>
				<v:userDefs>
					<v:ud v:nameU="visVersion" v:prompt="" v:val="VT0(15):26"/>
					<v:ud v:nameU="msvThemeColors" v:val="VT0(254):26"/>
				</v:userDefs>
				<v:textBlock v:margins="rect(2,2,2,2)" v:tabSpace="42.5197"/>
				<v:textRect cx="11.3386" cy="257.903" width="22.68" height="22.6772"/>
				<path d="M0 257.9 A11.3386 11.3386 0 0 1 22.68 257.9 A11.3386 11.3386 0 1 1 0 257.9 Z" class="st8"/>
				<text x="6.24" y="255.5" class="st2" v:langID="2052"><v:paragraph v:horizAlign="1"/><v:tabList/>Sta<v:newlineChar/><tspan
							x="5.5" dy="1.2em" class="st4">1</tspan>-N</text>			</g>
			<g id="shape120-52" v:mID="120" v:groupContext="shape" transform="translate(101.152,-13.2817)">
				<title>工作表.120</title>
				<path d="M0 269.24 L24.69 269.24" class="st5"/>
			</g>
		</g>
		<g id="group121-55" transform="translate(349.341,-0.12)" v:mID="121" v:groupContext="group">
			<title>工作表.121</title>
			<g id="shape122-56" v:mID="122" v:groupContext="shape" v:layerMember="0">
				<title>流程</title>
				<desc>R-MESH-M</desc>
				<v:custProps>
					<v:cp v:nameU="Cost" v:lbl="成本" v:prompt="" v:type="7" v:format="@" v:sortKey="" v:invis="false" v:ask="false"
							v:langID="2052" v:cal="0"/>
					<v:cp v:nameU="ProcessNumber" v:lbl="进程编号" v:prompt="" v:type="2" v:format="" v:sortKey="" v:invis="false"
							v:ask="false" v:langID="2052" v:cal="0"/>
					<v:cp v:nameU="Owner" v:lbl="所有者" v:prompt="" v:type="0" v:format="" v:sortKey="" v:invis="false" v:ask="false"
							v:langID="2052" v:cal="0"/>
					<v:cp v:nameU="Function" v:lbl="函数" v:prompt="" v:type="0" v:format="" v:sortKey="" v:invis="false"
							v:ask="false" v:langID="2052" v:cal="0" v:val="VT4()"/>
					<v:cp v:nameU="StartDate" v:lbl="开始日期" v:prompt="" v:type="5" v:format="" v:sortKey="" v:invis="false"
							v:ask="false" v:langID="2052" v:cal="0"/>
					<v:cp v:nameU="EndDate" v:lbl="结束日期" v:prompt="" v:type="5" v:format="" v:sortKey="" v:invis="false"
							v:ask="false" v:langID="2052" v:cal="0"/>
					<v:cp v:nameU="Status" v:lbl="状态" v:prompt="" v:type="4" v:format=";未开始;进行中;已完成;已推迟;正在等待输入" v:sortKey=""
							v:invis="false" v:ask="false" v:langID="2052" v:cal="0" v:val="VT4()"/>
				</v:custProps>
				<v:userDefs>
					<v:ud v:nameU="visVersion" v:prompt="" v:val="VT0(15):26"/>
					<v:ud v:nameU="DefaultWidth" v:prompt="" v:val="VT0(0.98425196850394):24"/>
					<v:ud v:nameU="DefaultHeight" v:prompt="" v:val="VT0(0.59055118110236):24"/>
					<v:ud v:nameU="ResizeTxtHeight" v:prompt="" v:val="VT0(0.59055118110236):24"/>
				</v:userDefs>
				<v:textBlock v:margins="rect(2,2,2,2)" v:tabSpace="42.5197" v:verticalAlign="0"/>
				<v:textRect cx="77.0947" cy="208.297" width="154.19" height="121.89"/>
				<rect x="0" y="147.352" width="154.189" height="121.89" class="st1"/>
				<text x="2" y="156.55" class="st2" v:langID="2052"><v:paragraph/><v:tabList/>R-MESH-M</text>			</g>
			<g id="shape123-59" v:mID="123" v:groupContext="shape" v:layerMember="1;0" transform="translate(24.0945,-51.0236)">
				<title>页面内引用.57</title>
				<desc>Rootm-0</desc>
				<v:userDefs>
					<v:ud v:nameU="visVersion" v:prompt="" v:val="VT0(15):26"/>
				</v:userDefs>
				<v:textBlock v:margins="rect(2,2,2,2)" v:tabSpace="42.5197"/>
				<v:textRect cx="11.3386" cy="257.903" width="22.68" height="22.6772"/>
				<path d="M0 257.9 A11.3386 11.3386 0 1 1 22.68 257.9 A11.3386 11.3386 0 0 1 0 257.9 Z" class="st3"/>
				<text x="3.61" y="255.5" class="st2" v:langID="2052"><v:paragraph v:horizAlign="1"/><v:tabList/>Root<tspan x="4.89"
							dy="1.2em" class="st4">m</tspan>-0</text>			</g>
			<g id="shape124-63" v:mID="124" v:groupContext="shape" v:layerMember="1;0" transform="translate(57.9609,-51.0236)">
				<title>页面内引用.85</title>
				<desc>Rootm-1</desc>
				<v:userDefs>
					<v:ud v:nameU="visVersion" v:prompt="" v:val="VT0(15):26"/>
				</v:userDefs>
				<v:textBlock v:margins="rect(2,2,2,2)" v:tabSpace="42.5197"/>
				<v:textRect cx="11.3386" cy="257.903" width="22.68" height="22.6772"/>
				<path d="M0 257.9 A11.3386 11.3386 0 1 1 22.68 257.9 A11.3386 11.3386 0 0 1 0 257.9 Z" class="st3"/>
				<text x="3.61" y="255.5" class="st2" v:langID="2052"><v:paragraph v:horizAlign="1"/><v:tabList/>Root<tspan x="4.89"
							dy="1.2em" class="st4">m</tspan>-1</text>			</g>
			<g id="shape125-67" v:mID="125" v:groupContext="shape" v:layerMember="1;0" transform="translate(111.67,-51.0236)">
				<title>页面内引用.86</title>
				<desc>Rootm-N</desc>
				<v:userDefs>
					<v:ud v:nameU="visVersion" v:prompt="" v:val="VT0(15):26"/>
				</v:userDefs>
				<v:textBlock v:margins="rect(2,2,2,2)" v:tabSpace="42.5197"/>
				<v:textRect cx="11.3386" cy="257.903" width="22.68" height="22.6772"/>
				<path d="M0 257.9 A11.3386 11.3386 0 1 1 22.68 257.9 A11.3386 11.3386 0 0 1 0 257.9 Z" class="st3"/>
				<text x="3.61" y="255.5" class="st2" v:langID="2052"><v:paragraph v:horizAlign="1"/><v:tabList/>Root<tspan x="4.34"
							dy="1.2em" class="st4">m</tspan>-N</text>			</g>
			<g id="shape126-71" v:mID="126" v:groupContext="shape" transform="translate(80.6381,-62.3622)">
				<title>工作表.126</title>
				<path d="M0 269.24 L31.03 269.24" class="st5"/>
			</g>
			<g id="shape127-74" v:mID="127" v:groupContext="shape" transform="translate(-117.737,-25.8866) rotate(-34.6731)">
				<title>工作表.127</title>
				<path d="M0 269.24 L47.52 269.24" class="st6"/>
			</g>
			<g id="shape128-79" v:mID="128" v:groupContext="shape" transform="translate(-30.1613,416.968) rotate(-145.327)">
				<title>工作表.128</title>
				<path d="M0 269.24 L47.52 269.24" class="st6"/>
			</g>
			<g id="shape129-84" v:mID="129" v:groupContext="shape" transform="translate(-186.566,111.733) rotate(-71.8639)">
				<title>工作表.129</title>
				<path d="M0 269.24 L26.15 269.24" class="st6"/>
			</g>
			<g id="shape130-89" v:mID="130" v:groupContext="shape" v:layerMember="1;0" transform="translate(7.60848,-2.83465)">
				<title>页面内引用.91</title>
				<desc>Sta m-0</desc>
				<v:userDefs>
					<v:ud v:nameU="visVersion" v:prompt="" v:val="VT0(15):26"/>
					<v:ud v:nameU="msvThemeColors" v:val="VT0(254):26"/>
				</v:userDefs>
				<v:textBlock v:margins="rect(2,2,2,2)" v:tabSpace="42.5197"/>
				<v:textRect cx="11.3386" cy="257.903" width="22.68" height="22.6772"/>
				<path d="M0 257.9 A11.3386 11.3386 0 0 1 22.68 257.9 A11.3386 11.3386 0 1 1 0 257.9 Z" class="st8"/>
				<text x="6.24" y="255.5" class="st2" v:langID="2052"><v:paragraph v:horizAlign="1"/><v:tabList/>Sta<v:newlineChar/><tspan
							x="4.89" dy="1.2em" class="st4">m</tspan>-0</text>			</g>
			<g id="shape131-93" v:mID="131" v:groupContext="shape" v:layerMember="1;0" transform="translate(43.0415,-2.83465)">
				<title>页面内引用.92</title>
				<desc>Sta m-1</desc>
				<v:userDefs>
					<v:ud v:nameU="visVersion" v:prompt="" v:val="VT0(15):26"/>
					<v:ud v:nameU="msvThemeColors" v:val="VT0(254):26"/>
				</v:userDefs>
				<v:textBlock v:margins="rect(2,2,2,2)" v:tabSpace="42.5197"/>
				<v:textRect cx="11.3386" cy="257.903" width="22.68" height="22.6772"/>
				<path d="M0 257.9 A11.3386 11.3386 0 0 1 22.68 257.9 A11.3386 11.3386 0 1 1 0 257.9 Z" class="st8"/>
				<text x="6.24" y="255.5" class="st2" v:langID="2052"><v:paragraph v:horizAlign="1"/><v:tabList/>Sta<v:newlineChar/><tspan
							x="4.89" dy="1.2em" class="st4">m</tspan>-1</text>			</g>
			<g id="shape132-97" v:mID="132" v:groupContext="shape" v:layerMember="1;0" transform="translate(78.4746,-1.9431)">
				<title>页面内引用.93</title>
				<desc>Sta m-2</desc>
				<v:userDefs>
					<v:ud v:nameU="visVersion" v:prompt="" v:val="VT0(15):26"/>
					<v:ud v:nameU="msvThemeColors" v:val="VT0(254):26"/>
				</v:userDefs>
				<v:textBlock v:margins="rect(2,2,2,2)" v:tabSpace="42.5197"/>
				<v:textRect cx="11.3386" cy="257.903" width="22.68" height="22.6772"/>
				<path d="M0 257.9 A11.3386 11.3386 0 0 1 22.68 257.9 A11.3386 11.3386 0 1 1 0 257.9 Z" class="st8"/>
				<text x="6.24" y="255.5" class="st2" v:langID="2052"><v:paragraph v:horizAlign="1"/><v:tabList/>Sta<v:newlineChar/><tspan
							x="4.89" dy="1.2em" class="st4">m</tspan>-2</text>			</g>
			<g id="shape133-101" v:mID="133" v:groupContext="shape" v:layerMember="1;0" transform="translate(125.843,-1.9431)">
				<title>页面内引用.94</title>
				<desc>Sta m-N</desc>
				<v:userDefs>
					<v:ud v:nameU="visVersion" v:prompt="" v:val="VT0(15):26"/>
					<v:ud v:nameU="msvThemeColors" v:val="VT0(254):26"/>
				</v:userDefs>
				<v:textBlock v:margins="rect(2,2,2,2)" v:tabSpace="42.5197"/>
				<v:textRect cx="11.3386" cy="257.903" width="22.68" height="22.6772"/>
				<path d="M0 257.9 A11.3386 11.3386 0 0 1 22.68 257.9 A11.3386 11.3386 0 1 1 0 257.9 Z" class="st8"/>
				<text x="6.24" y="255.5" class="st2" v:langID="2052"><v:paragraph v:horizAlign="1"/><v:tabList/>Sta<v:newlineChar/><tspan
							x="4.34" dy="1.2em" class="st4">m</tspan>-N</text>			</g>
			<g id="shape134-105" v:mID="134" v:groupContext="shape" transform="translate(101.152,-13.2817)">
				<title>工作表.134</title>
				<path d="M0 269.24 L24.69 269.24" class="st5"/>
			</g>
		</g>
		<g id="group106-108" transform="translate(0.12,-0.12)" v:mID="106" v:groupContext="group">
			<title>工作表.106</title>
			<g id="shape105-109" v:mID="105" v:groupContext="shape" v:layerMember="0">
				<title>流程</title>
				<desc>R-MESH-0</desc>
				<v:custProps>
					<v:cp v:nameU="Cost" v:lbl="成本" v:prompt="" v:type="7" v:format="@" v:sortKey="" v:invis="false" v:ask="false"
							v:langID="2052" v:cal="0"/>
					<v:cp v:nameU="ProcessNumber" v:lbl="进程编号" v:prompt="" v:type="2" v:format="" v:sortKey="" v:invis="false"
							v:ask="false" v:langID="2052" v:cal="0"/>
					<v:cp v:nameU="Owner" v:lbl="所有者" v:prompt="" v:type="0" v:format="" v:sortKey="" v:invis="false" v:ask="false"
							v:langID="2052" v:cal="0"/>
					<v:cp v:nameU="Function" v:lbl="函数" v:prompt="" v:type="0" v:format="" v:sortKey="" v:invis="false"
							v:ask="false" v:langID="2052" v:cal="0" v:val="VT4()"/>
					<v:cp v:nameU="StartDate" v:lbl="开始日期" v:prompt="" v:type="5" v:format="" v:sortKey="" v:invis="false"
							v:ask="false" v:langID="2052" v:cal="0"/>
					<v:cp v:nameU="EndDate" v:lbl="结束日期" v:prompt="" v:type="5" v:format="" v:sortKey="" v:invis="false"
							v:ask="false" v:langID="2052" v:cal="0"/>
					<v:cp v:nameU="Status" v:lbl="状态" v:prompt="" v:type="4" v:format=";未开始;进行中;已完成;已推迟;正在等待输入" v:sortKey=""
							v:invis="false" v:ask="false" v:langID="2052" v:cal="0" v:val="VT4()"/>
				</v:custProps>
				<v:userDefs>
					<v:ud v:nameU="visVersion" v:prompt="" v:val="VT0(15):26"/>
					<v:ud v:nameU="DefaultWidth" v:prompt="" v:val="VT0(0.98425196850394):24"/>
					<v:ud v:nameU="DefaultHeight" v:prompt="" v:val="VT0(0.59055118110236):24"/>
					<v:ud v:nameU="ResizeTxtHeight" v:prompt="" v:val="VT0(0.59055118110236):24"/>
				</v:userDefs>
				<v:textBlock v:margins="rect(2,2,2,2)" v:tabSpace="42.5197" v:verticalAlign="0"/>
				<v:textRect cx="77.0947" cy="208.297" width="154.19" height="121.89"/>
				<rect x="0" y="147.352" width="154.189" height="121.89" class="st1"/>
				<text x="2" y="156.55" class="st2" v:langID="2052"><v:paragraph/><v:tabList/>R-MESH-0</text>			</g>
			<g id="shape76-112" v:mID="76" v:groupContext="shape" v:layerMember="1;0" transform="translate(24.0945,-51.0236)">
				<title>页面内引用.57</title>
				<desc>Root0-0</desc>
				<v:userDefs>
					<v:ud v:nameU="visVersion" v:prompt="" v:val="VT0(15):26"/>
				</v:userDefs>
				<v:textBlock v:margins="rect(2,2,2,2)" v:tabSpace="42.5197"/>
				<v:textRect cx="11.3386" cy="257.903" width="22.68" height="22.6772"/>
				<path d="M0 257.9 A11.3386 11.3386 0 1 1 22.68 257.9 A11.3386 11.3386 0 0 1 0 257.9 Z" class="st3"/>
				<text x="3.61" y="255.5" class="st2" v:langID="2052"><v:paragraph v:horizAlign="1"/><v:tabList/>Root<tspan x="6.06"
							dy="1.2em" class="st4">0</tspan>-0</text>			</g>
			<g id="shape85-116" v:mID="85" v:groupContext="shape" v:layerMember="1;0" transform="translate(57.9609,-51.0236)">
				<title>页面内引用.85</title>
				<desc>Root0-1</desc>
				<v:userDefs>
					<v:ud v:nameU="visVersion" v:prompt="" v:val="VT0(15):26"/>
				</v:userDefs>
				<v:textBlock v:margins="rect(2,2,2,2)" v:tabSpace="42.5197"/>
				<v:textRect cx="11.3386" cy="257.903" width="22.68" height="22.6772"/>
				<path d="M0 257.9 A11.3386 11.3386 0 1 1 22.68 257.9 A11.3386 11.3386 0 0 1 0 257.9 Z" class="st3"/>
				<text x="3.61" y="255.5" class="st2" v:langID="2052"><v:paragraph v:horizAlign="1"/><v:tabList/>Root<tspan x="6.06"
							dy="1.2em" class="st4">0</tspan>-1</text>			</g>
			<g id="shape86-120" v:mID="86" v:groupContext="shape" v:layerMember="1;0" transform="translate(111.67,-51.0236)">
				<title>页面内引用.86</title>
				<desc>Root0-N</desc>
				<v:userDefs>
					<v:ud v:nameU="visVersion" v:prompt="" v:val="VT0(15):26"/>
				</v:userDefs>
				<v:textBlock v:margins="rect(2,2,2,2)" v:tabSpace="42.5197"/>
				<v:textRect cx="11.3386" cy="257.903" width="22.68" height="22.6772"/>
				<path d="M0 257.9 A11.3386 11.3386 0 1 1 22.68 257.9 A11.3386 11.3386 0 0 1 0 257.9 Z" class="st3"/>
				<text x="3.61" y="255.5" class="st2" v:langID="2052"><v:paragraph v:horizAlign="1"/><v:tabList/>Root<tspan x="5.5"
							dy="1.2em" class="st4">0</tspan>-N</text>			</g>
			<g id="shape87-124" v:mID="87" v:groupContext="shape" transform="translate(80.6381,-62.3622)">
				<title>工作表.87</title>
				<path d="M0 269.24 L31.03 269.24" class="st5"/>
			</g>
			<g id="shape88-127" v:mID="88" v:groupContext="shape" transform="translate(-117.737,-25.8866) rotate(-34.6731)">
				<title>工作表.88</title>
				<path d="M0 269.24 L47.52 269.24" class="st6"/>
			</g>
			<g id="shape89-132" v:mID="89" v:groupContext="shape" transform="translate(-30.1613,416.968) rotate(-145.327)">
				<title>工作表.89</title>
				<path d="M0 269.24 L47.52 269.24" class="st6"/>
			</g>
			<g id="shape90-137" v:mID="90" v:groupContext="shape" transform="translate(-186.566,111.733) rotate(-71.8639)">
				<title>工作表.90</title>
				<path d="M0 269.24 L26.15 269.24" class="st6"/>
			</g>
			<g id="shape91-142" v:mID="91" v:groupContext="shape" v:layerMember="1;0" transform="translate(7.60848,-2.83465)">
				<title>页面内引用.91</title>
				<desc>Sta 0-0</desc>
				<v:userDefs>
					<v:ud v:nameU="visVersion" v:prompt="" v:val="VT0(15):26"/>
					<v:ud v:nameU="msvThemeColors" v:val="VT0(254):26"/>
				</v:userDefs>
				<v:textBlock v:margins="rect(2,2,2,2)" v:tabSpace="42.5197"/>
				<v:textRect cx="11.3386" cy="257.903" width="22.68" height="22.6772"/>
				<path d="M0 257.9 A11.3386 11.3386 0 0 1 22.68 257.9 A11.3386 11.3386 0 1 1 0 257.9 Z" class="st8"/>
				<text x="6.24" y="255.5" class="st2" v:langID="2052"><v:paragraph v:horizAlign="1"/><v:tabList/>Sta<v:newlineChar/><tspan
							x="6.06" dy="1.2em" class="st4">0</tspan>-0</text>			</g>
			<g id="shape92-146" v:mID="92" v:groupContext="shape" v:layerMember="1;0" transform="translate(43.0415,-2.83465)">
				<title>页面内引用.92</title>
				<desc>Sta 0-1</desc>
				<v:userDefs>
					<v:ud v:nameU="visVersion" v:prompt="" v:val="VT0(15):26"/>
					<v:ud v:nameU="msvThemeColors" v:val="VT0(254):26"/>
				</v:userDefs>
				<v:textBlock v:margins="rect(2,2,2,2)" v:tabSpace="42.5197"/>
				<v:textRect cx="11.3386" cy="257.903" width="22.68" height="22.6772"/>
				<path d="M0 257.9 A11.3386 11.3386 0 0 1 22.68 257.9 A11.3386 11.3386 0 1 1 0 257.9 Z" class="st8"/>
				<text x="6.24" y="255.5" class="st2" v:langID="2052"><v:paragraph v:horizAlign="1"/><v:tabList/>Sta<v:newlineChar/><tspan
							x="6.06" dy="1.2em" class="st4">0</tspan>-1</text>			</g>
			<g id="shape93-150" v:mID="93" v:groupContext="shape" v:layerMember="1;0" transform="translate(78.4746,-1.9431)">
				<title>页面内引用.93</title>
				<desc>Sta 0-2</desc>
				<v:userDefs>
					<v:ud v:nameU="visVersion" v:prompt="" v:val="VT0(15):26"/>
					<v:ud v:nameU="msvThemeColors" v:val="VT0(254):26"/>
				</v:userDefs>
				<v:textBlock v:margins="rect(2,2,2,2)" v:tabSpace="42.5197"/>
				<v:textRect cx="11.3386" cy="257.903" width="22.68" height="22.6772"/>
				<path d="M0 257.9 A11.3386 11.3386 0 0 1 22.68 257.9 A11.3386 11.3386 0 1 1 0 257.9 Z" class="st8"/>
				<text x="6.24" y="255.5" class="st2" v:langID="2052"><v:paragraph v:horizAlign="1"/><v:tabList/>Sta<v:newlineChar/><tspan
							x="6.06" dy="1.2em" class="st4">0</tspan>-2</text>			</g>
			<g id="shape94-154" v:mID="94" v:groupContext="shape" v:layerMember="1;0" transform="translate(125.843,-1.9431)">
				<title>页面内引用.94</title>
				<desc>Sta 0-N</desc>
				<v:userDefs>
					<v:ud v:nameU="visVersion" v:prompt="" v:val="VT0(15):26"/>
					<v:ud v:nameU="msvThemeColors" v:val="VT0(254):26"/>
				</v:userDefs>
				<v:textBlock v:margins="rect(2,2,2,2)" v:tabSpace="42.5197"/>
				<v:textRect cx="11.3386" cy="257.903" width="22.68" height="22.6772"/>
				<path d="M0 257.9 A11.3386 11.3386 0 0 1 22.68 257.9 A11.3386 11.3386 0 1 1 0 257.9 Z" class="st8"/>
				<text x="6.24" y="255.5" class="st2" v:langID="2052"><v:paragraph v:horizAlign="1"/><v:tabList/>Sta<v:newlineChar/><tspan
							x="5.5" dy="1.2em" class="st4">0</tspan>-N</text>			</g>
			<g id="shape98-158" v:mID="98" v:groupContext="shape" transform="translate(101.152,-13.2817)">
				<title>工作表.98</title>
				<path d="M0 269.24 L24.69 269.24" class="st5"/>
			</g>
		</g>
		<g id="shape1-161" v:mID="1" v:groupContext="shape" v:layerMember="1;0" transform="translate(234.687,-160.275)">
			<title>页面内引用.45</title>
			<desc>AP</desc>
			<v:userDefs>
				<v:ud v:nameU="visVersion" v:prompt="" v:val="VT0(15):26"/>
				<v:ud v:nameU="msvThemeColors" v:val="VT0(254):26"/>
			</v:userDefs>
			<v:textBlock v:margins="rect(2,2,2,2)" v:tabSpace="42.5197"/>
			<v:textRect cx="17.0079" cy="252.234" width="34.02" height="34.0157"/>
			<path d="M0 252.23 A17.0079 17.0079 0 0 1 34.02 252.23 A17.0079 17.0079 0 1 1 -0 252.23 Z" class="st9"/>
			<text x="12.63" y="254.63" class="st2" v:langID="2052"><v:paragraph v:horizAlign="1"/><v:tabList/>AP</text>		</g>
		<g id="shape11-164" v:mID="11" v:groupContext="shape" transform="translate(27.2183,-141.537) rotate(-11.1624)">
			<title>工作表.11</title>
			<v:userDefs>
				<v:ud v:nameU="msvThemeColors" v:val="VT0(254):26"/>
			</v:userDefs>
			<path d="M0 269.24 L153.51 269.24" class="st10"/>
		</g>
		<g id="shape23-170" v:mID="23" v:groupContext="shape" transform="translate(-17.5469,122.88) rotate(-90)">
			<title>工作表.23</title>
			<path d="M0 269.24 L9.08 269.24" class="st10"/>
		</g>
		<g id="shape33-175" v:mID="33" v:groupContext="shape" transform="translate(375.073,386.909) rotate(-169.002)">
			<title>工作表.33</title>
			<path d="M0 269.24 L155.85 269.24" class="st10"/>
		</g>
		<g id="shape42-180" v:mID="42" v:groupContext="shape" transform="translate(520.937,45.7323) rotate(90)">
			<title>工作表.42</title>
			<v:userDefs>
				<v:ud v:nameU="msvThemeColors" v:val="VT0(254):26"/>
			</v:userDefs>
			<path d="M7.55 269.24 L7.91 269.24 L21.31 269.24" class="st12"/>
		</g>
		<g id="group43-189" transform="translate(214.108,-210.56)" v:mID="43" v:groupContext="group">
			<title>工作表.43</title>
			<g id="group44-190" v:mID="44" v:groupContext="group">
				<v:custProps>
					<v:cp v:nameU="ShapeClass" v:lbl="ShapeClass" v:prompt="" v:type="0" v:format="" v:sortKey="" v:invis="true"
							v:ask="false" v:langID="2052" v:cal="0" v:val="VT4(位置)"/>
					<v:cp v:nameU="ShapeType" v:lbl="ShapeType" v:prompt="" v:type="0" v:format="" v:sortKey="" v:invis="true"
							v:ask="false" v:langID="2052" v:cal="0" v:val="VT4(云)"/>
				</v:custProps>
				<v:userDefs>
					<v:ud v:nameU="visVersion" v:prompt="" v:val="VT0(15):26"/>
					<v:ud v:nameU="ShapeClass" v:prompt="" v:val="VT0(5):26"/>
					<v:ud v:nameU="SolSH" v:prompt="" v:val="VT15({BF0433D9-CD73-4EB5-8390-8653BE590246}):41"/>
					<v:ud v:nameU="visLegendShape" v:prompt="" v:val="VT0(2):26"/>
					<v:ud v:nameU="msvThemeColors" v:val="VT0(254):26"/>
				</v:userDefs>
				<title>云形</title>
				<g id="shape45-191" v:mID="45" v:groupContext="shape" transform="translate(0,-12.5192)">
					<title>工作表.45</title>
					<v:userDefs>
						<v:ud v:nameU="msvThemeColors" v:val="VT0(254):26"/>
					</v:userDefs>
					<path d="M64.86 244.76 C64.45 241.99 61.22 239.82 57.26 239.82 C56.13 239.82 55.07 240.01 54.11 240.32 C52.24
								 237.59 48.38 235.6 41.13 235.76 C31.71 235.97 20.55 239.28 18.31 245.15 C15.63 245.55 13.9 246.69
								 12.87 248.2 C12.45 248.17 12.03 248.15 11.59 248.15 C5.39 248.15 0.62 251.68 0.35 256.03 C0 261.66
								 5.39 263.91 11.59 263.91 C12.48 263.91 13.33 263.84 14.16 263.7 C15.45 264.35 17.13 264.76 18.97
								 264.76 C20.68 264.76 22.24 264.41 23.49 263.84 C25.88 267.01 30.79 269.24 36.44 268.98 C42.4 268.71
								 45.98 267.72 48.09 266.19 C48.22 266.18 48.34 266.18 48.48 266.17 C55.14 265.5 58.07 264.15 59.01
								 261.93 C59.18 261.94 59.36 261.94 59.54 261.94 C68.18 261.94 75.17 259.97 75.17 253.07 C75.17 249.24
								 70.86 246 64.86 244.76 Z" class="st14"/>
				</g>
			</g>
			<g id="shape46-193" v:mID="46" v:groupContext="shape" transform="translate(19.5451,-24.3725)">
				<title>工作表.46</title>
				<desc>Internet</desc>
				<v:userDefs>
					<v:ud v:nameU="msvThemeColors" v:val="VT0(254):26"/>
				</v:userDefs>
				<v:textBlock v:margins="rect(2,2,2,2)" v:tabSpace="42.5197"/>
				<v:textRect cx="18.0416" cy="264.273" width="36.09" height="9.93677"/>
				<rect x="0" y="259.305" width="36.0832" height="9.93677" class="st15"/>
				<text x="4.78" y="266.67" class="st2" v:langID="2052"><v:paragraph v:horizAlign="1"/><v:tabList/>Internet</text>			</g>
		</g>
		<g id="group56-196" transform="translate(405.176,-104.11)" v:mID="56" v:groupContext="group">
			<title>工作表.56</title>
			<g id="shape32-197" v:mID="32" v:groupContext="shape" v:layerMember="1;0">
				<title>页面内引用.76</title>
				<desc>R-NAT</desc>
				<v:userDefs>
					<v:ud v:nameU="visVersion" v:prompt="" v:val="VT0(15):26"/>
				</v:userDefs>
				<v:textBlock v:margins="rect(2,2,2,2)" v:tabSpace="42.5197"/>
				<v:textRect cx="21.2598" cy="247.982" width="42.52" height="42.5197"/>
				<path d="M0 247.98 A21.2598 21.2598 0 0 1 42.52 247.98 A21.2598 21.2598 0 0 1 0 247.98 Z" class="st16"/>
				<text x="11.02" y="250.38" class="st2" v:langID="2052"><v:paragraph v:horizAlign="1"/><v:tabList/>R-NAT</text>			</g>
			<g id="shape54-200" v:mID="54" v:groupContext="shape" transform="translate(9.20702,-25.5138)">
				<title>工作表.54</title>
				<desc>sta</desc>
				<v:textBlock v:margins="rect(4,4,4,4)" v:tabSpace="42.5197"/>
				<v:textRect cx="12.0528" cy="262.155" width="24.11" height="14.1732"/>
				<rect x="0" y="255.068" width="24.1056" height="14.1732" class="st17"/>
				<text x="7.23" y="264.56" class="st2" v:langID="2052"><v:paragraph v:horizAlign="1"/><v:tabList/>sta</text>			</g>
			<g id="shape55-203" v:mID="55" v:groupContext="shape" transform="translate(0,-0.00199054)">
				<title>工作表.55</title>
				<desc>softapm</desc>
				<v:textBlock v:margins="rect(4,4,4,4)" v:tabSpace="42.5197"/>
				<v:textRect cx="21.2598" cy="262.155" width="42.52" height="14.1732"/>
				<rect x="0" y="255.068" width="42.5197" height="14.1732" class="st17"/>
				<text x="7.81" y="264.56" class="st2" v:langID="2052"><v:paragraph v:horizAlign="1"/><v:tabList/>softapm</text>			</g>
		</g>
		<g id="group57-206" transform="translate(230.435,-103.842)" v:mID="57" v:groupContext="group">
			<title>工作表.57</title>
			<g id="shape12-207" v:mID="12" v:groupContext="shape" v:layerMember="1;0">
				<title>页面内引用.56</title>
				<desc>R-NAT</desc>
				<v:userDefs>
					<v:ud v:nameU="visVersion" v:prompt="" v:val="VT0(15):26"/>
				</v:userDefs>
				<v:textBlock v:margins="rect(2,2,2,2)" v:tabSpace="42.5197"/>
				<v:textRect cx="21.2598" cy="247.982" width="42.52" height="42.5197"/>
				<path d="M0 247.98 A21.2598 21.2598 0 0 1 42.52 247.98 A21.2598 21.2598 0 0 1 0 247.98 Z" class="st16"/>
				<text x="11.02" y="250.38" class="st2" v:langID="2052"><v:paragraph v:horizAlign="1"/><v:tabList/>R-NAT</text>			</g>
			<g id="shape52-210" v:mID="52" v:groupContext="shape" transform="translate(9.20702,-28.6151)">
				<title>工作表.52</title>
				<desc>sta</desc>
				<v:textBlock v:margins="rect(4,4,4,4)" v:tabSpace="42.5197"/>
				<v:textRect cx="12.0528" cy="262.155" width="24.11" height="14.1732"/>
				<rect x="0" y="255.068" width="24.1056" height="14.1732" class="st17"/>
				<text x="7.23" y="264.56" class="st2" v:langID="2052"><v:paragraph v:horizAlign="1"/><v:tabList/>sta</text>			</g>
			<g id="shape53-213" v:mID="53" v:groupContext="shape" transform="translate(0,-3.10334)">
				<title>工作表.53</title>
				<desc>softap1</desc>
				<v:textBlock v:margins="rect(4,4,4,4)" v:tabSpace="42.5197"/>
				<v:textRect cx="21.2598" cy="262.155" width="42.52" height="14.1732"/>
				<rect x="0" y="255.068" width="42.5197" height="14.1732" class="st17"/>
				<text x="8.98" y="264.56" class="st2" v:langID="2052"><v:paragraph v:horizAlign="1"/><v:tabList/>softap1</text>			</g>
		</g>
		<g id="group58-216" transform="translate(58.0809,-97.3895)" v:mID="58" v:groupContext="group">
			<title>工作表.58</title>
			<g id="shape2-217" v:mID="2" v:groupContext="shape" v:layerMember="1;0" transform="translate(-3.9968E-15,-6.72085)">
				<title>页面内引用.46</title>
				<desc>R-NAT</desc>
				<v:userDefs>
					<v:ud v:nameU="visVersion" v:prompt="" v:val="VT0(15):26"/>
				</v:userDefs>
				<v:textBlock v:margins="rect(2,2,2,2)" v:tabSpace="42.5197"/>
				<v:textRect cx="21.2598" cy="247.982" width="42.52" height="42.5197"/>
				<path d="M0 247.98 A21.2598 21.2598 0 0 1 42.52 247.98 A21.2598 21.2598 0 0 1 0 247.98 Z" class="st16"/>
				<text x="11.02" y="250.38" class="st2" v:langID="2052"><v:paragraph v:horizAlign="1"/><v:tabList/>R-NAT</text>			</g>
			<g id="shape50-220" v:mID="50" v:groupContext="shape" transform="translate(9.20702,-35.0673)">
				<title>工作表.50</title>
				<desc>sta</desc>
				<v:textBlock v:margins="rect(4,4,4,4)" v:tabSpace="42.5197"/>
				<v:textRect cx="12.0528" cy="262.155" width="24.11" height="14.1732"/>
				<rect x="0" y="255.068" width="24.1056" height="14.1732" class="st17"/>
				<text x="7.23" y="264.56" class="st2" v:langID="2052"><v:paragraph v:horizAlign="1"/><v:tabList/>sta</text>			</g>
			<g id="shape51-223" v:mID="51" v:groupContext="shape" transform="translate(0,-9.5555)">
				<title>工作表.51</title>
				<desc>softap0</desc>
				<v:textBlock v:margins="rect(4,4,4,4)" v:tabSpace="42.5197"/>
				<v:textRect cx="21.2598" cy="262.155" width="42.52" height="14.1732"/>
				<rect x="0" y="255.068" width="42.5197" height="14.1732" class="st17"/>
				<text x="8.98" y="264.56" class="st2" v:langID="2052"><v:paragraph v:horizAlign="1"/><v:tabList/>softap0</text>			</g>
		</g>
	</g>
</svg>
