<?xml version="1.0" encoding="UTF-8" standalone="no"?>
<!DOCTYPE svg PUBLIC "-//W3C//DTD SVG 1.1//EN" "http://www.w3.org/Graphics/SVG/1.1/DTD/svg11.dtd">
<!-- 由 Microsoft Visio, SVG Export 生成 ota_update_diagram_via_network.svg 页-1 -->
<svg xmlns="http://www.w3.org/2000/svg" xmlns:xlink="http://www.w3.org/1999/xlink" xmlns:ev="http://www.w3.org/2001/xml-events"
		xmlns:v="http://schemas.microsoft.com/visio/2003/SVGExtensions/" width="6.57828in" height="1.67881in"
		viewBox="0 0 473.636 120.874" xml:space="preserve" color-interpolation-filters="sRGB" class="st32">
	<v:documentProperties v:langID="2052" v:metric="true" v:viewMarkup="false"/>

	<style type="text/css">
	<![CDATA[
		.st1 {fill:url(#grad0-4);stroke:#404040;stroke-dasharray:1.75,1.25;stroke-linecap:round;stroke-linejoin:round;stroke-width:0.25}
		.st2 {fill:none;stroke:#404040;stroke-dasharray:1.75,1.25;stroke-linecap:round;stroke-linejoin:round;stroke-width:0.25}
		.st3 {fill:none;stroke:none;stroke-linecap:round;stroke-linejoin:round;stroke-width:0.25}
		.st4 {fill:#000000;font-family:Calibri;font-size:0.666664em}
		.st5 {font-size:1em}
		.st6 {fill:url(#grad0-17);stroke:none;stroke-linecap:round;stroke-linejoin:round;stroke-width:0.25}
		.st7 {fill:#ff00ff;fill-opacity:0}
		.st8 {stroke:#000000;stroke-linecap:round;stroke-linejoin:round;stroke-opacity:0;stroke-width:0.72}
		.st9 {fill:url(#grad12-33);stroke:#ffffff;stroke-linecap:round;stroke-linejoin:round;stroke-width:0.72}
		.st10 {fill:url(#grad0-39);stroke:#ffffff;stroke-linecap:round;stroke-linejoin:round;stroke-width:0.72}
		.st11 {fill:url(#grad10-43);stroke:#000000;stroke-linecap:round;stroke-linejoin:round;stroke-width:0.72}
		.st12 {fill:url(#grad11-57);stroke:#000000;stroke-linecap:round;stroke-linejoin:round;stroke-width:0.72}
		.st13 {stroke:#404040;stroke-linecap:round;stroke-linejoin:round;stroke-width:1.5}
		.st14 {stroke:#404040;stroke-dasharray:1.75,1.25;stroke-linecap:round;stroke-linejoin:round;stroke-width:0.25}
		.st15 {fill:url(#grad0-77);stroke:#000000;stroke-linecap:round;stroke-linejoin:round;stroke-width:0.25}
		.st16 {fill:#ff00ff;fill-opacity:0;stroke:#404040;stroke-linecap:round;stroke-linejoin:round;stroke-opacity:0;stroke-width:0.72}
		.st17 {fill:url(#grad12-89);stroke:#ffffff;stroke-linecap:round;stroke-linejoin:round;stroke-width:0.72}
		.st18 {fill:url(#grad0-95);stroke:#ffffff;stroke-linecap:round;stroke-linejoin:round;stroke-width:0.72}
		.st19 {fill:url(#grad11-117);stroke:#000000;stroke-linecap:round;stroke-linejoin:round;stroke-width:0.72}
		.st20 {fill:#ffffff;stroke:none;stroke-linecap:round;stroke-linejoin:round;stroke-width:0.24}
		.st21 {fill:#969696;stroke:none;stroke-linecap:round;stroke-linejoin:round;stroke-width:0.24}
		.st22 {fill:#808080;stroke:#808080;stroke-linecap:round;stroke-linejoin:round;stroke-width:0.36}
		.st23 {fill:url(#grad11-117)}
		.st24 {stroke:#000000;stroke-linecap:round;stroke-linejoin:round;stroke-width:0.72}
		.st25 {stroke:#ffffff;stroke-linecap:round;stroke-linejoin:round;stroke-width:0.72}
		.st26 {fill:none;stroke:#404040;stroke-linecap:round;stroke-linejoin:round;stroke-width:1.5}
		.st27 {fill:#000000;stroke:#000000;stroke-linecap:round;stroke-linejoin:round;stroke-width:0.12}
		.st28 {fill:#ffffff;stroke:#000000;stroke-linecap:round;stroke-linejoin:round;stroke-width:0.24}
		.st29 {stroke:#000000;stroke-linecap:round;stroke-linejoin:round;stroke-width:0.36}
		.st30 {stroke:#ffffff;stroke-linecap:round;stroke-linejoin:round;stroke-width:0.36}
		.st31 {fill:url(#grad3-163);stroke:#000000;stroke-linecap:round;stroke-linejoin:round;stroke-width:0.12}
		.st32 {fill:none;fill-rule:evenodd;font-size:12px;overflow:visible;stroke-linecap:square;stroke-miterlimit:3}
	]]>
	</style>

	<defs id="Patterns_And_Gradients">
		<linearGradient id="grad0-4" x1="0" y1="0" x2="1" y2="0" gradientTransform="rotate(270 0.5 0.5)">
			<stop offset="0" stop-color="#f0f0f0" stop-opacity="1"/>
			<stop offset="1" stop-color="#ffffff" stop-opacity="1"/>
		</linearGradient>
		<linearGradient id="grad0-17" x1="0" y1="0" x2="1" y2="0" gradientTransform="rotate(270 0.5 0.5)">
			<stop offset="0" stop-color="#85ca39" stop-opacity="1"/>
			<stop offset="1" stop-color="#92d050" stop-opacity="1"/>
		</linearGradient>
		<pattern id="grad12-33" x="0" y="0" width="1" height="1" patternContentUnits="objectBoundingBox">
			<path d="M 0 0 L 0 1 L 1 1 z" style="fill:url(#grad0-34)"/>
			<path d="M 0 0 L 1 0 L 1 1 z" style="fill:url(#grad0-35)"/>
		</pattern>
		<linearGradient id="grad0-34" x1="0" y1="0" x2="1" y2="0" gradientTransform="rotate(90 0.5 0.5)">
			<stop offset="0" stop-color="#e3e3e3" stop-opacity="1"/>
			<stop offset="1" stop-color="#f2f2f2" stop-opacity="1"/>
		</linearGradient>
		<linearGradient id="grad0-35" x1="0" y1="0" x2="1" y2="0" gradientTransform="rotate(360 0.5 0.5)">
			<stop offset="0" stop-color="#e3e3e3" stop-opacity="1"/>
			<stop offset="1" stop-color="#f2f2f2" stop-opacity="1"/>
		</linearGradient>
		<linearGradient id="grad0-39" x1="0" y1="0" x2="1" y2="0" gradientTransform="rotate(270 0.5 0.5)">
			<stop offset="0" stop-color="#e3e3e3" stop-opacity="1"/>
			<stop offset="1" stop-color="#f2f2f2" stop-opacity="1"/>
		</linearGradient>
		<pattern id="grad10-43" x="0" y="0" width="1" height="1" patternContentUnits="objectBoundingBox">
			<path d="M 0.5 0.5 L 0 0 L 0 1 z" style="fill:url(#grad0-44)"/>
			<path d="M 0.5 0.5 L 1 0 L 1 1 z" style="fill:url(#grad0-45)"/>
			<path d="M 0.5 0.5 L 0 0 L 1 0 z" style="fill:url(#grad0-46)"/>
			<path d="M 0.5 0.5 L 0 1 L 1 1 z" style="fill:url(#grad0-47)"/>
		</pattern>
		<linearGradient id="grad0-44" x1="0" y1="0" x2="1" y2="0" gradientTransform="rotate(180 0.5 0.5)">
			<stop offset="0" stop-color="#ffffff" stop-opacity="1"/>
			<stop offset="1" stop-color="#c6d1e3" stop-opacity="1"/>
		</linearGradient>
		<linearGradient id="grad0-45" x1="0" y1="0" x2="1" y2="0" gradientTransform="rotate(360 0.5 0.5)">
			<stop offset="0" stop-color="#ffffff" stop-opacity="1"/>
			<stop offset="1" stop-color="#c6d1e3" stop-opacity="1"/>
		</linearGradient>
		<linearGradient id="grad0-46" x1="0" y1="0" x2="1" y2="0" gradientTransform="rotate(270 0.5 0.5)">
			<stop offset="0" stop-color="#ffffff" stop-opacity="1"/>
			<stop offset="1" stop-color="#c6d1e3" stop-opacity="1"/>
		</linearGradient>
		<linearGradient id="grad0-47" x1="0" y1="0" x2="1" y2="0" gradientTransform="rotate(90 0.5 0.5)">
			<stop offset="0" stop-color="#ffffff" stop-opacity="1"/>
			<stop offset="1" stop-color="#c6d1e3" stop-opacity="1"/>
		</linearGradient>
		<pattern id="grad11-57" x="0" y="0" width="1" height="1" patternContentUnits="objectBoundingBox">
			<path d="M 0 1 L 0 0 L 1 0 z" style="fill:url(#grad0-58)"/>
			<path d="M 0 1 L 1 1 L 1 0 z" style="fill:url(#grad0-34)"/>
		</pattern>
		<linearGradient id="grad0-58" x1="0" y1="0" x2="1" y2="0" gradientTransform="rotate(180 0.5 0.5)">
			<stop offset="0" stop-color="#e3e3e3" stop-opacity="1"/>
			<stop offset="1" stop-color="#f2f2f2" stop-opacity="1"/>
		</linearGradient>
		<linearGradient id="grad0-77" x1="0" y1="0" x2="1" y2="0" gradientTransform="rotate(270 0.5 0.5)">
			<stop offset="0" stop-color="#d3dcba" stop-opacity="1"/>
			<stop offset="1" stop-color="#e0e6cd" stop-opacity="1"/>
		</linearGradient>
		<pattern id="grad12-89" x="0" y="0" width="1" height="1" patternContentUnits="objectBoundingBox">
			<path d="M 0 0 L 0 1 L 1 1 z" style="fill:url(#grad0-90)"/>
			<path d="M 0 0 L 1 0 L 1 1 z" style="fill:url(#grad0-91)"/>
		</pattern>
		<linearGradient id="grad0-90" x1="0" y1="0" x2="1" y2="0" gradientTransform="rotate(90 0.5 0.5)">
			<stop offset="0" stop-color="#eaeaea" stop-opacity="1"/>
			<stop offset="1" stop-color="#dbdbdb" stop-opacity="1"/>
		</linearGradient>
		<linearGradient id="grad0-91" x1="0" y1="0" x2="1" y2="0" gradientTransform="rotate(360 0.5 0.5)">
			<stop offset="0" stop-color="#eaeaea" stop-opacity="1"/>
			<stop offset="1" stop-color="#dbdbdb" stop-opacity="1"/>
		</linearGradient>
		<linearGradient id="grad0-95" x1="0" y1="0" x2="1" y2="0" gradientTransform="rotate(270 0.5 0.5)">
			<stop offset="0" stop-color="#ffffff" stop-opacity="1"/>
			<stop offset="1" stop-color="#f2f2f2" stop-opacity="1"/>
		</linearGradient>
		<pattern id="grad11-117" x="0" y="0" width="1" height="1" patternContentUnits="objectBoundingBox">
			<path d="M 0 1 L 0 0 L 1 0 z" style="fill:url(#grad0-118)"/>
			<path d="M 0 1 L 1 1 L 1 0 z" style="fill:url(#grad0-119)"/>
		</pattern>
		<linearGradient id="grad0-118" x1="0" y1="0" x2="1" y2="0" gradientTransform="rotate(180 0.5 0.5)">
			<stop offset="0" stop-color="#f0f0f0" stop-opacity="1"/>
			<stop offset="1" stop-color="#ffffff" stop-opacity="1"/>
		</linearGradient>
		<linearGradient id="grad0-119" x1="0" y1="0" x2="1" y2="0" gradientTransform="rotate(90 0.5 0.5)">
			<stop offset="0" stop-color="#f0f0f0" stop-opacity="1"/>
			<stop offset="1" stop-color="#ffffff" stop-opacity="1"/>
		</linearGradient>
		<radialGradient id="grad3-163" cx="0.5" cy="0.5" r="0.73">
			<stop offset="0" stop-color="#ffffff" stop-opacity="1"/>
			<stop offset="1" stop-color="#008000" stop-opacity="1"/>
		</radialGradient>
	</defs>
	<g v:mID="0" v:index="1" v:groupContext="foregroundPage">
		<title>页-1</title>
		<v:pageProperties v:drawingScale="0.0393701" v:pageScale="0.0393701" v:drawingUnits="24" v:shadowOffsetX="8.50394"
				v:shadowOffsetY="-8.50394"/>
		<g id="shape2-1" v:mID="2" v:groupContext="shape" transform="translate(0.125,-25.6023)">
			<title>工作表.2</title>
			<v:userDefs>
				<v:ud v:nameU="msvThemeColors" v:val="VT0(36):26"/>
				<v:ud v:nameU="msvThemeEffects" v:val="VT0(16):26"/>
			</v:userDefs>
			<path d="M0 120.87 L79.37 120.87 L79.37 69.85 L0 69.85 L0 120.87 Z" class="st1"/>
		</g>
		<g id="shape3-5" v:mID="3" v:groupContext="shape" transform="translate(117.965,-0.125)">
			<title>椭圆</title>
			<v:userDefs>
				<v:ud v:nameU="visVersion" v:val="VT0(14):26"/>
				<v:ud v:nameU="msvThemeColors" v:val="VT0(36):26"/>
				<v:ud v:nameU="msvThemeEffects" v:val="VT0(16):26"/>
			</v:userDefs>
			<path d="M0 61.17 A122.497 59.7047 0 0 1 244.99 61.17 A122.497 59.7047 0 1 1 0 61.17 Z" class="st2"/>
		</g>
		<g id="shape4-7" v:mID="4" v:groupContext="shape" transform="translate(394.141,-25.5903)">
			<title>工作表.4</title>
			<v:userDefs>
				<v:ud v:nameU="msvThemeColors" v:val="VT0(36):26"/>
				<v:ud v:nameU="msvThemeEffects" v:val="VT0(16):26"/>
			</v:userDefs>
			<path d="M0 120.87 L79.37 120.87 L79.37 69.85 L0 69.85 L0 120.87 Z" class="st1"/>
		</g>
		<g id="shape5-10" v:mID="5" v:groupContext="shape" transform="translate(4.5892,-36.9026)">
			<title>工作表.5</title>
			<desc>Ameba device</desc>
			<v:userDefs>
				<v:ud v:nameU="msvThemeColors" v:val="VT0(36):26"/>
				<v:ud v:nameU="msvThemeEffects" v:val="VT0(16):26"/>
			</v:userDefs>
			<v:textBlock v:margins="rect(4,4,4,4)" v:tabSpace="42.5197"/>
			<v:textRect cx="17.6104" cy="105.324" width="35.23" height="31.0997"/>
			<rect x="0" y="89.7743" width="35.2208" height="31.0997" class="st3"/>
			<text x="6.09" y="102.92" class="st4" v:langID="1033"><v:paragraph v:horizAlign="1"/><v:tabList/>Ameba<v:newlineChar/><tspan
						x="7.11" dy="1.2em" class="st5" v:langID="2052">device</tspan></text>		</g>
		<g id="shape6-14" v:mID="6" v:groupContext="shape" transform="translate(344.032,175.367) scale(1,-1)">
			<title>60 度单向箭头.75</title>
			<desc>send</desc>
			<v:userDefs>
				<v:ud v:nameU="visVersion" v:val="VT0(14):26"/>
				<v:ud v:nameU="msvThemeColors" v:val="VT0(36):26"/>
				<v:ud v:nameU="msvThemeEffects" v:val="VT0(16):26"/>
			</v:userDefs>
			<v:textBlock v:margins="rect(4,4,4,4)" v:tabSpace="42.5197"/>
			<v:textRect cx="23.1435" cy="106.361" width="46.29" height="29.0264"/>
			<path d="M0 106.36 L8.38 91.85 L8.38 101.43 L46.29 101.43 L46.29 111.3 L8.38 111.3 L8.38 120.87 L0 106.36 Z"
					class="st6"/>
			<text x="15.39" y="-103.96" transform="scale(1,-1)" class="st4" v:langID="2052"><v:paragraph v:horizAlign="1"/><v:tabList/>send</text>		</g>
		<g id="shape7-19" v:mID="7" v:groupContext="shape" transform="translate(84.6518,175.748) scale(1,-1)">
			<title>60 度单向箭头.76</title>
			<desc>receive</desc>
			<v:userDefs>
				<v:ud v:nameU="visVersion" v:val="VT0(14):26"/>
				<v:ud v:nameU="msvThemeColors" v:val="VT0(36):26"/>
				<v:ud v:nameU="msvThemeEffects" v:val="VT0(16):26"/>
			</v:userDefs>
			<v:textBlock v:margins="rect(4,4,4,4)" v:tabSpace="42.5197"/>
			<v:textRect cx="23.1435" cy="106.361" width="46.29" height="29.0264"/>
			<path d="M0 106.36 L8.38 91.85 L8.38 101.43 L46.29 101.43 L46.29 111.3 L8.38 111.3 L8.38 120.87 L0 106.36 Z"
					class="st6"/>
			<text x="11.36" y="-103.96" transform="scale(1,-1)" class="st4" v:langID="2052"><v:paragraph v:horizAlign="1"/><v:tabList/>receive</text>		</g>
		<g id="shape8-23" v:mID="8" v:groupContext="shape" transform="translate(197.943,-61.7402)">
			<title>工作表.8</title>
			<desc>OTA firmware file format</desc>
			<v:userDefs>
				<v:ud v:nameU="msvThemeColors" v:val="VT0(36):26"/>
				<v:ud v:nameU="msvThemeEffects" v:val="VT0(16):26"/>
			</v:userDefs>
			<v:textBlock v:margins="rect(4,4,4,4)" v:tabSpace="42.5197"/>
			<v:textRect cx="49.6063" cy="114.654" width="99.22" height="12.4399"/>
			<rect x="0" y="108.434" width="99.2126" height="12.4399" class="st3"/>
			<text x="8.87" y="117.05" class="st4" v:langID="2052"><v:paragraph v:horizAlign="1"/><v:tabList/>OTA firmware file format</text>		</g>
		<g id="group9-26" transform="translate(41.2604,-37.7437)" v:mID="9" v:groupContext="group">
			<v:custProps>
				<v:cp v:nameU="ShapeClass" v:lbl="ShapeClass" v:type="0" v:invis="true" v:ask="false" v:langID="2052"
						v:val="VT4(设备)"/>
				<v:cp v:nameU="ShapeType" v:lbl="ShapeType" v:type="0" v:invis="true" v:ask="false" v:langID="2052" v:val="VT4(设备)"/>
				<v:cp v:nameU="SubShapeType" v:lbl="SubShapeType" v:type="0" v:invis="true" v:ask="false" v:langID="2052"
						v:val="VT4(扫描仪)"/>
				<v:cp v:nameU="Manufacturer" v:lbl="制造商" v:type="0" v:sortKey="Equipment" v:invis="false" v:ask="false"
						v:langID="2052"/>
				<v:cp v:nameU="ProductNumber" v:lbl="产品编号" v:type="0" v:sortKey="Equipment" v:invis="false" v:ask="false"
						v:langID="2052"/>
				<v:cp v:nameU="PartNumber" v:lbl="部件号" v:type="0" v:sortKey="Equipment" v:invis="false" v:ask="false"
						v:langID="2052"/>
				<v:cp v:nameU="ProductDescription" v:lbl="产品说明" v:type="0" v:sortKey="Equipment" v:invis="false" v:ask="false"
						v:langID="2052"/>
				<v:cp v:nameU="AssetNumber" v:lbl="资产号" v:type="0" v:sortKey="Asset" v:invis="false" v:ask="false" v:langID="2052"/>
				<v:cp v:nameU="SerialNumber" v:lbl="序列号" v:type="0" v:sortKey="Asset" v:invis="false" v:ask="false" v:langID="2052"/>
				<v:cp v:nameU="Location" v:lbl="位置" v:type="0" v:sortKey="Asset" v:invis="false" v:ask="false" v:langID="2052"/>
				<v:cp v:nameU="Building" v:lbl="建筑物" v:type="0" v:sortKey="Asset" v:invis="false" v:ask="false" v:langID="2052"/>
				<v:cp v:nameU="Room" v:lbl="房间" v:type="0" v:sortKey="Asset" v:invis="false" v:ask="false" v:langID="2052"/>
			</v:custProps>
			<v:userDefs>
				<v:ud v:nameU="HasText" v:val="VT0(0):5"/>
				<v:ud v:nameU="ShapeClass" v:val="VT0(5):26"/>
				<v:ud v:nameU="ShapeType" v:val="VT0(8):26"/>
				<v:ud v:nameU="SubShapeType" v:val="VT0(63):26"/>
				<v:ud v:nameU="SolSH" v:val="VT15({BF0433D9-CD73-4EB5-8390-8653BE590246}):41"/>
				<v:ud v:nameU="visLegendShape" v:val="VT0(2):26"/>
				<v:ud v:nameU="visVersion" v:prompt="" v:val="VT0(14):26"/>
				<v:ud v:nameU="msvThemeColors" v:val="VT0(36):26"/>
				<v:ud v:nameU="msvThemeEffects" v:val="VT0(16):26"/>
			</v:userDefs>
			<title>扫描仪.62</title>
			<g id="shape10-27" v:mID="10" v:groupContext="shape">
				<title>工作表.10</title>
				<v:userDefs>
					<v:ud v:nameU="msvThemeColors" v:val="VT0(36):26"/>
					<v:ud v:nameU="msvThemeEffects" v:val="VT0(16):26"/>
				</v:userDefs>
				<path d="M7.04 98.33 A111.562 102.662 -178.2 0 0 12.03 101.08 A111.534 102.636 1.86 0 1 7.04 98.33 ZM0 108.02 A26.6123
							 24.4893 -178.13 0 0 6.08 113.14 A26.6133 24.4902 1.86 0 1 0 108.02 ZM14.96 120.87 L14.97 116.65 L14.97
							 120.87 L14.96 120.87 ZM8.54 103.1 L0 108.02 L0 112.24 A25.276 23.2596 -178.05 0 0 14.96 120.87 L34.52
							 109.6 L34.52 108.37 L35.22 108.02 L34.52 105.38 L35.22 102.56 L21.13 94.46 L0.88 94.46 L0.18 97.28 A34.8021
							 32.0257 -178.08 0 0 8.54 103.1 Z" class="st7"/>
				<path d="M7.04 98.33 A111.562 102.662 -178.2 0 0 12.03 101.08 A111.534 102.636 1.86 0 1 7.04 98.33M0 108.02 A26.6123
							 24.4893 -178.13 0 0 6.08 113.14 A26.6133 24.4902 1.86 0 1 0 108.02M14.96 120.87 L14.97 116.65 L14.97
							 120.87M8.54 103.1 L0 108.02 L0 112.24 A25.276 23.2596 -178.05 0 0 14.96 120.87 L34.52 109.6 L34.52 108.37
							 L35.22 108.02 L34.52 105.38 L35.22 102.56 L21.13 94.46 L0.88 94.46 L0.18 97.28 A34.8021 32.0257 -178.08
							 0 0 8.54 103.1" class="st8"/>
			</g>
			<g id="shape11-30" v:mID="11" v:groupContext="shape" transform="translate(14.9689,1.42109E-13)">
				<title>工作表.11</title>
				<v:userDefs>
					<v:ud v:nameU="msvThemeColors" v:val="VT0(36):26"/>
					<v:ud v:nameU="msvThemeEffects" v:val="VT0(16):26"/>
				</v:userDefs>
				<path d="M0 120.87 L19.55 109.6 L19.55 108.37 L20.25 108.02 L19.55 105.38 L0 116.65 L0 120.87 Z" class="st9"/>
			</g>
			<g id="shape12-36" v:mID="12" v:groupContext="shape" transform="translate(0,-4.2265)">
				<title>工作表.12</title>
				<v:userDefs>
					<v:ud v:nameU="msvThemeColors" v:val="VT0(36):26"/>
					<v:ud v:nameU="msvThemeEffects" v:val="VT0(16):26"/>
				</v:userDefs>
				<path d="M-0 112.24 A26.6123 24.4893 -178.13 0 0 14.97 120.87 L34.52 109.6 L19.55 100.97 L0 112.24 Z" class="st10"/>
			</g>
			<g id="shape13-40" v:mID="13" v:groupContext="shape" transform="translate(2.81767,-5.98754)">
				<title>工作表.13</title>
				<v:userDefs>
					<v:ud v:nameU="msvThemeColors" v:val="VT0(36):26"/>
					<v:ud v:nameU="msvThemeEffects" v:val="VT0(16):26"/>
				</v:userDefs>
				<path d="M0 114.18 L11.62 120.87 L28.18 111.36 L16.55 104.67 L0 114.18 Z" class="st11"/>
			</g>
			<g id="shape14-48" v:mID="14" v:groupContext="shape" transform="translate(14.2644,-15.4972)">
				<title>工作表.14</title>
				<v:userDefs>
					<v:ud v:nameU="msvThemeColors" v:val="VT0(36):26"/>
					<v:ud v:nameU="msvThemeEffects" v:val="VT0(16):26"/>
				</v:userDefs>
				<path d="M0 120.87 L20.25 120.87 L20.96 118.06 L0.7 118.06 L0 120.87 Z" class="st9"/>
			</g>
			<g id="shape15-51" v:mID="15" v:groupContext="shape" transform="translate(0.880521,-18.3148)">
				<title>工作表.15</title>
				<v:userDefs>
					<v:ud v:nameU="msvThemeColors" v:val="VT0(36):26"/>
					<v:ud v:nameU="msvThemeEffects" v:val="VT0(16):26"/>
				</v:userDefs>
				<path d="M14.09 120.87 L34.34 120.87 L20.25 112.77 L0 112.77 A111.562 102.662 -178.2 0 0 14.09 120.87 Z"
						class="st10"/>
			</g>
			<g id="shape16-54" v:mID="16" v:groupContext="shape">
				<title>工作表.16</title>
				<v:userDefs>
					<v:ud v:nameU="msvThemeColors" v:val="VT0(36):26"/>
					<v:ud v:nameU="msvThemeEffects" v:val="VT0(16):26"/>
				</v:userDefs>
				<path d="M0 112.24 A25.276 23.2596 -178.05 0 0 14.96 120.87 L14.97 116.65 A26.6133 24.4902 1.86 0 1 0 108.02 L0 112.24
							 Z" class="st12"/>
			</g>
			<g id="shape17-59" v:mID="17" v:groupContext="shape" transform="translate(0.176104,-15.4972)">
				<title>工作表.17</title>
				<v:userDefs>
					<v:ud v:nameU="msvThemeColors" v:val="VT0(36):26"/>
					<v:ud v:nameU="msvThemeEffects" v:val="VT0(16):26"/>
				</v:userDefs>
				<path d="M0 112.77 A34.8021 32.0257 -178.08 0 0 14.09 120.87 L14.79 118.06 A111.536 102.638 1.86 0 1 0.7 109.96 L0
							 112.77 Z" class="st12"/>
			</g>
			<g id="shape18-62" v:mID="18" v:groupContext="shape">
				<title>工作表.18</title>
				<v:userDefs>
					<v:ud v:nameU="msvThemeColors" v:val="VT0(36):26"/>
					<v:ud v:nameU="msvThemeEffects" v:val="VT0(16):26"/>
				</v:userDefs>
				<path d="M0 112.24 A25.2598 23.2447 -178.02 0 0 14.97 120.87 L34.52 109.6 L34.52 108.37 L35.22 108.02 L34.52 105.38
							 L35.22 102.56 L21.13 94.46 L0.88 94.46 L0.18 97.28 A27.1337 24.969 -177.02 0 0 8.63 103.09 L0 108.02
							 L0 112.24" class="st13"/>
			</g>
		</g>
		<g id="shape20-65" v:mID="20" v:groupContext="shape" transform="translate(217.413,-103.937)">
			<title>工作表.20</title>
			<desc>Local Area Network</desc>
			<v:userDefs>
				<v:ud v:nameU="msvThemeColors" v:val="VT0(36):26"/>
				<v:ud v:nameU="msvThemeEffects" v:val="VT0(16):26"/>
			</v:userDefs>
			<v:textBlock v:margins="rect(4,4,4,4)" v:tabSpace="42.5197"/>
			<v:textRect cx="39.247" cy="113.075" width="78.5" height="15.5975"/>
			<rect x="0" y="105.277" width="78.494" height="15.5975" class="st3"/>
			<text x="7.41" y="115.48" class="st4" v:langID="2052"><v:paragraph v:horizAlign="1"/><v:tabList/>Local Area Network</text>		</g>
		<g id="shape21-68" v:mID="21" v:groupContext="shape" transform="translate(405.636,151.094) rotate(-165.218)">
			<title>工作表.21</title>
			<v:userDefs>
				<v:ud v:nameU="msvThemeColors" v:val="VT0(36):26"/>
				<v:ud v:nameU="msvThemeEffects" v:val="VT0(16):26"/>
			</v:userDefs>
			<path d="M0 110.49 C3.75 116.61 31.47 121.59 54.98 120.82 C83.52 119.89 105.85 110.48 134.12 110.49" class="st14"/>
		</g>
		<g id="shape22-71" v:mID="22" v:groupContext="shape" transform="translate(10.7232,-73.0741) rotate(-13.9242)">
			<title>工作表.22</title>
			<v:userDefs>
				<v:ud v:nameU="msvThemeColors" v:val="VT0(36):26"/>
				<v:ud v:nameU="msvThemeEffects" v:val="VT0(16):26"/>
			</v:userDefs>
			<path d="M0 120.87 C16.85 118.68 40.04 115.55 63.07 115.48 C80.05 115.43 96.95 117.04 114.87 118.14 C124.9 118.75 135.25
						 119.21 136.98 120.87" class="st14"/>
		</g>
		<g id="shape23-74" v:mID="23" v:groupContext="shape" transform="translate(221.227,-41.847)">
			<title>工作表.23</title>
			<desc>OTA.bin</desc>
			<v:userDefs>
				<v:ud v:nameU="msvThemeColors" v:val="VT0(36):26"/>
				<v:ud v:nameU="msvThemeEffects" v:val="VT0(16):26"/>
			</v:userDefs>
			<v:textBlock v:margins="rect(4,4,4,4)" v:tabSpace="42.5197"/>
			<v:textRect cx="59.254" cy="110.72" width="118.51" height="20.3086"/>
			<rect x="0" y="100.565" width="118.508" height="20.3086" class="st15"/>
			<text x="46.21" y="113.12" class="st4" v:langID="2052"><v:paragraph v:horizAlign="1"/><v:tabList/>OTA.bin</text>		</g>
		<g id="shape24-79" v:mID="24" v:groupContext="shape" transform="translate(135.647,-41.847)">
			<title>工作表.24</title>
			<desc>Firmware file header</desc>
			<v:userDefs>
				<v:ud v:nameU="msvThemeColors" v:val="VT0(36):26"/>
				<v:ud v:nameU="msvThemeEffects" v:val="VT0(16):26"/>
			</v:userDefs>
			<v:textBlock v:margins="rect(4,4,4,4)" v:tabSpace="42.5197"/>
			<v:textRect cx="39.247" cy="110.72" width="78.5" height="20.3086"/>
			<rect x="0" y="100.565" width="78.494" height="20.3086" class="st15"/>
			<text x="5.39" y="113.12" class="st4" v:langID="2052"><v:paragraph v:horizAlign="1"/><v:tabList/>Firmware file header</text>		</g>
		<g id="group25-83" transform="translate(398.719,-31.4553)" v:mID="25" v:groupContext="group">
			<v:custProps>
				<v:cp v:nameU="Manufacturer" v:lbl="制造商" v:type="0" v:sortKey="Equipment" v:invis="false" v:ask="false"
						v:langID="2052"/>
				<v:cp v:nameU="ProductNumber" v:lbl="产品编号" v:type="0" v:sortKey="Equipment" v:invis="false" v:ask="false"
						v:langID="2052"/>
				<v:cp v:nameU="PartNumber" v:lbl="部件号" v:type="0" v:sortKey="Equipment" v:invis="false" v:ask="false"
						v:langID="2052"/>
				<v:cp v:nameU="ProductDescription" v:lbl="产品说明" v:type="0" v:sortKey="Equipment" v:invis="false" v:ask="false"
						v:langID="2052"/>
				<v:cp v:nameU="AssetNumber" v:lbl="资产号" v:type="0" v:sortKey="Asset" v:invis="false" v:ask="false" v:langID="2052"/>
				<v:cp v:nameU="SerialNumber" v:lbl="序列号" v:type="0" v:sortKey="Asset" v:invis="false" v:ask="false" v:langID="2052"/>
				<v:cp v:nameU="Location" v:lbl="位置" v:type="0" v:sortKey="Asset" v:invis="false" v:ask="false" v:langID="2052"/>
				<v:cp v:nameU="Building" v:lbl="建筑物" v:type="0" v:sortKey="Asset" v:invis="false" v:ask="false" v:langID="2052"/>
				<v:cp v:nameU="Room" v:lbl="房间" v:type="0" v:sortKey="Asset" v:invis="false" v:ask="false" v:langID="2052"/>
				<v:cp v:nameU="Department" v:lbl="部门" v:type="0" v:invis="false" v:ask="false" v:langID="2052"/>
				<v:cp v:nameU="NetworkName" v:lbl="网络名称" v:type="0" v:sortKey="Network" v:invis="false" v:ask="false"
						v:langID="2052"/>
				<v:cp v:nameU="IPAddress" v:lbl="IP 地址" v:type="0" v:sortKey="Network" v:invis="false" v:ask="false"
						v:langID="2052"/>
				<v:cp v:nameU="SubnetMask" v:lbl="子网掩码" v:type="0" v:sortKey="Network" v:invis="false" v:ask="false"
						v:langID="2052"/>
				<v:cp v:nameU="AdminInterface" v:lbl="管理接口" v:type="0" v:sortKey="Network" v:invis="false" v:ask="false"
						v:langID="2052"/>
				<v:cp v:nameU="NumberOfPorts" v:lbl="端口数目" v:type="0" v:sortKey="Network" v:invis="false" v:ask="false"
						v:langID="2052"/>
				<v:cp v:nameU="CommunityString" v:lbl="团体字符串" v:type="0" v:sortKey="Network" v:invis="false" v:ask="false"
						v:langID="2052"/>
				<v:cp v:nameU="NetworkDescription" v:lbl="网络说明" v:type="0" v:sortKey="Network" v:invis="false" v:ask="false"
						v:langID="2052"/>
				<v:cp v:nameU="CPU" v:lbl="CPU" v:type="0" v:sortKey="Workstation" v:invis="false" v:ask="false" v:langID="2052"/>
				<v:cp v:nameU="Memory" v:lbl="内存" v:type="0" v:sortKey="Workstation" v:invis="false" v:ask="false" v:langID="2052"/>
				<v:cp v:nameU="OperatingSystem" v:lbl="操作系统" v:type="0" v:sortKey="Workstation" v:invis="false" v:ask="false"
						v:langID="2052"/>
				<v:cp v:nameU="BelongsTo" v:lbl="属于" v:type="0" v:invis="true" v:ask="false" v:langID="2052"/>
				<v:cp v:nameU="ShapeClass" v:lbl="ShapeClass" v:type="0" v:invis="true" v:ask="false" v:langID="2052"
						v:val="VT4(设备)"/>
				<v:cp v:nameU="ShapeType" v:lbl="ShapeType" v:type="0" v:invis="true" v:ask="false" v:langID="2052"
						v:val="VT4(计算机)"/>
				<v:cp v:nameU="SubShapeType" v:lbl="SubShapeType" v:type="0" v:invis="true" v:ask="false" v:langID="2052"
						v:val="VT4(桌面)"/>
				<v:cp v:nameU="MACAddress" v:lbl="MAC 地址" v:type="0" v:sortKey="Network" v:invis="false" v:ask="false"
						v:langID="2052"/>
				<v:cp v:nameU="HardDriveSize" v:lbl="硬盘容量" v:type="0" v:sortKey="Workstation" v:invis="false" v:ask="false"
						v:langID="2052"/>
			</v:custProps>
			<v:userDefs>
				<v:ud v:nameU="HasText" v:val="VT0(0):5"/>
				<v:ud v:nameU="ShapeClass" v:val="VT0(5):26"/>
				<v:ud v:nameU="ShapeType" v:val="VT0(6):26"/>
				<v:ud v:nameU="SubShapeType" v:val="VT0(17):26"/>
				<v:ud v:nameU="SolSH" v:val="VT15({BF0433D9-CD73-4EB5-8390-8653BE590246}):41"/>
				<v:ud v:nameU="visLegendShape" v:val="VT0(2):26"/>
				<v:ud v:nameU="visVersion" v:prompt="" v:val="VT0(14):26"/>
				<v:ud v:nameU="msvThemeColors" v:val="VT0(36):26"/>
				<v:ud v:nameU="msvThemeEffects" v:val="VT0(16):26"/>
			</v:userDefs>
			<title>PC.1028</title>
			<g id="shape26-84" v:mID="26" v:groupContext="shape">
				<title>工作表.26</title>
				<v:userDefs>
					<v:ud v:nameU="msvThemeColors" v:val="VT0(36):26"/>
					<v:ud v:nameU="msvThemeEffects" v:val="VT0(16):26"/>
				</v:userDefs>
				<path d="M35.94 95.3 L35.94 86.56 L25.93 80.73 L21.33 82.05 L18.17 80.2 L14.48 81.65 L14.48 95.48 L10.99 97.55 L10.99
							 103.91 A35.3954 35.626 -180 0 0 26.33 112.79 L40.68 104.44 L40.68 98.08 L35.94 95.3 ZM0 110.01 L0 111.86
							 L15.53 120.87 L22.77 116.63 L22.77 114.25 L6.98 105.11 L0 110.01 Z" class="st16"/>
			</g>
			<g id="shape27-86" v:mID="27" v:groupContext="shape" transform="translate(15.534,-4.26326E-14)">
				<title>工作表.27</title>
				<v:userDefs>
					<v:ud v:nameU="msvThemeColors" v:val="VT0(36):26"/>
					<v:ud v:nameU="msvThemeEffects" v:val="VT0(16):26"/>
				</v:userDefs>
				<path d="M0 120.87 L0 119.04 L7.24 114.25 L7.24 116.63 L0 120.87 Z" class="st17"/>
			</g>
			<g id="shape28-92" v:mID="28" v:groupContext="shape" transform="translate(2.07834E-13,-1.83815)">
				<title>工作表.28</title>
				<v:userDefs>
					<v:ud v:nameU="msvThemeColors" v:val="VT0(36):26"/>
					<v:ud v:nameU="msvThemeEffects" v:val="VT0(16):26"/>
				</v:userDefs>
				<path d="M0 111.85 L6.98 106.94 L22.77 116.09 L15.53 120.87 L0 111.85 Z" class="st18"/>
			</g>
			<g id="shape29-96" v:mID="29" v:groupContext="shape" transform="translate(10.9922,-14.4518)">
				<title>工作表.29</title>
				<v:userDefs>
					<v:ud v:nameU="msvThemeColors" v:val="VT0(36):26"/>
					<v:ud v:nameU="msvThemeEffects" v:val="VT0(16):26"/>
				</v:userDefs>
				<path d="M15.34 120.87 L29.69 112.54 L14.28 103.53 L0 112.01 A36.1951 36.4309 -180 0 0 15.34 120.87 Z" class="st18"/>
			</g>
			<g id="shape30-99" v:mID="30" v:groupContext="shape" transform="translate(27.3819,-16.9602)">
				<title>工作表.30</title>
				<v:userDefs>
					<v:ud v:nameU="msvThemeColors" v:val="VT0(36):26"/>
					<v:ud v:nameU="msvThemeEffects" v:val="VT0(16):26"/>
				</v:userDefs>
				<path d="M0 120.87 L0 106.03 L3.01 104.27 L2.9 118.36 L0 120.87 Z" class="st17"/>
			</g>
			<g id="shape31-102" v:mID="31" v:groupContext="shape" transform="translate(30.278,-20.9352)">
				<title>工作表.31</title>
				<v:userDefs>
					<v:ud v:nameU="msvThemeColors" v:val="VT0(36):26"/>
					<v:ud v:nameU="msvThemeEffects" v:val="VT0(16):26"/>
				</v:userDefs>
				<path d="M0.11 109.63 L5.66 107.49 L5.66 116.24 L0 120.87 L0.11 109.63 Z" class="st17"/>
			</g>
			<g id="shape32-105" v:mID="32" v:groupContext="shape" transform="translate(21.3263,-32.1769)">
				<title>工作表.32</title>
				<v:userDefs>
					<v:ud v:nameU="msvThemeColors" v:val="VT0(36):26"/>
					<v:ud v:nameU="msvThemeEffects" v:val="VT0(16):26"/>
				</v:userDefs>
				<path d="M9.06 120.87 L9.07 119.49 L0 114.23 L4.61 112.9 L14.61 118.73 L9.06 120.87 Z" class="st18"/>
			</g>
			<g id="shape33-108" v:mID="33" v:groupContext="shape" transform="translate(26.3287,-8.08258)">
				<title>工作表.33</title>
				<v:userDefs>
					<v:ud v:nameU="msvThemeColors" v:val="VT0(36):26"/>
					<v:ud v:nameU="msvThemeEffects" v:val="VT0(16):26"/>
				</v:userDefs>
				<path d="M0 114.5 L14.35 106.17 L14.35 112.53 L0 120.87 L0 114.5 Z" class="st17"/>
			</g>
			<g id="shape34-111" v:mID="34" v:groupContext="shape" transform="translate(14.4808,-31.8003)">
				<title>工作表.34</title>
				<v:userDefs>
					<v:ud v:nameU="msvThemeColors" v:val="VT0(36):26"/>
					<v:ud v:nameU="msvThemeEffects" v:val="VT0(16):26"/>
				</v:userDefs>
				<path d="M0 113.45 L3.69 112 L6.85 113.85 L15.92 119.12 L12.9 120.87 A36.1247 36.3601 0 0 1 -0 113.45 Z"
						class="st18"/>
			</g>
			<g id="shape35-114" v:mID="35" v:groupContext="shape">
				<title>工作表.35</title>
				<v:userDefs>
					<v:ud v:nameU="msvThemeColors" v:val="VT0(36):26"/>
					<v:ud v:nameU="msvThemeEffects" v:val="VT0(16):26"/>
				</v:userDefs>
				<path d="M0 110.01 L15.53 119.04 L15.53 120.87 L0 111.86 L0 110.01 Z" class="st19"/>
			</g>
			<g id="group36-120" transform="translate(1.6917,-2.78291)" v:mID="36" v:groupContext="group">
				<v:userDefs>
					<v:ud v:nameU="msvThemeColors" v:val="VT0(36):26"/>
					<v:ud v:nameU="msvThemeEffects" v:val="VT0(16):26"/>
				</v:userDefs>
				<title>工作表.36</title>
				<g id="shape37-121" v:mID="37" v:groupContext="shape" transform="translate(0,-0.271221)">
					<title>工作表.37</title>
					<v:userDefs>
						<v:ud v:nameU="msvThemeColors" v:val="VT0(36):26"/>
						<v:ud v:nameU="msvThemeEffects" v:val="VT0(16):26"/>
					</v:userDefs>
					<path d="M0 112.55 L1.14 113.23 L2.09 112.6 L0.95 111.93 L0 112.55 ZM1.41 111.6 L2.55 112.28 L3.5 111.65 L2.36
								 110.98 L1.41 111.6 ZM2.82 110.65 L3.96 111.33 L4.91 110.7 L3.77 110.03 L2.82 110.65 ZM4.23 109.7
								 L5.37 110.38 L6.32 109.76 L5.18 109.08 L4.23 109.7 ZM6.35 110.98 L7.48 111.65 L8.43 111.03 L7.3
								 110.35 L6.35 110.98 ZM8.46 112.25 L9.6 112.93 L10.55 112.3 L9.41 111.63 L8.46 112.25 ZM10.58 113.52
								 L11.72 114.2 L12.66 113.58 L11.53 112.9 L10.58 113.52 ZM14.81 116.07 L15.95 116.75 L16.9 116.13
								 L15.76 115.45 L14.81 116.07 ZM16.92 117.35 L18.06 118.03 L19.01 117.4 L17.87 116.72 L16.92 117.35
								 ZM15.51 118.3 L16.65 118.98 L17.6 118.35 L16.46 117.67 L15.51 118.3 ZM13.4 117.02 L14.54 117.7 L15.48
								 117.08 L14.35 116.4 L13.4 117.02 ZM12.69 114.8 L13.83 115.48 L14.78 114.85 L13.64 114.18 L12.69
								 114.8 ZM11.28 115.75 L12.42 116.43 L13.37 115.8 L12.23 115.12 L11.28 115.75 ZM9.17 114.47 L10.31
								 115.15 L11.25 114.53 L10.12 113.85 L9.17 114.47 ZM7.05 113.2 L8.19 113.88 L9.14 113.25 L8 112.58
								 L7.05 113.2 ZM4.94 111.92 L6.07 112.6 L7.02 111.98 L5.88 111.3 L4.94 111.92 ZM3.53 112.87 L4.66
								 113.55 L5.61 112.93 L4.47 112.25 L3.53 112.87 ZM5.64 114.15 L6.78 114.83 L7.73 114.2 L6.59 113.52
								 L5.64 114.15 ZM7.76 115.42 L8.89 116.1 L9.84 115.48 L8.71 114.8 L7.76 115.42 ZM9.87 116.7 L11.01
								 117.38 L11.96 116.75 L10.82 116.07 L9.87 116.7 ZM11.99 117.97 L13.13 118.65 L14.07 118.03 L12.94
								 117.35 L11.99 117.97 ZM14.1 119.25 L15.24 119.92 L16.19 119.3 L15.05 118.62 L14.1 119.25 ZM12.69
								 120.2 L13.83 120.87 L14.78 120.25 L13.64 119.57 L12.69 120.2 ZM10.58 118.92 L11.71 119.6 L12.66
								 118.98 L11.53 118.3 L10.58 118.92 ZM4.23 115.1 L9.6 118.32 L10.55 117.7 L5.18 114.47 L4.23 115.1
								 ZM2.12 113.82 L3.25 114.5 L4.2 113.88 L3.06 113.2 L2.12 113.82 Z" class="st20"/>
				</g>
				<g id="shape38-123" v:mID="38" v:groupContext="shape" transform="translate(0.000447385,7.10543E-14)">
					<title>工作表.38</title>
					<v:userDefs>
						<v:ud v:nameU="msvThemeColors" v:val="VT0(36):26"/>
						<v:ud v:nameU="msvThemeEffects" v:val="VT0(16):26"/>
					</v:userDefs>
					<path d="M4.23 109.7 L5.37 110.38 L5.37 110.11 L4.23 109.43 L4.23 109.7 ZM6.35 110.98 L7.49 111.65 L7.49 111.38
								 L6.35 110.7 L6.35 110.98 ZM8.46 112.25 L9.6 112.93 L9.6 112.66 L8.46 111.98 L8.46 112.25 ZM10.58
								 113.52 L11.72 114.2 L11.72 113.93 L10.58 113.25 L10.58 113.52 ZM12.69 114.8 L13.83 115.48 L13.83
								 115.21 L12.69 114.53 L12.69 114.8 ZM14.81 116.07 L15.95 116.75 L15.95 116.48 L14.81 115.8 L14.81
								 116.07 ZM5.37 110.11 L5.37 110.38 L6.32 109.75 L6.32 109.48 L5.37 110.11 ZM7.48 111.38 L7.48 111.65
								 L8.43 111.03 L8.43 110.76 L7.48 111.38 ZM9.6 112.66 L9.6 112.93 L10.55 112.3 L10.55 112.03 L9.6
								 112.66 ZM11.71 113.93 L11.72 114.2 L12.66 113.58 L12.66 113.31 L11.71 113.93 ZM13.83 115.21 L13.83
								 115.48 L14.78 114.85 L14.78 114.58 L13.83 115.21 ZM15.95 116.48 L15.95 116.75 L16.89 116.13 L16.89
								 115.86 L15.95 116.48 ZM16.92 117.35 L18.06 118.03 L18.06 117.75 L16.92 117.08 L16.92 117.35 ZM18.06
								 117.75 L18.06 118.03 L19.01 117.4 L19.01 117.13 L18.06 117.75 ZM2.82 110.65 L3.96 111.33 L3.96 111.06
								 L2.82 110.38 L2.82 110.65 ZM4.94 111.92 L6.07 112.6 L6.07 112.33 L4.94 111.65 L4.94 111.92 ZM7.05
								 113.2 L8.19 113.88 L8.19 113.61 L7.05 112.93 L7.05 113.2 ZM9.17 114.47 L10.31 115.15 L10.3 114.88
								 L9.17 114.2 L9.17 114.47 ZM11.28 115.75 L12.42 116.43 L12.42 116.16 L11.28 115.48 L11.28 115.75
								 ZM13.4 117.02 L14.54 117.7 L14.54 117.43 L13.4 116.75 L13.4 117.02 ZM3.96 111.06 L3.96 111.33 L4.91
								 110.7 L4.91 110.43 L3.96 111.06 ZM6.07 112.33 L6.07 112.6 L7.02 111.98 L7.02 111.71 L6.07 112.33
								 ZM8.19 113.61 L8.19 113.88 L9.14 113.25 L9.14 112.98 L8.19 113.61 ZM10.3 114.88 L10.3 115.15 L11.25
								 114.53 L11.25 114.26 L10.3 114.88 ZM12.42 116.15 L12.42 116.43 L13.37 115.8 L13.37 115.53 L12.42
								 116.15 ZM14.54 117.43 L14.54 117.7 L15.48 117.08 L15.48 116.81 L14.54 117.43 ZM15.51 118.3 L16.65
								 118.98 L16.65 118.7 L15.51 118.03 L15.51 118.3 ZM16.65 118.7 L16.65 118.98 L17.6 118.35 L17.6 118.08
								 L16.65 118.7 ZM1.41 111.6 L2.55 112.28 L2.55 112.01 L1.41 111.33 L1.41 111.6 ZM3.53 112.87 L4.66
								 113.55 L4.66 113.28 L3.53 112.6 L3.53 112.87 ZM5.64 114.15 L6.78 114.83 L6.78 114.56 L5.64 113.88
								 L5.64 114.15 ZM7.76 115.42 L8.89 116.1 L8.89 115.83 L7.76 115.15 L7.76 115.42 ZM9.87 116.7 L11.01
								 117.38 L11.01 117.1 L9.87 116.43 L9.87 116.7 ZM11.99 117.97 L13.13 118.65 L13.13 118.38 L11.99 117.7
								 L11.99 117.97 ZM2.55 112.01 L2.55 112.28 L3.5 111.65 L3.5 111.38 L2.55 112.01 ZM4.66 113.28 L4.66
								 113.55 L5.61 112.93 L5.61 112.66 L4.66 113.28 ZM6.78 114.55 L6.78 114.83 L7.73 114.2 L7.73 113.93
								 L6.78 114.55 ZM8.89 115.83 L8.89 116.1 L9.84 115.48 L9.84 115.21 L8.89 115.83 ZM11.01 117.1 L11.01
								 117.38 L11.96 116.75 L11.96 116.48 L11.01 117.1 ZM13.12 118.38 L13.12 118.65 L14.07 118.03 L14.07
								 117.76 L13.12 118.38 ZM14.1 119.25 L15.24 119.92 L15.24 119.65 L14.1 118.98 L14.1 119.25 ZM15.24
								 119.65 L15.24 119.92 L16.19 119.3 L16.19 119.03 L15.24 119.65 ZM0 112.55 L1.14 113.23 L1.14 112.96
								 L0 112.28 L0 112.55 ZM2.12 113.82 L3.25 114.5 L3.25 114.23 L2.12 113.55 L2.12 113.82 ZM4.23 115.1
								 L9.6 118.32 L9.6 118.05 L4.23 114.83 L4.23 115.1 ZM10.58 118.92 L11.71 119.6 L11.71 119.33 L10.58
								 118.65 L10.58 118.92 ZM1.14 112.95 L1.14 113.23 L2.09 112.6 L2.09 112.33 L1.14 112.95 ZM3.25 114.23
								 L3.25 114.5 L4.2 113.88 L4.2 113.61 L3.25 114.23 ZM9.6 118.05 L9.6 118.32 L10.55 117.7 L10.55 117.43
								 L9.6 118.05 ZM11.71 119.33 L11.71 119.6 L12.66 118.98 L12.66 118.7 L11.71 119.33 ZM12.69 120.2 L13.83
								 120.87 L13.83 120.6 L12.69 119.92 L12.69 120.2 ZM13.83 120.6 L13.83 120.87 L14.78 120.25 L14.78
								 119.98 L13.83 120.6 Z" class="st21"/>
				</g>
			</g>
			<g id="shape39-125" v:mID="39" v:groupContext="shape" transform="translate(37.3268,-16.3573)">
				<title>工作表.39</title>
				<v:userDefs>
					<v:ud v:nameU="msvThemeColors" v:val="VT0(36):26"/>
					<v:ud v:nameU="msvThemeEffects" v:val="VT0(16):26"/>
				</v:userDefs>
				<path d="M0.98 116.96 L1.8 116.44 L1.8 119.83 L0.98 120.34 L0.98 116.96 ZM0 117.49 L0.45 117.22 L0.45 120.61 L0 120.87
							 L0 117.49 Z" class="st22"/>
			</g>
			<g id="shape40-127" v:mID="40" v:groupContext="shape" transform="translate(10.9922,-8.08258)">
				<title>工作表.40</title>
				<v:userDefs>
					<v:ud v:nameU="msvThemeColors" v:val="VT0(36):26"/>
					<v:ud v:nameU="msvThemeEffects" v:val="VT0(16):26"/>
				</v:userDefs>
				<path d="M16.39 112 A29.3277 29.5188 0 0 1 3.49 104.71 L3.49 89.74 A35.5442 35.7757 -180 0 0 16.39 97.16 L16.39 112
							 ZM0 112 A35.3954 35.626 -180 0 0 15.34 120.87 L15.34 114.5 A35.6181 35.8502 0 0 1 0 105.64 L0 112 Z"
						class="st23"/>
				<path d="M16.39 112 A29.3277 29.5188 0 0 1 3.49 104.71 L3.49 89.74 A35.5442 35.7757 -180 0 0 16.39 97.16 L16.39 112"
						class="st24"/>
				<path d="M1.12 108.29 A21.0533 20.917 -90 0 0 4.54 111.07" class="st24"/>
				<path d="M1.12 109.21 A21.0533 20.917 -90 0 0 4.54 112" class="st24"/>
				<path d="M1.12 110.14 A21.0533 20.917 -90 0 0 4.54 112.92" class="st24"/>
				<path d="M1.12 111.07 A21.0533 20.917 -90 0 0 4.54 113.85" class="st24"/>
				<path d="M13.49 91.25 L19.55 94.77" class="st24"/>
				<path d="M14.28 91.03 L20.34 94.55" class="st24"/>
				<path d="M15.07 90.81 L21.13 94.33" class="st24"/>
				<path d="M15.86 90.59 L21.92 94.11" class="st24"/>
				<path d="M0 112 A35.3954 35.626 -180 0 0 15.34 120.87 L15.34 114.5 A35.6181 35.8502 0 0 1 0 105.64 L0 112"
						class="st24"/>
			</g>
			<g id="shape41-140" v:mID="41" v:groupContext="shape" transform="translate(16.0605,-19.6337)">
				<title>工作表.41</title>
				<v:userDefs>
					<v:ud v:nameU="msvThemeColors" v:val="VT0(36):26"/>
					<v:ud v:nameU="msvThemeEffects" v:val="VT0(16):26"/>
				</v:userDefs>
				<path d="M0 104.6 L0 115.33 A30.3301 30.1338 -90.11 0 0 9.35 120.87" class="st25"/>
			</g>
			<g id="shape42-144" v:mID="42" v:groupContext="shape">
				<title>工作表.42</title>
				<v:userDefs>
					<v:ud v:nameU="msvThemeColors" v:val="VT0(36):26"/>
					<v:ud v:nameU="msvThemeEffects" v:val="VT0(16):26"/>
				</v:userDefs>
				<path d="M26.33 112.79 L40.68 104.44 L40.68 98.08 L35.94 95.3 L35.94 86.56 L25.93 80.73 L21.33 82.05 L18.17 80.2
							 L14.48 81.65 L14.48 95.57 L10.99 97.55 L10.99 103.91 A36.2395 36.005 -90 0 0 26.33 112.79 ZM0 110.01
							 L6.98 105.11 L22.77 114.25 L22.77 116.63 L15.53 120.87 L0 111.86 L0 110.01 Z" class="st26"/>
			</g>
			<g id="group43-146" transform="translate(19.0883,-10.3351)" v:mID="43" v:groupContext="group">
				<v:userDefs>
					<v:ud v:nameU="msvThemeColors" v:val="VT0(36):26"/>
					<v:ud v:nameU="msvThemeEffects" v:val="VT0(16):26"/>
				</v:userDefs>
				<title>工作表.43</title>
				<g id="shape44-147" v:mID="44" v:groupContext="shape" transform="translate(1.27586,-2.84217E-14)">
					<title>工作表.44</title>
					<v:userDefs>
						<v:ud v:nameU="msvThemeColors" v:val="VT0(36):26"/>
						<v:ud v:nameU="msvThemeEffects" v:val="VT0(16):26"/>
					</v:userDefs>
					<path d="M0.44 118.09 L4.91 119.88 a0.518917 0.522297 0 0 1 -0.131644 0.99376 L0.44 119.15 a0.536095 0.539587
								 0 0 1 -7.49401E-15 -1.06001 Z" class="st27"/>
				</g>
				<g id="shape45-149" v:mID="45" v:groupContext="shape" transform="translate(3.2474E-14,-1.85502)">
					<title>工作表.45</title>
					<v:userDefs>
						<v:ud v:nameU="msvThemeColors" v:val="VT0(36):26"/>
						<v:ud v:nameU="msvThemeEffects" v:val="VT0(16):26"/>
					</v:userDefs>
					<path d="M0 116.9 L6.45 119.55 L6.45 120.87 L0 118.36 L0 116.9 Z" class="st28"/>
				</g>
				<g id="shape46-151" v:mID="46" v:groupContext="shape" transform="translate(3.2474E-14,-1.85502)">
					<title>工作表.46</title>
					<v:userDefs>
						<v:ud v:nameU="msvThemeColors" v:val="VT0(36):26"/>
						<v:ud v:nameU="msvThemeEffects" v:val="VT0(16):26"/>
					</v:userDefs>
					<path d="M0 116.9 L6.45 119.55 L6.45 120.87" class="st29"/>
				</g>
				<g id="shape47-154" v:mID="47" v:groupContext="shape" transform="translate(3.2474E-14,-2.65003)">
					<title>工作表.47</title>
					<v:userDefs>
						<v:ud v:nameU="msvThemeColors" v:val="VT0(36):26"/>
						<v:ud v:nameU="msvThemeEffects" v:val="VT0(16):26"/>
					</v:userDefs>
					<path d="M0 118.22 L6.45 120.87" class="st29"/>
				</g>
				<g id="shape48-157" v:mID="48" v:groupContext="shape" transform="translate(-3.19744E-14,-1.85502)">
					<title>工作表.48</title>
					<v:userDefs>
						<v:ud v:nameU="msvThemeColors" v:val="VT0(36):26"/>
						<v:ud v:nameU="msvThemeEffects" v:val="VT0(16):26"/>
					</v:userDefs>
					<path d="M0 116.9 L0 118.36 L6.45 120.87" class="st30"/>
				</g>
			</g>
			<g id="shape49-160" v:mID="49" v:groupContext="shape" transform="translate(-36.4048,-2.03804) rotate(-30)">
				<title>工作表.49</title>
				<v:userDefs>
					<v:ud v:nameU="msvThemeColors" v:val="VT0(36):26"/>
					<v:ud v:nameU="msvThemeEffects" v:val="VT0(16):26"/>
				</v:userDefs>
				<ellipse cx="0.441471" cy="120.283" rx="0.441471" ry="0.590542" class="st31"/>
			</g>
			<g id="shape50-164" v:mID="50" v:groupContext="shape" transform="translate(16.0605,-19.6337)">
				<title>工作表.50</title>
				<v:userDefs>
					<v:ud v:nameU="msvThemeColors" v:val="VT0(36):26"/>
					<v:ud v:nameU="msvThemeEffects" v:val="VT0(16):26"/>
				</v:userDefs>
				<path d="M0.4 115.08 L0.4 105 L0 104.6 A22.8768 22.7287 -90.48 0 0 9.35 110.16 L9.35 120.87 L9.35 120.4 A28.8988
							 28.7118 91.46 0 1 0.4 115.08 Z" class="st11"/>
			</g>
		</g>
		<g id="shape51-167" v:mID="51" v:groupContext="shape" transform="translate(441.204,-44.492)">
			<title>工作表.51</title>
			<desc>Server</desc>
			<v:userDefs>
				<v:ud v:nameU="msvThemeColors" v:val="VT0(36):26"/>
				<v:ud v:nameU="msvThemeEffects" v:val="VT0(16):26"/>
			</v:userDefs>
			<v:textBlock v:margins="rect(4,4,4,4)" v:tabSpace="42.5197"/>
			<v:textRect cx="16.1533" cy="113.075" width="32.31" height="15.5975"/>
			<rect x="0" y="105.277" width="32.3066" height="15.5975" class="st3"/>
			<text x="5.74" y="115.48" class="st4" v:langID="2052"><v:paragraph v:horizAlign="1"/><v:tabList/>Server</text>		</g>
	</g>
</svg>
