<?xml version="1.0" encoding="UTF-8" standalone="no"?>
<!DOCTYPE svg PUBLIC "-//W3C//DTD SVG 1.1//EN" "http://www.w3.org/Graphics/SVG/1.1/DTD/svg11.dtd">
<!-- 由 Microsoft Visio, SVG Export 生成 Microsoft_Visio___9.svg 页-1 -->
<svg xmlns="http://www.w3.org/2000/svg" xmlns:xlink="http://www.w3.org/1999/xlink" xmlns:ev="http://www.w3.org/2001/xml-events"
		xmlns:v="http://schemas.microsoft.com/visio/2003/SVGExtensions/" width="7.98805in" height="2.80072in"
		viewBox="0 0 575.14 201.652" xml:space="preserve" color-interpolation-filters="sRGB" class="st14">
	<v:documentProperties v:langID="18441" v:metric="true" v:viewMarkup="false"/>

	<style type="text/css">
	<![CDATA[
		.st1 {fill:none;stroke:none;stroke-width:0.25}
		.st2 {fill:#000000;font-family:Calibri;font-size:0.666664em}
		.st3 {fill:#f4b183;stroke:#000000;stroke-width:0.5}
		.st4 {fill:#000000;font-family:Calibri;font-size:0.75em}
		.st5 {fill:#c5e0b3;stroke:#000000;stroke-width:0.5}
		.st6 {fill:#d8d8d8;stroke:#000000;stroke-width:0.5}
		.st7 {fill:none;stroke:#000000;stroke-width:1.5}
		.st8 {fill:#ffffff;stroke:#000000;stroke-width:2.25}
		.st9 {fill:none;stroke:none;stroke-linecap:round;stroke-linejoin:round;stroke-width:0.75}
		.st10 {fill:#000000;stroke:#000000;stroke-linecap:round;stroke-linejoin:round;stroke-width:0.24}
		.st11 {fill:#ffffff;stroke:#000000;stroke-linecap:round;stroke-linejoin:round;stroke-width:0.75}
		.st12 {fill:#000000;font-family:Calibri;font-size:0.833336em}
		.st13 {fill:#ff0000;font-family:Calibri;font-size:0.833336em}
		.st14 {fill:none;fill-rule:evenodd;font-size:12px;overflow:visible;stroke-linecap:square;stroke-miterlimit:3}
	]]>
	</style>

	<g v:mID="0" v:index="1" v:groupContext="foregroundPage">
		<title>页-1</title>
		<v:pageProperties v:drawingScale="1" v:pageScale="1" v:drawingUnits="19" v:shadowOffsetX="8.50394"
				v:shadowOffsetY="-8.50394"/>
		<g id="shape18-1" v:mID="18" v:groupContext="shape" transform="translate(120.265,-0.547973)">
			<title>工作表.18</title>
			<desc>0x00000000</desc>
			<v:textBlock v:margins="rect(4,4,4,4)"/>
			<v:textRect cx="25.534" cy="197.4" width="51.07" height="8.50394"/>
			<rect x="0" y="193.148" width="51.0679" height="8.50394" class="st1"/>
			<text x="7.11" y="199.8" class="st2" v:langID="18441"><v:paragraph v:horizAlign="2"/><v:tabList/>0x00000000</text>		</g>
		<g id="shape19-4" v:mID="19" v:groupContext="shape" transform="translate(120.265,-33.8137)">
			<title>工作表.19</title>
			<desc>0x20000000</desc>
			<v:textBlock v:margins="rect(4,4,4,4)"/>
			<v:textRect cx="25.534" cy="197.4" width="51.07" height="8.50394"/>
			<rect x="0" y="193.148" width="51.0679" height="8.50394" class="st1"/>
			<text x="7.11" y="199.8" class="st2" v:langID="18441"><v:paragraph v:horizAlign="2"/><v:tabList/>0x20000000</text>		</g>
		<g id="shape20-7" v:mID="20" v:groupContext="shape" transform="translate(120.265,-66.923)">
			<title>工作表.20</title>
			<desc>0x40000000</desc>
			<v:textBlock v:margins="rect(4,4,4,4)"/>
			<v:textRect cx="25.534" cy="197.4" width="51.07" height="8.50394"/>
			<rect x="0" y="193.148" width="51.0679" height="8.50394" class="st1"/>
			<text x="7.11" y="199.8" class="st2" v:langID="18441"><v:paragraph v:horizAlign="2"/><v:tabList/>0x40000000</text>		</g>
		<g id="shape21-10" v:mID="21" v:groupContext="shape" transform="translate(120.265,-100.044)">
			<title>工作表.21</title>
			<desc>0x60000000</desc>
			<v:textBlock v:margins="rect(4,4,4,4)"/>
			<v:textRect cx="25.534" cy="197.4" width="51.07" height="8.50394"/>
			<rect x="0" y="193.148" width="51.0679" height="8.50394" class="st1"/>
			<text x="7.11" y="199.8" class="st2" v:langID="18441"><v:paragraph v:horizAlign="2"/><v:tabList/>0x60000000</text>		</g>
		<g id="shape25-13" v:mID="25" v:groupContext="shape" transform="translate(173.437,-4.28351)">
			<title>矩形.55</title>
			<desc>Non-secure</desc>
			<v:userDefs>
				<v:ud v:nameU="visVersion" v:val="VT0(15):26"/>
			</v:userDefs>
			<v:textBlock v:margins="rect(4,4,4,4)"/>
			<v:textRect cx="38.7573" cy="193.286" width="77.52" height="16.7321"/>
			<rect x="0" y="184.92" width="77.5147" height="16.7321" class="st3"/>
			<text x="17.66" y="195.99" class="st4" v:langID="2052"><v:paragraph v:horizAlign="1"/><v:tabList/>Non-secure</text>		</g>
		<g id="shape26-16" v:mID="26" v:groupContext="shape" transform="translate(173.437,-20.8115)">
			<title>矩形.56</title>
			<desc>Secure</desc>
			<v:userDefs>
				<v:ud v:nameU="visVersion" v:val="VT0(15):26"/>
			</v:userDefs>
			<v:textBlock v:margins="rect(4,4,4,4)"/>
			<v:textRect cx="38.7573" cy="193.286" width="77.52" height="16.7321"/>
			<rect x="0" y="184.92" width="77.5147" height="16.7321" class="st5"/>
			<text x="26.38" y="195.99" class="st4" v:langID="2052"><v:paragraph v:horizAlign="1"/><v:tabList/>Secure</text>		</g>
		<g id="shape27-19" v:mID="27" v:groupContext="shape" transform="translate(173.437,-37.5707)">
			<title>矩形.57</title>
			<desc>Non-secure</desc>
			<v:userDefs>
				<v:ud v:nameU="visVersion" v:val="VT0(15):26"/>
			</v:userDefs>
			<v:textBlock v:margins="rect(4,4,4,4)"/>
			<v:textRect cx="38.7573" cy="193.286" width="77.52" height="16.7321"/>
			<rect x="0" y="184.92" width="77.5147" height="16.7321" class="st3"/>
			<text x="17.66" y="195.99" class="st4" v:langID="2052"><v:paragraph v:horizAlign="1"/><v:tabList/>Non-secure</text>		</g>
		<g id="shape28-22" v:mID="28" v:groupContext="shape" transform="translate(173.437,-54.0987)">
			<title>矩形.58</title>
			<desc>Secure</desc>
			<v:userDefs>
				<v:ud v:nameU="visVersion" v:val="VT0(15):26"/>
			</v:userDefs>
			<v:textBlock v:margins="rect(4,4,4,4)"/>
			<v:textRect cx="38.7573" cy="193.286" width="77.52" height="16.7321"/>
			<rect x="0" y="184.92" width="77.5147" height="16.7321" class="st5"/>
			<text x="26.38" y="195.99" class="st4" v:langID="2052"><v:paragraph v:horizAlign="1"/><v:tabList/>Secure</text>		</g>
		<g id="shape29-25" v:mID="29" v:groupContext="shape" transform="translate(173.437,-71.6122)">
			<title>矩形.148</title>
			<desc>Non-secure</desc>
			<v:userDefs>
				<v:ud v:nameU="visVersion" v:val="VT0(15):26"/>
			</v:userDefs>
			<v:textBlock v:margins="rect(4,4,4,4)"/>
			<v:textRect cx="38.7573" cy="193.286" width="77.52" height="16.7321"/>
			<rect x="0" y="184.92" width="77.5147" height="16.7321" class="st3"/>
			<text x="17.66" y="195.99" class="st4" v:langID="2052"><v:paragraph v:horizAlign="1"/><v:tabList/>Non-secure</text>		</g>
		<g id="shape30-28" v:mID="30" v:groupContext="shape" transform="translate(173.437,-88.1402)">
			<title>矩形.149</title>
			<desc>Secure</desc>
			<v:userDefs>
				<v:ud v:nameU="visVersion" v:val="VT0(15):26"/>
			</v:userDefs>
			<v:textBlock v:margins="rect(4,4,4,4)"/>
			<v:textRect cx="38.7573" cy="193.286" width="77.52" height="16.7321"/>
			<rect x="0" y="184.92" width="77.5147" height="16.7321" class="st5"/>
			<text x="26.38" y="195.99" class="st4" v:langID="2052"><v:paragraph v:horizAlign="1"/><v:tabList/>Secure</text>		</g>
		<g id="shape32-31" v:mID="32" v:groupContext="shape" transform="translate(173.707,-138.107)">
			<title>矩形.62</title>
			<desc>RSVD</desc>
			<v:userDefs>
				<v:ud v:nameU="visVersion" v:val="VT0(15):26"/>
			</v:userDefs>
			<v:textBlock v:margins="rect(4,4,4,4)"/>
			<v:textRect cx="38.7573" cy="176.205" width="77.52" height="50.8935"/>
			<rect x="0" y="150.758" width="77.5147" height="50.8935" class="st6"/>
			<text x="28.92" y="178.9" class="st4" v:langID="2052"><v:paragraph v:horizAlign="1"/><v:tabList/>RSVD</text>		</g>
		<g id="shape33-34" v:mID="33" v:groupContext="shape" transform="translate(173.454,-104.846)">
			<title>矩形.63</title>
			<desc>Non-secure</desc>
			<v:userDefs>
				<v:ud v:nameU="visVersion" v:val="VT0(15):26"/>
			</v:userDefs>
			<v:textBlock v:margins="rect(4,4,4,4)"/>
			<v:textRect cx="38.7573" cy="193.286" width="77.52" height="16.7321"/>
			<rect x="0" y="184.92" width="77.5147" height="16.7321" class="st3"/>
			<text x="17.66" y="195.99" class="st4" v:langID="2052"><v:paragraph v:horizAlign="1"/><v:tabList/>Non-secure</text>		</g>
		<g id="shape34-37" v:mID="34" v:groupContext="shape" transform="translate(173.623,-121.374)">
			<title>矩形.64</title>
			<desc>Secure</desc>
			<v:userDefs>
				<v:ud v:nameU="visVersion" v:val="VT0(15):26"/>
			</v:userDefs>
			<v:textBlock v:margins="rect(4,4,4,4)"/>
			<v:textRect cx="38.7573" cy="193.286" width="77.52" height="16.7321"/>
			<rect x="0" y="184.92" width="77.5147" height="16.7321" class="st5"/>
			<text x="26.38" y="195.99" class="st4" v:langID="2052"><v:paragraph v:horizAlign="1"/><v:tabList/>Secure</text>		</g>
		<g id="shape41-40" v:mID="41" v:groupContext="shape" transform="translate(173.392,-4.64191)">
			<title>矩形.50</title>
			<v:userDefs>
				<v:ud v:nameU="visVersion" v:val="VT0(15):26"/>
			</v:userDefs>
			<rect x="0" y="17.2834" width="77.5147" height="184.368" class="st7"/>
		</g>
		<g id="shape42-42" v:mID="42" v:groupContext="shape" transform="translate(173.437,-71.3827)">
			<title>矩形.51</title>
			<v:userDefs>
				<v:ud v:nameU="visVersion" v:val="VT0(15):26"/>
			</v:userDefs>
			<rect x="0" y="168.188" width="77.5147" height="33.4641" class="st7"/>
		</g>
		<g id="shape43-44" v:mID="43" v:groupContext="shape" transform="translate(173.437,-37.9536)">
			<title>矩形.52</title>
			<v:userDefs>
				<v:ud v:nameU="visVersion" v:val="VT0(15):26"/>
			</v:userDefs>
			<rect x="0" y="168.188" width="77.5147" height="33.4641" class="st7"/>
		</g>
		<g id="shape44-46" v:mID="44" v:groupContext="shape" transform="translate(173.437,-4.64191)">
			<title>矩形.53</title>
			<v:userDefs>
				<v:ud v:nameU="visVersion" v:val="VT0(15):26"/>
			</v:userDefs>
			<rect x="0" y="168.188" width="77.5147" height="33.4641" class="st7"/>
		</g>
		<g id="shape45-48" v:mID="45" v:groupContext="shape" transform="translate(120.265,-16.4257)">
			<title>工作表.45</title>
			<desc>0x10000000</desc>
			<v:textBlock v:margins="rect(4,4,4,4)"/>
			<v:textRect cx="25.534" cy="197.4" width="51.07" height="8.50394"/>
			<rect x="0" y="193.148" width="51.0679" height="8.50394" class="st1"/>
			<text x="7.11" y="199.8" class="st2" v:langID="18441"><v:paragraph v:horizAlign="2"/><v:tabList/>0x10000000</text>		</g>
		<g id="shape46-51" v:mID="46" v:groupContext="shape" transform="translate(120.265,-50.048)">
			<title>工作表.46</title>
			<desc>0x30000000</desc>
			<v:textBlock v:margins="rect(4,4,4,4)"/>
			<v:textRect cx="25.534" cy="197.4" width="51.07" height="8.50394"/>
			<rect x="0" y="193.148" width="51.0679" height="8.50394" class="st1"/>
			<text x="7.11" y="199.8" class="st2" v:langID="18441"><v:paragraph v:horizAlign="2"/><v:tabList/>0x30000000</text>		</g>
		<g id="shape47-54" v:mID="47" v:groupContext="shape" transform="translate(120.265,-83.798)">
			<title>工作表.47</title>
			<desc>0x50000000</desc>
			<v:textBlock v:margins="rect(4,4,4,4)"/>
			<v:textRect cx="25.534" cy="197.4" width="51.07" height="8.50394"/>
			<rect x="0" y="193.148" width="51.0679" height="8.50394" class="st1"/>
			<text x="7.11" y="199.8" class="st2" v:langID="18441"><v:paragraph v:horizAlign="2"/><v:tabList/>0x50000000</text>		</g>
		<g id="shape48-57" v:mID="48" v:groupContext="shape" transform="translate(120.265,-116.919)">
			<title>工作表.48</title>
			<desc>0x70000000</desc>
			<v:textBlock v:margins="rect(4,4,4,4)"/>
			<v:textRect cx="25.534" cy="197.4" width="51.07" height="8.50394"/>
			<rect x="0" y="193.148" width="51.0679" height="8.50394" class="st1"/>
			<text x="7.11" y="199.8" class="st2" v:langID="18441"><v:paragraph v:horizAlign="2"/><v:tabList/>0x70000000</text>		</g>
		<g id="shape49-60" v:mID="49" v:groupContext="shape" transform="translate(120.265,-133.794)">
			<title>工作表.49</title>
			<desc>0x80000000</desc>
			<v:textBlock v:margins="rect(4,4,4,4)"/>
			<v:textRect cx="25.534" cy="197.4" width="51.07" height="8.50394"/>
			<rect x="0" y="193.148" width="51.0679" height="8.50394" class="st1"/>
			<text x="7.11" y="199.8" class="st2" v:langID="18441"><v:paragraph v:horizAlign="2"/><v:tabList/>0x80000000</text>		</g>
		<g id="shape60-63" v:mID="60" v:groupContext="shape" transform="translate(2.25,-4.63163)">
			<title>矩形.21</title>
			<v:userDefs>
				<v:ud v:nameU="visVersion" v:val="VT0(15):26"/>
			</v:userDefs>
			<rect x="0" y="17.2834" width="77.5147" height="184.368" class="st8"/>
		</g>
		<g id="shape98-65" v:mID="98" v:groupContext="shape" transform="translate(173.707,-192)">
			<title>工作表.98</title>
			<desc>IDAU</desc>
			<v:textBlock v:margins="rect(4,4,4,4)"/>
			<v:textRect cx="38.7573" cy="197.4" width="77.52" height="8.50394"/>
			<rect x="0" y="193.148" width="77.5147" height="8.50394" class="st9"/>
			<text x="29.36" y="200.1" class="st4" v:langID="18441"><v:paragraph v:horizAlign="1"/><v:tabList/>IDAU</text>		</g>
		<g id="shape99-68" v:mID="99" v:groupContext="shape" transform="translate(1.01467,-192)">
			<title>工作表.99</title>
			<desc>SAU</desc>
			<v:textBlock v:margins="rect(4,4,4,4)"/>
			<v:textRect cx="38.7573" cy="197.4" width="77.52" height="8.50394"/>
			<rect x="0" y="193.148" width="77.5147" height="8.50394" class="st9"/>
			<text x="31.2" y="200.1" class="st4" v:langID="18441"><v:paragraph v:horizAlign="1"/><v:tabList/>SAU</text>		</g>
		<g id="shape100-71" v:mID="100" v:groupContext="shape" transform="translate(88.7647,-90.9745)">
			<title>加号</title>
			<v:userDefs>
				<v:ud v:nameU="visVersion" v:prompt="" v:val="VT0(15):26"/>
			</v:userDefs>
			<path d="M14.76 186.89 L14.76 179.51 L9.84 179.51 L9.84 186.89 L2.46 186.89 L2.46 191.81 L9.84 191.81 L9.84 199.19 L14.76
						 199.19 L14.76 191.81 L22.14 191.81 L22.14 186.89 L14.76 186.89 Z" class="st10"/>
		</g>
		<g id="shape101-73" v:mID="101" v:groupContext="shape" transform="translate(292.493,-4.63163)">
			<title>矩形.215</title>
			<v:userDefs>
				<v:ud v:nameU="visVersion" v:val="VT0(15):26"/>
			</v:userDefs>
			<rect x="0" y="17.2834" width="77.5147" height="184.368" class="st8"/>
		</g>
		<g id="shape102-75" v:mID="102" v:groupContext="shape" transform="translate(292.493,-192)">
			<title>工作表.102</title>
			<desc>End result</desc>
			<v:textBlock v:margins="rect(4,4,4,4)"/>
			<v:textRect cx="38.7573" cy="197.4" width="77.52" height="8.50394"/>
			<rect x="0" y="193.148" width="77.5147" height="8.50394" class="st9"/>
			<text x="20.34" y="200.1" class="st4" v:langID="18441"><v:paragraph v:horizAlign="1"/><v:tabList/>End result</text>		</g>
		<g id="shape103-78" v:mID="103" v:groupContext="shape" transform="translate(283.84,-92.4074) scale(-1,1)">
			<title>45 度单向箭头</title>
			<v:userDefs>
				<v:ud v:nameU="visVersion" v:val="VT0(14):26"/>
			</v:userDefs>
			<path d="M0 191.14 L10.52 180.62 L10.52 187.56 L26.45 187.56 L26.45 194.71 L10.52 194.71 L10.52 201.65 L0 191.14 Z"
					class="st10"/>
		</g>
		<g id="shape104-80" v:mID="104" v:groupContext="shape" transform="translate(402.107,-151.569)">
			<title>工作表.104</title>
			<desc>S</desc>
			<v:textBlock v:margins="rect(4,4,4,4)"/>
			<v:textRect cx="15.5906" cy="188.896" width="31.19" height="25.5118"/>
			<rect x="0" y="176.14" width="31.1811" height="25.5118" class="st11"/>
			<text x="13.29" y="191.9" class="st12" v:langID="18441"><v:paragraph v:horizAlign="1"/><v:tabList/>S</text>		</g>
		<g id="shape105-83" v:mID="105" v:groupContext="shape" transform="translate(402.107,-116.136)">
			<title>工作表.105</title>
			<desc>NS</desc>
			<v:textBlock v:margins="rect(4,4,4,4)"/>
			<v:textRect cx="15.5906" cy="188.896" width="31.19" height="25.5118"/>
			<rect x="0" y="176.14" width="31.1811" height="25.5118" class="st11"/>
			<text x="10.07" y="191.9" class="st12" v:langID="18441"><v:paragraph v:horizAlign="1"/><v:tabList/>NS</text>		</g>
		<g id="shape106-86" v:mID="106" v:groupContext="shape" transform="translate(402.107,-80.7026)">
			<title>工作表.106</title>
			<desc>S</desc>
			<v:textBlock v:margins="rect(4,4,4,4)"/>
			<v:textRect cx="15.5906" cy="188.896" width="31.19" height="25.5118"/>
			<rect x="0" y="176.14" width="31.1811" height="25.5118" class="st11"/>
			<text x="13.29" y="191.9" class="st12" v:langID="18441"><v:paragraph v:horizAlign="1"/><v:tabList/>S</text>		</g>
		<g id="shape107-89" v:mID="107" v:groupContext="shape" transform="translate(402.107,-45.2696)">
			<title>工作表.107</title>
			<desc>NS</desc>
			<v:textBlock v:margins="rect(4,4,4,4)"/>
			<v:textRect cx="15.5906" cy="188.896" width="31.19" height="25.5118"/>
			<rect x="0" y="176.14" width="31.1811" height="25.5118" class="st11"/>
			<text x="10.07" y="191.9" class="st12" v:langID="18441"><v:paragraph v:horizAlign="1"/><v:tabList/>NS</text>		</g>
		<g id="shape108-92" v:mID="108" v:groupContext="shape" transform="translate(402.107,-9.83649)">
			<title>工作表.108</title>
			<desc>NSC</desc>
			<v:textBlock v:margins="rect(4,4,4,4)"/>
			<v:textRect cx="15.5906" cy="188.896" width="31.19" height="25.5118"/>
			<rect x="0" y="176.14" width="31.1811" height="25.5118" class="st11"/>
			<text x="7.4" y="191.9" class="st13" v:langID="18441"><v:paragraph v:horizAlign="1"/><v:tabList/>NSC</text>		</g>
		<g id="shape109-95" v:mID="109" v:groupContext="shape" transform="translate(468.721,-151.569)">
			<title>工作表.109</title>
			<desc>S</desc>
			<v:textBlock v:margins="rect(4,4,4,4)"/>
			<v:textRect cx="15.5906" cy="188.896" width="31.19" height="25.5118"/>
			<rect x="0" y="176.14" width="31.1811" height="25.5118" class="st11"/>
			<text x="13.29" y="191.9" class="st12" v:langID="18441"><v:paragraph v:horizAlign="1"/><v:tabList/>S</text>		</g>
		<g id="shape110-98" v:mID="110" v:groupContext="shape" transform="translate(468.721,-116.136)">
			<title>工作表.110</title>
			<desc>S</desc>
			<v:textBlock v:margins="rect(4,4,4,4)"/>
			<v:textRect cx="15.5906" cy="188.896" width="31.19" height="25.5118"/>
			<rect x="0" y="176.14" width="31.1811" height="25.5118" class="st11"/>
			<text x="13.29" y="191.9" class="st12" v:langID="18441"><v:paragraph v:horizAlign="1"/><v:tabList/>S</text>		</g>
		<g id="shape111-101" v:mID="111" v:groupContext="shape" transform="translate(468.721,-80.7026)">
			<title>工作表.111</title>
			<desc>NS</desc>
			<v:textBlock v:margins="rect(4,4,4,4)"/>
			<v:textRect cx="15.5906" cy="188.896" width="31.19" height="25.5118"/>
			<rect x="0" y="176.14" width="31.1811" height="25.5118" class="st11"/>
			<text x="10.07" y="191.9" class="st12" v:langID="18441"><v:paragraph v:horizAlign="1"/><v:tabList/>NS</text>		</g>
		<g id="shape112-104" v:mID="112" v:groupContext="shape" transform="translate(468.721,-45.2696)">
			<title>工作表.112</title>
			<desc>NS</desc>
			<v:textBlock v:margins="rect(4,4,4,4)"/>
			<v:textRect cx="15.5906" cy="188.896" width="31.19" height="25.5118"/>
			<rect x="0" y="176.14" width="31.1811" height="25.5118" class="st11"/>
			<text x="10.07" y="191.9" class="st12" v:langID="18441"><v:paragraph v:horizAlign="1"/><v:tabList/>NS</text>		</g>
		<g id="shape113-107" v:mID="113" v:groupContext="shape" transform="translate(468.721,-9.83649)">
			<title>工作表.113</title>
			<desc>NS</desc>
			<v:textBlock v:margins="rect(4,4,4,4)"/>
			<v:textRect cx="15.5906" cy="188.896" width="31.19" height="25.5118"/>
			<rect x="0" y="176.14" width="31.1811" height="25.5118" class="st11"/>
			<text x="10.07" y="191.9" class="st13" v:langID="18441"><v:paragraph v:horizAlign="1"/><v:tabList/>NS</text>		</g>
		<g id="shape114-110" v:mID="114" v:groupContext="shape" transform="translate(536.753,-151.569)">
			<title>工作表.114</title>
			<desc>S</desc>
			<v:textBlock v:margins="rect(4,4,4,4)"/>
			<v:textRect cx="15.5906" cy="188.896" width="31.19" height="25.5118"/>
			<rect x="0" y="176.14" width="31.1811" height="25.5118" class="st11"/>
			<text x="13.29" y="191.9" class="st12" v:langID="18441"><v:paragraph v:horizAlign="1"/><v:tabList/>S</text>		</g>
		<g id="shape115-113" v:mID="115" v:groupContext="shape" transform="translate(536.753,-116.136)">
			<title>工作表.115</title>
			<desc>S</desc>
			<v:textBlock v:margins="rect(4,4,4,4)"/>
			<v:textRect cx="15.5906" cy="188.896" width="31.19" height="25.5118"/>
			<rect x="0" y="176.14" width="31.1811" height="25.5118" class="st11"/>
			<text x="13.29" y="191.9" class="st12" v:langID="18441"><v:paragraph v:horizAlign="1"/><v:tabList/>S</text>		</g>
		<g id="shape116-116" v:mID="116" v:groupContext="shape" transform="translate(536.753,-80.7026)">
			<title>工作表.116</title>
			<desc>S</desc>
			<v:textBlock v:margins="rect(4,4,4,4)"/>
			<v:textRect cx="15.5906" cy="188.896" width="31.19" height="25.5118"/>
			<rect x="0" y="176.14" width="31.1811" height="25.5118" class="st11"/>
			<text x="13.29" y="191.9" class="st12" v:langID="18441"><v:paragraph v:horizAlign="1"/><v:tabList/>S</text>		</g>
		<g id="shape117-119" v:mID="117" v:groupContext="shape" transform="translate(536.753,-45.2696)">
			<title>工作表.117</title>
			<desc>NS</desc>
			<v:textBlock v:margins="rect(4,4,4,4)"/>
			<v:textRect cx="15.5906" cy="188.896" width="31.19" height="25.5118"/>
			<rect x="0" y="176.14" width="31.1811" height="25.5118" class="st11"/>
			<text x="10.07" y="191.9" class="st12" v:langID="18441"><v:paragraph v:horizAlign="1"/><v:tabList/>NS</text>		</g>
		<g id="shape118-122" v:mID="118" v:groupContext="shape" transform="translate(536.753,-9.83649)">
			<title>工作表.118</title>
			<desc>NSC</desc>
			<v:textBlock v:margins="rect(4,4,4,4)"/>
			<v:textRect cx="15.5906" cy="188.896" width="31.19" height="25.5118"/>
			<rect x="0" y="176.14" width="31.1811" height="25.5118" class="st11"/>
			<text x="7.4" y="191.9" class="st13" v:langID="18441"><v:paragraph v:horizAlign="1"/><v:tabList/>NSC</text>		</g>
		<g id="shape119-125" v:mID="119" v:groupContext="shape" transform="translate(443.987,-157.307)">
			<title>加号.238</title>
			<v:userDefs>
				<v:ud v:nameU="visVersion" v:prompt="" v:val="VT0(15):26"/>
			</v:userDefs>
			<path d="M8.42 193.23 L8.42 189.02 L5.61 189.02 L5.61 193.23 L1.4 193.23 L1.4 196.04 L5.61 196.04 L5.61 200.25 L8.42
						 200.25 L8.42 196.04 L12.63 196.04 L12.63 193.23 L8.42 193.23 Z" class="st10"/>
		</g>
		<g id="shape120-127" v:mID="120" v:groupContext="shape" transform="translate(443.987,-122.012)">
			<title>加号.239</title>
			<v:userDefs>
				<v:ud v:nameU="visVersion" v:prompt="" v:val="VT0(15):26"/>
			</v:userDefs>
			<path d="M8.42 193.23 L8.42 189.02 L5.61 189.02 L5.61 193.23 L1.4 193.23 L1.4 196.04 L5.61 196.04 L5.61 200.25 L8.42
						 200.25 L8.42 196.04 L12.63 196.04 L12.63 193.23 L8.42 193.23 Z" class="st10"/>
		</g>
		<g id="shape121-129" v:mID="121" v:groupContext="shape" transform="translate(443.987,-86.7167)">
			<title>加号.240</title>
			<v:userDefs>
				<v:ud v:nameU="visVersion" v:prompt="" v:val="VT0(15):26"/>
			</v:userDefs>
			<path d="M8.42 193.23 L8.42 189.02 L5.61 189.02 L5.61 193.23 L1.4 193.23 L1.4 196.04 L5.61 196.04 L5.61 200.25 L8.42
						 200.25 L8.42 196.04 L12.63 196.04 L12.63 193.23 L8.42 193.23 Z" class="st10"/>
		</g>
		<g id="shape122-131" v:mID="122" v:groupContext="shape" transform="translate(443.987,-51.0078)">
			<title>加号.241</title>
			<v:userDefs>
				<v:ud v:nameU="visVersion" v:prompt="" v:val="VT0(15):26"/>
			</v:userDefs>
			<path d="M8.42 193.23 L8.42 189.02 L5.61 189.02 L5.61 193.23 L1.4 193.23 L1.4 196.04 L5.61 196.04 L5.61 200.25 L8.42
						 200.25 L8.42 196.04 L12.63 196.04 L12.63 193.23 L8.42 193.23 Z" class="st10"/>
		</g>
		<g id="shape123-133" v:mID="123" v:groupContext="shape" transform="translate(443.987,-15.5747)">
			<title>加号.242</title>
			<v:userDefs>
				<v:ud v:nameU="visVersion" v:prompt="" v:val="VT0(15):26"/>
			</v:userDefs>
			<path d="M8.42 193.23 L8.42 189.02 L5.61 189.02 L5.61 193.23 L1.4 193.23 L1.4 196.04 L5.61 196.04 L5.61 200.25 L8.42
						 200.25 L8.42 196.04 L12.63 196.04 L12.63 193.23 L8.42 193.23 Z" class="st10"/>
		</g>
		<g id="shape124-135" v:mID="124" v:groupContext="shape" transform="translate(510.601,-157.307)">
			<title>等号</title>
			<v:userDefs>
				<v:ud v:nameU="visVersion" v:prompt="" v:val="VT0(15):26"/>
			</v:userDefs>
			<path d="M1.4 195.34 L1.4 198.14 L12.63 198.14 L12.63 195.34 L1.4 195.34 ZM1.4 193.93 L1.4 191.13 L12.63 191.13 L12.63
						 193.93 L1.4 193.93 Z" class="st10"/>
		</g>
		<g id="shape125-137" v:mID="125" v:groupContext="shape" transform="translate(510.601,-122.012)">
			<title>等号.245</title>
			<v:userDefs>
				<v:ud v:nameU="visVersion" v:prompt="" v:val="VT0(15):26"/>
			</v:userDefs>
			<path d="M1.4 195.34 L1.4 198.14 L12.63 198.14 L12.63 195.34 L1.4 195.34 ZM1.4 193.93 L1.4 191.13 L12.63 191.13 L12.63
						 193.93 L1.4 193.93 Z" class="st10"/>
		</g>
		<g id="shape126-139" v:mID="126" v:groupContext="shape" transform="translate(510.601,-86.7167)">
			<title>等号.246</title>
			<v:userDefs>
				<v:ud v:nameU="visVersion" v:prompt="" v:val="VT0(15):26"/>
			</v:userDefs>
			<path d="M1.4 195.34 L1.4 198.14 L12.63 198.14 L12.63 195.34 L1.4 195.34 ZM1.4 193.93 L1.4 191.13 L12.63 191.13 L12.63
						 193.93 L1.4 193.93 Z" class="st10"/>
		</g>
		<g id="shape127-141" v:mID="127" v:groupContext="shape" transform="translate(510.601,-51.4215)">
			<title>等号.247</title>
			<v:userDefs>
				<v:ud v:nameU="visVersion" v:prompt="" v:val="VT0(15):26"/>
			</v:userDefs>
			<path d="M1.4 195.34 L1.4 198.14 L12.63 198.14 L12.63 195.34 L1.4 195.34 ZM1.4 193.93 L1.4 191.13 L12.63 191.13 L12.63
						 193.93 L1.4 193.93 Z" class="st10"/>
		</g>
		<g id="shape128-143" v:mID="128" v:groupContext="shape" transform="translate(510.601,-16.1263)">
			<title>等号.248</title>
			<v:userDefs>
				<v:ud v:nameU="visVersion" v:prompt="" v:val="VT0(15):26"/>
			</v:userDefs>
			<path d="M1.4 195.34 L1.4 198.14 L12.63 198.14 L12.63 195.34 L1.4 195.34 ZM1.4 193.93 L1.4 191.13 L12.63 191.13 L12.63
						 193.93 L1.4 193.93 Z" class="st10"/>
		</g>
		<g id="shape129-145" v:mID="129" v:groupContext="shape" transform="translate(400.475,-179.266)">
			<title>工作表.129</title>
			<desc>SAU</desc>
			<v:textBlock v:margins="rect(4,4,4,4)"/>
			<v:textRect cx="17.0079" cy="197.4" width="34.02" height="8.50394"/>
			<rect x="0" y="193.148" width="34.0157" height="8.50394" class="st9"/>
			<text x="9.45" y="200.1" class="st4" v:langID="18441"><v:paragraph v:horizAlign="1"/><v:tabList/>SAU</text>		</g>
		<g id="shape130-148" v:mID="130" v:groupContext="shape" transform="translate(467.304,-179.66)">
			<title>工作表.130</title>
			<desc>IDAU</desc>
			<v:textBlock v:margins="rect(4,4,4,4)"/>
			<v:textRect cx="17.0079" cy="197.4" width="34.02" height="8.50394"/>
			<rect x="0" y="193.148" width="34.0157" height="8.50394" class="st9"/>
			<text x="7.61" y="200.1" class="st4" v:langID="18441"><v:paragraph v:horizAlign="1"/><v:tabList/>IDAU</text>		</g>
		<g id="shape131-151" v:mID="131" v:groupContext="shape" transform="translate(529.66,-179.66)">
			<title>工作表.131</title>
			<desc>End result</desc>
			<v:textBlock v:margins="rect(4,4,4,4)"/>
			<v:textRect cx="22.5521" cy="197.4" width="45.11" height="8.50394"/>
			<rect x="0" y="193.148" width="45.1042" height="8.50394" class="st9"/>
			<text x="4.14" y="200.1" class="st4" v:langID="18441"><v:paragraph v:horizAlign="1"/><v:tabList/>End result</text>		</g>
	</g>
</svg>
