<?xml version="1.0" encoding="UTF-8" standalone="no"?>
<!DOCTYPE svg PUBLIC "-//W3C//DTD SVG 1.1//EN" "http://www.w3.org/Graphics/SVG/1.1/DTD/svg11.dtd">
<!-- 由 Microsoft Visio, SVG Export 生成 Microsoft_Visio___14.svg 页-1 -->
<svg xmlns="http://www.w3.org/2000/svg" xmlns:xlink="http://www.w3.org/1999/xlink" xmlns:ev="http://www.w3.org/2001/xml-events"
		xmlns:v="http://schemas.microsoft.com/visio/2003/SVGExtensions/" width="3.78119in" height="1.43726in"
		viewBox="0 0 272.246 103.483" xml:space="preserve" color-interpolation-filters="sRGB" class="st8">
	<v:documentProperties v:langID="2052" v:metric="true" v:viewMarkup="false"/>

	<style type="text/css">
	<![CDATA[
		.st1 {fill:#ffffff;stroke:#000000;stroke-linecap:round;stroke-linejoin:round;stroke-width:0.24}
		.st2 {fill:#000000;font-family:Calibri;font-size:0.75em}
		.st3 {fill:#000000;font-family:Calibri;font-size:0.833336em}
		.st4 {fill:none;stroke:none;stroke-linecap:round;stroke-linejoin:round;stroke-width:0.75}
		.st5 {fill:#000000;font-family:Calibri;font-size:0.666664em}
		.st6 {stroke:#000000;stroke-linecap:round;stroke-linejoin:round;stroke-width:0.24}
		.st7 {stroke:#000000;stroke-linecap:round;stroke-linejoin:round;stroke-width:0.25}
		.st8 {fill:none;fill-rule:evenodd;font-size:12px;overflow:visible;stroke-linecap:square;stroke-miterlimit:3}
	]]>
	</style>

	<g v:mID="0" v:index="1" v:groupContext="foregroundPage">
		<title>页-1</title>
		<v:pageProperties v:drawingScale="0.0393701" v:pageScale="0.0393701" v:drawingUnits="24" v:shadowOffsetX="8.50394"
				v:shadowOffsetY="-8.50394"/>
		<v:layer v:name="电气" v:index="0"/>
		<v:layer v:name="连接线" v:index="1"/>
		<g id="shape2-1" v:mID="2" v:groupContext="shape" transform="translate(0.12,-4.04094)">
			<title>矩形.1</title>
			<desc>Analog MIC</desc>
			<v:userDefs>
				<v:ud v:nameU="visVersion" v:val="VT0(14):26"/>
			</v:userDefs>
			<v:textBlock v:margins="rect(4,4,4,4)" v:tabSpace="42.5197"/>
			<v:textRect cx="48.5669" cy="70.3483" width="97.14" height="66.2695"/>
			<rect x="0" y="37.2136" width="97.1339" height="66.2695" class="st1"/>
			<text x="4" y="73.05" class="st2" v:langID="2052"><v:paragraph/><v:tabList/>Analog MIC</text>		</g>
		<g id="shape3-4" v:mID="3" v:groupContext="shape" transform="translate(185.6,-4.15045)">
			<title>矩形</title>
			<desc>Chip</desc>
			<v:userDefs>
				<v:ud v:nameU="visVersion" v:val="VT0(14):26"/>
			</v:userDefs>
			<v:textBlock v:margins="rect(4,4,4,4)" v:tabSpace="42.5197"/>
			<v:textRect cx="43.2628" cy="53.8768" width="86.53" height="99.2126"/>
			<rect x="0" y="4.27045" width="86.5257" height="99.2126" class="st1"/>
			<text x="54.54" y="56.88" class="st3" v:langID="2052"><v:paragraph v:horizAlign="1"/><v:tabList/>Chip</text>		</g>
		<g id="shape4-7" v:mID="4" v:groupContext="shape" transform="translate(112.427,139.072) rotate(-135)">
			<title>中心拖动圆形.3</title>
			<v:userDefs>
				<v:ud v:nameU="visVersion" v:val="VT0(14):26"/>
			</v:userDefs>
			<path d="M-4.68 103.48 A4.67693 4.67693 0 0 1 4.68 103.48 A4.67693 4.67693 0 1 1 -4.68 103.48 Z" class="st1"/>
		</g>
		<g id="shape5-9" v:mID="5" v:groupContext="shape" transform="translate(190.487,-30.3592)">
			<title>工作表.5</title>
			<desc>MICx_P</desc>
			<v:textBlock v:margins="rect(1,1,1,1)" v:tabSpace="42.5197"/>
			<v:textRect cx="15.3075" cy="96.6834" width="30.62" height="13.5992"/>
			<rect x="0" y="89.8838" width="30.615" height="13.5992" class="st4"/>
			<text x="2.96" y="99.08" class="st5" v:langID="2052"><v:paragraph v:horizAlign="1"/><v:tabList/>MICx_P</text>		</g>
		<g id="shape6-12" v:mID="6" v:groupContext="shape" transform="translate(24.0803,138.883) rotate(-135)">
			<title>Center drag circle.7</title>
			<v:userDefs>
				<v:ud v:nameU="visVersion" v:val="VT0(14):26"/>
			</v:userDefs>
			<path d="M-4.68 103.48 A4.67693 4.67693 0 0 1 4.68 103.48 A4.67693 4.67693 0 1 1 -4.68 103.48 Z" class="st1"/>
		</g>
		<g id="group7-14" transform="translate(125.6,-31.4425)" v:mID="7" v:groupContext="group" v:layerMember="0">
			<v:userDefs>
				<v:ud v:nameU="Form" v:val="VT0(0):26"/>
				<v:ud v:nameU="Type" v:val="VT0(0):26"/>
				<v:ud v:nameU="visVersion" v:val="VT0(14):26"/>
				<v:ud v:nameU="visDescription" v:val="VT4(表示固定或可变电容器。)"/>
			</v:userDefs>
			<title>电容器</title>
			<g id="shape8-15" v:mID="8" v:groupContext="shape" v:layerMember="0" transform="translate(79.8361,19.5089) rotate(45)">
				<title>工作表.8</title>
			</g>
			<g id="shape9-17" v:mID="9" v:groupContext="shape" v:layerMember="0" transform="translate(9.92126,1.42109E-14)">
				<title>工作表.9</title>
				<path d="M2.83 103.48 L2.83 92.14" class="st6"/>
				<path d="M5.67 103.48 L5.67 92.14" class="st6"/>
			</g>
			<g id="shape10-21" v:mID="10" v:groupContext="shape" v:layerMember="0" transform="translate(0,-5.66929)">
				<title>工作表.10</title>
				<path d="M0 103.48 L12.76 103.48" class="st6"/>
				<path d="M15.59 103.48 L28.35 103.48" class="st6"/>
			</g>
		</g>
		<g id="shape11-25" v:mID="11" v:groupContext="shape" v:layerMember="1" transform="translate(125.6,-30.0827)">
			<title>动态连接线</title>
			<path d="M0 96.45 L-23.7 96.34" class="st7"/>
		</g>
		<g id="shape12-28" v:mID="12" v:groupContext="shape" v:layerMember="1" transform="translate(153.947,-30.0712)">
			<title>动态连接线.12</title>
			<path d="M0 96.44 L26.99 96.35" class="st7"/>
		</g>
		<g id="shape13-31" v:mID="13" v:groupContext="shape" transform="translate(112.427,86.3128) rotate(-135)">
			<title>中心拖动圆形.13</title>
			<v:userDefs>
				<v:ud v:nameU="visVersion" v:val="VT0(14):26"/>
			</v:userDefs>
			<path d="M-4.68 103.48 A4.67693 4.67693 0 0 1 4.68 103.48 A4.67693 4.67693 0 1 1 -4.68 103.48 Z" class="st1"/>
		</g>
		<g id="shape19-33" v:mID="19" v:groupContext="shape" transform="translate(54.4942,-32.7514)">
			<title>工作表.19</title>
			<desc>OUTPUTP</desc>
			<v:textBlock v:margins="rect(1,1,1,1)" v:tabSpace="42.5197"/>
			<v:textRect cx="19.8425" cy="97.8138" width="39.69" height="11.3386"/>
			<rect x="0" y="92.1445" width="39.685" height="11.3386" class="st4"/>
			<text x="4.03" y="100.21" class="st5" v:langID="2052"><v:paragraph v:horizAlign="1"/><v:tabList/>OUTPUTP</text>		</g>
		<g id="shape20-36" v:mID="20" v:groupContext="shape" transform="translate(191.857,-82.6542)">
			<title>工作表.20</title>
			<desc>MIC_BIAS</desc>
			<v:textBlock v:margins="rect(1,1,1,1)" v:tabSpace="42.5197"/>
			<v:textRect cx="17.7165" cy="95.6878" width="35.44" height="15.5906"/>
			<rect x="0" y="87.8925" width="35.4331" height="15.5906" class="st4"/>
			<text x="1.83" y="98.09" class="st5" v:langID="2052"><v:paragraph v:horizAlign="1"/><v:tabList/>MIC_BIAS</text>		</g>
		<g id="shape21-39" v:mID="21" v:groupContext="shape" transform="translate(112.427,158.915) rotate(-135)">
			<title>中心拖动圆形.31</title>
			<v:userDefs>
				<v:ud v:nameU="visVersion" v:val="VT0(14):26"/>
			</v:userDefs>
			<path d="M-4.68 103.48 A4.67693 4.67693 0 0 1 4.68 103.48 A4.67693 4.67693 0 1 1 -4.68 103.48 Z" class="st1"/>
		</g>
		<g id="shape22-41" v:mID="22" v:groupContext="shape" transform="translate(188.504,-10.4697)">
			<title>工作表.22</title>
			<desc>MICx_N</desc>
			<v:textBlock v:margins="rect(1,1,1,1)" v:tabSpace="42.5197"/>
			<v:textRect cx="17.7165" cy="96.6834" width="35.44" height="13.5992"/>
			<rect x="0" y="89.8838" width="35.4331" height="13.5992" class="st4"/>
			<text x="4.85" y="99.08" class="st5" v:langID="2052"><v:paragraph v:horizAlign="1"/><v:tabList/>MICx_N</text>		</g>
		<g id="shape23-44" v:mID="23" v:groupContext="shape" transform="translate(24.0803,158.726) rotate(-135)">
			<title>Center drag circle.33</title>
			<v:userDefs>
				<v:ud v:nameU="visVersion" v:val="VT0(14):26"/>
			</v:userDefs>
			<path d="M-4.68 103.48 A4.67693 4.67693 0 0 1 4.68 103.48 A4.67693 4.67693 0 1 1 -4.68 103.48 Z" class="st1"/>
		</g>
		<g id="group24-46" transform="translate(125.6,-11.6)" v:mID="24" v:groupContext="group" v:layerMember="0">
			<v:userDefs>
				<v:ud v:nameU="Form" v:val="VT0(0):26"/>
				<v:ud v:nameU="Type" v:val="VT0(0):26"/>
				<v:ud v:nameU="visVersion" v:val="VT0(14):26"/>
				<v:ud v:nameU="visDescription" v:val="VT4(表示固定或可变电容器。)"/>
			</v:userDefs>
			<title>电容器.34</title>
			<g id="shape25-47" v:mID="25" v:groupContext="shape" v:layerMember="0"
					transform="translate(79.8361,19.5089) rotate(45)">
				<title>工作表.25</title>
			</g>
			<g id="shape26-49" v:mID="26" v:groupContext="shape" v:layerMember="0" transform="translate(9.92126,1.42109E-14)">
				<title>工作表.26</title>
				<path d="M2.83 103.48 L2.83 92.14" class="st6"/>
				<path d="M5.67 103.48 L5.67 92.14" class="st6"/>
			</g>
			<g id="shape27-53" v:mID="27" v:groupContext="shape" v:layerMember="0" transform="translate(0,-5.66929)">
				<title>工作表.27</title>
				<path d="M0 103.48 L12.76 103.48" class="st6"/>
				<path d="M15.59 103.48 L28.35 103.48" class="st6"/>
			</g>
		</g>
		<g id="shape28-57" v:mID="28" v:groupContext="shape" v:layerMember="1" transform="translate(153.947,-10.2286)">
			<title>动态连接线.38</title>
			<path d="M0 96.44 L26.99 96.35" class="st7"/>
		</g>
		<g id="shape29-60" v:mID="29" v:groupContext="shape" transform="translate(54.4942,-12.7773)">
			<title>工作表.29</title>
			<desc>OUTPUTN</desc>
			<v:textBlock v:margins="rect(1,1,1,1)" v:tabSpace="42.5197"/>
			<v:textRect cx="19.8425" cy="97.8138" width="39.69" height="11.3386"/>
			<rect x="0" y="92.1445" width="39.685" height="11.3386" class="st4"/>
			<text x="3.51" y="100.21" class="st5" v:langID="2052"><v:paragraph v:horizAlign="1"/><v:tabList/>OUTPUTN</text>		</g>
		<g id="shape30-63" v:mID="30" v:groupContext="shape" v:layerMember="1" transform="translate(125.6,-10.1994)">
			<title>动态连接线.40</title>
			<path d="M0 96.41 L-23.71 96.38" class="st7"/>
		</g>
		<g id="shape36-66" v:mID="36" v:groupContext="shape" transform="translate(-2.30742,106.346) rotate(-135)">
			<title>Center drag circle.36</title>
			<v:userDefs>
				<v:ud v:nameU="visVersion" v:val="VT0(14):26"/>
			</v:userDefs>
			<path d="M-4.68 103.48 A4.67693 4.67693 0 0 1 4.68 103.48 A4.67693 4.67693 0 1 1 -4.68 103.48 Z" class="st1"/>
		</g>
		<g id="shape37-68" v:mID="37" v:groupContext="shape" transform="translate(51.0236,-53.9621)">
			<title>工作表.37</title>
			<desc>VDD</desc>
			<v:textBlock v:margins="rect(1,1,1,1)" v:tabSpace="42.5197"/>
			<v:textRect cx="19.8425" cy="97.8138" width="39.69" height="11.3386"/>
			<rect x="0" y="92.1445" width="39.685" height="11.3386" class="st4"/>
			<text x="12.65" y="100.21" class="st5" v:langID="2052"><v:paragraph v:horizAlign="1"/><v:tabList/>VDD</text>		</g>
		<g id="shape38-71" v:mID="38" v:groupContext="shape" transform="translate(70.8661,-74.9874)">
			<title>工作表.38</title>
			<path d="M110.06 87.77 L0 87.77 L0 103.48" class="st7"/>
		</g>
	</g>
</svg>
