<?xml version="1.0" encoding="UTF-8" standalone="no"?>
<!DOCTYPE svg PUBLIC "-//W3C//DTD SVG 1.1//EN" "http://www.w3.org/Graphics/SVG/1.1/DTD/svg11.dtd">
<!-- 由 Microsoft Visio, SVG Export 生成 bod_schematic.svg 页-1 -->
<svg xmlns="http://www.w3.org/2000/svg" xmlns:xlink="http://www.w3.org/1999/xlink" xmlns:ev="http://www.w3.org/2001/xml-events"
		xmlns:v="http://schemas.microsoft.com/visio/2003/SVGExtensions/" width="6.18888in" height="1.90697in"
		viewBox="0 0 445.599 137.302" xml:space="preserve" color-interpolation-filters="sRGB" class="st10">
	<v:documentProperties v:langID="2052" v:metric="true" v:viewMarkup="false"/>

	<style type="text/css">
	<![CDATA[
		.st1 {fill:none;stroke:none;stroke-linecap:round;stroke-linejoin:round;stroke-width:0.75}
		.st2 {fill:#000000;font-family:Calibri;font-size:0.666664em}
		.st3 {stroke:#000000;stroke-width:0.72}
		.st4 {stroke:#000000;stroke-dasharray:5.04,3.6;stroke-width:0.72}
		.st5 {stroke:#000000;stroke-dasharray:0.5,1;stroke-linecap:round;stroke-linejoin:round;stroke-width:0.5}
		.st6 {stroke:#000000;stroke-linecap:round;stroke-linejoin:round;stroke-width:0.75}
		.st7 {baseline-shift:-32.4939%;font-size:0.649878em}
		.st8 {marker-end:url(#mrkr5-115);marker-start:url(#mrkr5-113);stroke:#000000;stroke-linecap:round;stroke-linejoin:round;stroke-width:0.75}
		.st9 {fill:#000000;fill-opacity:1;stroke:#000000;stroke-opacity:1;stroke-width:0.34246575342466}
		.st10 {fill:none;fill-rule:evenodd;font-size:12px;overflow:visible;stroke-linecap:square;stroke-miterlimit:3}
	]]>
	</style>

	<defs id="Markers">
		<g id="lend5">
			<path d="M 2 1 L 0 0 L 1.98117 -0.993387 C 1.67173 -0.364515 1.67301 0.372641 1.98465 1.00043 " style="stroke:none"/>
		</g>
		<marker id="mrkr5-113" class="st9" v:arrowType="5" v:arrowSize="0" v:setback="4.63" refX="4.63" orient="auto"
				markerUnits="strokeWidth" overflow="visible">
			<use xlink:href="#lend5" transform="scale(2.92) "/>
		</marker>
		<marker id="mrkr5-115" class="st9" v:arrowType="5" v:arrowSize="0" v:setback="5.11" refX="-5.11" orient="auto"
				markerUnits="strokeWidth" overflow="visible">
			<use xlink:href="#lend5" transform="scale(-2.92,-2.92) "/>
		</marker>
	</defs>
	<g v:mID="0" v:index="1" v:groupContext="foregroundPage">
		<title>页-1</title>
		<v:pageProperties v:drawingScale="0.0393701" v:pageScale="0.0393701" v:drawingUnits="24" v:shadowOffsetX="4.25197"
				v:shadowOffsetY="-4.25197"/>
		<g id="shape79-1" v:mID="79" v:groupContext="shape" transform="translate(22.6772,-128.078)">
			<title>工作表.79</title>
			<desc>VDH_IO0</desc>
			<v:textBlock v:margins="rect(4,4,4,4)" v:tabSpace="42.5197"/>
			<v:textRect cx="20.7387" cy="133.05" width="41.48" height="8.50394"/>
			<rect x="0" y="128.798" width="41.4774" height="8.50394" class="st1"/>
			<text x="7.68" y="135.45" class="st2" v:langID="2052"><v:paragraph v:horizAlign="2"/><v:tabList/>VDH_IO0</text>		</g>
		<g id="shape80-4" v:mID="80" v:groupContext="shape" transform="translate(68.2146,-109.936)">
			<title>工作表.80</title>
			<path d="M108.26 110.66 C96.35 108.28 97.03 138.04 87.38 137.3 C85.35 137.15 82.86 135.64 80.93 133.9 C77.51 130.79 75.89
						 126.93 74.23 122.56 C72.26 117.35 70.25 111.43 64.44 111.37 L0 111.37" class="st3"/>
		</g>
		<g id="shape81-7" v:mID="81" v:groupContext="shape" transform="translate(384.527,153.762) rotate(180)">
			<title>工作表.81</title>
			<path d="M0 137.3 L264.91 137.3" class="st4"/>
		</g>
		<g id="shape82-10" v:mID="82" v:groupContext="shape" transform="translate(384.818,172.187) rotate(180)">
			<title>工作表.82</title>
			<path d="M0 137.3 L266.3 137.3" class="st4"/>
		</g>
		<g id="shape83-13" v:mID="83" v:groupContext="shape" transform="translate(387.195,-97.7921)">
			<title>工作表.83</title>
			<desc>Vbod_L</desc>
			<v:textBlock v:margins="rect(4,4,4,4)" v:tabSpace="42.5197"/>
			<v:textRect cx="17.7843" cy="133.05" width="35.57" height="8.50394"/>
			<rect x="0" y="128.798" width="35.5686" height="8.50394" class="st1"/>
			<text x="4" y="135.45" class="st2" v:langID="2052"><v:paragraph/><v:tabList/>Vbod_L</text>		</g>
		<g id="shape84-16" v:mID="84" v:groupContext="shape" transform="translate(0.375,-49.4311)">
			<title>工作表.84</title>
			<desc>BOD_DET</desc>
			<v:textBlock v:margins="rect(4,4,4,4)" v:tabSpace="42.5197"/>
			<v:textRect cx="32.5984" cy="133.05" width="65.2" height="8.50394"/>
			<rect x="0" y="128.798" width="65.1969" height="8.50394" class="st1"/>
			<text x="29.92" y="135.45" class="st2" v:langID="2052"><v:paragraph v:horizAlign="2"/><v:tabList/>BOD_DET</text>		</g>
		<g id="shape85-19" v:mID="85" v:groupContext="shape" transform="translate(157.725,219.837) rotate(180)">
			<title>工作表.85</title>
			<path d="M0 137.3 L88.94 137.3" class="st3"/>
		</g>
		<g id="shape86-22" v:mID="86" v:groupContext="shape" transform="translate(20.4226,82.5351) rotate(-90)">
			<title>工作表.86</title>
		</g>
		<g id="shape87-23" v:mID="87" v:groupContext="shape" transform="translate(157.725,-54.7669)">
			<title>工作表.87</title>
			<path d="M0 137.3 L22.68 137.3" class="st3"/>
		</g>
		<g id="shape88-26" v:mID="88" v:groupContext="shape" transform="translate(235.472,220.486) rotate(-179.334)">
			<title>工作表.88</title>
			<path d="M0 137.3 L56.67 137.3" class="st3"/>
		</g>
		<g id="shape89-29" v:mID="89" v:groupContext="shape" transform="translate(237.068,-0.25)">
			<title>工作表.89</title>
			<path d="M0 1.24 L0 98 L0 137.3" class="st5"/>
		</g>
		<g id="shape90-32" v:mID="90" v:groupContext="shape" transform="translate(99.7659,98.7843) rotate(-90)">
			<title>工作表.90</title>
			<path d="M0 137.3 L15.59 137.3" class="st3"/>
		</g>
		<g id="shape91-35" v:mID="91" v:groupContext="shape" transform="translate(312.186,-0.25)">
			<title>工作表.91</title>
			<path d="M0 1.24 L0 98 L0 137.3" class="st5"/>
		</g>
		<g id="shape92-38" v:mID="92" v:groupContext="shape" transform="translate(235.519,-38.509) rotate(-0.646166)">
			<title>工作表.92</title>
			<path d="M0 137.3 L75.41 137.3" class="st3"/>
		</g>
		<g id="shape93-41" v:mID="93" v:groupContext="shape" transform="translate(175.167,97.9339) rotate(-90)">
			<title>工作表.93</title>
			<path d="M0 137.3 L15.59 137.3" class="st3"/>
		</g>
		<g id="shape94-44" v:mID="94" v:groupContext="shape" transform="translate(312.635,-54.9586) rotate(0.0691731)">
			<title>工作表.94</title>
			<path d="M0 137.3 L131.29 137.3" class="st3"/>
		</g>
		<g id="shape95-47" v:mID="95" v:groupContext="shape" transform="translate(191.714,138.022) rotate(180)">
			<title>工作表.95</title>
			<path d="M0 137.3 L15.24 137.3" class="st3"/>
		</g>
		<g id="shape96-50" v:mID="96" v:groupContext="shape" transform="translate(191.787,-88.7187) rotate(0.0467829)">
			<title>工作表.96</title>
			<path d="M0 89.44 C32.61 86 36.24 100.76 40.38 112.79 C43.09 120.67 46.02 127.37 56.1 132.06 C62.45 135.02 71.64 137.18
						 79.22 137.3 C118.45 137.93 114.48 83.98 150.94 89.44" class="st6"/>
		</g>
		<g id="shape97-53" v:mID="97" v:groupContext="shape" transform="translate(444.879,138.022) rotate(180)">
			<title>工作表.97</title>
			<path d="M0 137.3 L102.22 137.3" class="st3"/>
		</g>
		<g id="shape98-56" v:mID="98" v:groupContext="shape" transform="translate(208.32,-95.6448) rotate(45)">
			<title>工作表.98</title>
			<path d="M0 137.3 L0.06 137.3" class="st6"/>
		</g>
		<g id="shape99-59" v:mID="99" v:groupContext="shape" transform="translate(81.8209,-109.687)">
			<title>工作表.99</title>
			<path d="M0 137.3 L74.81 137.3" class="st5"/>
		</g>
		<g id="shape100-62" v:mID="100" v:groupContext="shape" transform="translate(387.195,-116.56)">
			<title>工作表.100</title>
			<desc>Vbod_H</desc>
			<v:textBlock v:margins="rect(4,4,4,4)" v:tabSpace="42.5197"/>
			<v:textRect cx="17.7843" cy="133.05" width="35.57" height="8.50394"/>
			<rect x="0" y="128.798" width="35.5686" height="8.50394" class="st1"/>
			<text x="4" y="135.45" class="st2" v:langID="2052"><v:paragraph/><v:tabList/>Vbod_H</text>		</g>
		<g id="shape101-65" v:mID="101" v:groupContext="shape" transform="translate(77.3335,-111.796)">
			<title>工作表.101</title>
			<desc>V1</desc>
			<v:textBlock v:margins="rect(4,4,4,4)" v:tabSpace="42.5197"/>
			<v:textRect cx="10.5015" cy="133.05" width="21.01" height="8.50394"/>
			<rect x="0" y="128.798" width="21.003" height="8.50394" class="st1"/>
			<text x="6.91" y="135.45" class="st2" v:langID="2052"><v:paragraph v:horizAlign="1"/><v:tabList/>V<tspan dy="-0.284em"
						class="st7" v:baseFontSize="8">1</tspan></text>		</g>
		<g id="shape102-69" v:mID="102" v:groupContext="shape" transform="translate(231.535,-88.2439)">
			<title>工作表.102</title>
			<path d="M0 137.3 L73.91 137.3" class="st5"/>
		</g>
		<g id="shape103-72" v:mID="103" v:groupContext="shape" transform="translate(224.66,-90.3527)">
			<title>工作表.103</title>
			<desc>V2</desc>
			<v:textBlock v:margins="rect(4,4,4,4)" v:tabSpace="42.5197"/>
			<v:textRect cx="12.7559" cy="133.05" width="25.52" height="8.50394"/>
			<rect x="0" y="128.798" width="25.5118" height="8.50394" class="st1"/>
			<text x="9.17" y="135.45" class="st2" v:langID="2052"><v:paragraph v:horizAlign="1"/><v:tabList/>V<tspan dy="-0.284em"
						class="st7" v:baseFontSize="8">2</tspan></text>		</g>
		<g id="shape104-76" v:mID="104" v:groupContext="shape" transform="translate(384.766,200.625) rotate(180)">
			<title>工作表.104</title>
			<path d="M0 137.3 L265.15 137.3" class="st4"/>
		</g>
		<g id="shape105-79" v:mID="105" v:groupContext="shape" transform="translate(387.195,-69.7271)">
			<title>工作表.105</title>
			<desc>Vpor_L</desc>
			<v:textBlock v:margins="rect(4,4,4,4)" v:tabSpace="42.5197"/>
			<v:textRect cx="17.7843" cy="133.05" width="35.57" height="8.50394"/>
			<rect x="0" y="128.798" width="35.5686" height="8.50394" class="st1"/>
			<text x="4" y="135.45" class="st2" v:langID="2052"><v:paragraph/><v:tabList/>Vpor_L</text>		</g>
		<g id="shape106-82" v:mID="106" v:groupContext="shape" transform="translate(157.961,249.601) rotate(180)">
			<title>工作表.106</title>
			<path d="M0 137.3 L88.94 137.3" class="st3"/>
		</g>
		<g id="shape107-85" v:mID="107" v:groupContext="shape" transform="translate(20.6592,112.299) rotate(-90)">
			<title>工作表.107</title>
		</g>
		<g id="shape108-86" v:mID="108" v:groupContext="shape" transform="translate(157.961,-25.0031)">
			<title>工作表.108</title>
			<path d="M0 137.3 L22.68 137.3" class="st3"/>
		</g>
		<g id="shape109-89" v:mID="109" v:groupContext="shape" transform="translate(279.571,249.743) rotate(-179.918)">
			<title>工作表.109</title>
			<path d="M0 137.3 L99.13 137.3" class="st3"/>
		</g>
		<g id="shape110-92" v:mID="110" v:groupContext="shape" transform="translate(142.466,128.031) rotate(-90)">
			<title>工作表.110</title>
			<path d="M0 137.3 L15.59 137.3" class="st3"/>
		</g>
		<g id="shape111-95" v:mID="111" v:groupContext="shape" transform="translate(278.38,-9.26362) rotate(-0.57919)">
			<title>工作表.111</title>
			<path d="M0 137.3 L32.33 137.3" class="st3"/>
		</g>
		<g id="shape112-98" v:mID="112" v:groupContext="shape" transform="translate(174.79,127.705) rotate(-90)">
			<title>工作表.112</title>
			<path d="M0 137.3 L15.59 137.3" class="st3"/>
		</g>
		<g id="shape113-101" v:mID="113" v:groupContext="shape" transform="translate(312.25,-25.1879) rotate(0.0658413)">
			<title>工作表.113</title>
			<path d="M0 137.3 L131.91 137.3" class="st3"/>
		</g>
		<g id="shape114-104" v:mID="114" v:groupContext="shape" transform="translate(279.588,-0.25)">
			<title>工作表.114</title>
			<path d="M0 1.24 L0 98 L0 137.3" class="st5"/>
		</g>
		<g id="shape115-107" v:mID="115" v:groupContext="shape" transform="translate(279.588,265.85) rotate(180)">
			<title>工作表.115</title>
			<path d="M3.47 137.3 L3.83 137.3 L38.69 137.3" class="st8"/>
		</g>
		<g id="shape116-116" v:mID="116" v:groupContext="shape" transform="translate(234.233,-12.7224)">
			<title>工作表.116</title>
			<desc>Tdebounce</desc>
			<v:textBlock v:margins="rect(4,4,4,4)" v:tabSpace="42.5197"/>
			<v:textRect cx="24.0945" cy="133.617" width="48.19" height="7.37008"/>
			<rect x="0" y="129.932" width="48.189" height="7.37008" class="st1"/>
			<text x="5.96" y="136.02" class="st2" v:langID="2052"><v:paragraph v:horizAlign="1"/><v:tabList/>Tdebounce</text>		</g>
		<g id="shape118-119" v:mID="118" v:groupContext="shape" transform="translate(3.20965,-19.6673)">
			<title>工作表.118</title>
			<desc>BOD_RST/INTR</desc>
			<v:textBlock v:margins="rect(4,4,4,4)" v:tabSpace="42.5197"/>
			<v:textRect cx="32.5984" cy="133.05" width="65.2" height="8.50394"/>
			<rect x="0" y="128.798" width="65.1969" height="8.50394" class="st1"/>
			<text x="12.21" y="135.45" class="st2" v:langID="2052"><v:paragraph v:horizAlign="2"/><v:tabList/>BOD_RST/INTR</text>		</g>
	</g>
</svg>
